# Blender v2.79 (sub 0) OBJ File: ''
# www.blender.org
mtllib m102.mtl
o m102
v -0.109672 0.218986 0.031169
v 0.000044 0.220733 0.063327
v 0.109759 0.218986 0.031169
v -0.119566 0.207928 -0.097464
v 0.119654 0.207928 -0.097464
v -0.075040 0.183482 -0.168473
v 0.000044 0.183482 -0.199467
v 0.075128 0.183482 -0.168473
v -0.142994 0.041171 -0.143009
v 0.000044 0.041171 -0.201213
v 0.143081 0.041171 -0.143009
v -0.140811 -0.030420 -0.161343
v 0.000044 -0.030420 -0.210526
v 0.140899 -0.030420 -0.161343
v -0.153616 -0.130532 -0.143009
v 0.000044 -0.130532 -0.201213
v 0.153704 -0.130532 -0.143009
v -0.121749 -0.291613 -0.124965
v 0.000044 -0.314458 -0.155959
v 0.121837 -0.291613 -0.124965
v -0.141975 -0.326245 -0.065160
v 0.000044 -0.377319 -0.052646
v 0.142063 -0.326245 -0.065160
v -0.140375 -0.343706 0.011379
v 0.000044 -0.371208 0.014144
v 0.140462 -0.343706 0.011379
v -0.168458 -0.130532 0.086899
v 0.000044 -0.130532 0.134191
v 0.168546 -0.130532 0.086899
v -0.140811 -0.026782 0.077878
v 0.000044 -0.026782 0.145686
v 0.140899 -0.026782 0.077878
v -0.187957 0.041171 0.086899
v 0.000044 0.041171 0.120222
v 0.188045 0.041171 0.086899
v 0.188045 -0.130532 -0.028055
v 0.171165 -0.028092 -0.032711
v 0.188045 0.041171 -0.028055
v -0.187957 -0.130532 -0.028055
v -0.171078 -0.028092 -0.032711
v -0.187957 0.041171 -0.028055
v -0.112582 -0.320570 0.184101
v -0.058743 -0.320570 0.184101
v -0.058743 -0.267313 0.169259
v -0.112582 -0.267313 0.169259
v 0.058830 -0.320570 0.184101
v 0.112670 -0.320570 0.184101
v 0.112670 -0.267313 0.169259
v 0.058830 -0.267313 0.169259
v -0.112582 0.086862 0.178717
v -0.058743 0.086862 0.178717
v -0.058743 0.143029 0.163875
v -0.112582 0.143029 0.163875
v 0.058830 0.086862 0.178717
v 0.112670 0.086862 0.178717
v 0.112670 0.143029 0.163875
v 0.058830 0.143029 0.163875
v -0.118111 -0.322753 0.215095
v -0.053359 -0.322753 0.215095
v -0.053359 -0.253053 0.215095
v -0.118111 -0.253053 0.215095
v 0.053446 -0.322753 0.215095
v 0.118199 -0.322753 0.215095
v 0.118199 -0.253053 0.215095
v 0.053446 -0.253053 0.215095
v -0.118111 0.089627 0.214804
v -0.053359 0.089627 0.214804
v -0.053359 0.161655 0.214804
v -0.118111 0.161655 0.214804
v 0.053446 0.089627 0.214804
v 0.118199 0.089627 0.214804
v 0.118199 0.161655 0.214804
v 0.053446 0.161655 0.214804
v -0.116656 0.270352 -0.001280
v 0.000044 0.267878 0.078605
v -0.090028 0.233683 -0.123656
v 0.116744 0.270352 -0.001280
v 0.090115 0.233683 -0.123656
v 0.000044 0.233683 -0.179095
v -0.044046 0.233683 -0.162362
v 0.044134 0.233683 -0.162362
v -0.103560 0.366826 0.026221
v 0.000044 0.343253 0.085590
v -0.114619 0.377012 -0.019178
v 0.103648 0.366826 0.026221
v 0.114707 0.377012 -0.019178
v 0.000044 0.354458 -0.155523
v -0.043028 0.354458 -0.147374
v 0.043115 0.354458 -0.147374
v -0.047975 0.473777 0.030004
v 0.000044 0.473777 0.044847
v -0.060489 0.473777 0.002503
v 0.048063 0.473777 0.030004
v 0.060577 0.473777 0.002503
v 0.000044 0.473777 -0.048572
v -0.047538 0.473777 -0.043770
v 0.047626 0.473777 -0.043770
v -0.037498 0.497059 0.009778
v 0.000044 0.497786 0.020837
v 0.000044 0.506517 -0.022671
v -0.045356 0.499969 -0.015395
v 0.037586 0.497059 0.009778
v 0.045443 0.499969 -0.015395
v 0.000044 0.501133 -0.050318
v -0.032260 0.494003 -0.045952
v 0.032347 0.494003 -0.045952
v 0.059849 0.427504 -0.068070
v 0.000044 0.428086 -0.073600
v -0.060198 0.425467 -0.069816
v 0.045575 0.300691 -0.079833
v 0.097795 0.257328 -0.106431
v 0.119539 0.272607 -0.048693
v 0.056190 0.300691 -0.112486
v 0.071086 0.273189 -0.140166
v 0.102418 0.334158 -0.112846
v 0.000044 -0.432133 -0.015177
v 0.000044 -0.377275 -0.052719
v 0.000044 -0.314414 -0.156032
v 0.000044 -0.443483 -0.032056
v 0.000044 -0.397792 -0.057084
v 0.000044 -0.355012 -0.107431
v -0.045475 0.300691 -0.079833
v -0.097712 0.257328 -0.106431
v -0.119462 0.272607 -0.048693
v -0.056094 0.300691 -0.112486
v -0.070994 0.273189 -0.140166
v -0.102336 0.334158 -0.112846
vn -0.0767 0.9776 0.1962
vn 0.0582 0.9895 0.1326
vn -0.1697 0.9673 -0.1884
vn 0.1788 0.9484 -0.2618
vn -0.3815 0.0113 -0.9243
vn 0.3815 0.0168 -0.9242
vn -0.3742 0.1196 -0.9196
vn 0.3677 0.2202 -0.9035
vn -0.3284 -0.0875 -0.9405
vn 0.3269 -0.1296 -0.9361
vn -0.3452 -0.2242 -0.9113
vn 0.3489 -0.1722 -0.9212
vn -0.2808 -0.8199 -0.4989
vn 0.2872 -0.7836 -0.5509
vn -0.3438 -0.9351 0.0856
vn 0.3152 -0.9267 -0.2048
vn 0.0000 0.0000 1.0000
vn -0.2687 -0.1061 0.9574
vn 0.2670 0.1539 0.9513
vn -0.4110 0.3199 0.8537
vn 0.3998 -0.3877 0.8306
vn 0.9918 -0.1277 -0.0084
vn 0.9501 0.2672 0.1612
vn 0.7870 -0.5755 0.2222
vn 0.9152 0.4029 0.0000
vn 0.9105 -0.1401 -0.3891
vn 0.9483 0.1434 -0.2833
vn 0.9511 -0.2170 -0.2199
vn 0.9075 0.2244 -0.3550
vn -0.9687 -0.1858 0.1643
vn -0.9296 0.2696 0.2512
vn -0.8216 -0.5700 0.0000
vn -0.9106 0.4118 0.0346
vn -0.9445 -0.1684 -0.2821
vn -0.9621 0.1481 -0.2291
vn -0.9128 -0.1984 -0.3570
vn -0.8252 0.1076 -0.5545
vn -0.1917 -0.9568 0.2188
vn 0.8438 -0.2395 0.4802
vn -0.2446 0.4249 0.8716
vn -0.9648 -0.1912 0.1808
vn 0.1928 -0.9680 0.1607
vn 0.9372 -0.2195 0.2712
vn 0.2540 0.3412 0.9050
vn -0.9106 -0.1845 0.3699
vn -0.0975 -0.8295 0.5500
vn 0.7762 0.1904 0.6010
vn -0.1567 0.8586 0.4880
vn -0.7820 0.4719 0.4071
vn 0.0888 -0.8607 0.5013
vn 0.8583 0.4533 0.2406
vn 0.1708 0.8254 0.5380
vn -0.7638 0.1950 0.6153
vn 0.0000 -0.9975 -0.0703
vn 0.9938 -0.0299 -0.1074
vn 0.0000 0.9549 -0.2971
vn -0.9826 -0.0498 -0.1788
vn 0.9934 -0.0307 -0.1103
vn -0.9835 -0.0486 -0.1743
vn 0.0000 -0.9971 0.0764
vn 0.9951 -0.0253 -0.0959
vn 0.0000 0.9392 -0.3435
vn -0.9881 -0.0392 -0.1484
vn 0.9948 -0.0260 -0.0985
vn -0.9888 -0.0382 -0.1446
vn -0.2642 -0.2973 0.9175
vn -0.9931 -0.0823 0.0835
vn 0.2521 0.4921 0.8332
vn 0.6638 0.7478 -0.0132
vn -0.3604 0.3287 -0.8730
vn -0.7636 0.2880 -0.5779
vn 0.6605 0.4782 -0.5788
vn 0.3573 0.3512 -0.8655
vn -0.5643 -0.0762 0.8220
vn -0.9422 0.2037 -0.2661
vn 0.5602 -0.1559 0.8136
vn 0.9780 -0.0162 -0.2080
vn -0.3523 0.1182 -0.9284
vn -0.5879 0.4082 -0.6984
vn 0.6408 0.0999 -0.7612
vn 0.3491 0.1795 -0.9197
vn -0.4322 0.2687 0.8608
vn -0.8498 0.4309 0.3037
vn 0.4514 0.2039 0.8687
vn 0.8592 0.4130 0.3020
vn -0.0758 0.4885 -0.8692
vn -0.7829 0.5159 -0.3478
vn 0.7838 0.3655 -0.5020
vn 0.0855 0.4787 -0.8738
vn -0.2135 0.6908 0.6908
vn -0.7214 0.6098 0.3283
vn 0.2127 0.6936 0.6882
vn 0.7076 0.6289 0.3220
vn -0.1004 -0.0315 -0.9945
vn -0.9025 0.3488 -0.2526
vn 0.7895 0.5726 -0.2210
vn 0.1002 -0.0634 -0.9929
vn 0.7883 0.4362 -0.4340
vn 0.1255 0.7379 -0.6632
vn -0.1296 0.7169 -0.6850
vn -0.7868 0.3585 -0.5024
vn -0.6875 -0.6909 -0.2235
vn -0.7146 -0.6492 0.2605
vn 0.9397 -0.0842 -0.3316
vn 0.7568 -0.0995 -0.6460
vn 1.0000 -0.0000 0.0000
vn 0.6874 -0.6910 -0.2236
vn 0.7145 -0.6493 0.2606
vn -0.9396 -0.0842 -0.3317
vn -0.7567 -0.0995 -0.6461
vn -0.1175 0.9817 0.1502
vn 0.1092 0.9746 0.1956
vn -0.2432 0.9271 -0.2852
vn 0.2357 0.9539 -0.1858
vn -0.3769 0.0142 -0.9262
vn 0.3769 0.0114 -0.9262
vn -0.3211 0.2257 -0.9197
vn 0.3272 0.1219 -0.9371
vn -0.3514 -0.1250 -0.9278
vn 0.3529 -0.0867 -0.9316
vn -0.2715 -0.1600 -0.9490
vn 0.2802 -0.2293 -0.9321
vn -0.2405 -0.8025 -0.5460
vn 0.2529 -0.8265 -0.5029
vn -0.1836 -0.9592 -0.2150
vn 0.1931 -0.9771 0.0894
vn -0.4258 0.1904 0.8845
vn 0.4316 -0.0993 0.8966
vn -0.1692 -0.2442 0.9548
vn 0.1637 0.3462 0.9238
vn 0.9534 -0.2547 0.1617
vn 0.9512 0.1685 0.2583
vn 0.9716 -0.2368 0.0000
vn 0.9191 0.3923 0.0370
vn 0.9355 -0.2164 -0.2795
vn 0.9698 0.0820 -0.2297
vn 0.9293 0.0648 -0.3635
vn 0.7729 0.2659 -0.5762
vn -0.9743 -0.2231 -0.0305
vn -0.9720 0.1676 0.1649
vn -0.9344 -0.2451 0.2586
vn -0.9252 0.3794 0.0000
vn -0.8777 -0.2213 -0.4250
vn -0.9558 0.0700 -0.2855
vn -0.9729 0.0291 -0.2294
vn -0.8707 0.3548 -0.3406
vn 0.0000 -0.9911 0.1328
vn 0.9492 0.0845 0.3031
vn 0.0000 0.2483 0.9687
vn -0.6064 0.2135 0.7659
vn 0.0000 -0.9584 0.2855
vn 0.9873 0.0427 0.1531
vn 0.0000 0.5158 0.8567
vn 0.0499 0.2681 0.9621
vn 0.0000 -0.8953 0.4455
vn 0.7576 0.1668 0.6311
vn 0.0000 0.7913 0.6115
vn -0.9996 -0.0068 -0.0258
vn 0.0000 -0.7881 0.6156
vn 0.7998 0.1533 0.5803
vn 0.0000 0.8679 0.4968
vn -0.7962 0.1546 0.5850
vn 0.9852 0.0000 -0.1711
vn -0.9928 0.0000 -0.1198
vn 0.9845 0.0000 -0.1756
vn -0.9932 0.0000 -0.1167
vn 0.9891 0.0000 -0.1476
vn -0.9942 0.0000 -0.1079
vn 0.9885 0.0000 -0.1514
vn -0.9945 0.0000 -0.1051
vn -0.5095 0.4090 0.7570
vn -0.7696 0.5460 -0.3311
vn 0.5495 -0.2576 0.7948
vn 0.9645 -0.2218 -0.1434
vn -0.3317 0.3547 -0.8741
vn -0.5781 0.4405 -0.6868
vn 0.6435 -0.0394 -0.7644
vn 0.3367 0.3158 -0.8871
vn -0.5187 -0.1685 0.8382
vn -0.9444 -0.2834 0.1665
vn 0.5092 -0.0794 0.8570
vn 0.9666 0.0602 0.2490
vn -0.1826 0.1883 -0.9650
vn -0.8658 0.0688 -0.4956
vn 0.8333 0.2251 -0.5050
vn 0.1845 0.1226 -0.9752
vn -0.2932 0.1188 0.9486
vn -0.8403 0.3844 0.3824
vn 0.2830 0.2858 0.9156
vn 0.8274 0.4167 0.3765
vn -0.0882 0.4785 -0.8736
vn -0.8948 0.3695 -0.2504
vn 0.0880 0.4813 -0.8722
vn -0.2158 0.6939 0.6870
vn -0.7241 0.6220 0.2979
vn 0.2167 0.6903 0.6903
vn 0.7440 0.5964 0.3012
vn -0.1199 -0.0632 -0.9908
vn -0.7452 0.5176 -0.4204
vn 0.8800 0.2212 -0.4203
vn 0.1324 -0.0069 -0.9912
vn 0.8261 0.5139 -0.2312
vn 0.0703 0.7263 -0.6838
vn -0.0741 0.7417 -0.6666
usemtl None
s off
f 98//1 99//1 100//1
f 99//2 102//2 103//2
f 101//3 100//3 104//3
f 100//4 103//4 106//4
f 6//5 7//5 10//5
f 7//6 8//6 11//6
f 9//7 10//7 13//7
f 10//8 11//8 14//8
f 12//9 13//9 16//9
f 13//10 14//10 17//10
f 15//11 16//11 19//11
f 16//12 17//12 20//12
f 18//13 19//13 22//13
f 19//14 20//14 23//14
f 21//15 22//15 25//15
f 22//16 23//16 26//16
f 58//17 59//17 60//17
f 62//17 63//17 64//17
f 27//18 28//18 31//18
f 28//19 29//19 32//19
f 30//20 31//20 34//20
f 31//21 32//21 35//21
f 66//17 67//17 68//17
f 70//17 71//17 72//17
f 29//22 26//22 23//22
f 32//23 29//23 36//23
f 35//24 32//24 37//24
f 3//25 35//25 38//25
f 36//26 23//26 20//26
f 37//27 36//27 17//27
f 38//28 37//28 14//28
f 5//29 38//29 11//29
f 24//30 27//30 39//30
f 27//31 30//31 40//31
f 30//32 33//32 41//32
f 33//33 1//33 4//33
f 21//34 39//34 15//34
f 39//35 40//35 12//35
f 40//36 41//36 9//36
f 41//37 4//37 6//37
f 24//38 25//38 43//38
f 25//39 28//39 44//39
f 28//40 27//40 45//40
f 27//41 24//41 42//41
f 25//42 26//42 47//42
f 26//43 29//43 48//43
f 29//44 28//44 49//44
f 28//45 25//45 46//45
f 33//46 34//46 51//46
f 34//47 2//47 52//47
f 2//48 1//48 53//48
f 1//49 33//49 50//49
f 34//50 35//50 55//50
f 35//51 3//51 56//51
f 3//52 2//52 57//52
f 2//53 34//53 54//53
f 42//54 43//54 59//54
f 43//55 44//55 60//55
f 44//56 45//56 61//56
f 45//57 42//57 58//57
f 46//54 47//54 63//54
f 47//58 48//58 64//58
f 48//56 49//56 65//56
f 49//59 46//59 62//59
f 50//60 51//60 67//60
f 51//61 52//61 68//61
f 52//62 53//62 69//62
f 53//63 50//63 66//63
f 54//60 55//60 71//60
f 55//64 56//64 72//64
f 56//62 57//62 73//62
f 57//65 54//65 70//65
f 1//66 2//66 75//66
f 4//67 1//67 74//67
f 2//68 3//68 77//68
f 3//69 5//69 78//69
f 7//70 6//70 80//70
f 6//71 4//71 76//71
f 5//72 8//72 81//72
f 8//73 7//73 79//73
f 74//74 75//74 83//74
f 76//75 74//75 82//75
f 75//76 77//76 85//76
f 77//77 78//77 86//77
f 79//78 80//78 88//78
f 80//79 76//79 84//79
f 78//80 81//80 89//80
f 81//81 79//81 87//81
f 82//82 83//82 91//82
f 84//83 82//83 90//83
f 83//84 85//84 93//84
f 85//85 86//85 94//85
f 108//86 109//86 96//86
f 109//87 84//87 92//87
f 86//88 89//88 107//88
f 107//89 108//89 95//89
f 90//90 91//90 99//90
f 92//91 90//91 98//91
f 91//92 93//92 102//92
f 93//93 94//93 103//93
f 95//94 96//94 105//94
f 96//95 92//95 101//95
f 94//96 97//96 106//96
f 97//97 95//97 104//97
f 86//98 107//98 97//98
f 89//99 87//99 108//99
f 87//100 88//100 109//100
f 88//101 84//101 109//101
f 110//102 113//102 111//102
f 111//103 113//103 114//103
f 112//104 111//104 115//104
f 111//105 114//105 115//105
f 116//106 120//106 117//106
f 117//106 121//106 118//106
f 122//107 123//107 125//107
f 123//108 126//108 125//108
f 124//109 127//109 123//109
f 123//110 127//110 126//110
f 98//111 100//111 101//111
f 99//112 103//112 100//112
f 101//113 104//113 105//113
f 100//114 106//114 104//114
f 6//115 10//115 9//115
f 7//116 11//116 10//116
f 9//117 13//117 12//117
f 10//118 14//118 13//118
f 12//119 16//119 15//119
f 13//120 17//120 16//120
f 15//121 19//121 18//121
f 16//122 20//122 19//122
f 18//123 22//123 21//123
f 19//124 23//124 22//124
f 21//125 25//125 24//125
f 22//126 26//126 25//126
f 58//17 60//17 61//17
f 62//17 64//17 65//17
f 27//127 31//127 30//127
f 28//128 32//128 31//128
f 30//129 34//129 33//129
f 31//130 35//130 34//130
f 66//17 68//17 69//17
f 70//17 72//17 73//17
f 29//131 23//131 36//131
f 32//132 36//132 37//132
f 35//133 37//133 38//133
f 3//134 38//134 5//134
f 36//135 20//135 17//135
f 37//136 17//136 14//136
f 38//137 14//137 11//137
f 5//138 11//138 8//138
f 24//139 39//139 21//139
f 27//140 40//140 39//140
f 30//141 41//141 40//141
f 33//142 4//142 41//142
f 21//143 15//143 18//143
f 39//144 12//144 15//144
f 40//145 9//145 12//145
f 41//146 6//146 9//146
f 24//147 43//147 42//147
f 25//148 44//148 43//148
f 28//149 45//149 44//149
f 27//150 42//150 45//150
f 25//151 47//151 46//151
f 26//152 48//152 47//152
f 29//153 49//153 48//153
f 28//154 46//154 49//154
f 33//155 51//155 50//155
f 34//156 52//156 51//156
f 2//157 53//157 52//157
f 1//158 50//158 53//158
f 34//159 55//159 54//159
f 35//160 56//160 55//160
f 3//161 57//161 56//161
f 2//162 54//162 57//162
f 42//54 59//54 58//54
f 43//163 60//163 59//163
f 44//56 61//56 60//56
f 45//164 58//164 61//164
f 46//54 63//54 62//54
f 47//165 64//165 63//165
f 48//56 65//56 64//56
f 49//166 62//166 65//166
f 50//60 67//60 66//60
f 51//167 68//167 67//167
f 52//62 69//62 68//62
f 53//168 66//168 69//168
f 54//60 71//60 70//60
f 55//169 72//169 71//169
f 56//62 73//62 72//62
f 57//170 70//170 73//170
f 1//171 75//171 74//171
f 4//172 74//172 76//172
f 2//173 77//173 75//173
f 3//174 78//174 77//174
f 7//175 80//175 79//175
f 6//176 76//176 80//176
f 5//177 81//177 78//177
f 8//178 79//178 81//178
f 74//179 83//179 82//179
f 76//180 82//180 84//180
f 75//181 85//181 83//181
f 77//182 86//182 85//182
f 79//183 88//183 87//183
f 80//184 84//184 88//184
f 78//185 89//185 86//185
f 81//186 87//186 89//186
f 82//187 91//187 90//187
f 84//188 90//188 92//188
f 83//189 93//189 91//189
f 85//190 94//190 93//190
f 108//191 96//191 95//191
f 109//192 92//192 96//192
f 107//193 95//193 97//193
f 90//194 99//194 98//194
f 92//195 98//195 101//195
f 91//196 102//196 99//196
f 93//197 103//197 102//197
f 95//198 105//198 104//198
f 96//199 101//199 105//199
f 94//200 106//200 103//200
f 97//201 104//201 106//201
f 86//202 97//202 94//202
f 89//203 108//203 107//203
f 87//204 109//204 108//204
f 116//106 119//106 120//106
f 117//106 120//106 121//106
