# Blender v2.79 (sub 0) OBJ File: ''
# www.blender.org
mtllib m1032.mtl
o m1032
v 0.025010 0.190653 -0.245038
v -0.121283 0.148646 -0.264697
v -0.076300 0.300521 -0.232824
v 0.057273 0.428839 -0.018292
v 0.111003 0.348096 0.191913
v 0.187187 0.330982 -0.036297
v 0.027747 0.194650 -0.256681
v -0.121283 0.148646 -0.277042
v -0.072861 0.305486 -0.243957
v 0.064980 0.439823 -0.020836
v 0.117812 0.357901 0.197894
v 0.194606 0.341728 -0.039479
v 0.195137 -0.241356 -0.222200
v 0.055069 -0.195226 -0.241794
v 0.171343 -0.088365 -0.209983
v 0.346685 -0.052248 0.004611
v 0.347405 -0.152970 0.214754
v 0.399911 -0.210855 -0.013331
v 0.199415 -0.239531 -0.233715
v 0.055069 -0.195226 -0.254138
v 0.176763 -0.085984 -0.221053
v 0.358524 -0.046928 0.002068
v 0.357951 -0.148202 0.220735
v 0.411624 -0.205625 -0.016510
v -0.020441 0.047827 -0.054174
v 0.000604 0.054252 -0.052712
v -0.007909 0.038170 -0.040177
v 0.053620 -0.194075 -0.271251
v 0.074769 -0.187469 -0.269789
v 0.066241 -0.203707 -0.257255
v 0.064880 -0.195032 -0.266162
v -0.009305 0.046783 -0.049022
v -0.027704 0.052222 -0.035471
v -0.013895 0.070597 -0.035979
v 0.002516 0.046149 -0.040433
v -0.144928 0.118328 -0.347280
v -0.131208 0.136675 -0.347788
v -0.114739 0.112194 -0.352179
v -0.130284 0.122369 -0.349060
v -0.013027 0.056322 -0.037251
v 0.059499 -0.318940 -0.245038
v 0.054049 -0.164509 -0.264697
v 0.188003 -0.228576 -0.232824
v 0.278603 -0.380346 -0.018292
v 0.188902 -0.425445 0.191913
v 0.154609 -0.501243 -0.036297
v 0.062615 -0.322170 -0.256681
v 0.054049 -0.164509 -0.277042
v 0.191944 -0.232601 -0.243957
v 0.287263 -0.389404 -0.020836
v 0.196717 -0.433617 0.197894
v 0.163190 -0.510177 -0.039479
v -0.219966 0.244686 -0.323930
v -0.133959 0.123178 -0.343524
v -0.284365 0.099238 -0.311714
v -0.443109 0.170460 -0.097120
v -0.388948 0.257467 0.113024
v -0.398973 0.337967 -0.115124
v -0.224439 0.245549 -0.335446
v -0.133959 0.123178 -0.355869
v -0.289940 0.100408 -0.322786
v -0.455462 0.172929 -0.099663
v -0.399868 0.259678 0.119067
v -0.411064 0.340366 -0.118241
v -0.123598 0.039585 0.516512
v -0.044012 -0.041188 0.516512
v 0.059518 0.016796 0.516512
v 0.043897 0.133692 0.516512
v -0.069321 0.147714 0.516512
v -0.203029 0.023504 0.357649
v -0.058210 -0.123797 0.357649
v 0.130169 -0.018023 0.357649
v 0.101786 0.194714 0.357649
v -0.104288 0.220232 0.357649
v -0.026766 0.059260 0.516512
v -0.026766 0.059260 0.357649
v -0.014772 0.069326 0.445127
v 0.002464 0.056977 0.445127
v -0.017463 0.046851 0.445127
v -0.014772 0.069326 -0.040177
v 0.002464 0.056977 -0.040177
v -0.017463 0.046851 -0.040177
v -0.009939 0.057779 -0.040177
v -0.009939 0.057779 0.445127
v -0.191255 -0.019320 -0.245038
v -0.125099 0.123675 -0.264697
v -0.040125 -0.000305 -0.232824
v -0.032572 -0.182766 -0.018292
v -0.129625 -0.179671 0.191913
v -0.193545 -0.231772 -0.036297
v -0.190108 -0.023764 -0.256681
v -0.125099 0.123675 -0.277042
v -0.038842 -0.005952 -0.243957
v -0.029317 -0.195101 -0.020836
v -0.126727 -0.190917 0.197894
v -0.190312 -0.244012 -0.039479
vn -0.6080 -0.7807 -0.1444
vn -0.0794 -0.1822 0.9801
vn -0.3665 -0.6150 0.6982
vn -0.5192 -0.5513 0.6530
vn 0.2760 -0.9612 0.0000
vn 0.3162 -0.9177 -0.2407
vn -0.9386 0.3098 -0.1518
vn -0.9555 0.2950 0.0000
vn -0.7946 0.5904 0.1416
vn -0.7476 0.6610 0.0639
vn -0.8545 0.3728 0.3616
vn -0.7083 0.5876 0.3912
vn 0.8228 -0.4761 0.3104
vn 0.7044 -0.6554 0.2725
vn 0.7063 -0.7038 -0.0756
vn 0.7791 -0.5957 -0.1952
vn 0.6102 0.7790 0.1443
vn 0.0775 0.1828 -0.9801
vn 0.3657 0.6158 -0.6979
vn 0.5220 0.5488 -0.6529
vn -0.9433 -0.3006 -0.1409
vn -0.1716 -0.1049 0.9796
vn -0.6591 -0.2992 0.6899
vn -0.7494 -0.1677 0.6405
vn -0.3128 -0.9498 0.0000
vn -0.2532 -0.9365 -0.2425
vn -0.6452 0.7481 -0.1550
vn -0.6680 0.7442 0.0000
vn -0.3772 0.9132 0.1545
vn -0.2860 0.9560 0.0656
vn -0.5470 0.7542 0.3633
vn -0.3028 0.8651 0.3999
vn 0.4570 -0.8314 0.3162
vn 0.2579 -0.9241 0.2820
vn 0.2192 -0.9730 -0.0728
vn 0.3530 -0.9135 -0.2023
vn 0.9437 0.2992 0.1411
vn 0.1711 0.1060 -0.9795
vn 0.6582 0.3010 -0.6900
vn 0.7507 0.1635 -0.6401
vn -0.1418 0.6370 -0.7577
vn -0.1461 0.6356 -0.7581
vn 0.8879 -0.1250 0.4426
vn 0.8881 -0.1249 0.4425
vn -0.7789 -0.5338 0.3291
vn -0.7766 -0.5357 0.3316
vn -0.2550 0.6786 0.6888
vn -0.2490 0.6739 0.6956
vn -0.2584 0.6714 0.6946
vn 0.2575 -0.6704 -0.6959
vn 0.2593 -0.6718 -0.6939
vn 0.2566 -0.6725 -0.6942
vn -0.7298 0.5593 0.3931
vn -0.7311 0.5576 0.3931
vn 0.8011 0.5706 -0.1804
vn 0.8008 0.5711 -0.1803
vn -0.2151 -0.9686 -0.1245
vn -0.2168 -0.9684 -0.1236
vn 0.1418 -0.0793 0.9867
vn 0.1503 -0.0787 0.9855
vn 0.1441 -0.0881 0.9856
vn -0.1416 0.0786 -0.9868
vn -0.1467 0.0782 -0.9861
vn -0.1430 0.0838 -0.9862
vn -0.6813 0.7191 -0.1365
vn -0.1760 0.1182 0.9773
vn -0.5636 0.4777 0.6740
vn -0.4850 0.6042 0.6323
vn -0.9994 -0.0353 0.0000
vn -0.9682 -0.0831 -0.2361
vn 0.4561 0.8763 -0.1554
vn 0.4428 0.8966 0.0000
vn 0.7355 0.6594 0.1559
vn 0.8041 0.5902 0.0713
vn 0.5112 0.7693 0.3832
vn 0.7140 0.5674 0.4103
vn -0.6195 -0.7124 0.3297
vn -0.7885 -0.5441 0.2868
vn -0.8440 -0.5305 -0.0787
vn -0.7414 -0.6378 -0.2087
vn 0.6804 -0.7200 0.1361
vn 0.1769 -0.1166 -0.9773
vn 0.5649 -0.4763 -0.6738
vn 0.4822 -0.6065 -0.6322
vn 0.9543 -0.2661 -0.1358
vn 0.2085 -0.0102 0.9780
vn 0.7270 -0.1189 0.6763
vn 0.7291 -0.2700 0.6289
vn 0.8162 0.5777 0.0000
vn 0.7583 0.6023 -0.2494
vn 0.1210 -0.9789 -0.1644
vn 0.1444 -0.9895 0.0000
vn -0.2240 -0.9624 0.1537
vn -0.3262 -0.9431 0.0646
vn 0.0216 -0.9257 0.3777
vn -0.2594 -0.8733 0.4123
vn 0.1021 0.9395 0.3270
vn 0.3407 0.8949 0.2882
vn 0.3850 0.9194 -0.0806
vn 0.2414 0.9482 -0.2065
vn -0.9538 0.2680 0.1361
vn -0.2087 0.0089 -0.9779
vn -0.7272 0.1178 -0.6762
vn -0.7278 0.2736 -0.6288
vn -0.0000 0.0000 1.0000
vn -0.6557 -0.6446 0.3931
vn -0.6547 -0.6451 0.3940
vn 0.4531 -0.8069 0.3791
vn 0.4524 -0.8077 0.3782
vn 0.9165 0.1223 0.3808
vn 0.9164 0.1225 0.3810
vn 0.1131 0.9130 0.3919
vn -0.8294 0.4163 0.3726
vn -0.8294 0.4163 0.3725
vn 0.0000 0.0000 -1.0000
vn 0.5824 0.8129 0.0000
vn 0.4530 -0.8915 0.0000
vn -0.9929 0.1189 0.0000
vn -0.2739 0.9514 -0.1405
vn -0.1019 0.1816 0.9781
vn -0.2816 0.6740 0.6829
vn -0.1465 0.7510 0.6439
vn -0.9076 0.4199 0.0000
vn -0.9020 0.3662 -0.2286
vn 0.8326 0.5267 -0.1712
vn 0.8325 0.5540 0.0000
vn 0.9626 0.2221 0.1550
vn 0.9917 0.1156 0.0557
vn 0.8288 0.4139 0.3766
vn 0.9034 0.1560 0.3993
vn -0.8911 -0.3192 0.3225
vn -0.9555 -0.0984 0.2780
vn -0.9953 -0.0623 -0.0743
vn -0.9583 -0.2001 -0.2038
vn 0.2730 -0.9518 0.1398
vn 0.1036 -0.1807 -0.9781
vn 0.2836 -0.6735 -0.6826
vn 0.1427 -0.7520 -0.6436
usemtl None
s off
f 5//1 4//1 6//1
f 2//2 1//2 3//2
f 6//3 4//3 1//3
f 4//4 3//4 1//4
f 2//5 8//5 1//5
f 8//6 7//6 1//6
f 3//7 9//7 2//7
f 9//8 8//8 2//8
f 4//9 10//9 3//9
f 10//10 9//10 3//10
f 5//11 11//11 4//11
f 11//12 10//12 4//12
f 6//13 12//13 5//13
f 12//14 11//14 5//14
f 1//15 7//15 6//15
f 7//16 12//16 6//16
f 11//17 12//17 10//17
f 8//18 9//18 7//18
f 12//19 7//19 10//19
f 10//20 7//20 9//20
f 17//21 16//21 18//21
f 14//22 13//22 15//22
f 18//23 16//23 13//23
f 16//24 15//24 13//24
f 14//25 20//25 13//25
f 20//26 19//26 13//26
f 15//27 21//27 14//27
f 21//28 20//28 14//28
f 16//29 22//29 15//29
f 22//30 21//30 15//30
f 17//31 23//31 16//31
f 23//32 22//32 16//32
f 18//33 24//33 17//33
f 24//34 23//34 17//34
f 13//35 19//35 18//35
f 19//36 24//36 18//36
f 23//37 24//37 22//37
f 20//38 21//38 19//38
f 24//39 19//39 22//39
f 22//40 19//40 21//40
f 26//41 29//41 25//41
f 29//42 28//42 25//42
f 27//43 30//43 26//43
f 30//44 29//44 26//44
f 25//45 28//45 27//45
f 28//46 30//46 27//46
f 25//47 32//47 26//47
f 26//48 32//48 27//48
f 27//49 32//49 25//49
f 29//50 31//50 28//50
f 30//51 31//51 29//51
f 28//52 31//52 30//52
f 34//53 37//53 33//53
f 37//54 36//54 33//54
f 35//55 38//55 34//55
f 38//56 37//56 34//56
f 33//57 36//57 35//57
f 36//58 38//58 35//58
f 33//59 40//59 34//59
f 34//60 40//60 35//60
f 35//61 40//61 33//61
f 37//62 39//62 36//62
f 38//63 39//63 37//63
f 36//64 39//64 38//64
f 45//65 44//65 46//65
f 42//66 41//66 43//66
f 46//67 44//67 41//67
f 44//68 43//68 41//68
f 42//69 48//69 41//69
f 48//70 47//70 41//70
f 43//71 49//71 42//71
f 49//72 48//72 42//72
f 44//73 50//73 43//73
f 50//74 49//74 43//74
f 45//75 51//75 44//75
f 51//76 50//76 44//76
f 46//77 52//77 45//77
f 52//78 51//78 45//78
f 41//79 47//79 46//79
f 47//80 52//80 46//80
f 51//81 52//81 50//81
f 48//82 49//82 47//82
f 52//83 47//83 50//83
f 50//84 47//84 49//84
f 57//85 56//85 58//85
f 54//86 53//86 55//86
f 58//87 56//87 53//87
f 56//88 55//88 53//88
f 54//89 60//89 53//89
f 60//90 59//90 53//90
f 55//91 61//91 54//91
f 61//92 60//92 54//92
f 56//93 62//93 55//93
f 62//94 61//94 55//94
f 57//95 63//95 56//95
f 63//96 62//96 56//96
f 58//97 64//97 57//97
f 64//98 63//98 57//98
f 53//99 59//99 58//99
f 59//100 64//100 58//100
f 63//101 64//101 62//101
f 60//102 61//102 59//102
f 64//103 59//103 62//103
f 62//104 59//104 61//104
f 66//105 75//105 65//105
f 67//105 75//105 66//105
f 68//105 75//105 67//105
f 69//105 75//105 68//105
f 65//105 75//105 69//105
f 70//106 71//106 65//106
f 71//107 66//107 65//107
f 71//108 72//108 66//108
f 72//109 67//109 66//109
f 72//110 73//110 67//110
f 73//111 68//111 67//111
f 73//112 74//112 68//112
f 74//112 69//112 68//112
f 74//113 70//113 69//113
f 70//114 65//114 69//114
f 76//115 71//115 70//115
f 76//115 72//115 71//115
f 76//115 73//115 72//115
f 76//115 74//115 73//115
f 76//115 70//115 74//115
f 78//116 81//116 77//116
f 81//116 80//116 77//116
f 79//117 82//117 78//117
f 82//117 81//117 78//117
f 77//118 80//118 79//118
f 80//118 82//118 79//118
f 77//105 84//105 78//105
f 78//105 84//105 79//105
f 79//105 84//105 77//105
f 81//115 83//115 80//115
f 82//115 83//115 81//115
f 80//115 83//115 82//115
f 89//119 88//119 90//119
f 86//120 85//120 87//120
f 90//121 88//121 85//121
f 88//122 87//122 85//122
f 86//123 92//123 85//123
f 92//124 91//124 85//124
f 87//125 93//125 86//125
f 93//126 92//126 86//126
f 88//127 94//127 87//127
f 94//128 93//128 87//128
f 89//129 95//129 88//129
f 95//130 94//130 88//130
f 90//131 96//131 89//131
f 96//132 95//132 89//132
f 85//133 91//133 90//133
f 91//134 96//134 90//134
f 95//135 96//135 94//135
f 92//136 93//136 91//136
f 96//137 91//137 94//137
f 94//138 91//138 93//138
