# Blender v2.79 (sub 0) OBJ File: ''
# www.blender.org
mtllib m1079.mtl
o m1079
v 0.000000 0.000000 -0.516510
v 0.030743 0.022335 0.433490
v 0.038000 0.000000 0.433490
v 0.000000 0.000000 0.433490
v 0.011743 0.036140 0.433490
v -0.011743 0.036140 0.433490
v -0.030743 0.022335 0.433490
v -0.038000 0.000000 0.433490
v -0.030743 -0.022336 0.433490
v -0.011743 -0.036141 0.433490
v 0.011743 -0.036141 0.433490
v 0.030743 -0.022336 0.433490
v 0.000000 0.000000 -0.136510
v 0.107599 0.078175 0.243490
v 0.000000 0.000000 0.243490
v 0.041099 0.126490 0.243490
v -0.041099 0.126490 0.243490
v -0.107599 0.078175 0.243490
v -0.133000 0.000000 0.243490
v -0.107599 -0.078175 0.243490
v -0.041099 -0.126491 0.243490
v 0.041099 -0.126491 0.243490
v 0.107599 -0.078175 0.243490
v 0.133000 0.000000 0.243490
v 0.000000 0.000000 -0.160260
v 0.099914 0.072591 0.172240
v 0.000000 0.000000 0.172240
v 0.038164 0.117455 0.172240
v -0.038164 0.117455 0.172240
v -0.099914 0.072591 0.172240
v -0.123500 0.000000 0.172240
v -0.099914 -0.072592 0.172240
v -0.038164 -0.117456 0.172240
v 0.038164 -0.117456 0.172240
v 0.099914 -0.072592 0.172240
v 0.123500 0.000000 0.172240
v 0.000000 0.000000 -0.184010
v 0.092228 0.067007 0.100990
v 0.000000 0.000000 0.100990
v 0.035228 0.108420 0.100990
v -0.035228 0.108420 0.100990
v -0.092228 0.067007 0.100990
v -0.114000 0.000000 0.100990
v -0.092228 -0.067008 0.100990
v -0.035228 -0.108420 0.100990
v 0.035228 -0.108420 0.100990
v 0.092228 -0.067008 0.100990
v 0.114000 0.000000 0.100990
v 0.000000 0.000000 -0.207760
v 0.084542 0.061423 0.029740
v 0.000000 0.000000 0.029740
v 0.032292 0.099385 0.029740
v -0.032292 0.099385 0.029740
v -0.084542 0.061423 0.029740
v -0.104500 0.000000 0.029740
v -0.084542 -0.061424 0.029740
v -0.032292 -0.099385 0.029740
v 0.032292 -0.099385 0.029740
v 0.084542 -0.061424 0.029740
v 0.104500 0.000000 0.029740
v 0.000000 0.000000 -0.231510
v 0.076857 0.055839 -0.041510
v 0.000000 0.000000 -0.041510
v 0.029357 0.090350 -0.041510
v -0.029357 0.090350 -0.041510
v -0.076857 0.055839 -0.041510
v -0.095000 0.000000 -0.041510
v -0.076857 -0.055840 -0.041510
v -0.029357 -0.090350 -0.041510
v 0.029357 -0.090350 -0.041510
v 0.076857 -0.055840 -0.041510
v 0.095000 0.000000 -0.041510
v 0.000000 0.000000 -0.255260
v 0.069171 0.050255 -0.112760
v 0.000000 0.000000 -0.112760
v 0.026421 0.081315 -0.112760
v -0.026421 0.081315 -0.112760
v -0.069171 0.050255 -0.112760
v -0.085500 0.000000 -0.112760
v -0.069171 -0.050256 -0.112760
v -0.026421 -0.081315 -0.112760
v 0.026421 -0.081315 -0.112760
v 0.069171 -0.050256 -0.112760
v 0.085500 0.000000 -0.112760
v 0.000000 0.000000 -0.298010
v 0.061485 0.044671 -0.165010
v 0.000000 0.000000 -0.165010
v 0.023485 0.072280 -0.165010
v -0.023485 0.072280 -0.165010
v -0.061485 0.044671 -0.165010
v -0.076000 0.000000 -0.165010
v -0.061485 -0.044672 -0.165010
v -0.023485 -0.072280 -0.165010
v 0.023485 -0.072280 -0.165010
v 0.061485 -0.044672 -0.165010
v 0.076000 0.000000 -0.165010
v 0.000000 0.000000 -0.340760
v 0.053800 0.039087 -0.217260
v 0.000000 0.000000 -0.217260
v 0.020550 0.063245 -0.217260
v -0.020550 0.063245 -0.217260
v -0.053800 0.039087 -0.217260
v -0.066500 0.000000 -0.217260
v -0.053800 -0.039088 -0.217260
v -0.020550 -0.063245 -0.217260
v 0.020550 -0.063245 -0.217260
v 0.053800 -0.039088 -0.217260
v 0.066500 0.000000 -0.217260
v 0.000000 0.000000 -0.383510
v 0.046114 0.033503 -0.269510
v 0.000000 0.000000 -0.269510
v 0.017614 0.054210 -0.269510
v -0.017614 0.054210 -0.269510
v -0.046114 0.033503 -0.269510
v -0.057000 0.000000 -0.269510
v -0.046114 -0.033504 -0.269510
v -0.017614 -0.054210 -0.269510
v 0.017614 -0.054210 -0.269510
v 0.046114 -0.033504 -0.269510
v 0.057000 0.000000 -0.269510
v 0.000000 0.000000 -0.426260
v 0.038428 0.027919 -0.321760
v 0.047500 0.000000 -0.321760
v 0.000000 0.000000 -0.321760
v 0.014678 0.045175 -0.321760
v -0.014678 0.045175 -0.321760
v -0.038428 0.027919 -0.321760
v -0.047500 0.000000 -0.321760
v -0.038428 -0.027920 -0.321760
v -0.014678 -0.045176 -0.321760
v 0.014678 -0.045176 -0.321760
v 0.038428 -0.027920 -0.321760
v 0.000000 0.000000 -0.469010
v 0.030743 0.022335 -0.374010
v 0.038000 0.000000 -0.374010
v 0.000000 0.000000 -0.374010
v 0.011743 0.036140 -0.374010
v -0.011743 0.036140 -0.374010
v -0.030743 0.022335 -0.374010
v -0.038000 0.000000 -0.374010
v -0.030743 -0.022336 -0.374010
v -0.011743 -0.036141 -0.374010
v 0.011743 -0.036141 -0.374010
v 0.030743 -0.022336 -0.374010
v 0.000000 0.000000 -0.511760
v 0.015371 0.011167 -0.426260
v 0.019000 0.000000 -0.426260
v 0.005871 0.018070 -0.426260
v -0.005871 0.018070 -0.426260
v -0.015371 0.011167 -0.426260
v -0.019000 0.000000 -0.426260
v -0.015371 -0.011168 -0.426260
v -0.005871 -0.018071 -0.426260
v 0.005871 -0.018071 -0.426260
v 0.015371 -0.011168 -0.426260
vn 0.9504 0.3088 -0.0380
vn 0.0000 0.0000 1.0000
vn 0.5874 0.8084 -0.0380
vn 0.0000 0.9993 -0.0380
vn -0.5874 0.8084 -0.0380
vn -0.9504 0.3088 -0.0380
vn -0.9504 -0.3088 -0.0380
vn -0.5874 -0.8084 -0.0380
vn 0.0000 -0.9993 -0.0380
vn 0.5874 -0.8084 -0.0380
vn 0.9504 -0.3088 -0.0380
vn 0.9024 0.2932 -0.3158
vn 0.5577 0.7676 -0.3158
vn 0.0000 0.9488 -0.3158
vn -0.5577 0.7676 -0.3158
vn -0.9024 0.2932 -0.3158
vn -0.9024 -0.2932 -0.3158
vn -0.5577 -0.7676 -0.3158
vn 0.0000 -0.9488 -0.3158
vn 0.5577 -0.7676 -0.3158
vn 0.9024 -0.2932 -0.3158
vn 0.8968 0.2914 -0.3331
vn 0.5542 0.7628 -0.3331
vn 0.0000 0.9429 -0.3331
vn -0.5542 0.7628 -0.3331
vn -0.8967 0.2914 -0.3331
vn -0.8968 -0.2914 -0.3331
vn -0.5542 -0.7628 -0.3331
vn 0.0000 -0.9429 -0.3331
vn 0.5542 -0.7628 -0.3331
vn 0.8968 -0.2914 -0.3331
vn 0.8889 0.2888 -0.3556
vn 0.5494 0.7561 -0.3556
vn 0.0000 0.9347 -0.3556
vn -0.5494 0.7561 -0.3556
vn -0.8889 0.2888 -0.3556
vn -0.8889 -0.2888 -0.3556
vn -0.5494 -0.7561 -0.3556
vn 0.0000 -0.9347 -0.3556
vn 0.5494 -0.7561 -0.3556
vn 0.8889 -0.2888 -0.3556
vn 0.8773 0.2851 -0.3860
vn 0.5422 0.7463 -0.3860
vn 0.0000 0.9225 -0.3860
vn -0.5422 0.7463 -0.3860
vn -0.8773 0.2851 -0.3860
vn -0.8773 -0.2851 -0.3860
vn -0.5422 -0.7463 -0.3860
vn 0.0000 -0.9225 -0.3860
vn 0.5422 -0.7463 -0.3860
vn 0.8773 -0.2851 -0.3860
vn 0.8589 0.2791 -0.4294
vn 0.5308 0.7306 -0.4294
vn 0.0000 0.9031 -0.4294
vn -0.5308 0.7306 -0.4294
vn -0.8589 0.2791 -0.4294
vn -0.8589 -0.2791 -0.4294
vn -0.5308 -0.7306 -0.4294
vn 0.0000 -0.9031 -0.4294
vn 0.5308 -0.7306 -0.4294
vn 0.8589 -0.2791 -0.4294
vn 0.8260 0.2684 -0.4956
vn 0.5105 0.7027 -0.4956
vn 0.0000 0.8685 -0.4956
vn -0.5105 0.7027 -0.4956
vn -0.8260 0.2684 -0.4956
vn -0.8260 -0.2684 -0.4956
vn -0.5105 -0.7027 -0.4956
vn 0.0000 -0.8685 -0.4956
vn 0.5105 -0.7027 -0.4956
vn 0.8260 -0.2684 -0.4956
vn 0.8356 0.2715 -0.4775
vn 0.5165 0.7108 -0.4775
vn 0.0000 0.8786 -0.4775
vn -0.5164 0.7108 -0.4775
vn -0.8356 0.2715 -0.4775
vn -0.8356 -0.2715 -0.4775
vn -0.5164 -0.7108 -0.4775
vn 0.0000 -0.8786 -0.4775
vn 0.5164 -0.7108 -0.4775
vn 0.8356 -0.2715 -0.4775
vn 0.8465 0.2750 -0.4558
vn 0.5232 0.7201 -0.4558
vn 0.0000 0.8901 -0.4558
vn -0.5232 0.7201 -0.4558
vn -0.8465 0.2750 -0.4558
vn -0.8465 -0.2750 -0.4558
vn -0.5232 -0.7201 -0.4558
vn 0.0000 -0.8901 -0.4558
vn 0.5232 -0.7201 -0.4558
vn 0.8465 -0.2750 -0.4558
vn 0.8730 0.2837 -0.3968
vn 0.5395 0.7426 -0.3968
vn 0.0000 0.9179 -0.3968
vn -0.5395 0.7426 -0.3968
vn -0.8730 0.2837 -0.3968
vn -0.8730 -0.2837 -0.3968
vn -0.5395 -0.7426 -0.3968
vn 0.0000 -0.9179 -0.3968
vn 0.5395 -0.7426 -0.3968
vn 0.8730 -0.2837 -0.3968
vn 0.0000 -0.9346 -0.3556
vn 0.9305 0.3024 -0.2068
vn 0.5751 0.7915 -0.2068
vn 0.0000 0.9784 -0.2068
vn -0.5751 0.7915 -0.2068
vn -0.9305 0.3024 -0.2068
vn -0.9305 -0.3024 -0.2068
vn -0.5751 -0.7915 -0.2068
vn 0.0000 -0.9784 -0.2068
vn 0.5751 -0.7915 -0.2068
vn 0.9305 -0.3024 -0.2068
usemtl None
s off
f 1//1 2//1 3//1
f 4//2 3//2 2//2
f 1//3 5//3 2//3
f 4//2 2//2 5//2
f 1//4 6//4 5//4
f 4//2 5//2 6//2
f 1//5 7//5 6//5
f 4//2 6//2 7//2
f 1//6 8//6 7//6
f 4//2 7//2 8//2
f 1//7 9//7 8//7
f 4//2 8//2 9//2
f 1//8 10//8 9//8
f 4//2 9//2 10//2
f 1//9 11//9 10//9
f 4//2 10//2 11//2
f 1//10 12//10 11//10
f 4//2 11//2 12//2
f 1//11 3//11 12//11
f 4//2 12//2 3//2
f 13//12 14//12 24//12
f 15//2 24//2 14//2
f 13//13 16//13 14//13
f 15//2 14//2 16//2
f 13//14 17//14 16//14
f 15//2 16//2 17//2
f 13//15 18//15 17//15
f 15//2 17//2 18//2
f 13//16 19//16 18//16
f 15//2 18//2 19//2
f 13//17 20//17 19//17
f 15//2 19//2 20//2
f 13//18 21//18 20//18
f 15//2 20//2 21//2
f 13//19 22//19 21//19
f 15//2 21//2 22//2
f 13//20 23//20 22//20
f 15//2 22//2 23//2
f 13//21 24//21 23//21
f 15//2 23//2 24//2
f 25//22 26//22 36//22
f 27//2 36//2 26//2
f 25//23 28//23 26//23
f 27//2 26//2 28//2
f 25//24 29//24 28//24
f 27//2 28//2 29//2
f 25//25 30//25 29//25
f 27//2 29//2 30//2
f 25//26 31//26 30//26
f 27//2 30//2 31//2
f 25//27 32//27 31//27
f 27//2 31//2 32//2
f 25//28 33//28 32//28
f 27//2 32//2 33//2
f 25//29 34//29 33//29
f 27//2 33//2 34//2
f 25//30 35//30 34//30
f 27//2 34//2 35//2
f 25//31 36//31 35//31
f 27//2 35//2 36//2
f 37//32 38//32 48//32
f 39//2 48//2 38//2
f 37//33 40//33 38//33
f 39//2 38//2 40//2
f 37//34 41//34 40//34
f 39//2 40//2 41//2
f 37//35 42//35 41//35
f 39//2 41//2 42//2
f 37//36 43//36 42//36
f 39//2 42//2 43//2
f 37//37 44//37 43//37
f 39//2 43//2 44//2
f 37//38 45//38 44//38
f 39//2 44//2 45//2
f 37//39 46//39 45//39
f 39//2 45//2 46//2
f 37//40 47//40 46//40
f 39//2 46//2 47//2
f 37//41 48//41 47//41
f 39//2 47//2 48//2
f 49//42 50//42 60//42
f 51//2 60//2 50//2
f 49//43 52//43 50//43
f 51//2 50//2 52//2
f 49//44 53//44 52//44
f 51//2 52//2 53//2
f 49//45 54//45 53//45
f 51//2 53//2 54//2
f 49//46 55//46 54//46
f 51//2 54//2 55//2
f 49//47 56//47 55//47
f 51//2 55//2 56//2
f 49//48 57//48 56//48
f 51//2 56//2 57//2
f 49//49 58//49 57//49
f 51//2 57//2 58//2
f 49//50 59//50 58//50
f 51//2 58//2 59//2
f 49//51 60//51 59//51
f 51//2 59//2 60//2
f 61//52 62//52 72//52
f 63//2 72//2 62//2
f 61//53 64//53 62//53
f 63//2 62//2 64//2
f 61//54 65//54 64//54
f 63//2 64//2 65//2
f 61//55 66//55 65//55
f 63//2 65//2 66//2
f 61//56 67//56 66//56
f 63//2 66//2 67//2
f 61//57 68//57 67//57
f 63//2 67//2 68//2
f 61//58 69//58 68//58
f 63//2 68//2 69//2
f 61//59 70//59 69//59
f 63//2 69//2 70//2
f 61//60 71//60 70//60
f 63//2 70//2 71//2
f 61//61 72//61 71//61
f 63//2 71//2 72//2
f 73//62 74//62 84//62
f 75//2 84//2 74//2
f 73//63 76//63 74//63
f 75//2 74//2 76//2
f 73//64 77//64 76//64
f 75//2 76//2 77//2
f 73//65 78//65 77//65
f 75//2 77//2 78//2
f 73//66 79//66 78//66
f 75//2 78//2 79//2
f 73//67 80//67 79//67
f 75//2 79//2 80//2
f 73//68 81//68 80//68
f 75//2 80//2 81//2
f 73//69 82//69 81//69
f 75//2 81//2 82//2
f 73//70 83//70 82//70
f 75//2 82//2 83//2
f 73//71 84//71 83//71
f 75//2 83//2 84//2
f 85//72 86//72 96//72
f 87//2 96//2 86//2
f 85//73 88//73 86//73
f 87//2 86//2 88//2
f 85//74 89//74 88//74
f 87//2 88//2 89//2
f 85//75 90//75 89//75
f 87//2 89//2 90//2
f 85//76 91//76 90//76
f 87//2 90//2 91//2
f 85//77 92//77 91//77
f 87//2 91//2 92//2
f 85//78 93//78 92//78
f 87//2 92//2 93//2
f 85//79 94//79 93//79
f 87//2 93//2 94//2
f 85//80 95//80 94//80
f 87//2 94//2 95//2
f 85//81 96//81 95//81
f 87//2 95//2 96//2
f 97//82 98//82 108//82
f 99//2 108//2 98//2
f 97//83 100//83 98//83
f 99//2 98//2 100//2
f 97//84 101//84 100//84
f 99//2 100//2 101//2
f 97//85 102//85 101//85
f 99//2 101//2 102//2
f 97//86 103//86 102//86
f 99//2 102//2 103//2
f 97//87 104//87 103//87
f 99//2 103//2 104//2
f 97//88 105//88 104//88
f 99//2 104//2 105//2
f 97//89 106//89 105//89
f 99//2 105//2 106//2
f 97//90 107//90 106//90
f 99//2 106//2 107//2
f 97//91 108//91 107//91
f 99//2 107//2 108//2
f 109//52 110//52 120//52
f 111//2 120//2 110//2
f 109//53 112//53 110//53
f 111//2 110//2 112//2
f 109//54 113//54 112//54
f 111//2 112//2 113//2
f 109//55 114//55 113//55
f 111//2 113//2 114//2
f 109//56 115//56 114//56
f 111//2 114//2 115//2
f 109//57 116//57 115//57
f 111//2 115//2 116//2
f 109//58 117//58 116//58
f 111//2 116//2 117//2
f 109//59 118//59 117//59
f 111//2 117//2 118//2
f 109//60 119//60 118//60
f 111//2 118//2 119//2
f 109//61 120//61 119//61
f 111//2 119//2 120//2
f 121//92 122//92 123//92
f 124//2 123//2 122//2
f 121//93 125//93 122//93
f 124//2 122//2 125//2
f 121//94 126//94 125//94
f 124//2 125//2 126//2
f 121//95 127//95 126//95
f 124//2 126//2 127//2
f 121//96 128//96 127//96
f 124//2 127//2 128//2
f 121//97 129//97 128//97
f 124//2 128//2 129//2
f 121//98 130//98 129//98
f 124//2 129//2 130//2
f 121//99 131//99 130//99
f 124//2 130//2 131//2
f 121//100 132//100 131//100
f 124//2 131//2 132//2
f 121//101 123//101 132//101
f 124//2 132//2 123//2
f 133//32 134//32 135//32
f 136//2 135//2 134//2
f 133//33 137//33 134//33
f 136//2 134//2 137//2
f 133//34 138//34 137//34
f 136//2 137//2 138//2
f 133//35 139//35 138//35
f 136//2 138//2 139//2
f 133//36 140//36 139//36
f 136//2 139//2 140//2
f 133//37 141//37 140//37
f 136//2 140//2 141//2
f 133//38 142//38 141//38
f 136//2 141//2 142//2
f 133//102 143//102 142//102
f 136//2 142//2 143//2
f 133//40 144//40 143//40
f 136//2 143//2 144//2
f 133//41 135//41 144//41
f 136//2 144//2 135//2
f 145//103 146//103 147//103
f 121//2 147//2 146//2
f 145//104 148//104 146//104
f 121//2 146//2 148//2
f 145//105 149//105 148//105
f 121//2 148//2 149//2
f 145//106 150//106 149//106
f 121//2 149//2 150//2
f 145//107 151//107 150//107
f 121//2 150//2 151//2
f 145//108 152//108 151//108
f 121//2 151//2 152//2
f 145//109 153//109 152//109
f 121//2 152//2 153//2
f 145//110 154//110 153//110
f 121//2 153//2 154//2
f 145//111 155//111 154//111
f 121//2 154//2 155//2
f 145//112 147//112 155//112
f 121//2 155//2 147//2
