# Blender v2.79 (sub 0) OBJ File: ''
# www.blender.org
mtllib m1082.mtl
o m1082
v 0.030063 0.000000 0.238456
v 0.024321 0.017670 0.238456
v 0.030063 0.000000 0.334659
v 0.024321 0.017670 0.334659
v 0.000000 0.000000 0.334659
v 0.000000 0.000000 0.238456
v 0.009290 0.028591 0.238456
v 0.009290 0.028591 0.334659
v -0.009290 0.028591 0.238456
v -0.009290 0.028591 0.334659
v -0.024322 0.017670 0.238456
v -0.024322 0.017670 0.334659
v -0.030064 0.000000 0.238456
v -0.030064 0.000000 0.334659
v -0.024322 -0.017671 0.238456
v -0.024322 -0.017671 0.334659
v -0.009290 -0.028592 0.238456
v -0.009290 -0.028592 0.334659
v 0.009290 -0.028592 0.238456
v 0.009290 -0.028592 0.334659
v 0.024321 -0.017671 0.238456
v 0.024321 -0.017671 0.334659
v 0.000000 0.000000 -0.230531
v 0.175116 0.127229 0.274532
v 0.000000 0.000000 0.274532
v 0.066888 0.205861 0.274532
v -0.066889 0.205861 0.274532
v -0.175116 0.127229 0.274532
v -0.216456 0.000000 0.274532
v -0.175116 -0.127230 0.274532
v -0.066889 -0.205862 0.274532
v 0.066888 -0.205862 0.274532
v 0.175116 -0.127230 0.274532
v 0.216455 0.000000 0.274532
v 0.000000 0.000000 -0.338759
v 0.136201 0.098956 0.094153
v 0.000000 0.000000 0.094153
v 0.052024 0.160114 0.094153
v -0.052025 0.160114 0.094153
v -0.136202 0.098956 0.094153
v -0.168354 0.000000 0.094153
v -0.136202 -0.098957 0.094153
v -0.052025 -0.160115 0.094153
v 0.052024 -0.160115 0.094153
v 0.136201 -0.098957 0.094153
v 0.168354 0.000000 0.094153
v 0.000000 0.000000 -0.446987
v 0.097287 0.070683 -0.086227
v 0.000000 0.000000 -0.086227
v 0.037160 0.114367 -0.086227
v -0.037161 0.114367 -0.086227
v -0.097287 0.070683 -0.086227
v -0.120253 0.000000 -0.086227
v -0.097287 -0.070683 -0.086227
v -0.037161 -0.114368 -0.086227
v 0.037160 -0.114368 -0.086227
v 0.097287 -0.070683 -0.086227
v 0.120253 0.000000 -0.086227
v 0.000000 0.000000 -0.555214
v 0.058372 0.042409 -0.266607
v 0.000000 0.000000 -0.266607
v 0.022296 0.068620 -0.266607
v -0.022296 0.068620 -0.266607
v -0.058372 0.042409 -0.266607
v -0.072152 0.000000 -0.266607
v -0.058372 -0.042410 -0.266607
v -0.022296 -0.068621 -0.266607
v 0.022296 -0.068621 -0.266607
v 0.058372 -0.042410 -0.266607
v 0.072152 0.000000 -0.266607
v 0.000000 0.000000 -0.615341
v 0.038914 0.028273 -0.398885
v 0.048101 0.000000 -0.398885
v 0.000000 0.000000 -0.398885
v 0.014864 0.045747 -0.398885
v -0.014864 0.045747 -0.398885
v -0.038915 0.028273 -0.398885
v -0.048102 0.000000 -0.398885
v -0.038915 -0.028274 -0.398885
v -0.014864 -0.045747 -0.398885
v 0.014864 -0.045747 -0.398885
v 0.038914 -0.028274 -0.398885
vn 0.9510 0.3091 0.0000
vn 0.0000 0.0000 1.0000
vn 0.0000 0.0000 -1.0000
vn 0.5878 0.8090 0.0000
vn 0.0000 1.0000 0.0000
vn -0.5878 0.8090 0.0000
vn -0.9510 0.3090 0.0000
vn -0.9511 -0.3090 0.0000
vn -0.5878 -0.8090 0.0000
vn 0.0000 -1.0000 0.0000
vn 0.5878 -0.8090 0.0000
vn 0.9511 -0.3090 0.0000
vn 0.8807 0.2862 -0.3774
vn 0.5443 0.7492 -0.3774
vn 0.0000 0.9260 -0.3774
vn -0.5443 0.7492 -0.3774
vn -0.8807 0.2862 -0.3774
vn -0.8807 -0.2862 -0.3774
vn -0.5443 -0.7492 -0.3774
vn 0.0000 -0.9260 -0.3774
vn 0.5443 -0.7492 -0.3774
vn 0.8807 -0.2862 -0.3774
vn 0.8920 0.2898 -0.3469
vn 0.5513 0.7588 -0.3469
vn 0.0000 0.9379 -0.3469
vn -0.5513 0.7588 -0.3469
vn -0.8920 0.2898 -0.3469
vn -0.8920 -0.2898 -0.3469
vn -0.5513 -0.7588 -0.3469
vn 0.0000 -0.9379 -0.3469
vn 0.5513 -0.7588 -0.3469
vn 0.8920 -0.2898 -0.3469
vn 0.9066 0.2946 -0.3022
vn 0.5603 0.7712 -0.3022
vn 0.0000 0.9532 -0.3022
vn -0.5603 0.7712 -0.3022
vn -0.9066 0.2946 -0.3022
vn -0.9066 -0.2946 -0.3022
vn -0.5603 -0.7712 -0.3022
vn 0.0000 -0.9532 -0.3022
vn 0.5603 -0.7712 -0.3022
vn 0.9066 -0.2946 -0.3022
vn 0.9253 0.3006 -0.2313
vn 0.5718 0.7871 -0.2313
vn 0.0000 0.9729 -0.2313
vn -0.5718 0.7871 -0.2313
vn -0.9253 0.3006 -0.2313
vn -0.9253 -0.3006 -0.2313
vn -0.5718 -0.7871 -0.2313
vn 0.0000 -0.9729 -0.2313
vn 0.5718 -0.7871 -0.2313
vn 0.9253 -0.3006 -0.2313
vn 0.9305 0.3024 -0.2068
vn 0.5751 0.7915 -0.2068
vn 0.0000 0.9784 -0.2068
vn -0.5751 0.7915 -0.2068
vn -0.9305 0.3024 -0.2068
vn -0.9305 -0.3023 -0.2068
vn -0.5751 -0.7915 -0.2068
vn 0.0000 -0.9784 -0.2068
vn 0.5751 -0.7915 -0.2068
vn 0.9305 -0.3023 -0.2068
usemtl None
s off
f 1//1 2//1 3//1
f 2//1 4//1 3//1
f 5//2 3//2 4//2
f 6//3 2//3 1//3
f 2//4 7//4 4//4
f 7//4 8//4 4//4
f 5//2 4//2 8//2
f 6//3 7//3 2//3
f 7//5 9//5 8//5
f 9//5 10//5 8//5
f 5//2 8//2 10//2
f 6//3 9//3 7//3
f 9//6 11//6 10//6
f 11//6 12//6 10//6
f 5//2 10//2 12//2
f 6//3 11//3 9//3
f 11//7 13//7 12//7
f 13//7 14//7 12//7
f 5//2 12//2 14//2
f 6//3 13//3 11//3
f 13//8 15//8 14//8
f 15//8 16//8 14//8
f 5//2 14//2 16//2
f 6//3 15//3 13//3
f 15//9 17//9 16//9
f 17//9 18//9 16//9
f 5//2 16//2 18//2
f 6//3 17//3 15//3
f 17//10 19//10 18//10
f 19//10 20//10 18//10
f 5//2 18//2 20//2
f 6//3 19//3 17//3
f 19//11 21//11 20//11
f 21//11 22//11 20//11
f 5//2 20//2 22//2
f 6//3 21//3 19//3
f 21//12 1//12 22//12
f 1//12 3//12 22//12
f 5//2 22//2 3//2
f 6//3 1//3 21//3
f 23//13 24//13 34//13
f 25//2 34//2 24//2
f 23//14 26//14 24//14
f 25//2 24//2 26//2
f 23//15 27//15 26//15
f 25//2 26//2 27//2
f 23//16 28//16 27//16
f 25//2 27//2 28//2
f 23//17 29//17 28//17
f 25//2 28//2 29//2
f 23//18 30//18 29//18
f 25//2 29//2 30//2
f 23//19 31//19 30//19
f 25//2 30//2 31//2
f 23//20 32//20 31//20
f 25//2 31//2 32//2
f 23//21 33//21 32//21
f 25//2 32//2 33//2
f 23//22 34//22 33//22
f 25//2 33//2 34//2
f 35//23 36//23 46//23
f 37//2 46//2 36//2
f 35//24 38//24 36//24
f 37//2 36//2 38//2
f 35//25 39//25 38//25
f 37//2 38//2 39//2
f 35//26 40//26 39//26
f 37//2 39//2 40//2
f 35//27 41//27 40//27
f 37//2 40//2 41//2
f 35//28 42//28 41//28
f 37//2 41//2 42//2
f 35//29 43//29 42//29
f 37//2 42//2 43//2
f 35//30 44//30 43//30
f 37//2 43//2 44//2
f 35//31 45//31 44//31
f 37//2 44//2 45//2
f 35//32 46//32 45//32
f 37//2 45//2 46//2
f 47//33 48//33 58//33
f 49//2 58//2 48//2
f 47//34 50//34 48//34
f 49//2 48//2 50//2
f 47//35 51//35 50//35
f 49//2 50//2 51//2
f 47//36 52//36 51//36
f 49//2 51//2 52//2
f 47//37 53//37 52//37
f 49//2 52//2 53//2
f 47//38 54//38 53//38
f 49//2 53//2 54//2
f 47//39 55//39 54//39
f 49//2 54//2 55//2
f 47//40 56//40 55//40
f 49//2 55//2 56//2
f 47//41 57//41 56//41
f 49//2 56//2 57//2
f 47//42 58//42 57//42
f 49//2 57//2 58//2
f 59//43 60//43 70//43
f 61//2 70//2 60//2
f 59//44 62//44 60//44
f 61//2 60//2 62//2
f 59//45 63//45 62//45
f 61//2 62//2 63//2
f 59//46 64//46 63//46
f 61//2 63//2 64//2
f 59//47 65//47 64//47
f 61//2 64//2 65//2
f 59//48 66//48 65//48
f 61//2 65//2 66//2
f 59//49 67//49 66//49
f 61//2 66//2 67//2
f 59//50 68//50 67//50
f 61//2 67//2 68//2
f 59//51 69//51 68//51
f 61//2 68//2 69//2
f 59//52 70//52 69//52
f 61//2 69//2 70//2
f 71//53 72//53 73//53
f 74//2 73//2 72//2
f 71//54 75//54 72//54
f 74//2 72//2 75//2
f 71//55 76//55 75//55
f 74//2 75//2 76//2
f 71//56 77//56 76//56
f 74//2 76//2 77//2
f 71//57 78//57 77//57
f 74//2 77//2 78//2
f 71//58 79//58 78//58
f 74//2 78//2 79//2
f 71//59 80//59 79//59
f 74//2 79//2 80//2
f 71//60 81//60 80//60
f 74//2 80//2 81//2
f 71//61 82//61 81//61
f 74//2 81//2 82//2
f 71//62 73//62 82//62
f 74//2 82//2 73//2
