# Blender v2.79 (sub 0) OBJ File: ''
# www.blender.org
mtllib m1097.mtl
o m1097
v -0.023951 -0.002604 0.628079
v 0.033964 -0.002604 0.628079
v 0.014925 -0.002604 -0.043359
v -0.011818 -0.002604 0.012443
v -0.044893 0.000816 -0.067286
v -0.063908 0.000816 0.033906
v -0.058121 0.000816 0.137744
v -0.003556 0.000816 0.086487
v 0.011325 0.000816 0.022001
v 0.057622 0.000816 0.079873
v 0.070850 0.000816 0.020348
v 0.097306 0.000816 0.069952
v 0.115494 0.000816 0.010427
v 0.065890 0.000816 -0.060672
v 0.198168 0.000816 -0.002801
v 0.165098 0.000816 -0.111930
v 0.171712 0.000816 -0.151613
v 0.130375 0.000816 -0.194603
v 0.110533 0.000816 -0.186336
v 0.079117 0.000816 -0.232634
v 0.059276 0.000816 -0.199564
v 0.067543 0.000816 -0.283891
v 0.016285 0.000816 -0.283891
v 0.004711 0.000816 -0.227673
v -0.034972 0.000816 -0.300426
v -0.089537 0.000816 -0.321921
v -0.089537 0.000816 -0.275624
v -0.048200 0.000816 -0.191297
v -0.102765 0.000816 -0.242554
v -0.157329 0.000816 -0.247515
v -0.160636 0.000816 -0.163188
v -0.104418 0.000816 -0.133425
v -0.195359 0.000816 -0.073900
v -0.192052 0.000816 -0.032563
v -0.134181 0.000816 -0.020989
vn 0.0000 -1.0000 -0.0000
vn 0.0000 1.0000 0.0000
usemtl None
s off
f 1//1 3//1 2//1
f 34//2 32//2 33//2
f 32//2 34//2 35//2
f 32//2 35//2 5//2
f 32//2 5//2 29//2
f 29//2 5//2 28//2
f 7//2 5//2 6//2
f 5//2 7//2 8//2
f 5//2 8//2 25//2
f 25//2 8//2 24//2
f 24//2 8//2 9//2
f 24//2 9//2 23//2
f 23//2 9//2 10//2
f 23//2 10//2 21//2
f 23//2 21//2 22//2
f 28//2 26//2 27//2
f 26//2 28//2 25//2
f 25//2 28//2 5//2
f 32//2 30//2 31//2
f 30//2 32//2 29//2
f 10//2 14//2 21//2
f 14//2 10//2 11//2
f 14//2 11//2 13//2
f 13//2 11//2 12//2
f 14//2 20//2 21//2
f 20//2 14//2 15//2
f 20//2 15//2 19//2
f 19//2 15//2 18//2
f 18//2 15//2 16//2
f 17//2 18//2 16//2
f 1//1 4//1 3//1
