# Blender v2.79 (sub 0) OBJ File: ''
# www.blender.org
mtllib m1103.mtl
o m1103
v -0.055346 0.018749 -0.472984
v -0.055346 0.015656 -0.461442
v -0.055346 0.007206 -0.452992
v -0.055346 -0.004337 -0.449896
v -0.055345 -0.015881 -0.452989
v -0.055346 -0.024332 -0.461440
v -0.055346 -0.027426 -0.472984
v -0.055346 -0.024334 -0.484528
v -0.055347 -0.015884 -0.492978
v -0.055347 -0.004341 -0.496071
v -0.055347 0.007203 -0.492981
v -0.055346 0.015654 -0.484532
v 0.055862 0.018750 -0.472989
v 0.055863 0.015657 -0.461445
v 0.055863 0.007207 -0.452994
v 0.055863 -0.004337 -0.449901
v 0.055863 -0.015880 -0.452992
v 0.055863 -0.024331 -0.461442
v 0.055862 -0.027425 -0.472986
v 0.055862 -0.024333 -0.484530
v 0.055862 -0.015884 -0.492981
v 0.055862 -0.004341 -0.496076
v 0.055862 0.007203 -0.492983
v 0.055862 0.015655 -0.484535
v 0.067051 -0.024398 -0.472640
v 0.075545 -0.015906 -0.472640
v 0.078654 -0.004305 -0.472640
v 0.055451 0.018901 -0.472638
v 0.065915 -0.024401 -0.429749
v 0.074121 -0.015913 -0.427547
v 0.077129 -0.004313 -0.426739
v 0.074132 0.007290 -0.427544
v 0.065933 0.015788 -0.429742
v 0.054728 0.018902 -0.432749
v 0.054708 -0.027505 -0.432756
v 0.042226 -0.027578 -0.399129
v 0.052981 -0.024401 -0.394832
v 0.060821 -0.015858 -0.391697
v 0.063643 -0.004238 -0.390567
v 0.060693 0.007345 -0.391746
v 0.052760 0.015788 -0.394916
v 0.041969 0.018828 -0.399229
v 0.012634 -0.024407 -0.358386
v 0.020284 -0.015909 -0.354711
v 0.023080 -0.004305 -0.353367
v 0.020272 0.007294 -0.354716
v 0.012613 0.015782 -0.358396
v 0.075547 0.007297 -0.472638
v 0.067055 0.015791 -0.472638
v 0.063654 -0.024398 -0.480845
v 0.069660 -0.015906 -0.486850
v 0.071859 -0.004305 -0.489048
v 0.069662 0.007297 -0.486850
v 0.063658 0.015791 -0.480845
v 0.055450 -0.024398 -0.484242
v 0.055451 -0.015906 -0.492737
v 0.055452 -0.004305 -0.495846
v 0.055453 0.007297 -0.492737
v 0.055453 0.015791 -0.484247
v -0.000020 -0.027522 -0.363410
v 0.055450 -0.027506 -0.472640
v 0.055451 -0.007204 -0.483465
v -0.012674 -0.024407 -0.358386
v -0.020324 -0.015909 -0.354711
v -0.023120 -0.004306 -0.353367
v -0.020312 0.007294 -0.354716
v -0.012653 0.015782 -0.358396
v -0.053021 -0.024401 -0.394832
v -0.060860 -0.015858 -0.391697
v -0.063683 -0.004239 -0.390567
v -0.060733 0.007344 -0.391746
v -0.052800 0.015787 -0.394916
v -0.042009 0.018828 -0.399229
v -0.042266 -0.027578 -0.399129
v -0.065954 -0.024402 -0.429749
v -0.054748 -0.027505 -0.432756
v -0.074161 -0.015913 -0.427547
v -0.077169 -0.004313 -0.426739
v -0.074172 0.007290 -0.427544
v -0.065973 0.015787 -0.429742
v -0.054768 0.018902 -0.432749
v -0.067091 -0.024399 -0.472640
v -0.055490 -0.027507 -0.472640
v -0.075585 -0.015906 -0.472640
v -0.078694 -0.004305 -0.472640
v -0.075586 0.007296 -0.472638
v -0.067095 0.015790 -0.472638
v -0.055491 0.018900 -0.472638
v -0.063693 -0.024399 -0.480845
v -0.069700 -0.015906 -0.486850
v -0.071899 -0.004305 -0.489048
v -0.069702 0.007296 -0.486850
v -0.063698 0.015790 -0.480845
v -0.055490 -0.024399 -0.484242
v -0.055491 -0.015906 -0.492737
v -0.055492 -0.004305 -0.495846
v -0.055493 0.007296 -0.492737
v -0.055493 0.015790 -0.484247
v -0.055491 -0.007205 -0.483465
v -0.000020 0.018866 -0.316924
v 0.011582 0.015757 -0.316924
v 0.020075 0.007264 -0.316924
v 0.023184 -0.004337 -0.316924
v 0.020076 -0.015938 -0.316924
v 0.011584 -0.024432 -0.316924
v -0.011619 -0.024434 -0.316924
v -0.020113 -0.015942 -0.316924
v -0.023224 -0.004341 -0.316924
v -0.020117 0.007261 -0.316924
v -0.011625 0.015755 -0.316924
v -0.000020 0.018885 -0.363422
v -0.000018 -0.027541 -0.316924
v -0.000020 0.018866 -0.316924
v 0.011582 0.015757 -0.316924
v 0.020075 0.007264 -0.316924
v 0.023184 -0.004337 -0.316924
v 0.020076 -0.015938 -0.316924
v 0.011584 -0.024432 -0.316924
v -0.011619 -0.024434 -0.316924
v -0.020113 -0.015942 -0.316924
v -0.023224 -0.004341 -0.316924
v -0.020117 0.007261 -0.316924
v -0.011625 0.015755 -0.316924
v -0.011619 -0.024434 0.122641
v -0.020113 -0.015942 0.122639
v -0.023224 -0.004341 0.122639
v -0.020117 0.007261 0.122639
v -0.011625 0.015755 0.122639
v -0.000020 0.018866 0.122639
v 0.011582 0.015757 0.122639
v 0.020075 0.007264 0.122639
v 0.023184 -0.004337 0.122639
v 0.020076 -0.015938 0.122639
v 0.011584 -0.024432 0.122641
v -0.000018 -0.027541 0.122641
v 0.005418 0.005082 0.217692
v 0.009399 0.001101 0.217694
v 0.010857 -0.004337 0.217694
v 0.009400 -0.009776 0.217694
v 0.005419 -0.013757 0.217694
v -0.000019 -0.015215 0.217694
v -0.005457 -0.013758 0.217694
v -0.009439 -0.009777 0.217694
v -0.010896 -0.004339 0.217694
v -0.009440 0.001099 0.217694
v -0.005460 0.005081 0.217692
v -0.000020 0.006539 0.217692
v -0.011619 -0.024434 0.122641
v -0.020113 -0.015942 0.122639
v -0.023224 -0.004341 0.122639
v -0.020117 0.007261 0.122639
v -0.011625 0.015755 0.122639
v 0.011582 0.015757 0.122639
v 0.020075 0.007264 0.122639
v 0.023184 -0.004337 0.122639
v 0.020076 -0.015938 0.122639
v 0.011584 -0.024432 0.122641
v -0.000018 -0.027541 0.122641
v -0.000020 -0.004338 0.217694
v -0.086781 0.011342 0.221896
v -0.050113 0.005466 0.221893
v -0.000022 0.003312 0.221889
v 0.050071 0.005457 0.221885
v 0.086744 0.011328 0.221882
v -0.086784 -0.019443 0.221896
v -0.050115 -0.019446 0.221893
v -0.000023 -0.019450 0.221889
v 0.050069 -0.019454 0.221885
v 0.086742 -0.019457 0.221882
v -0.086782 0.011342 0.217256
v -0.050113 0.005466 0.217251
v -0.000022 0.003312 0.217249
v 0.050071 0.005457 0.217244
v 0.086744 0.011328 0.217242
v -0.086784 -0.019443 0.217256
v -0.050115 -0.019446 0.217251
v -0.000024 -0.019450 0.217249
v 0.050069 -0.019454 0.217244
v 0.086741 -0.019457 0.217242
v 0.050071 0.010098 0.217244
v -0.000022 0.007953 0.217249
v -0.050113 0.010107 0.217251
v -0.086781 0.015983 0.217256
v -0.086781 0.015983 0.221896
v -0.050112 0.010107 0.221893
v -0.000021 0.007953 0.221889
v 0.050071 0.010098 0.221885
v 0.086744 0.015968 0.221882
v 0.086744 0.015968 0.217242
v 0.082406 0.011328 0.439052
v 0.047567 0.005457 0.449461
v -0.000022 0.003312 0.453924
v -0.047608 0.005466 0.449469
v -0.082443 0.011342 0.439065
v -0.082443 0.013663 0.439065
v -0.047608 0.007786 0.449469
v -0.000021 0.005632 0.453924
v 0.047567 0.007778 0.449461
v 0.082406 0.013648 0.439052
vn 0.0000 0.9659 0.2588
vn 0.0000 0.7071 0.7071
vn 0.0000 0.2588 0.9659
vn 0.0000 0.2591 0.9659
vn 0.0000 -0.2587 0.9660
vn 0.0000 -0.2588 0.9659
vn 0.0000 -0.7071 0.7071
vn 0.0000 -0.9659 0.2589
vn -0.0000 -0.9660 -0.2587
vn -0.0000 -0.7072 -0.7070
vn -0.0000 -0.7071 -0.7071
vn -0.0000 -0.2590 -0.9659
vn -0.0000 -0.2588 -0.9659
vn -0.0000 0.2588 -0.9659
vn -0.0000 0.2586 -0.9660
vn -0.0000 0.7070 -0.7073
vn -0.0000 0.7070 -0.7072
vn -0.0000 0.9659 -0.2589
vn 0.1959 -0.9564 0.2168
vn 0.1618 -0.9678 0.1928
vn 0.5039 -0.6648 0.5514
vn 0.4923 -0.6788 0.5449
vn 0.6581 -0.2296 0.7171
vn 0.6544 -0.2407 0.7169
vn 0.6556 0.2399 0.7160
vn 0.6556 0.2419 0.7153
vn 0.4976 0.6730 0.5472
vn 0.4945 0.6806 0.5407
vn 0.1844 0.9591 0.2148
vn 0.1656 0.9692 0.1821
vn -0.6456 -0.0052 -0.7636
vn -0.6489 -0.0002 -0.7609
vn 0.2432 -0.9658 0.0901
vn 0.2488 -0.9643 0.0903
vn 0.6638 -0.7058 0.2473
vn 0.6670 -0.7028 0.2471
vn 0.9050 -0.2582 0.3380
vn 0.9069 -0.2530 0.3368
vn 0.9048 0.2573 0.3393
vn 0.9038 0.2644 0.3364
vn 0.6634 0.7050 0.2509
vn 0.6585 0.7112 0.2461
vn 0.2430 0.9654 0.0946
vn 0.2368 0.9674 0.0896
vn -0.9375 0.0005 -0.3480
vn -0.9346 -0.0059 -0.3557
vn 0.2588 -0.9659 0.0068
vn 0.2656 -0.9641 0.0050
vn 0.7069 -0.7070 0.0222
vn 0.7164 -0.6974 0.0189
vn 0.9654 -0.2587 0.0320
vn 0.9670 -0.2529 0.0305
vn 0.9655 0.2586 0.0303
vn 0.9672 0.2521 0.0322
vn 0.7071 0.7069 0.0185
vn 0.7165 0.6972 0.0226
vn 0.2589 0.9659 0.0046
vn 0.2661 0.9639 0.0070
vn -0.9998 0.0000 -0.0186
vn -0.9998 0.0004 -0.0181
vn 0.2573 -0.9604 -0.1065
vn 0.6786 -0.6786 -0.2810
vn 0.6786 -0.6787 -0.2809
vn 0.8968 -0.2404 -0.3714
vn 0.8968 -0.2403 -0.3714
vn 0.8969 0.2402 -0.3714
vn 0.8968 0.2402 -0.3714
vn 0.6788 0.6785 -0.2810
vn 0.6787 0.6785 -0.2810
vn 0.2574 0.9604 -0.1065
vn 0.1065 -0.9604 -0.2573
vn 0.2811 -0.6787 -0.6785
vn 0.2810 -0.6786 -0.6786
vn 0.3716 -0.2404 -0.8968
vn 0.3715 -0.2403 -0.8968
vn 0.3715 0.2403 -0.8968
vn 0.3716 0.2403 -0.8968
vn 0.2814 0.6784 -0.6787
vn 0.2812 0.6785 -0.6786
vn 0.1067 0.9604 -0.2573
vn -1.0000 0.0001 0.0000
vn -1.0000 0.0001 -0.0001
vn -1.0000 0.0001 -0.0002
vn -1.0000 0.0000 -0.0001
vn -0.1911 -0.9548 0.2276
vn -0.1658 -0.9690 0.1834
vn -0.5014 -0.6638 0.5550
vn -0.4949 -0.6797 0.5414
vn -0.6562 -0.2293 0.7189
vn -0.6562 -0.2409 0.7151
vn -0.6559 0.2399 0.7157
vn -0.6553 0.2418 0.7156
vn -0.4989 0.6735 0.5455
vn -0.4932 0.6802 0.5423
vn -0.1879 0.9602 0.2067
vn -0.1626 0.9684 0.1891
vn 0.6489 -0.0052 -0.7609
vn 0.6457 -0.0002 -0.7636
vn -0.2437 -0.9658 0.0884
vn -0.2482 -0.9643 0.0919
vn -0.6642 -0.7059 0.2460
vn -0.6666 -0.7028 0.2484
vn -0.9056 -0.2583 0.3364
vn -0.9063 -0.2531 0.3384
vn -0.9056 0.2573 0.3371
vn -0.9030 0.2645 0.3386
vn -0.6642 0.7051 0.2483
vn -0.6575 0.7112 0.2487
vn -0.2436 0.9655 0.0922
vn -0.2359 0.9674 0.0919
vn 0.9346 0.0005 -0.3557
vn 0.9375 -0.0059 -0.3480
vn -0.2588 -0.9659 0.0049
vn -0.2651 -0.9642 0.0070
vn -0.7069 -0.7070 0.0187
vn -0.7158 -0.6979 0.0225
vn -0.9655 -0.2588 0.0304
vn -0.9669 -0.2530 0.0321
vn -0.9655 0.2586 0.0321
vn -0.9673 0.2519 0.0304
vn -0.7070 0.7068 0.0223
vn -0.7171 0.6967 0.0188
vn -0.2589 0.9659 0.0068
vn -0.2666 0.9638 0.0048
vn 0.9998 0.0000 -0.0181
vn 0.9998 0.0004 -0.0186
vn -0.2573 -0.9604 -0.1065
vn -0.6786 -0.6786 -0.2810
vn -0.6786 -0.6787 -0.2810
vn -0.8968 -0.2404 -0.3714
vn -0.8969 0.2402 -0.3714
vn -0.8969 0.2403 -0.3713
vn -0.6787 0.6785 -0.2810
vn -0.6787 0.6786 -0.2809
vn -0.2574 0.9604 -0.1065
vn -0.1065 -0.9604 -0.2573
vn -0.2810 -0.6787 -0.6785
vn -0.2811 -0.6786 -0.6785
vn -0.3716 -0.2404 -0.8968
vn -0.3716 -0.2403 -0.8968
vn -0.3716 0.2403 -0.8968
vn -0.3715 0.2402 -0.8968
vn -0.2812 0.6784 -0.6787
vn -0.2813 0.6786 -0.6785
vn -0.1067 0.9604 -0.2573
vn 1.0000 0.0001 -0.0000
vn 1.0000 0.0001 -0.0002
vn 1.0000 0.0000 -0.0001
vn 0.2588 0.9659 0.0070
vn 0.2383 0.9712 0.0004
vn 0.7071 0.7071 0.0042
vn 0.7382 0.6743 0.0188
vn 0.9659 0.2589 -0.0025
vn 0.9718 0.2359 0.0053
vn 0.9659 -0.2588 0.0051
vn 0.9722 -0.2339 -0.0030
vn 0.7071 -0.7069 0.0175
vn 0.7424 -0.6699 0.0036
vn 0.2589 -0.9659 -0.0004
vn 0.2371 -0.9715 0.0054
vn -0.2587 -0.9659 0.0059
vn -0.2392 -0.9710 -0.0004
vn -0.7070 -0.7072 0.0033
vn -0.7391 -0.6733 0.0184
vn -0.9659 -0.2590 -0.0030
vn -0.9720 -0.2348 0.0052
vn -0.9660 0.2587 0.0052
vn -0.9720 0.2350 -0.0025
vn -0.7071 0.7069 0.0180
vn -0.7415 0.6710 0.0044
vn -0.2589 0.9659 0.0004
vn -0.2360 0.9717 0.0065
vn -0.2587 -0.9659 0.0000
vn -0.7070 -0.7072 0.0000
vn -0.9659 -0.2590 0.0000
vn -0.9660 0.2587 0.0000
vn -0.7072 0.7070 0.0000
vn -0.2589 0.9659 0.0000
vn 0.2588 0.9659 -0.0000
vn 0.7071 0.7071 0.0000
vn 0.9659 0.2589 0.0000
vn 0.9659 -0.2588 0.0000
vn 0.7072 -0.7070 0.0000
vn 0.2589 -0.9659 0.0000
vn 0.7016 0.7017 0.1243
vn 0.7016 0.7016 0.1243
vn 0.9584 0.2570 0.1243
vn 0.9584 0.2568 0.1243
vn 0.9584 -0.2568 0.1243
vn 0.7016 -0.7016 0.1243
vn 0.7017 -0.7016 0.1243
vn 0.2569 -0.9584 0.1243
vn -0.2567 -0.9585 0.1243
vn -0.7015 -0.7017 0.1243
vn -0.9584 -0.2568 0.1243
vn -0.9584 -0.2569 0.1243
vn -0.9585 0.2566 0.1243
vn -0.9585 0.2567 0.1243
vn -0.7017 0.7015 0.1243
vn -0.2569 0.9584 0.1243
vn -0.0002 0.0003 1.0000
vn -0.0000 0.0000 1.0000
vn 0.0002 0.0003 1.0000
vn -0.0001 0.0002 1.0000
vn 0.0001 0.0002 1.0000
vn 0.2568 0.9584 0.1243
vn -0.0001 0.0000 -1.0000
vn -0.0000 0.0000 -1.0000
vn -1.0000 0.0001 0.0001
vn 0.0001 -0.0000 1.0000
vn 1.0000 -0.0001 0.0000
vn 1.0000 -0.0001 -0.0002
vn -0.0001 -1.0000 0.0000
vn -1.0000 0.0000 0.0001
vn 1.0000 0.0000 0.0000
vn -0.1581 0.9874 0.0000
vn -0.0428 0.9991 0.0000
vn 0.0430 0.9991 -0.0000
vn 0.1582 0.9874 -0.0000
vn 0.1667 -0.9860 0.0018
vn 0.1581 -0.9874 0.0032
vn 0.0450 -0.9990 0.0000
vn 0.0428 -0.9991 0.0005
vn -0.0453 -0.9990 0.0005
vn -0.0430 -0.9991 0.0000
vn -0.1673 -0.9859 0.0033
vn -0.1582 -0.9874 0.0017
vn -0.9998 0.0001 0.0200
vn 0.1639 0.9864 0.0083
vn 0.1582 0.9874 0.0074
vn 0.0443 0.9990 0.0100
vn 0.0430 0.9990 0.0097
vn -0.0441 0.9990 0.0097
vn -0.0428 0.9990 0.0100
vn -0.1640 0.9864 0.0073
vn -0.1581 0.9874 0.0083
vn 0.9998 0.0000 0.0200
vn 0.2863 0.0000 0.9581
vn 0.0934 -0.0000 0.9956
vn -0.0932 0.0000 0.9956
vn -0.2862 0.0000 0.9582
usemtl None
s off
f 14//1 13//1 1//1
f 2//1 14//1 1//1
f 15//2 14//2 2//2
f 3//2 15//2 2//2
f 16//3 15//3 3//3
f 4//4 16//4 3//4
f 17//5 16//5 4//5
f 5//6 17//6 4//6
f 18//7 17//7 5//7
f 6//7 18//7 5//7
f 19//8 18//8 6//8
f 7//8 19//8 6//8
f 20//9 19//9 7//9
f 8//9 20//9 7//9
f 21//10 20//10 8//10
f 9//11 21//11 8//11
f 22//12 21//12 9//12
f 10//13 22//13 9//13
f 23//14 22//14 10//14
f 11//15 23//15 10//15
f 24//16 23//16 11//16
f 12//17 24//17 11//17
f 13//18 24//18 12//18
f 1//18 13//18 12//18
f 36//19 37//19 43//19
f 60//20 36//20 43//20
f 37//21 38//21 44//21
f 43//22 37//22 44//22
f 38//23 39//23 45//23
f 44//24 38//24 45//24
f 39//25 40//25 46//25
f 45//26 39//26 46//26
f 40//27 41//27 47//27
f 46//28 40//28 47//28
f 41//29 42//29 111//29
f 47//30 41//30 111//30
f 42//31 36//31 60//31
f 111//32 42//32 60//32
f 35//33 29//33 37//33
f 36//34 35//34 37//34
f 29//35 30//35 38//35
f 37//36 29//36 38//36
f 30//37 31//37 39//37
f 38//38 30//38 39//38
f 31//39 32//39 40//39
f 39//40 31//40 40//40
f 32//41 33//41 41//41
f 40//42 32//42 41//42
f 33//43 34//43 42//43
f 41//44 33//44 42//44
f 34//45 35//45 36//45
f 42//46 34//46 36//46
f 61//47 25//47 29//47
f 35//48 61//48 29//48
f 25//49 26//49 30//49
f 29//50 25//50 30//50
f 26//51 27//51 31//51
f 30//52 26//52 31//52
f 27//53 48//53 32//53
f 31//54 27//54 32//54
f 48//55 49//55 33//55
f 32//56 48//56 33//56
f 49//57 28//57 34//57
f 33//58 49//58 34//58
f 28//59 61//59 35//59
f 34//60 28//60 35//60
f 61//61 50//61 25//61
f 50//62 51//62 26//62
f 25//63 50//63 26//63
f 51//64 52//64 27//64
f 26//65 51//65 27//65
f 52//66 53//66 48//66
f 27//67 52//67 48//67
f 53//68 54//68 49//68
f 48//69 53//69 49//69
f 49//70 54//70 28//70
f 61//71 55//71 50//71
f 55//72 56//72 51//72
f 50//73 55//73 51//73
f 56//74 57//74 52//74
f 51//75 56//75 52//75
f 57//76 58//76 53//76
f 52//77 57//77 53//77
f 58//78 59//78 54//78
f 53//79 58//79 54//79
f 54//80 59//80 28//80
f 55//81 61//81 62//81
f 56//82 55//82 62//82
f 57//82 56//82 62//82
f 58//82 57//82 62//82
f 59//82 58//82 62//82
f 28//83 59//83 62//83
f 61//84 28//84 62//84
f 68//85 74//85 60//85
f 63//86 68//86 60//86
f 69//87 68//87 63//87
f 64//88 69//88 63//88
f 70//89 69//89 64//89
f 65//90 70//90 64//90
f 71//91 70//91 65//91
f 66//92 71//92 65//92
f 72//93 71//93 66//93
f 67//94 72//94 66//94
f 73//95 72//95 67//95
f 111//96 73//96 67//96
f 74//97 73//97 111//97
f 60//98 74//98 111//98
f 75//99 76//99 74//99
f 68//100 75//100 74//100
f 77//101 75//101 68//101
f 69//102 77//102 68//102
f 78//103 77//103 69//103
f 70//104 78//104 69//104
f 79//105 78//105 70//105
f 71//106 79//106 70//106
f 80//107 79//107 71//107
f 72//108 80//108 71//108
f 81//109 80//109 72//109
f 73//110 81//110 72//110
f 76//111 81//111 73//111
f 74//112 76//112 73//112
f 82//113 83//113 76//113
f 75//114 82//114 76//114
f 84//115 82//115 75//115
f 77//116 84//116 75//116
f 85//117 84//117 77//117
f 78//118 85//118 77//118
f 86//119 85//119 78//119
f 79//120 86//120 78//120
f 87//121 86//121 79//121
f 80//122 87//122 79//122
f 88//123 87//123 80//123
f 81//124 88//124 80//124
f 83//125 88//125 81//125
f 76//126 83//126 81//126
f 82//127 89//127 83//127
f 90//128 89//128 82//128
f 84//129 90//129 82//129
f 91//130 90//130 84//130
f 85//130 91//130 84//130
f 92//131 91//131 85//131
f 86//132 92//132 85//132
f 93//133 92//133 86//133
f 87//134 93//134 86//134
f 88//135 93//135 87//135
f 89//136 94//136 83//136
f 95//137 94//137 89//137
f 90//138 95//138 89//138
f 96//139 95//139 90//139
f 91//140 96//140 90//140
f 97//141 96//141 91//141
f 92//142 97//142 91//142
f 98//143 97//143 92//143
f 93//144 98//144 92//144
f 88//145 98//145 93//145
f 99//146 83//146 94//146
f 99//146 94//146 95//146
f 99//146 95//146 96//146
f 99//146 96//146 97//146
f 99//146 97//146 98//146
f 99//147 98//147 88//147
f 99//148 88//148 83//148
f 100//149 101//149 47//149
f 111//150 100//150 47//150
f 101//151 102//151 46//151
f 47//152 101//152 46//152
f 102//153 103//153 45//153
f 46//154 102//154 45//154
f 103//155 104//155 44//155
f 45//156 103//156 44//156
f 104//157 105//157 43//157
f 44//158 104//158 43//158
f 105//159 112//159 60//159
f 43//160 105//160 60//160
f 112//161 106//161 63//161
f 60//162 112//162 63//162
f 106//163 107//163 64//163
f 63//164 106//164 64//164
f 107//165 108//165 65//165
f 64//166 107//166 65//166
f 108//167 109//167 66//167
f 65//168 108//168 66//168
f 109//169 110//169 67//169
f 66//170 109//170 67//170
f 110//171 100//171 111//171
f 67//172 110//172 111//172
f 135//173 124//173 119//173
f 112//173 135//173 119//173
f 124//174 125//174 120//174
f 119//174 124//174 120//174
f 125//175 126//175 121//175
f 120//175 125//175 121//175
f 126//176 127//176 122//176
f 121//176 126//176 122//176
f 127//177 128//177 123//177
f 122//177 127//177 123//177
f 128//178 129//178 113//178
f 123//178 128//178 113//178
f 129//179 130//179 114//179
f 113//179 129//179 114//179
f 130//180 131//180 115//180
f 114//180 130//180 115//180
f 131//181 132//181 116//181
f 115//181 131//181 116//181
f 132//182 133//182 117//182
f 116//182 132//182 117//182
f 133//183 134//183 118//183
f 117//183 133//183 118//183
f 134//184 135//184 112//184
f 118//184 134//184 112//184
f 136//185 137//185 154//185
f 153//186 136//186 154//186
f 137//187 138//187 155//187
f 154//188 137//188 155//188
f 138//189 139//189 156//189
f 155//189 138//189 156//189
f 139//190 140//190 157//190
f 156//191 139//191 157//191
f 140//192 141//192 158//192
f 157//192 140//192 158//192
f 141//193 142//193 148//193
f 158//193 141//193 148//193
f 142//194 143//194 149//194
f 148//194 142//194 149//194
f 143//195 144//195 150//195
f 149//196 143//196 150//196
f 144//197 145//197 151//197
f 150//198 144//198 151//198
f 145//199 146//199 152//199
f 151//199 145//199 152//199
f 146//200 147//200 129//200
f 152//200 146//200 129//200
f 137//201 136//201 159//201
f 138//202 137//202 159//202
f 139//202 138//202 159//202
f 140//202 139//202 159//202
f 141//202 140//202 159//202
f 142//202 141//202 159//202
f 143//202 142//202 159//202
f 144//202 143//202 159//202
f 145//202 144//202 159//202
f 146//203 145//203 159//203
f 147//204 146//204 159//204
f 136//205 147//205 159//205
f 129//206 147//206 136//206
f 153//206 129//206 136//206
f 173//207 174//207 179//207
f 178//207 173//207 179//207
f 172//207 173//207 178//207
f 177//207 172//207 178//207
f 171//208 172//208 177//208
f 176//208 171//208 177//208
f 170//207 171//207 176//207
f 175//207 170//207 176//207
f 160//81 170//81 175//81
f 165//209 160//209 175//209
f 161//210 160//210 165//210
f 166//210 161//210 165//210
f 162//210 161//210 166//210
f 167//210 162//210 166//210
f 163//210 162//210 167//210
f 168//210 163//210 167//210
f 164//210 163//210 168//210
f 169//210 164//210 168//210
f 174//211 164//211 169//211
f 179//212 174//212 169//212
f 169//213 168//213 178//213
f 179//213 169//213 178//213
f 168//213 167//213 177//213
f 178//213 168//213 177//213
f 167//213 166//213 176//213
f 177//213 167//213 176//213
f 166//213 165//213 175//213
f 176//213 166//213 175//213
f 180//207 189//207 174//207
f 173//207 180//207 174//207
f 181//207 180//207 173//207
f 172//207 181//207 173//207
f 182//208 181//208 172//208
f 171//208 182//208 172//208
f 183//207 182//207 171//207
f 170//207 183//207 171//207
f 184//214 183//214 170//214
f 160//81 184//81 170//81
f 185//210 184//210 160//210
f 161//210 185//210 160//210
f 186//210 185//210 161//210
f 162//210 186//210 161//210
f 187//210 186//210 162//210
f 163//210 187//210 162//210
f 188//210 187//210 163//210
f 164//210 188//210 163//210
f 189//215 188//215 164//215
f 174//215 189//215 164//215
f 188//216 189//216 180//216
f 187//216 188//216 180//216
f 187//217 180//217 181//217
f 186//217 187//217 181//217
f 186//218 181//218 182//218
f 185//218 186//218 182//218
f 185//219 182//219 183//219
f 184//219 185//219 183//219
f 190//220 191//220 163//220
f 164//221 190//221 163//221
f 191//222 192//222 162//222
f 163//223 191//223 162//223
f 192//224 193//224 161//224
f 162//225 192//225 161//225
f 193//226 194//226 160//226
f 161//227 193//227 160//227
f 194//228 195//228 184//228
f 160//228 194//228 184//228
f 195//229 196//229 185//229
f 184//230 195//230 185//230
f 196//231 197//231 186//231
f 185//232 196//232 186//232
f 197//233 198//233 187//233
f 186//234 197//234 187//234
f 198//235 199//235 188//235
f 187//236 198//236 188//236
f 190//237 164//237 188//237
f 199//237 190//237 188//237
f 198//238 191//238 190//238
f 199//238 198//238 190//238
f 198//239 197//239 192//239
f 191//239 198//239 192//239
f 197//240 196//240 193//240
f 192//240 197//240 193//240
f 193//241 196//241 195//241
f 194//241 193//241 195//241
