# Blender v2.79 (sub 0) OBJ File: ''
# www.blender.org
mtllib m1101.mtl
o m1101
v 0.011567 0.006846 -0.213843
v 0.007454 0.010866 -0.213843
v 0.002122 0.013006 -0.213847
v -0.003625 0.012941 -0.213853
v -0.008914 0.010681 -0.213858
v -0.012942 0.006569 -0.213864
v -0.015077 0.001233 -0.213868
v -0.015006 -0.004517 -0.213871
v -0.012755 -0.009804 -0.213871
v -0.008642 -0.013823 -0.213870
v -0.003310 -0.015965 -0.213864
v 0.002451 -0.015900 -0.213860
v 0.007726 -0.013639 -0.213853
v 0.011753 -0.009528 -0.213847
v 0.013889 -0.004191 -0.213843
v 0.013832 0.001558 -0.213841
v 0.010793 0.006512 0.599706
v 0.006680 0.010531 0.599704
v 0.001348 0.012672 0.599700
v -0.004399 0.012606 0.599694
v -0.009688 0.010346 0.599689
v -0.013716 0.006235 0.599683
v -0.015851 0.000898 0.599679
v -0.015794 -0.004851 0.599677
v -0.013530 -0.010138 0.599677
v -0.009416 -0.014159 0.599679
v -0.004085 -0.016299 0.599683
v 0.001677 -0.016234 0.599687
v 0.006952 -0.013974 0.599694
v 0.010979 -0.009862 0.599700
v 0.013115 -0.004526 0.599704
v 0.013058 0.001224 0.599706
v -0.001361 -0.001814 0.599691
v -0.000587 -0.001479 -0.213857
v 0.001449 0.008521 -0.350294
v 0.020669 0.009146 -0.341471
v 0.027606 0.008109 -0.341484
v 0.031948 0.007093 -0.341501
v 0.033281 0.006270 -0.341521
v 0.031518 0.005746 -0.341538
v 0.026832 0.005540 -0.341552
v 0.019694 0.005591 -0.341567
v 0.010779 0.005799 -0.341580
v 0.000976 0.006069 -0.341594
v -0.008799 0.006346 -0.341606
v -0.017585 0.006637 -0.341617
v -0.024537 0.006991 -0.341623
v -0.028979 0.007470 -0.341618
v -0.030470 0.008103 -0.341606
v -0.028836 0.008858 -0.341581
v -0.024236 0.009628 -0.341551
v -0.017069 0.010259 -0.341520
v -0.008068 0.010590 -0.341492
v 0.001893 0.010509 -0.341474
v 0.011811 0.010000 -0.341467
v 0.038126 0.008548 -0.316009
v 0.051240 0.005994 -0.316049
v 0.059338 0.003607 -0.316095
v 0.061717 0.001894 -0.316136
v 0.058263 0.001106 -0.316164
v 0.049348 0.001198 -0.316179
v 0.035847 0.001872 -0.316189
v 0.019035 0.002718 -0.316202
v 0.000517 0.003389 -0.316224
v -0.017929 0.003721 -0.316252
v -0.034541 0.003796 -0.316285
v -0.047712 0.003891 -0.316310
v -0.056197 0.004337 -0.316316
v -0.059135 0.005369 -0.316294
v -0.056183 0.006991 -0.316245
v -0.047555 0.008936 -0.316177
v -0.033996 0.010723 -0.316101
v -0.016811 0.011822 -0.316036
v 0.002266 0.011836 -0.315996
v 0.021242 0.010665 -0.315986
v 0.052000 0.007084 -0.276390
v 0.069916 0.002933 -0.276463
v 0.080851 -0.000836 -0.276541
v 0.083962 -0.003348 -0.276601
v 0.079117 -0.004199 -0.276634
v 0.066906 -0.003548 -0.276643
v 0.048445 -0.002001 -0.276640
v 0.025456 -0.000348 -0.276644
v -0.000143 -0.005081 -0.276823
v -0.025139 0.000994 -0.276713
v -0.047856 0.000583 -0.276772
v -0.065886 0.000085 -0.276822
v -0.077539 0.000189 -0.276843
v -0.081681 0.001413 -0.276819
v -0.077811 0.003841 -0.276747
v -0.066130 0.007034 -0.276638
v -0.047555 0.010139 -0.276517
v -0.023863 0.012169 -0.276413
v 0.002280 0.006549 -0.276508
v 0.028752 0.010537 -0.276347
v 0.060900 0.005273 -0.226488
v 0.081826 -0.000087 -0.226587
v 0.094510 -0.004878 -0.226688
v 0.098008 -0.007940 -0.226762
v 0.092274 -0.008764 -0.226795
v 0.077956 -0.007606 -0.226794
v 0.056371 -0.005322 -0.226778
v 0.029483 -0.003016 -0.226774
v -0.000444 -0.007427 -0.226954
v -0.029768 -0.001468 -0.226855
v -0.056369 -0.002335 -0.226934
v -0.077467 -0.003392 -0.227006
v -0.091126 -0.003650 -0.227042
v -0.096057 -0.002363 -0.227017
v -0.091656 0.000632 -0.226928
v -0.078083 0.004773 -0.226791
v -0.056355 0.008908 -0.226635
v -0.028478 0.011688 -0.226504
v 0.002394 0.006242 -0.226584
v 0.033568 0.009739 -0.226425
v 0.063882 0.003594 -0.171176
v 0.085839 -0.002212 -0.171283
v 0.099097 -0.007381 -0.171393
v 0.102723 -0.010637 -0.171474
v 0.096689 -0.011440 -0.171507
v 0.081654 -0.010080 -0.171502
v 0.059008 -0.007512 -0.171481
v 0.030773 -0.004956 -0.171471
v -0.000630 -0.009248 -0.171652
v -0.031431 -0.003340 -0.171557
v -0.059351 -0.004390 -0.171644
v -0.081509 -0.005671 -0.171725
v -0.095842 -0.006081 -0.171765
v -0.101059 -0.004781 -0.171742
v -0.096487 -0.001583 -0.171647
v -0.082268 0.002908 -0.171498
v -0.059465 0.007433 -0.171330
v -0.030155 0.010498 -0.171187
v 0.002351 0.005123 -0.171263
v 0.035145 0.008439 -0.171107
vn 0.6990 0.7151 0.0010
vn 0.6989 0.7152 0.0010
vn 0.3725 0.9281 0.0007
vn 0.3727 0.9280 0.0007
vn -0.0112 0.9999 0.0004
vn -0.0115 0.9999 0.0004
vn -0.3930 0.9196 0.0000
vn -0.7144 0.6998 -0.0004
vn -0.7142 0.6999 -0.0004
vn -0.9284 0.3715 -0.0007
vn -0.9285 0.3714 -0.0007
vn -0.9999 -0.0123 -0.0010
vn -1.0000 -0.0099 -0.0010
vn -0.9201 -0.3917 -0.0010
vn -0.9193 -0.3936 -0.0011
vn -0.6989 -0.7152 -0.0010
vn -0.3727 -0.9280 -0.0007
vn -0.3725 -0.9280 -0.0007
vn 0.0112 -0.9999 -0.0004
vn 0.3940 -0.9191 -0.0000
vn 0.3938 -0.9192 -0.0000
vn 0.7143 -0.6998 0.0004
vn 0.7145 -0.6997 0.0004
vn 0.9284 -0.3715 0.0007
vn 0.9284 -0.3716 0.0007
vn 1.0000 0.0099 0.0010
vn 0.9192 0.3938 0.0010
vn 0.0007 0.0007 -1.0000
vn 0.0010 0.0005 -1.0000
vn 0.0008 0.0004 -1.0000
vn 0.0009 0.0006 -1.0000
vn 0.0009 0.0005 -1.0000
vn 0.0009 0.0004 -1.0000
vn 0.0008 0.0006 -1.0000
vn 0.0012 0.0003 -1.0000
vn 0.0007 0.0004 -1.0000
vn 0.0011 0.0004 -1.0000
vn 0.0010 0.0003 -1.0000
vn 0.0010 0.0004 -1.0000
vn 0.0011 0.0001 -1.0000
vn -0.0008 -0.0005 1.0000
vn -0.0010 -0.0004 1.0000
vn -0.0009 -0.0004 1.0000
vn -0.0009 -0.0003 1.0000
vn -0.0011 -0.0005 1.0000
vn 0.1370 0.9214 -0.3636
vn 0.1914 0.8264 -0.5295
vn 0.2665 0.4525 -0.8510
vn 0.1791 -0.5761 -0.7975
vn 0.0411 -0.9032 -0.4273
vn -0.0062 -0.9519 -0.3065
vn -0.0220 -0.9608 -0.2765
vn -0.0261 -0.9618 -0.2725
vn -0.0269 -0.9618 -0.2726
vn -0.0315 -0.9602 -0.2775
vn -0.0481 -0.9490 -0.3116
vn -0.0964 -0.8899 -0.4459
vn -0.2208 -0.5036 -0.8353
vn -0.2300 0.5246 -0.8197
vn -0.1383 0.8468 -0.5135
vn -0.0804 0.9317 -0.3542
vn -0.0346 0.9639 -0.2640
vn 0.0083 0.9754 -0.2203
vn 0.0501 0.9738 -0.2220
vn 0.0923 0.9587 -0.2690
vn 0.1898 0.9760 -0.1072
vn 0.1474 0.9876 -0.0548
vn 0.2772 0.9440 -0.1790
vn 0.2261 0.9678 -0.1109
vn 0.5150 0.7262 -0.4555
vn 0.4771 0.7828 -0.3995
vn 0.2081 -0.8979 -0.3879
vn 0.2609 -0.8629 -0.4328
vn -0.0099 -0.9854 -0.1698
vn 0.0437 -0.9776 -0.2060
vn -0.0494 -0.9908 -0.1257
vn -0.0069 -0.9900 -0.1407
vn -0.0498 -0.9923 -0.1137
vn -0.0230 -0.9933 -0.1131
vn -0.0359 -0.9934 -0.1090
vn -0.0272 -0.9940 -0.1055
vn -0.0178 -0.9943 -0.1054
vn -0.0280 -0.9932 -0.1129
vn -0.0043 -0.9945 -0.1045
vn -0.0326 -0.9906 -0.1329
vn -0.0069 -0.9932 -0.1160
vn -0.0500 -0.9848 -0.1664
vn -0.0516 -0.9845 -0.1678
vn -0.1045 -0.9671 -0.2321
vn -0.3020 -0.8507 -0.4302
vn -0.3465 -0.8062 -0.4795
vn -0.4350 0.8038 -0.4058
vn -0.3877 0.8504 -0.3558
vn -0.2158 0.9629 -0.1619
vn -0.1630 0.9789 -0.1231
vn -0.1296 0.9873 -0.0922
vn -0.0871 0.9933 -0.0761
vn -0.0635 0.9961 -0.0605
vn -0.0365 0.9975 -0.0608
vn -0.0006 0.9988 -0.0486
vn 0.0082 0.9986 -0.0521
vn 0.0615 0.9967 -0.0528
vn 0.0512 0.9977 -0.0450
vn 0.1240 0.9897 -0.0717
vn 0.0959 0.9945 -0.0424
vn 0.2253 0.9733 -0.0430
vn 0.1911 0.9815 -0.0143
vn 0.3243 0.9425 -0.0802
vn 0.2821 0.9583 -0.0458
vn 0.6062 0.7568 -0.2447
vn 0.5683 0.7944 -0.2144
vn 0.1702 -0.9599 -0.2230
vn 0.2177 -0.9456 -0.2418
vn -0.0528 -0.9930 -0.1054
vn -0.0100 -0.9933 -0.1148
vn -0.0832 -0.9931 -0.0823
vn -0.0496 -0.9954 -0.0817
vn -0.0715 -0.9946 -0.0746
vn -0.0501 -0.9964 -0.0691
vn 0.1815 -0.9777 -0.1052
vn -0.0351 -0.9769 -0.2106
vn -0.2318 -0.9502 -0.2081
vn -0.0179 -0.9972 -0.0721
vn 0.0182 -0.9977 -0.0655
vn -0.0043 -0.9966 -0.0825
vn 0.0278 -0.9970 -0.0717
vn -0.0070 -0.9951 -0.0991
vn -0.0088 -0.9950 -0.0999
vn -0.0519 -0.9899 -0.1321
vn -0.2759 -0.9290 -0.2468
vn -0.3205 -0.9068 -0.2739
vn -0.5165 0.8296 -0.2119
vn -0.4705 0.8619 -0.1889
vn -0.2625 0.9626 -0.0670
vn -0.2191 0.9741 -0.0561
vn -0.1646 0.9859 -0.0299
vn -0.1304 0.9910 -0.0300
vn -0.0853 0.9962 -0.0145
vn -0.0637 0.9978 -0.0201
vn 0.2102 0.9772 0.0289
vn -0.0010 0.9912 0.1327
vn -0.1485 0.9802 0.1313
vn 0.0616 0.9981 -0.0085
vn 0.1468 0.9889 -0.0246
vn 0.1244 0.9922 -0.0069
vn 0.2480 0.9687 -0.0091
vn 0.2257 0.9742 0.0051
vn 0.3531 0.9352 -0.0277
vn 0.3258 0.9454 -0.0126
vn 0.6526 0.7485 -0.1181
vn 0.6235 0.7749 -0.1043
vn 0.1418 -0.9813 -0.1304
vn 0.1723 -0.9758 -0.1349
vn -0.0804 -0.9943 -0.0698
vn -0.0530 -0.9962 -0.0693
vn -0.1051 -0.9928 -0.0575
vn -0.0834 -0.9951 -0.0530
vn -0.0854 -0.9950 -0.0527
vn -0.0716 -0.9963 -0.0475
vn 0.1459 -0.9872 -0.0646
vn 0.1819 -0.9823 -0.0451
vn -0.1991 -0.9788 -0.0473
vn -0.2359 -0.9693 -0.0698
vn 0.0327 -0.9984 -0.0463
vn 0.0182 -0.9983 -0.0553
vn 0.0502 -0.9975 -0.0498
vn 0.0278 -0.9976 -0.0632
vn 0.0190 -0.9977 -0.0652
vn -0.0088 -0.9968 -0.0793
vn -0.2507 -0.9576 -0.1422
vn -0.2809 -0.9475 -0.1529
vn -0.5586 0.8235 -0.0988
vn -0.5279 0.8442 -0.0923
vn -0.2915 0.9564 -0.0194
vn -0.2635 0.9645 -0.0194
vn -0.1869 0.9824 -0.0003
vn -0.1648 0.9863 -0.0047
vn -0.0993 0.9950 0.0070
vn -0.0854 0.9963 0.0017
vn 0.1737 0.9845 0.0256
vn 0.2102 0.9776 0.0055
vn -0.1115 0.9937 0.0064
vn -0.1491 0.9884 0.0302
vn 0.1613 0.9869 0.0002
vn 0.1469 0.9891 0.0097
vn 0.2557 0.9666 0.0155
vn 0.2481 0.9685 0.0192
vn 0.3633 0.9316 0.0094
vn 0.3535 0.9354 0.0130
vn 0.6677 0.7441 -0.0217
vn 0.6582 0.7526 -0.0194
vn 0.1319 -0.9895 -0.0595
vn 0.1423 -0.9880 -0.0592
vn -0.0901 -0.9951 -0.0410
vn -0.0806 -0.9960 -0.0392
vn -0.1126 -0.9930 -0.0369
vn -0.1052 -0.9939 -0.0343
vn -0.0901 -0.9953 -0.0351
vn -0.0854 -0.9958 -0.0330
vn 0.1355 -0.9900 -0.0379
vn 0.1459 -0.9888 -0.0321
vn -0.1884 -0.9815 -0.0330
vn -0.1991 -0.9792 -0.0391
vn 0.0377 -0.9988 -0.0327
vn 0.0326 -0.9988 -0.0354
vn 0.0578 -0.9977 -0.0340
vn 0.0502 -0.9980 -0.0375
vn 0.0287 -0.9988 -0.0391
vn 0.0190 -0.9989 -0.0423
vn -0.2416 -0.9683 -0.0632
vn -0.2524 -0.9654 -0.0651
vn -0.5728 0.8195 -0.0160
vn -0.5624 0.8267 -0.0160
vn -0.3013 0.9534 0.0119
vn -0.2919 0.9564 0.0102
vn -0.1947 0.9807 0.0183
vn -0.1870 0.9822 0.0157
vn -0.1041 0.9944 0.0207
vn -0.0993 0.9949 0.0184
vn 0.1632 0.9863 0.0262
vn 0.1737 0.9846 0.0201
vn -0.1007 0.9947 0.0200
vn -0.1116 0.9934 0.0265
vn 0.1663 0.9859 0.0184
vn 0.1613 0.9867 0.0212
vn -0.0023 -0.0273 0.9996
vn -0.0024 -0.0276 0.9996
vn -0.0020 -0.0263 0.9997
vn -0.0021 -0.0265 0.9996
vn -0.0021 -0.0266 0.9996
vn -0.0022 -0.0259 0.9997
vn -0.0020 -0.0268 0.9996
vn -0.0022 -0.0250 0.9997
vn -0.0025 -0.0204 0.9998
vn -0.0020 -0.0280 0.9996
vn -0.0021 -0.0261 0.9997
vn -0.0021 -0.0267 0.9996
vn 0.0021 0.0267 -0.9996
usemtl None
s off
f 1//1 2//1 18//1
f 1//2 18//2 17//2
f 2//3 3//3 19//3
f 2//4 19//4 18//4
f 3//5 4//5 20//5
f 3//6 20//6 19//6
f 4//7 5//7 21//7
f 4//7 21//7 20//7
f 5//8 6//8 22//8
f 5//9 22//9 21//9
f 6//10 7//10 23//10
f 6//11 23//11 22//11
f 7//12 8//12 24//12
f 7//13 24//13 23//13
f 8//14 9//14 25//14
f 8//15 25//15 24//15
f 9//16 10//16 26//16
f 9//16 26//16 25//16
f 10//17 11//17 27//17
f 10//18 27//18 26//18
f 11//19 12//19 28//19
f 11//19 28//19 27//19
f 12//20 13//20 29//20
f 12//21 29//21 28//21
f 13//22 14//22 30//22
f 13//23 30//23 29//23
f 14//24 15//24 31//24
f 14//25 31//25 30//25
f 15//26 16//26 32//26
f 15//26 32//26 31//26
f 16//27 1//27 17//27
f 16//27 17//27 32//27
f 2//28 1//28 34//28
f 3//29 2//29 34//29
f 4//29 3//29 34//29
f 5//30 4//30 34//30
f 6//31 5//31 34//31
f 7//30 6//30 34//30
f 8//32 7//32 34//32
f 9//33 8//33 34//33
f 10//34 9//34 34//34
f 11//35 10//35 34//35
f 12//36 11//36 34//36
f 13//37 12//37 34//37
f 14//37 13//37 34//37
f 15//38 14//38 34//38
f 16//39 15//39 34//39
f 1//40 16//40 34//40
f 17//41 18//41 33//41
f 18//42 19//42 33//42
f 19//42 20//42 33//42
f 20//43 21//43 33//43
f 21//42 22//42 33//42
f 22//42 23//42 33//42
f 23//44 24//44 33//44
f 24//43 25//43 33//43
f 25//41 26//41 33//41
f 26//42 27//42 33//42
f 27//41 28//41 33//41
f 28//45 29//45 33//45
f 29//42 30//42 33//42
f 30//42 31//42 33//42
f 31//44 32//44 33//44
f 32//43 17//43 33//43
f 35//46 36//46 37//46
f 35//47 37//47 38//47
f 35//48 38//48 39//48
f 35//49 39//49 40//49
f 35//50 40//50 41//50
f 35//51 41//51 42//51
f 35//52 42//52 43//52
f 35//53 43//53 44//53
f 35//54 44//54 45//54
f 35//55 45//55 46//55
f 35//56 46//56 47//56
f 35//57 47//57 48//57
f 35//58 48//58 49//58
f 35//59 49//59 50//59
f 35//60 50//60 51//60
f 35//61 51//61 52//61
f 35//62 52//62 53//62
f 35//63 53//63 54//63
f 35//64 54//64 55//64
f 35//65 55//65 36//65
f 36//66 56//66 57//66
f 36//67 57//67 37//67
f 37//68 57//68 58//68
f 37//69 58//69 38//69
f 38//70 58//70 59//70
f 38//71 59//71 39//71
f 39//72 59//72 60//72
f 39//73 60//73 40//73
f 40//74 60//74 61//74
f 40//75 61//75 41//75
f 41//76 61//76 62//76
f 41//77 62//77 42//77
f 42//78 62//78 63//78
f 42//79 63//79 43//79
f 43//80 63//80 64//80
f 43//81 64//81 44//81
f 44//82 64//82 65//82
f 44//83 65//83 45//83
f 45//84 65//84 66//84
f 45//85 66//85 46//85
f 46//86 66//86 67//86
f 46//87 67//87 47//87
f 47//88 67//88 68//88
f 47//89 68//89 48//89
f 48//90 68//90 69//90
f 48//91 69//91 49//91
f 49//92 69//92 70//92
f 49//93 70//93 50//93
f 50//94 70//94 71//94
f 50//95 71//95 51//95
f 51//96 71//96 72//96
f 51//97 72//97 52//97
f 52//98 72//98 73//98
f 52//99 73//99 53//99
f 53//100 73//100 74//100
f 53//101 74//101 54//101
f 54//102 74//102 75//102
f 54//103 75//103 55//103
f 55//104 75//104 56//104
f 55//105 56//105 36//105
f 56//106 76//106 77//106
f 56//107 77//107 57//107
f 57//108 77//108 78//108
f 57//109 78//109 58//109
f 58//110 78//110 79//110
f 58//111 79//111 59//111
f 59//112 79//112 80//112
f 59//113 80//113 60//113
f 60//114 80//114 81//114
f 60//115 81//115 61//115
f 61//116 81//116 82//116
f 61//117 82//117 62//117
f 62//118 82//118 83//118
f 62//119 83//119 63//119
f 63//120 83//120 84//120
f 63//121 84//121 64//121
f 64//122 84//122 85//122
f 64//123 85//123 65//123
f 65//124 85//124 86//124
f 65//125 86//125 66//125
f 66//126 86//126 87//126
f 66//127 87//127 67//127
f 67//128 87//128 88//128
f 67//129 88//129 68//129
f 68//130 88//130 89//130
f 68//131 89//131 69//131
f 69//132 89//132 90//132
f 69//133 90//133 70//133
f 70//134 90//134 91//134
f 70//135 91//135 71//135
f 71//136 91//136 92//136
f 71//137 92//137 72//137
f 72//138 92//138 93//138
f 72//139 93//139 73//139
f 73//140 93//140 94//140
f 73//141 94//141 74//141
f 74//142 94//142 95//142
f 74//143 95//143 75//143
f 75//144 95//144 76//144
f 75//145 76//145 56//145
f 76//146 96//146 97//146
f 76//147 97//147 77//147
f 77//148 97//148 98//148
f 77//149 98//149 78//149
f 78//150 98//150 99//150
f 78//151 99//151 79//151
f 79//152 99//152 100//152
f 79//153 100//153 80//153
f 80//154 100//154 101//154
f 80//155 101//155 81//155
f 81//156 101//156 102//156
f 81//157 102//157 82//157
f 82//158 102//158 103//158
f 82//159 103//159 83//159
f 83//160 103//160 104//160
f 83//161 104//161 84//161
f 84//162 104//162 105//162
f 84//163 105//163 85//163
f 85//164 105//164 106//164
f 85//165 106//165 86//165
f 86//166 106//166 107//166
f 86//167 107//167 87//167
f 87//168 107//168 108//168
f 87//169 108//169 88//169
f 88//170 108//170 109//170
f 88//171 109//171 89//171
f 89//172 109//172 110//172
f 89//173 110//173 90//173
f 90//174 110//174 111//174
f 90//175 111//175 91//175
f 91//176 111//176 112//176
f 91//177 112//177 92//177
f 92//178 112//178 113//178
f 92//179 113//179 93//179
f 93//180 113//180 114//180
f 93//181 114//181 94//181
f 94//182 114//182 115//182
f 94//183 115//183 95//183
f 95//184 115//184 96//184
f 95//185 96//185 76//185
f 96//186 116//186 117//186
f 96//187 117//187 97//187
f 97//188 117//188 118//188
f 97//189 118//189 98//189
f 98//190 118//190 119//190
f 98//191 119//191 99//191
f 99//192 119//192 120//192
f 99//193 120//193 100//193
f 100//194 120//194 121//194
f 100//195 121//195 101//195
f 101//196 121//196 122//196
f 101//197 122//197 102//197
f 102//198 122//198 123//198
f 102//199 123//199 103//199
f 103//200 123//200 124//200
f 103//201 124//201 104//201
f 104//202 124//202 125//202
f 104//203 125//203 105//203
f 105//204 125//204 126//204
f 105//205 126//205 106//205
f 106//206 126//206 127//206
f 106//207 127//207 107//207
f 107//208 127//208 128//208
f 107//209 128//209 108//209
f 108//210 128//210 129//210
f 108//211 129//211 109//211
f 109//212 129//212 130//212
f 109//213 130//213 110//213
f 110//214 130//214 131//214
f 110//215 131//215 111//215
f 111//216 131//216 132//216
f 111//217 132//217 112//217
f 112//218 132//218 133//218
f 112//219 133//219 113//219
f 113//220 133//220 134//220
f 113//221 134//221 114//221
f 114//222 134//222 135//222
f 114//223 135//223 115//223
f 115//224 135//224 116//224
f 115//225 116//225 96//225
f 116//226 118//226 117//226
f 116//227 119//227 118//227
f 116//228 120//228 119//228
f 116//229 121//229 120//229
f 116//229 122//229 121//229
f 116//230 123//230 122//230
f 116//231 124//231 123//231
f 116//232 125//232 124//232
f 116//233 126//233 125//233
f 116//234 127//234 126//234
f 116//235 128//235 127//235
f 116//236 129//236 128//236
f 116//237 130//237 129//237
f 116//230 131//230 130//230
f 116//230 132//230 131//230
f 116//237 133//237 132//237
f 116//238 134//238 133//238
f 116//229 135//229 134//229
