# Blender v2.79 (sub 0) OBJ File: ''
# www.blender.org
mtllib m1102.mtl
o m1102
v 0.012666 0.001120 0.184633
v 0.012666 0.001120 -0.550034
v 0.006333 0.007453 0.184633
v 0.006333 0.011886 -0.550034
v -0.006334 0.011886 -0.550034
v -0.006334 0.007453 0.184633
v -0.012667 0.001120 -0.550034
v -0.012667 0.001120 0.184633
v -0.006334 -0.009014 0.184633
v -0.006334 -0.009014 -0.550034
v 0.006333 -0.009014 -0.550034
v 0.006333 -0.009014 0.184633
v 0.000000 -0.011547 0.241633
v -0.050666 -0.011547 0.184633
v 0.050666 -0.011547 0.184633
v 0.000000 0.001120 0.399966
v -0.076000 0.001120 0.184633
v 0.076000 0.001120 0.184633
v -0.082334 0.007453 0.330933
v -0.088034 0.020120 0.184633
v 0.082333 0.007453 0.330933
v 0.088033 0.020120 0.184633
v -0.050666 0.007453 0.380966
v 0.050666 0.007453 0.380966
vn 0.7071 0.7071 0.0000
vn 0.0000 1.0000 0.0060
vn -0.8619 0.5070 0.0031
vn -0.8480 -0.5300 0.0000
vn 0.0000 -1.0000 0.0000
vn 0.8480 -0.5300 0.0000
vn 0.0000 0.0000 -1.0000
vn 0.8619 0.5070 0.0031
vn -0.7071 0.7071 0.0000
vn 0.8459 -0.5287 0.0705
vn 0.6746 0.6746 0.2998
vn -0.6746 0.6746 0.2998
vn 0.3044 -0.9133 -0.2706
vn -0.3044 -0.9133 -0.2706
vn -0.0894 -0.9928 0.0794
vn 0.0894 -0.9928 0.0794
vn 0.4418 -0.8835 0.1559
vn -0.8447 -0.5350 -0.0134
vn 0.8447 -0.5350 -0.0134
vn 0.1609 -0.9817 0.1018
vn 0.0000 -0.9990 -0.0444
vn -0.8459 -0.5287 0.0705
vn 0.0000 0.9487 0.3162
vn -0.4418 -0.8835 0.1559
vn -0.1085 -0.9934 0.0383
vn 0.1085 -0.9934 0.0383
vn -0.1609 -0.9817 0.1018
usemtl None
s off
f 1//1 2//1 3//1
f 3//2 4//2 5//2
f 6//3 5//3 7//3
f 8//4 7//4 9//4
f 9//5 10//5 11//5
f 12//6 11//6 1//6
f 10//7 7//7 4//7
f 2//8 4//8 3//8
f 5//2 6//2 3//2
f 7//9 8//9 6//9
f 7//4 10//4 9//4
f 11//5 12//5 9//5
f 11//6 2//6 1//6
f 2//7 11//7 10//7
f 7//7 5//7 4//7
f 4//7 2//7 10//7
f 1//10 13//10 12//10
f 13//11 1//11 3//11
f 8//12 13//12 6//12
f 13//13 14//13 8//13
f 13//14 1//14 15//14
f 16//15 14//15 13//15
f 16//16 13//16 15//16
f 16//17 15//17 18//17
f 19//18 20//18 17//18
f 21//19 18//19 22//19
f 21//20 24//20 16//20
f 13//21 9//21 12//21
f 13//22 8//22 9//22
f 13//23 3//23 6//23
f 14//24 16//24 17//24
f 16//25 19//25 17//25
f 16//26 18//26 21//26
f 23//27 19//27 16//27
