# Blender v2.79 (sub 0) OBJ File: ''
# www.blender.org
mtllib m1176.mtl
o m1176
v 0.023356 -0.231798 -0.049272
v 0.026318 -0.267189 -0.049494
v 0.020399 -0.300717 -0.043590
v 0.026255 -0.299114 -0.012992
v 0.032511 -0.265180 -0.011151
v 0.029380 -0.229992 -0.014805
v -0.030866 -0.229992 -0.014805
v -0.033998 -0.265180 -0.011151
v -0.027742 -0.299114 -0.012992
v -0.021885 -0.300717 -0.043590
v -0.027804 -0.267189 -0.049494
v -0.024842 -0.231798 -0.049272
v -0.000746 -0.130349 -0.050657
v -0.000744 -0.232540 -0.063387
v -0.000743 -0.268010 -0.065146
v -0.000743 -0.301376 -0.056160
v -0.000746 -0.357968 -0.020638
v -0.052641 -0.183502 0.026946
v -0.311531 0.010262 0.026946
v -0.311531 0.001035 0.026946
v -0.390719 0.062548 0.020019
v -0.390719 0.133289 0.020019
v -0.304336 0.133287 0.027573
v -0.051364 0.130210 0.026946
v 0.049817 0.130210 0.026946
v 0.302789 0.133287 0.027573
v 0.389172 0.133289 0.020019
v 0.389172 0.062548 0.020019
v 0.309984 0.001035 0.026946
v 0.309984 0.010262 0.026946
v 0.051094 -0.183502 0.026946
v -0.116673 0.359317 -0.001301
v -0.116673 0.402376 -0.001301
v -0.000808 0.399301 -0.043321
v 0.114639 0.402376 -0.001301
v 0.114639 0.359317 -0.001301
v 0.002589 0.277815 -0.042084
v -0.000792 0.410066 -0.039780
v -0.000792 0.436673 -0.153433
v -0.000792 0.367472 -0.153433
v -0.000792 0.339792 -0.146206
v -0.000792 0.182471 -0.043394
v -0.027070 0.243196 -0.012537
v -0.027070 0.243196 0.037490
v 0.023187 0.243196 0.037490
v 0.023187 0.243196 -0.012537
v -0.000614 0.417076 -0.033644
v -0.006797 0.398812 -0.025838
v 0.000467 0.398812 -0.022829
v 0.007731 0.398812 -0.025838
v 0.010742 0.398812 -0.033102
v 0.007731 0.398812 -0.040367
v 0.000467 0.398812 -0.043375
v -0.006797 0.398812 -0.040367
v -0.009807 0.398812 -0.033102
v 0.000155 0.306655 -0.052011
v -0.001145 0.306604 -0.002221
v -0.010548 0.306604 -0.013540
v -0.016659 0.306604 -0.039309
v -0.016796 0.306604 -0.022682
v -0.012044 0.306604 -0.045768
v -0.017119 0.306604 -0.031646
v 0.016246 0.306604 -0.031646
v 0.011971 0.306604 -0.045768
v 0.015923 0.306604 -0.022682
v 0.014988 0.306604 -0.039311
v 0.007276 0.306604 -0.013540
v -0.001326 0.306604 -0.002221
v 0.024989 0.211469 -0.012537
v 0.007300 0.211469 -0.005210
v 0.024989 0.211469 0.037490
v 0.042678 0.211469 0.030163
v -0.042956 0.211469 0.030163
v -0.025268 0.211469 0.037490
v -0.007579 0.211469 -0.005210
v -0.025268 0.211469 -0.012537
v 0.052929 0.214878 0.006102
v 0.050216 0.214878 0.020042
v 0.050495 0.214878 -0.004222
v 0.031587 0.214878 -0.034252
v 0.048118 0.214878 -0.014133
v 0.016577 0.214878 -0.048168
v 0.044200 0.214878 -0.023803
v 0.023284 0.214878 0.033958
v 0.032382 0.214878 0.031128
v 0.042281 0.214878 0.027903
v -0.041874 0.214878 0.027903
v -0.031974 0.214878 0.031128
v -0.022876 0.214878 0.033958
v -0.043792 0.214878 -0.023803
v -0.016169 0.214878 -0.048168
v -0.047710 0.214878 -0.014133
v -0.031179 0.214878 -0.034252
v -0.050087 0.214878 -0.004222
v -0.049808 0.214878 0.020042
v -0.052522 0.214878 0.006102
v 0.002270 0.214841 0.036673
v 0.000466 0.214951 -0.054124
v -0.017562 -0.463479 0.010467
v -0.013877 -0.463479 -0.000868
v -0.004232 -0.463479 -0.007876
v 0.007684 -0.463479 -0.007876
v 0.017329 -0.463479 -0.000868
v 0.021013 -0.463479 0.010467
v 0.017329 -0.463479 0.021804
v 0.007684 -0.463479 0.028813
v -0.004232 -0.463479 0.028813
v -0.013877 -0.463479 0.021804
v -0.068022 -0.227407 0.005519
v -0.064461 -0.227407 0.030847
v -0.066322 -0.227407 -0.019806
v -0.060742 -0.227407 -0.029937
v -0.055163 -0.227407 -0.034280
v -0.059502 -0.227407 0.035187
v 0.062430 -0.227407 0.035187
v 0.067389 -0.227407 0.030847
v 0.069249 -0.227407 -0.019806
v 0.058091 -0.227407 -0.034280
v 0.069868 -0.227407 0.005519
v 0.063669 -0.227407 -0.029937
v 0.064220 -0.122000 -0.030579
v 0.070410 -0.122000 0.004818
v 0.058650 -0.122000 -0.034916
v 0.069791 -0.122000 -0.020466
v 0.067934 -0.122000 0.030105
v 0.062983 -0.122000 0.034438
v -0.039824 -0.122041 -0.020824
v -0.059295 -0.122000 0.034438
v -0.032681 -0.122000 0.035884
v -0.023396 -0.122000 0.038773
v -0.054961 -0.122000 -0.034916
v -0.028348 -0.122000 -0.045029
v -0.060532 -0.122000 -0.030579
v -0.034228 -0.122000 -0.036360
v 0.037916 -0.122000 -0.036360
v 0.032038 -0.122000 -0.045029
v 0.027085 -0.122000 0.038773
v 0.036370 -0.122000 0.035884
v -0.066103 -0.122000 -0.020466
v -0.064244 -0.122000 0.030105
v -0.067800 -0.122000 0.004818
v 0.021419 -0.122041 0.039860
v 0.002262 -0.122041 0.041544
v 0.000422 -0.121926 -0.051108
v 0.000470 -0.227341 -0.039624
v -0.016739 -0.227444 0.040645
v 0.002094 -0.227444 0.042131
v 0.018998 -0.227444 0.040645
v 0.032191 -0.227407 0.037136
v 0.023998 -0.227407 0.039686
v 0.028368 -0.227407 -0.034261
v 0.028651 -0.227407 -0.031720
v -0.026291 -0.227407 -0.032998
v -0.024916 -0.227407 -0.034261
v -0.020547 -0.227407 0.039686
v -0.028739 -0.227407 0.037136
v 0.001057 -0.513327 0.013186
v -0.023512 -0.422141 0.026250
v -0.007913 -0.422141 0.037584
v 0.011364 -0.422141 0.037584
v 0.026963 -0.422141 0.026250
v 0.032922 -0.422141 0.007912
v 0.026963 -0.422141 -0.010423
v 0.011364 -0.422141 -0.021758
v -0.007913 -0.422141 -0.021758
v -0.023512 -0.422141 -0.010423
v -0.029471 -0.422141 0.007912
v -0.034270 -0.347310 0.006111
v -0.027395 -0.347310 -0.015047
v -0.009396 -0.347310 -0.028124
v 0.012847 -0.347310 -0.028124
v 0.030846 -0.347310 -0.015047
v 0.037722 -0.347310 0.006111
v 0.030846 -0.347310 0.027269
v 0.012847 -0.347310 0.040346
v -0.009396 -0.347310 0.040346
v -0.027395 -0.347310 0.027269
v -0.035042 -0.227444 -0.012903
v -0.033950 -0.227444 0.022797
v -0.030673 -0.227444 0.032997
v 0.032933 -0.227444 0.032997
v 0.036209 -0.227444 0.022797
v 0.037301 -0.227444 -0.012903
v 0.022625 -0.292318 -0.028201
v 0.037370 -0.292318 -0.012903
v 0.036278 -0.292318 0.022797
v 0.033002 -0.292318 0.032997
v 0.019067 -0.292318 0.040645
v 0.002163 -0.292318 0.042131
v -0.016669 -0.292318 0.040645
v -0.030604 -0.292318 0.032997
v -0.033881 -0.292318 0.022797
v -0.034973 -0.292318 -0.012903
v -0.020228 -0.292318 -0.028201
v 0.001617 -0.292318 -0.033301
v -0.052085 0.243196 0.012476
v -0.044759 0.243196 -0.005210
v -0.009381 0.243196 -0.005210
v -0.002056 0.243196 0.012476
v -0.009381 0.243196 0.030163
v -0.044759 0.243196 0.030163
v 0.040875 0.243196 0.030163
v 0.005498 0.243196 0.030163
v 0.005498 0.243196 -0.005210
v 0.040875 0.243196 -0.005210
v 0.048202 0.243196 0.012476
v 0.050004 0.211469 0.012476
v 0.042678 0.211469 -0.005210
v 0.007300 0.211469 0.030163
v -0.007579 0.211469 0.030163
v -0.000254 0.211469 0.012476
v -0.042956 0.211469 -0.005210
v -0.050283 0.211469 0.012476
vn 0.9809 0.0832 -0.1758
vn 0.4990 0.0472 -0.8653
vn 0.9695 -0.1969 -0.1463
vn 0.5021 -0.2352 -0.8322
vn 0.4928 -0.2263 -0.8402
vn 0.5039 0.0428 -0.8627
vn 0.5000 0.1071 -0.8594
vn 0.4614 -0.4717 -0.7514
vn 0.9696 -0.1692 -0.1767
vn 0.9841 0.0707 -0.1627
vn 0.9056 -0.3957 -0.1526
vn 0.9577 0.2251 -0.1792
vn -0.4615 -0.4716 -0.7514
vn -0.9057 -0.3956 -0.1526
vn -0.5001 0.1070 -0.8594
vn -0.9577 0.2250 -0.1792
vn -0.9809 0.0832 -0.1758
vn -0.9841 0.0707 -0.1627
vn -0.9694 -0.1969 -0.1463
vn -0.9696 -0.1692 -0.1767
vn -0.4928 -0.2263 -0.8402
vn -0.5021 -0.2352 -0.8322
vn -0.5040 0.0428 -0.8627
vn -0.4990 0.0472 -0.8653
vn -0.0037 -0.0049 1.0000
vn -0.0871 0.0000 0.9962
vn 0.0025 -0.0000 1.0000
vn 0.0037 -0.0049 1.0000
vn 0.0871 0.0000 0.9962
vn -0.0025 -0.0000 1.0000
vn -0.3236 0.0000 -0.9462
vn -0.3413 -0.0191 -0.9398
vn 0.3420 0.0000 -0.9397
vn -1.0000 0.0000 0.0000
vn -0.5826 0.7107 -0.3942
vn -0.0011 1.0000 0.0002
vn 0.0011 1.0000 0.0002
vn 0.6947 0.7192 -0.0129
vn 0.1469 0.9892 -0.0017
vn 0.3826 0.0217 -0.9237
vn -0.3826 -0.0217 0.9237
vn 0.3826 0.0217 0.9237
vn -0.3826 -0.0217 -0.9237
vn 0.8050 0.4906 -0.3336
vn 0.7971 0.5054 0.3304
vn 0.3326 0.4950 0.8027
vn -0.3390 0.4644 0.8182
vn -0.8340 0.4301 0.3456
vn -0.8413 0.4131 -0.3486
vn -0.3463 0.4251 -0.8363
vn 0.3401 0.4578 -0.8214
vn 0.3812 0.0850 -0.9206
vn 0.4662 0.0731 -0.8817
vn 0.9040 0.0663 -0.4224
vn 0.9840 0.0756 -0.1615
vn 0.9227 0.0490 -0.3824
vn 0.9975 0.0601 0.0359
vn 0.9196 0.0948 0.3812
vn 0.7237 0.0877 0.6845
vn 0.3800 0.1204 0.9171
vn 0.7966 0.1185 0.5927
vn -0.7600 0.1544 0.6314
vn -0.3791 0.1375 0.9151
vn -0.8208 0.1082 0.5609
vn -0.9180 0.1126 0.3804
vn -0.9962 0.0796 0.0359
vn -0.9952 0.0780 -0.0597
vn -0.9198 0.0940 -0.3811
vn -0.8110 0.0801 -0.5795
vn -0.3815 0.0757 -0.9213
vn -0.4542 0.0846 -0.8869
vn -0.3371 0.0205 -0.9412
vn -0.4553 0.0437 -0.8893
vn -0.6783 0.0670 -0.7317
vn -0.8126 0.0517 -0.5806
vn -0.6369 0.0584 -0.7688
vn -0.9599 0.2742 -0.0576
vn -0.8931 0.2673 -0.3618
vn -0.9589 0.2818 0.0345
vn -0.9043 0.3678 -0.2169
vn -0.7838 0.3141 0.5357
vn -0.8620 0.4644 -0.2033
vn -0.7150 0.3686 0.5940
vn 0.8511 0.4852 -0.2007
vn 0.7297 0.4001 0.5545
vn 0.8919 0.3985 -0.2139
vn 0.6921 0.3039 0.6547
vn 0.8901 0.2788 -0.3606
vn 0.9552 0.2940 0.0344
vn 0.6363 0.0728 -0.7680
vn 0.9485 0.2758 -0.1557
vn 0.6776 0.0823 -0.7308
vn 0.9045 0.0565 -0.4226
vn 0.3467 0.0228 -0.9377
vn 0.4668 0.0465 -0.8831
vn 0.1281 0.0167 0.9916
vn 0.1882 0.0162 0.9820
vn 0.2970 0.0170 0.9547
vn 0.2971 0.0170 0.9547
vn 0.3097 0.0171 0.9507
vn 0.0542 0.0227 0.9983
vn 0.7027 0.0569 0.7092
vn 0.6576 0.0570 0.7512
vn 0.9937 0.0552 0.0973
vn 0.9803 0.0501 0.1908
vn 0.9720 0.0513 -0.2292
vn 0.9980 0.0583 -0.0244
vn 0.9703 0.0668 -0.2327
vn 0.8740 0.0653 -0.4815
vn 0.6129 0.0677 -0.7872
vn 0.9256 0.0521 -0.3750
vn 0.0694 0.0359 -0.9969
vn 0.6379 0.0168 -0.7700
vn 0.8275 0.0191 -0.5611
vn 0.6797 0.0244 -0.7331
vn 0.1888 -0.0005 -0.9820
vn 0.3467 -0.0084 -0.9379
vn -0.1073 0.0144 0.9941
vn -0.2970 0.0141 0.9548
vn -0.3095 0.0344 0.9503
vn -0.7030 0.0501 0.7095
vn -0.9806 0.0437 0.1909
vn -0.9717 0.0572 -0.2292
vn -0.9713 0.0483 -0.2330
vn -0.9260 0.0431 -0.3752
vn -0.6379 0.0106 -0.7700
vn -0.6798 0.0177 -0.7332
vn -0.3370 -0.0084 -0.9415
vn -0.0542 0.0142 0.9984
vn -0.2971 0.0141 0.9547
vn -0.6131 0.0618 -0.7876
vn -0.8275 0.0110 -0.5613
vn -0.0694 0.0352 -0.9970
vn -0.9967 0.0455 -0.0669
vn -0.9892 0.0465 0.1391
vn -0.6579 0.0506 0.7514
vn -0.8741 0.0648 -0.4815
vn 0.0876 0.0144 0.9961
vn -0.2067 -0.0016 -0.9784
vn 0.1884 0.0030 0.9821
vn -0.1074 0.0057 0.9942
vn -0.0632 0.0095 0.9980
vn -0.0542 0.0072 0.9985
vn -0.2972 0.0002 0.9548
vn -0.2971 0.0002 0.9548
vn -0.6143 -0.0036 -0.7890
vn -0.6143 -0.0036 -0.7891
vn -0.6746 -0.0742 -0.7344
vn -0.8247 -0.0840 -0.5594
vn 0.0444 -0.0061 -0.9990
vn -0.0694 -0.0370 -0.9969
vn 0.6586 0.0019 0.7525
vn -0.0866 -0.0056 -0.9962
vn 0.0694 -0.0500 -0.9963
vn 0.9897 -0.0918 -0.1102
vn 0.8246 -0.0858 -0.5591
vn 0.8759 -0.0075 -0.4825
vn 0.6144 -0.0080 -0.7890
vn 0.6143 -0.0080 -0.7890
vn 0.9952 -0.0045 0.0974
vn 0.9997 -0.0053 -0.0244
vn 0.9997 -0.0053 -0.0245
vn 0.2972 -0.0004 0.9548
vn 0.2971 -0.0004 0.9548
vn 0.0643 0.0093 0.9979
vn 0.0542 0.0068 0.9985
vn -0.9978 0.0017 -0.0670
vn -0.9903 0.0030 0.1392
vn -0.9903 0.0030 0.1393
vn -0.6586 0.0067 0.7525
vn -0.6588 0.0066 0.7523
vn -0.8759 -0.0012 -0.4825
vn 0.0876 0.0054 0.9961
vn -0.9137 -0.0815 -0.3981
vn -0.9386 -0.0680 -0.3382
vn 0.1875 -0.1063 -0.9765
vn -0.2053 -0.1061 -0.9729
vn 0.2345 -0.1109 -0.9658
vn 0.1878 -0.0918 -0.9779
vn -0.2261 -0.1067 -0.9682
vn -0.2054 -0.0984 -0.9737
vn 0.0000 -0.3892 -0.9211
vn 0.5419 -0.3872 -0.7459
vn 0.8837 -0.3695 -0.2872
vn 0.8937 -0.3419 0.2904
vn 0.5579 -0.3149 0.7678
vn 0.0000 -0.2991 0.9542
vn -0.5605 -0.3013 0.7714
vn -0.9009 -0.3205 0.2928
vn -0.8913 -0.3487 -0.2897
vn -0.5449 -0.3747 -0.7501
vn 0.9126 -0.2813 -0.2966
vn 0.9126 -0.2812 -0.2966
vn 0.9216 -0.2470 0.2995
vn 0.5736 -0.2186 0.7894
vn 0.0000 -0.2076 0.9782
vn -0.5736 -0.2186 0.7894
vn -0.9216 -0.2470 0.2995
vn -0.9126 -0.2813 -0.2966
vn -0.9126 -0.2813 -0.2967
vn -0.5592 -0.3082 -0.7696
vn 0.0000 -0.3183 -0.9480
vn 0.5592 -0.3082 -0.7696
vn 0.5859 -0.0802 -0.8064
vn 0.0000 -0.0848 -0.9964
vn -0.5859 -0.0802 -0.8064
vn -0.9488 -0.0683 -0.3083
vn -0.9488 -0.0683 -0.3084
vn -0.9497 -0.0535 0.3086
vn -0.5873 -0.0415 0.8083
vn 0.0000 -0.0369 0.9993
vn 0.5873 -0.0415 0.8083
vn 0.9497 -0.0535 0.3086
vn 0.9488 -0.0683 -0.3084
vn 0.9462 -0.1003 -0.3075
vn 0.9488 -0.0686 0.3083
vn 0.5863 -0.0707 0.8070
vn 0.0000 -0.0324 0.9995
vn -0.5858 -0.0819 0.8063
vn -0.9475 -0.0867 0.3079
vn -0.9444 -0.1182 -0.3069
vn -0.5838 -0.1161 -0.8035
vn 0.0000 -0.0937 -0.9956
vn 0.5845 -0.1051 -0.8045
vn 0.2357 -0.0433 -0.9709
vn 0.7188 -0.0583 -0.6928
vn 0.9994 0.0170 0.0306
vn 0.9498 -0.0690 0.3051
vn 0.4783 -0.1095 0.8714
vn 0.0875 -0.0153 0.9960
vn -0.0786 -0.0158 0.9968
vn -0.4778 -0.1185 0.8705
vn -0.9995 -0.0022 0.0306
vn -0.7181 -0.0720 -0.6922
vn -0.2271 -0.0461 -0.9728
vn -0.9485 -0.0871 0.3047
vn 0.4812 0.0005 0.8766
vn 0.9034 -0.1064 -0.4155
vn 0.9891 -0.0978 -0.1102
vn -0.6718 -0.1168 -0.7314
vn -0.9107 -0.1144 -0.3968
vn -0.7200 -0.0008 -0.6940
vn -0.9521 -0.0010 0.3059
vn -0.0787 -0.0001 0.9969
vn -0.0786 -0.0001 0.9969
vn 0.0876 0.0001 0.9962
vn 0.9521 0.0010 0.3058
vn 0.7200 0.0008 -0.6940
vn 0.9995 0.0011 0.0306
vn -0.4812 -0.0005 0.8766
vn -0.9995 -0.0011 0.0306
vn -0.9226 -0.0524 -0.3822
vn 0.9226 0.0524 -0.3821
vn 0.9226 0.0524 0.3821
vn -0.9226 -0.0524 0.3822
vn -0.9226 -0.0524 0.3821
vn 0.9226 0.0524 0.3822
vn -0.9184 -0.0522 0.3922
vn -0.9184 -0.0522 -0.3923
vn 0.9226 0.0524 -0.3822
usemtl None
s off
f 6//1 2//1 1//1
f 15//2 1//2 2//2
f 3//3 2//3 5//3
f 16//4 2//4 3//4
f 15//5 2//5 16//5
f 14//6 1//6 15//6
f 14//7 13//7 1//7
f 16//8 3//8 17//8
f 3//9 5//9 4//9
f 2//10 6//10 5//10
f 3//11 4//11 17//11
f 13//12 6//12 1//12
f 10//13 16//13 17//13
f 10//14 17//14 9//14
f 14//15 12//15 13//15
f 12//16 7//16 13//16
f 11//17 7//17 12//17
f 11//18 8//18 7//18
f 10//19 8//19 11//19
f 10//20 9//20 8//20
f 15//21 16//21 11//21
f 10//22 11//22 16//22
f 15//23 12//23 14//23
f 11//24 12//24 15//24
f 23//25 19//25 18//25
f 19//26 21//26 20//26
f 21//26 23//26 22//26
f 23//27 18//27 24//27
f 21//26 19//26 23//26
f 26//28 31//28 30//28
f 28//29 26//29 30//29
f 30//29 29//29 28//29
f 28//29 27//29 26//29
f 26//30 25//30 31//30
f 33//31 37//31 32//31
f 33//32 34//32 37//32
f 36//33 37//33 35//33
f 35//33 37//33 34//33
f 42//34 38//34 41//34
f 40//34 41//34 38//34
f 38//34 39//34 40//34
f 44//35 98//35 95//35
f 96//36 95//36 98//36
f 77//37 98//37 78//37
f 97//38 98//38 44//38
f 97//39 71//39 98//39
f 75//40 76//40 43//40
f 74//41 44//41 73//41
f 72//42 45//42 71//42
f 69//43 70//43 46//43
f 52//44 47//44 51//44
f 50//45 51//45 47//45
f 49//46 50//46 47//46
f 47//47 48//47 49//47
f 55//48 48//48 47//48
f 47//49 54//49 55//49
f 53//50 54//50 47//50
f 47//51 52//51 53//51
f 53//52 52//52 56//52
f 64//53 56//53 52//53
f 66//54 64//54 52//54
f 63//55 66//55 52//55
f 51//56 63//56 52//56
f 65//57 63//57 51//57
f 50//58 65//58 51//58
f 50//59 67//59 65//59
f 50//60 49//60 67//60
f 49//61 57//61 67//61
f 49//62 58//62 57//62
f 49//63 48//63 58//63
f 48//64 60//64 58//64
f 48//65 55//65 60//65
f 62//66 60//66 55//66
f 59//67 62//67 55//67
f 54//68 59//68 55//68
f 54//69 61//69 59//69
f 53//70 61//70 54//70
f 56//71 61//71 53//71
f 91//72 56//72 98//72
f 61//73 56//73 91//73
f 93//74 59//74 91//74
f 61//75 91//75 59//75
f 90//76 59//76 93//76
f 90//77 62//77 59//77
f 92//78 60//78 90//78
f 90//79 60//79 62//79
f 92//80 94//80 58//80
f 60//81 92//81 58//81
f 96//82 57//82 94//82
f 94//83 57//83 58//83
f 79//84 68//84 77//84
f 79//85 67//85 68//85
f 79//86 81//86 67//86
f 65//87 67//87 81//87
f 81//88 83//88 65//88
f 83//89 63//89 65//89
f 80//90 66//90 83//90
f 63//91 83//91 66//91
f 80//92 82//92 66//92
f 82//93 64//93 66//93
f 98//94 56//94 82//94
f 82//95 56//95 64//95
f 84//96 97//96 142//96
f 137//97 84//97 142//97
f 85//98 84//98 137//98
f 85//99 137//99 138//99
f 86//100 85//100 138//100
f 86//101 138//101 126//101
f 78//102 86//102 126//102
f 78//103 126//103 125//103
f 78//104 125//104 122//104
f 78//105 122//105 77//105
f 79//106 77//106 122//106
f 79//107 122//107 124//107
f 79//108 124//108 81//108
f 121//109 81//109 124//109
f 123//110 81//110 121//110
f 83//111 81//111 123//111
f 135//112 83//112 123//112
f 80//113 83//113 135//113
f 80//114 135//114 136//114
f 82//115 80//115 136//115
f 82//116 136//116 144//116
f 82//117 144//117 98//117
f 89//118 143//118 97//118
f 129//119 89//119 88//119
f 87//120 128//120 88//120
f 128//121 87//121 95//121
f 95//122 96//122 141//122
f 139//123 96//123 94//123
f 133//124 94//124 92//124
f 131//125 92//125 90//125
f 134//126 90//126 93//126
f 91//127 132//127 93//127
f 144//128 91//128 98//128
f 129//129 88//129 128//129
f 130//130 89//130 129//130
f 133//131 92//131 131//131
f 134//132 93//132 132//132
f 134//133 131//133 90//133
f 141//134 96//134 139//134
f 141//135 140//135 95//135
f 140//136 128//136 95//136
f 133//137 139//137 94//137
f 143//138 142//138 97//138
f 144//139 132//139 91//139
f 130//118 143//118 89//118
f 142//140 148//140 150//140
f 137//140 142//140 150//140
f 147//141 143//141 155//141
f 143//141 130//141 155//141
f 156//142 129//142 114//142
f 114//143 129//143 128//143
f 156//144 155//144 130//144
f 156//145 130//145 129//145
f 113//146 112//146 133//146
f 113//147 133//147 131//147
f 153//148 134//148 154//148
f 132//149 154//149 134//149
f 113//150 131//150 153//150
f 153//151 131//151 134//151
f 115//152 116//152 125//152
f 115//152 125//152 126//152
f 152//153 123//153 118//153
f 152//154 135//154 123//154
f 152//155 151//155 135//155
f 151//156 136//156 135//156
f 120//157 124//157 117//157
f 120//157 121//157 124//157
f 120//158 118//158 121//158
f 123//159 121//159 118//159
f 116//160 119//160 125//160
f 122//160 125//160 119//160
f 119//161 117//161 122//161
f 117//162 124//162 122//162
f 150//163 149//163 137//163
f 149//164 138//164 137//164
f 115//165 138//165 149//165
f 126//166 138//166 115//166
f 111//167 109//167 141//167
f 139//167 111//167 141//167
f 110//168 140//168 109//168
f 141//169 109//169 140//169
f 110//170 114//170 140//170
f 114//171 128//171 140//171
f 111//172 139//172 112//172
f 133//172 112//172 139//172
f 148//173 143//173 147//173
f 142//173 143//173 148//173
f 153//174 178//174 134//174
f 178//175 127//175 134//175
f 151//176 145//176 136//176
f 145//176 144//176 136//176
f 154//177 132//177 145//177
f 145//177 132//177 144//177
f 151//178 184//178 195//178
f 145//179 151//179 195//179
f 154//180 195//180 194//180
f 154//181 145//181 195//181
f 101//182 102//182 157//182
f 157//183 102//183 103//183
f 104//184 157//184 103//184
f 105//185 157//185 104//185
f 106//186 157//186 105//186
f 157//187 106//187 107//187
f 108//188 157//188 107//188
f 99//189 157//189 108//189
f 157//190 99//190 100//190
f 157//191 100//191 101//191
f 162//192 104//192 163//192
f 163//193 104//193 103//193
f 162//194 161//194 105//194
f 104//194 162//194 105//194
f 160//195 106//195 161//195
f 161//195 106//195 105//195
f 160//196 159//196 107//196
f 106//196 160//196 107//196
f 159//197 158//197 108//197
f 107//197 159//197 108//197
f 158//198 167//198 108//198
f 99//198 108//198 167//198
f 166//199 100//199 167//199
f 99//200 167//200 100//200
f 166//201 165//201 101//201
f 166//201 101//201 100//201
f 164//202 102//202 165//202
f 101//202 165//202 102//202
f 164//203 163//203 103//203
f 164//203 103//203 102//203
f 171//204 172//204 163//204
f 164//204 171//204 163//204
f 171//205 164//205 170//205
f 170//205 164//205 165//205
f 170//206 165//206 169//206
f 169//206 165//206 166//206
f 169//207 166//207 168//207
f 167//208 168//208 166//208
f 177//209 168//209 158//209
f 167//209 158//209 168//209
f 177//210 158//210 176//210
f 159//210 176//210 158//210
f 176//211 159//211 175//211
f 160//211 175//211 159//211
f 175//212 160//212 174//212
f 174//212 160//212 161//212
f 174//213 161//213 173//213
f 173//213 161//213 162//213
f 173//214 162//214 172//214
f 172//214 162//214 163//214
f 185//215 173//215 172//215
f 186//216 174//216 173//216
f 188//217 175//217 174//217
f 189//218 176//218 175//218
f 176//219 190//219 177//219
f 168//220 177//220 192//220
f 193//221 169//221 168//221
f 194//222 170//222 169//222
f 195//223 171//223 170//223
f 171//224 184//224 172//224
f 184//225 171//225 195//225
f 185//226 172//226 184//226
f 186//227 173//227 185//227
f 187//228 174//228 186//228
f 187//229 188//229 174//229
f 189//230 175//230 188//230
f 190//231 176//231 189//231
f 190//232 191//232 177//232
f 193//233 168//233 192//233
f 193//234 194//234 169//234
f 195//235 170//235 194//235
f 191//236 192//236 177//236
f 187//237 148//237 188//237
f 183//238 184//238 152//238
f 151//239 152//239 184//239
f 154//240 194//240 153//240
f 178//241 153//241 194//241
f 193//242 178//242 194//242
f 192//243 191//243 180//243
f 179//243 192//243 180//243
f 190//244 189//244 147//244
f 146//245 190//245 147//245
f 189//246 188//246 147//246
f 188//246 148//246 147//246
f 186//247 181//247 187//247
f 186//247 182//247 181//247
f 185//248 184//248 183//248
f 185//249 182//249 186//249
f 183//249 182//249 185//249
f 181//237 148//237 187//237
f 190//250 180//250 191//250
f 190//250 146//250 180//250
f 192//251 178//251 193//251
f 179//251 178//251 192//251
f 213//252 196//252 212//252
f 212//252 196//252 197//252
f 76//43 212//43 197//43
f 76//43 197//43 43//43
f 198//40 75//40 43//40
f 75//253 198//253 211//253
f 199//253 211//253 198//253
f 211//254 199//254 210//254
f 200//254 210//254 199//254
f 74//42 210//42 200//42
f 74//42 200//42 44//42
f 201//41 73//41 44//41
f 73//255 196//255 213//255
f 73//256 201//256 196//256
f 207//254 206//254 72//254
f 202//257 72//257 206//257
f 202//42 45//42 72//42
f 71//41 203//41 209//41
f 71//41 45//41 203//41
f 209//258 199//258 211//258
f 203//258 199//258 209//258
f 211//259 204//259 70//259
f 199//259 204//259 211//259
f 70//43 204//43 46//43
f 208//40 69//40 205//40
f 69//40 46//40 205//40
f 207//260 208//260 206//260
f 208//260 205//260 206//260
