# Blender v2.79 (sub 0) OBJ File: ''
# www.blender.org
mtllib m1185.mtl
o m1185
v -0.024242 -0.479836 0.002823
v -0.032759 -0.348802 -0.008970
v -0.009828 -0.348802 -0.022073
v 0.000000 -0.348802 -0.027315
v 0.000000 -0.479836 -0.010935
v -0.024897 0.309646 -0.003073
v -0.026862 0.283440 -0.005694
v -0.028828 0.283440 0.011996
v -0.026862 0.309646 0.011996
v -0.036035 -0.348802 0.018547
v -0.039311 -0.237423 0.018547
v -0.034725 -0.237423 -0.017487
v -0.039311 -0.194836 0.018547
v -0.034725 -0.120147 -0.019453
v 0.026862 0.309646 0.011996
v 0.028827 0.283440 0.011996
v 0.026862 0.283440 -0.005694
v 0.024896 0.309646 -0.003073
v -0.031449 0.111129 -0.016177
v -0.029483 0.183853 -0.011590
v 0.000000 0.189750 -0.027970
v 0.000000 0.116371 -0.033866
v 0.000000 0.309646 -0.017487
v 0.000000 0.283440 -0.020763
v 0.025551 0.332577 0.011996
v 0.117931 0.394819 0.011996
v 0.117931 0.332577 0.011996
v 0.076000 0.321440 0.011996
v 0.036034 0.106543 0.018547
v 0.035379 0.129474 0.018547
v 0.222758 0.129474 0.018547
v 0.222758 0.099991 0.018547
v 0.158551 -0.002871 0.018547
v 0.100896 -0.022526 0.018547
v 0.000000 0.240853 -0.024039
v 0.028172 0.225129 -0.008970
v 0.032758 0.168784 0.011996
v 0.035379 0.107198 0.011996
v 0.031448 0.111129 -0.016177
v 0.029482 0.183853 -0.011590
v 0.008517 0.016129 -0.041728
v 0.000000 0.116371 -0.056797
v 0.007862 0.023336 -0.033211
v 0.006551 0.009577 -0.054832
v 0.034724 -0.120147 -0.019453
v 0.034724 -0.237423 -0.017487
v 0.020310 -0.237423 -0.025349
v 0.015069 -0.093940 -0.031246
v 0.031448 0.212681 0.011996
v 0.039310 -0.194836 0.018547
v 0.039310 -0.044147 0.018547
v 0.096310 -0.103112 0.018547
v 0.000000 0.178612 -0.087590
v 0.000000 0.006302 -0.058763
v 0.017034 -0.237423 -0.045659
v 0.010482 -0.074940 -0.052211
v 0.000000 -0.237423 -0.056797
v 0.000000 -0.071664 -0.059418
v 0.032758 0.048233 -0.018142
v -0.007862 0.023336 -0.033211
v -0.032759 0.048233 -0.018142
v 0.039310 -0.237423 0.018547
v -0.017035 -0.237423 -0.045659
v -0.010483 -0.074940 -0.052211
v -0.020311 -0.237423 -0.025349
v -0.015069 -0.093940 -0.031246
v -0.006552 0.009577 -0.054832
v 0.032758 -0.348802 -0.008970
v 0.036034 -0.348802 0.018547
v 0.009827 -0.348802 -0.022073
v 0.024241 -0.479836 0.002823
v -0.025552 0.332577 0.011996
v -0.117931 0.394819 0.011996
v -0.117931 0.332577 0.011996
v -0.076000 0.321440 0.011996
v -0.036035 0.106543 0.018547
v -0.035380 0.129474 0.018547
v -0.222759 0.129474 0.018547
v -0.222759 0.099991 0.018547
v -0.158552 -0.002871 0.018547
v -0.100897 -0.022526 0.018547
v -0.039311 -0.044147 0.018547
v -0.096311 -0.103112 0.018547
v -0.028173 0.225129 -0.008970
v -0.035380 0.107198 0.011996
v -0.032759 0.168784 0.011996
v -0.031449 0.212681 0.011996
v -0.008518 0.016129 -0.041728
v 0.000000 0.322750 -0.027315
v 0.000000 0.414474 -0.138694
v 0.000000 0.332577 -0.145246
v 0.000000 0.332577 -0.014211
v 0.000000 0.348957 -0.020763
v 0.029482 0.283440 0.018547
v -0.020311 -0.306871 -0.019453
v 0.020310 -0.306871 -0.019453
v -0.029483 0.283440 0.018547
v 0.013103 -0.044147 -0.033211
v 0.009172 -0.044147 -0.053521
v 0.034724 -0.044147 -0.020763
v -0.009173 -0.044147 -0.053521
v 0.000000 -0.044147 -0.060073
v -0.013104 -0.044147 -0.033211
v -0.034725 -0.044147 -0.020763
v -0.026207 -0.479836 0.018547
v 0.000000 0.283440 -0.138694
v 0.026207 -0.479836 0.018547
v 0.000000 -0.306216 -0.053521
v 0.016379 -0.306871 -0.042384
v -0.016380 -0.306871 -0.042384
v 0.000000 -0.535526 0.018547
v -0.009828 -0.479836 0.008720
v 0.000000 -0.479836 0.002168
v 0.009827 -0.479836 0.008720
v -0.016380 -0.479836 0.018547
v -0.009828 -0.479836 0.028375
v 0.009827 -0.479836 0.028375
v 0.000000 -0.479836 0.034927
v 0.016379 -0.479836 0.018547
v 0.000000 0.309646 0.048030
v 0.000000 0.332577 0.044754
v -0.018345 0.332577 0.036892
v -0.019000 0.309646 0.040168
v -0.026207 0.332577 0.018547
v -0.027518 0.309646 0.018547
v -0.024242 0.332577 -0.000453
v 0.024241 0.332577 -0.000453
v 0.019000 0.309646 0.040168
v 0.018344 0.332577 0.036892
v 0.026207 0.332577 0.018547
v 0.027517 0.309646 0.018547
v 0.000000 0.099991 0.054582
v 0.000000 0.283440 0.051306
v -0.019000 0.283440 0.043444
v -0.025552 0.103267 0.044099
v 0.018344 -0.479836 0.036892
v 0.023586 -0.348802 0.048030
v 0.000000 -0.348802 0.057858
v 0.000000 -0.479836 0.044754
v 0.027517 -0.237423 0.046065
v 0.000000 -0.237423 0.057858
v 0.000000 -0.044147 0.057858
v -0.027518 -0.044147 0.046065
v -0.027518 -0.237423 0.046065
v 0.000000 0.116371 0.070961
v 0.000000 0.158957 0.077513
v 0.000000 0.280164 0.057858
v 0.027517 -0.044147 0.046065
v -0.023587 -0.348802 0.048030
v -0.018345 -0.479836 0.036892
v 0.019000 0.283440 0.043444
v 0.025551 0.103267 0.044099
vn -0.4931 -0.1097 -0.8630
vn -0.9903 0.0853 -0.1101
vn -0.9916 -0.0292 -0.1262
vn -0.9928 0.0000 -0.1198
vn 0.9911 0.0743 -0.1101
vn -0.4949 0.0680 -0.8663
vn -0.4972 0.1232 -0.8588
vn 0.4882 0.0669 -0.8702
vn 0.9903 0.0421 -0.1323
vn 0.9964 0.0847 0.0000
vn 0.9827 0.0570 -0.1760
vn 0.4788 -0.0147 -0.8778
vn 0.9901 0.0299 -0.1369
vn -1.0000 0.0000 0.0000
vn 0.5088 0.0154 -0.8607
vn 0.9821 0.0321 -0.1858
vn 0.5637 -0.0131 -0.8258
vn 0.4946 0.0374 -0.8683
vn 0.4981 0.1076 -0.8604
vn -0.4898 0.0374 -0.8710
vn 0.4951 0.0696 -0.8661
vn 0.9923 -0.0021 -0.1238
vn -0.5643 -0.0105 -0.8255
vn -0.9815 0.0281 -0.1893
vn -0.5088 0.0154 -0.8608
vn 0.9916 -0.0272 -0.1262
vn 0.4678 -0.1096 -0.8770
vn 1.0000 0.0000 0.0000
vn -0.4884 0.0599 -0.8706
vn -0.9905 0.0352 -0.1333
vn -0.9935 0.0285 -0.1104
vn -0.9964 0.0842 0.0000
vn -0.4788 -0.0186 -0.8777
vn -0.9827 0.0571 -0.1760
vn -0.9951 0.0063 -0.0989
vn -0.9906 0.0248 -0.1347
vn 0.9949 0.0284 -0.0966
vn 0.9888 0.0421 -0.1431
vn 0.9993 0.0298 -0.0222
vn 0.9944 0.0368 -0.0994
vn -0.4817 -0.0753 -0.8731
vn -0.4949 -0.0696 -0.8661
vn 0.4775 -0.0754 -0.8754
vn 0.4949 -0.0696 -0.8661
vn 0.9951 0.0063 -0.0989
vn 0.9906 0.0248 -0.1348
vn -0.9949 0.0284 -0.0966
vn -0.9888 0.0421 -0.1431
vn -0.9929 0.0380 -0.1128
vn -0.9944 0.0368 -0.0994
vn 0.9969 0.0774 0.0112
vn 0.9845 0.0439 -0.1697
vn 0.4989 -0.0149 -0.8665
vn -0.5812 -0.0099 -0.8137
vn -0.5811 0.0211 -0.8136
vn -0.9813 0.0312 -0.1899
vn -0.9933 0.0000 -0.1159
vn -0.4986 0.0387 -0.8660
vn -0.9902 -0.0743 -0.1179
vn -0.5008 0.0707 -0.8627
vn -0.9928 0.0387 -0.1132
vn -0.9922 0.0216 -0.1229
vn 0.9925 0.0296 -0.1189
vn 0.4992 0.0665 -0.8639
vn 0.4986 0.0352 -0.8661
vn -0.9969 0.0774 0.0113
vn 0.9902 -0.0750 -0.1179
vn -0.9837 0.0504 -0.1728
vn 0.5813 0.0085 -0.8137
vn 0.9915 0.0247 -0.1278
vn 0.5812 -0.0194 -0.8136
vn -0.4997 -0.0149 -0.8661
vn 0.9812 0.0337 -0.1899
vn 0.9933 -0.0020 -0.1159
vn 0.4136 -0.4772 -0.7754
vn 0.4927 -0.4405 -0.7505
vn -0.9593 -0.2296 -0.1645
vn -0.4136 -0.4772 -0.7754
vn -0.4927 -0.4405 -0.7505
vn 0.5468 -0.0398 -0.8363
vn 0.9871 -0.0168 -0.1592
vn -0.9871 -0.0135 -0.1592
vn -0.5467 -0.0446 -0.8361
vn 0.9593 -0.2296 -0.1644
vn -0.5388 -0.2377 -0.8082
vn 0.5388 -0.2377 -0.8082
vn -0.8082 -0.2377 -0.5388
vn -0.8082 -0.2377 0.5388
vn 0.5388 -0.2377 0.8082
vn 0.8082 -0.2377 -0.5388
vn 0.8082 -0.2377 0.5388
vn -0.5388 -0.2377 0.8082
vn -0.3906 0.1302 0.9113
vn -0.9160 0.0822 0.3926
vn -0.9934 0.0568 -0.0993
vn -0.9937 0.0403 -0.1046
vn -0.4904 0.1127 -0.8642
vn 0.4898 0.1233 -0.8631
vn 0.3900 0.1411 0.9099
vn 0.9934 0.0568 -0.0995
vn 0.9179 0.0524 0.3934
vn 0.9907 0.0431 -0.1293
vn -0.3823 0.0165 0.9239
vn 0.3829 -0.0934 0.9190
vn 0.9191 -0.0689 0.3880
vn 0.9188 -0.0270 0.3938
vn 0.3939 0.0023 0.9191
vn -0.3798 0.1147 0.9179
vn -0.9211 0.0349 0.3878
vn -0.3772 0.0210 0.9259
vn -0.9242 0.0174 0.3814
vn -0.3939 0.0000 0.9191
vn 0.0000 0.0000 1.0000
vn -0.9191 0.0000 0.3939
vn -0.9188 -0.0255 0.3938
vn -0.3830 -0.0919 0.9192
vn -0.9190 -0.0697 0.3880
vn 0.3798 0.1147 0.9179
vn 0.9282 0.0696 0.3656
vn 0.3823 0.0173 0.9239
vn 0.3776 0.0174 0.9258
vn 0.9241 0.0201 0.3817
vn 0.3939 0.0000 0.9191
vn -0.9294 0.0458 0.3662
vn -0.9923 0.0744 -0.0994
vn 0.9923 0.0744 -0.0992
vn 0.0000 1.0000 -0.0000
vn 0.0000 -1.0000 0.0000
vn 0.0000 0.0000 -1.0000
vn -0.4675 -0.1151 -0.8765
vn -0.4907 -0.1081 -0.8646
vn -0.9889 0.0742 -0.1290
vn -0.9926 -0.0266 -0.1182
vn -0.9920 -0.0021 -0.1262
vn 0.9878 0.0870 -0.1289
vn -0.4978 0.0695 -0.8645
vn -0.4864 0.1084 -0.8670
vn 0.4966 0.0598 -0.8659
vn 0.9927 0.0342 -0.1161
vn 0.9964 0.0842 0.0053
vn 0.4972 -0.0175 -0.8675
vn 0.9932 0.0368 -0.1103
vn 0.9868 0.0295 -0.1592
vn 0.5472 -0.0117 -0.8369
vn 0.4913 0.0354 -0.8702
vn 0.4855 0.1230 -0.8655
vn -0.4944 0.0357 -0.8685
vn 0.4977 0.0680 -0.8647
vn 0.9920 0.0000 -0.1262
vn -0.5472 -0.0132 -0.8369
vn -0.9867 0.0334 -0.1592
vn 0.9926 -0.0292 -0.1182
vn 0.4931 -0.1103 -0.8629
vn 0.4906 -0.1097 -0.8644
vn -0.4992 0.0665 -0.8639
vn -0.9929 0.0423 -0.1109
vn -0.9904 0.0367 -0.1330
vn -0.9963 0.0853 0.0045
vn -0.5001 -0.0145 -0.8658
vn 0.9851 0.0377 -0.1677
vn -0.4775 -0.0743 -0.8755
vn 0.4847 -0.0740 -0.8715
vn -0.9760 0.0291 -0.2157
vn 0.9807 0.0478 -0.1898
vn 0.5002 -0.0144 -0.8658
vn -0.5622 -0.0197 -0.8267
vn -0.5130 0.0041 -0.8584
vn -0.9823 0.0340 -0.1841
vn -0.9923 -0.0021 -0.1240
vn -0.4915 0.0351 -0.8702
vn -0.9895 -0.0754 -0.1236
vn -0.4947 0.0667 -0.8665
vn -0.9901 0.0295 -0.1372
vn -0.9930 0.0244 -0.1158
vn 0.9906 0.0398 -0.1312
vn 0.4952 0.0707 -0.8659
vn 0.4893 0.0380 -0.8713
vn 0.9895 -0.0742 -0.1237
vn -0.9809 0.0432 -0.1898
vn 0.5062 0.0224 -0.8622
vn 0.9930 0.0216 -0.1158
vn 0.5642 -0.0111 -0.8256
vn -0.4989 -0.0145 -0.8665
vn 0.9820 0.0314 -0.1864
vn 0.9928 0.0000 -0.1198
vn 0.5605 -0.0443 -0.8270
vn 0.9855 -0.0143 -0.1689
vn -0.9855 -0.0173 -0.1689
vn -0.5607 -0.0394 -0.8270
vn -0.3785 0.1415 0.9147
vn -0.9291 0.0531 0.3660
vn -0.9934 0.0568 -0.0995
vn -0.9900 0.0566 -0.1291
vn -0.4972 0.1227 -0.8589
vn 0.4979 0.1125 -0.8599
vn 0.3791 0.1309 0.9161
vn 0.9934 0.0568 -0.0993
vn 0.9275 0.0787 0.3654
vn 0.9929 0.0568 -0.1045
vn -0.3776 0.0171 0.9258
vn 0.3923 -0.0915 0.9153
vn 0.9169 -0.0701 0.3930
vn 0.9209 -0.0256 0.3888
vn 0.3846 0.0000 0.9231
vn -0.9201 0.0352 0.3901
vn -0.9237 0.0264 0.3823
vn -0.3938 0.0175 0.9190
vn -0.9190 0.0200 0.3938
vn 0.9191 0.0000 0.3939
vn -0.3846 0.0027 0.9231
vn -0.9209 -0.0271 0.3888
vn -0.3922 -0.0935 0.9151
vn -0.9170 -0.0688 0.3930
vn 0.9206 0.0484 0.3876
vn 0.3777 0.0165 0.9258
vn 0.9211 0.0341 0.3878
vn 0.9230 0.0350 0.3832
vn 0.3938 0.0209 0.9189
vn 0.9190 0.0175 0.3939
vn -0.9194 0.0689 0.3871
vn -0.9923 0.0744 -0.0992
usemtl None
s off
f 1//1 2//1 3//1
f 6//2 7//2 8//2
f 10//3 11//3 12//3
f 11//4 13//4 14//4
f 15//5 16//5 17//5
f 19//6 20//6 21//6
f 7//7 6//7 23//7
f 35//8 24//8 17//8
f 37//9 38//9 39//9
f 41//10 42//10 22//10
f 44//11 42//11 41//11
f 45//12 46//12 47//12
f 49//13 36//13 17//13
f 53//14 22//14 21//14
f 44//15 54//15 42//15
f 55//16 56//16 48//16
f 57//17 58//17 56//17
f 22//18 39//18 59//18
f 24//19 23//19 18//19
f 60//20 61//20 19//20
f 22//21 21//21 40//21
f 46//22 45//22 50//22
f 63//23 64//23 58//23
f 65//24 66//24 64//24
f 42//25 54//25 67//25
f 68//26 46//26 62//26
f 5//27 4//27 70//27
f 42//28 21//28 22//28
f 84//29 7//29 24//29
f 20//30 19//30 85//30
f 8//31 7//31 84//31
f 60//32 22//32 42//32
f 66//33 65//33 12//33
f 88//34 42//34 67//34
f 76//35 85//35 61//35
f 85//36 19//36 61//36
f 35//28 89//28 24//28
f 24//14 23//14 89//14
f 23//28 93//28 92//28
f 38//37 30//37 29//37
f 38//38 37//38 30//38
f 37//39 49//39 94//39
f 49//40 16//40 94//40
f 95//41 2//41 12//41
f 95//42 3//42 2//42
f 47//43 46//43 68//43
f 68//44 70//44 96//44
f 59//45 38//45 29//45
f 59//46 39//46 38//46
f 91//14 89//14 90//14
f 89//14 92//14 93//14
f 76//47 77//47 85//47
f 77//48 86//48 85//48
f 77//49 97//49 87//49
f 97//50 8//50 87//50
f 98//51 41//51 43//51
f 99//52 44//52 41//52
f 98//53 100//53 45//53
f 64//54 101//54 102//54
f 54//55 102//55 101//55
f 66//56 103//56 101//56
f 13//57 82//57 104//57
f 60//58 103//58 104//58
f 105//59 10//59 2//59
f 20//60 84//60 35//60
f 21//28 91//28 35//28
f 84//61 20//61 86//61
f 82//62 76//62 61//62
f 49//63 37//63 40//63
f 53//14 91//14 106//14
f 21//64 35//64 36//64
f 59//65 100//65 98//65
f 60//66 88//66 103//66
f 71//67 68//67 69//67
f 103//68 88//68 67//68
f 44//69 99//69 102//69
f 100//70 59//70 29//70
f 58//71 102//71 99//71
f 66//72 14//72 104//72
f 56//73 99//73 98//73
f 45//74 100//74 51//74
f 70//75 4//75 108//75
f 108//76 109//76 70//76
f 3//77 95//77 110//77
f 108//78 4//78 3//78
f 3//79 110//79 108//79
f 108//80 57//80 55//80
f 109//81 55//81 47//81
f 95//82 65//82 63//82
f 110//83 63//83 57//83
f 109//84 96//84 70//84
f 111//85 112//85 113//85
f 113//86 114//86 111//86
f 111//87 115//87 112//87
f 111//88 116//88 115//88
f 117//89 118//89 111//89
f 114//90 119//90 111//90
f 119//91 117//91 111//91
f 111//92 118//92 116//92
f 120//93 121//93 122//93
f 123//94 122//94 124//94
f 125//95 124//95 72//95
f 72//96 126//96 6//96
f 6//97 126//97 92//97
f 23//98 92//98 127//98
f 128//99 129//99 121//99
f 15//100 25//100 130//100
f 131//101 130//101 129//101
f 15//102 18//102 127//102
f 132//103 133//103 134//103
f 136//104 137//104 138//104
f 107//105 69//105 137//105
f 69//106 62//106 140//106
f 137//107 140//107 141//107
f 133//108 120//108 123//108
f 135//109 134//109 97//109
f 142//110 132//110 135//110
f 143//111 135//111 76//111
f 141//112 142//112 143//112
f 132//28 146//28 145//28
f 62//113 50//113 51//113
f 144//114 143//114 82//114
f 138//112 141//112 144//112
f 149//115 144//115 11//115
f 139//116 138//116 149//116
f 150//117 149//117 10//117
f 133//14 146//14 147//14
f 151//118 128//118 120//118
f 94//119 131//119 128//119
f 152//120 151//120 133//120
f 29//113 30//113 94//113
f 148//121 152//121 132//121
f 51//122 29//122 152//122
f 140//123 148//123 142//123
f 134//124 123//124 125//124
f 97//125 125//125 9//125
f 16//126 15//126 131//126
f 92//127 126//127 72//127
f 121//127 129//127 130//127
f 116//128 118//128 139//128
f 115//128 116//128 150//128
f 112//128 115//128 105//128
f 5//128 113//128 112//128
f 136//128 139//128 118//128
f 107//128 136//128 117//128
f 71//128 107//128 119//128
f 71//128 114//128 113//128
f 25//113 27//113 26//113
f 28//129 26//129 27//129
f 29//129 30//129 31//129
f 34//113 33//113 32//113
f 50//129 51//129 52//129
f 72//113 73//113 74//113
f 75//129 74//129 73//129
f 76//129 78//129 77//129
f 81//113 79//113 80//113
f 13//113 82//113 83//113
f 86//113 87//113 74//113
f 74//113 87//113 8//113
f 8//113 75//113 74//113
f 8//113 72//113 75//113
f 8//113 9//113 72//113
f 82//113 81//113 80//113
f 83//129 80//129 81//129
f 82//113 76//113 81//113
f 51//113 33//113 34//113
f 52//129 34//129 33//129
f 34//113 29//113 51//113
f 37//113 27//113 49//113
f 27//113 16//113 49//113
f 16//113 27//113 28//113
f 28//113 25//113 16//113
f 16//113 25//113 15//113
f 1//130 3//130 4//130
f 1//131 4//131 5//131
f 6//132 8//132 9//132
f 10//133 12//133 2//133
f 11//134 14//134 12//134
f 15//135 17//135 18//135
f 19//136 21//136 22//136
f 7//137 23//137 24//137
f 35//138 17//138 36//138
f 37//139 39//139 40//139
f 41//140 22//140 43//140
f 45//141 47//141 48//141
f 49//142 17//142 16//142
f 53//14 42//14 22//14
f 55//143 48//143 47//143
f 57//144 56//144 55//144
f 22//145 59//145 43//145
f 24//146 18//146 17//146
f 60//147 19//147 22//147
f 22//148 40//148 39//148
f 46//149 50//149 62//149
f 63//150 58//150 57//150
f 65//151 64//151 63//151
f 68//152 62//152 69//152
f 5//153 70//153 68//153
f 5//154 68//154 71//154
f 42//28 53//28 21//28
f 84//155 24//155 35//155
f 20//156 85//156 86//156
f 8//157 84//157 87//157
f 60//158 42//158 88//158
f 66//159 12//159 14//159
f 35//28 90//28 89//28
f 35//28 91//28 90//28
f 23//28 89//28 93//28
f 37//160 94//160 30//160
f 95//161 12//161 65//161
f 47//162 68//162 96//162
f 91//14 24//14 89//14
f 91//14 35//14 24//14
f 89//14 23//14 92//14
f 77//163 87//163 86//163
f 99//164 41//164 98//164
f 98//165 45//165 48//165
f 64//166 102//166 58//166
f 54//167 101//167 67//167
f 66//168 101//168 64//168
f 13//169 104//169 14//169
f 60//170 104//170 61//170
f 105//171 2//171 1//171
f 20//172 35//172 21//172
f 21//28 106//28 91//28
f 21//28 53//28 106//28
f 84//173 86//173 87//173
f 82//174 61//174 104//174
f 49//175 40//175 36//175
f 53//14 35//14 91//14
f 53//14 21//14 35//14
f 21//176 36//176 40//176
f 59//177 98//177 43//177
f 71//178 69//178 107//178
f 103//179 67//179 101//179
f 44//180 102//180 54//180
f 100//181 29//181 51//181
f 58//182 99//182 56//182
f 66//183 104//183 103//183
f 56//184 98//184 48//184
f 45//185 51//185 50//185
f 108//186 55//186 109//186
f 109//187 47//187 96//187
f 95//188 63//188 110//188
f 110//189 57//189 108//189
f 120//190 122//190 123//190
f 123//191 124//191 125//191
f 125//192 72//192 9//192
f 72//193 6//193 9//193
f 6//194 92//194 23//194
f 23//195 127//195 18//195
f 128//196 121//196 120//196
f 15//197 130//197 131//197
f 131//198 129//198 128//198
f 15//199 127//199 25//199
f 132//200 134//200 135//200
f 136//201 138//201 139//201
f 107//202 137//202 136//202
f 69//203 140//203 137//203
f 137//204 141//204 138//204
f 133//108 123//108 134//108
f 135//205 97//205 77//205
f 135//206 77//206 76//206
f 142//207 135//207 143//207
f 143//208 76//208 82//208
f 141//112 143//112 144//112
f 132//28 147//28 146//28
f 132//28 133//28 147//28
f 62//209 51//209 148//209
f 62//209 148//209 140//209
f 144//114 82//114 13//114
f 144//114 13//114 11//114
f 138//210 144//210 149//210
f 149//211 11//211 10//211
f 139//212 149//212 150//212
f 150//213 10//213 105//213
f 133//14 145//14 146//14
f 133//14 132//14 145//14
f 151//118 120//118 133//118
f 94//214 128//214 151//214
f 152//215 133//215 132//215
f 29//216 94//216 151//216
f 29//217 151//217 152//217
f 148//218 132//218 142//218
f 51//219 152//219 148//219
f 140//123 142//123 141//123
f 134//220 125//220 97//220
f 97//221 9//221 8//221
f 16//126 131//126 94//126
f 92//127 72//127 124//127
f 92//127 124//127 122//127
f 92//127 122//127 121//127
f 121//127 130//127 25//127
f 121//127 25//127 127//127
f 121//127 127//127 92//127
f 116//128 139//128 150//128
f 115//128 150//128 105//128
f 112//128 105//128 1//128
f 5//128 112//128 1//128
f 136//128 118//128 117//128
f 107//128 117//128 119//128
f 71//128 119//128 114//128
f 71//128 113//128 5//128
f 25//113 28//113 27//113
f 28//129 25//129 26//129
f 29//129 31//129 32//129
f 29//129 32//129 33//129
f 29//129 33//129 34//129
f 34//113 32//113 31//113
f 34//113 31//113 30//113
f 34//113 30//113 29//113
f 72//113 74//113 75//113
f 75//129 73//129 72//129
f 76//129 79//129 78//129
f 76//129 80//129 79//129
f 76//129 81//129 80//129
f 81//113 78//113 79//113
f 81//113 77//113 78//113
f 81//113 76//113 77//113
f 82//113 80//113 83//113
f 83//129 81//129 82//129
f 51//113 52//113 33//113
f 52//129 51//129 34//129
