# Blender v2.79 (sub 0) OBJ File: ''
# www.blender.org
mtllib m1190.mtl
o m1190
v -0.016584 -0.352509 0.034891
v -0.022901 -0.265643 0.014359
v 0.000000 -0.264063 -0.003014
v 0.000000 -0.351719 0.023046
v -0.019743 -0.351719 0.048316
v -0.029219 -0.264063 0.041998
v 0.003948 -0.405418 0.060161
v 0.000000 -0.406208 0.061741
v 0.000000 -0.413315 0.054633
v 0.006317 -0.403049 0.054633
v -0.013425 -0.351719 0.066479
v -0.021322 -0.264063 0.063320
v 0.000000 -0.351719 0.071217
v 0.000000 -0.264063 0.071217
v 0.005528 -0.400680 0.045947
v 0.000000 -0.399891 0.041998
v 0.013425 -0.351719 0.066479
v 0.019742 -0.351719 0.048316
v 0.016583 -0.352509 0.034891
v 0.016583 -0.080065 -0.042499
v 0.000000 -0.090331 -0.055134
v 0.009476 -0.038211 -0.067769
v 0.000000 -0.038211 -0.070928
v 0.022901 -0.038211 -0.041709
v 0.022901 0.039179 -0.044868
v 0.009476 0.038389 -0.070928
v 0.000000 0.039179 -0.074086
v 0.000000 0.204225 -0.055134
v 0.021321 -0.264063 0.063320
v 0.029218 -0.264063 0.041998
v 0.022901 -0.265643 0.014359
v -0.003949 -0.405418 0.060161
v -0.006318 -0.403049 0.054633
v -0.005528 -0.400680 0.045947
v -0.009477 -0.038211 -0.067769
v -0.016584 -0.080065 -0.042499
v -0.022901 -0.038211 -0.041709
v -0.009477 0.038389 -0.070928
v -0.022901 0.039179 -0.044868
v -0.035536 0.039179 0.029363
v -0.057648 -0.039001 0.019097
v -0.035536 -0.038211 0.029363
v -0.057648 0.039179 -0.007752
v -0.064755 -0.038211 -0.009332
v -0.016584 -0.103756 -0.042499
v -0.022901 -0.099807 -0.041709
v 0.000000 -0.102966 -0.055134
v 0.000000 0.204225 -0.044868
v -0.049751 -0.039790 -0.033812
v -0.045802 0.039968 -0.035391
v -0.025270 0.039179 0.059372
v 0.000000 0.039179 0.068058
v -0.016584 0.203435 0.060951
v 0.000000 0.204225 0.068058
v -0.042644 0.203435 0.009621
v -0.030009 0.205014 -0.032233
v 0.000000 0.501149 -0.019598
v 0.000000 0.326627 -0.034602
v -0.015794 0.501149 -0.012490
v -0.022901 0.501149 0.003303
v -0.015794 0.501149 0.019097
v 0.000000 0.501149 0.026204
v 0.000000 0.326627 -0.083563
v 0.000000 0.326627 -0.051975
v 0.000000 0.445870 -0.193330
v 0.000000 0.501149 -0.222549
v 0.000000 0.536685 -0.225707
v 0.000000 0.524840 -0.051975
v 0.000000 0.378746 -0.051975
v 0.000000 0.524050 -0.029074
v -0.122403 0.471930 -0.051975
v -0.132669 0.504308 -0.051975
v -0.135827 0.524050 -0.051975
v 0.000000 -0.036632 0.069638
v -0.056068 -0.001096 0.069638
v 0.000000 0.258713 0.068058
v -0.329302 0.258713 0.068058
v -0.322984 0.201066 0.068058
v -0.303242 0.158422 0.068058
v -0.153201 0.062080 0.068848
v -0.024481 -0.036632 0.060951
v -0.020532 -0.099807 0.064110
v 0.000000 -0.099807 0.071217
v -0.032378 -0.099807 0.029363
v -0.038695 -0.112442 0.023046
v -0.032378 -0.112442 -0.025915
v 0.016583 -0.114022 -0.039340
v 0.016583 -0.103756 -0.042499
v 0.032377 -0.099807 0.029363
v 0.032377 -0.112442 0.030153
v -0.041854 -0.112442 -0.025915
v 0.030008 0.205014 -0.032233
v 0.057647 0.039179 -0.007752
v 0.045802 0.039968 -0.035391
v -0.032378 -0.112442 0.030153
v -0.016584 -0.114022 -0.039340
v -0.058438 -0.112442 -0.009332
v -0.049751 -0.100597 -0.033812
v -0.064755 -0.099807 -0.009332
v 0.000000 -0.251428 -0.006963
v 0.010266 -0.249059 -0.000645
v 0.016583 -0.204836 -0.010121
v -0.057648 -0.100597 0.017518
v 0.020532 -0.099807 0.064110
v 0.042643 0.203435 0.009621
v -0.016584 -0.204836 -0.010121
v -0.010266 -0.249059 -0.000645
v 0.024480 -0.036632 0.060951
v 0.022901 -0.099807 -0.041709
v 0.049750 -0.039790 -0.033812
v 0.049750 -0.100597 -0.033812
v 0.064755 -0.038211 -0.009332
v 0.064755 -0.099807 -0.009332
v 0.058437 -0.112442 -0.009332
v 0.057647 -0.100597 0.017518
v 0.051330 -0.113232 0.016728
v 0.038695 -0.112442 0.023046
v 0.057647 -0.039001 0.019097
v 0.035536 -0.038211 0.029363
v 0.041853 -0.112442 -0.025915
v 0.032377 -0.112442 -0.025915
v 0.153200 0.062080 0.068848
v 0.056068 -0.001096 0.069638
v 0.025270 0.039179 0.059372
v 0.035536 0.039179 0.029363
v 0.016583 0.203435 0.060951
v -0.051330 -0.113232 0.016728
v 0.303242 0.158422 0.068058
v 0.329301 0.258713 0.068058
v 0.322984 0.201066 0.068058
v 0.015794 0.501149 -0.012490
v 0.022901 0.501149 0.003303
v 0.015794 0.501149 0.019097
v 0.122402 0.471930 -0.051975
v 0.132668 0.504308 -0.051975
v 0.135827 0.524050 -0.051975
v 0.000000 -0.206416 -0.041709
v -0.009477 -0.206416 -0.038550
v 0.010266 -0.173248 -0.047237
v 0.000000 -0.157455 -0.055134
v 0.009476 -0.206416 -0.038550
v -0.010266 -0.173248 -0.047237
vn -0.5786 -0.2272 -0.7833
vn -0.9693 -0.1203 -0.2147
vn 0.3906 -0.6509 0.6509
vn 0.8434 -0.5190 0.1390
vn -0.9353 -0.0718 0.3464
vn -0.3473 0.0000 0.9378
vn 0.8317 -0.5118 -0.2151
vn 0.3890 -0.6314 -0.6709
vn 0.3284 -0.1618 0.9306
vn 0.9252 -0.2011 0.3218
vn 0.9501 -0.2681 -0.1594
vn 0.5440 -0.3043 -0.7819
vn 0.6866 -0.2868 -0.6681
vn 0.3039 -0.2763 -0.9117
vn 0.8820 -0.1246 -0.4544
vn 0.8888 -0.0187 -0.4579
vn 0.3160 -0.0391 -0.9479
vn 0.3224 0.1080 -0.9404
vn 0.8839 0.0941 -0.4582
vn 0.3473 0.0025 0.9377
vn 0.9350 -0.0761 0.3463
vn 0.9692 -0.1212 -0.2146
vn 0.5776 -0.2326 -0.7825
vn -0.3905 -0.6510 0.6510
vn -0.8434 -0.5190 0.1390
vn -0.8317 -0.5118 -0.2152
vn -0.3890 -0.6314 -0.6709
vn -0.3937 -0.1575 0.9056
vn -0.9287 -0.2006 0.3120
vn -0.9543 -0.2549 -0.1563
vn -0.5249 -0.3030 -0.7954
vn -0.6866 -0.2868 -0.6681
vn -0.3039 -0.2763 -0.9118
vn -0.8821 -0.1246 -0.4544
vn -0.8888 -0.0189 -0.4579
vn -0.3160 -0.0387 -0.9480
vn -0.3224 0.1080 -0.9404
vn -0.8839 0.0941 -0.4582
vn -0.4211 0.0000 0.9070
vn -0.8461 0.1731 0.5041
vn -0.9662 0.0837 0.2439
vn -0.1241 0.0000 -0.9923
vn -0.6060 0.0000 -0.7954
vn -0.9905 0.1374 0.0000
vn -0.8467 0.0885 -0.5247
vn -0.9189 0.0377 -0.3927
vn -0.3832 -0.0377 -0.9229
vn -0.2819 -0.0050 -0.9594
vn -0.3251 0.0081 0.9457
vn -0.3939 0.0000 0.9191
vn -0.9451 0.0469 0.3233
vn -0.8588 0.0243 0.5117
vn -0.8916 0.0158 0.4526
vn -0.3851 0.0783 -0.9195
vn -0.4091 0.0802 -0.9090
vn -0.9096 0.0710 -0.4093
vn -0.9564 0.0573 -0.2865
vn -0.9098 0.0690 0.4094
vn -0.8897 0.0659 0.4517
vn -0.4070 0.1282 0.9044
vn -0.3958 0.1282 0.9093
vn -0.3270 0.0268 0.9446
vn -0.3862 0.0546 -0.9208
vn -0.3250 0.0163 0.9456
vn -0.9439 0.0000 0.3303
vn -0.9454 -0.0485 0.3223
vn -0.5351 -0.8417 -0.0714
vn 0.8654 -0.4885 0.1117
vn 0.9754 -0.0649 -0.2108
vn 0.0000 -0.7809 -0.6247
vn -0.9520 0.1169 -0.2830
vn -0.9160 0.0951 -0.3899
vn 0.9160 0.0951 -0.3898
vn -0.9768 -0.0134 -0.2139
vn -0.5145 -0.6860 -0.5145
vn -0.7891 -0.3945 -0.4709
vn 0.5487 -0.2494 -0.7980
vn 0.9746 -0.0375 -0.2207
vn -0.2013 -0.6327 -0.7477
vn -0.4204 -0.0216 0.9071
vn 0.5992 0.0499 0.7990
vn 0.3271 -0.0030 0.9450
vn 0.9520 0.1169 -0.2830
vn 0.7292 0.2013 0.6540
vn -0.9746 -0.0375 -0.2207
vn -0.9465 0.0030 0.3227
vn -0.3271 0.0000 0.9450
vn 0.3270 0.0236 0.9447
vn 0.2822 0.0000 -0.9594
vn 0.8526 0.0000 -0.5226
vn 0.8729 -0.4365 0.2182
vn 0.4036 -0.2567 0.8782
vn 0.9701 0.0000 0.2426
vn 0.4203 -0.0233 0.9071
vn 0.2013 -0.6327 -0.7477
vn 0.7890 -0.3945 -0.4709
vn 0.5145 -0.6860 -0.5145
vn -0.8565 -0.5042 0.1105
vn 0.5351 -0.8418 -0.0713
vn 0.9456 -0.0430 0.3224
vn 0.9438 -0.0029 0.3305
vn 0.3344 0.0161 0.9423
vn 0.3863 0.0536 -0.9208
vn 0.9451 0.0469 0.3233
vn 0.3939 0.0000 0.9191
vn 0.3251 0.0081 0.9457
vn 0.2819 -0.0050 -0.9594
vn 0.3832 -0.0377 -0.9229
vn 0.9189 0.0377 -0.3927
vn 0.8467 0.0885 -0.5247
vn 0.4211 0.0000 0.9070
vn 0.8461 0.1731 0.5041
vn 0.9662 0.0838 0.2439
vn 0.1241 0.0000 -0.9923
vn 0.6061 0.0000 -0.7954
vn 0.9905 0.1374 0.0000
vn -0.9702 -0.0062 0.2424
vn -0.4061 -0.2381 0.8823
vn -0.8677 -0.4474 0.2165
vn -0.8526 0.0000 -0.5226
vn -0.2822 0.0000 -0.9594
vn 0.8588 0.0243 0.5116
vn 0.8916 0.0158 0.4526
vn 0.3918 0.0788 -0.9167
vn 0.4091 0.0802 -0.9090
vn 0.9096 0.0710 -0.4093
vn 0.9564 0.0573 -0.2865
vn 0.9098 0.0690 0.4094
vn 0.8897 0.0659 0.4517
vn 0.4070 0.1282 0.9044
vn 0.3958 0.1282 0.9093
vn -0.2551 -0.5908 -0.7654
vn -0.5240 -0.5604 -0.6414
vn 0.6060 -0.0009 -0.7954
vn 0.5240 -0.5604 -0.6414
vn -0.9557 -0.1855 -0.2286
vn -0.3064 -0.2480 -0.9190
vn -0.9772 -0.0753 -0.1987
vn -0.6085 -0.0012 -0.7935
vn 0.2552 -0.5908 -0.7654
vn 0.9557 -0.1855 -0.2286
vn 0.3229 -0.2470 -0.9137
vn 0.9677 -0.0852 -0.2372
vn 0.0000 -1.0000 0.0000
vn 0.0895 -0.9945 -0.0545
vn 0.0000 1.0000 0.0000
vn 1.0000 0.0000 0.0000
vn -1.0000 0.0000 0.0000
vn -0.0000 0.0000 -1.0000
vn 0.0000 0.0000 1.0000
vn 0.0132 0.0208 0.9997
vn -0.0010 0.0066 1.0000
vn 0.0091 0.0265 0.9996
vn -0.0091 0.0265 0.9996
vn 0.0010 0.0066 1.0000
vn -0.0132 0.0208 0.9997
vn -0.5572 -0.2366 -0.7959
vn -0.9677 -0.1225 -0.2205
vn -0.9416 -0.0782 0.3275
vn -0.3328 0.0040 0.9430
vn 0.3958 -0.1759 0.9013
vn 0.9284 -0.2046 0.3102
vn 0.9423 -0.2636 -0.2062
vn 0.5222 -0.3122 -0.7936
vn 0.8890 -0.0189 -0.4574
vn 0.3130 -0.0387 -0.9490
vn 0.3328 0.0000 0.9430
vn 0.9420 -0.0730 0.3276
vn 0.9679 -0.1205 -0.2207
vn 0.5585 -0.2291 -0.7972
vn -0.3281 -0.1673 0.9297
vn -0.9250 -0.2023 0.3217
vn -0.9404 -0.2712 -0.2053
vn -0.5434 -0.3074 -0.7812
vn -0.8891 -0.0187 -0.4574
vn -0.3130 -0.0391 -0.9490
vn -0.3343 0.0236 0.9422
vn -0.3803 0.0528 -0.9234
vn -0.3343 0.0196 0.9422
vn -0.9462 -0.0031 0.3237
vn -0.9424 -0.0423 0.3319
vn 0.8581 -0.5006 0.1144
vn 0.9751 -0.0138 -0.2213
vn -0.9732 -0.0676 -0.2197
vn -0.5486 0.2494 0.7980
vn -0.5631 0.2521 0.7870
vn 0.4935 -0.2558 -0.8313
vn 0.5738 -0.2521 -0.7793
vn 0.9746 -0.0375 -0.2206
vn -0.4237 -0.0232 0.9055
vn 0.9465 0.0066 0.3227
vn 0.9377 0.0028 0.3473
vn 0.3473 0.0000 0.9377
vn -0.6021 -0.2436 -0.7604
vn -0.5876 -0.2489 -0.7699
vn -0.5493 -0.2904 -0.7836
vn -0.5754 -0.2440 -0.7806
vn -0.9746 -0.0375 -0.2206
vn -0.9059 0.0264 0.4227
vn -0.9377 0.0076 0.3473
vn -0.3473 -0.0028 0.9377
vn 0.3343 0.0262 0.9421
vn 0.8663 -0.4471 0.2227
vn 0.4243 -0.2263 0.8768
vn 0.9667 -0.0066 0.2557
vn 0.4238 -0.0217 0.9055
vn -0.8642 -0.4898 0.1152
vn 0.9420 -0.0483 0.3321
vn 0.9462 0.0000 0.3237
vn 0.3250 0.0197 0.9455
vn 0.3802 0.0541 -0.9233
vn -0.9667 0.0000 0.2559
vn -0.4182 -0.2634 0.8693
vn -0.8716 -0.4358 0.2245
vn 0.3852 0.0771 -0.9196
vn 0.6097 0.0000 -0.7926
vn -0.3177 -0.2507 -0.9144
vn -0.9683 -0.0762 -0.2378
vn 0.3061 -0.2517 -0.9181
vn 0.9711 -0.0728 -0.2272
vn 0.0164 -0.9995 -0.0258
vn -0.0586 -0.9983 0.0076
vn -0.0083 -0.0211 -0.9997
vn 0.0052 0.0000 1.0000
vn 0.0083 -0.0211 -0.9997
vn -0.0052 0.0000 1.0000
usemtl None
s off
f 1//1 2//1 3//1
f 5//2 6//2 2//2
f 7//3 8//3 9//3
f 10//4 7//4 9//4
f 11//5 12//5 6//5
f 13//6 14//6 12//6
f 15//7 10//7 9//7
f 16//8 15//8 9//8
f 17//9 13//9 8//9
f 18//10 17//10 7//10
f 18//11 10//11 15//11
f 4//12 19//12 15//12
f 20//13 21//13 22//13
f 23//14 22//14 21//14
f 24//15 20//15 22//15
f 25//16 24//16 22//16
f 26//17 22//17 23//17
f 26//18 27//18 28//18
f 28//19 25//19 26//19
f 17//20 29//20 14//20
f 18//21 30//21 29//21
f 19//22 31//22 30//22
f 4//23 3//23 31//23
f 9//24 8//24 32//24
f 9//25 32//25 33//25
f 9//26 33//26 34//26
f 9//27 34//27 16//27
f 32//28 8//28 13//28
f 33//29 32//29 11//29
f 1//30 34//30 33//30
f 16//31 34//31 1//31
f 35//32 21//32 36//32
f 21//33 35//33 23//33
f 35//34 36//34 37//34
f 38//35 35//35 37//35
f 27//36 23//36 35//36
f 28//37 27//37 38//37
f 38//38 39//38 28//38
f 40//39 41//39 42//39
f 40//40 43//40 41//40
f 43//41 44//41 41//41
f 36//42 45//42 46//42
f 21//43 47//43 45//43
f 39//44 48//44 28//44
f 43//45 49//45 44//45
f 49//46 43//46 50//46
f 37//47 50//47 39//47
f 37//48 49//48 50//48
f 51//49 52//49 53//49
f 52//50 54//50 53//50
f 53//51 40//51 51//51
f 43//52 40//52 55//52
f 55//53 40//53 53//53
f 48//54 56//54 57//54
f 56//55 59//55 57//55
f 59//56 56//56 60//56
f 56//57 55//57 60//57
f 55//58 61//58 60//58
f 55//59 53//59 61//59
f 53//60 62//60 61//60
f 53//61 54//61 62//61
f 81//62 82//62 83//62
f 50//63 56//63 48//63
f 52//64 51//64 81//64
f 40//65 42//65 81//65
f 42//66 84//66 82//66
f 84//67 46//67 45//67
f 84//68 85//68 86//68
f 87//69 88//69 89//69
f 86//70 91//70 46//70
f 55//71 56//71 43//71
f 50//72 43//72 56//72
f 92//73 93//73 94//73
f 95//74 84//74 45//74
f 97//75 98//75 91//75
f 99//76 98//76 97//76
f 3//77 100//77 101//77
f 31//78 87//78 90//78
f 46//79 91//79 98//79
f 84//80 42//80 41//80
f 30//81 90//81 89//81
f 29//82 104//82 83//82
f 93//83 92//83 105//83
f 2//84 96//84 45//84
f 6//85 95//85 96//85
f 12//86 82//86 84//86
f 14//87 83//87 82//87
f 74//88 83//88 104//88
f 109//89 24//89 110//89
f 111//90 110//90 112//90
f 114//91 113//91 115//91
f 116//92 115//92 89//92
f 113//93 112//93 118//93
f 115//94 118//94 119//94
f 111//95 120//95 109//95
f 114//96 111//96 113//96
f 120//97 111//97 114//97
f 109//70 120//70 121//70
f 109//98 121//98 117//98
f 88//99 109//99 89//99
f 108//100 104//100 89//100
f 124//101 108//101 119//101
f 74//102 108//102 124//102
f 25//103 48//103 92//103
f 124//104 125//104 126//104
f 126//105 54//105 52//105
f 126//106 52//106 124//106
f 94//107 110//107 24//107
f 25//108 94//108 24//108
f 94//109 93//109 110//109
f 112//110 110//110 93//110
f 119//111 118//111 125//111
f 118//112 93//112 125//112
f 118//113 112//113 93//113
f 24//114 109//114 88//114
f 20//115 88//115 47//115
f 28//116 48//116 25//116
f 103//117 41//117 44//117
f 85//118 84//118 103//118
f 127//119 103//119 99//119
f 99//120 44//120 49//120
f 98//121 49//121 37//121
f 105//122 125//122 93//122
f 126//123 125//123 105//123
f 58//124 57//124 92//124
f 57//125 131//125 92//125
f 132//126 92//126 131//126
f 132//127 105//127 92//127
f 132//128 133//128 105//128
f 133//129 126//129 105//129
f 133//130 62//130 126//130
f 62//131 54//131 126//131
f 137//132 100//132 138//132
f 138//133 100//133 107//133
f 47//134 88//134 139//134
f 101//135 100//135 141//135
f 138//136 107//136 106//136
f 137//137 138//137 142//137
f 45//138 142//138 138//138
f 140//139 142//139 45//139
f 141//140 100//140 137//140
f 102//141 101//141 141//141
f 140//142 139//142 141//142
f 102//143 141//143 139//143
f 121//144 120//144 114//144
f 85//145 127//145 97//145
f 62//146 133//146 132//146
f 57//146 59//146 60//146
f 48//147 28//147 63//147
f 63//147 65//147 66//147
f 64//147 69//147 68//147
f 68//147 70//147 57//147
f 69//148 64//148 58//148
f 68//149 69//149 71//149
f 73//150 72//150 71//150
f 75//151 74//151 52//151
f 54//150 76//150 77//150
f 79//149 78//149 77//149
f 52//149 79//149 54//149
f 80//152 54//152 79//152
f 75//153 52//153 80//153
f 52//154 123//154 122//154
f 52//149 54//149 128//149
f 122//155 128//155 54//155
f 54//149 76//149 129//149
f 128//150 130//150 129//150
f 58//150 64//150 63//150
f 68//149 134//149 69//149
f 136//150 134//150 135//150
f 123//156 52//156 74//156
f 1//157 3//157 4//157
f 5//158 2//158 1//158
f 11//159 6//159 5//159
f 13//160 12//160 11//160
f 17//161 8//161 7//161
f 18//162 7//162 10//162
f 18//163 15//163 19//163
f 4//164 15//164 16//164
f 25//165 22//165 26//165
f 26//166 23//166 27//166
f 17//167 14//167 13//167
f 18//168 29//168 17//168
f 19//169 30//169 18//169
f 4//170 31//170 19//170
f 32//171 13//171 11//171
f 33//172 11//172 5//172
f 1//173 33//173 5//173
f 16//174 1//174 4//174
f 38//175 37//175 39//175
f 27//176 35//176 38//176
f 36//42 46//42 37//42
f 21//43 45//43 36//43
f 48//148 57//148 58//148
f 81//177 83//177 74//177
f 50//178 48//178 39//178
f 52//179 81//179 74//179
f 40//180 81//180 51//180
f 42//181 82//181 81//181
f 84//182 86//182 46//182
f 87//183 89//183 90//183
f 95//184 45//184 96//184
f 3//185 101//185 102//185
f 3//186 102//186 88//186
f 3//187 88//187 87//187
f 3//188 87//188 31//188
f 31//189 90//189 30//189
f 84//190 41//190 103//190
f 30//191 89//191 104//191
f 30//192 104//192 29//192
f 29//193 83//193 14//193
f 2//194 45//194 106//194
f 2//195 106//195 107//195
f 2//196 107//196 100//196
f 2//197 100//197 3//197
f 6//198 96//198 2//198
f 12//199 84//199 95//199
f 12//200 95//200 6//200
f 14//201 82//201 12//201
f 74//202 104//202 108//202
f 109//89 110//89 111//89
f 111//90 112//90 113//90
f 114//203 115//203 116//203
f 116//204 89//204 117//204
f 113//205 118//205 115//205
f 115//206 119//206 89//206
f 109//207 117//207 89//207
f 108//208 89//208 119//208
f 124//209 119//209 125//209
f 74//210 124//210 52//210
f 25//211 92//211 94//211
f 24//114 88//114 20//114
f 20//115 47//115 21//115
f 103//212 44//212 99//212
f 85//213 103//213 127//213
f 127//214 99//214 97//214
f 99//120 49//120 98//120
f 98//121 37//121 46//121
f 58//215 92//215 48//215
f 47//216 139//216 140//216
f 137//217 142//217 140//217
f 45//218 138//218 106//218
f 140//43 45//43 47//43
f 140//219 141//219 137//219
f 102//220 139//220 88//220
f 121//221 114//221 116//221
f 121//222 116//222 117//222
f 85//144 97//144 91//144
f 85//144 91//144 86//144
f 62//146 132//146 131//146
f 62//146 131//146 57//146
f 57//146 60//146 61//146
f 57//146 61//146 62//146
f 48//147 63//147 64//147
f 58//148 63//148 28//148
f 58//148 28//148 48//148
f 63//147 66//147 67//147
f 63//147 67//147 68//147
f 63//147 68//147 69//147
f 64//148 68//148 67//148
f 64//148 67//148 66//148
f 64//148 65//148 63//148
f 68//147 58//147 64//147
f 69//148 57//148 70//148
f 69//148 70//148 68//148
f 68//149 71//149 72//149
f 68//149 72//149 73//149
f 73//150 71//150 69//150
f 73//150 69//150 68//150
f 54//150 77//150 78//150
f 54//150 78//150 79//150
f 79//149 77//149 76//149
f 79//149 76//149 54//149
f 52//223 80//223 79//223
f 80//224 52//224 54//224
f 52//225 128//225 122//225
f 122//226 54//226 52//226
f 54//149 129//149 130//149
f 54//149 130//149 128//149
f 128//150 129//150 76//150
f 128//150 76//150 54//150
f 48//147 64//147 58//147
f 63//147 69//147 64//147
f 64//148 66//148 65//148
f 68//147 57//147 58//147
f 69//148 58//148 57//148
f 68//149 135//149 134//149
f 68//149 136//149 135//149
f 136//150 69//150 134//150
f 136//150 68//150 69//150
