# Blender v2.79 (sub 0) OBJ File: ''
# www.blender.org
mtllib m1219.mtl
o m1219
v -0.021551 -0.444059 0.035800
v 0.020003 -0.374284 0.024715
v 0.026557 -0.330688 0.036702
v 0.009243 -0.382230 0.011463
v 0.019563 -0.375519 -0.000963
v -0.021489 -0.520660 -0.000963
v 0.051535 -0.229190 0.031413
v 0.086829 -0.229063 0.008556
v 0.052536 -0.097801 0.050342
v 0.020218 -0.250566 0.048559
v 0.025770 -0.228332 0.048239
v -0.016310 -0.244519 0.113810
v -0.019028 -0.266754 0.111191
v -0.013469 -0.243523 0.111812
v -0.021622 -0.385907 0.063223
v -0.005832 -0.099536 0.130535
v -0.010111 -0.275768 0.065763
v -0.013509 -0.246447 0.108004
v -0.021760 -0.264750 0.120869
v -0.012658 0.001662 0.126768
v -0.018469 0.098055 0.123981
v -0.022162 0.161637 0.115707
v -0.022212 0.097135 0.130819
v -0.017825 0.109542 0.113220
v -0.021208 0.159680 0.112784
v -0.009964 0.102905 0.117969
v -0.011066 0.109608 0.113097
v -0.016385 0.159727 0.112697
v 0.086518 -0.229234 -0.008797
v 0.051350 -0.228851 -0.031305
v 0.025950 -0.228289 -0.049203
v 0.020398 -0.250562 -0.048883
v -0.012678 -0.243754 -0.112025
v -0.019170 -0.266985 -0.111679
v -0.015607 -0.244799 -0.114887
v -0.009605 -0.276099 -0.066440
v 0.014557 -0.254492 -0.052614
v -0.021308 -0.264213 -0.121317
v -0.021700 -0.244039 -0.132146
v -0.013530 -0.246650 -0.108144
v -0.021029 -0.386189 -0.064158
v -0.005727 -0.099152 -0.130979
v -0.016803 0.045444 -0.132212
v -0.022106 0.097481 -0.130694
v -0.021510 0.161329 -0.115876
v -0.020452 0.159431 -0.112989
v -0.018122 0.098573 -0.124015
v -0.017087 0.109282 -0.113540
v -0.010328 0.109348 -0.113662
v -0.009408 0.103537 -0.118446
v 0.020081 -0.373822 -0.025473
v -0.021909 -0.443817 -0.036563
v 0.008810 -0.382469 -0.012649
v 0.014499 -0.254467 0.051625
v -0.021771 -0.244404 0.131267
v -0.016857 0.045088 0.132188
v 0.052646 -0.097797 -0.050973
v 0.026203 -0.330464 -0.037598
v -0.012414 0.002122 -0.127037
v -0.015630 0.159478 -0.113076
v -0.024430 0.284940 -0.000963
v 0.013397 0.047988 0.098796
v 0.025134 0.002595 0.082661
v -0.013791 0.210933 0.016642
v 0.022850 0.047461 0.034963
v -0.009956 0.210971 0.016573
v 0.087614 -0.228190 -0.000963
v 0.028986 0.047183 -0.000963
v 0.004133 0.146428 0.013084
v 0.007783 0.144395 -0.000963
v -0.005341 0.202158 -0.000963
v -0.008071 0.202216 0.008914
v -0.016356 0.244513 -0.000963
v 0.025025 0.002917 -0.083309
v 0.013667 0.047967 -0.099012
v -0.009557 0.210655 -0.016253
v 0.022565 0.047723 -0.035464
v -0.013447 0.210608 -0.017132
v 0.004615 0.146179 -0.012981
v -0.008400 0.202035 -0.009426
v -0.017468 0.243421 -0.009673
v -0.017122 0.243612 0.009617
v 0.040719 -0.308417 0.031404
v 0.068102 -0.275486 0.015163
v 0.073600 -0.251334 0.012888
v 0.090653 -0.243580 -0.000963
v 0.089770 -0.250349 -0.000963
v 0.036926 -0.307476 0.034349
v 0.051672 -0.246564 0.029645
v 0.035071 -0.321005 0.031629
v 0.066208 -0.283271 0.013337
v 0.068096 -0.287135 0.008517
v 0.028106 -0.359979 -0.000963
v 0.026526 -0.362702 0.017722
v 0.022783 -0.368531 0.019784
v 0.043558 -0.333615 0.015191
v 0.070940 -0.288123 0.005589
v 0.072733 -0.284288 -0.000963
v 0.023370 -0.368722 -0.000963
v 0.040555 -0.308087 -0.032264
v 0.036620 -0.307167 -0.035090
v 0.051539 -0.246198 -0.030187
v 0.074121 -0.251582 -0.013178
v 0.068498 -0.275782 -0.015725
v 0.066673 -0.283529 -0.013678
v 0.034869 -0.320676 -0.032038
v 0.067784 -0.287307 -0.008836
v 0.026873 -0.363047 -0.017989
v 0.043993 -0.333911 -0.015660
v 0.041994 -0.333009 -0.018558
v 0.023006 -0.368923 -0.020749
v 0.070732 -0.288238 -0.005993
v 0.041703 -0.332655 0.018140
v -0.019052 0.255242 0.016298
v -0.022986 0.264870 0.018211
v -0.021019 0.260056 0.017235
v -0.018691 0.254927 -0.016527
v -0.020692 0.259722 -0.017488
v -0.022657 0.264516 -0.018488
v 0.043281 -0.333768 -0.000963
v 0.041820 -0.097436 0.098775
v -0.005832 -0.099536 0.130535
v 0.016852 -0.219280 0.093667
v 0.012062 -0.226106 0.091883
v 0.042127 -0.097418 -0.099033
v 0.017333 -0.219167 -0.094496
v 0.012612 -0.225955 -0.092407
v 0.046438 0.262114 -0.039001
v 0.047803 0.229341 -0.035776
v 0.106476 0.375255 -0.073982
v 0.106598 0.364631 -0.072929
v 0.110624 0.349251 -0.072849
v 0.127418 0.383056 -0.086021
v 0.106407 0.383923 -0.073117
v 0.042249 0.290977 -0.043049
v -0.010599 0.308976 -0.021044
v -0.001073 0.315800 -0.024207
v 0.001247 0.275289 -0.024798
v 0.128129 0.407180 -0.086272
v 0.127237 0.401361 -0.086198
v 0.125973 0.429340 -0.086453
v 0.110332 0.348727 0.072883
v 0.048105 0.229088 0.035600
v 0.127467 0.401143 0.086530
v 0.126220 0.429093 0.087226
v 0.128359 0.406924 0.086457
v -0.010825 0.309386 0.021389
v 0.045951 0.261882 0.039189
v 0.041861 0.290820 0.042812
v 0.106361 0.364118 0.073752
v 0.106273 0.374760 0.074597
v 0.127648 0.382800 0.086708
v -0.001186 0.315319 0.024044
v 0.106170 0.383410 0.073564
v 0.001151 0.274817 0.024403
v 0.018057 0.053234 0.039817
v 0.012249 0.053693 0.092985
v -0.005239 0.097094 0.109280
v -0.009552 0.185954 0.025475
v 0.018548 0.053410 -0.040272
v -0.009491 0.186445 -0.025663
v 0.012764 0.053826 -0.093242
v -0.005312 0.096901 -0.109754
v -0.013739 0.220853 -0.350116
v -0.007956 0.192334 -0.312329
v -0.013093 0.249790 -0.351401
v -0.013711 0.293608 -0.309354
v -0.012414 0.255014 -0.310932
v -0.015231 0.137303 -0.210341
v -0.016378 0.151753 -0.211412
v -0.021481 0.183550 -0.209698
v -0.012681 0.228233 -0.287490
v -0.013785 0.241752 -0.286654
v -0.015011 0.269693 -0.286909
v -0.016243 0.269489 0.287226
v -0.021626 0.183792 0.210030
v -0.014631 0.220892 0.350396
v -0.013950 0.249849 0.351085
v -0.009265 0.191629 0.311994
v -0.014137 0.292855 0.309142
v -0.015396 0.137517 0.210376
v -0.013895 0.228037 0.287594
v -0.016471 0.151986 0.211202
v -0.015033 0.241500 0.286532
v -0.012788 0.254290 0.310487
vn 0.6681 -0.2890 0.6856
vn 0.5698 -0.8212 0.0297
vn 0.7881 -0.5213 -0.3273
vn 0.8060 -0.2280 0.5463
vn 0.5397 -0.1241 0.8327
vn 0.5398 -0.1228 0.8328
vn 0.6055 -0.1657 0.7784
vn 0.5617 -0.0954 0.8218
vn -0.0482 -0.1110 0.9926
vn -0.5421 0.6692 -0.5082
vn -0.0985 -0.9796 0.1751
vn 0.7575 0.0268 -0.6523
vn 0.8650 0.1138 0.4887
vn 0.9890 0.0679 0.1316
vn 0.0090 0.5889 0.8082
vn 0.0181 0.0099 0.9998
vn 0.0984 -0.9804 -0.1705
vn 0.5670 -0.1530 -0.8094
vn 0.7207 -0.2112 -0.6603
vn 0.6272 -0.2240 -0.7460
vn 0.9626 -0.1135 -0.2462
vn 0.9446 -0.2196 -0.2440
vn 0.9684 -0.1052 -0.2260
vn 0.8284 0.0682 0.5560
vn 0.9496 0.0624 -0.3071
vn 0.9837 0.0678 -0.1665
vn 0.1182 0.6422 -0.7574
vn -0.0181 0.0098 -0.9998
vn 0.6987 -0.3176 -0.6410
vn 0.5758 -0.8164 -0.0444
vn 0.7833 -0.5231 0.3357
vn 0.8256 -0.2335 -0.5138
vn 0.7021 -0.3030 0.6444
vn 0.8449 -0.2309 0.4825
vn 0.5511 -0.8338 -0.0326
vn 0.3975 0.1424 0.9065
vn 0.5279 -0.0747 0.8460
vn 0.9723 -0.1059 0.2082
vn 0.9506 -0.1087 0.2908
vn 0.9447 -0.2323 0.2315
vn 0.9683 -0.1064 0.2260
vn 0.8668 0.1020 0.4881
vn 0.9618 0.0703 0.2647
vn 0.9629 0.0891 0.2547
vn 0.1297 0.6740 0.7272
vn 0.0179 0.0099 0.9998
vn 0.5494 -0.1236 -0.8264
vn 0.5341 -0.0801 -0.8416
vn 0.5558 -0.0765 -0.8278
vn 0.5500 -0.0743 -0.8318
vn 0.9368 -0.1006 -0.3351
vn 0.9219 -0.1964 -0.3341
vn 0.9631 -0.2690 0.0106
vn 0.9626 -0.1131 -0.2461
vn 0.8520 0.0667 -0.5192
vn 0.9056 0.0760 -0.4173
vn 0.8425 0.1271 -0.5234
vn -0.0197 0.7001 -0.7138
vn 0.7011 -0.2821 -0.6549
vn 0.7691 -0.1422 -0.6231
vn -0.9996 0.0071 0.0269
vn 0.7593 -0.0347 0.6498
vn 0.6936 0.0440 0.7190
vn 0.0167 0.1151 0.9932
vn 0.9732 0.2072 0.0993
vn 0.9729 0.2068 0.1031
vn 0.9640 0.2102 0.1630
vn 0.9521 0.2163 0.2161
vn 0.9353 0.2432 0.2571
vn 0.7595 -0.0350 -0.6496
vn 0.6771 0.0630 -0.7332
vn 0.2159 0.1562 -0.9638
vn 0.9709 0.1977 -0.1352
vn 0.9697 0.2065 -0.1302
vn 0.9607 0.2152 -0.1754
vn 0.9480 0.2346 -0.2151
vn 0.9206 0.1997 -0.3356
vn 0.5625 0.3501 0.7490
vn -1.0000 -0.0037 0.0059
vn -1.0000 -0.0037 0.0052
vn -1.0000 -0.0037 0.0053
vn -1.0000 -0.0035 0.0059
vn -0.9999 -0.0013 0.0150
vn 0.5542 0.0574 0.8304
vn -0.0228 0.9997 -0.0116
vn 0.9688 0.1972 0.1498
vn 0.9644 0.2124 0.1577
vn 0.9678 0.2076 0.1423
vn 0.9501 0.2270 0.2141
vn 0.9395 0.2248 0.2584
vn 0.9734 0.2113 0.0885
vn 0.5603 -0.0564 -0.8264
vn 0.9628 0.2050 -0.1760
vn 0.9647 0.2071 -0.1626
vn 0.9702 0.2129 -0.1157
vn 0.9645 0.2156 -0.1523
vn 0.9530 0.2079 -0.2204
vn 0.9188 0.2088 -0.3351
vn 0.9564 0.2487 -0.1533
vn -0.9998 -0.0036 -0.0215
vn -0.9997 0.0039 0.0234
vn -1.0000 -0.0012 -0.0009
vn 0.9498 -0.1335 -0.2830
vn -0.2085 -0.4154 -0.8854
vn 0.5506 -0.0468 0.8334
vn 0.9763 0.1928 0.0982
vn 0.8519 -0.1111 0.5117
vn 0.7766 -0.3731 0.5077
vn 0.6513 -0.0772 0.7549
vn 0.5760 -0.1764 0.7982
vn 0.5804 -0.0779 0.8106
vn 0.4163 0.0949 0.9043
vn 0.7723 -0.3125 0.5531
vn 0.8401 -0.5423 -0.0080
vn 0.3418 -0.0074 0.9397
vn 0.8554 -0.4851 0.1814
vn 0.8936 -0.4486 -0.0180
vn 0.8721 -0.4884 0.0291
vn 0.5703 -0.0738 -0.8181
vn 0.9683 0.1912 -0.1609
vn 0.5941 -0.0453 -0.8031
vn 0.7318 -0.3268 -0.5980
vn 0.6171 -0.0608 -0.7845
vn 0.5513 -0.1583 -0.8192
vn 0.1332 0.0470 -0.9900
vn 0.7923 -0.5232 -0.3139
vn 0.7973 -0.3733 -0.4742
vn 0.8791 -0.4762 0.0222
vn 0.7428 -0.2909 -0.6029
vn 0.8837 -0.4632 -0.0668
vn 0.8937 -0.4486 -0.0032
vn 0.8724 -0.4885 -0.0154
vn 0.5938 -0.0820 0.8004
vn 0.5977 -0.0857 0.7972
vn 0.5420 -0.0808 0.8365
vn 0.5713 -0.1838 0.7999
vn 0.6402 -0.2382 0.7304
vn 0.7967 -0.5818 0.1635
vn 0.2385 -0.0081 0.9711
vn 0.5120 -0.0001 0.8590
vn 0.8789 -0.4761 0.0292
vn 0.8673 -0.4658 0.1754
vn 0.7568 -0.3082 0.5765
vn 0.7585 -0.3043 0.5763
vn 0.8445 -0.5196 -0.1300
vn 0.9021 -0.4314 0.0053
vn 0.5927 -0.0531 -0.8037
vn 0.5696 -0.0736 -0.8186
vn 0.5132 -0.2927 -0.8068
vn 0.5910 -0.0771 -0.8030
vn 0.6158 -0.0113 -0.7878
vn 0.8102 -0.5136 -0.2825
vn 0.4388 -0.0530 -0.8970
vn 0.6015 -0.1158 -0.7905
vn 0.8374 -0.5465 -0.0098
vn 0.6391 -0.2235 -0.7359
vn 0.6405 -0.2192 -0.7360
vn 0.7080 -0.3678 -0.6028
vn 0.8575 -0.4368 -0.2717
vn 0.8631 -0.5049 -0.0107
vn 0.9909 0.1058 0.0832
vn 0.0058 0.7104 0.7037
vn 0.9639 0.1867 0.1896
vn 0.9769 0.1951 0.0874
vn 0.9852 0.1709 -0.0129
vn 0.9092 0.3197 0.2667
vn 0.9103 0.3182 0.2646
vn 0.9917 0.1057 -0.0731
vn -0.0198 0.6894 -0.7241
vn 0.9004 0.3039 -0.3114
vn 0.9698 0.1937 -0.1482
vn 0.9859 0.1496 0.0751
vn 0.9037 0.3202 -0.2843
vn 0.9084 0.3148 -0.2750
vn -0.1234 0.6809 0.7220
vn 0.6334 0.5348 -0.5592
vn 0.9889 0.1181 0.0897
vn 0.8969 0.3040 0.3212
vn 0.8982 0.3022 0.3192
vn 0.9887 0.1183 -0.0921
vn 0.9031 0.3194 -0.2871
vn 0.9547 0.2063 -0.2143
vn 0.7632 -0.3243 0.5589
vn 0.8593 -0.5115 -0.0099
vn 0.7374 -0.2878 0.6111
vn 0.8654 -0.5010 -0.0101
vn 0.7239 -0.2738 -0.6332
vn 0.8577 -0.5120 0.0465
vn 0.7204 -0.2792 -0.6348
vn 0.8651 -0.5009 0.0276
vn 0.7271 -0.3008 0.6172
vn 0.8471 -0.5259 -0.0760
vn 0.7083 -0.2842 0.6462
vn 0.8629 -0.5053 -0.0007
vn 0.7654 -0.4103 -0.4958
vn 0.8578 -0.5106 0.0597
vn 0.7209 -0.2776 -0.6350
vn 0.8596 -0.5088 0.0465
vn 0.9582 0.1938 0.2106
vn 0.5594 -0.1279 0.8190
vn 0.7374 0.2256 0.6366
vn 0.5512 0.0681 0.8316
vn 0.5530 -0.1477 0.8200
vn 0.7058 -0.5956 0.3837
vn 0.6672 -0.5878 0.4575
vn 0.9583 0.1960 -0.2082
vn 0.9578 -0.2027 -0.2038
vn 0.7380 0.2255 -0.6360
vn 0.5522 0.0688 -0.8309
vn 0.6983 -0.4637 -0.5453
vn 0.7035 -0.6043 -0.3739
vn 0.6781 -0.5834 -0.4471
vn 0.9554 -0.2047 0.2129
vn 0.9553 -0.2046 0.2132
vn 0.6011 -0.1343 0.7878
vn 0.5860 -0.1350 0.7990
vn 0.7123 -0.5603 0.4227
vn 0.6553 -0.5983 0.4611
vn 0.9571 -0.1987 -0.2110
vn 0.9197 -0.2338 -0.3154
vn 0.5538 -0.1285 -0.8227
vn 0.6030 -0.1520 -0.7831
vn 0.7051 -0.6337 -0.3182
vn 0.6558 -0.5979 -0.4608
vn -0.2972 -0.1058 -0.9489
vn -0.3596 -0.0961 -0.9281
vn -0.3591 -0.0988 -0.9281
vn -0.4487 -0.1221 -0.8853
vn -0.5167 0.0809 -0.8523
vn -0.3125 -0.0040 -0.9499
vn -0.5762 0.0780 -0.8136
vn -0.4748 -0.0534 -0.8784
vn 0.3329 0.1330 0.9335
vn 0.5752 -0.0778 0.8143
vn 0.2227 -0.6483 -0.7281
vn -0.8816 0.1688 0.4407
vn 0.5999 0.0137 0.7999
vn -0.3088 -0.1158 -0.9441
vn -0.1620 -0.1601 -0.9737
vn -0.2390 -0.1688 -0.9562
vn -0.3451 -0.1061 -0.9326
vn -0.4139 -0.0945 -0.9054
vn -0.5237 -0.0134 -0.8518
vn 0.2043 -0.4258 -0.8814
vn -0.3825 -0.0327 -0.9234
vn -0.4200 0.0430 -0.9065
vn -0.4001 -0.0202 -0.9162
vn -0.3624 -0.0236 -0.9317
vn -0.5755 0.0767 -0.8142
vn -0.4089 -0.0101 -0.9125
vn -0.3443 -0.1249 -0.9305
vn 0.4093 0.0373 0.9116
vn 0.3918 0.0781 0.9167
vn 0.3831 0.0894 0.9194
vn 0.3486 0.1246 0.9290
vn 0.3981 0.0462 0.9162
vn -0.8253 0.5069 -0.2490
vn 0.3812 0.0989 -0.9192
vn 0.4028 0.0705 -0.9126
vn -0.8210 0.1758 -0.5432
vn -0.2463 -0.1546 0.9568
vn -0.3589 -0.0768 0.9302
vn -0.3120 -0.1336 0.9406
vn -0.4940 0.0036 0.8695
vn -0.2330 -0.0559 0.9709
vn -0.5704 0.0907 0.8163
vn -0.4320 -0.0169 0.9017
vn 0.6256 -0.0014 -0.7801
vn 0.4587 0.0340 -0.8880
vn 0.1718 0.1952 -0.9656
vn 0.5460 -0.0948 -0.8324
vn 0.1708 0.1577 -0.9726
vn 0.3650 0.1050 -0.9251
vn -0.2777 -0.1122 0.9541
vn -0.2744 -0.1224 0.9538
vn -0.2757 -0.1577 0.9482
vn -0.3238 -0.1239 0.9380
vn -0.0912 -0.0796 0.9927
vn -0.4518 -0.1286 0.8828
vn 0.3888 0.0500 -0.9200
vn -0.5464 0.0929 0.8323
vn -0.3838 -0.0463 0.9223
vn -0.3210 -0.0601 0.9452
vn -0.3617 -0.0126 0.9322
vn -0.5794 0.0996 0.8089
vn 0.6708 -0.7232 0.1644
vn -0.3790 -0.0686 0.9229
vn 0.8187 0.2419 0.5208
vn 0.9354 0.3265 0.1358
vn 0.9275 0.3415 0.1520
vn 0.9530 0.2310 0.1959
vn 0.8636 0.2312 -0.4480
vn 0.9628 0.2499 -0.1032
vn 0.9281 0.3171 -0.1952
vn 0.9290 0.3116 -0.1999
vn 0.9645 0.2169 0.1505
vn 0.7997 0.5948 0.0822
vn 0.9111 0.2419 0.3336
vn 0.7571 0.4610 0.4629
vn 0.9074 0.3041 0.2900
vn 0.9456 0.2344 -0.2256
vn 0.8553 0.5045 -0.1178
vn 0.9297 0.3210 -0.1805
vn 0.9502 0.2298 -0.2104
vn 0.9209 0.2889 -0.2618
vn 0.9714 0.2133 0.1043
vn 0.9305 0.3526 -0.0988
vn 0.7123 -0.5484 0.4380
vn 0.7252 -0.5285 -0.4414
vn 0.9271 0.2800 0.2492
vn 0.9564 0.2224 -0.1893
vn 0.7194 -0.5466 0.4286
vn 0.7051 -0.5594 -0.4357
vn 0.9601 -0.1321 -0.2466
vn 0.9845 -0.0296 -0.1730
vn 0.9992 0.0344 -0.0212
vn 0.8401 0.1061 0.5320
vn 0.9901 0.0735 0.1193
vn 0.9952 0.0445 0.0875
vn 0.9984 0.0316 0.0475
vn 0.7431 -0.4449 -0.4998
vn -0.9997 0.0228 0.0122
vn 0.9774 -0.1063 -0.1828
vn 0.9971 0.0715 -0.0260
vn 0.9887 0.0974 0.1140
vn 0.9765 0.1296 0.1720
vn 0.9862 0.0887 0.1401
vn 0.9609 0.1414 0.2382
vn 0.9935 0.0445 0.1050
vn 0.9840 0.0702 0.1637
vn 0.9909 0.0769 0.1103
vn 0.9906 0.0776 0.1125
vn 0.9919 0.0682 0.1075
vn -1.0000 -0.0012 -0.0092
vn -0.9944 -0.0183 -0.1037
vn -0.9979 -0.0065 -0.0647
vn -0.9997 0.0075 -0.0225
vn 0.1721 -0.6653 0.7265
vn 0.9752 -0.1063 0.1940
vn 0.9870 -0.0270 0.1585
vn 0.9977 0.0493 0.0461
vn 0.9861 0.0979 -0.1342
vn 0.9904 0.0801 -0.1131
vn 0.9690 0.1498 -0.1965
vn 0.9278 0.0493 -0.3697
vn 0.9916 0.0768 -0.1044
vn -0.9994 -0.0012 0.0352
vn -0.9995 0.0230 0.0216
vn -0.9995 0.0192 0.0242
vn -0.3799 -0.6144 0.6915
vn 0.9611 -0.1378 0.2393
vn -0.4533 -0.0469 -0.8901
vn 0.9733 0.1514 -0.1728
vn 0.9888 0.0807 -0.1257
vn 0.9913 0.0752 -0.1083
vn 0.9917 0.0458 -0.1200
vn 0.9914 0.0302 -0.1275
vn 0.9923 0.0552 -0.1113
vn 0.9915 0.0747 -0.1069
vn 0.5544 0.5336 -0.6387
vn 0.9948 0.0539 -0.0859
usemtl None
s off
f 1//1 2//1 3//1
f 4//2 5//2 2//2
f 1//3 4//3 2//3
f 6//4 5//4 4//4
f 7//5 8//5 9//5
f 10//6 7//6 11//6
f 12//7 13//7 14//7
f 15//8 3//8 7//8
f 13//9 12//9 16//9
f 17//10 18//10 14//10
f 17//11 13//11 19//11
f 16//12 20//12 21//12
f 22//13 23//13 21//13
f 24//14 25//14 21//14
f 26//15 27//15 24//15
f 24//16 27//16 28//16
f 29//17 30//17 31//17
f 31//18 30//18 32//18
f 33//19 34//19 35//19
f 36//20 37//20 32//20
f 34//21 38//21 39//21
f 40//22 36//22 34//22
f 34//23 36//23 41//23
f 42//24 43//24 44//24
f 44//25 45//25 46//25
f 47//26 46//26 48//26
f 49//27 50//27 47//27
f 49//28 48//28 46//28
f 51//29 52//29 41//29
f 51//30 5//30 53//30
f 51//31 53//31 52//31
f 5//32 6//32 52//32
f 3//33 15//33 1//33
f 4//34 1//34 6//34
f 9//5 11//5 7//5
f 7//35 10//35 54//35
f 7//36 54//36 17//36
f 7//37 17//37 15//37
f 16//38 55//38 19//38
f 16//39 19//39 13//39
f 14//40 13//40 17//40
f 19//41 15//41 17//41
f 21//42 23//42 56//42
f 21//43 56//43 16//43
f 21//44 25//44 22//44
f 24//45 21//45 26//45
f 28//46 25//46 24//46
f 31//47 57//47 29//47
f 32//48 30//48 58//48
f 32//49 58//49 41//49
f 32//50 41//50 36//50
f 39//51 42//51 35//51
f 39//52 35//52 34//52
f 34//53 33//53 40//53
f 41//54 38//54 34//54
f 44//55 47//55 59//55
f 44//56 59//56 42//56
f 46//57 47//57 44//57
f 47//58 48//58 49//58
f 46//28 60//28 49//28
f 41//59 58//59 51//59
f 52//60 53//60 5//60
f 23//61 22//61 61//61
f 62//62 20//62 63//62
f 20//63 62//63 26//63
f 64//64 65//64 66//64
f 8//65 67//65 68//65
f 65//66 69//66 66//66
f 65//67 68//67 70//67
f 69//68 70//68 71//68
f 72//69 71//69 73//69
f 74//70 59//70 75//70
f 75//71 59//71 47//71
f 76//72 77//72 78//72
f 74//73 75//73 77//73
f 76//74 79//74 77//74
f 68//75 77//75 79//75
f 70//76 79//76 80//76
f 71//77 80//77 81//77
f 41//78 52//78 6//78
f 61//79 6//79 1//79
f 61//80 1//80 15//80
f 61//81 15//81 19//81
f 61//82 19//82 55//82
f 61//83 55//83 23//83
f 26//84 21//84 20//84
f 68//85 65//85 62//85
f 68//86 62//86 63//86
f 68//87 63//87 9//87
f 68//88 9//88 8//88
f 70//89 69//89 65//89
f 71//90 72//90 69//90
f 73//91 82//91 72//91
f 47//92 50//92 75//92
f 77//93 68//93 67//93
f 77//94 67//94 29//94
f 77//95 29//95 57//95
f 77//96 57//96 74//96
f 79//97 70//97 68//97
f 80//98 71//98 70//98
f 81//99 73//99 71//99
f 6//100 61//100 45//100
f 6//101 45//101 44//101
f 6//102 44//102 39//102
f 6//103 39//103 38//103
f 6//104 38//104 41//104
f 83//105 84//105 85//105
f 8//106 86//106 67//106
f 87//107 86//107 8//107
f 83//108 3//108 87//108
f 85//109 84//109 87//109
f 83//110 88//110 3//110
f 88//111 89//111 7//111
f 90//112 91//112 87//112
f 91//113 92//113 87//113
f 93//114 94//114 95//114
f 96//115 97//115 87//115
f 95//116 94//116 96//116
f 97//117 98//117 87//117
f 5//118 99//118 95//118
f 100//119 101//119 102//119
f 67//120 86//120 29//120
f 103//121 102//121 30//121
f 58//122 100//122 104//122
f 87//123 104//123 103//123
f 58//124 101//124 100//124
f 102//125 101//125 58//125
f 105//126 106//126 58//126
f 87//127 107//127 105//127
f 108//128 93//128 99//128
f 109//129 110//129 107//129
f 111//130 51//130 110//130
f 87//131 98//131 112//131
f 99//132 5//132 51//132
f 85//133 89//133 88//133
f 85//134 88//134 83//134
f 8//135 7//135 89//135
f 8//136 89//136 85//136
f 8//137 85//137 87//137
f 87//138 84//138 83//138
f 7//139 3//139 88//139
f 87//140 3//140 90//140
f 95//141 99//141 93//141
f 87//142 92//142 113//142
f 87//143 113//143 96//143
f 96//144 113//144 2//144
f 96//145 2//145 95//145
f 95//146 2//146 5//146
f 102//147 103//147 104//147
f 102//148 104//148 100//148
f 30//149 29//149 86//149
f 30//150 86//150 87//150
f 30//151 87//151 103//151
f 104//152 87//152 58//152
f 58//153 30//153 102//153
f 58//154 87//154 105//154
f 99//155 111//155 108//155
f 107//156 87//156 112//156
f 107//157 112//157 109//157
f 110//158 109//158 108//158
f 110//159 108//159 111//159
f 51//160 111//160 99//160
f 28//161 27//161 64//161
f 25//162 28//162 114//162
f 115//163 22//163 25//163
f 82//164 73//164 61//164
f 114//165 82//165 61//165
f 116//166 114//166 61//166
f 115//167 116//167 61//167
f 49//168 60//168 117//168
f 60//169 46//169 118//169
f 45//170 119//170 118//170
f 61//171 73//171 81//171
f 61//172 81//172 117//172
f 61//173 117//173 118//173
f 61//174 118//174 119//174
f 22//175 115//175 61//175
f 61//176 119//176 45//176
f 64//177 114//177 28//177
f 114//178 116//178 25//178
f 25//179 116//179 115//179
f 117//180 78//180 49//180
f 118//181 117//181 60//181
f 118//182 46//182 45//182
f 113//183 92//183 91//183
f 96//184 120//184 98//184
f 2//185 113//185 90//185
f 93//186 120//186 96//186
f 107//187 110//187 106//187
f 120//188 109//188 112//188
f 110//189 51//189 58//189
f 120//190 93//190 108//190
f 91//191 90//191 113//191
f 98//192 97//192 96//192
f 90//193 3//193 2//193
f 96//194 94//194 93//194
f 106//195 105//195 107//195
f 112//196 98//196 120//196
f 58//197 106//197 110//197
f 108//198 109//198 120//198
f 121//199 9//199 63//199
f 10//200 11//200 9//200
f 20//201 121//201 63//201
f 122//202 121//202 20//202
f 123//203 121//203 122//203
f 124//204 123//204 14//204
f 10//205 123//205 124//205
f 74//206 57//206 125//206
f 32//207 126//207 125//207
f 74//208 125//208 59//208
f 59//209 125//209 42//209
f 126//210 33//210 35//210
f 126//211 127//211 40//211
f 126//212 32//212 37//212
f 9//213 121//213 123//213
f 9//214 123//214 10//214
f 122//215 12//215 14//215
f 122//216 14//216 123//216
f 14//217 18//217 124//217
f 124//218 54//218 10//218
f 125//219 57//219 31//219
f 125//220 31//220 32//220
f 35//221 42//221 125//221
f 35//222 125//222 126//222
f 40//223 33//223 126//223
f 37//224 127//224 126//224
f 128//225 129//225 79//225
f 130//226 131//226 128//226
f 131//227 132//227 129//227
f 133//228 132//228 131//228
f 134//229 130//229 135//229
f 136//230 137//230 138//230
f 134//231 139//231 140//231
f 141//232 139//232 134//232
f 132//233 140//233 80//233
f 80//234 140//234 139//234
f 141//235 137//235 136//235
f 81//236 136//236 117//236
f 132//237 133//237 140//237
f 79//238 76//238 135//238
f 79//239 135//239 128//239
f 128//240 135//240 130//240
f 129//241 128//241 131//241
f 131//242 130//242 140//242
f 131//243 140//243 133//243
f 135//244 76//244 78//244
f 135//245 78//245 117//245
f 135//246 117//246 138//246
f 135//247 138//247 134//247
f 138//248 117//248 136//248
f 140//249 130//249 134//249
f 134//250 138//250 137//250
f 134//251 137//251 141//251
f 80//252 79//252 129//252
f 80//253 129//253 132//253
f 139//254 81//254 80//254
f 136//255 81//255 139//255
f 136//256 139//256 141//256
f 142//257 143//257 69//257
f 144//258 72//258 82//258
f 145//259 146//259 82//259
f 114//260 147//260 82//260
f 148//261 149//261 66//261
f 150//262 151//262 149//262
f 142//263 150//263 148//263
f 152//264 144//264 151//264
f 114//46 64//46 66//46
f 153//265 147//265 114//265
f 146//266 154//266 151//266
f 145//267 153//267 155//267
f 144//268 152//268 142//268
f 69//269 72//269 144//269
f 69//270 144//270 142//270
f 82//271 146//271 144//271
f 82//272 147//272 153//272
f 82//273 153//273 145//273
f 66//274 69//274 143//274
f 66//275 143//275 148//275
f 149//276 148//276 150//276
f 148//277 143//277 142//277
f 151//278 150//278 142//278
f 151//279 142//279 152//279
f 66//280 149//280 151//280
f 66//281 151//281 154//281
f 66//282 154//282 155//282
f 66//283 155//283 114//283
f 114//284 155//284 153//284
f 151//285 144//285 146//285
f 155//286 154//286 146//286
f 155//287 146//287 145//287
f 156//288 65//288 64//288
f 157//289 62//289 65//289
f 26//290 62//290 157//290
f 158//291 159//291 64//291
f 77//292 160//292 161//292
f 75//293 162//293 160//293
f 75//294 50//294 163//294
f 163//295 50//295 49//295
f 64//296 159//296 156//296
f 65//297 156//297 157//297
f 157//298 158//298 26//298
f 64//299 27//299 26//299
f 64//300 26//300 158//300
f 161//301 78//301 77//301
f 160//302 77//302 75//302
f 163//303 162//303 75//303
f 49//304 78//304 161//304
f 49//305 161//305 163//305
f 157//306 156//306 159//306
f 160//307 162//307 163//307
f 124//308 18//308 17//308
f 37//309 36//309 40//309
f 159//310 158//310 157//310
f 163//311 161//311 160//311
f 17//312 54//312 124//312
f 40//313 127//313 37//313
f 39//314 164//314 165//314
f 165//315 164//315 166//315
f 166//316 167//316 168//316
f 169//317 170//317 171//317
f 169//318 172//318 173//318
f 170//319 173//319 174//319
f 172//320 168//320 167//320
f 168//321 172//321 169//321
f 166//322 164//322 39//322
f 165//323 42//323 39//323
f 168//324 165//324 166//324
f 171//325 44//325 43//325
f 171//326 43//326 169//326
f 173//327 170//327 169//327
f 174//328 171//328 170//328
f 167//329 174//329 173//329
f 167//330 173//330 172//330
f 169//331 43//331 42//331
f 169//332 42//332 165//332
f 169//333 165//333 168//333
f 39//334 44//334 171//334
f 39//335 171//335 174//335
f 39//336 174//336 167//336
f 39//337 167//337 166//337
f 175//338 176//338 23//338
f 177//339 55//339 122//339
f 178//340 177//340 179//340
f 180//341 178//341 179//341
f 181//342 56//342 23//342
f 182//343 181//343 183//343
f 184//344 183//344 176//344
f 182//345 184//345 175//345
f 179//346 122//346 56//346
f 23//347 55//347 177//347
f 23//348 177//348 178//348
f 23//349 178//349 180//349
f 23//350 180//350 175//350
f 122//351 179//351 177//351
f 179//352 185//352 180//352
f 23//353 176//353 183//353
f 23//354 183//354 181//354
f 183//355 184//355 182//355
f 176//356 175//356 184//356
f 175//357 180//357 185//357
f 175//358 185//358 182//358
f 56//359 181//359 182//359
f 56//360 182//360 185//360
f 56//361 185//361 179//361
