# Blender v2.79 (sub 0) OBJ File: ''
# www.blender.org
mtllib m1218.mtl
o m1218
v -0.203341 -0.314534 0.017108
v -0.209099 -0.297261 0.017112
v -0.093947 -0.170594 0.017044
v -0.186068 -0.337564 0.017098
v -0.093950 -0.216655 0.011286
v -0.093947 -0.320291 0.017044
v 0.205447 -0.297261 0.017112
v 0.199689 -0.314534 0.017108
v 0.090299 -0.216655 0.011286
v 0.182417 -0.337564 0.017098
v 0.090295 -0.320291 0.017044
v 0.090295 -0.170594 0.017044
v -0.044700 -0.261824 -0.010957
v -0.026053 -0.261824 -0.010968
v -0.016724 -0.261824 -0.001649
v -0.026031 -0.261824 0.026327
v -0.016713 -0.261824 0.016998
v -0.013341 -0.228170 0.016996
v -0.044678 -0.261824 0.026338
v -0.024849 -0.228170 0.028518
v -0.054007 -0.261824 0.017020
v -0.047880 -0.228170 0.028531
v -0.054018 -0.261824 -0.001627
v -0.059402 -0.228170 0.017023
v -0.059415 -0.228170 -0.006007
v -0.047907 -0.228170 -0.017529
v -0.024877 -0.228170 -0.017543
v -0.013355 -0.228170 -0.006034
v 0.041026 -0.261824 0.026338
v 0.022379 -0.261824 0.026327
v 0.013061 -0.261824 0.016998
v 0.021198 -0.228170 0.028518
v 0.044228 -0.228170 0.028531
v 0.050355 -0.261824 0.017020
v 0.055750 -0.228170 0.017023
v 0.050366 -0.261824 -0.001627
v 0.055764 -0.228170 -0.006007
v 0.041048 -0.261824 -0.010957
v 0.044255 -0.228170 -0.017529
v 0.022401 -0.261824 -0.010968
v 0.021225 -0.228170 -0.017543
v 0.013072 -0.261824 -0.001649
v 0.009703 -0.228170 -0.006034
v 0.009689 -0.228170 0.016996
v -0.001833 0.554860 0.005474
v -0.007590 0.554860 0.005477
v -0.001819 0.612436 0.028504
v -0.019102 0.554860 0.011242
v -0.019092 0.554860 0.028514
v -0.007570 0.554860 0.040023
v -0.001812 0.554860 0.040019
v -0.013361 0.485769 -0.017550
v -0.030627 0.485769 -0.006024
v -0.030607 0.485769 0.028521
v -0.013324 0.485769 0.045784
v -0.001809 0.485769 0.045777
v -0.013368 0.439709 -0.029065
v -0.001846 0.485769 -0.017556
v -0.024883 0.393648 -0.029058
v -0.036392 0.393648 -0.017536
v -0.036364 0.393648 0.028525
v -0.013320 0.393648 0.051541
v -0.001805 0.393648 0.051534
v -0.036392 0.336072 -0.017536
v -0.036364 0.336072 0.028525
v -0.036364 0.266981 0.028525
v -0.013320 0.243951 0.051541
v -0.001805 0.243951 0.051534
v -0.007621 0.243951 -0.046341
v -0.024877 0.232436 -0.017543
v -0.024883 0.324557 -0.029058
v -0.082452 0.261224 -0.017509
v -0.070937 0.336072 -0.017515
v -0.082452 0.232436 -0.017509
v -0.036351 0.243951 0.051555
v -0.001853 0.151830 -0.029072
v -0.001863 0.243951 -0.046345
v -0.013361 0.151830 -0.017550
v -0.082452 0.151830 -0.017509
v -0.088203 0.238194 -0.005990
v -0.082446 0.261224 -0.005994
v -0.082439 0.243951 0.005522
v -0.099718 0.140315 -0.005983
v -0.082432 0.140315 0.017037
v -0.082411 0.140315 0.051582
v -0.082411 0.243951 0.051582
v -0.082452 0.059709 -0.017509
v -0.082439 0.036678 0.005522
v -0.001843 -0.026655 -0.011799
v -0.082411 -0.020897 0.051582
v -0.013358 -0.020897 -0.011792
v -0.001839 -0.136049 -0.006041
v -0.013355 -0.136049 -0.006034
v -0.024877 -0.136049 -0.017543
v -0.024877 0.002133 -0.017543
v -0.047907 -0.136049 -0.017529
v -0.047907 0.002133 -0.017529
v -0.059419 -0.020897 -0.011765
v -0.059415 -0.136049 -0.006007
v -0.093940 -0.136049 0.028559
v -0.070910 -0.136049 0.028545
v -0.082439 -0.020897 0.005522
v -0.059385 -0.136049 0.045811
v -0.024839 -0.136049 0.045791
v -0.013320 -0.020897 0.051541
v -0.013338 -0.136049 0.022753
v -0.001822 -0.136049 0.022747
v -0.013348 -0.228170 0.005481
v -0.047907 -0.228170 -0.017529
v -0.059415 -0.228170 -0.006007
v -0.013341 -0.228170 0.016996
v -0.001833 -0.228170 0.005474
v -0.082446 -0.182109 -0.005994
v -0.088203 -0.136049 -0.005990
v -0.093950 -0.216655 0.011286
v -0.093947 -0.170594 0.017044
v -0.093961 -0.136049 -0.005987
v -0.093947 -0.320291 0.017044
v -0.065173 -0.262715 -0.006004
v -0.093961 -0.285746 -0.005987
v -0.082446 -0.228170 -0.005994
v -0.070917 -0.274230 0.017030
v -0.070934 -0.020897 -0.011758
v -0.001805 -0.020897 0.051534
v -0.001805 0.140315 0.051534
v -0.001833 0.612436 0.028504
v 0.003939 0.554860 0.005477
v -0.001819 0.554860 0.005474
v 0.015450 0.554860 0.011242
v 0.015440 0.554860 0.028514
v 0.003918 0.554860 0.040023
v -0.001839 0.554860 0.040019
v 0.009710 0.485769 -0.017550
v -0.001805 0.485769 -0.017556
v 0.026976 0.485769 -0.006024
v 0.026955 0.485769 0.028521
v 0.009672 0.485769 0.045784
v -0.001843 0.485769 0.045777
v 0.009717 0.439709 -0.029065
v -0.001798 0.439709 -0.029072
v 0.021232 0.393648 -0.029058
v 0.032740 0.393648 -0.017536
v 0.032713 0.393648 0.028525
v 0.009669 0.393648 0.051541
v -0.001846 0.393648 0.051534
v 0.032740 0.336072 -0.017536
v 0.021232 0.324557 -0.029058
v 0.032713 0.336072 0.028525
v 0.032713 0.266981 0.028525
v -0.001846 0.243951 0.051534
v 0.009669 0.243951 0.051541
v 0.021225 0.232436 -0.017543
v 0.003969 0.243951 -0.046341
v 0.067285 0.336072 -0.017515
v 0.078801 0.261224 -0.017509
v 0.078801 0.232436 -0.017509
v 0.032699 0.243951 0.051555
v -0.001788 0.243951 -0.046345
v -0.001798 0.151830 -0.029072
v 0.009710 0.151830 -0.017550
v 0.078801 0.151830 -0.017509
v 0.078794 0.261224 -0.005994
v 0.084552 0.238194 -0.005990
v 0.078787 0.243951 0.005522
v 0.096067 0.140315 -0.005983
v 0.078780 0.140315 0.017037
v 0.078760 0.243951 0.051582
v 0.078760 0.140315 0.051582
v 0.078801 0.059709 -0.017509
v 0.078787 0.036678 0.005522
v -0.001809 -0.026655 -0.011799
v 0.078760 -0.020897 0.051582
v 0.078787 -0.020897 0.005522
v 0.009706 -0.020897 -0.011792
v 0.009703 -0.136049 -0.006034
v 0.021225 -0.136049 -0.017543
v 0.021225 0.002133 -0.017543
v 0.044255 0.002133 -0.017529
v 0.044255 -0.136049 -0.017529
v 0.055767 -0.020897 -0.011765
v 0.055764 -0.136049 -0.006007
v 0.067258 -0.136049 0.028545
v 0.090288 -0.136049 0.028559
v 0.055733 -0.136049 0.045811
v 0.009669 -0.020897 0.051541
v 0.021187 -0.136049 0.045791
v 0.009686 -0.136049 0.022753
v -0.001829 -0.136049 0.022747
v 0.009696 -0.228170 0.005481
v -0.001819 -0.228170 0.005474
v 0.044255 -0.228170 -0.017529
v 0.055764 -0.228170 -0.006007
v 0.044228 -0.228170 0.028531
v 0.078794 -0.182109 -0.005994
v 0.078794 -0.228170 -0.005994
v 0.090295 -0.170594 0.017044
v 0.090299 -0.216655 0.011286
v 0.090309 -0.285746 -0.005987
v 0.090295 -0.320291 0.017044
v 0.067265 -0.274230 0.017030
v 0.061521 -0.262715 -0.006004
v 0.067282 -0.020897 -0.011758
v 0.090309 -0.136049 -0.005987
v 0.084552 -0.136049 -0.005990
v -0.001846 -0.020897 0.051534
v -0.001846 0.140315 0.051534
v -0.001853 0.439709 -0.029072
v -0.001812 -0.136049 -0.006041
v -0.013382 0.393648 -0.052095
v -0.013368 0.439709 -0.029065
v -0.001853 0.439709 -0.029072
v -0.024883 0.393648 -0.029058
v -0.013385 0.324557 -0.057853
v -0.001867 0.393648 -0.052102
v -0.024883 0.324557 -0.029058
v -0.007621 0.243951 -0.046341
v -0.001870 0.324557 -0.057860
v 0.009717 0.439709 -0.029065
v 0.009730 0.393648 -0.052095
v -0.001785 0.393648 -0.052102
v 0.021232 0.393648 -0.029058
v 0.009734 0.324557 -0.057853
v -0.001781 0.324557 -0.057860
v 0.021232 0.324557 -0.029058
v 0.003969 0.243951 -0.046341
v -0.001788 0.243951 -0.046345
v -0.001863 0.243951 -0.046345
v -0.001798 0.439709 -0.029072
v -0.082411 0.243951 0.051582
v -0.036351 0.243951 0.051555
v -0.036365 0.266981 0.028525
v 0.078759 0.243951 0.051582
v 0.067285 0.336072 -0.017515
v 0.032740 0.336072 -0.017536
v -0.036392 0.336072 -0.017536
v -0.070937 0.336072 -0.017515
v 0.032713 0.266981 0.028525
v 0.032699 0.243951 0.051555
v -0.094046 -0.285746 -0.149926
v -0.093961 -0.285746 -0.005987
v -0.093961 -0.136049 -0.005987
v -0.088203 -0.136049 -0.005990
v -0.094046 -0.239685 -0.149926
v -0.082445 -0.182109 -0.005994
v -0.082445 -0.228170 -0.005994
v -0.094046 -0.262715 -0.149926
v 0.090310 -0.285746 -0.005987
v 0.090395 -0.285746 -0.149926
v 0.090395 -0.239685 -0.149926
v 0.090310 -0.136049 -0.005987
v 0.084552 -0.136049 -0.005990
v 0.078794 -0.182109 -0.005994
v 0.090395 -0.262715 -0.149926
v 0.078794 -0.228170 -0.005994
v -0.324264 -0.124534 -0.005850
v -0.082439 0.036678 0.005522
v -0.099718 0.140315 -0.005983
v -0.082439 -0.020897 0.005522
v -0.082452 0.059709 -0.017509
v -0.070934 -0.020897 -0.011758
v -0.335779 -0.089988 -0.005843
v -0.093961 -0.136049 -0.005987
v -0.306991 -0.153322 -0.005860
v 0.320612 -0.124534 -0.005850
v 0.332127 -0.107261 -0.005843
v 0.332127 -0.089988 -0.005843
v 0.078787 0.036678 0.005522
v 0.078787 -0.020897 0.005522
v 0.067282 -0.020897 -0.011758
v 0.078801 0.059709 -0.017509
v 0.303340 -0.153322 -0.005860
v 0.090309 -0.136049 -0.005987
v -0.335779 -0.107261 -0.005843
v 0.096067 0.140315 -0.005983
vn -0.0321 -0.0236 -0.9992
vn 0.0006 0.0000 1.0000
vn -0.0411 0.0135 0.9991
vn -0.0006 -0.0000 1.0000
vn 0.0006 -0.0000 -1.0000
vn -0.1617 0.1224 -0.9792
vn 0.0098 -0.0555 -0.9984
vn -0.1358 -0.1229 0.9831
vn -0.0035 0.0555 0.9985
vn 0.0000 -1.0000 0.0000
vn 0.7058 -0.0707 0.7049
vn 0.0006 -0.0650 0.9979
vn -0.7022 -0.1126 0.7030
vn -0.9874 -0.1583 0.0006
vn -0.6931 -0.2012 -0.6922
vn -0.0006 -0.1917 -0.9814
vn 0.6975 -0.1608 -0.6983
vn 0.9950 -0.0997 -0.0006
vn -0.7058 -0.0707 0.7049
vn -0.0006 -0.0650 0.9979
vn 0.7022 -0.1126 0.7030
vn 0.9874 -0.1583 0.0006
vn 0.6931 -0.2012 -0.6922
vn 0.0006 -0.1917 -0.9814
vn -0.6975 -0.1608 -0.6983
vn -0.9950 -0.0997 -0.0006
vn -0.7057 -0.0707 0.7049
vn 0.6930 -0.2013 -0.6922
vn -0.0005 0.3714 -0.9285
vn -0.4154 0.3734 -0.8295
vn -0.9578 0.2874 0.0006
vn -0.6913 0.2075 0.6921
vn 0.0006 0.1961 0.9806
vn -0.0006 0.3162 -0.9487
vn -0.4291 0.2857 -0.8569
vn -0.9864 0.1644 0.0006
vn -0.7018 0.1170 0.7027
vn 0.0006 0.0830 0.9965
vn -0.0006 0.2425 -0.9701
vn -0.6967 0.1741 -0.6959
vn -0.5499 0.1374 -0.8238
vn -0.9981 0.0624 0.0006
vn -0.7060 0.0441 0.7068
vn 0.0006 0.0624 0.9981
vn -0.7075 0.0000 -0.7067
vn -1.0000 0.0000 0.0006
vn -0.8439 -0.0666 -0.5323
vn -0.7452 -0.0828 -0.6617
vn -0.0006 0.0000 -1.0000
vn 0.0004 0.7071 0.7071
vn -0.0007 -0.1843 -0.9829
vn -0.8301 -0.1186 -0.5448
vn -0.8299 0.2074 -0.5180
vn -0.9115 0.2279 0.3424
vn -0.5552 0.0000 -0.8317
vn -0.8687 0.1022 -0.4848
vn -0.9094 0.1070 0.4018
vn -0.7979 0.0665 0.5991
vn -0.7979 -0.0665 0.5991
vn -0.7059 -0.0683 -0.7050
vn -0.0269 -0.0525 -0.9983
vn 0.7062 -0.0353 -0.7071
vn 0.4467 0.0000 -0.8947
vn -0.4477 0.0000 -0.8942
vn -0.7071 -0.0353 -0.7062
vn -0.9950 -0.0995 0.0006
vn -0.8165 -0.1906 0.5450
vn 0.0006 -0.0499 0.9988
vn 0.8892 -0.1111 0.4439
vn 0.0006 -0.2425 0.9701
vn -0.0006 -0.1240 -0.9923
vn 1.0000 0.0000 -0.0006
vn 0.7067 0.0000 -0.7075
vn -0.8143 -0.2037 0.5435
vn 0.0006 -0.1843 0.9829
vn 0.8944 -0.0279 0.4465
vn 0.0006 -0.1240 0.9923
vn 0.9864 -0.1644 -0.0006
vn 0.4052 -0.5070 -0.7608
vn 0.8944 -0.4472 -0.0005
vn 0.9632 -0.2408 0.1198
vn -0.9884 0.1521 0.0005
vn -1.0000 0.0000 0.0005
vn -0.1567 -0.3124 -0.9369
vn -0.0006 -0.0712 -0.9975
vn -0.0006 -0.0499 -0.9988
vn -0.7067 0.0000 0.7075
vn 0.0005 0.3714 -0.9285
vn 0.4154 0.3734 -0.8295
vn 0.9578 0.2874 0.0006
vn 0.6913 0.2075 0.6921
vn -0.0006 0.1961 0.9806
vn 0.0006 0.3162 -0.9487
vn 0.5317 0.2878 -0.7965
vn 0.9864 0.1644 0.0006
vn 0.7018 0.1170 0.7027
vn -0.0006 0.0830 0.9965
vn 0.0006 0.2425 -0.9701
vn 0.6967 0.1741 -0.6959
vn 0.7014 0.1314 -0.7006
vn 0.9981 0.0624 0.0006
vn 0.7060 0.0442 0.7068
vn -0.0006 0.0624 0.9981
vn 0.7075 0.0000 -0.7067
vn 1.0000 0.0000 0.0006
vn 0.8439 -0.0666 -0.5323
vn 0.7452 -0.0828 -0.6616
vn -0.0004 0.7071 0.7071
vn 0.0007 -0.1843 -0.9829
vn 0.7040 -0.1005 -0.7031
vn 0.8299 0.2074 -0.5180
vn 0.9115 0.2279 0.3425
vn 0.5552 0.0000 -0.8317
vn 0.8687 0.1022 -0.4848
vn 0.9094 0.1070 0.4019
vn 0.7979 0.0665 0.5992
vn 0.7979 -0.0665 0.5992
vn 0.7059 -0.0683 -0.7050
vn 0.0256 -0.0499 -0.9984
vn -0.7062 -0.0353 -0.7071
vn -0.4467 0.0000 -0.8947
vn 0.4477 0.0000 -0.8942
vn 0.7071 -0.0353 -0.7063
vn 0.3715 -0.0464 -0.9273
vn 0.9950 -0.0995 0.0006
vn 0.8165 -0.1906 0.5450
vn -0.0006 -0.0499 0.9988
vn -0.8892 -0.1111 0.4439
vn -0.0006 -0.2425 0.9701
vn 0.0006 -0.1240 -0.9923
vn -1.0000 0.0000 -0.0006
vn -0.7067 0.0000 -0.7075
vn 0.6900 -0.2158 0.6909
vn -0.0006 -0.1843 0.9829
vn -0.7068 -0.0441 0.7060
vn 1.0000 0.0000 0.0005
vn -0.9864 -0.1644 -0.0006
vn -0.4052 -0.5070 -0.7608
vn -0.8944 -0.4472 -0.0005
vn -0.9632 -0.2408 0.1198
vn 0.9884 0.1521 0.0006
vn 0.9405 0.1882 0.2828
vn 0.0172 -0.0333 -0.9993
vn 0.0006 -0.2425 -0.9701
vn 0.0006 -0.0499 -0.9988
vn 0.7067 0.0000 0.7075
vn -0.5282 0.3079 -0.7913
vn -0.6967 -0.1741 -0.6959
vn -0.6959 -0.1741 0.6967
vn 0.7014 -0.1314 0.7005
vn 0.1244 -0.0619 0.9903
vn 0.1965 -0.0490 0.9793
vn -0.9861 0.1591 0.0483
vn 0.2217 -0.0171 -0.9750
vn -0.2203 -0.1318 -0.9665
vn 0.4245 0.3180 -0.8477
vn 0.5470 0.1708 -0.8195
vn 0.8189 -0.1549 -0.5526
vn 0.0006 -0.0526 -0.9986
vn 0.8195 -0.1708 0.5470
vn -0.8916 -0.0836 0.4451
vn -0.0006 -0.0624 0.9981
vn -0.2421 -0.0906 0.9660
vn 0.9923 0.1240 0.0006
vn -0.3969 -0.0306 -0.9174
vn 0.1543 -0.0922 -0.9837
vn -0.0005 0.4472 -0.8944
vn -0.8731 0.2182 -0.4359
vn -0.0006 0.0831 -0.9965
vn -0.8947 0.0000 -0.4467
vn -0.0006 -0.1414 -0.9899
vn -0.9222 -0.1185 -0.3682
vn 0.0005 0.4472 -0.8944
vn 0.8731 0.2182 -0.4359
vn 0.0006 0.0831 -0.9965
vn 0.9287 0.0000 -0.3708
vn 0.0007 -0.1414 -0.9899
vn 0.9222 -0.1185 -0.3682
vn -0.9283 0.0309 -0.3707
vn -0.0007 -0.1414 -0.9899
vn 0.8941 0.0373 -0.4464
vn 0.0006 -0.1414 -0.9899
vn -0.0005 0.6000 0.8000
vn 0.0005 0.5547 0.8321
vn 0.1074 0.5880 0.8017
vn -1.0000 -0.0000 -0.0007
vn -0.0003 0.8115 -0.5843
vn 0.9840 0.1230 -0.1285
vn 0.9968 0.0000 -0.0803
vn 0.0003 0.8115 -0.5843
vn -0.9840 0.1230 -0.1285
vn -0.9968 0.0000 -0.0803
vn 0.9806 -0.1961 -0.0006
vn -0.9801 -0.1960 -0.0319
vn -0.1078 0.0919 0.9899
vn -0.0470 0.0000 0.9989
vn 0.0055 -0.0704 -0.9975
vn -0.1143 0.1166 -0.9866
vn 0.0470 0.0000 0.9989
vn -0.0055 -0.0704 -0.9975
vn -0.0035 -0.0508 -0.9987
vn 0.0373 -0.0227 0.9990
vn -0.0322 -0.0210 -0.9993
vn -0.0460 0.0000 -0.9989
vn -0.0031 -0.0494 -0.9988
vn -0.0044 -0.0990 0.9951
vn 0.0918 0.0947 0.9913
vn 0.0383 -0.0130 0.9992
vn 0.1330 0.1123 -0.9847
vn 0.0188 -0.0109 -0.9998
vn -0.0087 -0.1003 0.9949
usemtl None
s off
f 4//1 1//1 5//1
f 4//2 6//2 3//2
f 7//3 9//3 8//3
f 8//4 11//4 10//4
f 10//5 7//5 8//5
f 3//6 5//6 1//6
f 5//7 6//7 4//7
f 3//2 2//2 1//2
f 3//2 1//2 4//2
f 9//8 7//8 12//8
f 11//9 8//9 9//9
f 7//5 11//5 12//5
f 7//5 10//5 11//5
f 13//10 14//10 15//10
f 16//11 17//11 18//11
f 19//12 16//12 20//12
f 21//13 19//13 22//13
f 23//14 21//14 24//14
f 13//15 23//15 25//15
f 14//16 13//16 26//16
f 15//17 14//17 27//17
f 17//18 15//18 28//18
f 29//10 30//10 31//10
f 31//19 30//19 32//19
f 30//20 29//20 33//20
f 29//21 34//21 35//21
f 34//22 36//22 37//22
f 36//23 38//23 39//23
f 38//24 40//24 41//24
f 40//25 42//25 43//25
f 42//26 31//26 44//26
f 15//10 17//10 16//10
f 15//10 16//10 19//10
f 15//10 19//10 21//10
f 15//10 21//10 23//10
f 15//10 23//10 13//10
f 18//11 20//11 16//11
f 20//12 22//12 19//12
f 22//13 24//13 21//13
f 24//14 25//14 23//14
f 25//15 26//15 13//15
f 26//16 27//16 14//16
f 27//17 28//17 15//17
f 28//18 18//18 17//18
f 31//10 42//10 40//10
f 31//10 40//10 38//10
f 31//10 38//10 36//10
f 31//10 36//10 34//10
f 31//10 34//10 29//10
f 32//27 44//27 31//27
f 33//20 32//20 30//20
f 35//21 33//21 29//21
f 37//22 35//22 34//22
f 39//28 37//28 36//28
f 41//24 39//24 38//24
f 43//25 41//25 40//25
f 44//26 43//26 42//26
f 45//29 46//29 47//29
f 46//30 48//30 47//30
f 48//31 49//31 47//31
f 49//32 50//32 47//32
f 50//33 51//33 47//33
f 52//34 46//34 45//34
f 53//35 48//35 46//35
f 54//36 49//36 48//36
f 55//37 50//37 49//37
f 55//38 56//38 51//38
f 57//39 52//39 58//39
f 57//40 59//40 52//40
f 60//41 53//41 52//41
f 61//42 54//42 53//42
f 62//43 55//43 54//43
f 62//44 63//44 56//44
f 64//45 60//45 59//45
f 65//46 61//46 60//46
f 66//46 65//46 64//46
f 67//2 68//2 63//2
f 69//47 70//47 71//47
f 70//48 64//48 71//48
f 72//49 73//49 64//49
f 74//49 72//49 70//49
f 67//50 66//50 75//50
f 76//51 69//51 77//51
f 78//52 70//52 69//52
f 79//49 74//49 70//49
f 80//53 81//53 74//53
f 80//54 82//54 81//54
f 79//55 83//55 74//55
f 83//56 80//56 74//56
f 80//57 83//57 82//57
f 83//58 84//58 82//58
f 85//46 86//46 82//46
f 87//55 83//55 79//55
f 88//59 84//59 83//59
f 89//60 78//60 76//60
f 90//46 85//46 84//46
f 91//61 89//61 92//61
f 93//62 94//62 91//62
f 94//63 95//63 91//63
f 96//49 97//49 95//49
f 96//64 98//64 97//64
f 96//65 99//65 98//65
f 100//33 101//33 102//33
f 101//66 90//66 102//66
f 101//67 103//67 90//67
f 104//68 105//68 90//68
f 104//69 106//69 105//69
f 105//70 106//70 107//70
f 108//71 93//71 92//71
f 108//72 28//72 93//72
f 27//73 94//73 93//73
f 109//49 96//49 94//49
f 110//45 99//45 96//45
f 22//74 103//74 101//74
f 20//75 104//75 103//75
f 111//76 106//76 104//76
f 111//72 108//72 106//72
f 108//75 112//75 107//75
f 113//49 114//49 99//49
f 115//46 116//46 117//46
f 116//46 118//46 100//46
f 24//77 101//77 100//77
f 119//49 120//49 121//49
f 24//78 119//78 110//78
f 119//79 118//79 120//79
f 119//80 122//80 118//80
f 122//81 119//81 24//81
f 73//82 72//82 81//82
f 81//46 82//46 86//46
f 72//83 74//83 81//83
f 89//84 91//84 95//84
f 95//49 97//49 79//49
f 79//49 97//49 87//49
f 98//85 123//85 87//85
f 114//86 117//86 123//86
f 98//86 99//86 114//86
f 110//49 121//49 113//49
f 116//46 100//46 117//46
f 120//46 118//46 115//46
f 107//70 124//70 105//70
f 105//2 124//2 125//2
f 66//87 67//87 62//87
f 125//2 75//2 86//2
f 126//88 127//88 128//88
f 126//89 129//89 127//89
f 126//90 130//90 129//90
f 126//91 131//91 130//91
f 126//92 132//92 131//92
f 127//93 133//93 134//93
f 129//94 135//94 133//94
f 130//95 136//95 135//95
f 131//96 137//96 136//96
f 138//97 137//97 131//97
f 133//98 139//98 140//98
f 133//99 141//99 139//99
f 135//100 142//100 141//100
f 136//101 143//101 142//101
f 137//102 144//102 143//102
f 145//103 144//103 137//103
f 142//104 146//104 147//104
f 143//105 148//105 146//105
f 146//105 148//105 149//105
f 150//4 151//4 144//4
f 147//106 152//106 153//106
f 147//107 146//107 152//107
f 154//5 155//5 152//5
f 152//5 155//5 156//5
f 157//108 149//108 151//108
f 158//109 153//109 159//109
f 152//110 160//110 159//110
f 156//5 161//5 160//5
f 156//111 162//111 163//111
f 162//112 164//112 163//112
f 156//113 165//113 161//113
f 156//114 163//114 165//114
f 164//115 165//115 163//115
f 164//116 166//116 165//116
f 167//105 168//105 166//105
f 161//113 165//113 169//113
f 165//117 166//117 170//117
f 159//118 160//118 171//118
f 172//105 173//105 170//105
f 171//119 174//119 175//119
f 174//120 176//120 175//120
f 174//121 177//121 176//121
f 178//5 179//5 176//5
f 178//122 180//122 179//122
f 180//123 181//123 179//123
f 178//124 180//124 181//124
f 173//92 182//92 183//92
f 173//125 172//125 182//125
f 172//126 184//126 182//126
f 185//127 186//127 184//127
f 185//128 187//128 186//128
f 188//129 187//129 185//129
f 175//130 189//130 190//130
f 175//131 43//131 189//131
f 176//132 41//132 43//132
f 179//5 191//5 41//5
f 181//104 192//104 191//104
f 184//133 193//133 35//133
f 186//134 32//134 193//134
f 187//135 44//135 32//135
f 187//131 189//131 44//131
f 190//134 189//134 187//134
f 194//5 195//5 192//5
f 196//136 197//136 198//136
f 183//105 199//105 196//105
f 35//4 200//4 199//4
f 198//5 201//5 192//5
f 192//137 201//137 35//137
f 198//138 199//138 201//138
f 199//139 200//139 201//139
f 35//140 201//140 200//140
f 162//141 155//141 154//141
f 164//142 162//142 154//142
f 162//105 156//105 155//105
f 174//143 171//143 160//143
f 178//5 177//5 160//5
f 169//5 178//5 161//5
f 202//144 180//144 178//144
f 203//145 204//145 180//145
f 204//145 181//145 180//145
f 204//4 181//4 194//4
f 195//4 181//4 192//4
f 203//105 183//105 196//105
f 197//105 199//105 198//105
f 185//129 205//129 188//129
f 185//4 172//4 168//4
f 151//146 148//146 143//146
f 150//4 206//4 168//4
f 45//34 58//34 52//34
f 46//147 52//147 53//147
f 48//36 53//36 54//36
f 49//37 54//37 55//37
f 51//38 50//38 55//38
f 58//39 207//39 57//39
f 52//40 59//40 60//40
f 53//42 60//42 61//42
f 54//43 61//43 62//43
f 56//44 55//44 62//44
f 59//45 71//45 64//45
f 60//46 64//46 65//46
f 63//2 62//2 67//2
f 64//49 70//49 72//49
f 69//148 76//148 78//148
f 70//49 78//49 79//49
f 82//46 84//46 85//46
f 84//46 88//46 102//46
f 84//46 102//46 90//46
f 92//86 93//86 91//86
f 95//49 94//49 96//49
f 90//68 103//68 104//68
f 92//71 112//71 108//71
f 93//73 28//73 27//73
f 94//49 27//49 109//49
f 96//45 109//45 110//45
f 101//149 24//149 22//149
f 103//75 22//75 20//75
f 104//150 20//150 111//150
f 107//75 106//75 108//75
f 99//2 121//2 110//2
f 99//2 113//2 121//2
f 117//46 120//46 115//46
f 100//151 118//151 122//151
f 100//152 122//152 24//152
f 121//49 110//49 119//49
f 86//153 73//153 81//153
f 95//154 78//154 89//154
f 79//49 78//49 95//49
f 87//155 97//155 98//155
f 123//86 98//86 114//86
f 113//49 99//49 110//49
f 125//2 85//2 90//2
f 125//2 90//2 105//2
f 62//87 61//87 65//87
f 62//87 65//87 66//87
f 86//2 85//2 125//2
f 125//2 68//2 67//2
f 125//2 67//2 75//2
f 134//93 128//93 127//93
f 133//156 127//156 129//156
f 135//95 129//95 130//95
f 136//96 130//96 131//96
f 131//97 132//97 138//97
f 140//98 134//98 133//98
f 141//157 133//157 135//157
f 142//101 135//101 136//101
f 143//102 136//102 137//102
f 137//103 138//103 145//103
f 147//104 141//104 142//104
f 146//105 142//105 143//105
f 144//4 145//4 150//4
f 152//5 146//5 154//5
f 159//158 153//158 152//158
f 160//5 152//5 156//5
f 166//105 164//105 167//105
f 170//105 166//105 168//105
f 170//105 168//105 172//105
f 175//159 208//159 171//159
f 176//5 177//5 178//5
f 181//104 179//104 178//104
f 184//127 172//127 185//127
f 190//130 208//130 175//130
f 43//132 175//132 176//132
f 41//5 176//5 179//5
f 191//104 179//104 181//104
f 35//160 182//160 184//160
f 193//134 184//134 186//134
f 32//161 186//161 187//161
f 187//134 188//134 190//134
f 192//5 181//5 204//5
f 192//5 204//5 194//5
f 198//105 203//105 196//105
f 199//162 183//162 182//162
f 199//163 182//163 35//163
f 192//5 195//5 198//5
f 154//164 167//164 164//164
f 160//165 177//165 174//165
f 160//5 161//5 178//5
f 178//166 169//166 202//166
f 180//145 202//145 203//145
f 181//4 195//4 194//4
f 168//4 206//4 205//4
f 168//4 205//4 185//4
f 143//146 144//146 151//146
f 151//146 149//146 148//146
f 168//4 167//4 157//4
f 168//4 157//4 151//4
f 168//4 151//4 150//4
f 209//167 210//167 211//167
f 209//168 212//168 210//168
f 213//169 209//169 214//169
f 215//170 212//170 209//170
f 216//171 213//171 217//171
f 216//172 215//172 213//172
f 218//173 219//173 220//173
f 218//174 221//174 219//174
f 219//175 222//175 223//175
f 221//176 224//176 222//176
f 222//177 225//177 226//177
f 222//178 224//178 225//178
f 211//167 214//167 209//167
f 214//169 217//169 213//169
f 209//179 213//179 215//179
f 217//180 227//180 216//180
f 220//173 228//173 218//173
f 223//175 220//175 219//175
f 222//181 219//181 221//181
f 226//182 223//182 222//182
f 229//50 230//50 231//50
f 232//183 233//183 234//183
f 231//184 235//184 236//184
f 231//185 236//185 229//185
f 234//186 237//186 238//186
f 234//183 238//183 232//183
f 239//46 240//46 241//46
f 242//187 243//187 241//187
f 244//188 243//188 242//188
f 245//189 246//189 243//189
f 239//189 246//189 245//189
f 247//105 248//105 249//105
f 250//190 249//190 251//190
f 251//191 249//191 252//191
f 253//192 254//192 252//192
f 253//131 248//131 247//131
f 241//46 243//46 239//46
f 243//189 244//189 245//189
f 245//193 240//193 239//193
f 249//105 250//105 247//105
f 252//192 249//192 253//192
f 247//194 254//194 253//194
f 255//195 256//195 257//195
f 255//196 258//196 256//196
f 259//197 260//197 255//197
f 261//198 257//198 259//198
f 255//2 263//2 262//2
f 264//4 265//4 266//4
f 267//199 268//199 264//199
f 264//200 269//200 270//200
f 271//201 272//201 269//201
f 271//202 264//202 268//202
f 257//2 261//2 273//2
f 257//2 273//2 255//2
f 259//203 255//203 273//203
f 259//204 273//204 261//204
f 255//205 260//205 262//205
f 262//206 258//206 255//206
f 266//207 274//207 267//207
f 266//208 267//208 264//208
f 264//209 270//209 274//209
f 264//5 274//5 266//5
f 269//210 264//210 271//210
f 268//211 272//211 271//211
