# Blender v2.79 (sub 0) OBJ File: ''
# www.blender.org
mtllib m1231.mtl
o m1231
v -0.084429 0.115383 0.045107
v -0.058973 0.115383 0.045107
v -0.042018 0.157771 0.011174
v -0.101384 0.140816 0.011174
v 0.059760 0.115383 0.045107
v 0.085216 0.115383 0.045107
v 0.102171 0.140816 0.011174
v 0.042805 0.157771 0.011174
v 0.000393 0.598861 0.011174
v -0.025039 0.547972 0.011174
v -0.016562 0.497060 0.036607
v 0.025826 0.547972 0.011174
v 0.017349 0.497060 0.036607
v 0.017349 0.361349 0.036607
v 0.042805 0.327416 0.011174
v 0.017349 0.022084 0.036607
v -0.016562 0.022084 0.036607
v -0.042018 0.327416 0.011174
v -0.016562 0.361349 0.036607
v 0.102171 -0.317205 0.011174
v -0.101384 -0.317205 0.011174
v -0.084429 -0.334160 0.011174
v -0.067450 -0.317205 0.011174
v 0.000393 -0.351139 0.011174
v 0.034304 -0.317205 0.011174
v -0.033517 -0.317205 0.011174
v 0.085216 -0.334160 0.011174
v 0.068237 -0.317205 0.011174
v 0.102171 -0.147561 0.011174
v 0.305749 0.005128 0.011174
v 0.305749 0.056017 0.011174
v 0.042805 0.259572 0.011174
v -0.304962 0.005128 0.011174
v -0.101384 -0.147561 0.011174
v -0.042018 0.259572 0.011174
v -0.304962 0.056017 0.011174
v -0.025039 0.361349 -0.014282
v -0.025039 0.420739 -0.014282
v 0.000393 0.395283 -0.056670
v 0.000393 0.352872 -0.056670
v -0.016562 0.327416 -0.048193
v 0.000393 0.471628 -0.022760
v 0.025826 0.420739 -0.014282
v 0.025826 0.361349 -0.014282
v 0.017349 0.327416 -0.048193
v 0.237882 -0.283272 -0.124538
v 0.237882 -0.317205 -0.124538
v 0.153060 -0.351139 -0.039715
v 0.068237 -0.181494 -0.039715
v -0.237095 -0.283272 -0.124538
v -0.152273 -0.351139 -0.039715
v -0.237095 -0.317205 -0.124538
v -0.067450 -0.181494 -0.039715
v 0.000393 -0.147561 0.011174
v -0.033517 -0.181494 -0.039715
v 0.034304 -0.181494 -0.039715
v -0.033517 -0.215428 -0.027010
v -0.050495 -0.236634 -0.018509
v -0.067450 -0.215428 -0.027010
v 0.068237 -0.215428 -0.027010
v 0.051282 -0.236634 -0.018509
v 0.034304 -0.215428 -0.027010
v -0.042018 0.022084 -0.039715
v -0.058973 0.022084 -0.039715
v 0.059760 0.022084 -0.039715
v 0.042805 0.022084 -0.039715
v -0.101384 -0.079694 0.011174
v 0.102171 -0.079694 0.011174
v 0.000393 -0.079694 0.011174
v -0.058973 0.157771 0.011174
v 0.059760 0.157771 0.011174
v -0.016562 0.225638 -0.048193
v 0.017349 0.225638 -0.048193
v -0.067450 -0.214412 -0.025347
v -0.050495 -0.234716 -0.017239
v -0.033517 -0.214412 -0.025347
v 0.034304 -0.214412 -0.025347
v 0.051282 -0.234716 -0.017239
v 0.068237 -0.214412 -0.025347
vn 0.0000 0.6250 0.7807
vn 0.0000 0.8002 0.5997
vn -0.5746 0.2872 0.7664
vn 0.5746 0.2872 0.7664
vn 0.7427 0.0572 0.6671
vn 0.0000 0.0000 1.0000
vn 0.0000 0.2424 0.9702
vn -0.7427 0.0572 0.6671
vn -0.7068 0.0000 0.7074
vn 0.7068 0.0000 0.7074
vn 0.6979 0.2563 0.6688
vn -0.6979 0.2563 0.6688
vn 0.8946 0.0000 0.4470
vn -0.8946 0.0000 0.4470
vn 0.0000 0.0000 -1.0000
vn 0.0000 -0.0907 0.9959
vn -0.8575 0.0000 -0.5145
vn -0.7450 0.2708 -0.6096
vn 0.7450 0.2708 -0.6096
vn 0.8575 0.0000 -0.5145
vn 0.0000 -0.3159 -0.9488
vn -0.7071 0.0000 -0.7071
vn 0.8689 -0.1738 -0.4635
vn -0.7071 0.0000 0.7071
vn -0.8689 -0.1738 -0.4635
vn 0.8690 -0.1737 -0.4633
vn -0.8690 -0.1737 -0.4633
vn 0.0000 -0.3506 -0.9365
vn -0.7995 0.0333 -0.5997
vn 0.7995 0.0333 -0.5997
vn 0.7996 0.0334 -0.5996
vn -0.7996 0.0334 -0.5996
vn 0.0000 0.3512 -0.9363
vn -0.8913 0.1592 -0.4245
vn 0.8913 0.1592 -0.4245
vn -0.8355 -0.1492 -0.5288
vn 0.8355 -0.1492 -0.5288
vn -0.9191 0.0000 -0.3941
vn 0.9191 0.0000 -0.3941
vn -0.9069 0.1621 -0.3889
vn 0.9069 0.1621 -0.3889
vn 0.8689 0.0669 -0.4904
vn -0.8689 0.0669 -0.4904
vn -0.6422 0.1975 -0.7407
vn 0.6422 0.1975 -0.7407
vn 0.0000 -0.1909 -0.9816
vn 0.0496 -0.3344 -0.9411
vn 0.7071 -0.0000 -0.7071
vn 0.7071 0.0000 0.7071
vn -0.2084 0.7298 0.6511
vn 0.1881 0.6586 0.7287
vn 0.9487 0.0000 0.3162
vn -0.9487 0.0000 0.3162
vn 0.0165 -0.0788 0.9968
vn 0.0000 -0.0747 0.9972
vn -0.0112 -0.0786 0.9968
vn 0.0000 0.0907 -0.9959
vn -0.7753 0.3389 -0.5330
vn 0.8997 0.1748 -0.3999
vn 0.4472 0.0000 -0.8944
vn -0.0137 -0.3626 -0.9319
vn 0.0310 -0.3505 -0.9361
vn 0.0309 -0.3505 -0.9361
vn -0.8320 0.0000 -0.5548
vn 0.8320 0.0000 -0.5548
vn 0.8322 0.0000 -0.5545
vn -0.8322 0.0000 -0.5545
vn 1.0000 0.0000 0.0000
vn -1.0000 0.0000 0.0000
vn -0.3654 0.1826 -0.9128
vn 0.3654 0.1826 -0.9128
vn -0.0825 -0.3094 -0.9474
vn 0.0000 -0.3348 -0.9423
vn -0.0826 -0.3093 -0.9474
usemtl None
s off
f 1//1 2//1 3//1
f 5//2 6//2 7//2
f 9//3 10//3 11//3
f 12//4 9//4 13//4
f 14//5 15//5 12//5
f 16//6 13//6 11//6
f 13//7 9//7 11//7
f 10//8 18//8 19//8
f 3//9 17//9 19//9
f 15//10 14//10 16//10
f 17//11 3//11 2//11
f 5//12 8//12 16//12
f 20//13 7//13 6//13
f 1//14 4//14 21//14
f 21//15 23//15 22//15
f 24//15 26//15 25//15
f 27//15 28//15 20//15
f 7//6 29//6 30//6
f 33//6 34//6 4//6
f 17//16 2//16 1//16
f 37//17 38//17 39//17
f 42//18 39//18 38//18
f 42//19 43//19 39//19
f 39//20 43//20 44//20
f 40//21 45//21 41//21
f 20//22 29//22 46//22
f 28//15 29//15 20//15
f 28//23 49//23 29//23
f 50//24 21//24 34//24
f 21//15 34//15 23//15
f 34//25 53//25 23//25
f 26//15 54//15 25//15
f 26//26 55//26 54//26
f 25//27 54//27 56//27
f 53//28 55//28 57//28
f 56//28 49//28 60//28
f 63//15 55//15 53//15
f 65//15 49//15 56//15
f 67//29 64//29 53//29
f 49//30 65//30 68//30
f 55//31 63//31 69//31
f 69//32 66//32 56//32
f 64//33 70//33 3//33
f 66//33 8//33 71//33
f 64//34 67//34 70//34
f 69//35 63//35 3//35
f 69//34 8//34 66//34
f 65//35 71//35 68//35
f 69//36 3//36 72//36
f 69//37 73//37 8//37
f 72//38 3//38 18//38
f 15//39 8//39 73//39
f 37//40 41//40 18//40
f 45//41 44//41 15//41
f 12//42 15//42 44//42
f 37//43 18//43 10//43
f 9//44 42//44 38//44
f 43//45 42//45 9//45
f 41//15 45//15 73//15
f 72//46 73//46 69//46
f 23//47 74//47 75//47
f 25//47 77//47 78//47
f 52//48 21//48 51//48
f 48//49 47//49 46//49
f 8//15 32//15 31//15
f 36//15 35//15 3//15
f 1//50 3//50 4//50
f 5//51 7//51 8//51
f 14//52 12//52 13//52
f 16//6 11//6 17//6
f 10//53 19//53 11//53
f 3//9 19//9 18//9
f 15//10 16//10 8//10
f 7//6 30//6 31//6
f 7//6 31//6 32//6
f 7//6 32//6 8//6
f 33//15 4//15 3//15
f 33//6 3//6 35//6
f 33//6 35//6 36//6
f 17//54 1//54 21//54
f 17//55 21//55 20//55
f 17//56 20//56 6//56
f 17//16 6//16 5//16
f 17//57 5//57 16//57
f 37//17 39//17 40//17
f 37//58 40//58 41//58
f 39//59 44//59 45//59
f 39//60 45//60 40//60
f 20//22 46//22 47//22
f 20//22 47//22 48//22
f 50//24 51//24 21//24
f 50//24 52//24 51//24
f 53//61 57//61 58//61
f 53//62 58//62 59//62
f 56//61 60//61 61//61
f 56//63 61//63 62//63
f 63//15 53//15 64//15
f 65//15 56//15 66//15
f 67//64 53//64 34//64
f 49//65 68//65 29//65
f 55//66 69//66 54//66
f 69//67 56//67 54//67
f 64//33 3//33 63//33
f 66//33 71//33 65//33
f 72//38 18//38 41//38
f 15//39 73//39 45//39
f 12//68 44//68 43//68
f 37//69 10//69 38//69
f 9//70 38//70 10//70
f 43//71 9//71 12//71
f 41//15 73//15 72//15
f 23//72 75//72 76//72
f 23//73 76//73 26//73
f 25//74 78//74 79//74
f 25//73 79//73 28//73
f 52//48 34//48 21//48
f 52//48 50//48 34//48
f 48//49 46//49 29//49
f 48//49 29//49 20//49
f 8//15 31//15 30//15
f 8//15 30//15 29//15
f 8//6 29//6 68//6
f 8//6 68//6 71//6
f 36//6 3//6 70//6
f 36//15 70//15 67//15
f 36//15 67//15 34//15
f 36//15 34//15 33//15
