# Blender v2.79 (sub 0) OBJ File: ''
# www.blender.org
mtllib m1244.mtl
o m1244
v -0.008444 -0.428892 0.030675
v -0.016185 -0.376114 0.033490
v -0.024630 -0.376114 0.021527
v -0.014074 -0.428892 0.021527
v -0.000000 -0.428892 0.032083
v -0.000000 -0.376114 0.035601
v -0.000000 0.384589 -0.069954
v -0.000000 0.269886 -0.071362
v -0.000000 0.393034 -0.183250
v -0.000000 -0.488707 0.021527
v 0.010556 -0.429596 0.006046
v 0.014074 -0.428892 0.021527
v -0.000000 -0.428892 0.000416
v 0.019704 -0.376818 0.000416
v 0.024630 -0.376114 0.021527
v -0.000000 -0.376114 -0.010139
v 0.032370 -0.168522 0.010972
v 0.026741 -0.168522 0.014490
v 0.025333 -0.210744 0.003935
v 0.035185 -0.168522 0.003935
v -0.025333 -0.210744 0.003935
v -0.030259 -0.168522 -0.002399
v -0.023222 -0.168522 -0.007325
v -0.035185 -0.168522 0.003935
v -0.032370 -0.168522 0.010972
v -0.026741 -0.168522 0.014490
v 0.030259 -0.168522 -0.002399
v 0.023222 -0.168522 -0.007325
v 0.008444 -0.428892 0.030675
v 0.016185 -0.376114 0.033490
v -0.010556 -0.429596 0.006046
v -0.019704 -0.376818 0.000416
v -0.064741 0.288182 0.035601
v -0.235037 0.290997 0.035601
v -0.145667 0.146737 0.035601
v -0.053481 0.165737 0.035601
v -0.061222 0.010219 0.035601
v 0.064741 0.288182 0.035601
v 0.235037 0.290997 0.035601
v 0.145667 0.146737 0.035601
v 0.053482 0.165737 0.035601
v 0.061222 0.010219 0.035601
v -0.052778 -0.133337 -0.027028
v -0.066852 -0.133337 0.003935
v -0.059815 -0.045374 0.003935
v -0.040111 -0.045374 -0.038287
v -0.053481 -0.105188 0.031379
v -0.035889 -0.105188 0.035601
v -0.040111 -0.045374 0.035601
v -0.047852 -0.045374 0.033490
v -0.016889 -0.045374 -0.043213
v -0.017593 -0.045374 -0.041806
v -0.010556 0.123515 -0.048843
v -0.000000 -0.045374 -0.052362
v -0.000000 0.123515 -0.048843
v -0.000000 0.108737 -0.049547
v -0.014074 -0.045374 0.042638
v -0.000000 -0.045374 0.046157
v -0.000000 0.123515 0.042638
v -0.035185 0.123515 -0.027732
v -0.018296 0.123515 -0.047436
v -0.042222 0.123515 0.003935
v -0.030259 0.123515 0.034194
v -0.023222 0.123515 0.035601
v -0.010556 0.179812 -0.048843
v -0.000000 0.179812 -0.048843
v -0.018296 0.179812 -0.047436
v -0.035185 0.179812 -0.027732
v -0.042222 0.179812 0.003935
v -0.030259 0.179812 0.034194
v -0.023222 0.179812 0.035601
v -0.034481 0.281849 -0.043917
v -0.000000 0.281849 -0.048843
v -0.045741 0.281849 0.003935
v -0.034481 0.281849 0.032787
v -0.022518 0.281849 0.035601
v -0.032370 0.401478 -0.041806
v -0.000000 0.401478 -0.045324
v -0.042222 0.401478 0.000416
v -0.033778 0.327589 0.030675
v -0.032370 0.402182 0.026453
v -0.000000 0.327589 0.040527
v -0.014778 0.327589 0.035601
v -0.000000 0.281849 0.042638
v -0.000000 0.433145 -0.203658
v -0.020407 -0.169226 -0.025621
v -0.049259 -0.168522 -0.020695
v -0.018296 -0.134744 -0.033362
v -0.022518 -0.331077 -0.004510
v -0.000000 -0.330374 -0.017176
v -0.028148 -0.330374 0.021527
v -0.028148 -0.239596 0.021527
v -0.021111 -0.238892 -0.020695
v -0.000000 0.179812 0.042638
v -0.055593 -0.133337 0.030675
v -0.015481 -0.134040 0.040527
v -0.015481 -0.105188 0.040527
v -0.017593 -0.330374 0.036305
v -0.013370 -0.168522 0.043342
v -0.000000 -0.168522 0.046157
v -0.161852 0.086923 0.035601
v -0.292037 0.320552 0.035601
v -0.288519 0.278330 0.035601
v -0.000000 -0.168522 -0.055880
v -0.017593 -0.169226 -0.045324
v 0.292037 0.320552 0.035601
v 0.014778 0.327589 0.035601
v 0.288519 0.278330 0.035601
v 0.161852 0.086923 0.035601
v 0.035889 -0.105188 0.035601
v 0.028148 -0.330374 0.021527
v 0.017593 -0.330374 0.036305
v -0.000000 -0.330374 0.039120
v 0.028148 -0.239596 0.021527
v 0.028148 -0.210744 0.021527
v 0.028148 -0.168522 0.021527
v 0.019000 -0.168522 0.035601
v 0.013370 -0.168522 0.043342
v 0.040111 -0.045374 -0.038287
v 0.010556 0.123515 -0.048843
v 0.018296 0.123515 -0.047436
v 0.021111 -0.238892 -0.020695
v 0.021111 -0.210744 -0.024213
v 0.017593 -0.045374 -0.041806
v -0.021111 -0.210744 -0.024213
v -0.028148 -0.210744 0.021527
v -0.028148 -0.168522 0.021527
v 0.020407 -0.169226 -0.025621
v 0.040111 -0.045374 0.035601
v 0.014074 -0.045374 0.042638
v 0.015482 -0.105188 0.040527
v 0.015482 -0.134040 0.040527
v 0.055593 -0.133337 0.030675
v 0.053482 -0.105188 0.031379
v 0.023222 0.123515 0.035601
v 0.023222 0.179812 0.035601
v 0.022519 0.281849 0.035601
v 0.017593 -0.169226 -0.045324
v 0.016889 -0.045374 -0.043213
v 0.034482 0.281849 0.032787
v 0.033778 0.327589 0.030675
v 0.018296 -0.134744 -0.033362
v 0.052778 -0.133337 -0.027028
v 0.049259 -0.168522 -0.020695
v 0.066852 -0.133337 0.003935
v 0.059815 -0.168522 0.003935
v 0.049259 -0.168522 0.028564
v 0.059815 -0.045374 0.003935
v 0.047852 -0.045374 0.033490
v 0.035185 0.123515 -0.027732
v 0.042222 0.123515 0.003935
v 0.030259 0.123515 0.034194
v 0.010556 0.179812 -0.048843
v 0.018296 0.179812 -0.047436
v 0.035185 0.179812 -0.027732
v 0.042222 0.179812 0.003935
v 0.030259 0.179812 0.034194
v 0.034482 0.281849 -0.043917
v 0.045741 0.281849 0.003935
v 0.032370 0.401478 -0.041806
v 0.042222 0.401478 0.000416
v 0.032370 0.402182 0.026453
v -0.019000 -0.168522 0.035601
v 0.022519 -0.331077 -0.004510
v -0.000000 0.401478 0.035601
v -0.016889 -0.321929 -0.007325
v -0.000000 0.390923 -0.217732
v -0.000000 0.250182 -0.087547
v -0.000000 0.193886 -0.055880
v -0.049259 -0.168522 0.028564
v -0.059815 -0.168522 0.003935
v 0.016889 -0.321929 -0.007325
v 0.031667 0.461293 -0.003102
v 0.022519 0.461293 0.022231
v -0.031667 0.461293 -0.003102
v -0.023926 0.461293 -0.039695
v -0.022518 0.461293 0.022231
v -0.000000 0.461293 0.028564
v -0.000000 0.461293 -0.041806
v 0.023926 0.461293 -0.039695
v -0.019000 -0.210744 -0.047436
v -0.000000 -0.210744 -0.059399
v -0.000000 -0.238892 -0.059399
v -0.019000 -0.238892 -0.046732
v 0.019000 -0.238892 -0.046732
v 0.019000 -0.210744 -0.047436
vn -0.8078 -0.1489 0.5703
vn -0.1291 -0.0660 0.9894
vn 0.9525 -0.2241 -0.2063
vn 0.4333 -0.3000 -0.8499
vn -0.8350 -0.1965 0.5139
vn -0.1620 -0.1715 0.9718
vn 0.9576 -0.1891 -0.2171
vn 0.4602 -0.1741 -0.8706
vn 0.5166 -0.2238 0.8265
vn 0.9074 -0.2117 0.3630
vn -0.5634 -0.1865 -0.8049
vn -0.7763 -0.1811 -0.6038
vn -0.9074 -0.2117 0.3630
vn -0.5166 -0.2238 0.8265
vn 0.7763 -0.1811 -0.6038
vn 0.5634 -0.1865 -0.8049
vn 0.1620 -0.1715 0.9718
vn 0.8350 -0.1965 0.5139
vn 0.1290 -0.0717 0.9891
vn 0.8063 -0.1613 0.5692
vn -0.9525 -0.2241 -0.2063
vn -0.4333 -0.3000 -0.8499
vn -0.9572 -0.1915 -0.2170
vn -0.4603 -0.1727 -0.8708
vn -0.9080 0.0726 -0.4127
vn -0.2333 -0.0165 0.9723
vn -0.8941 0.0186 -0.4474
vn -0.4763 -0.0114 -0.8792
vn 0.0000 0.0476 -0.9989
vn -0.2425 0.0202 0.9699
vn -0.7578 0.0627 -0.6495
vn -0.9049 0.0528 -0.4223
vn -0.9712 0.1012 -0.2158
vn -0.9227 0.0961 0.3735
vn -0.2630 0.0234 0.9645
vn 0.0000 0.0000 -1.0000
vn -0.1789 0.0000 -0.9839
vn -0.7593 0.0000 -0.6508
vn -0.9762 0.0000 -0.2169
vn -0.9300 0.0000 0.3677
vn -0.1961 0.0000 0.9806
vn -0.1414 0.0117 -0.9899
vn -0.9756 -0.0336 -0.2168
vn -0.7556 -0.0975 -0.6477
vn -0.9294 -0.0334 0.3675
vn -0.1961 0.0014 0.9806
vn -0.1414 0.0200 -0.9898
vn -0.9736 0.0220 -0.2272
vn -0.9350 0.0376 0.3528
vn -0.3158 0.0534 0.9473
vn -0.1697 -0.1910 -0.9668
vn -0.4836 -0.1231 -0.8666
vn -0.9751 -0.0750 -0.2088
vn -0.9863 -0.0138 -0.1646
vn -0.9774 0.0000 -0.2113
vn -0.2507 0.0485 0.9669
vn -0.2900 0.0000 0.9570
vn -0.2609 0.0217 0.9651
vn -0.2334 -0.0068 0.9724
vn -0.2345 -0.0288 0.9717
vn -0.8122 -0.0607 0.5801
vn -0.1543 -0.0347 -0.9874
vn -0.1788 -0.0302 -0.9834
vn -0.2060 0.0000 0.9785
vn -0.4762 0.0251 -0.8790
vn 0.8122 -0.0625 0.5801
vn 0.1577 -0.0655 0.9853
vn 0.0000 0.0000 1.0000
vn 0.2059 -0.0371 0.9779
vn -0.1575 -0.0757 0.9846
vn 0.1788 -0.0302 -0.9834
vn 0.9861 -0.0206 -0.1647
vn 0.9889 0.0060 -0.1483
vn 0.9806 0.0000 -0.1961
vn 0.1543 -0.0347 -0.9874
vn -0.9883 0.0088 -0.1524
vn -0.9874 0.0000 -0.1580
vn 0.0000 1.0000 -0.0000
vn 0.9882 0.0116 -0.1525
vn 0.2608 -0.0279 0.9650
vn 0.2385 0.0000 0.9711
vn 0.2899 0.0242 0.9567
vn 0.2900 0.0000 0.9570
vn 0.2983 0.0000 0.9545
vn 0.5151 0.0245 -0.8568
vn 0.2425 0.0000 0.9701
vn 0.2288 0.0484 0.9723
vn 0.1849 -0.1920 -0.9638
vn 0.8981 -0.1633 -0.4082
vn 0.9031 -0.1858 0.3871
vn 0.2250 -0.1153 0.9675
vn 0.1536 -0.1037 -0.9827
vn 0.9038 0.0723 -0.4218
vn 0.2631 -0.0186 0.9646
vn 0.8941 0.0186 -0.4474
vn 0.4763 -0.0114 -0.8792
vn 1.0000 0.0000 0.0000
vn 0.2425 0.0202 0.9699
vn 0.7578 0.0627 -0.6495
vn 0.9049 0.0528 -0.4223
vn 0.9712 0.1012 -0.2158
vn 0.9228 0.0946 0.3735
vn 0.2630 0.0263 0.9644
vn 0.1789 0.0000 -0.9839
vn 0.7593 0.0000 -0.6508
vn 0.9762 0.0000 -0.2169
vn 0.9300 0.0000 0.3677
vn 0.1961 0.0000 0.9806
vn 0.1414 0.0146 -0.9898
vn 0.9729 -0.0336 -0.2289
vn 0.7556 -0.0975 -0.6477
vn 0.9311 -0.0335 0.3633
vn 0.2290 0.0016 0.9734
vn 0.1080 0.0194 -0.9940
vn 0.9736 0.0212 -0.2272
vn 0.9309 0.0381 0.3633
vn 0.2979 0.0504 0.9533
vn -0.8087 -0.0045 0.5882
vn -0.2058 -0.0425 0.9777
vn 0.9774 0.0000 -0.2113
vn -0.9861 -0.0206 -0.1647
vn 0.9863 -0.0138 -0.1646
vn 0.4827 -0.1332 -0.8656
vn 0.9746 -0.0824 -0.2085
vn 0.2703 0.0595 0.9609
vn 0.3156 0.0631 0.9468
vn 0.9244 0.0738 0.3742
vn 0.9200 0.0593 0.3874
vn 0.9895 0.0289 -0.1413
vn 0.8942 0.0127 -0.4474
vn 0.8087 -0.0015 0.5882
vn 0.8319 0.0000 0.5549
vn -0.4908 0.0341 -0.8706
vn -0.2121 -0.1659 -0.9631
vn -0.1837 -0.0987 -0.9780
vn -0.2254 -0.0987 0.9692
vn -0.9040 -0.1808 0.3874
vn -0.8956 -0.1791 -0.4071
vn -0.9200 0.0593 0.3874
vn -0.9242 0.0738 0.3746
vn 0.2120 -0.1659 -0.9631
vn 0.4908 0.0342 -0.8706
vn -0.8937 -0.0352 -0.4472
vn -0.9895 0.0289 -0.1413
vn -0.8142 -0.0013 0.5806
vn -0.8087 -0.0015 0.5882
vn -0.3156 0.0631 0.9468
vn -0.2705 0.0541 0.9612
vn 0.9255 0.1781 0.3342
vn -0.9618 0.1565 -0.2244
vn -0.9219 0.1782 0.3440
vn -0.2690 0.1132 0.9565
vn 0.2679 0.1130 0.9568
vn -0.1079 0.0503 -0.9929
vn 0.9660 0.1584 -0.2044
vn 0.0878 0.0475 -0.9950
vn -0.5328 0.0000 -0.8462
vn -0.5153 0.0712 -0.8541
vn 0.9959 -0.0023 -0.0905
vn -0.9952 0.0383 -0.0905
vn -0.5178 -0.3585 -0.7767
vn 0.9952 0.0383 -0.0905
vn 0.5315 0.0704 -0.8441
vn 0.5547 0.0000 -0.8320
vn 0.5178 -0.3585 -0.7767
vn 0.9899 0.0120 -0.1414
vn -0.9899 0.0120 -0.1414
vn -0.9947 -0.0636 -0.0806
vn -0.5973 -0.3562 -0.7186
vn 0.5973 -0.3562 -0.7186
vn 0.9947 -0.0636 -0.0806
vn -0.9958 -0.0113 -0.0905
vn 0.0000 -1.0000 0.0000
vn 0.0263 -0.9996 -0.0113
vn -0.0301 -0.9986 0.0431
vn -1.0000 0.0000 0.0000
vn -0.8395 -0.1679 0.5167
vn -0.1639 -0.0765 0.9835
vn 0.9589 -0.1918 -0.2092
vn 0.4546 -0.1720 -0.8739
vn 0.1641 -0.0656 0.9843
vn 0.8419 -0.1511 0.5181
vn -0.9594 -0.1886 -0.2095
vn -0.4542 -0.1747 -0.8736
vn -0.9035 0.0761 -0.4217
vn -0.2631 -0.0093 0.9647
vn -0.0411 0.0182 -0.9990
vn -0.9258 0.0949 0.3660
vn -0.1961 0.0196 0.9804
vn -0.1788 0.0185 -0.9837
vn -0.9730 -0.0296 -0.2290
vn -0.9311 -0.0321 0.3634
vn -0.2290 0.0039 0.9734
vn -0.1080 0.0292 -0.9937
vn -0.9732 0.0212 -0.2290
vn -0.9347 0.0379 0.3534
vn -0.9311 0.0311 0.3634
vn -0.2980 0.0440 0.9536
vn -0.1849 -0.2045 -0.9612
vn -0.4642 -0.1347 -0.8754
vn -0.9710 -0.0838 -0.2238
vn -0.2289 0.0387 0.9727
vn -0.2983 0.0021 0.9545
vn -0.2899 0.0290 0.9566
vn -0.2386 -0.0029 0.9711
vn -0.2346 0.0000 0.9721
vn -0.2609 -0.0184 0.9652
vn -0.8153 -0.0627 0.5756
vn -0.2425 0.0042 0.9701
vn -0.5149 0.0175 -0.8570
vn 0.8155 -0.0605 0.5757
vn 0.1290 -0.0761 0.9887
vn 0.8384 0.0000 0.5450
vn 0.8087 -0.0054 0.5882
vn 0.8137 -0.0040 0.5812
vn 0.1578 -0.0429 0.9865
vn -0.1291 -0.0649 0.9895
vn 0.9874 0.0000 -0.1580
vn 0.9874 0.0066 -0.1580
vn -0.9889 0.0117 -0.1483
vn -0.9805 0.0163 -0.1960
vn -0.9884 0.0000 -0.1521
vn 0.9889 0.0099 -0.1483
vn 0.2346 -0.0166 0.9719
vn 0.2340 -0.0068 0.9722
vn 0.0000 1.0000 -0.0014
vn 0.2608 0.0261 0.9650
vn 0.2900 0.0020 0.9570
vn 0.4762 0.0177 -0.8791
vn 0.2060 0.0044 0.9785
vn 0.2507 0.0424 0.9671
vn 0.1696 -0.2060 -0.9638
vn 0.9040 -0.1808 -0.3874
vn 0.9064 -0.1813 0.3816
vn 0.2390 -0.1010 0.9658
vn 0.1835 -0.0910 -0.9788
vn 0.9076 0.0779 -0.4125
vn 0.2333 -0.0124 0.9723
vn 0.0000 0.0208 -0.9998
vn 0.9256 0.0964 0.3659
vn 0.1961 0.0163 0.9804
vn 0.1788 0.0056 -0.9839
vn 0.9758 -0.0277 -0.2168
vn 0.9295 -0.0321 0.3675
vn 0.1961 0.0054 0.9806
vn 0.1414 0.0291 -0.9895
vn 0.9732 0.0219 -0.2290
vn 0.9350 0.0350 0.3529
vn 0.9486 -0.0000 -0.3164
vn 0.3159 0.0437 0.9478
vn -0.8384 -0.0049 0.5450
vn -0.8137 0.0000 0.5812
vn -0.1579 -0.0388 0.9867
vn 0.4652 -0.1230 -0.8766
vn 0.9717 -0.0747 -0.2242
vn 0.2506 0.0501 0.9668
vn 0.9243 0.0739 0.3744
vn 0.9980 0.0018 -0.0639
vn 0.8071 -0.0012 0.5904
vn -0.1537 -0.0917 -0.9838
vn -0.2389 -0.1134 0.9644
vn -0.9056 -0.1859 0.3813
vn -0.9072 -0.1607 -0.3888
vn -0.9244 0.0740 0.3742
vn -0.9969 0.0070 -0.0788
vn -0.8000 0.0000 0.6000
vn -0.2505 0.0594 0.9663
vn 0.9212 0.1828 0.3436
vn -0.9682 0.1439 -0.2048
vn -0.9247 0.1828 0.3339
vn -0.2680 0.1126 0.9568
vn 0.2690 0.1125 0.9565
vn -0.0877 0.0585 -0.9944
vn 0.9637 0.1440 -0.2249
vn 0.1079 0.0584 -0.9925
vn -0.5546 -0.0208 -0.8319
vn -0.5318 0.0610 -0.8447
vn 0.9967 -0.0101 -0.0808
vn 0.5153 0.0609 -0.8548
vn 0.5327 -0.0212 -0.8460
vn -0.9967 -0.0020 -0.0808
vn -0.0183 -0.9992 0.0356
vn 0.0000 -0.9997 0.0238
vn -0.0853 -0.9942 0.0663
usemtl None
s off
f 1//1 2//1 3//1
f 5//2 6//2 2//2
f 10//3 11//3 12//3
f 13//4 11//4 10//4
f 10//5 1//5 4//5
f 10//6 5//6 1//6
f 11//7 14//7 15//7
f 13//8 16//8 14//8
f 17//9 18//9 19//9
f 20//10 17//10 19//10
f 21//11 22//11 23//11
f 21//12 24//12 22//12
f 21//13 25//13 24//13
f 21//14 26//14 25//14
f 27//15 20//15 19//15
f 28//16 27//16 19//16
f 29//17 5//17 10//17
f 12//18 29//18 10//18
f 29//19 30//19 6//19
f 12//20 15//20 30//20
f 4//21 31//21 10//21
f 10//22 31//22 13//22
f 4//23 3//23 32//23
f 31//24 32//24 16//24
f 43//25 44//25 45//25
f 47//26 48//26 49//26
f 51//27 52//27 53//27
f 54//28 51//28 53//28
f 53//29 55//29 56//29
f 57//30 58//30 59//30
f 60//31 61//31 46//31
f 46//32 45//32 60//32
f 45//33 62//33 60//33
f 62//34 45//34 50//34
f 63//35 50//35 49//35
f 55//36 53//36 65//36
f 53//37 61//37 67//37
f 61//38 60//38 68//38
f 60//39 62//39 69//39
f 62//40 63//40 70//40
f 63//41 64//41 71//41
f 67//42 72//42 73//42
f 73//36 66//36 65//36
f 68//43 69//43 74//43
f 72//44 67//44 68//44
f 69//45 70//45 75//45
f 70//46 71//46 76//46
f 73//47 72//47 77//47
f 74//48 79//48 77//48
f 80//49 81//49 79//49
f 82//50 83//50 76//50
f 86//51 87//51 43//51
f 32//52 89//52 90//52
f 3//53 91//53 89//53
f 89//54 92//54 93//54
f 89//55 91//55 92//55
f 83//56 80//56 75//56
f 71//57 94//57 84//57
f 64//57 59//57 94//57
f 49//58 57//58 59//58
f 48//59 47//59 95//59
f 48//60 97//60 57//60
f 2//61 98//61 91//61
f 46//62 53//62 52//62
f 61//63 53//63 46//63
f 99//64 100//64 58//64
f 51//65 54//65 104//65
f 15//66 111//66 112//66
f 30//67 112//67 113//67
f 111//68 114//68 115//68
f 112//69 118//69 100//69
f 6//70 113//70 98//70
f 119//71 120//71 121//71
f 122//72 123//72 114//72
f 114//73 123//73 19//73
f 18//74 116//74 115//74
f 124//75 120//75 119//75
f 21//76 23//76 86//76
f 21//77 126//77 127//77
f 126//78 21//78 125//78
f 123//79 128//79 28//79
f 129//80 130//80 131//80
f 131//81 132//81 133//81
f 135//82 59//82 130//82
f 136//83 94//83 59//83
f 137//84 84//84 94//84
f 138//85 104//85 54//85
f 130//86 58//86 100//86
f 137//87 140//87 141//87
f 142//88 143//88 144//88
f 144//89 143//89 145//89
f 133//90 147//90 146//90
f 132//91 117//91 147//91
f 124//92 119//92 143//92
f 119//93 148//93 145//93
f 149//94 129//94 110//94
f 120//95 124//95 139//95
f 120//96 139//96 54//96
f 54//97 56//97 55//97
f 59//98 58//98 130//98
f 119//99 121//99 150//99
f 150//100 148//100 119//100
f 150//101 151//101 148//101
f 152//102 149//102 148//102
f 135//103 129//103 149//103
f 66//36 153//36 120//36
f 153//104 154//104 121//104
f 154//105 155//105 150//105
f 155//106 156//106 151//106
f 156//107 157//107 152//107
f 157//108 136//108 135//108
f 153//109 73//109 158//109
f 153//36 66//36 73//36
f 158//110 159//110 156//110
f 155//111 154//111 158//111
f 159//112 140//112 157//112
f 140//113 137//113 136//113
f 78//114 160//114 158//114
f 158//115 160//115 161//115
f 140//116 159//116 161//116
f 84//117 137//117 107//117
f 98//118 99//118 163//118
f 113//119 100//119 99//119
f 114//120 111//120 164//120
f 92//121 125//121 93//121
f 122//122 114//122 164//122
f 16//123 90//123 164//123
f 14//124 164//124 111//124
f 141//125 162//125 165//125
f 165//126 82//126 107//126
f 148//127 149//127 134//127
f 134//128 133//128 145//128
f 138//129 142//129 128//129
f 138//130 139//130 124//130
f 132//131 118//131 117//131
f 132//132 131//132 130//132
f 89//133 166//133 90//133
f 89//134 93//134 166//134
f 88//135 43//135 46//135
f 95//136 170//136 163//136
f 44//137 171//137 170//137
f 171//138 44//138 43//138
f 44//139 95//139 47//139
f 44//140 47//140 50//140
f 172//141 122//141 164//141
f 90//142 172//142 164//142
f 88//143 52//143 51//143
f 86//144 88//144 105//144
f 99//145 57//145 97//145
f 163//146 99//146 96//146
f 83//147 82//147 165//147
f 83//148 165//148 81//148
f 173//149 174//149 162//149
f 77//150 79//150 175//150
f 79//151 81//151 177//151
f 178//152 177//152 81//152
f 165//153 162//153 174//153
f 78//154 77//154 176//154
f 180//155 173//155 161//155
f 179//156 180//156 160//156
f 179//78 176//78 175//78
f 178//78 174//78 173//78
f 181//157 182//157 183//157
f 105//158 104//158 182//158
f 185//159 186//159 123//159
f 181//160 125//160 105//160
f 184//161 183//161 90//161
f 138//162 123//162 186//162
f 186//163 182//163 104//163
f 185//164 183//164 182//164
f 90//165 183//165 185//165
f 123//166 138//166 128//166
f 86//167 105//167 125//167
f 166//168 93//168 184//168
f 90//169 166//169 184//169
f 185//170 172//170 90//170
f 185//171 122//171 172//171
f 93//172 125//172 181//172
f 25//78 22//78 24//78
f 25//173 26//173 127//173
f 127//173 163//173 170//173
f 25//173 127//173 170//173
f 23//173 25//173 170//173
f 147//173 117//173 116//173
f 147//173 116//173 18//173
f 146//173 147//173 17//173
f 128//174 144//174 146//174
f 128//175 27//175 28//175
f 7//97 8//97 9//97
f 33//68 34//68 35//68
f 36//68 34//68 35//68
f 36//68 35//68 37//68
f 38//68 40//68 39//68
f 41//68 40//68 39//68
f 41//68 42//68 40//68
f 78//176 9//176 7//176
f 85//97 7//97 9//97
f 7//176 73//176 78//176
f 37//68 101//68 48//68
f 35//36 48//36 101//36
f 35//68 34//68 102//68
f 101//36 103//36 102//36
f 102//68 34//68 33//68
f 83//36 33//36 34//36
f 8//176 73//176 78//176
f 106//68 38//68 39//68
f 107//36 39//36 38//36
f 40//68 106//68 39//68
f 109//36 106//36 108//36
f 42//68 110//68 109//68
f 40//36 109//36 110//36
f 38//36 137//36 107//36
f 137//68 136//68 41//68
f 38//68 136//68 41//68
f 41//68 135//68 129//68
f 42//68 135//68 129//68
f 42//36 110//36 129//36
f 41//68 136//68 135//68
f 167//97 8//97 168//97
f 9//176 168//176 8//176
f 73//176 168//176 169//176
f 73//176 8//176 168//176
f 36//68 49//68 64//68
f 37//68 49//68 64//68
f 49//36 48//36 37//36
f 36//36 71//36 64//36
f 83//36 76//36 33//36
f 76//68 36//68 71//68
f 33//68 36//68 71//68
f 85//97 9//97 167//97
f 66//176 73//176 169//176
f 56//176 55//176 66//176
f 169//97 66//97 55//97
f 1//177 3//177 4//177
f 5//178 2//178 1//178
f 11//179 15//179 12//179
f 13//180 14//180 11//180
f 29//181 6//181 5//181
f 12//182 30//182 29//182
f 4//183 32//183 31//183
f 31//184 16//184 13//184
f 43//185 45//185 46//185
f 47//186 49//186 50//186
f 53//187 56//187 54//187
f 62//188 50//188 63//188
f 63//189 49//189 64//189
f 55//36 65//36 66//36
f 53//37 67//37 65//37
f 61//38 68//38 67//38
f 60//39 69//39 68//39
f 62//40 70//40 69//40
f 63//41 71//41 70//41
f 67//190 73//190 65//190
f 68//191 74//191 72//191
f 69//192 75//192 74//192
f 70//193 76//193 75//193
f 73//194 77//194 78//194
f 74//195 77//195 72//195
f 80//196 79//196 74//196
f 80//197 74//197 75//197
f 82//198 76//198 84//198
f 86//199 43//199 88//199
f 32//200 90//200 16//200
f 3//201 89//201 32//201
f 83//202 75//202 76//202
f 71//203 84//203 76//203
f 64//57 94//57 71//57
f 49//204 59//204 64//204
f 48//205 95//205 96//205
f 48//206 96//206 97//206
f 48//207 57//207 49//207
f 2//208 91//208 3//208
f 99//209 58//209 57//209
f 51//210 104//210 105//210
f 15//211 112//211 30//211
f 30//212 113//212 6//212
f 111//176 115//176 116//176
f 111//213 116//213 117//213
f 111//214 117//214 118//214
f 111//215 118//215 112//215
f 112//216 100//216 113//216
f 6//217 98//217 2//217
f 114//218 19//218 115//218
f 18//219 115//219 19//219
f 21//220 86//220 125//220
f 21//221 127//221 26//221
f 126//222 125//222 92//222
f 123//223 28//223 19//223
f 129//224 131//224 110//224
f 131//225 133//225 134//225
f 131//226 134//226 110//226
f 135//227 130//227 129//227
f 136//83 59//83 135//83
f 137//228 94//228 136//228
f 138//229 54//229 139//229
f 130//230 100//230 118//230
f 137//231 141//231 107//231
f 142//232 144//232 128//232
f 144//233 145//233 146//233
f 133//234 146//234 145//234
f 132//235 147//235 133//235
f 124//236 143//236 142//236
f 119//237 145//237 143//237
f 149//238 110//238 134//238
f 54//239 55//239 120//239
f 152//240 148//240 151//240
f 135//241 149//241 152//241
f 66//36 120//36 55//36
f 153//104 121//104 120//104
f 154//105 150//105 121//105
f 155//106 151//106 150//106
f 156//107 152//107 151//107
f 157//108 135//108 152//108
f 153//242 158//242 154//242
f 158//243 156//243 155//243
f 159//244 157//244 156//244
f 140//245 136//245 157//245
f 78//246 158//246 73//246
f 158//247 161//247 159//247
f 140//248 161//248 162//248
f 140//249 162//249 141//249
f 84//250 107//250 82//250
f 98//251 163//251 127//251
f 98//252 127//252 126//252
f 98//252 126//252 92//252
f 98//252 92//252 91//252
f 113//253 99//253 98//253
f 16//254 164//254 14//254
f 14//255 111//255 15//255
f 141//256 165//256 107//256
f 148//257 134//257 145//257
f 138//258 124//258 142//258
f 132//259 130//259 118//259
f 88//260 46//260 52//260
f 95//261 163//261 96//261
f 44//262 170//262 95//262
f 171//263 43//263 87//263
f 44//264 50//264 45//264
f 88//265 51//265 105//265
f 99//266 97//266 96//266
f 83//267 81//267 80//267
f 173//268 162//268 161//268
f 77//269 175//269 176//269
f 79//270 177//270 175//270
f 178//271 81//271 165//271
f 165//272 174//272 178//272
f 78//273 176//273 179//273
f 180//274 161//274 160//274
f 179//275 160//275 78//275
f 179//78 175//78 177//78
f 179//78 177//78 178//78
f 178//78 173//78 180//78
f 178//78 180//78 179//78
f 181//276 183//276 184//276
f 105//277 182//277 181//277
f 185//278 123//278 122//278
f 186//279 104//279 138//279
f 185//280 182//280 186//280
f 93//281 181//281 184//281
f 25//78 23//78 22//78
f 23//173 170//173 171//173
f 23//173 171//173 87//173
f 23//282 87//282 86//282
f 147//173 18//173 17//173
f 146//173 17//173 20//173
f 128//283 146//283 20//283
f 128//284 20//284 27//284
f 33//68 35//68 36//68
f 36//68 33//68 34//68
f 38//68 41//68 40//68
f 41//68 39//68 38//68
f 78//176 85//176 9//176
f 85//97 78//97 7//97
f 8//176 78//176 7//176
f 37//68 35//68 101//68
f 35//36 37//36 48//36
f 35//68 102//68 103//68
f 35//68 103//68 101//68
f 101//36 102//36 34//36
f 101//36 34//36 35//36
f 102//68 33//68 83//68
f 83//36 34//36 102//36
f 7//176 8//176 73//176
f 106//68 107//68 38//68
f 107//36 106//36 39//36
f 40//68 108//68 106//68
f 40//68 109//68 108//68
f 109//36 39//36 106//36
f 109//36 40//36 39//36
f 42//68 109//68 40//68
f 40//36 110//36 42//36
f 137//68 41//68 38//68
f 38//68 137//68 136//68
f 41//68 129//68 42//68
f 42//68 41//68 135//68
f 167//97 9//97 8//97
f 9//176 167//176 168//176
f 169//97 55//97 56//97
f 36//68 37//68 49//68
f 37//68 64//68 36//68
f 76//68 33//68 36//68
f 33//68 71//68 76//68
f 56//176 66//176 169//176
