# Blender v2.79 (sub 0) OBJ File: ''
# www.blender.org
mtllib m1269.mtl
o m1269
v -0.081910 -0.003198 0.000257
v -0.078150 -0.000421 0.000257
v -0.074389 0.000273 0.000257
v -0.070629 0.000967 0.000257
v -0.066868 0.001141 0.000257
v -0.059348 0.001314 0.000257
v -0.036785 0.000967 0.000257
v -0.006702 -0.003198 0.000257
v -0.036785 -0.007363 0.000257
v -0.059348 -0.007711 0.000257
v -0.066868 -0.007537 0.000257
v -0.070629 -0.007363 0.000257
v -0.074389 -0.006669 0.000257
v -0.078150 -0.005975 0.000257
v -0.081510 -0.003198 -0.276746
v -0.077749 -0.000421 -0.276746
v -0.073989 0.000273 -0.276746
v -0.070228 0.000967 -0.276746
v -0.066468 0.001141 -0.276746
v -0.058947 0.001314 -0.276746
v -0.036385 0.000967 -0.276746
v -0.006301 -0.003198 -0.276746
v -0.036385 -0.007363 -0.276746
v -0.058947 -0.007711 -0.276746
v -0.066468 -0.007537 -0.276746
v -0.070228 -0.007363 -0.276746
v -0.073989 -0.006669 -0.276746
v -0.077749 -0.005975 -0.276746
v -0.081910 -0.003198 -0.000253
v -0.078150 -0.000421 -0.000253
v -0.074389 0.000273 -0.000253
v -0.070629 0.000967 -0.000253
v -0.066868 0.001141 -0.000253
v -0.059348 0.001314 -0.000253
v -0.036785 0.000967 -0.000253
v -0.006702 -0.003198 -0.000253
v -0.036785 -0.007363 -0.000253
v -0.059348 -0.007711 -0.000253
v -0.066868 -0.007537 -0.000253
v -0.070629 -0.007363 -0.000253
v -0.074389 -0.006669 -0.000253
v -0.078150 -0.005975 -0.000253
v -0.081510 -0.003198 0.276750
v -0.077749 -0.000421 0.276750
v -0.073989 0.000273 0.276750
v -0.070228 0.000967 0.276750
v -0.066468 0.001141 0.276750
v -0.058947 0.001314 0.276750
v -0.036385 0.000967 0.276750
v -0.006301 -0.003198 0.276750
v -0.036385 -0.007363 0.276750
v -0.058947 -0.007711 0.276750
v -0.066468 -0.007537 0.276750
v -0.070228 -0.007363 0.276750
v -0.073989 -0.006669 0.276750
v -0.077749 -0.005975 0.276750
v -0.081254 -0.003198 -0.276211
v -0.077494 -0.000421 -0.276211
v -0.073733 0.000273 -0.276211
v -0.069973 0.000967 -0.276211
v -0.066212 0.001141 -0.276211
v -0.058692 0.001314 -0.276211
v -0.036129 0.000967 -0.276211
v -0.006046 -0.003198 -0.276211
v -0.036129 -0.007363 -0.276211
v -0.058692 -0.007711 -0.276211
v -0.066212 -0.007537 -0.276211
v -0.069973 -0.007363 -0.276211
v -0.073733 -0.006669 -0.276211
v -0.077494 -0.005975 -0.276211
v -0.065206 0.020178 -0.474998
v -0.062950 0.021844 -0.474998
v -0.060694 0.022261 -0.474998
v -0.058438 0.022677 -0.474998
v -0.056181 0.022781 -0.474998
v -0.051669 0.022885 -0.474998
v -0.038131 0.022677 -0.474998
v -0.020081 0.020178 -0.474998
v -0.038131 0.017679 -0.474998
v -0.051669 0.017470 -0.474998
v -0.056181 0.017574 -0.474998
v -0.058438 0.017679 -0.474998
v -0.060694 0.018095 -0.474998
v -0.062950 0.018512 -0.474998
v -0.081254 -0.003198 0.276215
v -0.077494 -0.000421 0.276215
v -0.073733 0.000273 0.276215
v -0.069973 0.000967 0.276215
v -0.066212 0.001141 0.276215
v -0.058692 0.001314 0.276215
v -0.036129 0.000967 0.276215
v -0.006046 -0.003198 0.276215
v -0.036129 -0.007363 0.276215
v -0.058692 -0.007711 0.276215
v -0.066212 -0.007537 0.276215
v -0.069973 -0.007363 0.276215
v -0.073733 -0.006669 0.276215
v -0.077494 -0.005975 0.276215
v -0.065206 0.020178 0.475002
v -0.062950 0.021844 0.475002
v -0.060694 0.022261 0.475002
v -0.058438 0.022677 0.475002
v -0.056181 0.022781 0.475002
v -0.051669 0.022885 0.475002
v -0.038131 0.022677 0.475002
v -0.020081 0.020178 0.475002
v -0.038131 0.017679 0.475002
v -0.051669 0.017470 0.475002
v -0.056181 0.017574 0.475002
v -0.058438 0.017679 0.475002
v -0.060694 0.018095 0.475002
v -0.062950 0.018512 0.475002
v 0.256993 -0.003198 0.000002
v 0.259019 -0.001702 0.000002
v 0.261045 -0.001328 0.000002
v 0.263071 -0.000954 0.000002
v 0.265097 -0.000861 0.000002
v 0.269149 -0.000767 0.000002
v 0.281304 -0.000954 0.000002
v 0.297512 -0.003198 0.000002
v 0.281304 -0.005442 0.000002
v 0.269149 -0.005629 0.000002
v 0.265097 -0.005536 0.000002
v 0.263071 -0.005442 0.000002
v 0.261045 -0.005068 0.000002
v 0.259019 -0.004694 0.000002
v 0.269460 -0.003198 -0.118748
v 0.270707 -0.002277 -0.118748
v 0.271954 -0.002047 -0.118748
v 0.273201 -0.001817 -0.118748
v 0.274447 -0.001760 -0.118748
v 0.276941 -0.001702 -0.118748
v 0.284421 -0.001817 -0.118748
v 0.294395 -0.003198 -0.118748
v 0.284421 -0.004579 -0.118748
v 0.276941 -0.004694 -0.118748
v 0.274447 -0.004637 -0.118748
v 0.273201 -0.004579 -0.118748
v 0.271954 -0.004349 -0.118748
v 0.270707 -0.004119 -0.118748
v 0.269460 -0.003198 0.118752
v 0.270707 -0.002277 0.118752
v 0.271954 -0.002047 0.118752
v 0.273201 -0.001817 0.118752
v 0.274447 -0.001760 0.118752
v 0.276941 -0.001702 0.118752
v 0.284421 -0.001817 0.118752
v 0.294395 -0.003198 0.118752
v 0.284421 -0.004579 0.118752
v 0.276941 -0.004694 0.118752
v 0.274447 -0.004637 0.118752
v 0.273201 -0.004579 0.118752
v 0.271954 -0.004349 0.118752
v 0.270707 -0.004119 0.118752
v -0.194503 -0.011038 -0.001977
v -0.194503 -0.009639 -0.001397
v -0.194503 -0.009059 0.000002
v -0.194503 -0.009639 0.001401
v -0.194503 -0.011038 0.001981
v -0.194503 -0.012438 0.001401
v -0.194503 -0.013018 0.000002
v -0.194503 -0.012438 -0.001397
v -0.173574 -0.010673 -0.007915
v -0.173574 -0.005075 -0.005596
v -0.173574 -0.002756 0.000002
v -0.173574 -0.005075 0.005600
v -0.173574 -0.010673 0.007919
v -0.173574 -0.016271 0.005600
v -0.173574 -0.018590 0.000002
v -0.173574 -0.016271 -0.005596
v -0.083670 -0.011034 -0.007915
v -0.083670 -0.005436 -0.005596
v -0.083670 -0.003118 0.000002
v -0.083670 -0.005436 0.005600
v -0.083670 -0.011034 0.007919
v -0.083670 -0.016632 0.005600
v -0.083670 -0.018951 0.000002
v -0.083670 -0.016632 -0.005596
v -0.008462 -0.009165 -0.005936
v -0.008462 -0.004966 -0.004196
v -0.008462 -0.003227 0.000002
v -0.008462 -0.004966 0.004200
v -0.008462 -0.009165 0.005939
v -0.008462 -0.013363 0.004200
v -0.008462 -0.015102 0.000002
v -0.008462 -0.013363 -0.004196
v 0.272580 -0.011404 -0.001556
v 0.272580 -0.010302 -0.001100
v 0.272580 -0.009846 0.000002
v 0.272580 -0.010302 0.001104
v 0.272580 -0.011404 0.001560
v 0.272580 -0.012506 0.001104
v 0.272580 -0.012963 0.000002
v 0.272580 -0.012506 -0.001100
v 0.252714 -0.012522 0.000002
v 0.255484 -0.012522 -0.001703
v 0.258255 -0.012522 -0.002129
v 0.261026 -0.012522 -0.002556
v 0.263797 -0.012522 -0.002662
v 0.269339 -0.012522 -0.002769
v 0.285964 -0.012522 -0.002556
v 0.308130 -0.012522 0.000002
v 0.285964 -0.012522 0.002560
v 0.269339 -0.012522 0.002773
v 0.263797 -0.012522 0.002666
v 0.261026 -0.012522 0.002560
v 0.258255 -0.012522 0.002133
v 0.255484 -0.012522 0.001707
v 0.283881 0.058728 0.000002
v 0.285128 0.058728 -0.000765
v 0.286375 0.058728 -0.000957
v 0.287622 0.058728 -0.001149
v 0.288868 0.058728 -0.001197
v 0.291362 0.058728 -0.001245
v 0.298842 0.058728 -0.001149
v 0.308816 0.058728 0.000002
v 0.298842 0.058728 0.001153
v 0.291362 0.058728 0.001249
v 0.288868 0.058728 0.001201
v 0.287622 0.058728 0.001153
v 0.286375 0.058728 0.000961
v 0.285128 0.058728 0.000769
v -0.077202 -0.012933 0.000781
v -0.067852 -0.012933 0.000781
v -0.067852 -0.012933 -0.003894
v -0.077202 -0.012933 -0.003894
v -0.077202 -0.005141 0.000781
v -0.067852 -0.005141 0.000781
v -0.067852 -0.005141 -0.003894
v -0.077202 -0.005141 -0.003894
vn -0.5940 0.8045 -0.0009
vn -0.1816 0.9834 -0.0003
vn -0.1815 0.9834 -0.0003
vn -0.0461 0.9989 -0.0001
vn -0.0231 0.9997 -0.0000
vn 0.0154 0.9999 0.0000
vn 0.1371 0.9906 0.0002
vn 0.1372 -0.9906 0.0002
vn 0.0154 -0.9999 0.0000
vn -0.0231 -0.9997 -0.0000
vn -0.0461 -0.9989 -0.0001
vn -0.1815 -0.9834 -0.0003
vn -0.1816 -0.9834 -0.0003
vn -0.5940 -0.8045 -0.0009
vn -0.5941 0.8044 -0.0009
vn 0.1372 0.9906 0.0002
vn 0.1372 -0.9905 0.0002
vn -0.5941 -0.8044 -0.0009
vn -0.5940 0.8045 0.0009
vn -0.1816 0.9834 0.0003
vn -0.1815 0.9834 0.0003
vn -0.0461 0.9989 0.0001
vn 0.1371 0.9906 -0.0002
vn 0.1372 -0.9906 -0.0002
vn -0.0461 -0.9989 0.0001
vn -0.1815 -0.9834 0.0003
vn -0.1816 -0.9834 0.0003
vn -0.5940 -0.8045 0.0009
vn -0.5941 0.8044 0.0009
vn 0.1372 0.9906 -0.0002
vn 0.1372 -0.9905 -0.0002
vn -0.5941 -0.8044 0.0009
vn -0.5934 0.8035 0.0466
vn -0.1807 0.9788 0.0964
vn -0.0459 0.9933 0.1058
vn -0.0229 0.9940 0.1071
vn 0.0153 0.9940 0.1084
vn 0.1364 0.9849 0.1062
vn 0.1361 -0.9828 -0.1252
vn 0.0153 -0.9920 -0.1251
vn -0.0229 -0.9917 -0.1264
vn -0.0457 -0.9908 -0.1275
vn -0.1799 -0.9746 -0.1332
vn -0.1800 -0.9746 -0.1332
vn -0.5881 -0.7964 -0.1411
vn -0.0458 0.9933 0.1058
vn -0.5881 -0.7963 -0.1411
vn -0.5935 0.8035 -0.0466
vn -0.1807 0.9788 -0.0964
vn -0.0459 0.9933 -0.1058
vn -0.0229 0.9940 -0.1071
vn 0.0153 0.9940 -0.1084
vn 0.1364 0.9849 -0.1062
vn 0.1361 -0.9828 0.1252
vn 0.0153 -0.9920 0.1251
vn -0.0229 -0.9917 0.1264
vn -0.0457 -0.9908 0.1275
vn -0.1799 -0.9746 0.1332
vn -0.1800 -0.9746 0.1332
vn -0.5881 -0.7964 0.1411
vn -0.5934 0.8035 -0.0466
vn -0.0458 0.9933 -0.1058
vn -0.5881 -0.7963 0.1411
vn -0.5928 0.8030 -0.0622
vn -0.1815 0.9831 -0.0226
vn -0.1814 0.9831 -0.0226
vn -0.0462 0.9989 -0.0112
vn -0.0230 0.9997 -0.0094
vn 0.0154 0.9999 -0.0069
vn 0.1371 0.9905 -0.0036
vn 0.1372 -0.9905 -0.0036
vn 0.0154 -0.9999 -0.0069
vn -0.0230 -0.9997 -0.0094
vn -0.0462 -0.9989 -0.0112
vn -0.1814 -0.9831 -0.0226
vn -0.1815 -0.9831 -0.0226
vn -0.5928 -0.8029 -0.0622
vn -0.5929 0.8029 -0.0622
vn -0.0461 0.9989 -0.0112
vn -0.0231 0.9997 -0.0094
vn 0.1371 -0.9905 -0.0036
vn -0.0231 -0.9997 -0.0094
vn -0.0461 -0.9989 -0.0112
vn -0.5929 -0.8029 -0.0622
vn -0.5928 0.8030 0.0622
vn -0.1815 0.9831 0.0226
vn -0.1814 0.9831 0.0226
vn -0.0462 0.9989 0.0112
vn -0.0230 0.9997 0.0094
vn 0.0154 0.9999 0.0069
vn 0.1371 0.9905 0.0036
vn 0.1372 -0.9905 0.0036
vn 0.0154 -0.9999 0.0069
vn -0.0230 -0.9997 0.0094
vn -0.0462 -0.9989 0.0112
vn -0.1814 -0.9831 0.0226
vn -0.1815 -0.9831 0.0226
vn -0.5928 -0.8029 0.0622
vn -0.5929 0.8029 0.0622
vn -0.0461 0.9989 0.0112
vn -0.0231 0.9997 0.0094
vn 0.1371 -0.9905 0.0036
vn -0.0231 -0.9997 0.0094
vn -0.0461 -0.9989 0.0112
vn -0.5929 -0.8029 0.0622
vn -0.2596 0.3696 -0.8922
vn -0.2681 0.8901 -0.3687
vn -0.2680 0.8901 0.3687
vn -0.2596 0.3696 0.8922
vn -0.2475 -0.3708 0.8951
vn -0.2389 -0.8971 0.3716
vn -0.2389 -0.8971 -0.3716
vn -0.2475 -0.3708 -0.8951
vn 0.0015 0.3827 -0.9239
vn 0.0037 0.9239 -0.3827
vn 0.0037 0.9239 0.3827
vn 0.0015 0.3827 0.9239
vn -0.0015 -0.3827 0.9239
vn -0.0037 -0.9239 0.3827
vn -0.0037 -0.9239 -0.3827
vn -0.0015 -0.3827 -0.9239
vn 0.0148 0.3828 -0.9237
vn 0.0014 0.9239 -0.3827
vn 0.0013 0.9239 0.3827
vn 0.0148 0.3826 0.9238
vn 0.0338 -0.3824 0.9234
vn 0.0472 -0.9228 0.3823
vn 0.0472 -0.9228 -0.3823
vn 0.0338 -0.3826 -0.9233
vn 0.0174 0.3823 -0.9239
vn 0.0218 0.9236 -0.3826
vn 0.0218 0.9236 0.3826
vn 0.0174 0.3823 0.9239
vn 0.0113 -0.3823 0.9240
vn 0.0070 -0.9239 0.3826
vn 0.0070 -0.9239 -0.3826
vn 0.0113 -0.3824 -0.9239
vn -0.2596 0.3697 -0.8921
vn -0.2680 0.8900 -0.3688
vn -0.2681 0.8900 0.3688
vn -0.2596 0.3697 0.8921
vn -0.2475 -0.3709 0.8951
vn -0.2388 -0.8971 0.3717
vn -0.2389 -0.8971 -0.3717
vn -0.2475 -0.3710 -0.8951
vn 0.0148 0.3827 -0.9238
vn 0.0013 0.9239 -0.3827
vn 0.0148 0.3827 0.9238
vn 0.0338 -0.3825 0.9233
vn 0.0472 -0.9229 0.3822
vn 0.0472 -0.9229 -0.3822
vn 0.0338 -0.3825 -0.9233
vn 0.0174 0.3828 -0.9237
vn 0.0174 0.3826 0.9237
vn 0.0113 -0.3826 0.9238
vn 0.0070 -0.9238 0.3827
vn 0.0070 -0.9238 -0.3827
vn 0.0113 -0.3828 -0.9237
vn -0.5107 0.2234 -0.8303
vn -0.1517 0.0761 -0.9855
vn -0.1518 0.0761 -0.9855
vn -0.0385 0.0341 -0.9987
vn -0.0192 0.0273 -0.9994
vn 0.0128 0.0174 -0.9998
vn 0.1146 -0.0011 -0.9934
vn 0.1146 -0.0011 0.9934
vn 0.0128 0.0174 0.9998
vn -0.0192 0.0273 0.9994
vn -0.0385 0.0341 0.9987
vn -0.1517 0.0761 0.9855
vn -0.5107 0.2234 0.8302
vn -0.5109 0.2235 -0.8301
vn -0.1515 0.0760 -0.9855
vn -0.1519 0.0761 -0.9855
vn -0.0382 0.0340 -0.9987
vn -0.0193 0.0273 -0.9994
vn -0.0193 0.0273 0.9994
vn -0.0382 0.0340 0.9987
vn -0.1519 0.0761 0.9855
vn -0.1515 0.0760 0.9855
vn -0.5109 0.2235 0.8301
vn 0.0000 -1.0000 0.0000
vn 0.0000 0.0000 1.0000
vn -1.0000 0.0000 0.0000
vn 0.0000 0.0000 -1.0000
vn 1.0000 0.0000 0.0000
vn 0.0000 1.0000 0.0000
usemtl None
s off
f 1//1 16//1 15//1
f 2//2 17//2 16//2
f 3//3 18//3 17//3
f 4//4 19//4 18//4
f 5//5 20//5 19//5
f 6//6 21//6 20//6
f 7//7 22//7 21//7
f 8//8 23//8 22//8
f 9//9 24//9 23//9
f 10//10 25//10 24//10
f 11//11 26//11 25//11
f 12//12 27//12 26//12
f 13//13 28//13 27//13
f 14//14 15//14 28//14
f 1//15 2//15 16//15
f 2//3 3//3 17//3
f 3//2 4//2 18//2
f 4//4 5//4 19//4
f 5//5 6//5 20//5
f 6//6 7//6 21//6
f 7//16 8//16 22//16
f 8//17 9//17 23//17
f 9//9 10//9 24//9
f 10//10 11//10 25//10
f 11//11 12//11 26//11
f 12//13 13//13 27//13
f 13//12 14//12 28//12
f 14//18 1//18 15//18
f 29//19 43//19 44//19
f 30//20 44//20 45//20
f 31//21 45//21 46//21
f 32//22 46//22 47//22
f 33//5 47//5 48//5
f 34//6 48//6 49//6
f 35//23 49//23 50//23
f 36//24 50//24 51//24
f 37//9 51//9 52//9
f 38//10 52//10 53//10
f 39//25 53//25 54//25
f 40//26 54//26 55//26
f 41//27 55//27 56//27
f 42//28 56//28 43//28
f 29//29 44//29 30//29
f 30//21 45//21 31//21
f 31//20 46//20 32//20
f 32//22 47//22 33//22
f 33//5 48//5 34//5
f 34//6 49//6 35//6
f 35//30 50//30 36//30
f 36//31 51//31 37//31
f 37//9 52//9 38//9
f 38//10 53//10 39//10
f 39//25 54//25 40//25
f 40//27 55//27 41//27
f 41//26 56//26 42//26
f 42//32 43//32 29//32
f 57//33 72//33 71//33
f 58//34 73//34 72//34
f 59//34 74//34 73//34
f 60//35 75//35 74//35
f 61//36 76//36 75//36
f 62//37 77//37 76//37
f 63//38 78//38 77//38
f 64//39 79//39 78//39
f 65//40 80//40 79//40
f 66//41 81//41 80//41
f 67//42 82//42 81//42
f 68//43 83//43 82//43
f 69//44 84//44 83//44
f 70//45 71//45 84//45
f 57//33 58//33 72//33
f 58//34 59//34 73//34
f 59//34 60//34 74//34
f 60//46 61//46 75//46
f 61//36 62//36 76//36
f 62//37 63//37 77//37
f 63//38 64//38 78//38
f 64//39 65//39 79//39
f 65//40 66//40 80//40
f 66//41 67//41 81//41
f 67//42 68//42 82//42
f 68//43 69//43 83//43
f 69//43 70//43 84//43
f 70//47 57//47 71//47
f 85//48 99//48 100//48
f 86//49 100//49 101//49
f 87//49 101//49 102//49
f 88//50 102//50 103//50
f 89//51 103//51 104//51
f 90//52 104//52 105//52
f 91//53 105//53 106//53
f 92//54 106//54 107//54
f 93//55 107//55 108//55
f 94//56 108//56 109//56
f 95//57 109//57 110//57
f 96//58 110//58 111//58
f 97//59 111//59 112//59
f 98//60 112//60 99//60
f 85//61 100//61 86//61
f 86//49 101//49 87//49
f 87//49 102//49 88//49
f 88//62 103//62 89//62
f 89//51 104//51 90//51
f 90//52 105//52 91//52
f 91//53 106//53 92//53
f 92//54 107//54 93//54
f 93//55 108//55 94//55
f 94//56 109//56 95//56
f 95//57 110//57 96//57
f 96//58 111//58 97//58
f 97//58 112//58 98//58
f 98//63 99//63 85//63
f 113//64 128//64 127//64
f 114//65 129//65 128//65
f 115//66 130//66 129//66
f 116//67 131//67 130//67
f 117//68 132//68 131//68
f 118//69 133//69 132//69
f 119//70 134//70 133//70
f 120//71 135//71 134//71
f 121//72 136//72 135//72
f 122//73 137//73 136//73
f 123//74 138//74 137//74
f 124//75 139//75 138//75
f 125//76 140//76 139//76
f 126//77 127//77 140//77
f 113//78 114//78 128//78
f 114//65 115//65 129//65
f 115//65 116//65 130//65
f 116//79 117//79 131//79
f 117//80 118//80 132//80
f 118//69 119//69 133//69
f 119//70 120//70 134//70
f 120//81 121//81 135//81
f 121//72 122//72 136//72
f 122//82 123//82 137//82
f 123//83 124//83 138//83
f 124//76 125//76 139//76
f 125//76 126//76 140//76
f 126//84 113//84 127//84
f 113//85 141//85 142//85
f 114//86 142//86 143//86
f 115//87 143//87 144//87
f 116//88 144//88 145//88
f 117//89 145//89 146//89
f 118//90 146//90 147//90
f 119//91 147//91 148//91
f 120//92 148//92 149//92
f 121//93 149//93 150//93
f 122//94 150//94 151//94
f 123//95 151//95 152//95
f 124//96 152//96 153//96
f 125//97 153//97 154//97
f 126//98 154//98 141//98
f 113//99 142//99 114//99
f 114//86 143//86 115//86
f 115//86 144//86 116//86
f 116//100 145//100 117//100
f 117//101 146//101 118//101
f 118//90 147//90 119//90
f 119//91 148//91 120//91
f 120//102 149//102 121//102
f 121//93 150//93 122//93
f 122//103 151//103 123//103
f 123//104 152//104 124//104
f 124//97 153//97 125//97
f 125//97 154//97 126//97
f 126//105 141//105 113//105
f 155//106 164//106 163//106
f 156//107 165//107 164//107
f 157//108 166//108 165//108
f 158//109 167//109 166//109
f 159//110 168//110 167//110
f 160//111 169//111 168//111
f 161//112 170//112 169//112
f 162//113 163//113 170//113
f 163//114 172//114 171//114
f 164//115 173//115 172//115
f 165//116 174//116 173//116
f 166//117 175//117 174//117
f 167//118 176//118 175//118
f 168//119 177//119 176//119
f 169//120 178//120 177//120
f 170//121 171//121 178//121
f 171//122 180//122 179//122
f 172//123 181//123 180//123
f 173//124 182//124 181//124
f 174//125 183//125 182//125
f 175//126 184//126 183//126
f 176//127 185//127 184//127
f 177//128 186//128 185//128
f 178//129 179//129 186//129
f 179//130 188//130 187//130
f 180//131 189//131 188//131
f 181//132 190//132 189//132
f 182//133 191//133 190//133
f 183//134 192//134 191//134
f 184//135 193//135 192//135
f 185//136 194//136 193//136
f 186//137 187//137 194//137
f 155//138 156//138 164//138
f 156//139 157//139 165//139
f 157//140 158//140 166//140
f 158//141 159//141 167//141
f 159//142 160//142 168//142
f 160//143 161//143 169//143
f 161//144 162//144 170//144
f 162//145 155//145 163//145
f 163//114 164//114 172//114
f 164//115 165//115 173//115
f 165//116 166//116 174//116
f 166//117 167//117 175//117
f 167//118 168//118 176//118
f 168//119 169//119 177//119
f 169//120 170//120 178//120
f 170//121 163//121 171//121
f 171//146 172//146 180//146
f 172//147 173//147 181//147
f 173//124 174//124 182//124
f 174//148 175//148 183//148
f 175//149 176//149 184//149
f 176//150 177//150 185//150
f 177//151 178//151 186//151
f 178//152 171//152 179//152
f 179//153 180//153 188//153
f 180//131 181//131 189//131
f 181//132 182//132 190//132
f 182//154 183//154 191//154
f 183//155 184//155 192//155
f 184//156 185//156 193//156
f 185//157 186//157 194//157
f 186//158 179//158 187//158
f 195//159 209//159 210//159
f 196//160 210//160 211//160
f 197//161 211//161 212//161
f 198//162 212//162 213//162
f 199//163 213//163 214//163
f 200//164 214//164 215//164
f 201//165 215//165 216//165
f 202//166 216//166 217//166
f 203//167 217//167 218//167
f 204//168 218//168 219//168
f 205//169 219//169 220//169
f 206//170 220//170 221//170
f 207//170 221//170 222//170
f 208//171 222//171 209//171
f 195//172 210//172 196//172
f 196//173 211//173 197//173
f 197//174 212//174 198//174
f 198//175 213//175 199//175
f 199//176 214//176 200//176
f 200//164 215//164 201//164
f 201//165 216//165 202//165
f 202//166 217//166 203//166
f 203//167 218//167 204//167
f 204//177 219//177 205//177
f 205//178 220//178 206//178
f 206//179 221//179 207//179
f 207//180 222//180 208//180
f 208//181 209//181 195//181
f 223//182 226//182 224//182
f 224//182 226//182 225//182
f 223//183 228//183 227//183
f 223//183 224//183 228//183
f 223//184 227//184 226//184
f 226//184 227//184 230//184
f 226//185 230//185 229//185
f 226//185 229//185 225//185
f 224//186 229//186 228//186
f 224//186 225//186 229//186
f 228//187 230//187 227//187
f 228//187 229//187 230//187
