# Blender v2.79 (sub 0) OBJ File: ''
# www.blender.org
mtllib m1280.mtl
o m1280
v -0.076411 -0.012894 -0.020568
v -0.072791 -0.010221 -0.020568
v -0.069171 -0.009553 -0.020568
v -0.065551 -0.008884 -0.020568
v -0.061931 -0.008717 -0.020568
v -0.054691 -0.008550 -0.020568
v -0.032971 -0.008884 -0.020568
v -0.004010 -0.012894 -0.020568
v -0.032971 -0.016904 -0.020568
v -0.054691 -0.017238 -0.020568
v -0.061931 -0.017071 -0.020568
v -0.065551 -0.016904 -0.020568
v -0.069171 -0.016236 -0.020568
v -0.072791 -0.015567 -0.020568
v -0.064835 0.004140 -0.476129
v -0.062422 0.005923 -0.476129
v -0.060008 0.006368 -0.476129
v -0.057595 0.006814 -0.476129
v -0.055182 0.006925 -0.476129
v -0.050355 0.007036 -0.476129
v -0.035875 0.006814 -0.476129
v -0.016568 0.004140 -0.476129
v -0.035875 0.001467 -0.476129
v -0.050355 0.001244 -0.476129
v -0.055182 0.001356 -0.476129
v -0.057595 0.001467 -0.476129
v -0.060008 0.001913 -0.476129
v -0.062422 0.002358 -0.476129
v -0.076411 -0.012894 0.018310
v -0.072791 -0.010221 0.018310
v -0.069171 -0.009553 0.018310
v -0.065551 -0.008884 0.018310
v -0.061931 -0.008717 0.018310
v -0.054691 -0.008550 0.018310
v -0.032971 -0.008884 0.018310
v -0.004010 -0.012894 0.018310
v -0.032971 -0.016904 0.018310
v -0.054691 -0.017238 0.018310
v -0.061931 -0.017071 0.018310
v -0.065551 -0.016904 0.018310
v -0.069171 -0.016236 0.018310
v -0.072791 -0.015567 0.018310
v -0.064835 0.004140 0.473871
v -0.062422 0.005923 0.473871
v -0.060008 0.006368 0.473871
v -0.057595 0.006814 0.473871
v -0.055182 0.006925 0.473871
v -0.050355 0.007036 0.473871
v -0.035875 0.006814 0.473871
v -0.016568 0.004140 0.473871
v -0.035875 0.001467 0.473871
v -0.050355 0.001244 0.473871
v -0.055182 0.001356 0.473871
v -0.057595 0.001467 0.473871
v -0.060008 0.001913 0.473871
v -0.062422 0.002358 0.473871
v 0.203556 0.071275 -0.001129
v 0.205337 0.072591 -0.001129
v 0.207118 0.072919 -0.001129
v 0.208899 0.073248 -0.001129
v 0.210680 0.073331 -0.001129
v 0.214242 0.073413 -0.001129
v 0.224929 0.073248 -0.001129
v 0.239178 0.071275 -0.001129
v 0.224929 0.069302 -0.001129
v 0.214242 0.069138 -0.001129
v 0.210680 0.069220 -0.001129
v 0.208899 0.069302 -0.001129
v 0.207118 0.069631 -0.001129
v 0.205337 0.069960 -0.001129
v 0.238014 0.071275 -0.096899
v 0.238886 0.071919 -0.096899
v 0.239758 0.072080 -0.096899
v 0.240630 0.072241 -0.096899
v 0.241502 0.072281 -0.096899
v 0.243246 0.072322 -0.096899
v 0.248477 0.072241 -0.096899
v 0.255452 0.071275 -0.096899
v 0.248477 0.070310 -0.096899
v 0.243246 0.070229 -0.096899
v 0.241502 0.070269 -0.096899
v 0.240630 0.070310 -0.096899
v 0.239758 0.070471 -0.096899
v 0.238886 0.070632 -0.096899
v 0.238014 0.071275 0.094641
v 0.238886 0.071919 0.094641
v 0.239758 0.072080 0.094641
v 0.240630 0.072241 0.094641
v 0.241502 0.072281 0.094641
v 0.243246 0.072322 0.094641
v 0.248477 0.072241 0.094641
v 0.255452 0.071275 0.094641
v 0.248477 0.070310 0.094641
v 0.243246 0.070229 0.094641
v 0.241502 0.070269 0.094641
v 0.240630 0.070310 0.094641
v 0.239758 0.070471 0.094641
v 0.238886 0.070632 0.094641
v -0.161265 -0.020015 -0.001129
v -0.161265 -0.021193 0.001715
v -0.161265 -0.024037 0.002893
v -0.161265 -0.026881 0.001715
v -0.161265 -0.028060 -0.001129
v -0.146785 -0.010240 -0.001129
v -0.146785 -0.013626 0.007403
v -0.146785 -0.021802 0.010938
v -0.146785 -0.029978 0.007403
v -0.146785 -0.033364 -0.001129
v -0.132305 -0.002836 -0.001129
v -0.132305 -0.007754 0.011101
v -0.132305 -0.019627 0.016167
v -0.132305 -0.031500 0.011101
v -0.132305 -0.036418 -0.001129
v -0.117824 0.002561 -0.001129
v -0.117824 -0.003256 0.013092
v -0.117824 -0.017298 0.018982
v -0.117824 -0.031341 0.013092
v -0.117824 -0.037158 -0.001129
v -0.103344 0.005646 -0.001129
v -0.103344 -0.000715 0.014230
v -0.103344 -0.016074 0.020591
v -0.103344 -0.031432 0.014230
v -0.103344 -0.037794 -0.001129
v -0.088864 0.008097 -0.001129
v -0.088864 0.001278 0.014798
v -0.088864 -0.015184 0.021396
v -0.088864 -0.031647 0.014798
v -0.088864 -0.038466 -0.001129
v -0.075993 0.009033 -0.001129
v -0.075993 0.002260 0.015936
v -0.075993 -0.014092 0.023005
v -0.075993 -0.030443 0.015936
v -0.075993 -0.037217 -0.001129
v -0.042778 0.008348 -0.001129
v -0.042778 0.001913 0.014230
v -0.042778 -0.013624 0.020591
v -0.042778 -0.029161 0.014230
v -0.042778 -0.035597 -0.001129
v -0.023774 0.006268 -0.001129
v -0.023774 0.000745 0.013092
v -0.023774 -0.012589 0.018982
v -0.023774 -0.025922 0.013092
v -0.023774 -0.031446 -0.001129
v 0.018684 -0.000975 -0.001129
v 0.018684 -0.005202 0.013014
v 0.018684 -0.015406 0.018872
v 0.018684 -0.025610 0.013014
v 0.018684 -0.029836 -0.001129
v 0.063042 -0.004828 -0.001129
v 0.063042 -0.008358 0.010501
v 0.063042 -0.016881 0.015318
v 0.063042 -0.025404 0.010501
v 0.063042 -0.028934 -0.001129
v 0.117523 -0.009560 -0.001129
v 0.117523 -0.012235 0.007415
v 0.117523 -0.018693 0.010954
v 0.117523 -0.025151 0.007415
v 0.117523 -0.027826 -0.001129
v 0.172509 -0.014336 -0.001129
v 0.172509 -0.016148 0.004301
v 0.172509 -0.020522 0.006550
v 0.172509 -0.024896 0.004301
v 0.172509 -0.026708 -0.001129
v 0.209839 -0.017579 -0.001129
v 0.209839 -0.018805 0.002186
v 0.209839 -0.021764 0.003560
v 0.209839 -0.024723 0.002186
v 0.209839 -0.025949 -0.001129
v 0.228831 -0.019228 -0.001129
v 0.228831 -0.020156 0.001110
v 0.228831 -0.022396 0.002038
v 0.228831 -0.024635 0.001110
v 0.228831 -0.025563 -0.001129
v 0.186673 -0.025563 -0.001129
v 0.190399 -0.025563 -0.003422
v 0.194126 -0.025563 -0.003996
v 0.197852 -0.025563 -0.004569
v 0.201579 -0.025563 -0.004712
v 0.209032 -0.025563 -0.004856
v 0.231391 -0.025563 -0.004569
v 0.261204 -0.025563 -0.001129
v 0.231391 -0.025563 0.002311
v 0.209032 -0.025563 0.002598
v 0.201579 -0.025563 0.002454
v 0.197852 -0.025563 0.002311
v 0.194126 -0.025563 0.001738
v 0.190399 -0.025563 0.001164
v 0.210814 0.069451 -0.001129
v 0.213348 0.069451 -0.002688
v 0.215882 0.069451 -0.003078
v 0.218415 0.069451 -0.003468
v 0.220949 0.069451 -0.003565
v 0.226017 0.069451 -0.003663
v 0.241219 0.069451 -0.003468
v 0.261489 0.069451 -0.001129
v 0.241219 0.069451 0.001210
v 0.226017 0.069451 0.001405
v 0.220949 0.069451 0.001307
v 0.218415 0.069451 0.001210
v 0.215882 0.069451 0.000820
v 0.213348 0.069451 0.000430
v -0.080951 -0.028476 -0.005599
v -0.061948 -0.028476 -0.005599
v -0.061948 -0.028476 -0.015100
v -0.080951 -0.028476 -0.015100
v -0.080951 -0.012641 -0.005599
v -0.061948 -0.012641 -0.005599
v -0.061948 -0.012641 -0.015100
v -0.080951 -0.012641 -0.015100
v -0.080951 -0.028476 0.011048
v -0.061948 -0.028476 0.011048
v -0.061948 -0.028476 0.001547
v -0.080951 -0.028476 0.001547
v -0.080951 -0.012641 0.011048
v -0.061948 -0.012641 0.011048
v -0.061948 -0.012641 0.001547
v -0.080951 -0.012641 0.001547
v -0.107183 -0.033577 0.003481
v -0.088180 -0.033577 0.003481
v -0.088180 -0.033577 -0.006020
v -0.107183 -0.033577 -0.006020
v -0.107183 -0.017741 0.003481
v -0.088180 -0.017741 0.003481
v -0.088180 -0.017741 -0.006020
v -0.107183 -0.017741 -0.006020
v -0.147539 -0.030550 0.002977
v -0.128554 -0.030550 0.002977
v -0.128554 -0.030550 -0.006525
v -0.147539 -0.030550 -0.006525
v -0.147539 -0.014714 0.002977
v -0.128554 -0.014714 0.002977
v -0.128554 -0.014714 -0.006525
v -0.147539 -0.014714 -0.006525
v -0.042206 -0.012387 -0.186596
v -0.025737 -0.012387 -0.186596
v -0.025737 -0.012387 -0.201799
v -0.042206 -0.012387 -0.201799
v -0.042206 -0.004153 -0.186596
v -0.025737 -0.004153 -0.186596
v -0.025737 -0.004153 -0.201799
v -0.042206 -0.004153 -0.201799
v -0.042206 -0.012387 0.199541
v -0.025737 -0.012387 0.199541
v -0.025737 -0.012387 0.184338
v -0.042206 -0.012387 0.184338
v -0.042206 -0.004153 0.199541
v -0.025737 -0.004153 0.199541
v -0.025737 -0.004153 0.184338
v -0.042206 -0.004153 0.184338
vn -0.5940 0.8043 0.0150
vn -0.1814 0.9829 0.0307
vn -0.1815 0.9829 0.0307
vn -0.0461 0.9984 0.0336
vn -0.0231 0.9992 0.0340
vn 0.0154 0.9993 0.0343
vn 0.1371 0.9900 0.0332
vn 0.1370 -0.9897 -0.0408
vn 0.0154 -0.9991 -0.0404
vn -0.0230 -0.9989 -0.0407
vn -0.0461 -0.9981 -0.0411
vn -0.1814 -0.9825 -0.0428
vn -0.1813 -0.9825 -0.0428
vn -0.5935 -0.8036 -0.0451
vn -0.0230 0.9992 0.0340
vn -0.5934 -0.8036 -0.0451
vn -0.5940 0.8043 -0.0150
vn -0.1814 0.9829 -0.0307
vn -0.1815 0.9829 -0.0307
vn -0.0461 0.9984 -0.0336
vn -0.0231 0.9992 -0.0340
vn 0.0154 0.9993 -0.0343
vn 0.1371 0.9900 -0.0332
vn 0.1370 -0.9897 0.0408
vn 0.0154 -0.9991 0.0404
vn -0.0230 -0.9989 0.0407
vn -0.0461 -0.9981 0.0411
vn -0.1814 -0.9825 0.0428
vn -0.1813 -0.9825 0.0428
vn -0.5935 -0.8036 0.0451
vn -0.0230 0.9992 -0.0340
vn -0.5934 -0.8036 0.0451
vn -0.5810 0.7866 -0.2090
vn -0.1811 0.9809 -0.0703
vn -0.0458 0.9986 -0.0257
vn -0.0235 0.9996 -0.0185
vn 0.0155 0.9999 -0.0067
vn 0.1372 0.9903 0.0233
vn 0.1370 -0.9903 0.0233
vn 0.0155 -0.9999 -0.0067
vn -0.0229 -0.9996 -0.0183
vn -0.0469 -0.9986 -0.0260
vn -0.1811 -0.9809 -0.0703
vn -0.5804 -0.7871 -0.2088
vn -0.5811 0.7865 -0.2091
vn -0.1807 0.9810 -0.0702
vn -0.1812 0.9809 -0.0704
vn -0.0465 0.9986 -0.0259
vn -0.0230 0.9996 -0.0184
vn 0.0154 0.9999 -0.0067
vn 0.1371 0.9903 0.0233
vn 0.1371 -0.9903 0.0233
vn 0.0153 -0.9999 -0.0067
vn -0.0230 -0.9996 -0.0184
vn -0.0460 -0.9986 -0.0257
vn -0.1812 -0.9809 -0.0704
vn -0.5809 -0.7867 -0.2090
vn -0.5810 0.7866 0.2090
vn -0.1811 0.9809 0.0703
vn -0.0458 0.9986 0.0257
vn -0.0235 0.9996 0.0185
vn 0.0155 0.9999 0.0067
vn 0.1372 0.9903 -0.0233
vn 0.1370 -0.9903 -0.0233
vn 0.0155 -0.9999 0.0067
vn -0.0229 -0.9996 0.0183
vn -0.0469 -0.9986 0.0260
vn -0.1811 -0.9809 0.0703
vn -0.5804 -0.7871 0.2088
vn -0.5811 0.7865 0.2091
vn -0.1807 0.9810 0.0702
vn -0.1812 0.9809 0.0704
vn -0.0465 0.9986 0.0259
vn -0.0230 0.9996 0.0184
vn 0.0154 0.9999 0.0067
vn 0.1371 0.9903 -0.0233
vn 0.1371 -0.9903 -0.0233
vn 0.0153 -0.9999 0.0067
vn -0.0230 -0.9996 0.0184
vn -0.0460 -0.9986 0.0257
vn -0.1812 -0.9809 0.0704
vn -0.5809 -0.7867 0.2090
vn -0.5315 0.7873 0.3125
vn -0.4939 0.3451 0.7981
vn -0.4094 -0.3621 0.8374
vn -0.3250 -0.8790 0.3489
vn -0.4286 0.8382 0.3371
vn -0.3666 0.3651 0.8557
vn -0.2635 -0.3786 0.8873
vn -0.1893 -0.9110 0.3663
vn -0.3261 0.8750 0.3579
vn -0.2397 0.3755 0.8953
vn -0.1163 -0.3842 0.9159
vn -0.0418 -0.9248 0.3782
vn -0.1932 0.9065 0.3755
vn -0.1384 0.3790 0.9150
vn -0.0701 -0.3817 0.9216
vn -0.0359 -0.9233 0.3824
vn -0.1537 0.9084 0.3889
vn -0.0873 0.3706 0.9247
vn -0.0287 -0.3719 0.9278
vn -0.0290 -0.9189 0.3934
vn -0.0674 0.9274 0.3681
vn -0.1107 0.3944 0.9123
vn -0.0808 -0.3955 0.9149
vn 0.0542 -0.9281 0.3684
vn 0.0190 0.9221 0.3864
vn 0.0514 0.3784 0.9242
vn 0.0724 -0.3779 0.9230
vn 0.0554 -0.9209 0.3859
vn 0.1015 0.9274 0.3602
vn 0.0793 0.4028 0.9118
vn 0.0990 -0.4021 0.9102
vn 0.1777 -0.9173 0.3563
vn 0.1613 0.9456 0.2826
vn 0.0711 0.4966 0.8650
vn -0.0308 -0.4976 0.8668
vn 0.0076 -0.9581 0.2863
vn 0.0828 0.9536 0.2895
vn 0.0840 0.4903 0.8675
vn 0.0533 -0.4913 0.8693
vn 0.0209 -0.9567 0.2904
vn 0.0826 0.9511 0.2978
vn 0.0836 0.4789 0.8739
vn 0.0542 -0.4799 0.8757
vn 0.0213 -0.9541 0.2987
vn 0.0821 0.9454 0.3154
vn 0.0826 0.4557 0.8863
vn 0.0559 -0.4565 0.8879
vn 0.0223 -0.9484 0.3164
vn 0.0812 0.9348 0.3457
vn 0.0811 0.4197 0.9040
vn 0.0585 -0.4204 0.9054
vn 0.0240 -0.9377 0.3467
vn 0.0800 0.9209 0.3815
vn 0.0793 0.3816 0.9209
vn 0.0612 -0.3821 0.9221
vn 0.0260 -0.9235 0.3826
vn -0.5349 0.7806 0.3233
vn -0.4968 0.3321 0.8018
vn -0.4064 -0.3496 0.8442
vn -0.3206 -0.8751 0.3625
vn -0.4262 0.8408 0.3337
vn -0.3642 0.3696 0.8548
vn -0.2662 -0.3825 0.8848
vn -0.1924 -0.9121 0.3620
vn -0.3215 0.8785 0.3533
vn -0.2351 0.3814 0.8940
vn -0.1213 -0.3895 0.9130
vn -0.0473 -0.9268 0.3727
vn -0.1887 0.9089 0.3718
vn -0.1340 0.3833 0.9139
vn -0.0747 -0.3857 0.9196
vn -0.0407 -0.9248 0.3783
vn -0.1408 0.9147 0.3789
vn -0.0747 0.3816 0.9213
vn -0.0419 -0.3823 0.9231
vn -0.0428 -0.9230 0.3823
vn -0.1043 0.9143 0.3914
vn -0.1460 0.3680 0.9183
vn -0.0472 -0.3716 0.9272
vn 0.0889 -0.9157 0.3920
vn 0.0287 0.9291 0.3688
vn 0.0610 0.3961 0.9162
vn 0.0623 -0.3960 0.9161
vn 0.0453 -0.9285 0.3685
vn 0.0795 0.9194 0.3852
vn 0.0576 0.3783 0.9239
vn 0.1191 -0.3762 0.9189
vn 0.1975 -0.9041 0.3788
vn 0.1301 0.9242 0.3590
vn 0.0292 0.4039 0.9143
vn 0.0047 -0.4041 0.9147
vn 0.0353 -0.9316 0.3618
vn 0.0841 0.9547 0.2853
vn 0.0857 0.4960 0.8641
vn 0.0514 -0.4972 0.8661
vn 0.0195 -0.9579 0.2863
vn 0.0842 0.9535 0.2894
vn 0.0858 0.4902 0.8674
vn 0.0515 -0.4914 0.8694
vn 0.0195 -0.9567 0.2904
vn 0.0845 0.9509 0.2977
vn 0.0859 0.4788 0.8737
vn 0.0518 -0.4799 0.8758
vn 0.0194 -0.9541 0.2987
vn 0.0851 0.9451 0.3154
vn 0.0861 0.4556 0.8860
vn 0.0524 -0.4566 0.8881
vn 0.0193 -0.9484 0.3165
vn 0.0861 0.9345 0.3455
vn 0.0864 0.4195 0.9036
vn 0.0533 -0.4205 0.9057
vn 0.0191 -0.9378 0.3468
vn -0.5194 0.1320 -0.8443
vn -0.1520 0.0443 -0.9874
vn -0.0382 0.0199 -0.9991
vn -0.0193 0.0160 -0.9997
vn 0.0128 0.0103 -0.9999
vn 0.1146 -0.0003 -0.9934
vn 0.1146 -0.0003 0.9934
vn 0.0128 0.0103 0.9999
vn -0.0193 0.0160 0.9997
vn -0.0382 0.0199 0.9991
vn -0.1520 0.0443 0.9874
vn -0.5194 0.1320 0.8443
vn -0.5195 0.1320 -0.8442
vn -0.1521 0.0444 -0.9874
vn -0.1519 0.0443 -0.9874
vn -0.0383 0.0199 -0.9991
vn -0.0383 0.0199 0.9991
vn -0.1518 0.0443 0.9874
vn -0.1521 0.0444 0.9874
vn -0.5195 0.1320 0.8442
vn 0.0000 -1.0000 0.0000
vn 0.0000 0.0000 1.0000
vn -1.0000 0.0000 0.0000
vn 0.0000 0.0000 -1.0000
vn 1.0000 0.0000 0.0000
vn 0.0000 1.0000 0.0000
usemtl None
s off
f 1//1 16//1 15//1
f 2//2 17//2 16//2
f 3//3 18//3 17//3
f 4//4 19//4 18//4
f 5//5 20//5 19//5
f 6//6 21//6 20//6
f 7//7 22//7 21//7
f 8//8 23//8 22//8
f 9//9 24//9 23//9
f 10//10 25//10 24//10
f 11//11 26//11 25//11
f 12//12 27//12 26//12
f 13//13 28//13 27//13
f 14//14 15//14 28//14
f 1//1 2//1 16//1
f 2//3 3//3 17//3
f 3//3 4//3 18//3
f 4//4 5//4 19//4
f 5//15 6//15 20//15
f 6//6 7//6 21//6
f 7//7 8//7 22//7
f 8//8 9//8 23//8
f 9//9 10//9 24//9
f 10//10 11//10 25//10
f 11//11 12//11 26//11
f 12//12 13//12 27//12
f 13//12 14//12 28//12
f 14//16 1//16 15//16
f 29//17 43//17 44//17
f 30//18 44//18 45//18
f 31//19 45//19 46//19
f 32//20 46//20 47//20
f 33//21 47//21 48//21
f 34//22 48//22 49//22
f 35//23 49//23 50//23
f 36//24 50//24 51//24
f 37//25 51//25 52//25
f 38//26 52//26 53//26
f 39//27 53//27 54//27
f 40//28 54//28 55//28
f 41//29 55//29 56//29
f 42//30 56//30 43//30
f 29//17 44//17 30//17
f 30//19 45//19 31//19
f 31//19 46//19 32//19
f 32//20 47//20 33//20
f 33//31 48//31 34//31
f 34//22 49//22 35//22
f 35//23 50//23 36//23
f 36//24 51//24 37//24
f 37//25 52//25 38//25
f 38//26 53//26 39//26
f 39//27 54//27 40//27
f 40//28 55//28 41//28
f 41//28 56//28 42//28
f 42//32 43//32 29//32
f 57//33 72//33 71//33
f 58//34 73//34 72//34
f 59//34 74//34 73//34
f 60//35 75//35 74//35
f 61//36 76//36 75//36
f 62//37 77//37 76//37
f 63//38 78//38 77//38
f 64//39 79//39 78//39
f 65//40 80//40 79//40
f 66//41 81//41 80//41
f 67//42 82//42 81//42
f 68//43 83//43 82//43
f 69//43 84//43 83//43
f 70//44 71//44 84//44
f 57//45 58//45 72//45
f 58//46 59//46 73//46
f 59//47 60//47 74//47
f 60//48 61//48 75//48
f 61//49 62//49 76//49
f 62//50 63//50 77//50
f 63//51 64//51 78//51
f 64//52 65//52 79//52
f 65//53 66//53 80//53
f 66//54 67//54 81//54
f 67//55 68//55 82//55
f 68//56 69//56 83//56
f 69//56 70//56 84//56
f 70//57 57//57 71//57
f 57//58 85//58 86//58
f 58//59 86//59 87//59
f 59//59 87//59 88//59
f 60//60 88//60 89//60
f 61//61 89//61 90//61
f 62//62 90//62 91//62
f 63//63 91//63 92//63
f 64//64 92//64 93//64
f 65//65 93//65 94//65
f 66//66 94//66 95//66
f 67//67 95//67 96//67
f 68//68 96//68 97//68
f 69//68 97//68 98//68
f 70//69 98//69 85//69
f 57//70 86//70 58//70
f 58//71 87//71 59//71
f 59//72 88//72 60//72
f 60//73 89//73 61//73
f 61//74 90//74 62//74
f 62//75 91//75 63//75
f 63//76 92//76 64//76
f 64//77 93//77 65//77
f 65//78 94//78 66//78
f 66//79 95//79 67//79
f 67//80 96//80 68//80
f 68//81 97//81 69//81
f 69//81 98//81 70//81
f 70//82 85//82 57//82
f 99//83 105//83 104//83
f 100//84 106//84 105//84
f 101//85 107//85 106//85
f 102//86 108//86 107//86
f 104//87 110//87 109//87
f 105//88 111//88 110//88
f 106//89 112//89 111//89
f 107//90 113//90 112//90
f 109//91 115//91 114//91
f 110//92 116//92 115//92
f 111//93 117//93 116//93
f 112//94 118//94 117//94
f 114//95 120//95 119//95
f 115//96 121//96 120//96
f 116//97 122//97 121//97
f 117//98 123//98 122//98
f 119//99 125//99 124//99
f 120//100 126//100 125//100
f 121//101 127//101 126//101
f 122//102 128//102 127//102
f 124//103 130//103 129//103
f 125//104 131//104 130//104
f 126//105 132//105 131//105
f 127//106 133//106 132//106
f 129//107 135//107 134//107
f 130//108 136//108 135//108
f 131//109 137//109 136//109
f 132//110 138//110 137//110
f 134//111 140//111 139//111
f 135//112 141//112 140//112
f 136//113 142//113 141//113
f 137//114 143//114 142//114
f 139//115 145//115 144//115
f 140//116 146//116 145//116
f 141//117 147//117 146//117
f 142//118 148//118 147//118
f 144//119 150//119 149//119
f 145//120 151//120 150//120
f 146//121 152//121 151//121
f 147//122 153//122 152//122
f 149//123 155//123 154//123
f 150//124 156//124 155//124
f 151//125 157//125 156//125
f 152//126 158//126 157//126
f 154//127 160//127 159//127
f 155//128 161//128 160//128
f 156//129 162//129 161//129
f 157//130 163//130 162//130
f 159//131 165//131 164//131
f 160//132 166//132 165//132
f 161//133 167//133 166//133
f 162//134 168//134 167//134
f 164//135 170//135 169//135
f 165//136 171//136 170//136
f 166//137 172//137 171//137
f 167//138 173//138 172//138
f 99//139 100//139 105//139
f 100//140 101//140 106//140
f 101//141 102//141 107//141
f 102//142 103//142 108//142
f 104//143 105//143 110//143
f 105//144 106//144 111//144
f 106//145 107//145 112//145
f 107//146 108//146 113//146
f 109//147 110//147 115//147
f 110//148 111//148 116//148
f 111//149 112//149 117//149
f 112//150 113//150 118//150
f 114//151 115//151 120//151
f 115//152 116//152 121//152
f 116//153 117//153 122//153
f 117//154 118//154 123//154
f 119//155 120//155 125//155
f 120//156 121//156 126//156
f 121//157 122//157 127//157
f 122//158 123//158 128//158
f 124//159 125//159 130//159
f 125//160 126//160 131//160
f 126//161 127//161 132//161
f 127//162 128//162 133//162
f 129//163 130//163 135//163
f 130//164 131//164 136//164
f 131//165 132//165 137//165
f 132//166 133//166 138//166
f 134//167 135//167 140//167
f 135//168 136//168 141//168
f 136//169 137//169 142//169
f 137//170 138//170 143//170
f 139//171 140//171 145//171
f 140//172 141//172 146//172
f 141//173 142//173 147//173
f 142//174 143//174 148//174
f 144//175 145//175 150//175
f 145//176 146//176 151//176
f 146//177 147//177 152//177
f 147//178 148//178 153//178
f 149//179 150//179 155//179
f 150//180 151//180 156//180
f 151//181 152//181 157//181
f 152//182 153//182 158//182
f 154//183 155//183 160//183
f 155//184 156//184 161//184
f 156//185 157//185 162//185
f 157//186 158//186 163//186
f 159//187 160//187 165//187
f 160//188 161//188 166//188
f 161//189 162//189 167//189
f 162//190 163//190 168//190
f 164//191 165//191 170//191
f 165//192 166//192 171//192
f 166//193 167//193 172//193
f 167//194 168//194 173//194
f 174//195 188//195 189//195
f 175//196 189//196 190//196
f 176//196 190//196 191//196
f 177//197 191//197 192//197
f 178//198 192//198 193//198
f 179//199 193//199 194//199
f 180//200 194//200 195//200
f 181//201 195//201 196//201
f 182//202 196//202 197//202
f 183//203 197//203 198//203
f 184//204 198//204 199//204
f 185//205 199//205 200//205
f 186//205 200//205 201//205
f 187//206 201//206 188//206
f 174//207 189//207 175//207
f 175//208 190//208 176//208
f 176//209 191//209 177//209
f 177//210 192//210 178//210
f 178//198 193//198 179//198
f 179//199 194//199 180//199
f 180//200 195//200 181//200
f 181//201 196//201 182//201
f 182//202 197//202 183//202
f 183//203 198//203 184//203
f 184//211 199//211 185//211
f 185//212 200//212 186//212
f 186//213 201//213 187//213
f 187//214 188//214 174//214
f 202//215 205//215 203//215
f 203//215 205//215 204//215
f 202//216 207//216 206//216
f 202//216 203//216 207//216
f 202//217 206//217 205//217
f 205//217 206//217 209//217
f 205//218 209//218 208//218
f 205//218 208//218 204//218
f 203//219 208//219 207//219
f 203//219 204//219 208//219
f 207//220 209//220 206//220
f 207//220 208//220 209//220
f 210//215 213//215 211//215
f 211//215 213//215 212//215
f 210//216 215//216 214//216
f 210//216 211//216 215//216
f 210//217 214//217 213//217
f 213//217 214//217 217//217
f 213//218 217//218 216//218
f 213//218 216//218 212//218
f 211//219 216//219 215//219
f 211//219 212//219 216//219
f 215//220 217//220 214//220
f 215//220 216//220 217//220
f 218//215 221//215 219//215
f 219//215 221//215 220//215
f 218//216 223//216 222//216
f 218//216 219//216 223//216
f 218//217 222//217 221//217
f 221//217 222//217 225//217
f 221//218 225//218 224//218
f 221//218 224//218 220//218
f 219//219 224//219 223//219
f 219//219 220//219 224//219
f 223//220 225//220 222//220
f 223//220 224//220 225//220
f 226//215 229//215 227//215
f 227//215 229//215 228//215
f 226//216 231//216 230//216
f 226//216 227//216 231//216
f 226//217 230//217 229//217
f 229//217 230//217 233//217
f 229//218 233//218 232//218
f 229//218 232//218 228//218
f 227//219 232//219 231//219
f 227//219 228//219 232//219
f 231//220 233//220 230//220
f 231//220 232//220 233//220
f 234//215 237//215 235//215
f 235//215 237//215 236//215
f 234//216 239//216 238//216
f 234//216 235//216 239//216
f 234//217 238//217 237//217
f 237//217 238//217 241//217
f 237//218 241//218 240//218
f 237//218 240//218 236//218
f 235//219 240//219 239//219
f 235//219 236//219 240//219
f 239//220 241//220 238//220
f 239//220 240//220 241//220
f 242//215 245//215 243//215
f 243//215 245//215 244//215
f 242//216 247//216 246//216
f 242//216 243//216 247//216
f 242//217 246//217 245//217
f 245//217 246//217 249//217
f 245//218 249//218 248//218
f 245//218 248//218 244//218
f 243//219 248//219 247//219
f 243//219 244//219 248//219
f 247//220 249//220 246//220
f 247//220 248//220 249//220
