# Blender v2.79 (sub 0) OBJ File: ''
# www.blender.org
mtllib m1295.mtl
o m1295
v -0.228855 -0.001364 -0.000184
v -0.222560 0.003285 -0.000184
v -0.216264 0.004447 -0.000184
v -0.209968 0.005610 -0.000184
v -0.203672 0.005900 -0.000184
v -0.191081 0.006191 -0.000184
v -0.153306 0.005610 -0.000184
v -0.102940 -0.001364 -0.000184
v -0.153306 -0.008338 -0.000184
v -0.191081 -0.008919 -0.000184
v -0.203672 -0.008629 -0.000184
v -0.209968 -0.008338 -0.000184
v -0.216264 -0.007176 -0.000184
v -0.222560 -0.006013 -0.000184
v 0.134246 -0.001364 -0.475184
v 0.139697 0.002661 -0.475184
v 0.145147 0.003667 -0.475184
v 0.150597 0.004673 -0.475184
v 0.156048 0.004925 -0.475184
v 0.166948 0.005176 -0.475184
v 0.199651 0.004673 -0.475184
v 0.243254 -0.001364 -0.475184
v 0.199651 -0.007402 -0.475184
v 0.166948 -0.007905 -0.475184
v 0.156048 -0.007653 -0.475184
v 0.150597 -0.007402 -0.475184
v 0.145147 -0.006395 -0.475184
v 0.139697 -0.005389 -0.475184
v 0.134246 -0.001364 0.474816
v 0.139697 0.002661 0.474816
v 0.145147 0.003667 0.474816
v 0.150597 0.004673 0.474816
v 0.156048 0.004925 0.474816
v 0.166948 0.005176 0.474816
v 0.199651 0.004673 0.474816
v 0.243254 -0.001364 0.474816
v 0.199651 -0.007402 0.474816
v 0.166948 -0.007905 0.474816
v 0.156048 -0.007653 0.474816
v 0.150597 -0.007402 0.474816
v 0.145147 -0.006395 0.474816
v 0.139697 -0.005389 0.474816
v -0.231779 -0.001364 -0.000184
v -0.209894 0.004023 -0.000184
v -0.188010 0.005369 -0.000184
v -0.166125 0.006716 -0.000184
v -0.144241 0.007053 -0.000184
v -0.100472 0.007390 -0.000184
v 0.030836 0.006716 -0.000184
v 0.205912 -0.001364 -0.000184
v 0.030836 -0.009445 -0.000184
v -0.100472 -0.010118 -0.000184
v -0.144241 -0.009781 -0.000184
v -0.166125 -0.009445 -0.000184
v -0.188010 -0.008098 -0.000184
v -0.209894 -0.006751 -0.000184
v -0.124844 -0.001364 -0.137048
v -0.113868 0.001338 -0.137048
v -0.102892 0.002013 -0.137048
v -0.091916 0.002688 -0.137048
v -0.080940 0.002857 -0.137048
v -0.058988 0.003026 -0.137048
v 0.006867 0.002688 -0.137048
v 0.094675 -0.001364 -0.137048
v 0.006867 -0.005417 -0.137048
v -0.058988 -0.005755 -0.137048
v -0.080940 -0.005586 -0.137048
v -0.091916 -0.005417 -0.137048
v -0.102892 -0.004741 -0.137048
v -0.113868 -0.004066 -0.137048
v -0.124844 -0.001364 0.136680
v -0.113868 0.001338 0.136680
v -0.102892 0.002013 0.136680
v -0.091916 0.002688 0.136680
v -0.080940 0.002857 0.136680
v -0.058988 0.003026 0.136680
v 0.006867 0.002688 0.136680
v 0.094675 -0.001364 0.136680
v 0.006867 -0.005417 0.136680
v -0.058988 -0.005755 0.136680
v -0.080940 -0.005586 0.136680
v -0.091916 -0.005417 0.136680
v -0.102892 -0.004741 0.136680
v -0.113868 -0.004066 0.136680
v -0.228447 -0.001216 -0.000291
v -0.228447 -0.000707 -0.000259
v -0.228447 -0.000490 -0.000184
v -0.228447 -0.000707 -0.000109
v -0.228447 -0.001216 -0.000077
v -0.228447 -0.001395 -0.000109
v -0.228447 -0.001471 -0.000184
v -0.228447 -0.001395 -0.000259
v -0.100858 0.004258 -0.033563
v -0.100858 0.024904 -0.023623
v -0.100858 0.033659 -0.000184
v -0.100858 0.024904 0.023255
v -0.100858 0.004258 0.033195
v -0.100858 -0.002996 0.023255
v -0.100858 -0.006072 -0.000184
v -0.100858 -0.002996 -0.023623
v 0.205171 -0.000380 -0.000811
v 0.205171 0.000044 -0.000624
v 0.205171 0.000224 -0.000184
v 0.205171 0.000044 0.000256
v 0.205171 -0.000380 0.000443
v 0.205171 -0.000529 0.000256
v 0.205171 -0.000593 -0.000184
v 0.205171 -0.000529 -0.000624
v -0.084868 -0.005041 -0.154811
v -0.084868 0.014055 -0.148550
v -0.084868 0.019723 -0.127458
v -0.084868 0.014055 -0.106365
v -0.084868 -0.005041 -0.100104
v -0.084868 -0.005233 -0.106365
v -0.084868 -0.005291 -0.127458
v -0.084868 -0.005233 -0.148550
v 0.081957 0.001157 -0.154899
v 0.081957 0.015477 -0.148618
v 0.081957 0.019728 -0.127458
v 0.081957 0.015477 -0.106298
v 0.081957 0.001157 -0.100017
v 0.081957 0.001012 -0.106298
v 0.081957 0.000969 -0.127458
v 0.081957 0.001012 -0.148618
v -0.084868 -0.005041 0.099736
v -0.084868 0.014055 0.105997
v -0.084868 0.019723 0.127090
v -0.084868 0.014055 0.148182
v -0.084868 -0.005041 0.154443
v -0.084868 -0.005233 0.148182
v -0.084868 -0.005291 0.127090
v -0.084868 -0.005233 0.105997
v 0.081957 0.001157 0.099649
v 0.081957 0.015477 0.105930
v 0.081957 0.019728 0.127090
v 0.081957 0.015477 0.148250
v 0.081957 0.001157 0.154531
v 0.081957 0.001012 0.148250
v 0.081957 0.000969 0.127090
v 0.081957 0.001012 0.105930
v -0.024844 -0.001558 -0.132836
v -0.018589 -0.001558 -0.152081
v -0.012334 -0.001558 -0.156892
v -0.006080 -0.001558 -0.161704
v 0.000175 -0.001558 -0.162906
v 0.012685 -0.001558 -0.164109
v 0.050213 -0.001558 -0.161704
v 0.100251 -0.001558 -0.132836
v 0.050213 -0.001558 -0.103967
v 0.012685 -0.001558 -0.101562
v 0.000175 -0.001558 -0.102765
v -0.006080 -0.001558 -0.103967
v -0.012334 -0.001558 -0.108779
v -0.018589 -0.001558 -0.113590
v 0.029902 0.000930 -0.215171
v 0.036272 0.000930 -0.254372
v 0.042643 0.000930 -0.264172
v 0.049013 0.000930 -0.273973
v 0.055383 0.000930 -0.276423
v 0.068123 0.000930 -0.278873
v 0.106345 0.000930 -0.273973
v 0.157307 0.000930 -0.215171
v 0.106345 0.000930 -0.156368
v 0.068123 0.000930 -0.151468
v 0.055383 0.000930 -0.153918
v 0.049013 0.000930 -0.156368
v 0.042643 0.000930 -0.166169
v 0.036272 0.000930 -0.175969
v -0.024844 -0.001558 0.132468
v -0.018589 -0.001558 0.113222
v -0.012334 -0.001558 0.108411
v -0.006080 -0.001558 0.103600
v 0.000175 -0.001558 0.102397
v 0.012685 -0.001558 0.101194
v 0.050213 -0.001558 0.103600
v 0.100251 -0.001558 0.132468
v 0.050213 -0.001558 0.161336
v 0.012685 -0.001558 0.163741
v 0.000175 -0.001558 0.162538
v -0.006080 -0.001558 0.161336
v -0.012334 -0.001558 0.156524
v -0.018589 -0.001558 0.151713
v 0.029902 0.000930 0.214803
v 0.036272 0.000930 0.175601
v 0.042643 0.000930 0.165801
v 0.049013 0.000930 0.156000
v 0.055383 0.000930 0.153550
v 0.068123 0.000930 0.151100
v 0.106345 0.000930 0.156000
v 0.157307 0.000930 0.214803
v 0.106345 0.000930 0.273605
v 0.068123 0.000930 0.278505
v 0.055383 0.000930 0.276055
v 0.049013 0.000930 0.273605
v 0.042643 0.000930 0.263804
v 0.036272 0.000930 0.254004
v -0.100858 -0.001364 0.001185
v -0.084434 -0.001364 0.001185
v -0.084434 -0.001364 -0.007027
v -0.100858 -0.001364 -0.007027
v -0.100858 0.012322 0.001185
v -0.084434 0.012322 0.001185
v -0.084434 0.012322 -0.007027
v -0.100858 0.012322 -0.007027
vn 0.5409 -0.7325 0.4134
vn 0.1798 -0.9739 0.1384
vn 0.0461 -0.9983 0.0369
vn 0.0231 -0.9995 0.0195
vn -0.0154 -0.9998 -0.0095
vn -0.1365 -0.9856 -0.0995
vn -0.1365 0.9856 -0.0995
vn -0.0154 0.9998 -0.0095
vn 0.0231 0.9995 0.0195
vn 0.0461 0.9983 0.0369
vn 0.1798 0.9739 0.1384
vn 0.5409 0.7325 0.4134
vn 0.5409 -0.7325 0.4135
vn 0.5409 0.7325 0.4135
vn 0.5409 -0.7325 -0.4134
vn 0.1798 -0.9739 -0.1384
vn 0.0461 -0.9983 -0.0369
vn 0.0231 -0.9995 -0.0195
vn -0.0154 -0.9998 0.0095
vn -0.1365 -0.9856 0.0995
vn -0.1365 0.9856 0.0995
vn -0.0154 0.9998 0.0095
vn 0.0231 0.9995 -0.0195
vn 0.0461 0.9983 -0.0369
vn 0.1798 0.9739 -0.1384
vn 0.5409 0.7325 -0.4134
vn 0.5409 -0.7325 -0.4135
vn 0.5409 0.7325 -0.4135
vn -0.2350 0.9545 -0.1836
vn -0.0613 0.9962 -0.0626
vn -0.0154 0.9992 -0.0377
vn -0.0077 0.9994 -0.0342
vn 0.0051 0.9995 -0.0303
vn 0.0461 0.9982 -0.0374
vn 0.0461 -0.9982 -0.0374
vn 0.0051 -0.9995 -0.0303
vn -0.0077 -0.9994 -0.0342
vn -0.0154 -0.9992 -0.0377
vn -0.0613 -0.9962 -0.0626
vn -0.2350 -0.9545 -0.1836
vn -0.2350 0.9545 0.1836
vn -0.0613 0.9962 0.0626
vn -0.0154 0.9992 0.0377
vn -0.0077 0.9994 0.0342
vn 0.0051 0.9995 0.0303
vn 0.0461 0.9982 0.0374
vn 0.0461 -0.9982 0.0374
vn 0.0051 -0.9995 0.0303
vn -0.0077 -0.9994 0.0342
vn -0.0154 -0.9992 0.0377
vn -0.0613 -0.9962 0.0626
vn -0.2350 -0.9545 0.1836
vn -0.2458 0.4205 -0.8734
vn -0.2445 0.9084 -0.3393
vn -0.2432 0.9087 0.3394
vn -0.2444 0.4206 0.8737
vn -0.1182 -0.8021 0.5854
vn -0.0362 -0.9908 0.1300
vn -0.0357 -0.9909 -0.1300
vn -0.1173 -0.8022 -0.5854
vn 0.1035 0.4009 -0.9103
vn 0.1031 0.9206 -0.3766
vn 0.1006 0.9209 0.3767
vn 0.1010 0.4010 0.9105
vn 0.0548 -0.7807 0.6225
vn 0.0187 -0.9896 0.1424
vn 0.0177 -0.9897 -0.1424
vn 0.0531 -0.7808 -0.6226
vn -0.1917 0.0615 -0.9795
vn -0.0874 0.3266 -0.9411
vn -0.2323 0.3190 0.9189
vn -0.2543 0.0605 0.9652
vn -0.1795 -0.1729 0.9684
vn -0.0253 -0.7027 0.7110
vn -0.1378 -0.6961 -0.7046
vn -0.2418 -0.1707 -0.9552
vn 0.1024 0.4315 -0.8963
vn 0.1018 0.9319 -0.3481
vn 0.1019 0.9319 0.3481
vn 0.1025 0.4315 0.8963
vn 0.0507 -0.8067 0.5887
vn 0.0177 -0.9913 0.1301
vn 0.0178 -0.9913 -0.1301
vn 0.0508 -0.8067 -0.5887
vn -0.0154 0.4016 -0.9157
vn -0.0084 0.9804 -0.1969
vn -0.0000 0.9804 0.1970
vn -0.0038 0.4017 0.9158
vn 0.0371 -0.9990 0.0230
vn 0.0374 -0.9993 0.0020
vn 0.0375 -0.9993 -0.0020
vn 0.0374 -0.9990 -0.0230
vn -0.0030 0.3116 -0.9502
vn -0.0000 0.9657 -0.2595
vn -0.0083 0.9657 0.2595
vn -0.0121 0.3115 0.9502
vn 0.0374 -0.9988 0.0308
vn 0.0375 -0.9993 0.0027
vn 0.0374 -0.9993 -0.0027
vn 0.0371 -0.9988 -0.0308
vn -0.0600 0.9981 -0.0098
vn -0.2071 -0.9690 -0.1347
vn -0.1654 -0.9804 -0.1075
vn -0.0105 -0.9996 -0.0273
vn -0.0046 -0.9997 -0.0242
vn 0.0026 -0.9998 -0.0204
vn 0.0162 -0.9998 -0.0141
vn 0.1695 0.9745 0.1469
vn 0.0070 0.9985 0.0550
vn -0.0079 0.9991 0.0410
vn -0.0132 0.9993 0.0343
vn -0.0279 0.9994 0.0181
vn -0.0269 0.9995 0.0175
vn -0.0382 0.9992 0.0062
vn -0.1143 0.9928 -0.0371
vn -0.0294 -0.9988 -0.0382
vn -0.0274 -0.9990 -0.0356
vn -0.0022 -0.9997 -0.0227
vn 0.0014 -0.9998 -0.0215
vn 0.0125 -0.9997 -0.0216
vn 0.0710 0.9899 0.1230
vn 0.0034 0.9986 0.0536
vn -0.0042 0.9990 0.0440
vn -0.0076 0.9992 0.0395
vn -0.0192 0.9995 0.0249
vn -0.0183 0.9995 0.0238
vn -0.0305 0.9995 0.0099
vn -0.0365 0.9993 -0.0059
vn -0.0261 0.9995 -0.0169
vn -0.0269 0.9995 -0.0175
vn -0.0130 0.9993 -0.0338
vn -0.0077 0.9992 -0.0402
vn 0.0074 0.9983 -0.0580
vn 0.2219 -0.9559 -0.1923
vn 0.0194 -0.9997 0.0168
vn 0.0027 -0.9998 0.0208
vn -0.0046 -0.9997 0.0239
vn -0.0104 -0.9996 0.0269
vn -0.1373 -0.9865 0.0892
vn -0.1652 -0.9804 0.1074
vn -0.0649 0.9978 0.0105
vn -0.0331 0.9994 -0.0108
vn -0.0192 0.9995 -0.0249
vn -0.0202 0.9995 -0.0262
vn -0.0043 0.9990 -0.0450
vn 0.0033 0.9987 -0.0509
vn 0.0290 0.9983 -0.0503
vn 0.0099 -0.9998 0.0172
vn 0.0013 -0.9998 0.0210
vn -0.0022 -0.9997 0.0230
vn -0.0047 -0.9997 0.0245
vn -0.0294 -0.9988 0.0382
vn -0.0318 -0.9986 0.0413
vn -0.0885 0.9957 0.0288
vn 0.0000 -1.0000 0.0000
vn 0.0000 0.0000 1.0000
vn -1.0000 0.0000 0.0000
vn 0.0000 0.0000 -1.0000
vn 1.0000 0.0000 0.0000
vn 0.0000 1.0000 0.0000
usemtl None
s off
f 1//1 15//1 16//1
f 2//2 16//2 17//2
f 3//2 17//2 18//2
f 4//3 18//3 19//3
f 5//4 19//4 20//4
f 6//5 20//5 21//5
f 7//6 21//6 22//6
f 8//7 22//7 23//7
f 9//8 23//8 24//8
f 10//9 24//9 25//9
f 11//10 25//10 26//10
f 12//11 26//11 27//11
f 13//11 27//11 28//11
f 14//12 28//12 15//12
f 1//13 16//13 2//13
f 2//2 17//2 3//2
f 3//2 18//2 4//2
f 4//3 19//3 5//3
f 5//4 20//4 6//4
f 6//5 21//5 7//5
f 7//6 22//6 8//6
f 8//7 23//7 9//7
f 9//8 24//8 10//8
f 10//9 25//9 11//9
f 11//10 26//10 12//10
f 12//11 27//11 13//11
f 13//11 28//11 14//11
f 14//14 15//14 1//14
f 1//15 30//15 29//15
f 2//16 31//16 30//16
f 3//16 32//16 31//16
f 4//17 33//17 32//17
f 5//18 34//18 33//18
f 6//19 35//19 34//19
f 7//20 36//20 35//20
f 8//21 37//21 36//21
f 9//22 38//22 37//22
f 10//23 39//23 38//23
f 11//24 40//24 39//24
f 12//25 41//25 40//25
f 13//25 42//25 41//25
f 14//26 29//26 42//26
f 1//27 2//27 30//27
f 2//16 3//16 31//16
f 3//16 4//16 32//16
f 4//17 5//17 33//17
f 5//18 6//18 34//18
f 6//19 7//19 35//19
f 7//20 8//20 36//20
f 8//21 9//21 37//21
f 9//22 10//22 38//22
f 10//23 11//23 39//23
f 11//24 12//24 40//24
f 12//25 13//25 41//25
f 13//25 14//25 42//25
f 14//28 1//28 29//28
f 43//29 58//29 57//29
f 44//30 59//30 58//30
f 45//30 60//30 59//30
f 46//31 61//31 60//31
f 47//32 62//32 61//32
f 48//33 63//33 62//33
f 49//34 64//34 63//34
f 50//35 65//35 64//35
f 51//36 66//36 65//36
f 52//37 67//37 66//37
f 53//38 68//38 67//38
f 54//39 69//39 68//39
f 55//39 70//39 69//39
f 56//40 57//40 70//40
f 43//29 44//29 58//29
f 44//30 45//30 59//30
f 45//30 46//30 60//30
f 46//31 47//31 61//31
f 47//32 48//32 62//32
f 48//33 49//33 63//33
f 49//34 50//34 64//34
f 50//35 51//35 65//35
f 51//36 52//36 66//36
f 52//37 53//37 67//37
f 53//38 54//38 68//38
f 54//39 55//39 69//39
f 55//39 56//39 70//39
f 56//40 43//40 57//40
f 43//41 71//41 72//41
f 44//42 72//42 73//42
f 45//42 73//42 74//42
f 46//43 74//43 75//43
f 47//44 75//44 76//44
f 48//45 76//45 77//45
f 49//46 77//46 78//46
f 50//47 78//47 79//47
f 51//48 79//48 80//48
f 52//49 80//49 81//49
f 53//50 81//50 82//50
f 54//51 82//51 83//51
f 55//51 83//51 84//51
f 56//52 84//52 71//52
f 43//41 72//41 44//41
f 44//42 73//42 45//42
f 45//42 74//42 46//42
f 46//43 75//43 47//43
f 47//44 76//44 48//44
f 48//45 77//45 49//45
f 49//46 78//46 50//46
f 50//47 79//47 51//47
f 51//48 80//48 52//48
f 52//49 81//49 53//49
f 53//50 82//50 54//50
f 54//51 83//51 55//51
f 55//51 84//51 56//51
f 56//52 71//52 43//52
f 85//53 94//53 93//53
f 86//54 95//54 94//54
f 87//55 96//55 95//55
f 88//56 97//56 96//56
f 89//57 98//57 97//57
f 90//58 99//58 98//58
f 91//59 100//59 99//59
f 92//60 93//60 100//60
f 93//61 102//61 101//61
f 94//62 103//62 102//62
f 95//63 104//63 103//63
f 96//64 105//64 104//64
f 97//65 106//65 105//65
f 98//66 107//66 106//66
f 99//67 108//67 107//67
f 100//68 101//68 108//68
f 85//69 86//69 94//69
f 86//70 87//70 95//70
f 87//71 88//71 96//71
f 88//72 89//72 97//72
f 89//73 90//73 98//73
f 90//74 91//74 99//74
f 91//75 92//75 100//75
f 92//76 85//76 93//76
f 93//77 94//77 102//77
f 94//78 95//78 103//78
f 95//79 96//79 104//79
f 96//80 97//80 105//80
f 97//81 98//81 106//81
f 98//82 99//82 107//82
f 99//83 100//83 108//83
f 100//84 93//84 101//84
f 109//85 118//85 117//85
f 110//86 119//86 118//86
f 111//87 120//87 119//87
f 112//88 121//88 120//88
f 113//89 122//89 121//89
f 114//90 123//90 122//90
f 115//91 124//91 123//91
f 116//92 117//92 124//92
f 109//93 110//93 118//93
f 110//94 111//94 119//94
f 111//95 112//95 120//95
f 112//96 113//96 121//96
f 113//97 114//97 122//97
f 114//98 115//98 123//98
f 115//99 116//99 124//99
f 116//100 109//100 117//100
f 125//85 134//85 133//85
f 126//86 135//86 134//86
f 127//87 136//87 135//87
f 128//88 137//88 136//88
f 129//89 138//89 137//89
f 130//90 139//90 138//90
f 131//91 140//91 139//91
f 132//92 133//92 140//92
f 125//93 126//93 134//93
f 126//94 127//94 135//94
f 127//95 128//95 136//95
f 128//96 129//96 137//96
f 129//97 130//97 138//97
f 130//98 131//98 139//98
f 131//99 132//99 140//99
f 132//100 125//100 133//100
f 141//101 155//101 156//101
f 142//102 156//102 157//102
f 143//103 157//103 158//103
f 144//104 158//104 159//104
f 145//105 159//105 160//105
f 146//106 160//106 161//106
f 147//107 161//107 162//107
f 148//108 162//108 163//108
f 149//109 163//109 164//109
f 150//110 164//110 165//110
f 151//111 165//111 166//111
f 152//112 166//112 167//112
f 153//113 167//113 168//113
f 154//114 168//114 155//114
f 141//115 156//115 142//115
f 142//116 157//116 143//116
f 143//117 158//117 144//117
f 144//105 159//105 145//105
f 145//118 160//118 146//118
f 146//119 161//119 147//119
f 147//120 162//120 148//120
f 148//121 163//121 149//121
f 149//122 164//122 150//122
f 150//123 165//123 151//123
f 151//124 166//124 152//124
f 152//125 167//125 153//125
f 153//126 168//126 154//126
f 154//127 155//127 141//127
f 169//128 183//128 184//128
f 170//129 184//129 185//129
f 171//130 185//130 186//130
f 172//131 186//131 187//131
f 173//132 187//132 188//132
f 174//133 188//133 189//133
f 175//134 189//134 190//134
f 176//135 190//135 191//135
f 177//136 191//136 192//136
f 178//137 192//137 193//137
f 179//138 193//138 194//138
f 180//139 194//139 195//139
f 181//140 195//140 196//140
f 182//141 196//141 183//141
f 169//142 184//142 170//142
f 170//143 185//143 171//143
f 171//144 186//144 172//144
f 172//132 187//132 173//132
f 173//145 188//145 174//145
f 174//146 189//146 175//146
f 175//147 190//147 176//147
f 176//148 191//148 177//148
f 177//149 192//149 178//149
f 178//150 193//150 179//150
f 179//151 194//151 180//151
f 180//152 195//152 181//152
f 181//153 196//153 182//153
f 182//154 183//154 169//154
f 197//155 200//155 198//155
f 198//155 200//155 199//155
f 197//156 202//156 201//156
f 197//156 198//156 202//156
f 197//157 201//157 200//157
f 200//157 201//157 204//157
f 200//158 204//158 203//158
f 200//158 203//158 199//158
f 198//159 203//159 202//159
f 198//159 199//159 203//159
f 202//160 204//160 201//160
f 202//160 203//160 204//160
