# Blender v2.79 (sub 0) OBJ File: ''
# www.blender.org
mtllib m1290.mtl
o m1290
v -0.136961 -0.000013 -0.000332
v -0.129683 0.005361 -0.000332
v -0.122404 0.006705 -0.000332
v -0.115126 0.008049 -0.000332
v -0.107848 0.008385 -0.000332
v -0.093292 0.008721 -0.000332
v -0.049623 0.008049 -0.000332
v 0.008602 -0.000013 -0.000332
v -0.049623 -0.008075 -0.000332
v -0.093292 -0.008747 -0.000332
v -0.107848 -0.008411 -0.000332
v -0.115126 -0.008075 -0.000332
v -0.122404 -0.006731 -0.000332
v -0.129683 -0.005388 -0.000332
v -0.124644 -0.000013 -0.474991
v -0.120196 0.003271 -0.474991
v -0.115749 0.004092 -0.474991
v -0.111302 0.004913 -0.474991
v -0.106855 0.005118 -0.474991
v -0.097961 0.005323 -0.474991
v -0.071277 0.004913 -0.474991
v -0.035700 -0.000013 -0.474991
v -0.071277 -0.004939 -0.474991
v -0.097961 -0.005350 -0.474991
v -0.106855 -0.005145 -0.474991
v -0.111302 -0.004939 -0.474991
v -0.115749 -0.004118 -0.474991
v -0.120196 -0.003297 -0.474991
v -0.136961 -0.000013 0.000350
v -0.129683 0.005361 0.000350
v -0.122404 0.006705 0.000350
v -0.115126 0.008049 0.000350
v -0.107848 0.008385 0.000350
v -0.093292 0.008721 0.000350
v -0.049623 0.008049 0.000350
v 0.008602 -0.000013 0.000350
v -0.049623 -0.008075 0.000350
v -0.093292 -0.008747 0.000350
v -0.107848 -0.008411 0.000350
v -0.115126 -0.008075 0.000350
v -0.122404 -0.006731 0.000350
v -0.129683 -0.005388 0.000350
v -0.124644 -0.000013 0.475009
v -0.120196 0.003271 0.475009
v -0.115749 0.004092 0.475009
v -0.111302 0.004913 0.475009
v -0.106855 0.005118 0.475009
v -0.097961 0.005323 0.475009
v -0.071277 0.004913 0.475009
v -0.035700 -0.000013 0.475009
v -0.071277 -0.004939 0.475009
v -0.097961 -0.005350 0.475009
v -0.106855 -0.005145 0.475009
v -0.111302 -0.004939 0.475009
v -0.115749 -0.004118 0.475009
v -0.120196 -0.003297 0.475009
v 0.164303 -0.006565 0.000009
v 0.168491 -0.003472 0.000009
v 0.172680 -0.002698 0.000009
v 0.176868 -0.001925 0.000009
v 0.181057 -0.001732 0.000009
v 0.189434 -0.001539 0.000009
v 0.214565 -0.001925 0.000009
v 0.248074 -0.006565 0.000009
v 0.214565 -0.011204 0.000009
v 0.189434 -0.011591 0.000009
v 0.181057 -0.011398 0.000009
v 0.176868 -0.011204 0.000009
v 0.172680 -0.010431 0.000009
v 0.168491 -0.009658 0.000009
v 0.174647 -0.006565 -0.221087
v 0.178002 -0.004087 -0.221087
v 0.181357 -0.003468 -0.221087
v 0.184712 -0.002849 -0.221087
v 0.188067 -0.002694 -0.221087
v 0.194777 -0.002539 -0.221087
v 0.214906 -0.002849 -0.221087
v 0.241745 -0.006565 -0.221087
v 0.214906 -0.010281 -0.221087
v 0.194777 -0.010591 -0.221087
v 0.188067 -0.010436 -0.221087
v 0.184712 -0.010281 -0.221087
v 0.181357 -0.009662 -0.221087
v 0.178002 -0.009042 -0.221087
v 0.174647 -0.006565 0.221105
v 0.178002 -0.004087 0.221105
v 0.181357 -0.003468 0.221105
v 0.184712 -0.002849 0.221105
v 0.188067 -0.002694 0.221105
v 0.194777 -0.002539 0.221105
v 0.214906 -0.002849 0.221105
v 0.241745 -0.006565 0.221105
v 0.214906 -0.010281 0.221105
v 0.194777 -0.010591 0.221105
v 0.188067 -0.010436 0.221105
v 0.184712 -0.010281 0.221105
v 0.181357 -0.009662 0.221105
v 0.178002 -0.009042 0.221105
v -0.185995 -0.005296 -0.175487
v -0.185995 -0.003902 -0.173633
v -0.185995 -0.003324 -0.169158
v -0.185995 -0.003902 -0.164683
v -0.185995 -0.005296 -0.162829
v -0.185995 -0.006691 -0.164683
v -0.185995 -0.007269 -0.169158
v -0.185995 -0.006691 -0.173633
v -0.178367 -0.005288 -0.179378
v -0.178367 0.001013 -0.176385
v -0.178367 0.003623 -0.169158
v -0.178367 0.001013 -0.161931
v -0.178367 -0.005288 -0.158938
v -0.178367 -0.011589 -0.161931
v -0.178367 -0.014199 -0.169158
v -0.178367 -0.011589 -0.176385
v -0.160690 -0.003968 -0.186264
v -0.160690 0.009286 -0.181254
v -0.160690 0.014775 -0.169158
v -0.160690 0.009286 -0.157062
v -0.160690 -0.003968 -0.152052
v -0.160690 -0.017221 -0.157062
v -0.160690 -0.022710 -0.169158
v -0.160690 -0.017221 -0.181254
v -0.129475 -0.002197 -0.200802
v -0.129475 0.015086 -0.191534
v -0.129475 0.022245 -0.169158
v -0.129475 0.015086 -0.146782
v -0.129475 -0.002197 -0.137514
v -0.129475 -0.019480 -0.146782
v -0.129475 -0.026639 -0.169158
v -0.129475 -0.019480 -0.191534
v 0.250252 -0.010817 -0.172322
v 0.250252 -0.008579 -0.171396
v 0.250252 -0.007652 -0.169158
v 0.250252 -0.008579 -0.166920
v 0.250252 -0.010817 -0.165994
v 0.250252 -0.013054 -0.166920
v 0.250252 -0.013981 -0.169158
v 0.250252 -0.013054 -0.171396
v -0.185995 -0.005296 0.162847
v -0.185995 -0.003902 0.164701
v -0.185995 -0.003324 0.169176
v -0.185995 -0.003902 0.173651
v -0.185995 -0.005296 0.175505
v -0.185995 -0.006691 0.173651
v -0.185995 -0.007269 0.169176
v -0.185995 -0.006691 0.164701
v -0.178367 -0.005288 0.158956
v -0.178367 0.001013 0.161949
v -0.178367 0.003623 0.169176
v -0.178367 0.001013 0.176403
v -0.178367 -0.005288 0.179396
v -0.178367 -0.011589 0.176403
v -0.178367 -0.014199 0.169176
v -0.178367 -0.011589 0.161949
v -0.160690 -0.003968 0.152070
v -0.160690 0.009286 0.157080
v -0.160690 0.014775 0.169176
v -0.160690 0.009286 0.181272
v -0.160690 -0.003968 0.186282
v -0.160690 -0.017221 0.181272
v -0.160690 -0.022710 0.169176
v -0.160690 -0.017221 0.157080
v -0.129475 -0.002197 0.137532
v -0.129475 0.015086 0.146800
v -0.129475 0.022245 0.169176
v -0.129475 0.015086 0.191552
v -0.129475 -0.002197 0.200820
v -0.129475 -0.019480 0.191552
v -0.129475 -0.026639 0.169176
v -0.129475 -0.019480 0.146800
v 0.250252 -0.010817 0.166012
v 0.250252 -0.008579 0.166938
v 0.250252 -0.007652 0.169176
v 0.250252 -0.008579 0.171414
v 0.250252 -0.010817 0.172340
v 0.250252 -0.013054 0.171414
v 0.250252 -0.013981 0.169176
v 0.250252 -0.013054 0.166938
v -0.185995 -0.002789 -0.006320
v -0.185995 -0.002789 -0.004466
v -0.185995 -0.002789 0.000009
v -0.185995 -0.002789 0.004484
v -0.185995 -0.002789 0.006338
v -0.178367 -0.001595 -0.016196
v -0.178367 0.005002 -0.011450
v -0.178367 0.007735 0.000009
v -0.178367 0.005002 0.011468
v -0.178367 -0.001595 0.016214
v -0.178367 -0.008192 0.011468
v -0.178367 -0.010925 0.000009
v -0.178367 -0.008192 -0.011450
v -0.161344 -0.000022 -0.022679
v -0.161344 0.013244 -0.016034
v -0.161344 0.018738 0.000009
v -0.161344 0.013244 0.016052
v -0.161344 -0.000022 0.022697
v -0.161344 -0.013287 0.016052
v -0.161344 -0.018782 0.000009
v -0.161344 -0.013287 -0.016034
v -0.129475 0.005005 -0.031635
v -0.129475 0.027381 -0.022367
v -0.129475 0.036649 0.000009
v -0.129475 0.027381 0.022385
v -0.129475 0.005005 0.031653
v -0.129475 -0.017370 0.022385
v -0.129475 -0.026639 0.000009
v -0.129475 -0.017370 -0.022367
v 0.062999 -0.001650 -0.003155
v 0.062999 0.000587 -0.002229
v 0.062999 0.001514 0.000009
v 0.062999 0.000587 0.002247
v 0.062999 -0.001650 0.003173
v 0.062999 -0.003888 0.002247
v 0.062999 -0.004815 0.000009
v 0.062999 -0.003888 -0.002229
v 0.155320 -0.013981 -0.169025
v 0.160067 -0.013981 -0.171946
v 0.164813 -0.013981 -0.172676
v 0.169560 -0.013981 -0.173407
v 0.174307 -0.013981 -0.173589
v 0.183800 -0.013981 -0.173772
v 0.212279 -0.013981 -0.173407
v 0.250252 -0.013981 -0.169025
v 0.212279 -0.013981 -0.164644
v 0.183800 -0.013981 -0.164279
v 0.174307 -0.013981 -0.164461
v 0.169560 -0.013981 -0.164644
v 0.164813 -0.013981 -0.165374
v 0.160067 -0.013981 -0.166104
v 0.218608 0.080950 -0.169025
v 0.221140 0.080950 -0.170583
v 0.223671 0.080950 -0.170973
v 0.226203 0.080950 -0.171362
v 0.228734 0.080950 -0.171459
v 0.233797 0.080950 -0.171557
v 0.248986 0.080950 -0.171362
v 0.269239 0.080950 -0.169025
v 0.248986 0.080950 -0.166688
v 0.233797 0.080950 -0.166494
v 0.228734 0.080950 -0.166591
v 0.226203 0.080950 -0.166688
v 0.223671 0.080950 -0.167078
v 0.221140 0.080950 -0.167467
v 0.155320 -0.013981 0.169043
v 0.160067 -0.013981 0.166122
v 0.164813 -0.013981 0.165392
v 0.169560 -0.013981 0.164662
v 0.174307 -0.013981 0.164479
v 0.183800 -0.013981 0.164297
v 0.212279 -0.013981 0.164662
v 0.250252 -0.013981 0.169043
v 0.212279 -0.013981 0.173425
v 0.183800 -0.013981 0.173790
v 0.174307 -0.013981 0.173607
v 0.169560 -0.013981 0.173425
v 0.164813 -0.013981 0.172694
v 0.160067 -0.013981 0.171964
v 0.218608 0.080950 0.169043
v 0.221140 0.080950 0.167485
v 0.223671 0.080950 0.167096
v 0.226203 0.080950 0.166706
v 0.228734 0.080950 0.166609
v 0.233797 0.080950 0.166512
v 0.248986 0.080950 0.166706
v 0.269239 0.080950 0.169043
v 0.248986 0.080950 0.171380
v 0.233797 0.080950 0.171575
v 0.228734 0.080950 0.171477
v 0.226203 0.080950 0.171380
v 0.223671 0.080950 0.170991
v 0.221140 0.080950 0.170601
v -0.129475 -0.001323 0.001591
v -0.110489 -0.001323 0.001591
v -0.110489 -0.001323 -0.007902
v -0.129475 -0.001323 -0.007902
v -0.129475 0.014498 0.001591
v -0.110489 0.014498 0.001591
v -0.110489 0.014498 -0.007902
v -0.129475 0.014498 -0.007902
vn -0.5940 0.8043 -0.0154
vn -0.1815 0.9834 -0.0080
vn -0.0461 0.9989 -0.0070
vn -0.0231 0.9997 -0.0069
vn 0.0154 0.9999 -0.0073
vn 0.1371 0.9905 -0.0128
vn 0.1371 -0.9905 -0.0128
vn 0.0154 -0.9999 -0.0073
vn -0.0231 -0.9997 -0.0069
vn -0.0461 -0.9989 -0.0070
vn -0.1815 -0.9834 -0.0080
vn -0.5940 -0.8043 -0.0154
vn -0.1815 0.9833 -0.0080
vn -0.1815 -0.9833 -0.0080
vn -0.5940 0.8043 0.0154
vn -0.1815 0.9834 0.0080
vn -0.0461 0.9989 0.0070
vn -0.0231 0.9997 0.0069
vn 0.0154 0.9999 0.0073
vn 0.1371 0.9905 0.0128
vn 0.1371 -0.9905 0.0128
vn 0.0154 -0.9999 0.0073
vn -0.0231 -0.9997 0.0069
vn -0.0461 -0.9989 0.0070
vn -0.1815 -0.9834 0.0080
vn -0.5940 -0.8043 0.0154
vn -0.1815 0.9833 0.0080
vn -0.1815 -0.9833 0.0080
vn -0.5938 0.8041 -0.0278
vn -0.1815 0.9833 -0.0105
vn -0.0461 0.9989 -0.0058
vn -0.0231 0.9997 -0.0051
vn 0.0154 0.9999 -0.0042
vn 0.1372 0.9905 -0.0039
vn 0.1372 -0.9905 -0.0039
vn 0.0154 -0.9999 -0.0042
vn -0.0231 -0.9997 -0.0051
vn -0.0461 -0.9989 -0.0058
vn -0.1815 -0.9833 -0.0105
vn -0.5938 -0.8041 -0.0278
vn -0.5939 0.8041 -0.0278
vn 0.1371 0.9905 -0.0039
vn 0.1371 -0.9905 -0.0039
vn -0.5939 -0.8041 -0.0278
vn -0.5938 0.8041 0.0278
vn -0.1815 0.9833 0.0105
vn -0.0461 0.9989 0.0058
vn -0.0231 0.9997 0.0051
vn 0.0154 0.9999 0.0042
vn 0.1372 0.9905 0.0039
vn 0.1372 -0.9905 0.0039
vn 0.0154 -0.9999 0.0042
vn -0.0231 -0.9997 0.0051
vn -0.0461 -0.9989 0.0058
vn -0.1815 -0.9833 0.0105
vn -0.5938 -0.8041 0.0278
vn -0.5939 0.8041 0.0278
vn 0.1371 0.9905 0.0039
vn 0.1371 -0.9905 0.0039
vn -0.5939 -0.8041 0.0278
vn -0.4188 0.3896 -0.8202
vn -0.5889 0.7602 -0.2745
vn -0.6506 0.7143 0.2580
vn -0.5160 0.3675 0.7737
vn -0.4181 -0.3898 0.8205
vn -0.5878 -0.7609 0.2748
vn -0.6497 -0.7150 -0.2582
vn -0.5154 -0.3677 -0.7741
vn -0.3640 0.3293 -0.8712
vn -0.4751 0.8013 -0.3636
vn -0.4981 0.7896 0.3583
vn -0.3897 0.3257 0.8615
vn -0.3202 -0.3350 0.8862
vn -0.3745 -0.8443 0.3832
vn -0.4015 -0.8340 -0.3785
vn -0.3472 -0.3316 -0.8772
vn -0.4006 0.4330 -0.8075
vn -0.2673 0.9178 -0.2936
vn -0.2222 0.9286 0.2971
vn -0.3536 0.4420 0.8243
vn -0.3582 -0.4412 0.8228
vn -0.1669 -0.9391 0.3004
vn -0.1190 -0.9457 -0.3026
vn -0.3086 -0.4495 -0.8383
vn 0.0777 0.3812 -0.9212
vn 0.0776 0.9211 -0.3815
vn 0.0725 0.9215 0.3816
vn 0.0726 0.3814 0.9216
vn 0.0605 -0.3817 0.9223
vn 0.0359 -0.9233 0.3824
vn 0.0308 -0.9235 -0.3824
vn 0.0554 -0.3818 -0.9226
vn -0.5906 0.6449 -0.4851
vn -0.6703 0.7360 -0.0950
vn -0.5653 0.8181 0.1056
vn -0.2939 0.7639 0.5746
vn -0.5896 -0.6455 0.4855
vn -0.6694 -0.7368 0.0951
vn -0.5640 -0.8190 -0.1057
vn -0.2924 -0.7642 -0.5748
vn -0.4100 0.3913 -0.8238
vn -0.5103 0.8089 -0.2921
vn -0.4708 0.8298 0.2997
vn -0.3584 0.4006 0.8433
vn -0.3597 -0.4004 0.8428
vn -0.4125 -0.8568 0.3094
vn -0.3659 -0.8753 -0.3161
vn -0.3046 -0.4087 -0.8603
vn -0.3501 0.3312 -0.8762
vn -0.2129 0.8897 -0.4038
vn -0.2920 0.8709 0.3953
vn -0.4147 0.3218 0.8512
vn -0.3165 -0.3354 0.8873
vn -0.1139 -0.9047 0.4106
vn -0.1980 -0.8926 -0.4051
vn -0.3838 -0.3265 -0.8638
vn 0.0760 0.4712 -0.8787
vn 0.0748 0.9498 -0.3039
vn 0.0753 0.9497 0.3039
vn 0.0766 0.4712 0.8787
vn 0.0547 -0.4719 0.8800
vn 0.0317 -0.9520 0.3046
vn 0.0323 -0.9519 -0.3046
vn 0.0553 -0.4719 -0.8799
vn 0.0726 0.9215 0.3816
vn -0.7525 0.3846 -0.5347
vn -0.7698 0.6209 -0.1481
vn -0.8019 0.5812 0.1386
vn -0.8014 0.3493 0.4856
vn -0.6924 -0.4214 0.5857
vn -0.6696 -0.7225 0.1723
vn -0.7200 -0.6750 -0.1610
vn -0.7566 -0.3819 -0.5308
vn -0.3568 0.4184 -0.8353
vn -0.4787 0.8306 -0.2845
vn -0.5217 0.8071 0.2764
vn -0.4161 0.4073 0.8130
vn -0.2866 -0.4291 0.8566
vn -0.3473 -0.8871 0.3038
vn -0.4002 -0.8670 -0.2969
vn -0.3510 -0.4194 -0.8372
vn -0.3048 0.3645 -0.8799
vn -0.4370 0.8310 -0.3442
vn -0.4608 0.8199 0.3396
vn -0.3332 0.3608 0.8711
vn -0.1954 -0.3753 0.9061
vn -0.1908 -0.9069 0.3756
vn -0.2221 -0.9008 -0.3731
vn -0.2266 -0.3727 -0.8999
vn 0.1483 0.3782 -0.9138
vn 0.1663 0.9110 -0.3773
vn 0.1663 0.9110 0.3773
vn 0.1482 0.3782 0.9138
vn 0.1226 -0.3795 0.9170
vn 0.1042 -0.9189 0.3805
vn 0.1042 -0.9189 -0.3805
vn 0.1225 -0.3795 -0.9170
vn -0.7146 0.6995 0.0000
vn -0.8097 0.5868 0.0000
vn -0.1547 0.9880 0.0000
vn -0.5780 -0.8160 0.0000
vn -0.7295 -0.6840 0.0000
vn 0.1547 -0.9880 0.0000
vn -0.4482 0.5220 -0.7257
vn -0.5323 0.8235 -0.1964
vn -0.4706 0.8583 0.2047
vn -0.3413 0.5489 0.7630
vn -0.3661 -0.5434 0.7554
vn -0.4096 -0.8874 0.2116
vn -0.3334 -0.9171 -0.2187
vn -0.2473 -0.5658 -0.7866
vn -0.3522 0.4192 -0.8368
vn -0.4695 0.8353 -0.2861
vn -0.4357 0.8515 0.2916
vn -0.3064 0.4263 0.8511
vn -0.2288 -0.4360 0.8704
vn -0.2271 -0.9213 0.3156
vn -0.1825 -0.9302 -0.3186
vn -0.1777 -0.4407 -0.8799
vn 0.1483 0.3784 -0.9137
vn 0.1483 0.3784 0.9137
vn 0.1225 -0.3798 0.9169
vn 0.1042 -0.9189 0.3806
vn 0.1042 -0.9189 -0.3806
vn 0.1225 -0.3798 -0.9169
vn -0.4947 0.3298 -0.8040
vn -0.1513 0.1115 -0.9822
vn -0.1509 0.1112 -0.9823
vn -0.0383 0.0443 -0.9983
vn -0.0193 0.0335 -0.9993
vn 0.0128 0.0166 -0.9998
vn 0.1146 -0.0229 -0.9931
vn 0.1146 -0.0229 0.9931
vn 0.0128 0.0166 0.9998
vn -0.0191 0.0334 0.9993
vn -0.0383 0.0443 0.9983
vn -0.1513 0.1114 0.9822
vn -0.1510 0.1112 0.9823
vn -0.4947 0.3298 0.8040
vn -0.1511 0.1113 -0.9822
vn -0.1513 0.1114 -0.9822
vn -0.0192 0.0334 0.9993
vn -0.0385 0.0445 0.9983
vn -0.1510 0.1113 0.9822
vn -0.1511 0.1113 0.9822
vn -0.1510 0.1112 -0.9823
vn -0.0191 0.0334 -0.9993
vn -0.0193 0.0335 0.9993
vn -0.0382 0.0443 0.9983
vn -0.1509 0.1112 0.9823
vn -0.1514 0.1115 0.9822
vn -0.0385 0.0445 -0.9983
vn -0.0192 0.0334 -0.9993
vn -0.1512 0.1114 0.9822
vn 0.0000 -1.0000 0.0000
vn 0.0000 0.0000 1.0000
vn -1.0000 0.0000 0.0000
vn 0.0000 0.0000 -1.0000
vn 1.0000 0.0000 0.0000
vn 0.0000 1.0000 0.0000
usemtl None
s off
f 1//1 16//1 15//1
f 2//2 17//2 16//2
f 3//2 18//2 17//2
f 4//3 19//3 18//3
f 5//4 20//4 19//4
f 6//5 21//5 20//5
f 7//6 22//6 21//6
f 8//7 23//7 22//7
f 9//8 24//8 23//8
f 10//9 25//9 24//9
f 11//10 26//10 25//10
f 12//11 27//11 26//11
f 13//11 28//11 27//11
f 14//12 15//12 28//12
f 1//1 2//1 16//1
f 2//13 3//13 17//13
f 3//2 4//2 18//2
f 4//3 5//3 19//3
f 5//4 6//4 20//4
f 6//5 7//5 21//5
f 7//6 8//6 22//6
f 8//7 9//7 23//7
f 9//8 10//8 24//8
f 10//9 11//9 25//9
f 11//10 12//10 26//10
f 12//14 13//14 27//14
f 13//11 14//11 28//11
f 14//12 1//12 15//12
f 29//15 43//15 44//15
f 30//16 44//16 45//16
f 31//16 45//16 46//16
f 32//17 46//17 47//17
f 33//18 47//18 48//18
f 34//19 48//19 49//19
f 35//20 49//20 50//20
f 36//21 50//21 51//21
f 37//22 51//22 52//22
f 38//23 52//23 53//23
f 39//24 53//24 54//24
f 40//25 54//25 55//25
f 41//25 55//25 56//25
f 42//26 56//26 43//26
f 29//15 44//15 30//15
f 30//27 45//27 31//27
f 31//16 46//16 32//16
f 32//17 47//17 33//17
f 33//18 48//18 34//18
f 34//19 49//19 35//19
f 35//20 50//20 36//20
f 36//21 51//21 37//21
f 37//22 52//22 38//22
f 38//23 53//23 39//23
f 39//24 54//24 40//24
f 40//28 55//28 41//28
f 41//25 56//25 42//25
f 42//26 43//26 29//26
f 57//29 72//29 71//29
f 58//30 73//30 72//30
f 59//30 74//30 73//30
f 60//31 75//31 74//31
f 61//32 76//32 75//32
f 62//33 77//33 76//33
f 63//34 78//34 77//34
f 64//35 79//35 78//35
f 65//36 80//36 79//36
f 66//37 81//37 80//37
f 67//38 82//38 81//38
f 68//39 83//39 82//39
f 69//39 84//39 83//39
f 70//40 71//40 84//40
f 57//41 58//41 72//41
f 58//30 59//30 73//30
f 59//30 60//30 74//30
f 60//31 61//31 75//31
f 61//32 62//32 76//32
f 62//33 63//33 77//33
f 63//42 64//42 78//42
f 64//43 65//43 79//43
f 65//36 66//36 80//36
f 66//37 67//37 81//37
f 67//38 68//38 82//38
f 68//39 69//39 83//39
f 69//39 70//39 84//39
f 70//44 57//44 71//44
f 57//45 85//45 86//45
f 58//46 86//46 87//46
f 59//46 87//46 88//46
f 60//47 88//47 89//47
f 61//48 89//48 90//48
f 62//49 90//49 91//49
f 63//50 91//50 92//50
f 64//51 92//51 93//51
f 65//52 93//52 94//52
f 66//53 94//53 95//53
f 67//54 95//54 96//54
f 68//55 96//55 97//55
f 69//55 97//55 98//55
f 70//56 98//56 85//56
f 57//57 86//57 58//57
f 58//46 87//46 59//46
f 59//46 88//46 60//46
f 60//47 89//47 61//47
f 61//48 90//48 62//48
f 62//49 91//49 63//49
f 63//58 92//58 64//58
f 64//59 93//59 65//59
f 65//52 94//52 66//52
f 66//53 95//53 67//53
f 67//54 96//54 68//54
f 68//55 97//55 69//55
f 69//55 98//55 70//55
f 70//60 85//60 57//60
f 99//61 108//61 107//61
f 100//62 109//62 108//62
f 101//63 110//63 109//63
f 102//64 111//64 110//64
f 103//65 112//65 111//65
f 104//66 113//66 112//66
f 105//67 114//67 113//67
f 106//68 107//68 114//68
f 107//69 116//69 115//69
f 108//70 117//70 116//70
f 109//71 118//71 117//71
f 110//72 119//72 118//72
f 111//73 120//73 119//73
f 112//74 121//74 120//74
f 113//75 122//75 121//75
f 114//76 115//76 122//76
f 115//77 124//77 123//77
f 116//78 125//78 124//78
f 117//79 126//79 125//79
f 118//80 127//80 126//80
f 119//81 128//81 127//81
f 120//82 129//82 128//82
f 121//83 130//83 129//83
f 122//84 123//84 130//84
f 123//85 132//85 131//85
f 124//86 133//86 132//86
f 125//87 134//87 133//87
f 126//88 135//88 134//88
f 127//89 136//89 135//89
f 128//90 137//90 136//90
f 129//91 138//91 137//91
f 130//92 131//92 138//92
f 99//93 100//93 108//93
f 100//94 101//94 109//94
f 101//95 102//95 110//95
f 102//96 103//96 111//96
f 103//97 104//97 112//97
f 104//98 105//98 113//98
f 105//99 106//99 114//99
f 106//100 99//100 107//100
f 107//101 108//101 116//101
f 108//102 109//102 117//102
f 109//103 110//103 118//103
f 110//104 111//104 119//104
f 111//105 112//105 120//105
f 112//106 113//106 121//106
f 113//107 114//107 122//107
f 114//108 107//108 115//108
f 115//109 116//109 124//109
f 116//110 117//110 125//110
f 117//111 118//111 126//111
f 118//112 119//112 127//112
f 119//113 120//113 128//113
f 120//114 121//114 129//114
f 121//115 122//115 130//115
f 122//116 115//116 123//116
f 123//117 124//117 132//117
f 124//118 125//118 133//118
f 125//119 126//119 134//119
f 126//120 127//120 135//120
f 127//121 128//121 136//121
f 128//122 129//122 137//122
f 129//123 130//123 138//123
f 130//124 123//124 131//124
f 139//61 148//61 147//61
f 140//62 149//62 148//62
f 141//63 150//63 149//63
f 142//64 151//64 150//64
f 143//65 152//65 151//65
f 144//66 153//66 152//66
f 145//67 154//67 153//67
f 146//68 147//68 154//68
f 147//69 156//69 155//69
f 148//70 157//70 156//70
f 149//71 158//71 157//71
f 150//72 159//72 158//72
f 151//73 160//73 159//73
f 152//74 161//74 160//74
f 153//75 162//75 161//75
f 154//76 155//76 162//76
f 155//77 164//77 163//77
f 156//78 165//78 164//78
f 157//79 166//79 165//79
f 158//80 167//80 166//80
f 159//81 168//81 167//81
f 160//82 169//82 168//82
f 161//83 170//83 169//83
f 162//84 163//84 170//84
f 163//85 172//85 171//85
f 164//86 173//86 172//86
f 165//125 174//125 173//125
f 166//88 175//88 174//88
f 167//89 176//89 175//89
f 168//90 177//90 176//90
f 169//91 178//91 177//91
f 170//92 171//92 178//92
f 139//93 140//93 148//93
f 140//94 141//94 149//94
f 141//95 142//95 150//95
f 142//96 143//96 151//96
f 143//97 144//97 152//97
f 144//98 145//98 153//98
f 145//99 146//99 154//99
f 146//100 139//100 147//100
f 147//101 148//101 156//101
f 148//102 149//102 157//102
f 149//103 150//103 158//103
f 150//104 151//104 159//104
f 151//105 152//105 160//105
f 152//106 153//106 161//106
f 153//107 154//107 162//107
f 154//108 147//108 155//108
f 155//109 156//109 164//109
f 156//110 157//110 165//110
f 157//111 158//111 166//111
f 158//112 159//112 167//112
f 159//113 160//113 168//113
f 160//114 161//114 169//114
f 161//115 162//115 170//115
f 162//116 155//116 163//116
f 163//117 164//117 172//117
f 164//118 165//118 173//118
f 165//119 166//119 174//119
f 166//120 167//120 175//120
f 167//121 168//121 176//121
f 168//122 169//122 177//122
f 169//123 170//123 178//123
f 170//124 163//124 171//124
f 179//126 185//126 184//126
f 180//127 186//127 185//127
f 181//128 187//128 186//128
f 182//129 188//129 187//129
f 183//130 189//130 188//130
f 182//131 190//131 189//131
f 181//132 191//132 190//132
f 180//133 184//133 191//133
f 184//134 193//134 192//134
f 185//135 194//135 193//135
f 186//136 195//136 194//136
f 187//137 196//137 195//137
f 188//138 197//138 196//138
f 189//139 198//139 197//139
f 190//140 199//140 198//140
f 191//141 192//141 199//141
f 192//142 201//142 200//142
f 193//143 202//143 201//143
f 194//144 203//144 202//144
f 195//145 204//145 203//145
f 196//146 205//146 204//146
f 197//147 206//147 205//147
f 198//148 207//148 206//148
f 199//149 200//149 207//149
f 200//150 209//150 208//150
f 201//151 210//151 209//151
f 202//152 211//152 210//152
f 203//153 212//153 211//153
f 204//154 213//154 212//154
f 205//155 214//155 213//155
f 206//156 215//156 214//156
f 207//157 208//157 215//157
f 179//158 180//158 185//158
f 180//159 181//159 186//159
f 181//158 182//158 187//158
f 182//160 183//160 188//160
f 183//161 182//161 189//161
f 182//162 181//162 190//162
f 181//161 180//161 191//161
f 180//163 179//163 184//163
f 184//164 185//164 193//164
f 185//165 186//165 194//165
f 186//166 187//166 195//166
f 187//167 188//167 196//167
f 188//168 189//168 197//168
f 189//169 190//169 198//169
f 190//170 191//170 199//170
f 191//171 184//171 192//171
f 192//172 193//172 201//172
f 193//173 194//173 202//173
f 194//174 195//174 203//174
f 195//175 196//175 204//175
f 196//176 197//176 205//176
f 197//177 198//177 206//177
f 198//178 199//178 207//178
f 199//179 192//179 200//179
f 200//180 201//180 209//180
f 201//151 202//151 210//151
f 202//152 203//152 211//152
f 203//181 204//181 212//181
f 204//182 205//182 213//182
f 205//183 206//183 214//183
f 206//184 207//184 215//184
f 207//185 200//185 208//185
f 216//186 230//186 231//186
f 217//187 231//187 232//187
f 218//188 232//188 233//188
f 219//189 233//189 234//189
f 220//190 234//190 235//190
f 221//191 235//191 236//191
f 222//192 236//192 237//192
f 223//193 237//193 238//193
f 224//194 238//194 239//194
f 225//195 239//195 240//195
f 226//196 240//196 241//196
f 227//197 241//197 242//197
f 228//198 242//198 243//198
f 229//199 243//199 230//199
f 216//186 231//186 217//186
f 217//200 232//200 218//200
f 218//201 233//201 219//201
f 219//189 234//189 220//189
f 220//190 235//190 221//190
f 221//191 236//191 222//191
f 222//192 237//192 223//192
f 223//193 238//193 224//193
f 224//194 239//194 225//194
f 225//202 240//202 226//202
f 226//203 241//203 227//203
f 227//204 242//204 228//204
f 228//205 243//205 229//205
f 229//199 230//199 216//199
f 244//186 258//186 259//186
f 245//206 259//206 260//206
f 246//201 260//201 261//201
f 247//189 261//189 262//189
f 248//207 262//207 263//207
f 249//191 263//191 264//191
f 250//192 264//192 265//192
f 251//193 265//193 266//193
f 252//194 266//194 267//194
f 253//208 267//208 268//208
f 254//209 268//209 269//209
f 255//210 269//210 270//210
f 256//211 270//211 271//211
f 257//199 271//199 258//199
f 244//186 259//186 245//186
f 245//200 260//200 246//200
f 246//200 261//200 247//200
f 247//212 262//212 248//212
f 248//213 263//213 249//213
f 249//191 264//191 250//191
f 250//192 265//192 251//192
f 251//193 266//193 252//193
f 252//194 267//194 253//194
f 253//208 268//208 254//208
f 254//196 269//196 255//196
f 255//214 270//214 256//214
f 256//205 271//205 257//205
f 257//199 258//199 244//199
f 272//215 275//215 273//215
f 273//215 275//215 274//215
f 272//216 277//216 276//216
f 272//216 273//216 277//216
f 272//217 276//217 275//217
f 275//217 276//217 279//217
f 275//218 279//218 278//218
f 275//218 278//218 274//218
f 273//219 278//219 277//219
f 273//219 274//219 278//219
f 277//220 279//220 276//220
f 277//220 278//220 279//220
