# Blender v2.79 (sub 0) OBJ File: ''
# www.blender.org
mtllib m1301.mtl
o m1301
v -0.029805 -0.442563 0.009744
v -0.000001 -0.398323 -0.018198
v -0.000001 -0.512416 0.009744
v -0.056815 -0.097955 -0.040085
v -0.088482 0.013809 -0.018198
v -0.000001 0.111604 -0.015869
v -0.000001 -0.298200 -0.078737
v -0.053555 -0.386681 0.009744
v -0.036325 -0.363396 -0.018198
v -0.101521 -0.274916 0.009744
v -0.061937 -0.326141 0.009744
v -0.000001 0.295550 0.009744
v 0.013038 0.225231 0.001827
v 0.074974 0.375648 -0.061506
v 0.069852 0.437584 -0.060109
v -0.046570 -0.286558 -0.018198
v -0.084756 -0.245112 -0.014472
v -0.088482 -0.135210 -0.027511
v -0.118751 -0.111926 0.003690
v -0.109903 0.125574 0.009744
v -0.000001 -0.274916 0.033028
v -0.013972 0.167486 -0.006090
v 0.013969 0.167486 -0.006090
v 0.074509 0.330476 -0.066163
v 0.070783 0.381236 -0.064766
v 0.004190 0.224300 0.000430
v -0.286398 0.204741 0.007415
v -0.284069 0.295550 0.009744
v -0.312011 0.218711 0.009744
v -0.312011 0.260623 0.009744
v -0.291520 0.229888 0.015332
v -0.069854 0.437584 -0.060109
v -0.070786 0.381236 -0.064766
v -0.074511 0.330476 -0.066163
v -0.074977 0.375648 -0.061506
v -0.004192 0.224300 0.000430
v -0.013040 0.225231 0.001827
v 0.029803 -0.442563 0.009744
v 0.036322 -0.363396 -0.018198
v 0.053553 -0.386681 0.009744
v 0.061935 -0.326141 0.009744
v 0.101518 -0.274916 0.009744
v 0.056813 -0.097955 -0.040085
v 0.088479 -0.135210 -0.027511
v 0.084754 -0.245112 -0.014472
v 0.046567 -0.286558 -0.018198
v 0.088479 0.013809 -0.018198
v 0.109901 0.125574 0.009744
v 0.118749 -0.111926 0.003690
v 0.312009 0.260623 0.009744
v 0.284067 0.295550 0.009744
v 0.291518 0.229888 0.015332
v 0.312009 0.218711 0.009744
v 0.286396 0.204741 0.007415
v 0.022817 -0.274916 -0.052658
v 0.032597 -0.288421 -0.036825
v 0.018161 -0.280504 -0.057781
v 0.010244 -0.310308 -0.062438
v 0.026543 -0.333592 -0.036359
v 0.014435 -0.349891 -0.043810
v -0.007452 -0.354083 -0.044742
v -0.000001 -0.354083 -0.045207
v -0.000001 -0.321950 -0.064300
v -0.006521 -0.319156 -0.063835
v -0.019560 -0.344769 -0.041016
v -0.014437 -0.349891 -0.043810
v -0.026545 -0.333592 -0.036359
v -0.010246 -0.310308 -0.062438
v -0.032599 -0.288421 -0.036825
v -0.018163 -0.280504 -0.057781
v -0.022820 -0.274916 -0.052658
v 0.007450 -0.354083 -0.044742
v 0.019558 -0.344769 -0.041016
v 0.006518 -0.319156 -0.063835
vn -0.4869 -0.2078 -0.8484
vn -0.1416 0.1514 -0.9783
vn -0.6863 -0.2917 -0.6663
vn -0.0000 0.0000 -1.0000
vn 0.6658 0.0396 0.7451
vn -0.2270 -0.1223 -0.9662
vn -0.4251 0.0565 -0.9034
vn -0.6995 0.0442 -0.7132
vn -0.2810 0.1817 -0.9423
vn -0.0629 0.0407 0.9972
vn -0.1285 0.1397 -0.9818
vn 0.7917 -0.0704 0.6068
vn -0.7481 0.0424 -0.6622
vn -0.6647 -0.0282 -0.7465
vn -0.7512 -0.1028 -0.6520
vn 0.0242 0.0246 -0.9994
vn -0.1149 -0.0490 -0.9922
vn -0.0905 0.0000 -0.9959
vn -0.0331 0.0265 -0.9991
vn -0.2226 -0.0945 0.9703
vn 0.0770 0.0789 0.9939
vn -0.2631 0.0000 0.9648
vn -0.1224 0.0979 0.9876
vn -0.6944 0.0707 -0.7161
vn 0.6642 -0.0286 -0.7470
vn 0.7483 0.0425 -0.6620
vn -0.7920 -0.0707 0.6064
vn -0.6673 0.0384 0.7438
vn 0.4869 -0.2078 -0.8484
vn 0.6863 -0.2917 -0.6663
vn 0.6685 0.0695 -0.7404
vn 0.2385 -0.1224 -0.9634
vn 0.4251 0.0565 -0.9034
vn 0.6986 0.0446 -0.7141
vn 0.2810 0.1817 -0.9423
vn 0.0629 0.0407 0.9972
vn 0.1286 0.1397 -0.9818
vn 0.1224 0.0979 0.9876
vn 0.2631 0.0000 0.9648
vn -0.0744 0.0762 0.9943
vn 0.7544 -0.1025 -0.6484
vn -0.0250 0.0250 -0.9994
vn 0.1175 -0.0501 -0.9918
vn 0.0905 0.0000 -0.9959
vn 0.0331 0.0265 -0.9991
vn 0.2158 -0.0905 0.9722
vn 0.7947 -0.1103 -0.5969
vn 0.8002 -0.1119 -0.5893
vn 0.8004 -0.1111 -0.5891
vn 0.8030 -0.1375 -0.5799
vn 0.7981 -0.1197 -0.5906
vn 0.7966 -0.1103 -0.5944
vn 0.8202 -0.0702 -0.5677
vn 0.6202 -0.3129 -0.7194
vn -0.0532 -0.5203 -0.8523
vn -0.0029 -0.5194 -0.8545
vn -0.0536 -0.5137 -0.8563
vn -0.0320 -0.5182 -0.8547
vn -0.2225 -0.0955 0.9702
vn -0.2235 -0.0950 0.9701
vn -0.1400 0.1366 -0.9807
vn -0.1420 0.1365 -0.9804
vn -0.1223 0.1367 -0.9830
vn -0.1028 0.1301 -0.9862
vn -0.6295 -0.3106 -0.7122
vn -0.6560 -0.2721 -0.7040
vn -0.7223 -0.2372 -0.6496
vn -0.6402 -0.3020 -0.7064
vn -0.6202 -0.3129 -0.7194
vn -0.8397 -0.0200 -0.5427
vn -0.7868 -0.1117 -0.6070
vn -0.7981 -0.1197 -0.5906
vn -0.8032 -0.1381 -0.5795
vn -0.8003 -0.1112 -0.5892
vn -0.8002 -0.1118 -0.5893
vn -0.7947 -0.1103 -0.5969
vn 0.0532 -0.5203 -0.8523
vn 0.0029 -0.5194 -0.8545
vn 0.0536 -0.5137 -0.8563
vn 0.0320 -0.5182 -0.8547
vn 0.1416 0.1514 -0.9783
vn 0.1367 0.1502 -0.9792
vn 0.2225 -0.0955 0.9702
vn 0.0000 0.0000 1.0000
vn 0.1400 0.1366 -0.9807
vn 0.1420 0.1365 -0.9804
vn 0.1223 0.1367 -0.9830
vn 0.1028 0.1301 -0.9862
vn 0.6407 -0.3025 -0.7057
vn 0.6560 -0.2721 -0.7040
vn 0.7229 -0.2367 -0.6491
vn 0.6402 -0.3020 -0.7063
vn -0.4824 -0.3727 -0.7927
vn 0.4821 -0.3729 -0.7928
vn -0.6613 -0.2824 -0.6949
vn -0.7943 -0.1126 -0.5970
vn -0.0536 -0.5101 -0.8585
vn 0.0536 -0.5101 -0.8585
vn 0.6613 -0.2824 -0.6949
vn 0.7960 -0.1192 -0.5934
vn -0.1367 0.1502 -0.9792
vn 0.6665 0.0383 0.7445
vn -0.2360 -0.1247 -0.9637
vn -0.7002 0.0445 -0.7125
vn 0.7919 -0.0707 0.6066
vn -0.7484 0.0425 -0.6619
vn -0.6641 -0.0286 -0.7471
vn -0.7534 -0.1038 -0.6493
vn 0.0244 0.0250 -0.9994
vn -0.1178 -0.0507 -0.9917
vn -0.2151 -0.0917 0.9723
vn 0.0720 0.0765 0.9945
vn -0.6529 0.0710 -0.7541
vn 0.6645 -0.0282 -0.7467
vn 0.7482 0.0423 -0.6621
vn -0.7916 -0.0704 0.6069
vn -0.6653 0.0394 0.7455
vn 0.6705 0.0721 -0.7384
vn 0.2293 -0.1245 -0.9654
vn 0.7003 0.0443 -0.7125
vn -0.0757 0.0786 0.9940
vn 0.7514 -0.1036 -0.6516
vn -0.0240 0.0246 -0.9994
vn 0.1145 -0.0490 -0.9922
vn 0.2225 -0.0949 0.9703
vn 0.8039 -0.1072 -0.5851
vn 0.7928 -0.1057 -0.6003
vn 0.8003 -0.1133 -0.5888
vn 0.8048 -0.0931 -0.5861
vn -0.2229 -0.0951 0.9702
vn -0.6139 -0.3274 -0.7183
vn -0.8094 -0.0883 -0.5807
vn -0.8050 -0.1051 -0.5839
vn -0.7981 -0.1105 -0.5923
vn -0.8006 -0.1056 -0.5899
vn 0.2233 -0.0951 0.9701
vn 0.6196 -0.3202 -0.7166
vn -0.4819 -0.3727 -0.7930
vn 0.4821 -0.3725 -0.7929
vn -0.7962 -0.1189 -0.5932
vn -0.7957 -0.1185 -0.5940
vn 0.7978 -0.1130 -0.5923
vn 0.7920 -0.1168 -0.5992
usemtl None
s off
f 1//1 2//1 3//1
f 4//2 5//2 6//2
f 8//3 9//3 1//3
f 10//4 11//4 8//4
f 12//5 13//5 14//5
f 16//6 17//6 18//6
f 4//7 18//7 5//7
f 19//8 20//8 5//8
f 20//9 12//9 5//9
f 12//10 20//10 21//10
f 5//11 22//11 6//11
f 13//12 23//12 24//12
f 15//13 25//13 26//13
f 25//14 24//14 23//14
f 19//15 18//15 17//15
f 20//16 19//16 27//16
f 19//17 10//17 29//17
f 29//18 30//18 27//18
f 27//19 30//19 28//19
f 10//20 21//20 31//20
f 21//21 20//21 28//21
f 30//22 29//22 31//22
f 31//23 28//23 30//23
f 32//24 33//24 34//24
f 36//25 22//25 34//25
f 12//26 36//26 33//26
f 35//27 34//27 22//27
f 32//28 35//28 37//28
f 3//29 2//29 38//29
f 38//30 39//30 40//30
f 40//4 41//4 42//4
f 14//31 24//31 25//31
f 43//32 44//32 45//32
f 47//33 44//33 43//33
f 44//34 47//34 48//34
f 47//35 12//35 48//35
f 21//36 48//36 12//36
f 6//37 23//37 47//37
f 50//38 51//38 52//38
f 52//39 53//39 50//39
f 52//40 51//40 48//40
f 42//41 45//41 44//41
f 51//42 54//42 49//42
f 54//43 53//43 42//43
f 54//44 50//44 53//44
f 51//45 50//45 54//45
f 53//46 52//46 21//46
f 43//47 55//47 7//47
f 43//48 46//48 55//48
f 46//49 56//49 55//49
f 55//50 57//50 7//50
f 57//51 58//51 7//51
f 46//52 41//52 40//52
f 39//53 7//53 58//53
f 7//54 60//54 38//54
f 61//55 62//55 2//55
f 7//56 63//56 61//56
f 1//57 7//57 61//57
f 1//58 61//58 2//58
f 21//59 10//59 8//59
f 21//60 8//60 1//60
f 6//61 22//61 36//61
f 6//62 36//62 12//62
f 37//63 22//63 5//63
f 12//64 37//64 5//64
f 9//65 7//65 64//65
f 9//66 65//66 66//66
f 66//67 64//67 7//67
f 1//68 9//68 66//68
f 1//69 66//69 7//69
f 67//70 68//70 7//70
f 69//71 67//71 9//71
f 7//72 68//72 70//72
f 7//73 70//73 71//73
f 71//74 69//74 16//74
f 71//75 16//75 4//75
f 7//76 71//76 4//76
f 2//77 62//77 72//77
f 72//78 63//78 7//78
f 72//79 7//79 38//79
f 2//80 72//80 38//80
f 6//81 47//81 43//81
f 7//82 6//82 43//82
f 40//83 42//83 21//83
f 3//84 38//84 40//84
f 26//85 23//85 6//85
f 12//86 26//86 6//86
f 47//87 23//87 13//87
f 47//88 13//88 12//88
f 73//89 74//89 7//89
f 60//90 73//90 39//90
f 7//91 74//91 60//91
f 60//92 39//92 38//92
f 11//93 10//93 17//93
f 46//94 45//94 42//94
f 64//95 66//95 65//95
f 68//96 67//96 69//96
f 63//97 62//97 61//97
f 72//98 62//98 63//98
f 73//99 60//99 74//99
f 57//100 55//100 56//100
f 4//101 6//101 7//101
f 12//102 14//102 15//102
f 16//103 18//103 4//103
f 19//104 5//104 18//104
f 13//105 24//105 14//105
f 15//106 26//106 12//106
f 25//107 23//107 26//107
f 19//108 17//108 10//108
f 20//109 27//109 28//109
f 19//110 29//110 27//110
f 10//111 31//111 29//111
f 21//112 28//112 31//112
f 32//113 34//113 35//113
f 36//114 34//114 33//114
f 12//115 33//115 32//115
f 35//116 22//116 37//116
f 32//117 37//117 12//117
f 14//118 25//118 15//118
f 43//119 45//119 46//119
f 44//120 48//120 49//120
f 52//121 48//121 21//121
f 42//122 44//122 49//122
f 51//123 49//123 48//123
f 54//124 42//124 49//124
f 53//125 21//125 42//125
f 46//126 40//126 39//126
f 46//127 39//127 59//127
f 46//128 59//128 56//128
f 39//129 58//129 59//129
f 21//130 1//130 3//130
f 9//131 64//131 65//131
f 67//132 7//132 9//132
f 69//133 9//133 8//133
f 69//134 8//134 11//134
f 69//135 11//135 16//135
f 3//136 40//136 21//136
f 73//137 7//137 39//137
f 11//138 17//138 16//138
f 46//139 42//139 41//139
f 68//140 69//140 71//140
f 68//141 71//141 70//141
f 57//142 56//142 59//142
f 57//143 59//143 58//143
