# Blender v2.79 (sub 0) OBJ File: ''
# www.blender.org
mtllib m1300.mtl
o m1300
v 0.027043 -0.203655 -0.009067
v -0.027043 -0.203655 -0.009067
v 0.108171 -0.382138 -0.122646
v -0.108172 -0.382138 -0.122646
v 0.108171 -0.463267 -0.122646
v -0.108172 -0.463267 -0.122646
v -0.121693 -0.098188 -0.027997
v 0.121693 -0.098188 -0.027997
v -0.083833 0.239848 0.026089
v 0.083833 0.239848 0.026089
v 0.067607 0.212805 -0.027997
v -0.067607 0.212805 -0.027997
v -0.067607 0.064069 -0.055039
v 0.067607 0.064069 -0.055039
v 0.000000 -0.165795 -0.027997
v 0.000000 0.361541 -0.027997
v 0.000000 0.280412 -0.109125
v 0.067607 0.348019 0.026089
v -0.067607 0.348019 0.026089
v 0.108171 0.172241 -0.027997
v -0.108172 0.172241 -0.027997
v -0.121693 0.050548 -0.027997
v 0.121693 0.050548 -0.027997
v 0.000001 -0.319145 0.026133
v -0.162258 0.050548 0.026089
v 0.162257 0.050548 0.026089
v -0.135215 0.212805 0.026089
v 0.135214 0.212805 0.026089
v 0.000002 0.486733 0.026070
v 0.130219 -0.186634 0.025245
v -0.130220 -0.186634 0.025245
v 0.141035 -0.129844 0.025044
v -0.141035 -0.129844 0.025044
v 0.322216 -0.294806 0.024507
v -0.322216 -0.294806 0.024507
v -0.349259 -0.267763 0.024499
v 0.349258 -0.267763 0.024499
v -0.349259 -0.229903 0.024490
v 0.349258 -0.229903 0.024490
vn -0.0000 0.0000 -1.0000
vn 0.6312 0.3075 -0.7121
vn 1.0000 -0.0000 -0.0000
vn 0.0989 -0.1780 -0.9790
vn 0.3153 -0.3159 -0.8949
vn 0.8471 0.1640 -0.5055
vn 0.5774 0.5773 -0.5773
vn 0.0018 -0.0012 1.0000
vn 0.8088 0.0000 0.5881
vn -0.0025 0.0022 -1.0000
vn 0.9125 -0.1051 -0.3954
vn 0.8397 0.1399 -0.5248
vn 0.4472 0.0000 -0.8944
vn 0.1761 0.1761 -0.9685
vn 0.4025 0.7648 -0.5031
vn 0.8885 -0.1707 -0.4259
vn -0.6312 0.3075 -0.7121
vn -0.0989 -0.1780 -0.9790
vn -0.3153 -0.3159 -0.8949
vn -0.8471 0.1640 -0.5055
vn -0.5774 0.5773 -0.5773
vn 0.0155 -0.0026 -0.9999
vn -0.8000 0.0000 -0.6000
vn -0.8397 0.1399 -0.5248
vn -0.4472 0.0000 -0.8944
vn -0.1761 0.1761 -0.9685
vn -0.4025 0.7648 -0.5031
vn -0.8885 -0.1707 -0.4259
vn -0.0018 -0.0013 1.0000
vn -0.8088 0.0000 0.5881
vn 0.2657 -0.4783 -0.8371
vn 0.9543 0.1472 -0.2601
vn 0.0016 -0.0013 1.0000
vn 0.0021 0.0055 -1.0000
vn -0.0079 -0.0002 -1.0000
vn -0.0155 -0.0026 -0.9999
vn 0.8000 0.0000 -0.6000
vn 0.7969 0.0885 -0.5976
vn 0.4568 0.0508 -0.8881
vn 0.5298 0.5298 -0.6623
vn 0.0050 0.0002 1.0000
vn 0.0040 0.0028 1.0000
vn 0.0076 0.0001 1.0000
vn 0.8070 -0.0090 0.5905
vn -0.2657 -0.4783 -0.8371
vn -0.9543 0.1472 -0.2601
vn -0.0067 0.0001 1.0000
vn -0.0017 -0.0014 1.0000
vn -0.0124 0.0012 0.9999
vn -0.0050 0.0002 1.0000
vn -0.8070 -0.0090 0.5905
vn 0.0079 -0.0002 -1.0000
vn -0.0021 0.0055 -1.0000
vn 0.0025 0.0022 -1.0000
vn -0.9125 -0.1051 -0.3954
vn -0.7969 0.0885 -0.5977
vn -0.4568 0.0507 -0.8881
vn -0.5298 0.5298 -0.6623
usemtl None
s off
f 18//1 28//1 10//1
f 29//2 18//2 16//2
f 17//3 24//3 15//3
f 8//4 15//4 17//4
f 24//5 15//5 30//5
f 17//6 18//6 8//6
f 18//7 17//7 16//7
f 29//8 32//8 34//8
f 5//9 3//9 24//9
f 28//10 37//10 34//10
f 26//11 32//11 8//11
f 28//12 26//12 20//12
f 23//13 8//13 14//13
f 11//14 20//14 14//14
f 10//15 28//15 11//15
f 8//16 32//16 30//16
f 19//1 9//1 27//1
f 29//17 16//17 19//17
f 7//18 17//18 15//18
f 24//19 31//19 15//19
f 17//20 7//20 19//20
f 19//21 16//21 17//21
f 27//22 25//22 35//22
f 25//23 22//23 7//23
f 27//24 21//24 25//24
f 22//25 13//25 7//25
f 12//26 13//26 21//26
f 9//27 12//27 27//27
f 7//28 31//28 33//28
f 29//29 36//29 33//29
f 6//30 24//30 4//30
f 15//31 8//31 30//31
f 18//32 32//32 8//32
f 34//33 37//33 29//33
f 34//34 32//34 26//34
f 28//35 39//35 37//35
f 34//36 26//36 28//36
f 8//37 23//37 26//37
f 26//38 23//38 20//38
f 20//39 23//39 14//39
f 28//40 20//40 11//40
f 37//41 39//41 29//41
f 24//42 30//42 32//42
f 29//43 24//43 32//43
f 24//44 3//44 1//44
f 31//45 7//45 15//45
f 7//46 33//46 19//46
f 31//47 24//47 29//47
f 36//48 35//48 33//48
f 33//49 31//49 29//49
f 29//50 38//50 36//50
f 24//51 2//51 4//51
f 36//52 38//52 27//52
f 25//53 33//53 35//53
f 35//54 36//54 27//54
f 7//55 33//55 25//55
f 21//56 22//56 25//56
f 13//57 22//57 21//57
f 12//58 21//58 27//58
