# Blender v2.79 (sub 0) OBJ File: ''
# www.blender.org
mtllib m1337.mtl
o m1337
v 0.028424 -0.172890 0.411612
v 0.080302 -0.156034 0.411612
v 0.124435 -0.123966 0.411612
v 0.156496 -0.079835 0.411612
v 0.173353 -0.027957 0.411612
v 0.173351 0.026594 0.411612
v 0.156495 0.078472 0.411612
v 0.124430 0.122602 0.411612
v 0.080298 0.154665 0.411612
v 0.028418 0.171523 0.411612
v -0.026130 0.171520 0.411612
v -0.078009 0.154664 0.411612
v -0.122140 0.122602 0.411612
v -0.154205 0.078466 0.411612
v -0.171061 0.026588 0.411612
v -0.171059 -0.027958 0.411612
v -0.154204 -0.079841 0.411612
v -0.122138 -0.123971 0.411612
v -0.078004 -0.156035 0.411612
v -0.026126 -0.172892 0.411612
v 0.023467 -0.140302 0.561809
v 0.065488 -0.126649 0.561809
v 0.101236 -0.100674 0.561809
v 0.127205 -0.064928 0.561809
v 0.140859 -0.022906 0.561809
v 0.140858 0.021280 0.561809
v 0.127204 0.063301 0.561809
v 0.101231 0.099046 0.561809
v 0.065485 0.125017 0.561809
v 0.023462 0.138672 0.561809
v -0.020722 0.138670 0.561809
v -0.062743 0.125016 0.561809
v -0.098490 0.099046 0.561809
v -0.124462 0.063296 0.561809
v -0.138116 0.021274 0.561809
v -0.138114 -0.022907 0.561809
v -0.124462 -0.064933 0.561809
v -0.098489 -0.100678 0.561809
v -0.062740 -0.126650 0.561809
v -0.020719 -0.140304 0.561809
v 0.029341 -0.177820 0.407883
v 0.082715 -0.160478 0.407883
v 0.128119 -0.127487 0.407883
v 0.161105 -0.082087 0.407883
v 0.178448 -0.028709 0.407883
v 0.178448 0.027410 0.407883
v 0.161106 0.080784 0.407883
v 0.128118 0.126187 0.407883
v 0.082715 0.159171 0.407883
v 0.029339 0.176517 0.407883
v -0.026779 0.176517 0.407883
v -0.080153 0.159174 0.407883
v -0.125556 0.126189 0.407883
v -0.158543 0.080784 0.407883
v -0.175888 0.027408 0.407883
v -0.175889 -0.028711 0.407883
v -0.158546 -0.082087 0.407883
v -0.125558 -0.127488 0.407883
v -0.080153 -0.160477 0.407883
v -0.026777 -0.177820 0.407883
v 0.042478 -0.263960 0.298373
v 0.121887 -0.238157 0.298373
v 0.189440 -0.189073 0.298373
v 0.238516 -0.121527 0.298373
v 0.264319 -0.042111 0.298373
v 0.264319 0.041383 0.298373
v 0.238517 0.120793 0.298373
v 0.189438 0.188345 0.298373
v 0.121888 0.237417 0.298373
v 0.042475 0.263224 0.298373
v -0.041018 0.263224 0.298373
v -0.120428 0.237422 0.298373
v -0.187980 0.188346 0.298373
v -0.237057 0.120793 0.298373
v -0.262864 0.041380 0.298373
v -0.262864 -0.042114 0.298373
v -0.237062 -0.121527 0.298373
v -0.187982 -0.189075 0.298373
v -0.120428 -0.238156 0.298373
v -0.041015 -0.263960 0.298373
v 0.272223 -0.272215 0.139494
v 0.343022 -0.174772 0.139494
v 0.380247 -0.060203 0.139494
v 0.380247 0.060246 0.139494
v 0.343023 0.174804 0.139494
v 0.272219 0.272256 0.139494
v -0.272252 0.272259 0.139494
v -0.343052 0.174804 0.139494
v -0.380282 0.060242 0.139494
v -0.380282 -0.060207 0.139494
v -0.343059 -0.174772 0.139494
v -0.272255 -0.272218 0.139494
v 0.389469 -0.198436 0.008937
v 0.431768 -0.068244 0.008937
v 0.431768 0.068629 0.008937
v 0.389469 0.198809 0.008937
v -0.390162 0.198809 0.008937
v -0.432466 0.068625 0.008937
v -0.432466 -0.068249 0.008937
v -0.390170 -0.198436 0.008937
v 0.431768 -0.068244 -0.135690
v 0.431768 0.068629 -0.135690
v -0.432466 0.068625 -0.135690
v -0.432466 -0.068249 -0.135690
v 0.371658 -0.058863 -0.251776
v 0.371659 0.058849 -0.251776
v -0.371583 0.058845 -0.251776
v -0.371584 -0.058867 -0.251776
v 0.242387 -0.123500 -0.336499
v 0.268613 -0.042781 -0.336499
v 0.268613 0.042081 -0.336499
v 0.242388 0.122793 -0.336499
v -0.240983 0.122793 -0.336499
v -0.267213 0.042078 -0.336499
v -0.267213 -0.042784 -0.336499
v -0.240988 -0.123499 -0.336499
v 0.028028 -0.169206 -0.372072
v 0.078798 -0.152710 -0.372072
v 0.121987 -0.121328 -0.372072
v 0.153364 -0.078143 -0.372072
v 0.169861 -0.027368 -0.372072
v 0.169861 0.026013 -0.372072
v 0.153364 0.076783 -0.372072
v 0.121986 0.119972 -0.372072
v 0.078798 0.151346 -0.372072
v 0.028026 0.167846 -0.372072
v -0.025355 0.167846 -0.372072
v -0.076125 0.151349 -0.372072
v -0.119314 0.119973 -0.372072
v -0.150691 0.076783 -0.372072
v -0.167191 0.026011 -0.372072
v -0.167191 -0.027370 -0.372072
v -0.150695 -0.078143 -0.372072
v -0.119315 -0.121329 -0.372072
v -0.076125 -0.152709 -0.372072
v -0.025353 -0.169206 -0.372072
v 0.002412 -0.001234 -0.388191
v 0.060212 -0.380246 0.139494
v 0.174770 -0.343025 0.139494
v 0.174770 0.343050 0.139494
v 0.060207 0.380279 0.139494
v -0.060242 0.380279 0.139494
v -0.174800 0.343057 0.139494
v -0.174800 -0.343024 0.139494
v -0.060237 -0.380246 0.139494
v 0.068093 -0.431931 0.008937
v 0.198273 -0.389631 0.008937
v 0.198273 0.389996 0.008937
v 0.068089 0.432303 0.008937
v -0.068786 0.432303 0.008937
v -0.198965 0.390007 0.008937
v -0.198966 -0.389631 0.008937
v -0.068781 -0.431931 0.008937
v 0.068093 -0.431931 -0.135690
v 0.198273 -0.389631 -0.135690
v 0.198273 0.389996 -0.135690
v 0.068089 0.432303 -0.135690
v -0.068786 0.432303 -0.135690
v -0.198965 0.390007 -0.135690
v -0.198966 -0.389631 -0.135690
v -0.068781 -0.431931 -0.135690
v 0.058898 -0.371633 -0.251776
v 0.170853 -0.335257 -0.251776
v 0.170853 0.335226 -0.251776
v 0.058894 0.371609 -0.251776
v -0.058818 0.371609 -0.251776
v -0.170773 0.335232 -0.251776
v -0.170773 -0.335256 -0.251776
v -0.058814 -0.371633 -0.251776
v 0.309015 -0.309167 0.008937
v 0.309011 0.309550 0.008937
v -0.309706 0.309554 0.008937
v -0.309710 -0.309170 0.008937
v 0.309015 -0.309167 -0.135690
v 0.389469 -0.198436 -0.135690
v 0.389469 0.198809 -0.135690
v 0.309011 0.309550 -0.135690
v -0.309706 0.309554 -0.135690
v -0.390162 0.198809 -0.135690
v -0.390170 -0.198436 -0.135690
v -0.309710 -0.309170 -0.135690
v 0.266090 -0.266057 -0.251776
v 0.335281 -0.170828 -0.251776
v 0.335282 0.170803 -0.251776
v 0.266088 0.266040 -0.251776
v -0.266010 0.266043 -0.251776
v -0.335200 0.170803 -0.251776
v -0.335208 -0.170828 -0.251776
v -0.266013 -0.266059 -0.251776
v 0.043134 -0.268266 -0.336499
v 0.123846 -0.242042 -0.336499
v 0.192506 -0.192153 -0.336499
v 0.192504 0.191452 -0.336499
v 0.123846 0.241330 -0.336499
v 0.043131 0.267560 -0.336499
v -0.041731 0.267560 -0.336499
v -0.122442 0.241334 -0.336499
v -0.191101 0.191454 -0.336499
v -0.191104 -0.192155 -0.336499
v -0.122442 -0.242040 -0.336499
v -0.041728 -0.268266 -0.336499
vn 0.3020 -0.9295 0.2116
vn 0.5745 -0.7907 0.2114
vn 0.7908 -0.5745 0.2112
vn 0.9296 -0.3021 0.2113
vn 0.9774 0.0000 0.2114
vn 0.9295 0.3020 0.2118
vn 0.7906 0.5744 0.2122
vn 0.5743 0.7905 0.2127
vn 0.3019 0.9292 0.2132
vn -0.0001 0.9769 0.2137
vn -0.3018 0.9290 0.2141
vn -0.5741 0.7902 0.2143
vn -0.7902 0.5741 0.2145
vn -0.9289 0.3018 0.2144
vn -0.9768 -0.0000 0.2143
vn -0.9291 -0.3018 0.2139
vn -0.7903 -0.5743 0.2135
vn -0.5743 -0.7905 0.2130
vn -0.3020 -0.9293 0.2125
vn 0.0000 -0.9773 0.2120
vn 0.0000 -0.7860 0.6182
vn -0.2427 -0.7469 0.6191
vn -0.4612 -0.6348 0.6199
vn -0.6343 -0.4609 0.6207
vn -0.7451 -0.2421 0.6214
vn -0.7831 0.0000 0.6219
vn -0.7445 0.2419 0.6222
vn -0.6334 0.4601 0.6222
vn -0.4603 0.6335 0.6219
vn -0.2421 0.7451 0.6214
vn 0.0000 0.7840 0.6208
vn 0.2425 0.7462 0.6199
vn 0.4616 0.6354 0.6191
vn 0.6359 0.4620 0.6183
vn 0.7480 0.2430 0.6176
vn 0.7869 0.0000 0.6171
vn 0.7486 -0.2432 0.6168
vn 0.6368 -0.4627 0.6168
vn 0.4626 -0.6366 0.6170
vn 0.2430 -0.7480 0.6175
vn -0.6513 -0.4732 0.5931
vn -0.6505 0.4726 0.5946
vn 0.6528 0.4743 0.5906
vn 0.6537 -0.4750 0.5892
vn -0.8833 -0.2870 0.3707
vn -0.8830 0.2870 0.3714
vn 0.8845 0.2874 0.3675
vn 0.8847 -0.2875 0.3669
vn -1.0000 0.0000 0.0000
vn 1.0000 0.0000 0.0000
vn -0.6302 0.0000 -0.7764
vn 0.6351 0.0000 -0.7724
vn -0.3191 -0.1037 -0.9420
vn -0.3185 0.1035 -0.9423
vn 0.3219 0.1046 -0.9410
vn 0.3225 -0.1048 -0.9407
vn 0.0000 -0.0955 -0.9954
vn -0.0295 -0.0907 -0.9954
vn -0.0559 -0.0769 -0.9955
vn -0.0768 -0.0558 -0.9955
vn -0.0901 -0.0293 -0.9955
vn -0.0946 0.0000 -0.9955
vn -0.0899 0.0292 -0.9955
vn -0.0765 0.0556 -0.9955
vn -0.0556 0.0765 -0.9955
vn -0.0293 0.0901 -0.9955
vn 0.0000 0.0949 -0.9955
vn 0.0294 0.0904 -0.9955
vn 0.0560 0.0771 -0.9954
vn 0.0773 0.0561 -0.9954
vn 0.0910 0.0296 -0.9954
vn 0.0958 0.0000 -0.9954
vn 0.0912 -0.0296 -0.9954
vn 0.0776 -0.0564 -0.9954
vn 0.0563 -0.0775 -0.9954
vn 0.0296 -0.0910 -0.9954
vn 0.0000 -0.8069 0.5906
vn -0.2492 -0.7669 0.5915
vn -0.2486 0.7652 0.5938
vn 0.0000 0.8051 0.5932
vn 0.2490 0.7662 0.5923
vn 0.2495 -0.7679 0.5899
vn 0.0000 -0.9298 0.3681
vn -0.2872 -0.8840 0.3688
vn -0.2870 0.8833 0.3708
vn 0.0000 0.9290 0.3702
vn 0.2872 0.8837 0.3695
vn 0.2874 -0.8845 0.3675
vn 0.0000 -1.0000 0.0000
vn -0.3090 -0.9511 0.0000
vn -0.3090 0.9511 0.0000
vn 0.0000 1.0000 0.0000
vn 0.3091 0.9510 0.0000
vn 0.3090 -0.9511 0.0000
vn 0.0000 -0.8874 -0.4609
vn -0.2741 -0.8436 -0.4617
vn -0.2737 0.8425 -0.4640
vn 0.0000 0.8862 -0.4633
vn 0.2740 0.8432 -0.4626
vn 0.2743 -0.8443 -0.4603
vn -0.4736 -0.6518 0.5923
vn -0.4727 0.6506 0.5944
vn 0.4739 0.6524 0.5915
vn 0.4749 -0.6535 0.5894
vn -0.5462 -0.7518 0.3695
vn -0.7515 -0.5461 0.3702
vn -0.7512 0.5457 0.3714
vn -0.5458 0.7512 0.3712
vn 0.5463 0.7520 0.3688
vn 0.7522 0.5465 0.3681
vn 0.7526 -0.5468 0.3669
vn 0.5468 -0.7525 0.3671
vn -0.5878 -0.8090 0.0000
vn -0.8090 -0.5878 0.0000
vn -0.9511 -0.3090 0.0000
vn -0.9510 0.3090 0.0000
vn -0.8090 0.5878 0.0000
vn -0.5878 0.8090 0.0000
vn 0.5877 0.8091 0.0000
vn 0.8090 0.5878 0.0000
vn 0.9511 0.3090 0.0000
vn 0.9511 -0.3090 0.0000
vn 0.8090 -0.5878 0.0000
vn 0.5878 -0.8090 0.0000
vn -0.5211 -0.7173 -0.4625
vn -0.7169 -0.5209 -0.4633
vn -0.8425 -0.2737 -0.4640
vn -0.8856 0.0000 -0.4645
vn -0.8421 0.2737 -0.4647
vn -0.7164 0.5204 -0.4647
vn -0.5205 0.7165 -0.4645
vn 0.5213 0.7176 -0.4617
vn 0.7179 0.5216 -0.4610
vn 0.8443 0.2743 -0.4603
vn 0.8880 -0.0000 -0.4598
vn 0.8447 -0.2744 -0.4596
vn 0.7185 -0.5221 -0.4596
vn 0.5220 -0.7184 -0.4598
vn 0.0000 -0.6339 -0.7734
vn -0.1956 -0.6021 -0.7741
vn -0.3716 -0.5115 -0.7748
vn -0.5108 -0.3712 -0.7754
vn -0.5999 -0.1949 -0.7760
vn -0.5991 0.1947 -0.7766
vn -0.5097 0.3703 -0.7766
vn -0.3704 0.5099 -0.7764
vn -0.1949 0.5999 -0.7760
vn 0.0000 0.6314 -0.7754
vn 0.1954 0.6013 -0.7748
vn 0.3721 0.5122 -0.7741
vn 0.5128 0.3726 -0.7734
vn 0.6035 0.1961 -0.7729
vn 0.6043 -0.1963 -0.7722
vn 0.5140 -0.3735 -0.7722
vn 0.3733 -0.5138 -0.7724
vn 0.1961 -0.6035 -0.7728
vn 0.0000 -0.3380 -0.9412
vn -0.1042 -0.3208 -0.9414
vn -0.1979 -0.2724 -0.9416
vn -0.2718 -0.1975 -0.9419
vn -0.2709 0.1968 -0.9423
vn -0.1969 0.2711 -0.9422
vn -0.1037 0.3191 -0.9421
vn 0.0000 0.3360 -0.9419
vn 0.1040 0.3202 -0.9416
vn 0.1983 0.2729 -0.9414
vn 0.2734 0.1986 -0.9412
vn 0.2744 -0.1993 -0.9407
vn 0.1992 -0.2742 -0.9408
vn 0.1046 -0.3220 -0.9410
vn -0.7652 -0.2486 0.5938
vn -0.8042 0.0000 0.5943
vn -0.7647 0.2485 0.5946
vn 0.7679 0.2495 0.5899
vn 0.8078 0.0000 0.5894
vn 0.7685 -0.2497 0.5892
vn -0.9286 0.0000 0.3712
vn 0.9302 0.0000 0.3671
vn -0.3351 0.0000 -0.9422
vn 0.3389 0.0000 -0.9408
vn 0.9296 -0.3020 0.2113
vn -0.0000 0.9769 0.2137
vn -0.3019 0.9290 0.2141
vn -0.7445 0.2420 0.6222
vn 0.2431 -0.7480 0.6176
vn -0.6513 -0.4733 0.5931
vn -0.8830 0.2869 0.3714
vn 0.8848 -0.2875 0.3669
vn -0.2492 -0.7669 0.5914
vn 0.2490 0.7663 0.5923
vn -0.2870 0.8833 0.3707
vn 0.2740 0.8432 -0.4625
vn -0.8421 0.2736 -0.4647
usemtl None
s off
f 2//1 21//1 1//1
f 3//2 22//2 2//2
f 4//3 23//3 3//3
f 5//4 24//4 4//4
f 6//5 25//5 5//5
f 7//6 26//6 6//6
f 8//7 27//7 7//7
f 9//8 28//8 8//8
f 10//9 29//9 9//9
f 11//10 30//10 10//10
f 12//11 31//11 11//11
f 13//12 32//12 12//12
f 14//13 33//13 13//13
f 15//14 34//14 14//14
f 16//15 35//15 15//15
f 17//16 36//16 16//16
f 18//17 37//17 17//17
f 19//18 38//18 18//18
f 20//19 39//19 19//19
f 1//20 40//20 20//20
f 41//21 60//21 80//21
f 60//22 59//22 79//22
f 59//23 58//23 78//23
f 78//24 58//24 57//24
f 77//25 57//25 56//25
f 56//26 55//26 75//26
f 55//27 54//27 74//27
f 54//28 53//28 73//28
f 73//29 53//29 52//29
f 72//30 52//30 51//30
f 71//31 51//31 50//31
f 50//32 49//32 69//32
f 49//33 48//33 68//33
f 68//34 48//34 47//34
f 67//35 47//35 46//35
f 66//36 46//36 45//36
f 45//37 44//37 64//37
f 44//38 43//38 63//38
f 63//39 43//39 42//39
f 62//40 42//40 41//40
f 92//41 78//41 77//41
f 74//42 73//42 87//42
f 86//43 68//43 67//43
f 64//44 63//44 81//44
f 100//45 91//45 90//45
f 89//46 88//46 97//46
f 96//47 85//47 84//47
f 83//48 82//48 93//48
f 104//49 99//49 98//49
f 102//50 95//50 94//50
f 107//51 114//51 115//51
f 110//52 111//52 106//52
f 115//53 132//53 133//53
f 113//54 130//54 131//54
f 111//55 122//55 123//55
f 120//56 121//56 110//56
f 117//57 136//57 137//57
f 136//58 135//58 137//58
f 135//59 134//59 137//59
f 134//60 133//60 137//60
f 133//61 132//61 137//61
f 132//62 131//62 137//62
f 131//63 130//63 137//63
f 130//64 129//64 137//64
f 129//65 128//65 137//65
f 128//66 127//66 137//66
f 127//67 126//67 137//67
f 126//68 125//68 137//68
f 125//69 124//69 137//69
f 124//70 123//70 137//70
f 123//71 122//71 137//71
f 122//72 121//72 137//72
f 121//73 120//73 137//73
f 120//74 119//74 137//74
f 119//75 118//75 137//75
f 118//76 117//76 137//76
f 61//77 80//77 145//77
f 80//78 79//78 144//78
f 143//79 72//79 71//79
f 142//80 71//80 70//80
f 70//81 69//81 140//81
f 139//82 62//82 61//82
f 138//83 145//83 153//83
f 145//84 144//84 152//84
f 151//85 143//85 142//85
f 150//86 142//86 141//86
f 141//87 140//87 148//87
f 147//88 139//88 138//88
f 154//89 146//89 153//89
f 161//90 153//90 152//90
f 159//91 151//91 150//91
f 158//92 150//92 149//92
f 157//93 149//93 148//93
f 155//94 147//94 146//94
f 169//95 162//95 154//95
f 168//96 169//96 161//96
f 166//97 167//97 159//97
f 165//98 166//98 158//98
f 164//99 165//99 157//99
f 162//100 163//100 155//100
f 79//101 78//101 92//101
f 87//102 73//102 72//102
f 69//103 68//103 86//103
f 81//104 63//104 62//104
f 144//105 92//105 173//105
f 173//106 92//106 91//106
f 88//107 87//107 172//107
f 172//108 87//108 143//108
f 140//109 86//109 171//109
f 171//110 86//110 85//110
f 82//111 81//111 170//111
f 170//112 81//112 139//112
f 160//113 152//113 173//113
f 181//114 173//114 100//114
f 180//115 100//115 99//115
f 103//116 98//116 97//116
f 179//117 97//117 172//117
f 178//118 172//118 151//118
f 156//119 148//119 171//119
f 177//120 171//120 96//120
f 176//121 96//121 95//121
f 101//122 94//122 93//122
f 175//123 93//123 170//123
f 174//124 170//124 147//124
f 189//125 168//125 160//125
f 188//126 189//126 181//126
f 108//127 188//127 180//127
f 107//128 108//128 104//128
f 187//129 107//129 103//129
f 186//130 187//130 179//130
f 167//131 186//131 178//131
f 185//132 164//132 156//132
f 184//133 185//133 177//133
f 106//134 184//134 176//134
f 105//135 106//135 102//135
f 183//136 105//136 101//136
f 182//137 183//137 175//137
f 163//138 182//138 174//138
f 201//139 190//139 162//139
f 200//140 201//140 169//140
f 189//141 199//141 200//141
f 116//142 199//142 189//142
f 115//143 116//143 188//143
f 113//144 114//144 107//144
f 186//145 198//145 113//145
f 167//146 197//146 198//146
f 166//147 196//147 197//147
f 195//148 196//148 166//148
f 164//149 194//149 195//149
f 193//150 194//150 164//150
f 184//151 112//151 193//151
f 111//152 112//152 184//152
f 183//153 109//153 110//153
f 192//154 109//154 183//154
f 191//155 192//155 182//155
f 190//156 191//156 163//156
f 201//157 136//157 117//157
f 200//158 135//158 136//158
f 134//159 135//159 200//159
f 116//160 133//160 134//160
f 129//161 130//161 113//161
f 128//162 129//162 198//162
f 127//163 128//163 197//163
f 195//164 126//164 127//164
f 125//165 126//165 195//165
f 193//166 124//166 125//166
f 123//167 124//167 193//167
f 119//168 120//168 109//168
f 118//169 119//169 192//169
f 117//170 118//170 191//170
f 91//171 77//171 76//171
f 76//172 75//172 89//172
f 75//173 74//173 88//173
f 85//174 67//174 66//174
f 84//175 66//175 65//175
f 65//176 64//176 82//176
f 90//177 89//177 98//177
f 95//178 84//178 83//178
f 131//179 132//179 115//179
f 110//180 121//180 122//180
f 2//1 22//1 21//1
f 3//2 23//2 22//2
f 4//3 24//3 23//3
f 5//181 25//181 24//181
f 6//5 26//5 25//5
f 7//6 27//6 26//6
f 8//7 28//7 27//7
f 9//8 29//8 28//8
f 10//9 30//9 29//9
f 11//182 31//182 30//182
f 12//183 32//183 31//183
f 13//12 33//12 32//12
f 14//13 34//13 33//13
f 15//14 35//14 34//14
f 16//15 36//15 35//15
f 17//16 37//16 36//16
f 18//17 38//17 37//17
f 19//18 39//18 38//18
f 20//19 40//19 39//19
f 1//20 21//20 40//20
f 41//21 80//21 61//21
f 60//22 79//22 80//22
f 59//23 78//23 79//23
f 78//24 57//24 77//24
f 77//25 56//25 76//25
f 56//26 75//26 76//26
f 55//184 74//184 75//184
f 54//28 73//28 74//28
f 73//29 52//29 72//29
f 72//30 51//30 71//30
f 71//31 50//31 70//31
f 50//32 69//32 70//32
f 49//33 68//33 69//33
f 68//34 47//34 67//34
f 67//35 46//35 66//35
f 66//36 45//36 65//36
f 45//37 64//37 65//37
f 44//38 63//38 64//38
f 63//39 42//39 62//39
f 62//185 41//185 61//185
f 92//186 77//186 91//186
f 74//42 87//42 88//42
f 86//43 67//43 85//43
f 64//44 81//44 82//44
f 100//45 90//45 99//45
f 89//187 97//187 98//187
f 96//47 84//47 95//47
f 83//188 93//188 94//188
f 104//49 98//49 103//49
f 102//50 94//50 101//50
f 107//51 115//51 108//51
f 110//52 106//52 105//52
f 115//53 133//53 116//53
f 113//54 131//54 114//54
f 111//55 123//55 112//55
f 120//56 110//56 109//56
f 61//77 145//77 138//77
f 80//189 144//189 145//189
f 143//79 71//79 142//79
f 142//80 70//80 141//80
f 70//190 140//190 141//190
f 139//82 61//82 138//82
f 138//83 153//83 146//83
f 145//84 152//84 153//84
f 151//191 142//191 150//191
f 150//86 141//86 149//86
f 141//87 148//87 149//87
f 147//88 138//88 146//88
f 154//89 153//89 161//89
f 161//90 152//90 160//90
f 159//91 150//91 158//91
f 158//92 149//92 157//92
f 157//93 148//93 156//93
f 155//94 146//94 154//94
f 169//95 154//95 161//95
f 168//96 161//96 160//96
f 166//97 159//97 158//97
f 165//98 158//98 157//98
f 164//192 157//192 156//192
f 162//100 155//100 154//100
f 79//101 92//101 144//101
f 87//102 72//102 143//102
f 69//103 86//103 140//103
f 81//104 62//104 139//104
f 144//105 173//105 152//105
f 173//106 91//106 100//106
f 88//107 172//107 97//107
f 172//108 143//108 151//108
f 140//109 171//109 148//109
f 171//110 85//110 96//110
f 82//111 170//111 93//111
f 170//112 139//112 147//112
f 160//113 173//113 181//113
f 181//114 100//114 180//114
f 180//115 99//115 104//115
f 103//116 97//116 179//116
f 179//117 172//117 178//117
f 178//118 151//118 159//118
f 156//119 171//119 177//119
f 177//120 96//120 176//120
f 176//121 95//121 102//121
f 101//122 93//122 175//122
f 175//123 170//123 174//123
f 174//124 147//124 155//124
f 189//125 160//125 181//125
f 188//126 181//126 180//126
f 108//127 180//127 104//127
f 107//128 104//128 103//128
f 187//193 103//193 179//193
f 186//130 179//130 178//130
f 167//131 178//131 159//131
f 185//132 156//132 177//132
f 184//133 177//133 176//133
f 106//134 176//134 102//134
f 105//135 102//135 101//135
f 183//136 101//136 175//136
f 182//137 175//137 174//137
f 163//138 174//138 155//138
f 201//139 162//139 169//139
f 200//140 169//140 168//140
f 189//141 200//141 168//141
f 116//142 189//142 188//142
f 115//143 188//143 108//143
f 113//144 107//144 187//144
f 186//145 113//145 187//145
f 167//146 198//146 186//146
f 166//147 197//147 167//147
f 195//148 166//148 165//148
f 164//149 195//149 165//149
f 193//150 164//150 185//150
f 184//151 193//151 185//151
f 111//152 184//152 106//152
f 183//153 110//153 105//153
f 192//154 183//154 182//154
f 191//155 182//155 163//155
f 190//156 163//156 162//156
f 201//157 117//157 190//157
f 200//158 136//158 201//158
f 134//159 200//159 199//159
f 116//160 134//160 199//160
f 129//161 113//161 198//161
f 128//162 198//162 197//162
f 127//163 197//163 196//163
f 195//164 127//164 196//164
f 125//165 195//165 194//165
f 193//166 125//166 194//166
f 123//167 193//167 112//167
f 119//168 109//168 192//168
f 118//169 192//169 191//169
f 117//170 191//170 190//170
f 91//171 76//171 90//171
f 76//172 89//172 90//172
f 75//173 88//173 89//173
f 85//174 66//174 84//174
f 84//175 65//175 83//175
f 65//176 82//176 83//176
f 90//177 98//177 99//177
f 95//178 83//178 94//178
f 131//179 115//179 114//179
f 110//180 122//180 111//180
