# Blender v2.79 (sub 0) OBJ File: ''
# www.blender.org
mtllib m1448.mtl
o m1448
v -0.019498 -0.135756 0.139468
v 0.058980 -0.191517 0.141533
v -0.052541 -0.191517 0.141533
v 0.025937 -0.135756 0.139468
v 0.046589 -0.241082 0.141533
v -0.040150 -0.241082 0.141533
v 0.034198 -0.276191 0.139468
v -0.027759 -0.276191 0.139468
v 0.021806 -0.288582 0.139468
v -0.015368 -0.288582 0.139468
v 0.003220 0.351635 0.096098
v -0.005041 0.302070 0.096098
v -0.021563 0.302070 0.100229
v 0.003220 0.302070 0.094033
v -0.040150 0.244244 0.104359
v -0.015367 0.244244 0.096098
v -0.027758 0.174026 0.096098
v -0.056672 0.174027 0.106424
v -0.007106 0.174026 0.089902
v -0.000911 0.244244 0.091968
v -0.038085 0.107940 0.089902
v -0.027759 0.107940 0.083707
v -0.033954 0.079027 0.081642
v -0.044280 0.079027 0.087837
v -0.048411 0.043918 0.085772
v -0.038085 0.043918 0.079576
v -0.066998 0.107940 0.108489
v -0.060802 0.039787 0.098163
v -0.027759 0.043918 0.073381
v -0.025693 0.079026 0.075446
v -0.019498 0.107940 0.079576
v -0.062867 -0.030430 0.100229
v -0.062867 -0.024234 0.100229
v -0.056672 -0.022169 0.087837
v -0.056672 -0.028365 0.087837
v -0.052541 -0.022169 0.083707
v -0.052541 0.017070 0.089902
v -0.077324 0.019135 0.110555
v -0.027759 -0.022169 0.069250
v -0.042215 -0.022169 0.075446
v -0.038085 0.174026 0.155989
v -0.025693 0.231853 0.151859
v -0.048411 0.107940 0.158055
v -0.054606 0.019135 0.160120
v -0.075259 0.019135 0.110555
v -0.050476 -0.108908 0.075446
v -0.027759 -0.108908 0.069250
v -0.027759 -0.135756 0.098163
v -0.060802 -0.127495 0.098163
v -0.077324 -0.079995 0.112620
v -0.062867 -0.077930 0.100229
v -0.056672 -0.065539 0.087837
v -0.042215 -0.073800 0.073381
v -0.027759 -0.075865 0.065120
v -0.064933 -0.191517 0.114685
v -0.058737 -0.191517 0.100229
v -0.040150 -0.280321 0.112620
v -0.054607 -0.241082 0.114685
v -0.048411 -0.241082 0.100229
v -0.036020 -0.276191 0.100229
v -0.023629 -0.288582 0.100229
v -0.023629 -0.305104 0.112620
v -0.060802 -0.127495 0.139468
v -0.038085 -0.241082 0.151859
v -0.027759 -0.272060 0.151859
v -0.013302 -0.292712 0.151859
v -0.050476 -0.191517 0.153924
v -0.056672 -0.079995 0.158055
v -0.015367 0.269026 0.149794
v 0.003220 0.304135 0.143598
v 0.011481 0.302070 0.096098
v 0.028002 0.302070 0.100228
v 0.021807 0.244244 0.096098
v 0.046589 0.244244 0.104359
v 0.034198 0.174026 0.096098
v 0.063111 0.174026 0.106424
v 0.013546 0.174026 0.089902
v 0.007350 0.244244 0.091968
v 0.034198 0.107939 0.083707
v 0.044524 0.107939 0.089902
v 0.040394 0.079026 0.081641
v 0.050720 0.079026 0.087837
v 0.054850 0.043918 0.085772
v 0.044524 0.043918 0.079576
v 0.073437 0.107939 0.108489
v 0.067241 0.039787 0.098163
v 0.034198 0.043918 0.073381
v 0.032133 0.079026 0.075446
v 0.025937 0.107939 0.079576
v 0.069306 -0.024234 0.100228
v 0.069306 -0.030430 0.100228
v 0.063111 -0.022169 0.087837
v 0.063111 -0.028365 0.087837
v 0.058980 -0.022169 0.083707
v 0.058980 0.017070 0.089902
v 0.083763 0.019135 0.110554
v 0.034198 -0.022169 0.069250
v 0.048654 -0.022169 0.075446
v 0.032133 0.231853 0.151859
v 0.044524 0.174026 0.155989
v 0.054850 0.107939 0.158055
v 0.061046 0.019135 0.160120
v 0.081698 0.019135 0.110554
v 0.034198 -0.108908 0.069250
v 0.056915 -0.108908 0.075446
v 0.034198 -0.135756 0.098163
v 0.067241 -0.127495 0.098163
v 0.083763 -0.079995 0.112620
v 0.069306 -0.077930 0.100228
v 0.048654 -0.073800 0.073381
v 0.063111 -0.065539 0.087837
v 0.034198 -0.075865 0.065120
v 0.071372 -0.191517 0.114685
v 0.065176 -0.191517 0.100228
v 0.061045 -0.241082 0.114685
v 0.046589 -0.280321 0.112620
v 0.054850 -0.241082 0.100228
v 0.042458 -0.276191 0.100228
v 0.030067 -0.288582 0.100228
v 0.030067 -0.305104 0.112620
v 0.067241 -0.127495 0.139468
v 0.044524 -0.241082 0.151859
v 0.034198 -0.272060 0.151859
v 0.019741 -0.292712 0.151859
v 0.063111 -0.079995 0.158054
v 0.056915 -0.191517 0.153924
v 0.021807 0.269026 0.149794
v 0.003220 0.066635 0.044468
v 0.005285 0.066635 0.040337
v 0.003219 -0.249343 0.044468
v 0.005284 -0.249343 0.040337
v 0.003219 -0.249343 0.038272
v 0.001154 -0.249343 0.040337
v 0.001154 0.066635 0.040337
v 0.003220 0.066635 0.038272
v -0.000911 0.070766 0.075446
v 0.005284 0.017070 -0.645315
v 0.001154 0.017070 -0.645315
v 0.007350 0.070766 0.075446
v 0.005284 0.023266 -0.645315
v 0.001154 0.023266 -0.645315
v 0.007350 0.079026 0.075446
v -0.000911 0.079026 0.075446
v -0.009172 0.227722 -0.021619
v -0.017433 0.124461 -0.023685
v -0.005042 0.074896 -0.442924
v 0.003220 0.085222 0.056859
v 0.003219 0.025331 -0.643250
v 0.003220 0.322722 0.075446
v -0.009172 -0.040756 -0.277706
v -0.011237 -0.005647 -0.275641
v -0.017433 -0.022169 -0.029880
v -0.013302 -0.146082 -0.044337
v 0.003219 0.017070 -0.643250
v 0.003220 0.066635 0.036207
v 0.003219 -0.247278 0.036207
v 0.003220 0.252505 0.170446
v 0.003220 0.225657 0.178707
v 0.003220 0.174026 0.191098
v -0.005041 0.019135 0.205555
v 0.003220 0.107940 0.199359
v 0.003220 0.012940 0.304685
v -0.002976 -0.191517 0.184902
v -0.009172 -0.079995 0.203489
v 0.003220 -0.063474 0.302619
v 0.003220 -0.094452 0.201424
v 0.003219 -0.286517 0.226207
v 0.001154 -0.255538 0.257185
v 0.001154 -0.267930 0.267511
v 0.001154 -0.251408 0.172511
v 0.003219 -0.284451 0.158055
v -0.005041 -0.267930 0.164250
v -0.002976 -0.241082 0.176642
v 0.003220 0.275222 0.160120
v 0.011481 0.019135 0.205555
v 0.009415 -0.191517 0.184902
v 0.015611 -0.079995 0.203489
v 0.005285 -0.255538 0.257185
v 0.005285 -0.267930 0.267511
v 0.005285 -0.251408 0.172511
v 0.011480 -0.267930 0.164250
v 0.009415 -0.241082 0.176642
vn 0.0000 -0.0370 -0.9993
vn 0.0000 0.0000 -1.0000
vn 0.0000 0.0587 -0.9983
vn -0.2424 0.0404 -0.9693
vn -0.2423 0.0404 -0.9694
vn -0.3157 0.0557 -0.9472
vn -0.3359 0.0514 -0.9405
vn -0.2870 0.0506 -0.9566
vn -0.2743 0.0525 -0.9602
vn -0.5071 0.1690 -0.8452
vn -0.5114 0.1103 -0.8522
vn -0.5113 0.1103 -0.8523
vn -0.5326 0.1733 -0.8285
vn -0.6283 0.0604 -0.7757
vn -0.5980 0.0821 -0.7973
vn -0.4365 0.2182 -0.8728
vn -0.5899 0.1826 -0.7865
vn -0.8944 0.0000 -0.4472
vn -0.8945 0.0697 -0.4415
vn -0.7027 0.1110 -0.7028
vn -0.7071 0.0000 -0.7071
vn -0.7221 0.1250 -0.6804
vn -0.5946 -0.0068 -0.8040
vn -0.6437 0.0571 -0.7631
vn -0.3933 0.0574 -0.9176
vn -0.5126 0.0854 -0.8544
vn -0.5126 0.0854 -0.8543
vn -0.6234 0.0633 -0.7793
vn -0.2828 0.1768 -0.9427
vn -0.5079 0.1587 -0.8466
vn -0.5398 0.0581 -0.8398
vn -0.3330 0.1395 -0.9325
vn -0.9133 0.2202 0.3425
vn -0.9142 0.2250 0.3369
vn -0.9338 0.0733 0.3502
vn -0.9190 0.0944 0.3829
vn -0.9250 0.1554 0.3469
vn -0.1825 -0.7205 -0.6690
vn -0.1799 -0.7197 -0.6706
vn -0.6511 0.0045 -0.7589
vn -0.6691 0.1142 -0.7344
vn -0.9040 -0.0199 -0.4271
vn -0.5048 -0.1071 -0.8566
vn -0.2631 0.0052 -0.9647
vn -0.8024 -0.1001 -0.5883
vn -0.9183 -0.0423 -0.3936
vn -0.8759 -0.3030 -0.3754
vn -0.8678 -0.3063 -0.3914
vn -0.6396 -0.6396 -0.4264
vn -0.6690 -0.4460 -0.5946
vn -0.9027 -0.1881 -0.3869
vn -0.0066 -0.0331 -0.9994
vn 0.9233 0.3367 -0.1847
vn 0.9249 0.3264 -0.1947
vn -0.8603 -0.3371 0.3824
vn -0.8908 -0.2969 0.3438
vn 0.6994 0.6994 -0.1472
vn -0.7659 -0.5362 0.3548
vn -0.7741 -0.5161 0.3667
vn -0.2425 -0.9701 0.0000
vn -0.1960 -0.9798 0.0392
vn 0.9816 0.1219 -0.1472
vn 0.9995 0.0322 0.0000
vn 0.9686 0.2018 -0.1453
vn 0.9524 0.2381 -0.1905
vn -0.9364 -0.0648 0.3450
vn -0.9064 -0.0931 0.4120
vn -0.9209 -0.1919 0.3393
vn -0.8875 -0.2383 0.3944
vn -0.5812 0.0000 -0.8137
vn -0.6177 -0.0164 -0.7862
vn -0.6508 0.0000 -0.7593
vn -0.9100 0.0276 0.4136
vn -0.9230 0.0112 0.3846
vn -0.6246 -0.0149 -0.7808
vn -0.6986 0.0286 -0.7150
vn -0.3937 0.0367 -0.9185
vn -0.4878 0.0669 -0.8704
vn -0.8954 0.3106 0.3190
vn -0.8996 0.2690 0.3440
vn -0.7706 0.4816 0.4174
vn -0.7918 0.4319 0.4319
vn -0.3161 0.0339 -0.9481
vn -0.2423 0.0433 -0.9692
vn -0.2422 0.0519 -0.9688
vn -0.2744 0.0490 -0.9604
vn 0.2423 0.0404 -0.9694
vn 0.3157 0.0557 -0.9472
vn 0.3359 0.0514 -0.9405
vn 0.2870 0.0506 -0.9566
vn 0.2743 0.0525 -0.9602
vn 0.5071 0.1691 -0.8452
vn 0.5071 0.1690 -0.8451
vn 0.5114 0.1103 -0.8522
vn 0.5326 0.1733 -0.8285
vn 0.6283 0.0604 -0.7757
vn 0.5113 0.1103 -0.8523
vn 0.5979 0.0821 -0.7973
vn 0.4365 0.2182 -0.8729
vn 0.5899 0.1826 -0.7866
vn 0.8944 0.0000 -0.4472
vn 0.8946 0.0697 -0.4415
vn 0.7027 0.1110 -0.7028
vn 0.7071 0.0000 -0.7071
vn 0.7221 0.1250 -0.6804
vn 0.5946 -0.0068 -0.8040
vn 0.6437 0.0571 -0.7631
vn 0.3933 0.0574 -0.9176
vn 0.5126 0.0854 -0.8544
vn 0.5126 0.0854 -0.8543
vn 0.6235 0.0633 -0.7793
vn 0.2828 0.1768 -0.9427
vn 0.5079 0.1587 -0.8466
vn 0.5398 0.0581 -0.8398
vn 0.3330 0.1395 -0.9325
vn 0.9134 0.2202 0.3425
vn 0.9142 0.2250 0.3369
vn 0.9338 0.0733 0.3502
vn 0.9190 0.0944 0.3829
vn 0.9250 0.1554 0.3469
vn 0.1825 -0.7205 -0.6690
vn 0.1799 -0.7197 -0.6706
vn 0.6512 0.0045 -0.7589
vn 0.6691 0.1142 -0.7344
vn 0.9040 -0.0199 -0.4271
vn 0.5048 -0.1071 -0.8566
vn 0.2631 0.0052 -0.9647
vn 0.8024 -0.1000 -0.5883
vn 0.9183 -0.0423 -0.3936
vn 0.8760 -0.3030 -0.3754
vn 0.8678 -0.3063 -0.3914
vn 0.6396 -0.6396 -0.4264
vn 0.6690 -0.4460 -0.5946
vn 0.9028 -0.1881 -0.3868
vn 0.9027 -0.1881 -0.3869
vn 0.0066 -0.0331 -0.9994
vn -0.9233 0.3367 -0.1847
vn -0.9249 0.3265 -0.1947
vn 0.8603 -0.3371 0.3824
vn 0.8908 -0.2969 0.3438
vn -0.6994 0.6994 -0.1472
vn 0.7659 -0.5362 0.3548
vn 0.7741 -0.5161 0.3667
vn 0.2425 -0.9701 0.0000
vn 0.1960 -0.9798 0.0392
vn -0.9816 0.1219 -0.1472
vn -0.9995 0.0322 0.0000
vn -0.9686 0.2018 -0.1453
vn -0.9524 0.2381 -0.1905
vn 0.9364 -0.0648 0.3450
vn 0.9064 -0.0931 0.4120
vn 0.9209 -0.1919 0.3393
vn 0.8875 -0.2383 0.3944
vn 0.5812 0.0000 -0.8137
vn 0.6177 -0.0164 -0.7862
vn 0.6508 0.0000 -0.7592
vn 0.9100 0.0276 0.4136
vn 0.9230 0.0112 0.3846
vn 0.7070 0.0000 -0.7072
vn 0.6246 -0.0149 -0.7808
vn 0.6986 0.0286 -0.7150
vn 0.3937 0.0367 -0.9185
vn 0.4878 0.0669 -0.8704
vn 0.8954 0.3106 0.3190
vn 0.8996 0.2690 0.3440
vn 0.7706 0.4816 0.4174
vn 0.7918 0.4319 0.4319
vn 0.3161 0.0339 -0.9481
vn 0.2423 0.0433 -0.9692
vn 0.2422 0.0519 -0.9688
vn 0.2744 0.0490 -0.9604
vn 0.0000 0.0357 -0.9994
vn 0.0000 1.0000 -0.0000
vn -0.0000 -0.9536 0.3011
vn -0.0000 -0.6000 -0.8000
vn 0.0000 0.0767 -0.9971
vn 0.0000 0.0624 -0.9981
vn 0.0000 0.1414 -0.9900
vn 0.0000 0.1544 -0.9880
vn 0.0000 0.0294 -0.9996
vn -0.8960 0.1169 -0.4285
vn 0.8960 0.1169 -0.4285
vn 0.8945 -0.0000 0.4471
vn 0.0000 -1.0000 0.0000
vn -0.7069 0.0000 -0.7073
vn 0.0000 -0.9972 0.0743
vn 0.0000 0.9970 -0.0771
vn 1.0000 0.0000 -0.0029
vn -0.8945 0.0000 0.4471
vn -0.8944 0.0000 0.4473
vn -1.0000 0.0000 -0.0029
vn -0.9960 0.0805 -0.0389
vn -0.9039 -0.4270 0.0238
vn -0.9688 -0.2468 0.0211
vn -0.9659 0.2394 -0.0991
vn -0.9722 0.2170 -0.0882
vn -0.9574 0.0710 0.2801
vn -0.9905 -0.0107 0.1369
vn -0.9980 -0.0570 -0.0290
vn -0.9991 -0.0297 -0.0311
vn -0.9975 -0.0562 -0.0427
vn -0.9725 0.2328 -0.0089
vn -0.9597 0.2801 -0.0204
vn -0.9545 0.0000 0.2983
vn -0.9888 -0.0494 0.1408
vn -0.9548 -0.2643 -0.1362
vn -0.9878 -0.1450 -0.0564
vn 0.0000 -0.7328 -0.6805
vn 0.0000 -0.1240 -0.9923
vn -0.6361 0.2269 0.7374
vn -0.6328 0.2171 0.7432
vn -0.6456 0.1911 0.7394
vn -0.6371 0.1799 0.7495
vn -0.6743 0.0642 0.7356
vn -0.6208 0.1119 0.7760
vn -0.9912 0.0984 0.0888
vn -0.6447 0.0948 0.7585
vn -0.6201 0.1211 0.7751
vn -0.5452 -0.0613 0.8360
vn -0.6827 -0.1569 0.7137
vn -0.7296 -0.6539 0.2002
vn -0.9989 -0.0303 -0.0363
vn -0.9980 -0.0634 -0.0031
vn -0.9981 -0.0616 -0.0019
vn -0.4521 -0.1507 0.8791
vn -0.5472 -0.3157 0.7752
vn -0.4166 -0.2916 0.8610
vn -0.5714 -0.1349 0.8095
vn -0.5384 -0.1690 0.8256
vn -0.9923 0.0389 0.1176
vn -0.9966 -0.0022 0.0829
vn -0.6757 0.0128 0.7371
vn -0.6912 -0.0007 0.7226
vn -0.5437 0.4164 0.7287
vn -0.5413 0.3480 0.7655
vn 0.6362 0.2269 0.7374
vn 0.6328 0.2171 0.7432
vn 0.6456 0.1911 0.7394
vn 0.6371 0.1799 0.7495
vn 0.6743 0.0642 0.7356
vn 0.6208 0.1119 0.7760
vn 0.9912 0.0984 0.0887
vn 0.6447 0.0948 0.7585
vn 0.6201 0.1211 0.7751
vn 0.5452 -0.0613 0.8360
vn 0.6827 -0.1569 0.7137
vn 0.7296 -0.6539 0.2002
vn 0.9989 -0.0303 -0.0363
vn 0.9980 -0.0635 -0.0031
vn 0.9981 -0.0616 -0.0019
vn 0.4521 -0.1507 0.8791
vn 0.5472 -0.3157 0.7752
vn 0.4166 -0.2916 0.8610
vn 0.5714 -0.1349 0.8095
vn 0.5384 -0.1690 0.8256
vn 0.9923 0.0389 0.1176
vn 0.9966 -0.0022 0.0829
vn 0.6757 0.0128 0.7371
vn 0.6912 -0.0007 0.7226
vn 0.5437 0.4164 0.7287
vn 0.5413 0.3480 0.7655
vn 0.0000 -0.9119 0.4104
vn 0.0000 0.6402 0.7682
vn 0.0000 0.9988 0.0487
vn 0.0000 -0.1644 0.9864
vn 0.0000 -0.4191 0.9080
vn 0.0000 -0.4472 0.8944
usemtl None
s off
f 3//1 1//1 2//1
f 1//1 4//1 2//1
f 5//2 3//2 2//2
f 3//2 5//2 6//2
f 8//3 6//3 7//3
f 6//3 5//3 7//3
f 9//2 8//2 7//2
f 8//2 9//2 10//2
f 13//4 11//4 12//4
f 14//5 12//5 11//5
f 17//6 15//6 16//6
f 18//7 15//7 17//7
f 19//8 17//8 16//8
f 20//9 19//9 16//9
f 23//10 21//10 22//10
f 24//10 21//10 23//10
f 26//11 25//11 24//11
f 23//12 26//12 24//12
f 27//13 21//13 24//13
f 28//14 27//14 24//14
f 29//12 26//12 23//12
f 30//15 29//15 23//15
f 30//16 22//16 31//16
f 23//17 22//17 30//17
f 34//18 32//18 33//18
f 32//18 34//18 35//18
f 37//19 25//19 36//19
f 34//20 37//20 36//20
f 25//21 37//21 28//21
f 24//22 25//22 28//22
f 28//23 33//23 38//23
f 27//24 28//24 38//24
f 40//25 29//25 39//25
f 26//26 29//26 40//26
f 40//27 25//27 26//27
f 36//28 25//28 40//28
f 31//16 22//16 19//16
f 22//29 17//29 19//29
f 21//30 17//30 22//30
f 21//31 27//31 18//31
f 17//32 21//32 18//32
f 18//33 41//33 42//33
f 15//34 18//34 42//34
f 44//35 43//35 27//35
f 45//36 44//36 27//36
f 43//37 18//37 27//37
f 41//37 18//37 43//37
f 48//38 46//38 47//38
f 49//39 46//39 48//39
f 51//40 49//40 50//40
f 46//41 52//41 53//41
f 46//18 51//18 52//18
f 49//42 51//42 46//42
f 47//43 53//43 54//43
f 46//44 53//44 47//44
f 49//45 55//45 50//45
f 56//46 55//46 49//46
f 59//47 57//47 58//47
f 60//48 57//48 59//48
f 57//49 60//49 61//49
f 62//50 57//50 61//50
f 56//51 59//51 58//51
f 55//51 56//51 58//51
f 3//52 63//52 1//52
f 8//53 59//53 6//53
f 59//54 8//54 60//54
f 57//55 64//55 58//55
f 65//56 64//56 57//56
f 61//57 60//57 8//57
f 8//57 10//57 61//57
f 66//58 65//58 57//58
f 62//59 66//59 57//59
f 63//60 49//60 48//60
f 1//61 63//61 48//61
f 56//62 63//62 3//62
f 49//63 63//63 56//63
f 59//64 56//64 3//64
f 6//65 59//65 3//65
f 55//66 67//66 68//66
f 50//67 55//67 68//67
f 58//68 67//68 55//68
f 64//69 67//69 58//69
f 38//70 33//70 32//70
f 50//71 38//71 32//71
f 32//72 51//72 50//72
f 68//73 45//73 50//73
f 44//74 45//74 68//74
f 35//21 34//21 36//21
f 52//21 35//21 36//21
f 52//75 36//75 40//75
f 53//76 52//76 40//76
f 53//77 40//77 39//77
f 54//78 53//78 39//78
f 15//79 69//79 13//79
f 42//80 69//80 15//80
f 13//81 69//81 70//81
f 11//82 13//82 70//82
f 16//83 15//83 13//83
f 12//84 16//84 13//84
f 20//85 12//85 14//85
f 16//86 12//86 20//86
f 72//87 71//87 11//87
f 14//87 11//87 71//87
f 75//88 73//88 74//88
f 76//89 75//89 74//89
f 77//90 73//90 75//90
f 78//91 73//91 77//91
f 81//92 79//92 80//92
f 82//93 81//93 80//93
f 84//94 82//94 83//94
f 81//94 82//94 84//94
f 85//95 82//95 80//95
f 86//96 82//96 85//96
f 87//97 81//97 84//97
f 88//98 81//98 87//98
f 88//99 89//99 79//99
f 81//100 88//100 79//100
f 92//101 90//101 91//101
f 91//101 93//101 92//101
f 95//102 94//102 83//102
f 92//103 94//103 95//103
f 83//104 86//104 95//104
f 82//105 86//105 83//105
f 86//106 96//106 90//106
f 85//107 96//107 86//107
f 98//108 97//108 87//108
f 84//109 98//109 87//109
f 98//110 84//110 83//110
f 94//111 98//111 83//111
f 89//99 77//99 79//99
f 79//112 77//112 75//112
f 80//113 79//113 75//113
f 80//114 76//114 85//114
f 75//115 76//115 80//115
f 76//116 99//116 100//116
f 74//117 99//117 76//117
f 102//118 85//118 101//118
f 103//119 85//119 102//119
f 101//120 85//120 76//120
f 100//120 101//120 76//120
f 106//121 104//121 105//121
f 107//122 106//122 105//122
f 109//123 108//123 107//123
f 105//124 110//124 111//124
f 105//101 111//101 109//101
f 107//125 105//125 109//125
f 104//126 112//126 110//126
f 105//127 104//127 110//127
f 107//128 108//128 113//128
f 114//129 107//129 113//129
f 117//130 115//130 116//130
f 118//131 117//131 116//131
f 116//132 119//132 118//132
f 120//133 119//133 116//133
f 114//134 115//134 117//134
f 113//135 115//135 114//135
f 2//136 4//136 121//136
f 7//137 5//137 117//137
f 117//138 118//138 7//138
f 116//139 115//139 122//139
f 123//140 116//140 122//140
f 119//141 7//141 118//141
f 7//141 119//141 9//141
f 124//142 116//142 123//142
f 120//143 116//143 124//143
f 121//144 106//144 107//144
f 4//145 106//145 121//145
f 114//146 2//146 121//146
f 107//147 114//147 121//147
f 117//148 2//148 114//148
f 5//149 2//149 117//149
f 113//150 125//150 126//150
f 108//151 125//151 113//151
f 115//152 113//152 126//152
f 122//153 115//153 126//153
f 96//154 91//154 90//154
f 108//155 91//155 96//155
f 91//156 108//156 109//156
f 125//157 108//157 103//157
f 102//158 125//158 103//158
f 93//159 94//159 92//159
f 111//159 94//159 93//159
f 111//160 98//160 94//160
f 110//161 98//161 111//161
f 110//162 97//162 98//162
f 112//163 97//163 110//163
f 74//164 72//164 127//164
f 99//165 74//165 127//165
f 72//166 70//166 127//166
f 11//167 70//167 72//167
f 73//168 72//168 74//168
f 71//169 72//169 73//169
f 78//170 14//170 71//170
f 73//171 78//171 71//171
f 14//172 78//172 20//172
f 9//173 61//173 10//173
f 61//173 9//173 119//173
f 124//174 62//174 120//174
f 62//174 124//174 66//174
f 119//175 62//175 61//175
f 62//175 119//175 120//175
f 54//176 39//176 97//176
f 97//176 112//176 54//176
f 97//177 29//177 87//177
f 29//177 97//177 39//177
f 29//3 30//3 88//3
f 88//3 87//3 29//3
f 88//178 31//178 89//178
f 31//178 88//178 30//178
f 31//179 19//179 77//179
f 77//179 89//179 31//179
f 77//180 20//180 78//180
f 20//180 77//180 19//180
f 33//21 28//21 37//21
f 33//181 37//181 34//181
f 52//18 51//18 32//18
f 52//18 32//18 35//18
f 86//104 90//104 95//104
f 95//182 90//182 92//182
f 109//101 111//101 91//101
f 91//101 111//101 93//101
f 130//183 129//183 128//183
f 129//183 130//183 131//183
f 132//184 131//184 130//184
f 130//184 133//184 132//184
f 134//21 132//21 133//21
f 132//185 134//185 135//185
f 135//104 131//104 132//104
f 131//104 135//104 129//104
f 138//186 137//186 136//186
f 136//186 137//186 139//186
f 140//2 137//2 138//2
f 138//2 141//2 140//2
f 143//187 142//187 141//187
f 141//187 142//187 140//187
f 140//188 139//188 137//188
f 142//188 139//188 140//188
f 134//189 133//189 130//189
f 130//190 128//190 134//190
f 138//191 136//191 141//191
f 141//191 136//191 143//191
f 146//192 145//192 144//192
f 147//193 145//193 146//193
f 148//194 147//194 146//194
f 146//195 149//195 148//195
f 144//196 149//196 146//196
f 144//197 145//197 147//197
f 149//198 144//198 147//198
f 152//199 151//199 150//199
f 152//200 150//200 153//200
f 151//201 154//201 150//201
f 152//202 155//202 151//202
f 151//203 155//203 154//203
f 156//204 155//204 152//204
f 156//205 152//205 153//205
f 153//206 150//206 156//206
f 156//207 150//207 154//207
f 106//184 1//184 48//184
f 1//184 106//184 4//184
f 104//208 106//208 48//208
f 48//208 47//208 104//208
f 54//209 104//209 47//209
f 104//209 54//209 112//209
f 158//210 157//210 42//210
f 42//211 157//211 69//211
f 42//212 41//212 158//212
f 41//213 159//213 158//213
f 44//214 160//214 43//214
f 160//215 161//215 43//215
f 161//216 160//216 162//216
f 159//217 41//217 161//217
f 161//218 41//218 43//218
f 67//219 163//219 68//219
f 163//220 164//220 68//220
f 166//221 165//221 164//221
f 169//222 168//222 167//222
f 168//223 170//223 167//223
f 167//224 170//224 171//224
f 65//225 172//225 64//225
f 172//226 173//226 64//226
f 66//227 172//227 65//227
f 173//228 163//228 64//228
f 64//229 163//229 67//229
f 164//230 165//230 160//230
f 160//231 165//231 162//231
f 160//232 44//232 164//232
f 164//233 44//233 68//233
f 70//234 69//234 174//234
f 69//235 157//235 174//235
f 158//236 99//236 157//236
f 99//237 127//237 157//237
f 99//238 158//238 100//238
f 100//239 158//239 159//239
f 102//240 101//240 175//240
f 175//241 101//241 161//241
f 161//242 162//242 175//242
f 159//243 161//243 100//243
f 161//244 101//244 100//244
f 126//245 125//245 176//245
f 176//246 125//246 177//246
f 166//247 177//247 165//247
f 179//248 167//248 178//248
f 178//249 167//249 180//249
f 167//250 171//250 180//250
f 123//251 122//251 181//251
f 181//252 122//252 182//252
f 124//253 123//253 181//253
f 182//254 122//254 176//254
f 122//255 126//255 176//255
f 177//256 175//256 165//256
f 175//257 162//257 165//257
f 175//258 177//258 102//258
f 177//259 125//259 102//259
f 174//260 127//260 70//260
f 174//261 157//261 127//261
f 167//262 179//262 169//262
f 178//263 169//263 179//263
f 169//263 178//263 168//263
f 170//264 168//264 178//264
f 178//264 180//264 170//264
f 176//265 177//265 163//265
f 177//265 164//265 163//265
f 173//265 176//265 163//265
f 176//265 173//265 182//265
f 181//266 182//266 173//266
f 173//266 172//266 181//266
f 66//267 124//267 172//267
f 172//267 124//267 181//267
