# Blender v2.79 (sub 0) OBJ File: ''
# www.blender.org
mtllib m1450.mtl
o m1450
v -0.052484 -0.353287 0.064959
v -0.070986 -0.157771 0.064959
v -0.070986 0.269195 0.064959
v 0.071087 0.269195 0.065244
v 0.071087 -0.157771 0.065244
v 0.052479 -0.353287 0.065244
v 0.035578 0.393727 0.015502
v 0.035578 0.322566 0.015502
v -0.035583 0.322566 0.015502
v -0.035583 0.393727 0.015502
v -0.035583 0.322566 0.033293
v -0.035583 0.393727 0.033293
v 0.035578 0.393727 0.033293
v 0.035578 0.322566 0.033293
v -0.052484 -0.353287 0.122991
v 0.052479 -0.353287 0.122991
v 0.070732 -0.157771 0.122991
v 0.070732 0.269195 0.122991
v -0.070737 0.269195 0.122991
v -0.070737 -0.157771 0.122991
v -0.106673 -0.157771 0.033257
v -0.106744 -0.157771 0.051083
v -0.106744 0.269195 0.051083
v -0.106673 0.269195 0.033257
v -0.088990 -0.353287 0.033257
v -0.088990 -0.353287 0.051083
v 0.106704 -0.157771 0.033257
v 0.106704 0.269195 0.033257
v 0.106739 0.269195 0.051083
v 0.106739 -0.157771 0.051083
v 0.088984 -0.353287 0.033257
v 0.088984 -0.353287 0.051083
v -0.071164 0.269195 0.033293
v 0.071159 0.269195 0.033293
v -0.071164 0.411517 0.033293
v -0.071128 0.411517 0.051118
v -0.000002 0.553839 0.033293
v -0.000002 0.553839 0.051083
v 0.071159 0.411517 0.033293
v 0.071087 0.411517 0.051047
v 0.036503 0.411517 0.122991
v -0.000002 0.482678 0.122991
v -0.036508 0.411517 0.122991
v 0.052479 -0.353287 0.033293
v -0.052484 -0.353287 0.033293
v 0.071159 -0.157771 0.033293
v -0.071164 -0.157771 0.033293
v -0.010677 0.116199 0.051083
v -0.010677 0.137547 0.051083
v -0.003560 0.130431 -0.660529
v -0.003560 0.123315 -0.660529
v 0.003556 0.123315 -0.660529
v 0.003556 0.130431 -0.660529
v 0.010672 0.137547 0.051083
v 0.010672 0.116199 0.051083
v -0.000038 -0.335675 0.157788
v 0.000033 -0.335675 0.157788
v 0.000033 -0.335675 0.157860
v -0.000038 -0.335675 0.157860
v -0.000002 -0.396161 0.047525
v -0.000002 -0.381644 0.050264
v -0.000002 -0.364139 0.068873
v -0.000002 -0.360581 0.122243
v -0.000002 -0.396161 0.122243
v -0.000002 -0.396161 0.015502
v -0.000002 -0.381929 0.015502
v 0.003556 -0.396161 0.011944
v -0.003560 -0.396161 0.011944
v -0.003560 -0.321442 0.011944
v 0.003556 -0.321442 0.011944
v 0.003556 -0.396161 0.015502
v 0.003556 -0.321442 0.015502
v -0.003560 -0.396161 0.015502
v -0.003560 -0.321442 0.015502
v -0.000002 0.246957 -0.059715
v -0.000002 0.233899 -0.126535
v -0.000002 0.404152 -0.130840
v -0.000002 0.536831 0.002017
v -0.000002 0.207996 -0.230003
v -0.000002 0.180777 -0.354037
v -0.000038 0.126872 0.157788
v 0.000033 0.126872 0.157788
v 0.000033 0.126872 0.157860
v -0.000038 0.126872 0.157860
v -0.003560 -0.268854 -0.016236
v 0.003556 -0.268854 -0.016236
v 0.003556 -0.268854 -0.009404
v -0.003560 -0.268854 -0.009404
v 0.007078 0.116199 -0.020114
v 0.007078 0.116199 -0.005775
v -0.007083 0.116199 -0.005775
v -0.007083 0.116199 -0.020114
v -0.000002 -0.268071 -0.023636
v -0.000002 0.109082 -0.055659
v -0.000002 -0.221816 -0.098356
v -0.000002 0.108905 -0.031677
v -0.000002 -0.175562 -0.173074
v -0.000002 0.108905 -0.643770
vn 0.0000 0.0000 -1.0000
vn -1.0000 0.0000 0.0000
vn 0.0000 1.0000 0.0000
vn 1.0000 0.0000 0.0000
vn 0.0000 -1.0000 0.0000
vn 0.0000 0.0000 1.0000
vn -1.0000 0.0000 -0.0040
vn -0.9959 -0.0904 0.0000
vn 1.0000 0.0000 -0.0020
vn 0.9959 -0.0903 -0.0020
vn -0.9702 0.2421 -0.0039
vn -0.8944 0.4472 0.0018
vn 0.8944 0.4472 0.0000
vn 0.9702 0.2423 0.0039
vn 0.8219 0.4104 0.3951
vn -0.8178 0.4195 0.3939
vn -0.8805 0.2118 0.4241
vn 0.8791 0.2203 0.4226
vn -0.8942 0.0000 0.4477
vn 0.8942 0.0000 0.4477
vn 0.8888 -0.0807 0.4512
vn -0.8911 -0.0832 0.4462
vn -1.0000 0.0000 -0.0023
vn -0.9955 0.0947 0.0000
vn 1.0000 0.0000 -0.0056
vn 0.9955 0.0951 -0.0056
vn -0.0010 0.0000 -1.0000
vn -0.0010 0.0001 -1.0000
vn 0.0010 0.0000 -1.0000
vn 0.0010 0.0001 -1.0000
vn -0.9999 0.0000 -0.0100
vn 0.9999 0.0000 -0.0100
vn 0.0000 0.9999 -0.0100
vn 0.0000 -1.0000 -0.0100
vn 0.0020 0.0008 1.0000
vn 1.0000 -0.0091 0.0000
vn 0.0000 -0.0094 1.0000
vn -1.0000 -0.0091 0.0000
vn 0.0000 -0.0101 -0.9999
vn 0.0020 0.0001 -1.0000
vn 0.0023 0.0000 -1.0000
vn 0.0027 -0.0003 -1.0000
vn -0.9959 -0.0901 -0.0040
vn 0.9959 -0.0904 0.0000
vn -0.9701 0.2428 0.0019
vn -0.8945 0.4470 0.0000
vn 0.8946 0.4468 0.0036
vn 0.9700 0.2430 -0.0019
vn 0.0000 -1.0000 0.0005
vn 0.0000 0.0003 -1.0000
vn -0.0001 0.0001 -1.0000
vn 0.0010 0.0005 -1.0000
vn 0.8109 0.4160 0.4116
vn -0.8180 0.4089 0.4046
vn -0.8726 0.2183 0.4370
vn 0.8742 0.2102 0.4377
vn 0.8911 -0.0832 0.4462
vn -0.8888 -0.0807 0.4512
vn -0.9955 0.0951 -0.0022
vn 0.9956 0.0942 0.0000
vn 0.0000 1.0000 -0.0100
vn 0.0000 -0.9999 -0.0100
vn 0.0003 0.0001 1.0000
vn 0.0000 -0.0002 1.0000
usemtl None
s off
f 1//1 2//1 3//1
f 7//1 8//1 9//1
f 10//2 9//2 11//2
f 7//3 10//3 12//3
f 8//4 7//4 13//4
f 8//5 14//5 11//5
f 15//6 16//6 17//6
f 21//7 22//7 23//7
f 25//8 26//8 22//8
f 27//9 28//9 29//9
f 31//10 27//10 30//10
f 26//5 32//5 16//5
f 33//5 34//5 4//5
f 35//11 24//11 23//11
f 37//12 35//12 36//12
f 39//13 37//13 38//13
f 28//14 39//14 40//14
f 28//5 34//5 33//5
f 18//6 41//6 42//6
f 41//15 40//15 38//15
f 36//16 43//16 42//16
f 19//17 43//17 36//17
f 29//18 40//18 41//18
f 20//19 19//19 23//19
f 17//20 30//20 29//20
f 16//21 32//21 30//21
f 15//22 20//22 22//22
f 44//5 31//5 32//5
f 25//5 45//5 1//5
f 46//23 5//23 4//23
f 44//24 6//24 5//24
f 47//25 33//25 3//25
f 45//26 47//26 2//26
f 46//27 34//27 28//27
f 44//28 46//28 27//28
f 21//29 24//29 33//29
f 25//30 21//30 47//30
f 48//31 49//31 50//31
f 52//32 53//32 54//32
f 53//33 50//33 49//33
f 52//34 55//34 48//34
f 29//35 40//35 38//35
f 32//6 30//6 29//6
f 32//5 15//5 26//5
f 59//5 57//5 58//5
f 60//2 64//2 63//2
f 65//2 60//2 61//2
f 67//1 68//1 69//1
f 71//4 67//4 70//4
f 73//2 74//2 69//2
f 73//6 65//6 71//6
f 69//3 74//3 72//3
f 68//5 67//5 71//5
f 75//2 77//2 76//2
f 75//2 78//2 77//2
f 79//2 77//2 80//2
f 76//2 77//2 79//2
f 84//3 83//3 82//3
f 85//5 86//5 87//5
f 86//36 89//36 90//36
f 88//37 87//37 90//37
f 92//38 85//38 88//38
f 85//39 92//39 89//39
f 93//2 94//2 95//2
f 93//2 96//2 94//2
f 97//2 95//2 94//2
f 98//2 97//2 94//2
f 1//40 3//40 4//40
f 1//41 4//41 5//41
f 1//42 5//42 6//42
f 7//1 9//1 10//1
f 10//2 11//2 12//2
f 7//3 12//3 13//3
f 8//4 13//4 14//4
f 8//5 11//5 9//5
f 15//6 17//6 18//6
f 15//6 18//6 19//6
f 15//6 19//6 20//6
f 21//7 23//7 24//7
f 25//43 22//43 21//43
f 27//9 29//9 30//9
f 31//44 30//44 32//44
f 26//5 16//5 15//5
f 33//5 4//5 3//5
f 35//45 23//45 36//45
f 37//46 36//46 38//46
f 39//47 38//47 40//47
f 28//48 40//48 29//48
f 28//49 33//49 24//49
f 28//50 24//50 35//50
f 28//51 35//51 37//51
f 28//52 37//52 39//52
f 18//6 42//6 43//6
f 18//6 43//6 19//6
f 41//53 38//53 42//53
f 36//54 42//54 38//54
f 19//55 36//55 23//55
f 29//56 41//56 18//56
f 20//19 23//19 22//19
f 17//20 29//20 18//20
f 16//57 30//57 17//57
f 15//58 22//58 26//58
f 44//5 32//5 6//5
f 25//5 1//5 26//5
f 46//23 4//23 34//23
f 44//59 5//59 46//59
f 47//25 3//25 2//25
f 45//60 2//60 1//60
f 46//27 28//27 27//27
f 44//28 27//28 31//28
f 21//29 33//29 47//29
f 25//30 47//30 45//30
f 48//31 50//31 51//31
f 52//32 54//32 55//32
f 53//61 49//61 54//61
f 52//62 48//62 51//62
f 29//63 38//63 36//63
f 29//64 36//64 23//64
f 32//6 29//6 23//6
f 32//6 23//6 22//6
f 32//6 22//6 26//6
f 32//5 16//5 15//5
f 59//5 56//5 57//5
f 60//2 63//2 62//2
f 60//2 62//2 61//2
f 65//2 61//2 66//2
f 67//1 69//1 70//1
f 71//4 70//4 72//4
f 73//2 69//2 68//2
f 73//6 71//6 72//6
f 73//6 72//6 74//6
f 69//3 72//3 70//3
f 68//5 71//5 65//5
f 68//5 65//5 73//5
f 84//3 82//3 81//3
f 85//5 87//5 88//5
f 86//36 90//36 87//36
f 88//37 90//37 91//37
f 92//38 88//38 91//38
f 85//39 89//39 86//39
