# Blender v2.79 (sub 0) OBJ File: ''
# www.blender.org
mtllib m1484.mtl
o m1484
v 0.029293 -0.100239 -0.205982
v -0.026295 -0.100450 -0.205995
v 0.074810 0.050792 -0.107574
v -0.074547 0.051206 -0.109893
v -0.029782 0.222595 -0.109586
v 0.029702 0.222582 -0.108654
v 0.064167 -0.185918 -0.129202
v 0.079161 -0.158549 0.086830
v 0.051045 0.404502 0.086113
v 0.131444 -0.040609 0.140343
v 0.052922 0.369963 -0.125524
v 0.056585 0.395029 -0.203088
v 0.056583 0.365461 -0.223775
v 0.033276 0.329871 -0.157076
v 0.052904 0.247042 -0.170222
v 0.029792 0.222380 -0.109258
v 0.049276 0.369964 -0.125525
v 0.082365 0.421489 -0.034600
v 0.059012 0.283436 -0.066018
v 0.077819 0.233635 -0.009564
v -0.062458 -0.185889 -0.129231
v -0.077551 -0.158513 0.086795
v -0.049181 0.404525 0.086090
v -0.027527 -0.100226 -0.205995
v -0.129809 -0.040550 0.140283
v -0.049297 0.369987 -0.125548
v -0.052902 0.395054 -0.203113
v -0.052904 0.365486 -0.223800
v -0.029657 0.329885 -0.157090
v -0.049315 0.247065 -0.170245
v -0.059095 0.283463 -0.066045
v -0.082408 0.421527 -0.034638
v -0.077955 0.233670 -0.009599
v -0.061831 -0.185889 -0.129231
v -0.076902 -0.158513 0.086795
v 0.093648 0.167657 0.114284
v -0.091884 0.167700 0.114242
v -0.001669 0.296748 -0.056281
v -0.055362 0.296771 -0.011144
v -0.001701 0.296780 0.082694
v 0.052004 0.296746 -0.011119
v -0.001656 0.395024 -0.015595
v -0.055353 0.363130 0.016314
v 0.052013 0.363105 0.016338
v -0.001669 0.435755 0.082662
v -0.055362 0.390618 0.082660
v 0.052004 0.390593 0.082685
v -0.001701 0.395069 0.180938
v -0.055384 0.363160 0.149019
v 0.051982 0.363136 0.149044
v -0.001732 0.296812 0.221669
v -0.055405 0.296814 0.176508
v 0.051961 0.296789 0.176532
v -0.001745 0.198536 0.180983
v -0.055414 0.230455 0.149050
v 0.051952 0.230430 0.149074
v -0.001732 0.157805 0.082726
v -0.055405 0.202967 0.082703
v 0.051961 0.202942 0.082728
v -0.001701 0.198491 -0.015550
v -0.055384 0.230424 0.016344
v 0.051982 0.230400 0.016369
v 0.017639 -0.366648 -0.058811
v 0.049298 -0.361117 -0.040632
v -0.002955 -0.368392 0.087644
v -0.017786 -0.372497 -0.050201
v 0.028932 -0.470298 -0.014714
v 0.059558 -0.455290 -0.000570
v -0.007526 -0.466670 -0.010139
v 0.021543 -0.514245 0.089351
v 0.052844 -0.495215 0.093979
v -0.014240 -0.506595 0.084410
v -0.000195 -0.472765 0.192416
v 0.033095 -0.457532 0.187621
v -0.033989 -0.468912 0.178052
v -0.023549 -0.370137 0.234098
v 0.011876 -0.364287 0.225488
v -0.055208 -0.375667 0.215919
v -0.034842 -0.266487 0.190001
v 0.001616 -0.270114 0.185427
v -0.065468 -0.281494 0.175858
v -0.027453 -0.222540 0.085936
v 0.008330 -0.230189 0.090877
v -0.058754 -0.241569 0.081308
v -0.005715 -0.264019 -0.017129
v 0.028079 -0.267873 -0.002765
v -0.039005 -0.279252 -0.012333
v -0.063657 -0.108871 -0.296904
v -0.194780 -0.113204 -0.273742
v -0.032371 -0.380904 0.065765
v -0.079694 -0.099071 -0.267671
v -0.185688 -0.091509 -0.235590
v -0.193627 -0.081511 -0.268253
v -0.054811 -0.089471 -0.291791
v -0.023653 -0.364179 0.080759
v -0.047741 -0.363298 0.081003
v 0.082884 -0.083981 -0.276017
v 0.196850 -0.046685 -0.217922
v 0.044070 -0.367920 0.076661
v 0.086305 -0.070876 -0.244011
v 0.171088 -0.030910 -0.184738
v 0.184030 -0.017366 -0.214425
v 0.067219 -0.068744 -0.274398
v 0.026703 -0.355626 0.087936
v 0.048160 -0.347010 0.094672
v -0.014314 -0.383935 -0.097545
v -0.032200 -0.280557 -0.053400
v -0.069606 -0.183438 0.045016
v 0.024437 -0.167465 0.058420
v 0.038840 -0.268491 -0.043275
v 0.071135 -0.369878 -0.085620
v 0.032353 -0.368517 -0.118060
v 0.008180 -0.265869 -0.074965
v -0.025704 -0.170816 0.033240
v -0.044928 -0.170117 -0.220445
v 0.066825 -0.151135 -0.204517
v 0.057409 -0.183229 -0.100208
v -0.054345 -0.202210 -0.116137
vn -0.0018 0.5348 -0.8449
vn 0.0145 0.5428 -0.8398
vn 0.0157 -0.0022 -0.9999
vn 0.0155 -0.0023 -0.9999
vn 0.9972 -0.0390 -0.0643
vn 0.9739 0.1558 -0.1650
vn 0.9139 -0.2659 -0.3068
vn 0.9093 -0.0029 -0.4162
vn 0.9434 -0.1135 0.3117
vn 0.6305 0.2652 -0.7295
vn 0.9188 -0.3862 -0.0814
vn 0.9550 -0.1701 0.2430
vn 0.9533 -0.1562 -0.2584
vn 0.8343 -0.0157 -0.5511
vn 0.6782 0.1736 -0.7140
vn 0.9677 0.1065 -0.2284
vn -0.9969 -0.0456 -0.0639
vn -0.9749 0.1574 -0.1576
vn -0.9150 -0.2690 -0.3008
vn -0.9052 -0.0115 -0.4248
vn -0.9581 -0.0977 0.2691
vn -0.6300 0.2655 -0.7298
vn -0.9190 -0.3856 -0.0819
vn -0.9552 -0.1695 0.2424
vn -0.9533 -0.1543 -0.2597
vn -0.8417 -0.0194 -0.5396
vn -0.6816 0.1793 -0.7095
vn -0.9676 0.1075 -0.2285
vn -0.0003 -0.9921 0.1257
vn 0.0000 -0.6683 -0.7439
vn 0.0027 -0.6668 -0.7453
vn -0.0003 -0.4131 0.9107
vn -0.0002 0.1241 0.9923
vn 0.0001 0.9515 0.3075
vn 0.0002 0.9515 0.3075
vn 0.0003 0.5733 -0.8194
vn 0.0003 0.8700 -0.4931
vn -0.0001 -0.8822 -0.4708
vn 0.0003 0.1568 -0.9876
vn -0.0013 -0.9269 -0.3754
vn -0.0001 -0.9274 -0.3741
vn -0.0003 -0.2219 0.9751
vn -0.6132 0.3022 -0.7298
vn -0.6134 0.3020 -0.7298
vn -0.8503 -0.2011 0.4863
vn 0.8500 -0.2015 0.4867
vn 0.6136 0.3018 -0.7296
vn 0.6138 0.3019 -0.7295
vn -0.6133 0.7296 -0.3025
vn -0.6132 0.7298 -0.3024
vn -0.8503 -0.4862 0.2013
vn 0.8500 -0.4866 0.2017
vn 0.6138 0.7294 -0.3021
vn 0.6137 0.7294 -0.3023
vn -0.6133 0.7298 0.3019
vn -0.6135 0.7298 0.3018
vn -0.8502 -0.4863 -0.2015
vn 0.8501 -0.4867 -0.2011
vn 0.6135 0.7296 0.3021
vn 0.6137 0.7295 0.3022
vn -0.6137 0.3025 0.7293
vn -0.6135 0.3024 0.7295
vn -0.8501 -0.2013 -0.4866
vn 0.8502 -0.2017 -0.4862
vn 0.6135 0.3021 0.7296
vn 0.6133 0.3023 0.7297
vn -0.6137 -0.3020 0.7296
vn -0.6138 -0.3018 0.7295
vn -0.8500 0.2015 -0.4867
vn 0.8503 0.2011 -0.4863
vn 0.6132 -0.3021 0.7299
vn 0.6133 -0.3022 0.7297
vn -0.6138 -0.7293 0.3022
vn -0.6136 -0.7295 0.3022
vn -0.8500 0.4866 -0.2017
vn 0.8503 0.4862 -0.2013
vn 0.6134 -0.7296 0.3024
vn 0.6132 -0.7297 0.3026
vn -0.6135 -0.7296 -0.3022
vn -0.6137 -0.7295 -0.3020
vn -0.8501 0.4867 0.2011
vn 0.8502 0.4863 0.2015
vn 0.6133 -0.7299 -0.3018
vn 0.6135 -0.7297 -0.3019
vn -0.6135 -0.3022 -0.7296
vn -0.6133 -0.3021 -0.7298
vn -0.8503 0.2017 0.4862
vn 0.8501 0.2013 0.4866
vn 0.6137 -0.3024 -0.7294
vn 0.6135 -0.3026 -0.7294
vn 0.5142 -0.2877 -0.8080
vn 0.8897 0.2573 0.3770
vn -0.9922 -0.0619 0.1086
vn -0.1532 -0.4009 -0.9032
vn -0.1533 -0.4010 -0.9032
vn 0.5276 -0.7953 -0.2984
vn 0.5276 -0.7954 -0.2984
vn 0.8859 0.4014 0.2324
vn -0.9960 0.0822 -0.0360
vn -0.1399 -0.9086 -0.3936
vn -0.1398 -0.9086 -0.3936
vn 0.4274 -0.8039 0.4137
vn 0.4275 -0.8038 0.4136
vn 0.9143 0.4038 0.0303
vn -0.9676 0.0846 -0.2381
vn -0.2399 -0.9171 0.3184
vn -0.2400 -0.9170 0.3185
vn 0.2724 -0.3082 0.9115
vn 0.2723 -0.3082 0.9115
vn 0.9584 0.2631 -0.1109
vn -0.9235 -0.0561 -0.3794
vn -0.3951 -0.4214 0.8163
vn -0.3950 -0.4214 0.8163
vn 0.1532 0.4010 0.9032
vn 0.1533 0.4009 0.9032
vn 0.9922 0.0619 -0.1086
vn -0.8897 -0.2573 -0.3770
vn -0.5141 0.2877 0.8080
vn -0.5142 0.2877 0.8080
vn 0.1399 0.9086 0.3936
vn 0.1398 0.9086 0.3936
vn 0.9960 -0.0822 0.0360
vn -0.8859 -0.4014 -0.2324
vn -0.5276 0.7953 0.2984
vn -0.5276 0.7954 0.2984
vn 0.2399 0.9171 -0.3185
vn 0.2400 0.9171 -0.3184
vn 0.9676 -0.0846 0.2381
vn -0.9143 -0.4038 -0.0303
vn -0.4274 0.8039 -0.4136
vn -0.4275 0.8038 -0.4137
vn 0.3951 0.4214 -0.8163
vn 0.3950 0.4214 -0.8163
vn 0.9235 0.0561 0.3794
vn -0.9584 -0.2631 0.1109
vn -0.2724 0.3082 -0.9115
vn 0.1121 -0.8750 0.4709
vn 0.0340 -0.9418 0.3344
vn -0.1749 0.3247 -0.9295
vn -0.1549 0.1741 -0.9725
vn 0.9317 -0.2473 -0.2659
vn 0.8924 -0.3242 -0.3137
vn -0.8258 -0.4830 -0.2911
vn -0.8307 -0.4777 -0.2859
vn 0.0355 0.8058 0.5912
vn 0.2506 0.7825 0.5700
vn 0.1312 0.8671 0.4805
vn 0.1459 0.9553 0.2570
vn 0.0538 -0.8850 0.4625
vn 0.1834 -0.9165 0.3556
vn 0.3060 0.4061 -0.8611
vn 0.3482 0.2597 -0.9007
vn -0.6927 -0.5227 -0.4970
vn -0.6192 -0.5804 -0.5288
vn 0.9839 -0.1757 -0.0332
vn 0.9852 -0.1693 -0.0271
vn -0.4538 0.7226 0.5214
vn -0.6356 0.6318 0.4436
vn -0.5302 0.7549 0.3860
vn -0.5112 0.8440 0.1622
vn -0.5338 -0.7112 0.4576
vn 0.5427 -0.4855 0.6854
vn -0.6706 -0.4158 0.6144
vn 0.4577 -0.2504 0.8531
vn -0.5778 -0.4644 0.6712
vn -0.2825 -0.7003 0.6556
vn 0.5261 -0.2554 0.8112
vn 0.3653 -0.6397 0.6763
vn 0.1987 -0.9416 -0.2718
usemtl None
s off
f 1//1 2//1 4//1
f 4//2 3//2 1//2
f 5//3 6//3 3//3
f 3//4 4//4 5//4
f 3//5 8//5 7//5
f 3//6 9//6 10//6
f 3//7 10//7 8//7
f 7//8 1//8 3//8
f 15//9 11//9 16//9
f 14//10 11//10 15//10
f 14//11 12//11 11//11
f 13//12 12//12 14//12
f 6//13 17//13 18//13
f 18//14 19//14 6//14
f 6//15 19//15 3//15
f 20//16 3//16 19//16
f 22//17 4//17 21//17
f 23//18 4//18 25//18
f 25//19 4//19 22//19
f 24//20 21//20 4//20
f 30//21 5//21 26//21
f 29//22 30//22 26//22
f 29//23 26//23 27//23
f 28//24 29//24 27//24
f 26//25 5//25 32//25
f 31//26 32//26 5//26
f 31//27 5//27 4//27
f 4//28 33//28 31//28
f 7//29 8//29 35//29
f 7//29 35//29 34//29
f 7//30 34//30 2//30
f 2//31 1//31 7//31
f 22//32 8//32 10//32
f 10//32 25//32 22//32
f 25//33 10//33 36//33
f 36//33 37//33 25//33
f 11//34 12//34 27//34
f 11//35 27//35 26//35
f 12//36 13//36 28//36
f 12//36 28//36 27//36
f 18//37 17//37 26//37
f 26//37 32//37 18//37
f 13//38 14//38 29//38
f 13//38 29//38 28//38
f 14//39 15//39 30//39
f 14//39 30//39 29//39
f 15//40 16//40 5//40
f 15//41 5//41 30//41
f 32//42 31//42 19//42
f 19//42 18//42 32//42
f 38//43 43//43 42//43
f 38//44 39//44 43//44
f 39//45 40//45 43//45
f 40//46 41//46 44//46
f 41//47 42//47 44//47
f 41//48 38//48 42//48
f 42//49 46//49 45//49
f 42//50 43//50 46//50
f 43//51 40//51 46//51
f 40//52 44//52 47//52
f 44//53 45//53 47//53
f 44//54 42//54 45//54
f 45//55 49//55 48//55
f 45//56 46//56 49//56
f 46//57 40//57 49//57
f 40//58 47//58 50//58
f 47//59 48//59 50//59
f 47//60 45//60 48//60
f 48//61 52//61 51//61
f 48//62 49//62 52//62
f 49//63 40//63 52//63
f 40//64 50//64 53//64
f 50//65 51//65 53//65
f 50//66 48//66 51//66
f 51//67 55//67 54//67
f 51//68 52//68 55//68
f 52//69 40//69 55//69
f 40//70 53//70 56//70
f 53//71 54//71 56//71
f 53//72 51//72 54//72
f 54//73 58//73 57//73
f 54//74 55//74 58//74
f 55//75 40//75 58//75
f 40//76 56//76 59//76
f 56//77 57//77 59//77
f 56//78 54//78 57//78
f 57//79 61//79 60//79
f 57//80 58//80 61//80
f 58//81 40//81 61//81
f 40//82 59//82 62//82
f 59//83 60//83 62//83
f 59//84 57//84 60//84
f 60//85 39//85 38//85
f 60//86 61//86 39//86
f 61//87 40//87 39//87
f 40//88 62//88 41//88
f 62//89 38//89 41//89
f 62//90 60//90 38//90
f 63//91 68//91 67//91
f 63//91 64//91 68//91
f 64//92 65//92 68//92
f 65//93 66//93 69//93
f 66//94 67//94 69//94
f 66//95 63//95 67//95
f 67//96 71//96 70//96
f 67//97 68//97 71//97
f 68//98 65//98 71//98
f 65//99 69//99 72//99
f 69//100 70//100 72//100
f 69//101 67//101 70//101
f 70//102 74//102 73//102
f 70//103 71//103 74//103
f 71//104 65//104 74//104
f 65//105 72//105 75//105
f 72//106 73//106 75//106
f 72//107 70//107 73//107
f 73//108 77//108 76//108
f 73//109 74//109 77//109
f 74//110 65//110 77//110
f 65//111 75//111 78//111
f 75//112 76//112 78//112
f 75//113 73//113 76//113
f 76//114 80//114 79//114
f 76//115 77//115 80//115
f 77//116 65//116 80//116
f 65//117 78//117 81//117
f 78//118 79//118 81//118
f 78//119 76//119 79//119
f 79//120 83//120 82//120
f 79//121 80//121 83//121
f 80//122 65//122 83//122
f 65//123 81//123 84//123
f 81//124 82//124 84//124
f 81//125 79//125 82//125
f 82//126 86//126 85//126
f 82//127 83//127 86//127
f 83//128 65//128 86//128
f 65//129 84//129 87//129
f 84//130 85//130 87//130
f 84//131 82//131 85//131
f 85//132 64//132 63//132
f 85//133 86//133 64//133
f 86//134 65//134 64//134
f 65//135 87//135 66//135
f 87//136 63//136 66//136
f 87//136 85//136 63//136
f 89//137 88//137 92//137
f 92//138 88//138 91//138
f 88//139 89//139 94//139
f 94//140 89//140 93//140
f 90//141 88//141 95//141
f 95//142 88//142 94//142
f 88//143 90//143 91//143
f 91//144 90//144 96//144
f 95//145 94//145 96//145
f 96//146 94//146 91//146
f 94//147 93//147 91//147
f 91//148 93//148 92//148
f 97//149 98//149 101//149
f 97//150 101//150 100//150
f 98//151 97//151 103//151
f 98//152 103//152 102//152
f 97//153 99//153 104//153
f 97//154 104//154 103//154
f 99//155 97//155 100//155
f 99//156 100//156 105//156
f 103//157 104//157 105//157
f 103//158 105//158 100//158
f 102//159 103//159 100//159
f 102//160 100//160 101//160
f 114//161 113//161 110//161
f 107//162 113//162 108//162
f 110//163 113//163 112//163
f 112//164 113//164 106//164
f 110//165 112//165 111//165
f 114//166 110//166 109//166
f 113//167 107//167 106//167
f 108//168 113//168 114//168
f 117//169 118//169 115//169
f 117//169 115//169 116//169
