# Blender v2.79 (sub 0) OBJ File: ''
# www.blender.org
mtllib m1515.mtl
o m1515
v -0.027403 -0.308978 0.022479
v -0.160327 -0.363996 0.033366
v -0.160328 -0.360558 0.041387
v -0.028320 -0.304968 0.029928
v 0.028519 -0.304962 0.029928
v 0.160537 -0.360528 0.041387
v 0.159621 -0.363966 0.033366
v 0.028061 -0.308973 0.022250
v -0.046712 0.315560 0.023052
v -0.140675 0.258254 0.017323
v -0.142050 0.262264 0.025344
v -0.048088 0.318424 0.030501
v -0.064121 0.206693 0.015031
v -0.141131 0.233043 0.025344
v -0.140673 0.236481 0.017323
v -0.064121 0.210704 0.007009
v 0.062849 0.214727 0.014458
v 0.139854 0.241091 0.025230
v 0.140771 0.236507 0.017323
v 0.064225 0.210716 0.007009
v -0.062746 0.214715 0.014458
v -0.045337 0.311549 0.030501
v -0.138841 0.255389 0.025172
v 0.025320 -0.408098 0.044252
v 0.158706 -0.383448 0.041387
v 0.159164 -0.386885 0.033366
v 0.025779 -0.412108 0.036804
v -0.025102 -0.408102 0.044252
v -0.026018 -0.415551 0.044252
v -0.025560 -0.412113 0.036804
v -0.026486 -0.312416 0.029928
v -0.158035 -0.368007 0.041387
v -0.158950 -0.386915 0.033366
v -0.158492 -0.382904 0.041387
v 0.158704 -0.367977 0.041387
v 0.026686 -0.312411 0.029928
v -0.139756 0.241065 0.025230
v 0.046797 0.315568 0.023052
v 0.140769 0.258280 0.017323
v 0.138936 0.255415 0.025172
v 0.045422 0.311557 0.031074
v 0.141230 0.233069 0.025344
v 0.064225 0.206705 0.015031
v 0.048171 0.318433 0.031074
v 0.142144 0.262291 0.025344
v 0.159623 -0.390896 0.041387
v 0.026237 -0.415546 0.044252
v -0.159408 -0.390926 0.041387
v -0.148860 -0.449941 0.069463
v -0.148860 -0.449941 0.059723
v -0.148853 -0.523281 0.078058
v 0.019365 -0.449925 0.031074
v 0.021657 -0.449925 0.059723
v 0.015246 -0.523266 0.078058
v 0.011121 -0.523266 0.045398
v -0.008596 -0.449928 0.006437
v 0.008822 -0.449926 0.006437
v 0.004704 -0.523267 0.032220
v -0.004006 -0.522695 0.032220
v 0.021657 -0.449925 0.074620
v -0.021431 -0.449929 0.074620
v -0.015007 -0.520977 0.078058
v -0.004002 -0.566814 0.072901
v -0.010881 -0.523268 0.045398
v -0.019597 -0.449929 0.031074
v -0.021431 -0.449929 0.059723
v 0.149086 -0.449913 0.069463
v 0.149086 -0.449913 0.059723
v -0.047575 -0.267153 0.074047
v -0.042991 -0.267153 0.014458
v -0.019156 -0.267151 -0.053153
v 0.019348 -0.267147 -0.051435
v 0.043184 -0.267145 0.014458
v 0.047767 -0.267144 0.074047
v 0.170609 -0.226452 0.014458
v 0.140358 -0.245936 0.014458
v 0.188024 -0.191499 0.074047
v 0.187996 0.113895 -0.000439
v -0.082453 0.170594 0.058577
v -0.187846 -0.188669 0.014458
v -0.187846 -0.191534 0.073474
v -0.036589 -0.103282 -0.053153
v -0.082431 -0.060313 0.014458
v -0.032468 -0.060309 -0.064039
v -0.010462 -0.103280 -0.104147
v -0.010466 -0.060307 -0.104147
v 0.010620 -0.060305 -0.104147
v 0.010624 -0.103278 -0.104147
v 0.082585 -0.060298 0.014458
v 0.036751 -0.103275 -0.053153
v 0.032622 -0.060303 -0.064039
v -0.070993 0.170022 -0.000439
v -0.034323 0.170599 -0.017055
v 0.000055 0.170602 -0.037109
v 0.000077 -0.060306 -0.077790
v 0.071104 0.170609 -0.000439
v 0.034434 0.170605 -0.017055
v 0.000041 0.329888 0.007583
v 0.047712 0.329893 0.023625
v 0.054129 0.329893 0.058577
v -0.054048 0.329883 0.058577
v -0.047631 0.329884 0.023625
v -0.187874 0.113860 0.058577
v -0.131499 0.170590 -0.000439
v -0.131499 0.170590 0.058577
v 0.140358 -0.245936 0.074047
v 0.131610 0.170614 0.058577
v 0.131610 0.170614 -0.000439
v -0.170424 -0.226484 0.014458
v -0.140170 -0.245389 0.014458
v -0.140170 -0.245389 0.074047
v -0.015088 0.359682 0.012396
v 0.015394 0.359684 0.012739
v 0.131143 0.261144 -0.120763
v 0.131132 0.382614 -0.120763
v 0.131132 0.382614 -0.058309
v 0.131143 0.261144 -0.058309
v -0.131060 0.382590 -0.120763
v -0.131049 0.260547 -0.058309
v -0.131060 0.382590 -0.058309
v 0.006453 0.382602 -0.111596
v -0.006381 0.382601 -0.111596
v 0.006464 0.261132 -0.076072
v -0.006370 0.261131 -0.076072
v -0.125560 0.382590 -0.111596
v 0.125631 0.382613 -0.120763
v 0.125643 0.260570 -0.058309
v 0.125631 0.382613 -0.058309
v -0.125560 0.382590 -0.120763
v -0.125548 0.261120 -0.120763
v -0.125560 0.382590 -0.058309
v -0.125548 0.260547 -0.058309
v 0.131615 0.113890 -0.000439
v -0.187874 0.113860 -0.000439
v 0.004249 -0.567386 0.072901
v -0.170424 -0.226484 0.074047
v -0.131494 0.113866 0.058577
v 0.170609 -0.226452 0.074047
v 0.131615 0.113890 0.058577
v 0.015167 0.329890 0.058577
v 0.082564 0.170610 0.058577
v -0.015086 0.329887 0.058577
v 0.125639 0.301251 -0.074925
v 0.125631 0.382613 -0.111596
v -0.131049 0.261120 -0.120763
v -0.015086 0.331033 -0.061174
v 0.000044 0.296083 -0.061174
v 0.187996 0.113895 0.058577
v -0.075551 -0.103286 0.014458
v 0.188024 -0.188634 0.014458
v 0.075713 -0.103272 0.014458
v -0.187856 -0.082096 0.014458
v -0.131494 0.113866 -0.000439
v 0.188014 -0.082061 0.014458
v 0.149093 -0.523254 0.078001
v 0.015167 0.331036 -0.060602
v -0.125552 0.301228 -0.074925
v -0.125552 0.301228 -0.087531
v 0.125643 0.261143 -0.120763
v 0.125643 0.261143 -0.076072
v 0.125639 0.301251 -0.087531
v -0.125548 0.261120 -0.076072
v 0.148967 -0.363967 0.082291
v 0.148896 -0.400340 0.070274
v 0.218723 -0.363961 0.076361
v 0.218652 -0.400334 0.064344
v 0.218334 -0.363961 0.013441
v 0.148578 -0.363967 0.019371
v 0.148704 -0.422820 0.038814
v 0.218460 -0.422813 0.032884
v 0.148464 -0.422820 -0.000073
v 0.218219 -0.422813 -0.006003
v 0.148267 -0.400340 -0.031532
v 0.218023 -0.400334 -0.037463
v 0.148190 -0.363967 -0.043548
v 0.217945 -0.363961 -0.049479
v 0.148261 -0.327595 -0.031532
v 0.218016 -0.327588 -0.037463
v 0.148453 -0.305115 -0.000073
v 0.218208 -0.305109 -0.006003
v 0.148693 -0.305115 0.038814
v 0.218449 -0.305109 0.032884
v 0.148890 -0.327595 0.070274
v 0.218645 -0.327588 0.064344
v -0.218938 -0.363429 0.081102
v -0.218946 -0.401822 0.069065
v -0.147431 -0.363422 0.080742
v -0.147439 -0.401815 0.068705
v -0.147493 -0.363422 0.017715
v -0.218999 -0.363429 0.018076
v -0.218975 -0.425550 0.037552
v -0.147468 -0.425544 0.037192
v -0.219013 -0.425550 -0.001401
v -0.147506 -0.425544 -0.001760
v -0.219046 -0.401822 -0.032913
v -0.147539 -0.401815 -0.033275
v -0.219061 -0.363429 -0.044951
v -0.147555 -0.363422 -0.045311
v -0.219053 -0.325035 -0.032913
v -0.147546 -0.325028 -0.033275
v -0.219024 -0.301307 -0.001401
v -0.147518 -0.301300 -0.001760
v -0.218986 -0.301307 0.037552
v -0.147479 -0.301300 0.037192
v -0.218953 -0.325035 0.069065
v -0.147446 -0.325028 0.068705
v 0.235565 0.253705 -0.056874
v 0.235586 0.210260 -0.042647
v 0.137471 0.253696 -0.056881
v 0.137492 0.210251 -0.042655
v 0.137561 0.253696 0.017605
v 0.235654 0.253705 0.017614
v 0.235633 0.183409 -0.005405
v 0.137540 0.183400 -0.005412
v 0.235688 0.183409 0.040631
v 0.137595 0.183400 0.040623
v 0.235731 0.210260 0.077874
v 0.137638 0.210251 0.077866
v 0.235744 0.253705 0.092099
v 0.137651 0.253696 0.092091
v 0.235723 0.297150 0.077874
v 0.137629 0.297141 0.077866
v 0.235675 0.324001 0.040631
v 0.137582 0.323992 0.040623
v 0.235620 0.324001 -0.005405
v 0.137527 0.323992 -0.005412
v 0.235578 0.297150 -0.042647
v 0.137484 0.297141 -0.042655
v -0.135696 0.255968 -0.056837
v -0.135595 0.214206 -0.042720
v -0.235617 0.255947 -0.055191
v -0.235516 0.214186 -0.041074
v -0.235097 0.255948 0.018719
v -0.135177 0.255968 0.017072
v -0.135335 0.188397 -0.005766
v -0.235256 0.188376 -0.004120
v -0.135014 0.188397 0.039912
v -0.234935 0.188376 0.041558
v -0.134755 0.214207 0.076866
v -0.234676 0.214186 0.078512
v -0.134657 0.255968 0.090981
v -0.234578 0.255948 0.092628
v -0.134758 0.297730 0.076866
v -0.234678 0.297709 0.078512
v -0.135018 0.323539 0.039912
v -0.234939 0.323519 0.041558
v -0.135339 0.323539 -0.005766
v -0.235260 0.323519 -0.004120
v -0.135598 0.297729 -0.042720
v -0.235519 0.297709 -0.041074
vn -0.3815 0.8496 -0.3642
vn 0.3848 0.8316 -0.4004
vn -0.4415 0.7700 -0.4606
vn -0.3445 -0.8556 -0.3864
vn -0.2144 0.8340 -0.5084
vn 0.9808 -0.1743 -0.0872
vn 0.4890 -0.7764 -0.3976
vn -0.1751 0.9013 -0.3962
vn 0.9925 -0.1220 0.0047
vn 0.3016 -0.8155 -0.4939
vn 0.1771 0.8762 -0.4482
vn -0.3109 -0.8354 -0.4533
vn 0.2125 0.8345 -0.5084
vn -0.4952 -0.7725 -0.3976
vn 0.3408 -0.8569 -0.3867
vn 0.4341 0.7738 -0.4613
vn 0.1548 -0.8801 -0.4489
vn -0.1529 -0.8804 -0.4489
vn 0.9710 0.2391 -0.0092
vn 0.0000 -0.2807 -0.9598
vn -0.0021 -0.2807 -0.9598
vn 1.0000 0.0001 0.0000
vn -1.0000 -0.0001 -0.0000
vn 0.0000 -0.2747 -0.9615
vn -0.0000 0.0000 -1.0000
vn 0.8310 -0.3817 -0.4046
vn 0.8994 -0.3923 0.1929
vn 0.4981 0.1505 -0.8540
vn 0.0000 1.0000 0.0000
vn 0.0627 -0.0675 -0.9957
vn 0.8607 -0.4751 0.1829
vn 0.8760 -0.4064 -0.2598
vn -0.5299 -0.8480 0.0000
vn -0.4982 0.1504 -0.8539
vn -0.9270 -0.1842 -0.3268
vn 0.9879 -0.1352 -0.0760
vn -0.9879 -0.1353 -0.0760
vn 0.9048 -0.1773 -0.3872
vn 0.8809 -0.2002 -0.4289
vn -0.9899 -0.1416 0.0000
vn 0.9876 -0.1359 -0.0790
vn -0.8628 -0.0918 -0.4972
vn -0.8436 0.0072 -0.5369
vn 0.9694 0.1692 -0.1780
vn -0.4074 0.1939 -0.8924
vn 0.0001 -1.0000 0.0000
vn -0.9081 -0.4184 -0.0203
vn 0.0000 -0.3921 0.9199
vn -0.0632 -0.0674 -0.9957
vn 0.3827 0.1813 -0.9059
vn -0.2288 -0.9735 0.0000
vn 0.0000 -0.0758 -0.9971
vn -0.1106 -0.0479 0.9927
vn -0.8041 -0.4030 -0.4370
vn -0.9007 -0.3899 0.1917
vn 0.4897 0.2356 -0.8395
vn -0.0001 0.6991 0.7150
vn -0.0001 1.0000 0.0000
vn 0.8896 -0.0300 -0.4558
vn -0.9667 0.1724 -0.1894
vn -0.3828 0.1813 -0.9059
vn -0.8423 -0.0551 -0.5361
vn 0.9900 -0.1414 0.0000
vn -0.9892 -0.1324 -0.0633
vn -0.9836 -0.1393 -0.1145
vn 0.9911 -0.1065 -0.0793
vn -0.8616 -0.2170 -0.4589
vn -0.9695 -0.2207 -0.1070
vn 0.9052 -0.1748 -0.3874
vn -0.4084 0.1789 -0.8951
vn 0.3118 0.2106 -0.9265
vn -0.8767 -0.0001 -0.4810
vn 0.9081 -0.4182 -0.0201
vn -0.8772 -0.4034 -0.2602
vn 0.0002 -1.0000 0.0000
vn -0.2185 -0.9757 -0.0168
vn 0.0000 -1.0000 0.0000
vn -0.0445 -0.6772 -0.7344
vn -0.2189 0.4009 0.8896
vn 0.0000 -0.2836 -0.9589
vn 0.0000 -0.2425 -0.9701
vn -0.0166 -0.0806 -0.9966
vn -0.0002 1.0000 0.0000
vn 0.0000 -0.9995 -0.0322
vn -0.0001 0.7032 0.7110
vn -0.3118 0.2106 -0.9265
vn 0.8436 0.0073 -0.5369
vn -0.8582 -0.1374 -0.4946
vn -0.8978 -0.1826 -0.4009
vn 0.0043 -0.2495 -0.9684
vn -0.9923 -0.1061 -0.0635
vn 0.9831 -0.1348 -0.1242
vn -0.8974 -0.1849 -0.4007
vn 0.0000 -0.2418 -0.9703
vn 0.9663 -0.2266 -0.1220
vn 0.9295 -0.1517 -0.3362
vn 0.8423 -0.0549 -0.5361
vn 0.4048 0.1944 -0.8935
vn -0.9695 0.1685 -0.1780
vn -0.8896 -0.0302 -0.4558
vn 0.8951 -0.4460 0.0000
vn -0.0062 0.8403 0.5421
vn -0.1099 -0.0284 0.9935
vn 0.0000 0.0000 1.0000
vn 0.0166 -0.0805 -0.9966
vn 0.2132 -0.9769 -0.0164
vn 0.0000 -0.0105 -0.9999
vn 0.1099 -0.0284 0.9935
vn 0.1112 -0.0644 0.9917
vn -0.0004 -0.2425 -0.9702
vn 0.8624 -0.0968 -0.4970
vn 0.1037 -0.9941 -0.0321
vn 0.0040 0.9318 -0.3629
vn 0.5415 -0.8407 0.0000
vn 0.9669 0.1726 -0.1878
vn 0.4060 0.1792 -0.8961
vn -0.9325 -0.1492 -0.3288
vn 0.0000 -0.3317 -0.9434
vn 0.0425 -0.3038 -0.9518
vn 0.8582 -0.1372 -0.4946
vn -0.4897 0.2355 -0.8395
vn 0.8767 0.0001 -0.4810
vn -0.8950 -0.4461 0.0000
vn -0.8645 -0.4684 0.1824
vn -0.0136 0.7002 0.7138
vn 0.0743 -0.9972 -0.0091
vn 0.2233 -0.9748 0.0000
vn 0.9244 -0.1835 -0.3344
vn 0.2232 0.4006 0.8887
vn 0.0022 -0.2807 -0.9598
vn 0.0805 -0.3128 0.9464
vn 1.0000 0.0001 -0.0062
vn -1.0000 -0.0001 0.0062
vn 0.0494 -0.8128 0.5805
vn -0.0493 -0.8128 -0.5805
vn -0.0804 -0.3128 -0.9464
vn -0.0805 0.3128 -0.9464
vn -0.0494 0.8128 -0.5805
vn 0.0493 0.8128 0.5805
vn 0.0804 0.3128 0.9464
vn 0.0048 -0.2992 0.9542
vn 1.0000 0.0001 -0.0010
vn -1.0000 -0.0001 0.0010
vn 0.0031 -0.7989 0.6015
vn -0.0030 -0.7989 -0.6015
vn -0.0048 -0.2992 -0.9542
vn -0.0048 0.2992 -0.9542
vn -0.0031 0.7989 -0.6015
vn 0.0030 0.7989 0.6015
vn 0.0048 0.2992 0.9542
vn 0.0001 -0.3112 -0.9503
vn 0.0001 -0.3112 -0.9504
vn -1.0000 -0.0001 0.0012
vn 1.0000 0.0001 -0.0012
vn 0.0001 -0.8112 -0.5848
vn 0.0000 -0.8112 0.5848
vn -0.0000 -0.3112 0.9504
vn -0.0001 0.3112 0.9504
vn -0.0001 0.8112 0.5848
vn -0.0000 0.8112 -0.5848
vn 0.0000 0.3112 -0.9503
vn 0.0000 0.3112 -0.9504
vn -0.0155 -0.3202 -0.9472
vn -1.0000 -0.0000 0.0070
vn 1.0000 0.0000 -0.0070
vn -0.0093 -0.8198 -0.5725
vn 0.0096 -0.8198 0.5725
vn 0.0157 -0.3202 0.9472
vn 0.0155 0.3202 0.9472
vn 0.0093 0.8198 0.5725
vn -0.0096 0.8198 -0.5725
vn -0.0157 0.3202 -0.9472
vn -0.3763 0.7957 -0.4747
vn 0.3770 0.8115 -0.4464
vn -0.4561 0.7991 -0.3915
vn -0.3399 -0.8412 -0.4206
vn -0.2172 0.8421 -0.4936
vn 0.4771 -0.7340 -0.4833
vn -0.1753 0.8623 -0.4750
vn 0.3151 -0.8463 -0.4294
vn 0.1732 0.8627 -0.4752
vn -0.3172 -0.8431 -0.4343
vn 0.2189 0.8416 -0.4937
vn -0.4789 -0.7496 -0.4569
vn 0.3438 -0.8399 -0.4200
vn 0.4677 0.8040 -0.3673
vn 0.1560 -0.8932 -0.4218
vn -0.1578 -0.8929 -0.4218
vn 0.0094 0.9999 -0.0079
vn -0.0469 -0.6769 -0.7346
vn -0.0001 0.8385 0.5450
vn 0.0446 0.0047 -0.9990
vn 0.0068 0.9314 -0.3639
vn -0.0220 -0.3351 -0.9419
vn 0.0000 -0.3100 -0.9507
usemtl None
s off
f 1//1 2//1 3//1
f 5//2 6//2 7//2
f 9//3 10//3 11//3
f 13//4 14//4 15//4
f 17//5 18//5 19//5
f 21//6 13//6 16//6
f 22//7 23//7 10//7
f 24//8 25//8 26//8
f 28//9 29//9 30//9
f 31//10 32//10 2//10
f 30//11 33//11 34//11
f 8//12 7//12 35//12
f 16//13 15//13 37//13
f 38//14 39//14 40//14
f 20//15 19//15 42//15
f 44//16 45//16 39//16
f 27//17 26//17 46//17
f 29//18 48//18 33//18
f 4//19 31//19 1//19
f 123//20 124//20 122//20
f 124//21 158//21 122//21
f 129//22 125//22 158//22
f 159//23 161//23 126//23
f 123//24 161//24 160//24
f 76//25 73//25 151//25
f 135//26 58//26 55//26
f 98//27 147//27 156//27
f 152//25 83//25 149//25
f 97//28 95//28 94//28
f 125//29 118//29 120//29
f 92//30 83//30 153//30
f 137//23 105//23 104//23
f 118//25 129//25 130//25
f 113//31 98//31 156//31
f 140//32 98//32 113//32
f 136//33 109//33 110//33
f 154//25 151//25 89//25
f 93//34 94//34 95//34
f 70//35 149//35 71//35
f 53//36 73//36 74//36
f 66//37 69//37 70//37
f 52//38 55//38 57//38
f 49//23 50//23 51//23
f 55//39 58//39 57//39
f 66//40 61//40 69//40
f 53//41 52//41 73//41
f 149//42 82//42 71//42
f 92//43 84//43 83//43
f 96//44 99//44 100//44
f 102//45 93//45 92//45
f 85//46 88//46 90//46
f 81//47 80//47 109//47
f 114//22 115//22 116//22
f 123//48 147//48 124//48
f 127//23 143//23 160//23
f 133//49 89//49 96//49
f 103//23 152//23 81//23
f 97//50 91//50 95//50
f 111//51 110//51 69//51
f 125//29 129//29 118//29
f 132//22 162//22 157//22
f 152//52 134//52 153//52
f 147//53 146//53 157//53
f 110//25 109//25 149//25
f 63//54 64//54 59//54
f 146//55 147//55 98//55
f 110//25 149//25 70//25
f 97//56 94//56 98//56
f 131//29 125//29 120//29
f 131//22 157//22 125//22
f 125//57 146//57 122//57
f 118//23 145//23 119//23
f 102//58 101//58 142//58
f 88//59 91//59 90//59
f 104//58 105//58 79//58
f 101//60 92//60 79//60
f 93//61 95//61 84//61
f 83//62 84//62 82//62
f 53//63 74//63 60//63
f 66//64 70//64 65//64
f 65//65 64//65 62//65
f 52//66 53//66 54//66
f 64//67 56//67 59//67
f 63//68 62//68 64//68
f 72//69 52//69 57//69
f 80//23 81//23 152//23
f 92//70 93//70 84//70
f 98//71 99//71 97//71
f 86//72 85//72 84//72
f 150//73 77//73 75//73
f 112//74 98//74 142//74
f 160//48 147//48 123//48
f 160//75 114//75 117//75
f 137//58 153//58 134//58
f 150//22 154//22 77//22
f 154//25 150//25 151//25
f 110//76 70//76 69//76
f 145//77 130//77 162//77
f 63//78 59//78 58//78
f 133//52 78//52 154//52
f 157//79 146//79 125//79
f 124//24 162//24 158//24
f 130//22 158//22 162//22
f 161//23 144//23 126//23
f 159//23 160//23 161//23
f 121//80 144//80 161//80
f 51//81 50//81 66//81
f 154//22 78//22 148//22
f 128//23 144//23 143//23
f 133//82 154//82 89//82
f 91//58 87//58 95//58
f 115//83 144//83 116//83
f 132//84 119//84 162//84
f 114//25 159//25 126//25
f 144//85 121//85 156//85
f 100//58 99//58 98//58
f 86//58 84//58 95//58
f 102//86 98//86 93//86
f 96//87 89//87 91//87
f 83//88 82//88 149//88
f 71//89 56//89 65//89
f 51//90 66//90 62//90
f 65//91 62//91 66//91
f 55//92 52//92 54//92
f 64//93 65//93 56//93
f 68//94 155//94 53//94
f 135//95 55//95 54//95
f 72//96 73//96 52//96
f 91//97 89//97 90//97
f 99//98 96//98 97//98
f 101//99 102//99 92//99
f 85//100 82//100 84//100
f 77//101 138//101 75//101
f 113//102 112//102 142//102
f 162//103 147//103 157//103
f 131//104 120//104 119//104
f 133//58 139//58 148//58
f 152//105 153//105 83//105
f 152//25 149//25 80//25
f 76//106 74//106 73//106
f 82//107 90//107 72//107
f 160//75 159//75 114//75
f 147//108 160//108 143//108
f 149//25 109//25 80//25
f 156//109 147//109 143//109
f 155//110 54//110 53//110
f 103//23 134//23 152//23
f 127//23 128//23 143//23
f 72//111 90//111 151//111
f 86//58 95//58 87//58
f 127//112 160//112 117//112
f 133//25 96//25 108//25
f 133//22 108//22 107//22
f 127//104 117//104 116//104
f 162//48 124//48 147//48
f 146//113 112//113 113//113
f 75//114 138//114 106//114
f 108//58 96//58 141//58
f 100//115 141//115 96//115
f 97//116 96//116 91//116
f 85//25 86//25 87//25
f 75//25 76//25 151//25
f 70//117 71//117 65//117
f 50//58 49//58 61//58
f 67//22 155//22 68//22
f 56//118 57//118 58//118
f 67//58 68//58 53//58
f 71//119 72//119 57//119
f 77//22 154//22 148//22
f 89//120 151//120 90//120
f 93//121 98//121 94//121
f 88//122 87//122 91//122
f 81//123 109//123 136//123
f 146//124 98//124 112//124
f 122//125 146//125 156//125
f 144//83 128//83 116//83
f 104//25 92//25 153//25
f 145//126 162//126 119//126
f 76//127 106//127 74//127
f 72//128 151//128 73//128
f 115//83 126//83 144//83
f 131//22 132//22 157//22
f 150//25 75//25 151//25
f 156//129 143//129 144//129
f 158//80 125//80 122//80
f 129//22 158//22 130//22
f 161//130 123//130 121//130
f 163//131 164//131 165//131
f 164//131 166//131 165//131
f 167//132 165//132 166//132
f 168//133 164//133 163//133
f 164//134 169//134 166//134
f 169//134 170//134 166//134
f 167//132 166//132 170//132
f 168//133 169//133 164//133
f 169//46 171//46 170//46
f 171//46 172//46 170//46
f 167//132 170//132 172//132
f 168//133 171//133 169//133
f 171//135 173//135 172//135
f 173//135 174//135 172//135
f 167//132 172//132 174//132
f 168//133 173//133 171//133
f 173//136 175//136 174//136
f 175//136 176//136 174//136
f 167//132 174//132 176//132
f 168//133 175//133 173//133
f 175//137 177//137 176//137
f 177//137 178//137 176//137
f 167//132 176//132 178//132
f 168//133 177//133 175//133
f 177//138 179//138 178//138
f 179//138 180//138 178//138
f 167//132 178//132 180//132
f 168//133 179//133 177//133
f 179//58 181//58 180//58
f 181//58 182//58 180//58
f 167//132 180//132 182//132
f 168//133 181//133 179//133
f 181//139 183//139 182//139
f 183//139 184//139 182//139
f 167//132 182//132 184//132
f 168//133 183//133 181//133
f 183//140 163//140 184//140
f 163//140 165//140 184//140
f 167//132 184//132 165//132
f 168//133 163//133 183//133
f 185//141 186//141 187//141
f 186//141 188//141 187//141
f 189//142 187//142 188//142
f 190//143 186//143 185//143
f 186//144 191//144 188//144
f 191//144 192//144 188//144
f 189//142 188//142 192//142
f 190//143 191//143 186//143
f 191//46 193//46 192//46
f 193//46 194//46 192//46
f 189//142 192//142 194//142
f 190//143 193//143 191//143
f 193//145 195//145 194//145
f 195//145 196//145 194//145
f 189//142 194//142 196//142
f 190//143 195//143 193//143
f 195//146 197//146 196//146
f 197//146 198//146 196//146
f 189//142 196//142 198//142
f 190//143 197//143 195//143
f 197//147 199//147 198//147
f 199//147 200//147 198//147
f 189//142 198//142 200//142
f 190//143 199//143 197//143
f 199//148 201//148 200//148
f 201//148 202//148 200//148
f 189//142 200//142 202//142
f 190//143 201//143 199//143
f 201//58 203//58 202//58
f 203//58 204//58 202//58
f 189//142 202//142 204//142
f 190//143 203//143 201//143
f 203//149 205//149 204//149
f 205//149 206//149 204//149
f 189//142 204//142 206//142
f 190//143 205//143 203//143
f 205//150 185//150 206//150
f 185//150 187//150 206//150
f 189//142 206//142 187//142
f 190//143 185//143 205//143
f 207//151 208//151 209//151
f 208//152 210//152 209//152
f 211//153 209//153 210//153
f 212//154 208//154 207//154
f 208//155 213//155 210//155
f 213//155 214//155 210//155
f 211//153 210//153 214//153
f 212//154 213//154 208//154
f 213//46 215//46 214//46
f 215//46 216//46 214//46
f 211//153 214//153 216//153
f 212//154 215//154 213//154
f 215//156 217//156 216//156
f 217//156 218//156 216//156
f 211//153 216//153 218//153
f 212//154 217//154 215//154
f 217//157 219//157 218//157
f 219//157 220//157 218//157
f 211//153 218//153 220//153
f 212//154 219//154 217//154
f 219//158 221//158 220//158
f 221//158 222//158 220//158
f 211//153 220//153 222//153
f 212//154 221//154 219//154
f 221//159 223//159 222//159
f 223//159 224//159 222//159
f 211//153 222//153 224//153
f 212//154 223//154 221//154
f 223//58 225//58 224//58
f 225//58 226//58 224//58
f 211//153 224//153 226//153
f 212//154 225//154 223//154
f 225//160 227//160 226//160
f 227//160 228//160 226//160
f 211//153 226//153 228//153
f 212//154 227//154 225//154
f 227//161 207//161 228//161
f 207//162 209//162 228//162
f 211//153 228//153 209//153
f 212//154 207//154 227//154
f 229//163 230//163 231//163
f 230//163 232//163 231//163
f 233//164 231//164 232//164
f 234//165 230//165 229//165
f 230//166 235//166 232//166
f 235//166 236//166 232//166
f 233//164 232//164 236//164
f 234//165 235//165 230//165
f 235//75 237//75 236//75
f 237//75 238//75 236//75
f 233//164 236//164 238//164
f 234//165 237//165 235//165
f 237//167 239//167 238//167
f 239//167 240//167 238//167
f 233//164 238//164 240//164
f 234//165 239//165 237//165
f 239//168 241//168 240//168
f 241//168 242//168 240//168
f 233//164 240//164 242//164
f 234//165 241//165 239//165
f 241//169 243//169 242//169
f 243//169 244//169 242//169
f 233//164 242//164 244//164
f 234//165 243//165 241//165
f 243//170 245//170 244//170
f 245//170 246//170 244//170
f 233//164 244//164 246//164
f 234//165 245//165 243//165
f 245//83 247//83 246//83
f 247//83 248//83 246//83
f 233//164 246//164 248//164
f 234//165 247//165 245//165
f 247//171 249//171 248//171
f 249//171 250//171 248//171
f 233//164 248//164 250//164
f 234//165 249//165 247//165
f 249//172 229//172 250//172
f 229//172 231//172 250//172
f 233//164 250//164 231//164
f 234//165 229//165 249//165
f 1//173 3//173 4//173
f 5//174 7//174 8//174
f 9//175 11//175 12//175
f 13//176 15//176 16//176
f 17//177 19//177 20//177
f 22//178 10//178 9//178
f 24//179 26//179 27//179
f 31//180 2//180 1//180
f 30//181 34//181 28//181
f 8//182 35//182 36//182
f 16//183 37//183 21//183
f 38//184 40//184 41//184
f 20//185 42//185 43//185
f 44//186 39//186 38//186
f 27//187 46//187 47//187
f 29//188 33//188 30//188
f 123//20 122//20 121//20
f 137//23 104//23 153//23
f 118//25 130//25 145//25
f 136//33 110//33 111//33
f 85//46 90//46 82//46
f 114//22 116//22 117//22
f 118//23 119//23 120//23
f 102//58 142//58 98//58
f 104//189 79//189 92//189
f 137//58 134//58 103//58
f 63//190 58//190 135//190
f 114//25 126//25 115//25
f 100//58 98//58 140//58
f 113//191 142//191 140//191
f 131//104 119//104 132//104
f 133//58 148//58 78//58
f 82//192 72//192 71//192
f 133//22 107//22 139//22
f 127//104 116//104 128//104
f 146//193 113//193 156//193
f 75//114 106//114 76//114
f 108//58 141//58 107//58
f 85//25 87//25 88//25
f 50//58 61//58 66//58
f 56//194 58//194 59//194
f 67//58 53//58 60//58
f 71//195 57//195 56//195
f 122//85 156//85 121//85
