# Blender v2.79 (sub 0) OBJ File: ''
# www.blender.org
mtllib m1532.mtl
o m1532
v -0.156141 0.418954 0.133435
v 0.159490 0.418954 0.133435
v -0.181906 0.268358 0.133435
v 0.179703 0.268358 0.133435
v -0.181906 -0.191871 0.133435
v 0.179703 -0.191871 0.133435
v -0.153475 -0.469519 0.133435
v 0.155825 -0.469519 0.133435
v -0.181906 0.418954 -0.078466
v 0.179703 0.418954 -0.078466
v -0.181906 0.258141 -0.088240
v 0.179703 0.258141 -0.088240
v -0.181906 -0.189872 -0.082576
v 0.179703 -0.189872 -0.082576
v -0.153475 -0.468742 -0.028601
v 0.155825 -0.468742 -0.028601
v -0.200786 0.459935 0.022609
v 0.201803 0.459935 0.022609
v 0.211466 0.243036 0.022609
v 0.201803 -0.191871 0.022609
v 0.178037 -0.490065 0.040833
v -0.172355 -0.490065 0.040833
v -0.200786 -0.191871 0.022609
v -0.215779 0.237484 0.022609
v -0.131929 0.182176 -0.186194
v 0.132725 0.182176 -0.186194
v 0.132725 -0.068473 -0.197411
v -0.131929 -0.068473 -0.197411
v -0.130030 -0.241737 0.094231
v -0.130030 -0.260706 0.042122
v -0.130030 -0.308739 0.014390
v -0.130030 -0.363347 0.024019
v -0.130030 -0.398996 0.066499
v -0.130030 -0.398996 0.121962
v -0.130030 -0.363347 0.164442
v -0.130030 -0.308739 0.174071
v -0.130030 -0.260706 0.146340
v -0.191358 -0.241737 0.094231
v -0.191358 -0.260706 0.042122
v -0.191358 -0.308728 0.014390
v -0.191358 -0.363347 0.024019
v -0.191358 -0.398996 0.066499
v -0.191358 -0.398996 0.121962
v -0.191358 -0.363347 0.164442
v -0.191358 -0.308728 0.174071
v -0.191358 -0.260706 0.146340
v -0.191358 -0.244658 0.016100
v -0.191358 -0.397231 0.016100
v -0.191358 -0.397231 0.170717
v -0.191358 -0.244658 0.170717
v -0.130286 -0.244658 0.016100
v -0.130286 -0.397231 0.016100
v -0.130286 -0.397231 0.170717
v -0.130286 -0.244658 0.170717
v 0.135367 0.180940 0.094231
v 0.135359 0.199909 0.042122
v 0.135339 0.247942 0.014390
v 0.135317 0.302550 0.024019
v 0.135302 0.338200 0.066499
v 0.135302 0.338200 0.121962
v 0.135317 0.302550 0.164442
v 0.135339 0.247942 0.174071
v 0.135359 0.199909 0.146340
v 0.205889 0.180969 0.094231
v 0.205881 0.199938 0.042122
v 0.205862 0.247960 0.014390
v 0.205840 0.302579 0.024019
v 0.205825 0.338229 0.066499
v 0.205825 0.338229 0.121962
v 0.205840 0.302579 0.164442
v 0.205862 0.247960 0.174071
v 0.205881 0.199938 0.146340
v 0.205888 0.183890 0.016100
v 0.205826 0.336463 0.016100
v 0.205826 0.336463 0.170717
v 0.205888 0.183890 0.170717
v 0.135654 0.183861 0.016100
v 0.135592 0.336434 0.016100
v 0.135592 0.336434 0.170717
v 0.135654 0.183861 0.170717
v -0.136649 0.338214 0.094231
v -0.136649 0.319245 0.042122
v -0.136649 0.271212 0.014390
v -0.136649 0.216604 0.024019
v -0.136649 0.180954 0.066499
v -0.136649 0.180954 0.121962
v -0.136649 0.216604 0.164442
v -0.136649 0.271212 0.174071
v -0.136649 0.319245 0.146340
v -0.207172 0.338214 0.094231
v -0.207172 0.319245 0.042122
v -0.207172 0.271223 0.014390
v -0.207172 0.216604 0.024019
v -0.207172 0.180954 0.066499
v -0.207172 0.180954 0.121962
v -0.207172 0.216604 0.164442
v -0.207172 0.271223 0.174071
v -0.207172 0.319245 0.146340
v -0.207172 0.335293 0.016100
v -0.207172 0.182720 0.016100
v -0.207172 0.182720 0.170717
v -0.207172 0.335293 0.170717
v -0.136938 0.335293 0.016100
v -0.136938 0.182720 0.016100
v -0.136938 0.182720 0.170717
v -0.136938 0.335293 0.170717
v 0.134634 -0.399009 0.094231
v 0.134626 -0.380040 0.042122
v 0.134606 -0.332007 0.014390
v 0.134584 -0.277399 0.024019
v 0.134570 -0.241749 0.066499
v 0.134570 -0.241749 0.121962
v 0.134584 -0.277399 0.164442
v 0.134606 -0.332007 0.174071
v 0.134626 -0.380040 0.146340
v 0.195960 -0.398984 0.094231
v 0.195953 -0.380015 0.042122
v 0.195933 -0.331993 0.014390
v 0.195911 -0.277374 0.024019
v 0.195896 -0.241724 0.066499
v 0.195896 -0.241724 0.121962
v 0.195911 -0.277374 0.164442
v 0.195933 -0.331993 0.174071
v 0.195953 -0.380015 0.146340
v 0.195959 -0.396063 0.016100
v 0.195897 -0.243490 0.016100
v 0.195897 -0.243490 0.170717
v 0.195959 -0.396063 0.170717
v 0.134888 -0.396088 0.016100
v 0.134826 -0.243515 0.016100
v 0.134826 -0.243515 0.170717
v 0.134888 -0.396088 0.170717
vn 0.9607 0.1289 0.2459
vn 0.9282 0.0414 0.3697
vn 0.9807 0.0000 0.1956
vn 0.9598 -0.0213 0.2799
vn 0.9647 -0.0830 0.2498
vn 0.9785 -0.0661 0.1951
vn 0.9620 0.0429 -0.2698
vn 0.9757 0.0133 -0.2187
vn 0.9783 -0.0217 -0.2060
vn 0.9612 -0.0035 -0.2759
vn 0.9393 -0.0950 -0.3297
vn 0.9707 -0.1230 -0.2063
vn -0.9808 -0.1004 0.1671
vn -0.9731 -0.0796 0.2161
vn -0.9563 0.0000 0.2923
vn -0.9852 -0.0344 0.1678
vn -0.8957 0.1532 0.4175
vn -0.9592 0.0647 0.2752
vn -0.9786 -0.1042 -0.1776
vn -0.9403 -0.1545 -0.3031
vn -0.9541 -0.0333 -0.2977
vn -0.9843 -0.0022 -0.1767
vn -0.9757 0.0658 -0.2089
vn -0.9571 0.0176 -0.2892
vn 0.9237 -0.0048 -0.3830
vn 0.8954 0.0199 -0.4449
vn -0.8925 -0.0057 -0.4510
vn -0.9233 0.0172 -0.3837
vn 0.0000 -0.6872 -0.7265
vn 0.0000 -0.1900 -0.9818
vn 0.0000 -0.9763 0.2166
vn 0.0000 -0.9559 -0.2936
vn 0.0000 0.0447 -0.9990
vn 0.0000 0.7902 -0.6128
vn 0.0000 0.0607 -0.9982
vn 0.0000 0.9379 0.3468
vn 0.0000 0.9267 -0.3757
vn 0.0000 0.9397 -0.3421
vn 0.0000 0.5001 -0.8660
vn 0.0001 0.5000 -0.8660
vn -0.0000 -0.1736 -0.9848
vn 0.0000 -0.1737 -0.9848
vn 0.0000 -0.7660 -0.6428
vn 0.0000 -1.0000 0.0000
vn 0.0000 -0.7660 0.6428
vn 0.0000 -0.1736 0.9848
vn 0.0001 0.5001 0.8660
vn 0.0000 0.5000 0.8660
vn 0.0000 0.9397 0.3421
vn -1.0000 0.0000 0.0000
vn 0.0004 -0.9397 -0.3421
vn 0.0002 -0.5001 -0.8660
vn 0.0001 -0.5000 -0.8660
vn -0.0000 0.1736 -0.9848
vn -0.0001 0.1737 -0.9848
vn -0.0003 0.7660 -0.6428
vn -0.0004 1.0000 0.0000
vn -0.0003 0.7660 0.6428
vn -0.0001 0.1736 0.9848
vn -0.0000 0.1736 0.9848
vn 0.0001 -0.5001 0.8660
vn 0.0002 -0.5000 0.8660
vn 0.0004 -0.9397 0.3421
vn 1.0000 0.0004 0.0000
usemtl None
s off
f 2//1 4//1 19//1
f 19//2 18//2 2//2
f 4//3 6//3 20//3
f 20//4 19//4 4//4
f 6//5 8//5 21//5
f 21//6 20//6 6//6
f 18//7 19//7 12//7
f 12//8 10//8 18//8
f 19//9 20//9 14//9
f 14//10 12//10 19//10
f 20//11 21//11 16//11
f 16//12 14//12 20//12
f 7//13 5//13 23//13
f 23//14 22//14 7//14
f 5//15 3//15 24//15
f 24//16 23//16 5//16
f 3//17 1//17 17//17
f 17//18 24//18 3//18
f 22//19 23//19 13//19
f 13//20 15//20 22//20
f 23//21 24//21 11//21
f 11//22 13//22 23//22
f 24//23 17//23 9//23
f 9//24 11//24 24//24
f 12//25 14//25 27//25
f 27//26 26//26 12//26
f 13//27 11//27 25//27
f 25//28 28//28 13//28
f 14//29 13//29 28//29
f 28//29 27//29 14//29
f 13//30 14//30 16//30
f 16//30 15//30 13//30
f 8//31 7//31 22//31
f 22//31 21//31 8//31
f 21//32 22//32 15//32
f 15//32 16//32 21//32
f 25//33 26//33 27//33
f 27//33 28//33 25//33
f 11//34 12//34 26//34
f 26//34 25//34 11//34
f 9//35 10//35 12//35
f 12//35 11//35 9//35
f 1//36 2//36 18//36
f 18//36 17//36 1//36
f 17//37 18//37 10//37
f 10//37 9//37 17//37
f 29//38 39//38 38//38
f 29//38 30//38 39//38
f 30//39 40//39 39//39
f 30//40 31//40 40//40
f 31//41 41//41 40//41
f 31//42 32//42 41//42
f 32//43 42//43 41//43
f 32//43 33//43 42//43
f 33//44 43//44 42//44
f 33//44 34//44 43//44
f 34//45 44//45 43//45
f 34//45 35//45 44//45
f 35//46 45//46 44//46
f 35//46 36//46 45//46
f 36//47 46//47 45//47
f 36//48 37//48 46//48
f 37//49 38//49 46//49
f 37//49 29//49 38//49
f 49//50 50//50 47//50
f 48//50 49//50 47//50
f 54//50 51//50 53//50
f 53//50 51//50 52//50
f 55//51 65//51 64//51
f 55//51 56//51 65//51
f 56//52 66//52 65//52
f 56//53 57//53 66//53
f 57//54 67//54 66//54
f 57//55 58//55 67//55
f 58//56 68//56 67//56
f 58//56 59//56 68//56
f 59//57 69//57 68//57
f 59//57 60//57 69//57
f 60//58 70//58 69//58
f 60//58 61//58 70//58
f 61//59 71//59 70//59
f 61//60 62//60 71//60
f 62//61 72//61 71//61
f 62//62 63//62 72//62
f 63//63 64//63 72//63
f 63//63 55//63 64//63
f 75//64 76//64 73//64
f 74//64 75//64 73//64
f 80//64 77//64 79//64
f 79//64 77//64 78//64
f 81//38 91//38 90//38
f 81//38 82//38 91//38
f 82//39 92//39 91//39
f 82//40 83//40 92//40
f 83//41 93//41 92//41
f 83//42 84//42 93//42
f 84//43 94//43 93//43
f 84//43 85//43 94//43
f 85//44 95//44 94//44
f 85//44 86//44 95//44
f 86//45 96//45 95//45
f 86//45 87//45 96//45
f 87//46 97//46 96//46
f 87//46 88//46 97//46
f 88//47 98//47 97//47
f 88//48 89//48 98//48
f 89//49 90//49 98//49
f 89//49 81//49 90//49
f 101//50 102//50 99//50
f 100//50 101//50 99//50
f 106//50 103//50 105//50
f 105//50 103//50 104//50
f 107//51 117//51 116//51
f 107//51 108//51 117//51
f 108//52 118//52 117//52
f 108//53 109//53 118//53
f 109//54 119//54 118//54
f 109//55 110//55 119//55
f 110//56 120//56 119//56
f 110//56 111//56 120//56
f 111//57 121//57 120//57
f 111//57 112//57 121//57
f 112//58 122//58 121//58
f 112//58 113//58 122//58
f 113//59 123//59 122//59
f 113//60 114//60 123//60
f 114//61 124//61 123//61
f 114//62 115//62 124//62
f 115//63 116//63 124//63
f 115//63 107//63 116//63
f 127//64 128//64 125//64
f 126//64 127//64 125//64
f 132//64 129//64 131//64
f 131//64 129//64 130//64
