# Blender v2.79 (sub 0) OBJ File: ''
# www.blender.org
mtllib m1547.mtl
o m1547
v -0.443566 -0.235083 0.064864
v -0.419918 -0.235083 0.062926
v -0.333413 -0.266036 -0.041475
v -0.265610 -0.266036 -0.026826
v -0.162650 -0.268566 0.065252
v -0.004862 -0.268566 0.065252
v 0.138278 -0.268566 0.065252
v 0.232076 -0.266036 -0.060619
v 0.345918 -0.266036 -0.060619
v 0.432718 -0.235083 0.061066
v 0.458458 -0.235083 0.033861
v -0.491542 -0.187909 0.079048
v -0.442860 -0.207650 -0.026826
v -0.333413 -0.207650 -0.026826
v -0.223965 -0.207650 -0.026826
v -0.114518 -0.186723 -0.026826
v -0.004862 -0.186723 -0.026826
v 0.104795 -0.186723 -0.026826
v 0.210102 -0.207650 -0.052248
v 0.319550 -0.207650 -0.052248
v 0.432718 -0.207650 -0.026826
v 0.458458 -0.187909 0.033861
v -0.491542 -0.140737 0.079048
v -0.414397 -0.155542 0.005179
v -0.351258 -0.155542 -0.027468
v -0.198830 -0.155542 -0.032832
v -0.114518 -0.155542 -0.026826
v -0.005072 -0.155542 -0.026826
v 0.104375 -0.155542 -0.026826
v 0.210102 -0.155542 -0.052248
v 0.319550 -0.155542 -0.052248
v 0.432718 -0.155542 -0.026826
v 0.458458 -0.140737 0.033861
v -0.491542 -0.093564 0.079048
v -0.414397 -0.103434 0.005179
v -0.351258 -0.103434 -0.027468
v -0.198830 -0.103434 -0.032832
v -0.062498 -0.077307 -0.089607
v 0.031511 -0.077307 -0.095885
v 0.135983 -0.077307 -0.095885
v 0.257353 -0.103434 -0.070773
v 0.443497 -0.152174 -0.077051
v 0.432718 -0.103434 -0.026826
v 0.458458 -0.093564 0.033861
v -0.491542 -0.046391 0.079048
v -0.414397 -0.051326 0.005179
v -0.351258 -0.051326 -0.027468
v -0.198830 -0.051326 -0.032832
v -0.062498 -0.039460 -0.089607
v 0.031511 -0.039460 -0.095885
v 0.135983 -0.039460 -0.095885
v 0.257353 -0.051326 -0.070773
v 0.443497 -0.074766 -0.077051
v 0.432718 -0.051326 -0.026826
v 0.458458 -0.046391 0.033861
v -0.491542 0.000782 0.079048
v -0.414397 0.000782 0.005179
v -0.351258 0.000782 -0.027468
v -0.198830 0.000782 -0.032832
v -0.062498 -0.001613 -0.089607
v 0.031511 -0.001613 -0.095885
v 0.135983 -0.001613 -0.095885
v 0.257353 0.000782 -0.070773
v 0.443497 0.002643 -0.077051
v 0.432718 0.000782 -0.026826
v 0.458458 0.000782 0.033861
v -0.491542 0.047954 0.079048
v -0.414397 0.052889 0.005179
v -0.351258 0.052889 -0.027468
v -0.198830 0.052889 -0.032832
v -0.062498 0.036234 -0.089607
v 0.031511 0.036234 -0.095885
v 0.135983 0.036234 -0.095885
v 0.257353 0.052889 -0.070773
v 0.443497 0.080052 -0.077051
v 0.432718 0.052889 -0.026826
v 0.458458 0.047954 0.033861
v -0.491542 0.095127 0.079048
v -0.414397 0.104997 0.005179
v -0.351258 0.104997 -0.027468
v -0.198830 0.104997 -0.032832
v -0.062498 0.074081 -0.089607
v 0.031511 0.074081 -0.095885
v 0.135983 0.074081 -0.095885
v 0.257353 0.104997 -0.070773
v 0.443497 0.157460 -0.077051
v 0.432718 0.104997 -0.026826
v 0.458458 0.095127 0.033861
v -0.491542 0.142300 0.079048
v -0.414397 0.157105 0.005179
v -0.351258 0.157105 -0.027468
v -0.198830 0.157105 -0.032832
v -0.114518 0.125296 -0.026826
v -0.004862 0.125296 -0.026826
v 0.104795 0.125296 -0.026826
v 0.210102 0.157105 -0.052248
v 0.319550 0.157105 -0.052248
v 0.432718 0.157105 -0.026826
v 0.458458 0.142300 0.033861
v -0.491542 0.189473 0.079048
v -0.442860 0.209213 -0.026826
v -0.333413 0.209213 -0.026826
v -0.223965 0.209213 -0.026826
v -0.114518 0.209213 -0.026826
v -0.005072 0.209213 -0.026826
v 0.104375 0.209213 -0.026826
v 0.210102 0.209213 -0.052248
v 0.319550 0.209213 -0.052248
v 0.432718 0.209213 -0.026826
v 0.458458 0.189473 0.033861
v -0.443566 0.236646 0.064864
v -0.419918 0.236646 0.062926
v -0.333413 0.271784 -0.041475
v -0.236865 0.271784 -0.006354
v -0.162650 0.269691 0.065252
v -0.004862 0.269691 0.065252
v 0.138278 0.269691 0.065252
v 0.232076 0.271784 -0.060619
v 0.345918 0.271784 -0.060619
v 0.432718 0.236646 0.061066
v 0.458458 0.236646 0.033861
v -0.213098 -0.274406 0.062810
v -0.219788 -0.274406 0.031177
v -0.238842 -0.274406 0.004360
v -0.267357 -0.274406 -0.013559
v -0.300991 -0.274406 -0.019851
v -0.334626 -0.274406 -0.013559
v -0.363141 -0.274406 0.004360
v -0.382194 -0.274406 0.031177
v -0.388884 -0.274406 0.062810
v -0.382194 -0.274406 0.094443
v -0.363141 -0.274406 0.121260
v -0.334626 -0.274406 0.139179
v -0.300991 -0.274406 0.145471
v -0.267357 -0.274406 0.139179
v -0.238842 -0.274406 0.121260
v -0.219788 -0.274406 0.094443
v -0.213098 -0.173957 0.062810
v -0.219788 -0.173957 0.031177
v -0.238842 -0.173957 0.004360
v -0.267357 -0.173957 -0.013559
v -0.300991 -0.173957 -0.019851
v -0.334626 -0.173957 -0.013559
v -0.363141 -0.173957 0.004360
v -0.382194 -0.173957 0.031177
v -0.388884 -0.173957 0.062810
v -0.382194 -0.173957 0.094443
v -0.363141 -0.173957 0.121260
v -0.334626 -0.173957 0.139179
v -0.300991 -0.173957 0.145471
v -0.267357 -0.173957 0.139179
v -0.238842 -0.173957 0.121260
v -0.219788 -0.173957 0.094443
v -0.215191 0.167150 0.060717
v -0.221884 0.167150 0.029084
v -0.240936 0.167150 0.002267
v -0.269450 0.167150 -0.015651
v -0.303083 0.167150 -0.021944
v -0.336720 0.167150 -0.015651
v -0.365234 0.167150 0.002267
v -0.384286 0.167150 0.029084
v -0.390976 0.167150 0.060717
v -0.384286 0.167150 0.092350
v -0.365234 0.167150 0.119168
v -0.336720 0.167150 0.137086
v -0.303083 0.167150 0.143378
v -0.269450 0.167150 0.137086
v -0.240936 0.167150 0.119168
v -0.221884 0.167150 0.092350
v -0.215191 0.267599 0.060717
v -0.221884 0.267599 0.029084
v -0.240936 0.267599 0.002267
v -0.269450 0.267599 -0.015651
v -0.303083 0.267599 -0.021944
v -0.336720 0.267599 -0.015651
v -0.365234 0.267599 0.002267
v -0.384286 0.267599 0.029084
v -0.390976 0.267599 0.060717
v -0.384286 0.267599 0.092350
v -0.365234 0.267599 0.119168
v -0.336720 0.267599 0.137086
v -0.303083 0.267599 0.143378
v -0.269450 0.267599 0.137086
v -0.240936 0.267599 0.119168
v -0.221884 0.267599 0.092350
v 0.374013 -0.253480 0.035140
v 0.367324 -0.253480 0.003507
v 0.348271 -0.253480 -0.023310
v 0.319757 -0.253480 -0.041228
v 0.286121 -0.253480 -0.047521
v 0.252486 -0.253480 -0.041228
v 0.223972 -0.253480 -0.023310
v 0.204920 -0.253480 0.003507
v 0.198228 -0.253480 0.035140
v 0.204920 -0.253480 0.066773
v 0.223972 -0.253480 0.093590
v 0.252486 -0.253480 0.111509
v 0.286121 -0.253480 0.117801
v 0.319757 -0.253480 0.111509
v 0.348271 -0.253480 0.093590
v 0.367324 -0.253480 0.066773
v 0.374013 -0.153030 0.035140
v 0.367324 -0.153030 0.003507
v 0.348271 -0.153030 -0.023310
v 0.319757 -0.153030 -0.041228
v 0.286121 -0.153030 -0.047521
v 0.252486 -0.153030 -0.041228
v 0.223972 -0.153030 -0.023310
v 0.204920 -0.153030 0.003507
v 0.198228 -0.153030 0.035140
v 0.204920 -0.153030 0.066773
v 0.223972 -0.153030 0.093590
v 0.252486 -0.153030 0.111509
v 0.286121 -0.153030 0.117801
v 0.319757 -0.153030 0.111509
v 0.348271 -0.153030 0.093590
v 0.367324 -0.153030 0.066773
v 0.359365 0.139945 0.039326
v 0.352674 0.139945 0.007693
v 0.333623 0.139945 -0.019124
v 0.305108 0.139945 -0.037043
v 0.271473 0.139945 -0.043335
v 0.237836 0.139945 -0.037043
v 0.209324 0.139945 -0.019124
v 0.190270 0.139945 0.007693
v 0.183580 0.139945 0.039326
v 0.190270 0.139945 0.070959
v 0.209324 0.139945 0.097776
v 0.237836 0.139945 0.115694
v 0.271473 0.139945 0.121987
v 0.305108 0.139945 0.115694
v 0.333623 0.139945 0.097776
v 0.352674 0.139945 0.070959
v 0.359365 0.240394 0.039326
v 0.352674 0.240394 0.007693
v 0.333623 0.240394 -0.019124
v 0.305108 0.240394 -0.037043
v 0.271473 0.240394 -0.043335
v 0.237836 0.240394 -0.037043
v 0.209324 0.240394 -0.019124
v 0.190270 0.240394 0.007693
v 0.183580 0.240394 0.039326
v 0.190270 0.240394 0.070959
v 0.209324 0.240394 0.097776
v 0.237836 0.240394 0.115694
v 0.271473 0.240394 0.121987
v 0.305108 0.240394 0.115694
v 0.333623 0.240394 0.097776
v 0.352674 0.240394 0.070959
vn -0.7164 -0.6669 -0.2050
vn -0.0235 -0.9577 -0.2867
vn -0.4806 -0.8654 -0.1417
vn 0.0000 0.2434 -0.9699
vn 0.2088 -0.1489 -0.9665
vn 0.5973 -0.4260 -0.6796
vn 0.1485 -0.7764 -0.6125
vn 0.0000 -0.7474 -0.6643
vn -0.2907 -0.7652 -0.5744
vn -0.7819 -0.2101 -0.5869
vn 0.0000 0.1419 -0.9899
vn 0.2132 0.2323 -0.9490
vn 0.6041 -0.7607 -0.2374
vn -0.3004 -0.9105 -0.2842
vn 0.9206 0.0000 -0.3905
vn -0.9086 0.0000 -0.4178
vn -0.4680 0.6339 -0.6158
vn -0.3593 0.6230 -0.6948
vn 0.0000 -0.0123 -0.9999
vn -0.0350 -0.0978 -0.9946
vn 0.0703 -0.1476 -0.9865
vn 0.0000 0.0000 -1.0000
vn -0.2353 -0.0032 -0.9719
vn -0.2338 0.0000 -0.9723
vn 0.2192 0.0000 -0.9757
vn -0.6916 0.0000 -0.7223
vn -0.4593 0.0000 -0.8883
vn -0.0352 0.0000 -0.9994
vn 0.0711 0.0000 -0.9975
vn 0.0116 -0.6644 -0.7473
vn -0.2317 -0.1325 -0.9637
vn 0.0000 -0.3350 -0.9422
vn -0.1579 -0.4927 -0.8558
vn 0.1598 -0.6910 0.7049
vn 0.2026 0.0000 -0.9793
vn -0.0337 0.0000 -0.9994
vn 0.9777 0.0000 0.2098
vn -0.0727 0.7851 -0.6151
vn -0.2627 0.1029 -0.9594
vn 0.0000 0.3350 -0.9422
vn -0.1708 0.5047 -0.8462
vn 0.1441 0.6687 0.7294
vn -0.4680 -0.6339 -0.6158
vn -0.3593 -0.6230 -0.6948
vn 0.0000 0.0123 -0.9999
vn -0.0350 0.0978 -0.9946
vn 0.1367 0.1782 -0.9745
vn -0.2338 -0.0012 -0.9723
vn -0.2347 0.0000 -0.9721
vn -0.7164 0.6669 -0.2050
vn -0.0235 0.9577 -0.2867
vn -0.5052 0.8529 -0.1316
vn 0.0000 -0.2280 -0.9737
vn 0.3198 0.3535 -0.8791
vn 0.6546 0.3536 -0.6682
vn 0.0000 0.8358 -0.5490
vn -0.1233 0.8497 -0.5127
vn -0.7875 0.1985 -0.5835
vn 0.0000 -0.1326 -0.9912
vn 0.2139 -0.2176 -0.9523
vn 0.6267 0.7439 -0.2322
vn -0.3004 0.9105 -0.2842
vn -0.2497 -0.4996 -0.8295
vn -0.0531 -0.6033 -0.7958
vn 0.0000 -0.6618 -0.7497
vn -0.3844 0.0000 -0.9231
vn -0.0666 0.0000 -0.9978
vn -0.1235 0.7163 -0.6867
vn -0.0436 0.7561 -0.6530
vn 0.0000 0.8032 -0.5957
vn 0.9784 0.0000 -0.2069
vn 0.8152 0.0000 -0.5792
vn 0.5321 0.0000 -0.8467
vn 0.1839 0.0000 -0.9829
vn -0.1839 0.0000 -0.9829
vn -0.5321 0.0000 -0.8467
vn -0.8152 0.0000 -0.5792
vn -0.9784 0.0000 -0.2069
vn -0.9784 0.0000 0.2069
vn -0.8152 0.0000 0.5792
vn -0.5321 0.0000 0.8467
vn -0.1839 0.0000 0.9829
vn 0.1839 0.0000 0.9829
vn 0.5321 0.0000 0.8467
vn 0.8152 0.0000 0.5792
vn 0.9784 0.0000 0.2069
vn 0.0000 -1.0000 0.0000
vn 0.0000 1.0000 0.0000
vn 0.9783 0.0000 -0.2070
vn -0.1839 0.0000 0.9830
vn 0.9783 0.0000 0.2070
vn 0.5320 0.0000 -0.8467
vn -0.1839 0.0000 -0.9830
usemtl None
s off
f 1//1 12//1 13//1
f 13//2 2//2 1//2
f 2//3 13//3 3//3
f 3//4 13//4 14//4
f 3//4 14//4 15//4
f 15//5 4//5 3//5
f 4//6 15//6 5//6
f 5//7 15//7 16//7
f 5//8 16//8 17//8
f 17//8 6//8 5//8
f 6//8 17//8 7//8
f 7//8 17//8 18//8
f 7//9 18//9 19//9
f 19//10 8//10 7//10
f 8//11 19//11 9//11
f 9//11 19//11 20//11
f 9//12 20//12 21//12
f 21//13 10//13 9//13
f 10//14 21//14 11//14
f 11//15 21//15 22//15
f 12//16 23//16 13//16
f 13//17 23//17 24//17
f 13//18 24//18 25//18
f 25//19 14//19 13//19
f 14//19 25//19 15//19
f 15//20 25//20 26//20
f 15//21 26//21 27//21
f 27//22 16//22 15//22
f 16//22 27//22 17//22
f 17//22 27//22 28//22
f 17//22 28//22 29//22
f 29//22 18//22 17//22
f 18//23 29//23 19//23
f 19//24 29//24 30//24
f 19//22 30//22 31//22
f 31//22 20//22 19//22
f 20//25 31//25 21//25
f 21//25 31//25 32//25
f 21//15 32//15 33//15
f 33//15 22//15 21//15
f 23//26 34//26 35//26
f 35//26 24//26 23//26
f 24//27 35//27 25//27
f 25//27 35//27 36//27
f 25//28 36//28 37//28
f 37//28 26//28 25//28
f 26//29 37//29 27//29
f 29//30 40//30 41//30
f 41//31 30//31 29//31
f 30//32 41//32 31//32
f 31//33 41//33 42//33
f 31//34 42//34 43//34
f 43//25 32//25 31//25
f 32//15 43//15 33//15
f 33//15 43//15 44//15
f 34//26 45//26 35//26
f 35//26 45//26 46//26
f 35//27 46//27 47//27
f 47//27 36//27 35//27
f 36//28 47//28 37//28
f 37//28 47//28 48//28
f 40//35 51//35 41//35
f 41//35 51//35 52//35
f 41//36 52//36 53//36
f 53//36 42//36 41//36
f 42//37 53//37 43//37
f 43//37 53//37 54//37
f 43//15 54//15 55//15
f 55//15 44//15 43//15
f 45//26 56//26 57//26
f 57//26 46//26 45//26
f 46//27 57//27 47//27
f 47//27 57//27 58//27
f 47//28 58//28 59//28
f 59//28 48//28 47//28
f 51//35 62//35 63//35
f 63//35 52//35 51//35
f 52//36 63//36 53//36
f 53//36 63//36 64//36
f 53//37 64//37 65//37
f 65//37 54//37 53//37
f 54//15 65//15 55//15
f 55//15 65//15 66//15
f 56//26 67//26 57//26
f 57//26 67//26 68//26
f 57//27 68//27 69//27
f 69//27 58//27 57//27
f 58//28 69//28 59//28
f 59//28 69//28 70//28
f 62//35 73//35 63//35
f 63//35 73//35 74//35
f 63//36 74//36 75//36
f 75//36 64//36 63//36
f 64//37 75//37 65//37
f 65//37 75//37 76//37
f 65//15 76//15 77//15
f 77//15 66//15 65//15
f 67//26 78//26 79//26
f 79//26 68//26 67//26
f 68//27 79//27 69//27
f 69//27 79//27 80//27
f 69//28 80//28 81//28
f 81//28 70//28 69//28
f 73//35 84//35 85//35
f 85//35 74//35 73//35
f 74//36 85//36 75//36
f 75//36 85//36 86//36
f 75//37 86//37 87//37
f 87//37 76//37 75//37
f 76//15 87//15 77//15
f 77//15 87//15 88//15
f 78//26 89//26 79//26
f 79//26 89//26 90//26
f 79//27 90//27 91//27
f 91//27 80//27 79//27
f 80//28 91//28 81//28
f 81//28 91//28 92//28
f 81//29 92//29 93//29
f 84//38 95//38 85//38
f 85//39 95//39 96//39
f 85//40 96//40 97//40
f 97//41 86//41 85//41
f 86//42 97//42 87//42
f 87//25 97//25 98//25
f 87//15 98//15 99//15
f 99//15 88//15 87//15
f 89//16 100//16 101//16
f 101//43 90//43 89//43
f 90//44 101//44 91//44
f 91//45 101//45 102//45
f 91//45 102//45 103//45
f 103//46 92//46 91//46
f 92//47 103//47 93//47
f 93//22 103//22 104//22
f 93//22 104//22 105//22
f 105//22 94//22 93//22
f 94//22 105//22 95//22
f 95//22 105//22 106//22
f 95//48 106//48 107//48
f 107//49 96//49 95//49
f 96//22 107//22 97//22
f 97//22 107//22 108//22
f 97//25 108//25 109//25
f 109//25 98//25 97//25
f 98//15 109//15 99//15
f 99//15 109//15 110//15
f 100//50 111//50 101//50
f 101//51 111//51 112//51
f 101//52 112//52 113//52
f 113//53 102//53 101//53
f 102//53 113//53 103//53
f 103//54 113//54 114//54
f 103//55 114//55 115//55
f 115//56 104//56 103//56
f 104//56 115//56 105//56
f 105//56 115//56 116//56
f 105//56 116//56 117//56
f 117//56 106//56 105//56
f 106//57 117//57 107//57
f 107//58 117//58 118//58
f 107//59 118//59 119//59
f 119//59 108//59 107//59
f 108//60 119//60 109//60
f 109//61 119//61 120//61
f 109//62 120//62 121//62
f 121//15 110//15 109//15
f 27//63 37//63 38//63
f 27//64 38//64 39//64
f 39//65 28//65 27//65
f 28//65 39//65 29//65
f 29//65 39//65 40//65
f 37//66 48//66 49//66
f 49//66 38//66 37//66
f 38//67 49//67 39//67
f 39//67 49//67 50//67
f 39//22 50//22 51//22
f 51//22 40//22 39//22
f 48//66 59//66 49//66
f 49//66 59//66 60//66
f 49//67 60//67 61//67
f 61//67 50//67 49//67
f 50//22 61//22 51//22
f 51//22 61//22 62//22
f 59//66 70//66 71//66
f 71//66 60//66 59//66
f 60//67 71//67 61//67
f 61//67 71//67 72//67
f 61//22 72//22 73//22
f 73//22 62//22 61//22
f 70//66 81//66 71//66
f 71//66 81//66 82//66
f 71//67 82//67 83//67
f 83//67 72//67 71//67
f 72//22 83//22 73//22
f 73//22 83//22 84//22
f 93//68 82//68 81//68
f 82//69 93//69 83//69
f 83//70 93//70 94//70
f 83//70 94//70 95//70
f 95//70 84//70 83//70
f 123//71 139//71 122//71
f 138//71 122//71 139//71
f 124//72 140//72 123//72
f 139//72 123//72 140//72
f 125//73 141//73 124//73
f 140//73 124//73 141//73
f 126//74 142//74 125//74
f 141//74 125//74 142//74
f 127//75 143//75 126//75
f 142//75 126//75 143//75
f 128//76 144//76 127//76
f 143//76 127//76 144//76
f 129//77 145//77 128//77
f 144//77 128//77 145//77
f 130//78 146//78 129//78
f 145//78 129//78 146//78
f 131//79 147//79 130//79
f 146//79 130//79 147//79
f 132//80 148//80 131//80
f 147//80 131//80 148//80
f 133//81 149//81 132//81
f 148//81 132//81 149//81
f 134//82 150//82 133//82
f 149//82 133//82 150//82
f 135//83 151//83 134//83
f 150//83 134//83 151//83
f 136//84 152//84 135//84
f 151//84 135//84 152//84
f 137//85 153//85 136//85
f 152//85 136//85 153//85
f 122//86 138//86 137//86
f 153//86 137//86 138//86
f 137//87 136//87 135//87
f 138//88 139//88 140//88
f 155//89 171//89 154//89
f 170//89 154//89 171//89
f 156//72 172//72 155//72
f 171//72 155//72 172//72
f 157//73 173//73 156//73
f 172//73 156//73 173//73
f 158//74 174//74 157//74
f 173//74 157//74 174//74
f 159//75 175//75 158//75
f 174//75 158//75 175//75
f 160//76 176//76 159//76
f 175//76 159//76 176//76
f 161//77 177//77 160//77
f 176//77 160//77 177//77
f 162//78 178//78 161//78
f 177//78 161//78 178//78
f 163//79 179//79 162//79
f 178//79 162//79 179//79
f 164//80 180//80 163//80
f 179//80 163//80 180//80
f 165//81 181//81 164//81
f 180//81 164//81 181//81
f 166//90 182//90 165//90
f 181//90 165//90 182//90
f 167//83 183//83 166//83
f 182//83 166//83 183//83
f 168//84 184//84 167//84
f 183//84 167//84 184//84
f 169//85 185//85 168//85
f 184//85 168//85 185//85
f 154//91 170//91 169//91
f 185//91 169//91 170//91
f 169//87 168//87 167//87
f 170//88 171//88 172//88
f 187//71 203//71 186//71
f 202//71 186//71 203//71
f 188//72 204//72 187//72
f 203//72 187//72 204//72
f 189//92 205//92 188//92
f 204//73 188//73 205//73
f 190//74 206//74 189//74
f 205//74 189//74 206//74
f 191//75 207//75 190//75
f 206//75 190//75 207//75
f 192//76 208//76 191//76
f 207//76 191//76 208//76
f 193//77 209//77 192//77
f 208//77 192//77 209//77
f 194//78 210//78 193//78
f 209//78 193//78 210//78
f 195//79 211//79 194//79
f 210//79 194//79 211//79
f 196//80 212//80 195//80
f 211//80 195//80 212//80
f 197//81 213//81 196//81
f 212//81 196//81 213//81
f 198//82 214//82 197//82
f 213//82 197//82 214//82
f 199//83 215//83 198//83
f 214//83 198//83 215//83
f 200//84 216//84 199//84
f 215//84 199//84 216//84
f 201//85 217//85 200//85
f 216//85 200//85 217//85
f 186//86 202//86 201//86
f 217//86 201//86 202//86
f 201//87 200//87 199//87
f 202//88 203//88 204//88
f 219//71 235//71 218//71
f 234//71 218//71 235//71
f 220//72 236//72 219//72
f 235//72 219//72 236//72
f 221//73 237//73 220//73
f 236//73 220//73 237//73
f 222//74 238//74 221//74
f 237//74 221//74 238//74
f 223//93 239//93 222//93
f 238//93 222//93 239//93
f 224//76 240//76 223//76
f 239//76 223//76 240//76
f 225//77 241//77 224//77
f 240//77 224//77 241//77
f 226//78 242//78 225//78
f 241//78 225//78 242//78
f 227//79 243//79 226//79
f 242//79 226//79 243//79
f 228//80 244//80 227//80
f 243//80 227//80 244//80
f 229//81 245//81 228//81
f 244//81 228//81 245//81
f 230//82 246//82 229//82
f 245//82 229//82 246//82
f 231//83 247//83 230//83
f 246//83 230//83 247//83
f 232//84 248//84 231//84
f 247//84 231//84 248//84
f 233//85 249//85 232//85
f 248//85 232//85 249//85
f 218//86 234//86 233//86
f 249//86 233//86 234//86
f 233//87 232//87 231//87
f 234//88 235//88 236//88
f 137//87 135//87 134//87
f 137//87 134//87 133//87
f 137//87 133//87 132//87
f 137//87 132//87 131//87
f 137//87 131//87 130//87
f 137//87 130//87 129//87
f 137//87 129//87 128//87
f 137//87 128//87 127//87
f 137//87 127//87 126//87
f 137//87 126//87 125//87
f 137//87 125//87 124//87
f 137//87 124//87 123//87
f 137//87 123//87 122//87
f 138//88 140//88 141//88
f 138//88 141//88 142//88
f 138//88 142//88 143//88
f 138//88 143//88 144//88
f 138//88 144//88 145//88
f 138//88 145//88 146//88
f 138//88 146//88 147//88
f 138//88 147//88 148//88
f 138//88 148//88 149//88
f 138//88 149//88 150//88
f 138//88 150//88 151//88
f 138//88 151//88 152//88
f 138//88 152//88 153//88
f 169//87 167//87 166//87
f 169//87 166//87 165//87
f 169//87 165//87 164//87
f 169//87 164//87 163//87
f 169//87 163//87 162//87
f 169//87 162//87 161//87
f 169//87 161//87 160//87
f 169//87 160//87 159//87
f 169//87 159//87 158//87
f 169//87 158//87 157//87
f 169//87 157//87 156//87
f 169//87 156//87 155//87
f 169//87 155//87 154//87
f 170//88 172//88 173//88
f 170//88 173//88 174//88
f 170//88 174//88 175//88
f 170//88 175//88 176//88
f 170//88 176//88 177//88
f 170//88 177//88 178//88
f 170//88 178//88 179//88
f 170//88 179//88 180//88
f 170//88 180//88 181//88
f 170//88 181//88 182//88
f 170//88 182//88 183//88
f 170//88 183//88 184//88
f 170//88 184//88 185//88
f 201//87 199//87 198//87
f 201//87 198//87 197//87
f 201//87 197//87 196//87
f 201//87 196//87 195//87
f 201//87 195//87 194//87
f 201//87 194//87 193//87
f 201//87 193//87 192//87
f 201//87 192//87 191//87
f 201//87 191//87 190//87
f 201//87 190//87 189//87
f 201//87 189//87 188//87
f 201//87 188//87 187//87
f 201//87 187//87 186//87
f 202//88 204//88 205//88
f 202//88 205//88 206//88
f 202//88 206//88 207//88
f 202//88 207//88 208//88
f 202//88 208//88 209//88
f 202//88 209//88 210//88
f 202//88 210//88 211//88
f 202//88 211//88 212//88
f 202//88 212//88 213//88
f 202//88 213//88 214//88
f 202//88 214//88 215//88
f 202//88 215//88 216//88
f 202//88 216//88 217//88
f 233//87 231//87 230//87
f 233//87 230//87 229//87
f 233//87 229//87 228//87
f 233//87 228//87 227//87
f 233//87 227//87 226//87
f 233//87 226//87 225//87
f 233//87 225//87 224//87
f 233//87 224//87 223//87
f 233//87 223//87 222//87
f 233//87 222//87 221//87
f 233//87 221//87 220//87
f 233//87 220//87 219//87
f 233//87 219//87 218//87
f 234//88 236//88 237//88
f 234//88 237//88 238//88
f 234//88 238//88 239//88
f 234//88 239//88 240//88
f 234//88 240//88 241//88
f 234//88 241//88 242//88
f 234//88 242//88 243//88
f 234//88 243//88 244//88
f 234//88 244//88 245//88
f 234//88 245//88 246//88
f 234//88 246//88 247//88
f 234//88 247//88 248//88
f 234//88 248//88 249//88
