# Blender v2.79 (sub 0) OBJ File: ''
# www.blender.org
mtllib m1584.mtl
o m1584
v 0.233475 0.130517 0.176182
v -0.233475 -0.127110 0.176182
v 0.233475 -0.127110 0.176182
v -0.233475 0.130517 0.176182
v -0.258122 0.162721 0.181085
v 0.258121 0.162721 0.181085
v 0.258121 -0.159314 0.181085
v -0.258122 -0.159314 0.181085
v 0.187934 -0.127110 0.286131
v 0.187934 0.130517 0.286131
v -0.187932 -0.127110 0.286131
v -0.187932 0.130517 0.286131
v -0.292979 -0.127110 0.265236
v 0.292981 0.130517 0.265236
v 0.292981 -0.127110 0.265236
v -0.292979 0.130517 0.265236
v -0.233475 0.162721 0.176182
v 0.233475 0.162721 0.176182
v 0.233475 -0.159314 0.176182
v -0.233475 -0.159314 0.176182
v -0.208827 0.130517 0.181085
v 0.208828 -0.127110 0.181085
v 0.208828 0.130517 0.181085
v -0.208827 -0.127110 0.181085
v -0.173970 -0.159314 0.265236
v 0.173968 0.162721 0.265236
v 0.173968 -0.159314 0.265236
v -0.173970 0.162721 0.265236
v -0.187932 0.130517 0.195047
v -0.187932 -0.127110 0.195047
v 0.187934 -0.127110 0.195047
v 0.187934 0.130517 0.195047
v 0.279016 -0.159314 0.286131
v 0.279016 0.162721 0.286131
v -0.279017 -0.159314 0.286131
v -0.279017 0.162721 0.286131
v 0.279016 -0.159314 0.195047
v 0.279016 0.162721 0.195047
v -0.279017 -0.159314 0.195047
v -0.279017 0.162721 0.195047
v -0.169068 -0.127110 0.240589
v 0.169068 0.130517 0.240589
v -0.169068 0.130517 0.240589
v 0.169068 -0.127110 0.240589
v -0.173970 0.130517 0.215942
v 0.173968 -0.127110 0.215942
v 0.173968 0.130517 0.215942
v -0.173970 -0.127110 0.215942
v 0.475000 0.017805 0.143979
v -0.362288 0.017805 0.143979
v 0.362288 0.017805 0.111776
v -0.475000 0.017805 0.111776
v 0.187934 -0.159314 0.195047
v -0.173970 -0.127110 0.265236
v -0.233475 -0.127110 0.304996
v -0.187932 0.162721 0.195047
v -0.208827 -0.159314 0.300093
v -0.292979 0.130517 0.215942
v -0.292979 -0.127110 0.215942
v -0.187932 -0.159314 0.195047
v -0.173970 0.130517 0.265236
v -0.233475 0.130517 0.304996
v -0.208827 0.162721 0.300093
v 0.475000 -0.014398 0.143979
v 0.187934 0.162721 0.195047
v -0.475000 -0.014398 0.143979
v 0.292981 -0.127110 0.215942
v 0.173968 -0.127110 0.265236
v -0.362288 0.017805 0.111776
v 0.208828 0.162721 0.300093
v 0.292981 0.130517 0.215942
v -0.362288 -0.014398 0.143979
v 0.173968 0.130517 0.265236
v 0.475000 0.017805 0.111776
v 0.362288 -0.014398 0.111776
v 0.362288 -0.014398 0.143979
v -0.475000 -0.014398 0.111776
v 0.208828 -0.159314 0.300093
v 0.233475 0.130517 0.304996
v 0.233475 -0.127110 0.304996
v 0.233475 -0.159314 0.304996
v -0.258122 -0.127110 0.300093
v -0.233475 -0.159314 0.304996
v -0.173970 -0.159314 0.215942
v 0.173968 -0.159314 0.215942
v -0.279017 -0.127110 0.195047
v 0.233475 0.162721 0.304996
v 0.279016 0.130517 0.195047
v 0.258121 0.130517 0.300093
v -0.233475 0.162721 0.304996
v 0.279016 -0.127110 0.195047
v 0.173968 0.162721 0.215942
v -0.258122 0.130517 0.300093
v 0.258121 -0.127110 0.300093
v -0.173970 0.162721 0.215942
v -0.279017 0.130517 0.195047
v -0.475000 0.017805 0.143979
v 0.362288 0.017805 0.143979
v -0.292979 0.162721 0.265236
v 0.292981 0.162721 0.265236
v 0.292981 -0.159314 0.265236
v -0.292979 -0.159314 0.265236
v 0.258121 -0.159314 0.300093
v 0.258121 0.162721 0.300093
v -0.258122 -0.159314 0.300093
v -0.258122 0.162721 0.300093
v -0.187932 -0.159314 0.286131
v -0.187932 0.162721 0.286131
v 0.187934 -0.159314 0.286131
v 0.187934 0.162721 0.286131
v 0.169068 -0.159314 0.240589
v 0.169068 0.162721 0.240589
v -0.169068 0.162721 0.240589
v -0.169068 -0.159314 0.240589
v -0.208827 -0.159314 0.181085
v 0.208828 0.162721 0.181085
v 0.208828 -0.159314 0.181085
v -0.208827 0.162721 0.181085
v 0.258121 0.130517 0.181085
v -0.258122 0.130517 0.181085
v -0.258122 -0.127110 0.181085
v 0.258121 -0.127110 0.181085
v 0.297881 0.130517 0.240589
v -0.297881 -0.127110 0.240589
v 0.297881 -0.127110 0.240589
v -0.297881 0.130517 0.240589
v -0.362288 -0.014398 0.111776
v 0.475000 -0.014398 0.111776
v 0.279016 -0.127110 0.286131
v 0.279016 0.130517 0.286131
v -0.279017 -0.127110 0.286131
v -0.279017 0.130517 0.286131
v 0.208828 -0.127110 0.300093
v 0.208828 0.130517 0.300093
v -0.208827 -0.127110 0.300093
v -0.208827 0.130517 0.300093
v 0.292981 0.162721 0.215942
v -0.292979 -0.159314 0.215942
v -0.292979 0.162721 0.215942
v 0.292981 -0.159314 0.215942
v 0.297881 0.162721 0.240589
v -0.297881 -0.159314 0.240589
v -0.297881 0.162721 0.240589
v 0.297881 -0.159314 0.240589
v -0.426695 -0.084292 -0.169721
v -0.426695 0.113918 -0.159602
v -0.426695 -0.003449 -0.178055
v -0.426695 -0.044662 -0.175951
v 0.426695 -0.152828 -0.145986
v 0.426695 -0.120815 -0.159602
v -0.426695 0.172202 -0.129393
v 0.426695 0.077395 -0.169721
v 0.426695 0.113918 -0.159602
v 0.426695 0.172202 -0.129393
v -0.426695 0.037765 -0.175951
v -0.426695 -0.152828 -0.145986
v 0.426695 -0.084292 -0.169721
v -0.426695 -0.120815 -0.159602
v 0.426695 0.037765 -0.175951
v -0.426695 0.145930 -0.145986
v 0.426695 -0.179100 -0.129393
v -0.426695 -0.179100 -0.129393
v -0.426695 0.077395 -0.169721
v 0.426695 -0.003449 -0.178055
v 0.426695 -0.044662 -0.175951
v 0.426695 0.145930 -0.145986
v 0.378390 0.130517 0.224488
v -0.378390 -0.127110 -0.129750
v 0.378390 -0.127110 -0.129750
v -0.378390 0.130517 0.224488
v 0.378390 0.130517 -0.129750
v 0.378390 -0.127110 0.224488
v -0.378390 -0.127110 0.224488
v -0.378390 0.130517 -0.129750
vn 0.0000 1.0000 0.0000
vn -1.0000 0.0000 0.0000
vn 0.0000 0.0000 1.0000
vn 0.0000 0.0000 -1.0000
vn 0.0000 -1.0000 0.0000
vn 1.0000 0.0000 0.0000
vn 0.1951 0.0000 -0.9808
vn 0.5556 0.0000 -0.8315
vn 0.8314 0.0000 -0.5557
vn 0.9808 0.0000 -0.1950
vn 0.9808 0.0000 0.1950
vn 0.8314 0.0000 0.5557
vn 0.5556 0.0000 0.8315
vn 0.1951 0.0000 0.9808
vn -0.1951 0.0000 0.9808
vn -0.5556 0.0000 0.8315
vn -0.8314 0.0000 0.5557
vn -0.9808 0.0000 0.1950
vn -0.9808 0.0000 -0.1950
vn -0.8314 0.0000 -0.5557
vn -0.5556 0.0000 -0.8314
vn -0.1951 0.0000 -0.9808
vn -0.5556 0.0000 -0.8315
vn -0.8315 0.0000 -0.5556
vn -0.9808 0.0000 -0.1951
vn -0.9808 0.0000 0.1951
vn -0.8315 0.0000 0.5556
vn 0.8315 0.0000 0.5556
vn 0.9808 0.0000 0.1951
vn 0.9808 0.0000 -0.1951
vn 0.8315 0.0000 -0.5556
vn 0.0000 -0.5340 -0.8455
vn 0.0000 -0.3914 -0.9202
vn 0.0000 -0.2670 -0.9637
vn 0.0000 -0.1553 -0.9879
vn 0.0000 -0.0510 -0.9987
vn 0.0000 0.0510 -0.9987
vn 0.0000 0.1553 -0.9879
vn 0.0000 0.2670 -0.9637
vn 0.0000 0.3914 -0.9202
vn 0.0000 0.5340 -0.8455
usemtl None
s off
f 98//1 49//1 74//1
f 98//2 51//2 75//2
f 98//3 76//3 64//3
f 51//4 74//4 128//4
f 76//5 75//5 128//5
f 49//6 64//6 128//6
f 50//6 72//6 127//6
f 66//5 77//5 127//5
f 52//4 69//4 127//4
f 97//3 66//3 72//3
f 97//2 52//2 77//2
f 97//1 50//1 69//1
f 129//1 22//1 80//1
f 27//5 37//5 78//5
f 7//7 19//7 3//7
f 37//8 7//8 122//8
f 140//9 37//9 91//9
f 144//10 140//10 67//10
f 101//11 144//11 125//11
f 33//12 101//12 15//12
f 103//13 33//13 129//13
f 81//14 103//14 94//14
f 78//15 81//15 80//15
f 109//16 78//16 133//16
f 27//17 109//17 9//17
f 111//18 27//18 68//18
f 85//19 111//19 44//19
f 53//20 85//20 46//20
f 117//21 53//21 31//21
f 19//22 117//22 22//22
f 10//5 119//5 79//5
f 104//1 18//1 70//1
f 6//7 119//7 1//7
f 38//8 88//8 119//8
f 137//9 71//9 88//9
f 141//10 123//10 71//10
f 100//11 14//11 123//11
f 34//12 130//12 14//12
f 104//13 89//13 130//13
f 87//14 79//14 89//14
f 70//15 134//15 79//15
f 110//16 10//16 134//16
f 26//17 73//17 10//17
f 112//18 42//18 73//18
f 92//19 47//19 42//19
f 65//20 32//20 47//20
f 116//21 23//21 32//21
f 18//22 1//22 23//22
f 11//1 121//1 55//1
f 105//5 20//5 57//5
f 8//22 121//22 2//22
f 39//23 86//23 121//23
f 138//24 59//24 86//24
f 142//25 124//25 59//25
f 102//26 13//26 124//26
f 35//27 131//27 13//27
f 105//16 82//16 131//16
f 83//15 55//15 82//15
f 57//14 135//14 55//14
f 107//13 11//13 135//13
f 25//28 54//28 11//28
f 114//29 41//29 54//29
f 84//30 48//30 41//30
f 60//31 30//31 48//31
f 115//8 24//8 30//8
f 20//7 2//7 24//7
f 132//5 21//5 62//5
f 28//1 40//1 63//1
f 5//22 17//22 4//22
f 40//23 5//23 120//23
f 139//24 40//24 96//24
f 143//25 139//25 58//25
f 99//26 143//26 126//26
f 36//27 99//27 16//27
f 106//16 36//16 132//16
f 90//15 106//15 93//15
f 63//14 90//14 62//14
f 108//13 63//13 136//13
f 28//28 108//28 12//28
f 113//29 28//29 61//29
f 95//30 113//30 43//30
f 56//31 95//31 45//31
f 118//8 56//8 29//8
f 17//7 118//7 21//7
f 74//1 51//1 98//1
f 75//2 76//2 98//2
f 64//3 49//3 98//3
f 128//4 75//4 51//4
f 128//5 64//5 76//5
f 128//6 74//6 49//6
f 127//6 69//6 50//6
f 127//5 72//5 66//5
f 127//4 77//4 52//4
f 72//3 50//3 97//3
f 77//2 66//2 97//2
f 69//1 52//1 97//1
f 91//1 122//1 3//1
f 15//1 125//1 67//1
f 80//1 94//1 129//1
f 68//1 9//1 133//1
f 31//1 46//1 44//1
f 91//1 3//1 22//1
f 129//1 15//1 67//1
f 68//1 133//1 80//1
f 22//1 31//1 44//1
f 129//1 67//1 91//1
f 44//1 68//1 80//1
f 129//1 91//1 22//1
f 22//1 44//1 80//1
f 117//5 19//5 7//5
f 111//5 85//5 53//5
f 78//5 109//5 27//5
f 33//5 103//5 81//5
f 140//5 144//5 101//5
f 117//5 7//5 37//5
f 27//5 111//5 53//5
f 33//5 81//5 78//5
f 37//5 140//5 101//5
f 27//5 53//5 117//5
f 101//5 33//5 78//5
f 27//5 117//5 37//5
f 37//5 101//5 78//5
f 3//7 122//7 7//7
f 122//8 91//8 37//8
f 91//9 67//9 140//9
f 67//10 125//10 144//10
f 125//11 15//11 101//11
f 15//12 129//12 33//12
f 129//13 94//13 103//13
f 94//14 80//14 81//14
f 80//15 133//15 78//15
f 133//16 9//16 109//16
f 9//17 68//17 27//17
f 68//18 44//18 111//18
f 44//19 46//19 85//19
f 46//20 31//20 53//20
f 31//21 22//21 117//21
f 22//22 3//22 19//22
f 32//5 23//5 1//5
f 73//5 42//5 47//5
f 79//5 134//5 10//5
f 14//5 130//5 89//5
f 88//5 71//5 123//5
f 32//5 1//5 119//5
f 10//5 73//5 47//5
f 14//5 89//5 79//5
f 119//5 88//5 123//5
f 10//5 47//5 32//5
f 123//5 14//5 79//5
f 10//5 32//5 119//5
f 119//5 123//5 79//5
f 137//1 38//1 6//1
f 34//1 100//1 141//1
f 70//1 87//1 104//1
f 112//1 26//1 110//1
f 116//1 65//1 92//1
f 137//1 6//1 18//1
f 104//1 34//1 141//1
f 112//1 110//1 70//1
f 18//1 116//1 92//1
f 104//1 141//1 137//1
f 92//1 112//1 70//1
f 104//1 137//1 18//1
f 18//1 92//1 70//1
f 1//7 18//7 6//7
f 119//8 6//8 38//8
f 88//9 38//9 137//9
f 71//10 137//10 141//10
f 123//11 141//11 100//11
f 14//12 100//12 34//12
f 130//13 34//13 104//13
f 89//14 104//14 87//14
f 79//15 87//15 70//15
f 134//16 70//16 110//16
f 10//17 110//17 26//17
f 73//18 26//18 112//18
f 42//19 112//19 92//19
f 47//20 92//20 65//20
f 32//21 65//21 116//21
f 23//22 116//22 18//22
f 30//1 24//1 2//1
f 54//1 41//1 48//1
f 55//1 135//1 11//1
f 13//1 131//1 82//1
f 86//1 59//1 124//1
f 30//1 2//1 121//1
f 11//1 54//1 48//1
f 13//1 82//1 55//1
f 121//1 86//1 124//1
f 11//1 48//1 30//1
f 124//1 13//1 55//1
f 11//1 30//1 121//1
f 121//1 124//1 55//1
f 138//5 39//5 8//5
f 35//5 102//5 142//5
f 57//5 83//5 105//5
f 114//5 25//5 107//5
f 115//5 60//5 84//5
f 138//5 8//5 20//5
f 105//5 35//5 142//5
f 114//5 107//5 57//5
f 20//5 115//5 84//5
f 105//5 142//5 138//5
f 84//5 114//5 57//5
f 105//5 138//5 20//5
f 20//5 84//5 57//5
f 2//22 20//22 8//22
f 121//23 8//23 39//23
f 86//24 39//24 138//24
f 59//25 138//25 142//25
f 124//26 142//26 102//26
f 13//27 102//27 35//27
f 131//16 35//16 105//16
f 82//15 105//15 83//15
f 55//14 83//14 57//14
f 135//13 57//13 107//13
f 11//28 107//28 25//28
f 54//29 25//29 114//29
f 41//30 114//30 84//30
f 48//31 84//31 60//31
f 30//8 60//8 115//8
f 24//7 115//7 20//7
f 96//5 120//5 4//5
f 16//5 126//5 58//5
f 62//5 93//5 132//5
f 61//5 12//5 136//5
f 29//5 45//5 43//5
f 96//5 4//5 21//5
f 132//5 16//5 58//5
f 61//5 136//5 62//5
f 21//5 29//5 43//5
f 132//5 58//5 96//5
f 43//5 61//5 62//5
f 132//5 96//5 21//5
f 21//5 43//5 62//5
f 118//1 17//1 5//1
f 113//1 95//1 56//1
f 63//1 108//1 28//1
f 36//1 106//1 90//1
f 139//1 143//1 99//1
f 118//1 5//1 40//1
f 28//1 113//1 56//1
f 36//1 90//1 63//1
f 40//1 139//1 99//1
f 28//1 56//1 118//1
f 99//1 36//1 63//1
f 28//1 118//1 40//1
f 40//1 99//1 63//1
f 4//22 120//22 5//22
f 120//23 96//23 40//23
f 96//24 58//24 139//24
f 58//25 126//25 143//25
f 126//26 16//26 99//26
f 16//27 132//27 36//27
f 132//16 93//16 106//16
f 93//15 62//15 90//15
f 62//14 136//14 63//14
f 136//13 12//13 108//13
f 12//28 61//28 28//28
f 61//29 43//29 113//29
f 43//30 45//30 95//30
f 45//31 29//31 56//31
f 29//8 21//8 118//8
f 21//7 4//7 17//7
f 152//6 149//6 164//6
f 158//2 146//2 148//2
f 149//32 161//32 162//32
f 150//33 149//33 156//33
f 157//34 150//34 158//34
f 165//35 157//35 145//35
f 164//36 165//36 148//36
f 159//37 164//37 147//37
f 152//38 159//38 155//38
f 153//39 152//39 163//39
f 166//40 153//40 146//40
f 154//41 166//41 160//41
f 161//3 154//3 151//3
f 153//6 166//6 154//6
f 164//6 159//6 152//6
f 150//6 157//6 165//6
f 154//6 161//6 149//6
f 152//6 153//6 154//6
f 150//6 165//6 164//6
f 152//6 154//6 149//6
f 149//6 150//6 164//6
f 156//2 162//2 151//2
f 148//2 145//2 158//2
f 163//2 155//2 147//2
f 151//2 160//2 146//2
f 158//2 156//2 151//2
f 163//2 147//2 148//2
f 158//2 151//2 146//2
f 146//2 163//2 148//2
f 162//32 156//32 149//32
f 156//33 158//33 150//33
f 158//34 145//34 157//34
f 145//35 148//35 165//35
f 148//36 147//36 164//36
f 147//37 155//37 159//37
f 155//38 163//38 152//38
f 163//39 146//39 153//39
f 146//40 160//40 166//40
f 160//41 151//41 154//41
f 151//3 162//3 161//3
f 170//1 167//1 171//1
f 170//2 174//2 168//2
f 170//3 173//3 172//3
f 174//4 171//4 169//4
f 173//5 168//5 169//5
f 167//6 172//6 169//6
f 171//1 174//1 170//1
f 168//2 173//2 170//2
f 172//3 167//3 170//3
f 169//4 168//4 174//4
f 169//5 172//5 173//5
f 169//6 171//6 167//6
