# Blender v2.79 (sub 0) OBJ File: ''
# www.blender.org
mtllib m1705.mtl
o m1705
v -0.256251 0.040256 -0.004833
v -0.256251 0.007089 -0.026774
v -0.256251 0.014402 -0.037829
v -0.256251 0.047569 -0.015887
v -0.251833 0.040256 -0.004833
v -0.251833 0.007089 -0.026774
v -0.251833 0.014402 -0.037829
v -0.251833 0.047569 -0.015887
v -0.243018 0.002324 0.016466
v -0.243018 0.024417 0.016466
v -0.243018 0.024417 -0.071907
v -0.243018 0.002324 -0.071907
v -0.265111 0.002324 0.016466
v -0.265111 0.024417 0.016466
v -0.265111 0.024417 -0.071907
v -0.265111 0.002324 -0.071907
v -0.265503 0.035402 -0.010662
v 0.264730 0.035402 -0.010662
v 0.264730 0.035402 -0.015081
v -0.265503 0.035402 -0.015081
v -0.265503 0.039820 -0.010662
v 0.264730 0.039820 -0.010662
v 0.264730 0.039820 -0.015081
v -0.265503 0.039820 -0.015081
v 0.251861 0.039350 -0.002526
v 0.251861 0.006183 -0.024467
v 0.251861 0.013496 -0.035522
v 0.251861 0.046663 -0.013582
v 0.256280 0.039350 -0.002526
v 0.256280 0.006183 -0.024467
v 0.256280 0.013496 -0.035522
v 0.256280 0.046663 -0.013582
v 0.265117 0.002428 0.017341
v 0.265117 0.024521 0.017341
v 0.265117 0.024521 -0.071032
v 0.265117 0.002428 -0.071032
v 0.243024 0.002428 0.017341
v 0.243024 0.024522 0.017341
v 0.243024 0.024522 -0.071032
v 0.243024 0.002428 -0.071032
v -0.265113 -0.005068 0.475641
v 0.265120 -0.005068 0.475641
v 0.265120 -0.005068 -0.474360
v -0.265113 -0.005068 -0.474360
v -0.265113 0.003769 0.475641
v 0.265120 0.003769 0.475641
v 0.265120 0.003769 -0.474360
v -0.265113 0.003769 -0.474360
vn -1.0000 -0.0000 0.0000
vn 0.0000 -0.5517 0.8340
vn 0.0000 0.8340 0.5518
vn 0.0000 0.5517 -0.8340
vn 0.0000 -0.8340 -0.5518
vn 1.0000 0.0000 0.0000
vn 0.0000 0.0000 1.0000
vn 0.0000 -1.0000 0.0000
vn 0.0000 0.0000 -1.0000
vn 0.0000 1.0000 0.0000
vn 0.0000 0.8340 0.5517
vn 0.0000 -0.8340 -0.5517
usemtl None
s off
f 1//1 4//1 2//1
f 2//1 4//1 3//1
f 1//2 6//2 5//2
f 1//2 2//2 6//2
f 1//3 5//3 4//3
f 4//3 5//3 8//3
f 4//4 8//4 7//4
f 4//4 7//4 3//4
f 2//5 7//5 6//5
f 2//5 3//5 7//5
f 6//6 8//6 5//6
f 6//6 7//6 8//6
f 9//6 12//6 10//6
f 10//6 12//6 11//6
f 9//7 14//7 13//7
f 9//7 10//7 14//7
f 9//8 13//8 12//8
f 12//8 13//8 16//8
f 12//9 16//9 15//9
f 12//9 15//9 11//9
f 10//10 15//10 14//10
f 10//10 11//10 15//10
f 14//1 16//1 13//1
f 14//1 15//1 16//1
f 17//8 20//8 18//8
f 18//8 20//8 19//8
f 17//7 22//7 21//7
f 17//7 18//7 22//7
f 17//1 21//1 20//1
f 20//1 21//1 24//1
f 20//9 24//9 23//9
f 20//9 23//9 19//9
f 18//6 23//6 22//6
f 18//6 19//6 23//6
f 22//10 24//10 21//10
f 22//10 23//10 24//10
f 25//1 28//1 26//1
f 26//1 28//1 27//1
f 25//2 30//2 29//2
f 25//2 26//2 30//2
f 25//11 29//11 28//11
f 28//11 29//11 32//11
f 28//4 32//4 31//4
f 28//4 31//4 27//4
f 26//12 31//12 30//12
f 26//12 27//12 31//12
f 30//6 32//6 29//6
f 30//6 31//6 32//6
f 33//6 36//6 34//6
f 34//6 36//6 35//6
f 33//7 38//7 37//7
f 33//7 34//7 38//7
f 33//8 37//8 36//8
f 36//8 37//8 40//8
f 36//9 40//9 39//9
f 36//9 39//9 35//9
f 34//10 39//10 38//10
f 34//10 35//10 39//10
f 38//1 40//1 37//1
f 38//1 39//1 40//1
f 41//8 44//8 42//8
f 42//8 44//8 43//8
f 41//7 46//7 45//7
f 41//7 42//7 46//7
f 41//1 45//1 44//1
f 44//1 45//1 48//1
f 44//9 48//9 47//9
f 44//9 47//9 43//9
f 42//6 47//6 46//6
f 42//6 43//6 47//6
f 46//10 48//10 45//10
f 46//10 47//10 48//10
