# Blender v2.79 (sub 0) OBJ File: ''
# www.blender.org
mtllib m1709.mtl
o m1709
v 0.004515 0.258396 0.510872
v 0.004515 0.258396 -0.439128
v -0.000587 -0.244651 0.510872
v -0.000586 -0.244651 -0.439128
v 0.000985 -0.089692 -0.439128
v 0.000985 -0.089692 0.510872
v 0.003943 0.202048 0.510872
v 0.003943 0.202048 -0.439128
v 0.003943 0.202048 -0.384978
v 0.000644 -0.123320 -0.320378
v 0.000644 -0.123320 0.451972
v 0.000542 -0.133317 -0.439128
v 0.000478 -0.139679 0.510872
v 0.000673 -0.092416 -0.362178
v -0.004510 0.202134 0.510710
v -0.004510 0.202134 -0.385140
v -0.007809 -0.123234 -0.320540
v -0.007809 -0.123234 0.451810
vn 1.0000 0.0048 0.0042
vn 0.9999 -0.0101 0.0000
vn 0.9999 -0.0117 -0.0080
vn 0.9999 -0.0101 0.0037
vn -0.9999 0.0101 0.0000
vn 0.0000 -1.0000 0.0000
vn 0.9999 -0.0111 0.0000
usemtl None
s off
f 10//1 5//1 14//1
f 7//2 2//2 1//2
f 9//3 10//3 14//3
f 11//2 7//2 6//2
f 13//2 4//2 12//2
f 8//4 14//4 5//4
f 9//2 7//2 10//2
f 7//2 11//2 10//2
f 15//5 16//5 17//5
f 10//2 12//2 5//2
f 10//2 13//2 12//2
f 10//2 6//2 13//2
f 10//5 11//5 6//5
f 7//2 8//2 2//2
f 7//6 9//6 8//6
f 13//2 3//2 4//2
f 8//7 9//7 14//7
f 15//5 17//5 18//5
