# Blender v2.79 (sub 0) OBJ File: ''
# www.blender.org
mtllib m1706.mtl
o m1706
v 0.231442 -0.000073 0.448241
v 0.231442 -0.000073 -0.264259
v 0.214025 -0.000073 -0.354509
v 0.161775 -0.000073 -0.432092
v 0.084192 -0.000073 -0.484342
v -0.006058 -0.000073 -0.501759
v -0.096308 -0.000073 -0.484342
v -0.173892 -0.000073 -0.432092
v -0.226142 -0.000073 -0.354509
v -0.243558 -0.000073 -0.264259
v -0.243558 -0.001656 0.448241
v 0.199775 0.001510 0.099908
v 0.199775 0.001510 -0.058426
v 0.136442 0.001510 -0.058426
v 0.136442 0.001510 0.099908
v 0.176025 0.001510 -0.042592
v 0.176025 0.030010 -0.010926
v 0.176025 0.030010 0.052408
v 0.176025 0.001510 0.084074
v 0.176025 0.001510 -0.026759
v 0.176025 0.018927 -0.003009
v 0.176025 0.018927 0.044491
v 0.176025 0.001510 0.068241
v 0.160192 0.001510 -0.042592
v 0.160192 0.030010 -0.010926
v 0.160192 0.030010 0.052408
v 0.160192 0.001510 0.084074
v 0.160192 0.001510 -0.026759
v 0.160192 0.018927 -0.003009
v 0.160192 0.018927 0.044491
v 0.160192 0.001510 0.068241
vn 0.0000 -1.0000 0.0000
vn 0.0000 1.0000 0.0000
vn 0.0000 0.7433 -0.6690
vn 0.0000 0.7433 0.6690
vn 1.0000 0.0000 0.0000
vn -1.0000 -0.0000 0.0000
vn 0.0033 -1.0000 -0.0022
usemtl None
s off
f 1//1 3//1 2//1
f 12//2 13//2 14//2
f 16//3 24//3 25//3
f 17//2 25//2 26//2
f 18//4 26//4 27//4
f 20//5 16//5 17//5
f 21//5 17//5 18//5
f 22//5 18//5 19//5
f 28//6 29//6 25//6
f 29//6 30//6 26//6
f 30//6 31//6 27//6
f 1//1 4//1 3//1
f 1//1 5//1 4//1
f 1//1 6//1 5//1
f 1//1 7//1 6//1
f 1//1 8//1 7//1
f 1//1 9//1 8//1
f 1//1 10//1 9//1
f 1//7 11//7 10//7
f 12//2 14//2 15//2
f 16//3 25//3 17//3
f 17//2 26//2 18//2
f 18//4 27//4 19//4
f 20//5 17//5 21//5
f 21//5 18//5 22//5
f 22//5 19//5 23//5
f 28//6 25//6 24//6
f 29//6 26//6 25//6
f 30//6 27//6 26//6
