# Blender v2.79 (sub 0) OBJ File: ''
# www.blender.org
mtllib m1708.mtl
o m1708
v -0.271428 0.011711 0.475000
v 0.271429 0.011711 0.475000
v 0.271429 0.011711 -0.475000
v -0.271428 0.011711 -0.475000
v -0.271428 -0.012039 0.475000
v 0.271429 -0.012039 0.475000
v 0.271429 -0.012039 -0.475000
v -0.271428 -0.012039 -0.475000
v -0.271428 0.013747 0.475000
v 0.271429 0.013747 0.475000
v 0.271429 0.013747 -0.475000
v -0.271428 0.013747 -0.475000
v -0.271428 -0.013396 0.475000
v 0.271429 -0.013396 0.475000
v 0.271429 -0.013396 -0.475000
v -0.271428 -0.013396 -0.475000
vn 0.0000 1.0000 0.0000
vn 0.0000 -1.0000 0.0000
vn 0.0000 0.0000 1.0000
vn 1.0000 0.0000 0.0000
vn 0.0000 0.0000 -1.0000
vn -1.0000 0.0000 0.0000
usemtl None
s off
f 1//1 2//1 3//1
f 5//2 7//2 6//2
f 1//3 6//3 2//3
f 2//4 6//4 7//4
f 3//5 7//5 8//5
f 8//6 1//6 4//6
f 9//1 10//1 11//1
f 13//2 15//2 14//2
f 1//1 3//1 4//1
f 5//2 8//2 7//2
f 1//3 5//3 6//3
f 2//4 7//4 3//4
f 3//5 8//5 4//5
f 8//6 5//6 1//6
f 9//1 11//1 12//1
f 13//2 16//2 15//2
