# Blender v2.79 (sub 0) OBJ File: ''
# www.blender.org
mtllib m1719.mtl
o m1719
v 0.111434 0.011765 0.045699
v 0.111434 0.025325 0.049315
v 0.120926 0.021257 0.049315
v 0.124994 0.011765 0.049315
v 0.097874 0.011765 0.049315
v 0.101942 0.021257 0.049315
v 0.111434 0.033009 0.064683
v 0.126802 0.026681 0.064683
v 0.133130 0.011765 0.064683
v 0.090190 0.011765 0.064683
v 0.096518 0.026681 0.064683
v 0.111434 0.025325 0.080051
v 0.120926 0.021257 0.080051
v 0.124994 0.011765 0.080051
v 0.097874 0.011765 0.080051
v 0.101942 0.021257 0.080051
v 0.111434 0.011765 0.084571
v 0.111434 -0.010835 0.045699
v 0.111434 -0.024395 0.049315
v 0.101942 -0.020327 0.049315
v 0.097874 -0.010835 0.049315
v 0.124994 -0.010835 0.049315
v 0.121378 -0.020327 0.049315
v 0.111434 -0.032531 0.064683
v 0.096518 -0.026203 0.064683
v 0.090190 -0.010835 0.064683
v 0.133130 -0.010835 0.064683
v 0.126802 -0.026203 0.064683
v 0.111434 -0.024395 0.080051
v 0.101942 -0.020327 0.080051
v 0.098326 -0.010835 0.080051
v 0.124994 -0.010835 0.080051
v 0.120926 -0.020327 0.080051
v 0.111434 -0.010835 0.084571
v -0.185670 0.011672 -0.423316
v -0.185670 0.011672 0.480684
v 0.175930 0.011672 -0.423316
v 0.175930 0.011672 0.480684
v 0.175930 -0.010928 -0.423316
v 0.175930 -0.010928 0.480684
v -0.185670 -0.010928 -0.423316
v -0.185670 -0.010928 0.480684
v -0.223792 0.015952 -0.468882
v -0.223792 0.015952 0.480770
v -0.205260 0.022280 0.480770
v -0.205260 0.022280 -0.468882
v -0.186276 0.015048 0.480770
v -0.186276 0.015048 -0.468882
v -0.222888 -0.017496 -0.468882
v -0.222888 -0.017496 0.480770
v -0.228312 -0.000772 0.480770
v -0.228312 -0.000772 -0.468882
v -0.185824 -0.015688 -0.468882
v -0.185824 -0.015688 0.480770
v -0.205260 -0.024276 0.480770
v -0.205260 -0.024276 -0.468882
v -0.182208 -0.000772 0.480770
v -0.182208 -0.000772 -0.468882
v 0.180941 0.015597 -0.468837
v 0.180941 0.015597 0.480815
v 0.199473 0.022377 0.480815
v 0.199473 0.022377 -0.468837
v 0.218457 0.015145 0.480815
v 0.218457 0.015145 -0.468837
v 0.181845 -0.017399 -0.468837
v 0.181845 -0.017851 0.480815
v 0.176421 -0.001127 0.480815
v 0.176421 -0.000675 -0.468837
v 0.218909 -0.016043 -0.468837
v 0.218909 -0.016043 0.480815
v 0.199473 -0.024179 0.480815
v 0.199473 -0.024179 -0.468837
v 0.222525 -0.001127 0.480815
v 0.222525 -0.000675 -0.468837
v 0.199501 0.022513 -0.469185
v -0.204607 0.021040 -0.469151
v -0.205310 0.021533 -0.443145
v 0.199711 0.021612 -0.442884
v -0.205416 0.013923 -0.425399
v 0.199621 0.012208 -0.425355
v 0.199423 -0.023966 -0.468888
v -0.205145 -0.024041 -0.469144
v 0.195380 -0.018396 -0.428636
v -0.205120 -0.018438 -0.428854
v -0.205334 -0.024185 -0.449130
v 0.199687 -0.024106 -0.448869
v -0.205292 -0.004119 -0.423026
v 0.197017 -0.004062 -0.422791
vn 0.1098 0.2561 -0.9604
vn 0.2561 0.1098 -0.9604
vn -0.2561 0.1098 -0.9604
vn -0.1098 0.2561 -0.9604
vn 0.3456 0.8393 -0.4197
vn 0.3558 0.8302 -0.4291
vn 0.8267 0.3507 -0.4399
vn 0.8265 0.3542 -0.4376
vn -0.8362 0.3548 -0.4181
vn -0.8339 0.3574 -0.4205
vn -0.3544 0.8355 -0.4200
vn -0.3579 0.8352 -0.4176
vn 0.3579 0.8352 0.4176
vn 0.3443 0.8362 0.4268
vn 0.8252 0.3537 0.4404
vn 0.8275 0.3511 0.4381
vn -0.8352 0.3579 0.4176
vn -0.8355 0.3544 0.4200
vn -0.3574 0.8339 0.4205
vn -0.3548 0.8362 0.4181
vn 0.1343 0.3134 0.9401
vn 0.3134 0.1343 0.9401
vn -0.3134 0.1343 0.9401
vn -0.1343 0.3134 0.9401
vn -0.1098 -0.2561 -0.9604
vn -0.2561 -0.1098 -0.9604
vn 0.2564 -0.0977 -0.9616
vn 0.1048 -0.2562 -0.9609
vn -0.3511 -0.8275 -0.4381
vn -0.3537 -0.8252 -0.4404
vn -0.8362 -0.3443 -0.4268
vn -0.8352 -0.3579 -0.4176
vn 0.8305 -0.3420 -0.4397
vn 0.8471 -0.3227 -0.4223
vn 0.3422 -0.8310 -0.4385
vn 0.3400 -0.8311 -0.4400
vn -0.3542 -0.8265 0.4376
vn -0.3507 -0.8267 0.4399
vn -0.8471 -0.3227 0.4223
vn -0.8305 -0.3420 0.4397
vn 0.8265 -0.3542 0.4376
vn 0.8273 -0.3407 0.4466
vn 0.3520 -0.8214 0.4487
vn 0.3420 -0.8305 0.4397
vn -0.1343 -0.3134 0.9401
vn -0.3235 -0.1232 0.9382
vn 0.3134 -0.1343 0.9401
vn 0.1343 -0.3134 0.9401
vn 0.0000 1.0000 0.0000
vn 0.0000 -1.0000 0.0000
vn 1.0000 0.0000 0.0000
vn -0.3231 0.9463 0.0000
vn 0.3560 0.9345 0.0000
vn -0.9512 -0.3085 0.0000
vn -0.9654 0.2609 0.0000
vn 0.4042 -0.9147 0.0000
vn -0.3590 -0.9333 0.0000
vn 0.9685 0.2490 0.0000
vn 0.9719 -0.2356 0.0000
vn -0.3436 0.9391 0.0000
vn -0.9512 -0.3085 -0.0001
vn 0.3861 -0.9224 0.0000
vn -0.3379 -0.9412 -0.0004
vn 0.9701 0.2425 0.0000
vn -0.0036 0.9998 -0.0190
vn 0.0038 0.9191 0.3941
vn -0.0000 -0.9621 0.2727
vn 0.0002 -1.0000 -0.0072
vn 0.0004 0.1304 0.9915
vn -0.0005 -0.3770 0.9262
vn -0.9635 0.2676 0.0001
vn 0.9685 0.2490 0.0001
vn 0.9734 -0.2290 -0.0001
vn -0.0002 0.9994 0.0342
vn -0.0005 0.8812 0.4728
vn 0.0000 -0.9624 0.2716
vn 0.0002 -1.0000 -0.0070
vn -0.0006 0.1558 0.9878
vn -0.0005 -0.3775 0.9260
usemtl None
s off
f 1//1 2//1 3//1
f 1//2 3//2 4//2
f 1//3 5//3 6//3
f 1//4 6//4 2//4
f 2//5 7//5 8//5
f 2//6 8//6 3//6
f 3//7 8//7 9//7
f 3//8 9//8 4//8
f 5//9 10//9 11//9
f 5//10 11//10 6//10
f 6//11 11//11 7//11
f 6//12 7//12 2//12
f 7//13 12//13 13//13
f 7//14 13//14 8//14
f 8//15 13//15 14//15
f 8//16 14//16 9//16
f 10//17 15//17 16//17
f 10//18 16//18 11//18
f 11//19 16//19 12//19
f 11//20 12//20 7//20
f 17//21 13//21 12//21
f 17//22 14//22 13//22
f 17//23 16//23 15//23
f 17//24 12//24 16//24
f 18//25 19//25 20//25
f 18//26 20//26 21//26
f 18//27 22//27 23//27
f 18//28 23//28 19//28
f 19//29 24//29 25//29
f 19//30 25//30 20//30
f 20//31 25//31 26//31
f 20//32 26//32 21//32
f 22//33 27//33 28//33
f 22//34 28//34 23//34
f 23//35 28//35 24//35
f 23//36 24//36 19//36
f 24//37 29//37 30//37
f 24//38 30//38 25//38
f 25//39 30//39 31//39
f 25//40 31//40 26//40
f 27//41 32//41 33//41
f 27//42 33//42 28//42
f 28//43 33//43 29//43
f 28//44 29//44 24//44
f 34//45 30//45 29//45
f 34//46 31//46 30//46
f 34//47 33//47 32//47
f 34//48 29//48 33//48
f 35//49 36//49 38//49
f 39//50 40//50 42//50
f 37//51 38//51 40//51
f 43//52 44//52 45//52
f 45//53 47//53 48//53
f 49//54 50//54 51//54
f 51//55 44//55 43//55
f 53//56 54//56 55//56
f 55//57 50//57 49//57
f 48//58 47//58 57//58
f 57//59 54//59 53//59
f 59//60 60//60 61//60
f 61//53 63//53 64//53
f 65//61 66//61 67//61
f 67//55 60//55 59//55
f 69//62 70//62 71//62
f 71//63 66//63 65//63
f 64//64 63//64 73//64
f 73//59 70//59 69//59
f 75//65 76//65 77//65
f 77//66 79//66 80//66
f 83//67 84//67 85//67
f 85//68 82//68 81//68
f 80//69 79//69 87//69
f 87//70 84//70 83//70
f 35//49 38//49 37//49
f 39//50 42//50 41//50
f 37//51 40//51 39//51
f 43//52 45//52 46//52
f 45//53 48//53 46//53
f 49//54 51//54 52//54
f 51//55 43//55 52//55
f 53//56 55//56 56//56
f 55//57 49//57 56//57
f 48//58 57//58 58//58
f 57//59 53//59 58//59
f 59//60 61//60 62//60
f 61//53 64//53 62//53
f 65//61 67//61 68//61
f 67//71 59//71 68//71
f 69//62 71//62 72//62
f 71//57 65//57 72//57
f 64//72 73//72 74//72
f 73//73 69//73 74//73
f 75//74 77//74 78//74
f 77//75 80//75 78//75
f 83//76 85//76 86//76
f 85//77 81//77 86//77
f 80//78 87//78 88//78
f 87//79 83//79 88//79
