# Blender v2.79 (sub 0) OBJ File: ''
# www.blender.org
mtllib m1726.mtl
o m1726
v 0.053361 0.073093 0.177502
v 0.039133 0.081162 0.172676
v 0.021061 0.076457 0.173537
v 0.035337 0.068578 0.178369
v 0.055209 0.053296 0.146443
v 0.038203 0.059113 0.136841
v 0.017497 0.057219 0.141813
v 0.034561 0.051659 0.151422
v 0.047837 0.017022 0.139053
v 0.028798 0.016255 0.128282
v 0.009005 0.021066 0.134285
v 0.028013 0.021694 0.145053
v 0.027201 0.034378 0.255864
v 0.017219 0.035701 0.263121
v 0.009014 0.036480 0.253629
v 0.019019 0.035206 0.246372
v 0.032981 0.053272 0.248664
v 0.022701 0.056277 0.254764
v 0.013426 0.055486 0.246260
v 0.023646 0.052281 0.240150
v 0.043533 0.069124 0.217741
v 0.031640 0.074878 0.219079
v 0.018403 0.071812 0.214658
v 0.030251 0.065908 0.213314
v -0.064582 0.073093 0.177502
v -0.050355 0.081162 0.172676
v -0.032283 0.076457 0.173537
v -0.046559 0.068578 0.178369
v -0.066431 0.053296 0.146443
v -0.049425 0.059113 0.136841
v -0.028716 0.057219 0.141813
v -0.045782 0.051659 0.151422
v -0.059059 0.017022 0.139053
v -0.040020 0.016255 0.128282
v -0.020223 0.021066 0.134285
v -0.039235 0.021694 0.145053
v -0.038422 0.034378 0.255864
v -0.028441 0.035701 0.263121
v -0.020236 0.036483 0.253629
v -0.030241 0.035206 0.246372
v -0.044203 0.053272 0.248664
v -0.033920 0.056277 0.254764
v -0.024648 0.055486 0.246260
v -0.034865 0.052281 0.240150
v -0.054752 0.069124 0.217741
v -0.042862 0.074878 0.219079
v -0.029625 0.071812 0.214658
v -0.041473 0.065908 0.213314
v 0.446649 -0.051908 0.480406
v 0.455009 -0.051908 -0.459984
v -0.466778 -0.051908 -0.459984
v -0.470956 -0.051908 0.480406
v 0.354637 -0.051908 0.485739
v 0.358913 -0.051908 -0.352571
v -0.372470 -0.051908 -0.352571
v -0.376746 -0.051908 0.490016
v 0.446649 0.034853 0.480406
v 0.455009 0.034853 -0.459984
v -0.466778 0.034856 -0.459984
v -0.470956 0.034856 0.480406
v 0.354637 0.034853 0.485739
v 0.358913 0.034853 -0.352571
v -0.372470 0.034856 -0.352571
v -0.376746 0.034856 0.490016
v 0.352532 -0.026099 0.481738
v 0.354613 -0.026099 -0.342063
v -0.000820 -0.026099 -0.342063
v -0.009255 -0.026099 0.473155
v 0.350415 0.009043 0.477501
v 0.352493 0.009043 -0.342063
v -0.002937 0.009043 -0.342063
v -0.005017 0.009043 0.471035
v -0.011948 -0.026099 0.481738
v -0.009868 -0.026099 -0.342063
v -0.365300 -0.026099 -0.342063
v -0.373735 -0.026099 0.473155
v -0.014066 0.009043 0.477501
v -0.011988 0.009043 -0.342063
v -0.367417 0.009043 -0.342063
v -0.369498 0.009043 0.471035
v 0.294236 0.026019 -0.263287
v 0.291765 0.026019 0.024822
v 0.052137 0.026019 0.024822
v 0.052137 0.026019 -0.263287
v 0.272002 0.026019 -0.238583
v 0.074371 0.026019 -0.238583
v 0.272002 0.026019 0.001043
v 0.074371 0.026019 0.001043
v 0.284354 0.060726 -0.250935
v 0.284354 0.060726 0.013395
v 0.062019 0.060726 0.013395
v 0.062019 0.060726 -0.250935
v -0.070245 0.026019 -0.263287
v -0.072715 0.026019 0.024822
v -0.312343 0.026019 0.024822
v -0.312343 0.026019 -0.263287
v -0.092479 0.026019 -0.238583
v -0.290109 0.026019 -0.238583
v -0.092479 0.026019 0.001043
v -0.290109 0.026019 0.001043
v -0.080127 0.060726 -0.250935
v -0.080127 0.060726 0.013395
v -0.302461 0.060726 0.013395
v -0.302461 0.060726 -0.250935
v -0.070245 0.026019 0.103001
v -0.072715 0.026019 0.391109
v -0.312343 0.026019 0.391109
v -0.312343 0.026019 0.103001
v -0.092479 0.026019 0.127705
v -0.290109 0.026019 0.127705
v -0.092479 0.026019 0.367332
v -0.290109 0.026019 0.367332
v -0.080127 0.060726 0.115352
v -0.080127 0.060726 0.379684
v -0.302461 0.060726 0.379684
v -0.302461 0.060726 0.115352
v 0.294236 0.026019 0.103001
v 0.291765 0.026019 0.391109
v 0.052137 0.026019 0.391109
v 0.052137 0.026019 0.103001
v 0.272002 0.026019 0.127705
v 0.074371 0.026019 0.127705
v 0.272002 0.026019 0.367332
v 0.074371 0.026019 0.367332
v 0.284354 0.060726 0.115352
v 0.284354 0.060726 0.379684
v 0.062019 0.060726 0.379684
v 0.062019 0.060726 0.115352
vn 0.5512 0.7042 -0.4476
vn 0.5037 0.7417 -0.4428
vn -0.2421 0.8414 -0.4831
vn -0.1990 0.8370 -0.5098
vn -0.5433 -0.7039 0.4576
vn -0.5064 -0.7109 0.4880
vn 0.2297 -0.8145 0.5328
vn 0.1910 -0.8338 0.5180
vn 0.5064 0.0606 -0.8602
vn 0.4885 0.0778 -0.8691
vn -0.2477 0.2529 -0.9352
vn -0.2283 0.2386 -0.9439
vn -0.5071 -0.0718 0.8589
vn -0.4902 -0.0658 0.8691
vn 0.2455 -0.2412 0.9389
vn 0.2262 -0.2496 0.9416
vn 0.5942 0.1617 0.7879
vn 0.5369 0.1520 0.8299
vn -0.6779 0.3972 0.6186
vn -0.6297 0.4304 0.6467
vn -0.5930 -0.1290 -0.7948
vn -0.5469 -0.1892 -0.8155
vn 0.6629 -0.4350 -0.6094
vn 0.6379 -0.4103 -0.6517
vn 0.5013 0.7094 0.4954
vn 0.4181 0.7425 0.5233
vn -0.4082 0.8357 0.3674
vn -0.3255 0.8694 0.3717
vn -0.5125 -0.7081 -0.4857
vn -0.4364 -0.7695 -0.4663
vn 0.3803 -0.8693 -0.3158
vn 0.3314 -0.8717 -0.3611
vn 0.4448 0.8752 0.1903
vn 0.4338 0.8802 0.1928
vn -0.2539 0.9628 0.0924
vn -0.2469 0.9648 0.0908
vn -0.4541 -0.8809 -0.1334
vn -0.4454 -0.8860 -0.1289
vn 0.2463 -0.9685 -0.0354
vn 0.2410 -0.9697 -0.0390
vn -0.5512 0.7042 -0.4476
vn -0.5037 0.7417 -0.4428
vn 0.2421 0.8415 -0.4831
vn 0.1989 0.8370 -0.5098
vn 0.5433 -0.7038 0.4576
vn 0.5064 -0.7109 0.4880
vn -0.2297 -0.8145 0.5328
vn -0.1910 -0.8338 0.5180
vn -0.5064 0.0606 -0.8602
vn -0.4885 0.0778 -0.8691
vn 0.2477 0.2529 -0.9352
vn 0.2282 0.2386 -0.9439
vn 0.5070 -0.0718 0.8589
vn 0.4901 -0.0658 0.8692
vn -0.2455 -0.2412 0.9389
vn -0.2262 -0.2495 0.9416
vn -0.5943 0.1617 0.7878
vn -0.5368 0.1520 0.8299
vn 0.6778 0.3973 0.6186
vn 0.6298 0.4303 0.6467
vn 0.5930 -0.1290 -0.7948
vn 0.5470 -0.1892 -0.8155
vn -0.6629 -0.4350 -0.6093
vn -0.6378 -0.4102 -0.6518
vn -0.5012 0.7095 0.4954
vn -0.4182 0.7425 0.5233
vn 0.4083 0.8357 0.3674
vn 0.3255 0.8694 0.3716
vn 0.5126 -0.7080 -0.4857
vn 0.4364 -0.7695 -0.4663
vn -0.3803 -0.8693 -0.3159
vn -0.3315 -0.8717 -0.3610
vn -0.4449 0.8751 0.1904
vn -0.4338 0.8801 0.1928
vn 0.2539 0.9628 0.0924
vn 0.2469 0.9648 0.0908
vn 0.4541 -0.8809 -0.1334
vn 0.4454 -0.8860 -0.1289
vn -0.2464 -0.9685 -0.0354
vn -0.2411 -0.9697 -0.0390
vn 0.0000 1.0000 -0.0000
vn 0.0000 -1.0000 -0.0000
vn 0.0000 0.0000 -1.0000
vn 0.0000 0.0000 1.0000
vn 0.0579 0.0000 0.9983
vn -1.0000 0.0000 -0.0051
vn 1.0000 0.0000 0.0051
vn -0.1015 0.0000 0.9948
vn -1.0000 0.0000 -0.0044
vn 1.0000 0.0000 0.0089
vn 0.9982 0.0604 0.0025
vn 0.9982 0.0602 0.0025
vn -0.9981 -0.0601 -0.0103
vn -0.9928 0.1196 -0.0025
vn 0.9982 0.0605 0.0025
vn 0.0000 0.3353 0.9421
vn 0.0000 0.3353 -0.9421
vn -0.9421 0.3353 0.0000
vn 0.9618 0.2738 0.0000
vn 0.9774 0.2115 0.0084
vn 0.0000 0.3127 0.9498
vn 0.9421 0.3353 0.0000
vn -0.9618 0.2738 0.0000
vn 0.9773 0.2115 0.0084
vn 0.0000 0.3127 0.9499
usemtl None
s off
f 1//1 6//1 2//1
f 1//2 5//2 6//2
f 2//3 7//3 3//3
f 2//4 6//4 7//4
f 3//5 8//5 4//5
f 3//6 7//6 8//6
f 4//7 5//7 1//7
f 4//8 8//8 5//8
f 5//9 10//9 6//9
f 5//10 9//10 10//10
f 6//11 11//11 7//11
f 6//12 10//12 11//12
f 7//13 12//13 8//13
f 7//14 11//14 12//14
f 8//15 9//15 5//15
f 8//16 12//16 9//16
f 13//17 18//17 14//17
f 13//18 17//18 18//18
f 14//19 19//19 15//19
f 14//20 18//20 19//20
f 15//21 20//21 16//21
f 15//22 19//22 20//22
f 16//23 17//23 13//23
f 16//24 20//24 17//24
f 17//25 22//25 18//25
f 17//26 21//26 22//26
f 18//27 23//27 19//27
f 18//28 22//28 23//28
f 19//29 24//29 20//29
f 19//30 23//30 24//30
f 20//31 21//31 17//31
f 20//32 24//32 21//32
f 21//33 2//33 22//33
f 21//34 1//34 2//34
f 22//35 3//35 23//35
f 22//36 2//36 3//36
f 23//37 4//37 24//37
f 23//38 3//38 4//38
f 24//39 1//39 21//39
f 24//40 4//40 1//40
f 26//41 30//41 25//41
f 30//42 29//42 25//42
f 27//43 31//43 26//43
f 31//44 30//44 26//44
f 28//45 32//45 27//45
f 32//46 31//46 27//46
f 25//47 29//47 28//47
f 29//48 32//48 28//48
f 30//49 34//49 29//49
f 34//50 33//50 29//50
f 31//51 35//51 30//51
f 35//52 34//52 30//52
f 32//53 36//53 31//53
f 36//54 35//54 31//54
f 29//55 33//55 32//55
f 33//56 36//56 32//56
f 38//57 42//57 37//57
f 42//58 41//58 37//58
f 39//59 43//59 38//59
f 43//60 42//60 38//60
f 40//61 44//61 39//61
f 44//62 43//62 39//62
f 37//63 41//63 40//63
f 41//64 44//64 40//64
f 42//65 46//65 41//65
f 46//66 45//66 41//66
f 43//67 47//67 42//67
f 47//68 46//68 42//68
f 44//69 48//69 43//69
f 48//70 47//70 43//70
f 41//71 45//71 44//71
f 45//72 48//72 44//72
f 46//73 26//73 45//73
f 26//74 25//74 45//74
f 47//75 27//75 46//75
f 27//76 26//76 46//76
f 48//77 28//77 47//77
f 28//78 27//78 47//78
f 45//79 25//79 48//79
f 25//80 28//80 48//80
f 59//81 63//81 58//81
f 58//81 63//81 62//81
f 49//82 53//82 54//82
f 61//81 57//81 62//81
f 60//81 64//81 63//81
f 63//81 59//81 60//81
f 58//81 62//81 57//81
f 50//83 51//83 59//83
f 59//83 58//83 50//83
f 55//84 54//84 62//84
f 62//84 63//84 55//84
f 53//85 49//85 57//85
f 57//85 61//85 53//85
f 54//86 53//86 61//86
f 61//86 62//86 54//86
f 56//87 55//87 63//87
f 63//87 64//87 56//87
f 52//88 56//88 64//88
f 64//88 60//88 52//88
f 51//89 52//89 60//89
f 60//89 59//89 51//89
f 49//90 50//90 58//90
f 58//90 57//90 49//90
f 67//83 70//83 66//83
f 70//83 67//83 71//83
f 66//91 69//91 65//91
f 69//92 66//92 70//92
f 68//93 71//93 67//93
f 71//94 68//94 72//94
f 67//82 65//82 68//82
f 66//82 65//82 67//82
f 75//83 78//83 74//83
f 78//83 75//83 79//83
f 74//95 77//95 73//95
f 77//92 74//92 78//92
f 76//93 79//93 75//93
f 79//94 76//94 80//94
f 75//82 73//82 76//82
f 74//82 73//82 75//82
f 89//96 86//96 85//96
f 92//96 86//96 89//96
f 81//97 84//97 89//97
f 84//97 92//97 89//97
f 89//98 85//98 87//98
f 90//98 89//98 87//98
f 81//99 89//99 90//99
f 90//100 82//100 81//100
f 90//101 83//101 82//101
f 91//101 83//101 90//101
f 87//97 91//97 90//97
f 88//97 91//97 87//97
f 86//102 92//102 88//102
f 92//102 91//102 88//102
f 92//103 84//103 91//103
f 84//103 83//103 91//103
f 101//96 98//96 97//96
f 104//96 98//96 101//96
f 93//97 96//97 101//97
f 96//97 104//97 101//97
f 101//98 97//98 99//98
f 102//98 101//98 99//98
f 93//99 101//99 102//99
f 102//104 94//104 93//104
f 102//101 95//101 94//101
f 103//101 95//101 102//101
f 99//97 103//97 102//97
f 100//97 103//97 99//97
f 98//102 104//102 100//102
f 104//102 103//102 100//102
f 104//103 96//103 103//103
f 96//103 95//103 103//103
f 113//96 110//96 109//96
f 116//96 110//96 113//96
f 105//97 108//97 113//97
f 108//97 116//97 113//97
f 113//98 109//98 111//98
f 114//98 113//98 111//98
f 105//99 113//99 114//99
f 114//104 106//104 105//104
f 114//105 107//105 106//105
f 115//105 107//105 114//105
f 111//97 115//97 114//97
f 112//97 115//97 111//97
f 110//102 116//102 112//102
f 116//102 115//102 112//102
f 116//103 108//103 115//103
f 108//103 107//103 115//103
f 125//96 122//96 121//96
f 128//96 122//96 125//96
f 117//97 120//97 125//97
f 120//97 128//97 125//97
f 125//98 121//98 123//98
f 126//98 125//98 123//98
f 117//99 125//99 126//99
f 126//100 118//100 117//100
f 126//105 119//105 118//105
f 127//105 119//105 126//105
f 123//97 127//97 126//97
f 124//97 127//97 123//97
f 122//102 128//102 124//102
f 128//102 127//102 124//102
f 128//103 120//103 127//103
f 120//103 119//103 127//103
