# Blender v2.79 (sub 0) OBJ File: ''
# www.blender.org
mtllib m1724.mtl
o m1724
v -0.274096 0.000807 0.507937
v -0.005569 0.000807 0.507937
v -0.005569 0.000807 0.033539
v -0.274096 0.000807 0.033539
v -0.274096 0.027660 0.507937
v -0.005569 0.027660 0.507937
v -0.005569 0.027660 0.033539
v -0.274096 0.027660 0.033539
v 0.003382 0.000807 0.507937
v 0.003382 0.000807 0.033539
v 0.003382 0.027660 0.507937
v 0.003382 0.027660 0.033539
v -0.291998 0.000807 0.507937
v -0.291998 0.000807 0.033539
v -0.291998 0.027660 0.507937
v -0.291998 0.027660 0.033539
v -0.229341 -0.007961 -0.055389
v -0.050323 -0.007961 -0.055389
v -0.050323 -0.040387 -0.348984
v -0.229341 -0.040387 -0.348984
v -0.229341 0.018730 -0.058337
v -0.050323 0.018730 -0.058337
v -0.050323 -0.013697 -0.351932
v -0.229341 -0.013697 -0.351932
v -0.274096 0.001865 0.033579
v -0.229341 0.001865 0.033579
v -0.229341 -0.050213 -0.437952
v -0.274096 -0.050213 -0.437952
v -0.274096 0.028556 0.030631
v -0.229341 0.028556 0.030631
v -0.229341 -0.023523 -0.440900
v -0.274096 -0.023523 -0.440900
v -0.050323 0.001865 0.033579
v -0.005569 0.001865 0.033579
v -0.005569 -0.050213 -0.437952
v -0.050323 -0.050213 -0.437952
v -0.050323 0.028556 0.030631
v -0.005569 0.028556 0.030631
v -0.005569 -0.023523 -0.440900
v -0.050323 -0.023523 -0.440900
v -0.274096 -0.039848 -0.350147
v -0.005569 -0.039848 -0.350147
v -0.005569 -0.049674 -0.439115
v -0.274096 -0.049674 -0.439115
v -0.274096 -0.013158 -0.353095
v -0.005569 -0.013158 -0.353095
v -0.005569 -0.022984 -0.442063
v -0.274096 -0.022984 -0.442063
v -0.274096 0.002221 0.034742
v -0.005569 0.002221 0.034742
v -0.005569 -0.007605 -0.054226
v -0.274096 -0.007605 -0.054226
v -0.274096 0.028912 0.031794
v -0.005569 0.028912 0.031794
v -0.005569 0.019086 -0.057174
v -0.274096 0.019086 -0.057174
v 0.003382 0.001865 0.033579
v 0.003382 -0.050213 -0.437952
v 0.003382 0.028556 0.030631
v 0.003382 -0.023523 -0.440900
v -0.265145 0.001865 0.033579
v -0.265145 -0.050213 -0.437952
v -0.265145 0.028556 0.030631
v -0.265145 -0.023523 -0.440900
v -0.291998 0.001865 0.033579
v -0.291998 -0.050213 -0.437952
v -0.291998 0.028556 0.030631
v -0.291998 -0.023523 -0.440900
v 0.012333 0.000807 0.507937
v 0.280860 0.000807 0.507937
v 0.280860 0.000807 0.033539
v 0.012333 0.000807 0.033539
v 0.012333 0.027660 0.507937
v 0.280860 0.027660 0.507937
v 0.280860 0.027660 0.033539
v 0.012333 0.027660 0.033539
v 0.298762 0.000807 0.507937
v 0.298762 0.000807 0.033539
v 0.298762 0.027660 0.507937
v 0.298762 0.027660 0.033539
v 0.057088 -0.007961 -0.055389
v 0.236106 -0.007961 -0.055389
v 0.236106 -0.040387 -0.348984
v 0.057088 -0.040387 -0.348984
v 0.057088 0.018730 -0.058337
v 0.236106 0.018730 -0.058337
v 0.236106 -0.013697 -0.351932
v 0.057088 -0.013697 -0.351932
v 0.236106 0.001865 0.033579
v 0.280860 0.001865 0.033579
v 0.280860 -0.050213 -0.437952
v 0.236106 -0.050213 -0.437952
v 0.236106 0.028556 0.030631
v 0.280860 0.028556 0.030631
v 0.280860 -0.023523 -0.440900
v 0.236106 -0.023523 -0.440900
v 0.012333 0.001865 0.033579
v 0.057088 0.001865 0.033579
v 0.057088 -0.050213 -0.437952
v 0.012333 -0.050213 -0.437952
v 0.012333 0.028556 0.030631
v 0.057088 0.028556 0.030631
v 0.057088 -0.023523 -0.440900
v 0.012333 -0.023523 -0.440900
v 0.012333 -0.039848 -0.350147
v 0.280860 -0.039848 -0.350147
v 0.280860 -0.049674 -0.439115
v 0.012333 -0.049674 -0.439115
v 0.012333 -0.013158 -0.353095
v 0.280860 -0.013158 -0.353095
v 0.280860 -0.022984 -0.442063
v 0.012333 -0.022984 -0.442063
v 0.012333 0.002221 0.034742
v 0.280860 0.002221 0.034742
v 0.280860 -0.007605 -0.054226
v 0.012333 -0.007605 -0.054226
v 0.012333 0.028912 0.031794
v 0.280860 0.028912 0.031794
v 0.280860 0.019086 -0.057174
v 0.012333 0.019086 -0.057174
v 0.298762 0.001865 0.033579
v 0.298762 -0.050213 -0.437952
v 0.298762 0.028556 0.030631
v 0.298762 -0.023523 -0.440900
vn 0.0000 -1.0000 0.0000
vn 0.0000 0.0000 1.0000
vn -1.0000 0.0000 0.0000
vn 0.0000 0.0000 -1.0000
vn 0.0000 1.0000 0.0000
vn 1.0000 0.0000 0.0000
vn 0.0000 -0.9940 0.1098
vn 0.0000 0.1098 0.9940
vn 0.0000 -0.1098 -0.9940
vn 0.0000 0.9940 -0.1098
usemtl None
s off
f 1//1 4//1 2//1
f 2//1 4//1 3//1
f 1//2 6//2 5//2
f 1//2 2//2 6//2
f 1//3 5//3 4//3
f 4//3 5//3 8//3
f 4//4 8//4 7//4
f 4//4 7//4 3//4
f 2//3 6//3 7//3
f 2//3 7//3 3//3
f 6//5 8//5 5//5
f 6//5 7//5 8//5
f 2//1 3//1 9//1
f 9//1 3//1 10//1
f 2//2 11//2 6//2
f 2//2 9//2 11//2
f 2//3 6//3 3//3
f 3//3 6//3 7//3
f 3//4 7//4 12//4
f 3//4 12//4 10//4
f 9//6 12//6 11//6
f 9//6 10//6 12//6
f 11//5 7//5 6//5
f 11//5 12//5 7//5
f 13//1 14//1 1//1
f 1//1 14//1 4//1
f 13//2 5//2 15//2
f 13//2 1//2 5//2
f 13//3 15//3 14//3
f 14//3 15//3 16//3
f 14//4 16//4 8//4
f 14//4 8//4 4//4
f 1//3 5//3 8//3
f 1//3 8//3 4//3
f 5//5 16//5 15//5
f 5//5 8//5 16//5
f 17//7 20//7 18//7
f 18//7 20//7 19//7
f 17//8 22//8 21//8
f 17//8 18//8 22//8
f 17//3 21//3 20//3
f 20//3 21//3 24//3
f 20//9 24//9 23//9
f 20//9 23//9 19//9
f 18//6 23//6 22//6
f 18//6 19//6 23//6
f 22//10 24//10 21//10
f 22//10 23//10 24//10
f 25//7 28//7 26//7
f 26//7 28//7 27//7
f 25//8 30//8 29//8
f 25//8 26//8 30//8
f 28//9 32//9 31//9
f 28//9 31//9 27//9
f 26//6 31//6 30//6
f 26//6 27//6 31//6
f 30//10 32//10 29//10
f 30//10 31//10 32//10
f 33//7 36//7 34//7
f 34//7 36//7 35//7
f 33//8 38//8 37//8
f 33//8 34//8 38//8
f 33//3 37//3 36//3
f 36//3 37//3 40//3
f 36//9 40//9 39//9
f 36//9 39//9 35//9
f 34//3 38//3 39//3
f 34//3 39//3 35//3
f 38//10 40//10 37//10
f 38//10 39//10 40//10
f 41//7 44//7 42//7
f 42//7 44//7 43//7
f 41//8 46//8 45//8
f 41//8 42//8 46//8
f 41//3 45//3 44//3
f 44//3 45//3 48//3
f 44//9 48//9 47//9
f 44//9 47//9 43//9
f 42//6 47//6 46//6
f 42//6 43//6 47//6
f 46//10 48//10 45//10
f 46//10 47//10 48//10
f 49//7 52//7 50//7
f 50//7 52//7 51//7
f 49//8 54//8 53//8
f 49//8 50//8 54//8
f 49//3 53//3 52//3
f 52//3 53//3 56//3
f 52//9 56//9 55//9
f 52//9 55//9 51//9
f 50//6 55//6 54//6
f 50//6 51//6 55//6
f 54//10 56//10 53//10
f 54//10 55//10 56//10
f 34//7 35//7 57//7
f 57//7 35//7 58//7
f 34//8 59//8 38//8
f 34//8 57//8 59//8
f 34//3 38//3 35//3
f 35//3 38//3 39//3
f 35//9 39//9 60//9
f 35//9 60//9 58//9
f 57//6 60//6 59//6
f 57//6 58//6 60//6
f 59//10 39//10 38//10
f 59//10 60//10 39//10
f 25//7 28//7 61//7
f 61//7 28//7 62//7
f 25//8 63//8 29//8
f 25//8 61//8 63//8
f 25//3 29//3 28//3
f 28//3 29//3 32//3
f 28//9 32//9 64//9
f 28//9 64//9 62//9
f 61//6 64//6 63//6
f 61//6 62//6 64//6
f 63//10 32//10 29//10
f 63//10 64//10 32//10
f 65//7 66//7 25//7
f 25//7 66//7 28//7
f 65//8 29//8 67//8
f 65//8 25//8 29//8
f 65//3 67//3 66//3
f 66//3 67//3 68//3
f 66//9 68//9 32//9
f 66//9 32//9 28//9
f 25//3 29//3 32//3
f 25//3 32//3 28//3
f 29//10 68//10 67//10
f 29//10 32//10 68//10
f 69//1 72//1 70//1
f 70//1 72//1 71//1
f 69//2 74//2 73//2
f 69//2 70//2 74//2
f 69//6 72//6 73//6
f 72//6 76//6 73//6
f 72//4 76//4 75//4
f 72//4 75//4 71//4
f 70//6 75//6 74//6
f 70//6 71//6 75//6
f 74//5 76//5 73//5
f 74//5 75//5 76//5
f 9//1 10//1 69//1
f 69//1 10//1 72//1
f 9//2 73//2 11//2
f 9//2 69//2 73//2
f 9//6 10//6 11//6
f 10//6 12//6 11//6
f 10//4 12//4 76//4
f 10//4 76//4 72//4
f 69//6 76//6 73//6
f 69//6 72//6 76//6
f 73//5 12//5 11//5
f 73//5 76//5 12//5
f 70//1 71//1 77//1
f 77//1 71//1 78//1
f 70//2 79//2 74//2
f 70//2 77//2 79//2
f 70//6 71//6 74//6
f 71//6 75//6 74//6
f 71//4 75//4 80//4
f 71//4 80//4 78//4
f 77//6 80//6 79//6
f 77//6 78//6 80//6
f 79//5 75//5 74//5
f 79//5 80//5 75//5
f 81//7 84//7 82//7
f 82//7 84//7 83//7
f 81//8 86//8 85//8
f 81//8 82//8 86//8
f 81//3 85//3 84//3
f 84//3 85//3 88//3
f 84//9 88//9 87//9
f 84//9 87//9 83//9
f 82//6 87//6 86//6
f 82//6 83//6 87//6
f 86//10 88//10 85//10
f 86//10 87//10 88//10
f 89//7 92//7 90//7
f 90//7 92//7 91//7
f 89//8 94//8 93//8
f 89//8 90//8 94//8
f 89//3 93//3 92//3
f 92//3 93//3 96//3
f 92//9 96//9 95//9
f 92//9 95//9 91//9
f 90//6 95//6 94//6
f 90//6 91//6 95//6
f 94//10 96//10 93//10
f 94//10 95//10 96//10
f 97//7 100//7 98//7
f 98//7 100//7 99//7
f 97//8 102//8 101//8
f 97//8 98//8 102//8
f 97//6 100//6 101//6
f 100//6 104//6 101//6
f 100//9 104//9 103//9
f 100//9 103//9 99//9
f 98//6 103//6 102//6
f 98//6 99//6 103//6
f 102//10 104//10 101//10
f 102//10 103//10 104//10
f 105//7 108//7 106//7
f 106//7 108//7 107//7
f 105//8 110//8 109//8
f 105//8 106//8 110//8
f 105//3 109//3 108//3
f 108//3 109//3 112//3
f 108//9 112//9 111//9
f 108//9 111//9 107//9
f 106//6 111//6 110//6
f 106//6 107//6 111//6
f 110//10 112//10 109//10
f 110//10 111//10 112//10
f 113//7 116//7 114//7
f 114//7 116//7 115//7
f 113//8 118//8 117//8
f 113//8 114//8 118//8
f 113//3 117//3 116//3
f 116//3 117//3 120//3
f 116//9 120//9 119//9
f 116//9 119//9 115//9
f 114//6 119//6 118//6
f 114//6 115//6 119//6
f 118//10 120//10 117//10
f 118//10 119//10 120//10
f 57//7 58//7 97//7
f 97//7 58//7 100//7
f 57//8 101//8 59//8
f 57//8 97//8 101//8
f 57//6 58//6 59//6
f 58//6 60//6 59//6
f 58//9 60//9 104//9
f 58//9 104//9 100//9
f 97//6 104//6 101//6
f 97//6 100//6 104//6
f 101//10 60//10 59//10
f 101//10 104//10 60//10
f 90//7 91//7 121//7
f 121//7 91//7 122//7
f 90//8 123//8 94//8
f 90//8 121//8 123//8
f 90//6 91//6 94//6
f 91//6 95//6 94//6
f 91//9 95//9 124//9
f 91//9 124//9 122//9
f 121//6 124//6 123//6
f 121//6 122//6 124//6
f 123//10 95//10 94//10
f 123//10 124//10 95//10
