# Blender v2.79 (sub 0) OBJ File: ''
# www.blender.org
mtllib m1732.mtl
o m1732
v 0.146304 -0.010060 -0.436752
v 0.595367 -0.010060 -0.436752
v 0.595367 -0.010060 0.353292
v 0.146304 -0.010060 0.353292
v 0.173467 -0.010060 -0.420097
v 0.173467 -0.010060 0.331998
v 0.572053 -0.010060 0.331998
v 0.572053 -0.010060 -0.420097
v 0.146304 -0.024673 -0.436752
v 0.595367 -0.024673 -0.436752
v 0.595367 -0.024673 0.353292
v 0.146304 -0.024673 0.353292
v 0.173467 -0.024673 -0.420097
v 0.173467 -0.024673 0.331998
v 0.572053 -0.024673 0.331998
v 0.572053 -0.024673 -0.420097
v 0.146304 -0.024382 -0.436752
v 0.595367 -0.024382 -0.436752
v 0.595367 -0.024382 0.353292
v 0.146304 -0.024382 0.353292
v 0.173467 -0.024382 -0.420097
v 0.173467 -0.024382 0.331998
v 0.572053 -0.024382 0.331998
v 0.572053 -0.024382 -0.420097
v 0.146304 -0.038994 -0.436752
v 0.595367 -0.038994 -0.436752
v 0.595367 -0.038994 0.353292
v 0.146304 -0.038994 0.353292
v 0.173467 -0.038994 -0.420097
v 0.173467 -0.038994 0.331998
v 0.572053 -0.038994 0.331998
v 0.572053 -0.038994 -0.420097
v 0.158731 -0.016610 0.342042
v 0.585410 -0.016610 0.342042
v 0.585410 -0.016610 -0.428610
v 0.158731 -0.016610 -0.428610
v 0.158731 -0.032360 0.342042
v 0.585410 -0.032360 0.342042
v 0.585410 -0.032360 -0.428610
v 0.158731 -0.032360 -0.428610
v -0.205340 0.006179 -0.436752
v 0.254062 0.006179 -0.436752
v 0.254062 0.006179 0.353292
v -0.205340 0.006179 0.353292
v -0.154308 0.006179 -0.420097
v -0.154308 0.006179 0.331998
v 0.230746 0.006179 0.331998
v 0.230746 0.006179 -0.420097
v -0.205340 -0.008433 -0.436752
v 0.254062 -0.008433 -0.436752
v 0.254062 -0.008433 0.353292
v -0.205340 -0.008433 0.353292
v -0.154308 -0.008433 -0.420097
v -0.154308 -0.008433 0.331998
v 0.230746 -0.008433 0.331998
v 0.230746 -0.008433 -0.420097
v -0.205340 0.020500 -0.436752
v 0.254062 0.020500 -0.436752
v 0.254062 0.020500 0.353292
v -0.205340 0.020500 0.353292
v -0.154308 0.020500 -0.420097
v -0.154308 0.020500 0.331998
v 0.230746 0.020500 0.331998
v 0.230746 0.020500 -0.420097
v -0.205340 0.005888 -0.436752
v 0.254062 0.005888 -0.436752
v 0.254062 0.005888 0.353292
v -0.205340 0.005888 0.353292
v -0.154308 0.005888 -0.420097
v -0.154308 0.005888 0.331998
v 0.230746 0.005888 0.331998
v 0.230746 0.005888 -0.420097
v -0.178065 0.013951 0.342042
v 0.244103 0.013951 0.342042
v 0.244103 0.013951 -0.428610
v -0.178065 0.013951 -0.428610
v -0.178065 -0.001799 0.342042
v 0.244103 -0.001799 0.342042
v 0.244103 -0.001799 -0.428610
v -0.178065 -0.001799 -0.428610
v -0.202708 0.018746 0.030232
v -0.195916 0.018746 0.030232
v -0.195889 0.019183 0.030232
v -0.195747 0.020337 0.030232
v -0.195388 0.021967 0.030232
v -0.194716 0.023836 0.030232
v -0.193633 0.025704 0.030232
v -0.192039 0.027334 0.030232
v -0.189837 0.028488 0.030232
v -0.186929 0.028925 0.030232
v -0.183372 0.028925 0.030232
v -0.179460 0.028925 0.030232
v -0.175447 0.028925 0.030232
v -0.171592 0.028925 0.030232
v -0.168148 0.028925 0.030232
v -0.165372 0.028925 0.030232
v -0.163519 0.028925 0.030232
v -0.162845 0.028925 0.030232
v -0.161728 0.029549 0.030232
v -0.160933 0.030724 0.030232
v -0.160458 0.032268 0.030232
v -0.160302 0.033996 0.030232
v -0.160464 0.035727 0.030232
v -0.160943 0.037277 0.030232
v -0.161736 0.038463 0.030232
v -0.162845 0.039103 0.030232
v -0.162769 0.039103 0.030232
v -0.162762 0.039103 0.030232
v -0.163148 0.039103 0.030232
v -0.164251 0.039103 0.030232
v -0.166401 0.039103 0.030232
v -0.169921 0.039103 0.030232
v -0.175136 0.039103 0.030232
v -0.182374 0.039103 0.030232
v -0.189646 0.038495 0.030232
v -0.194953 0.036834 0.030232
v -0.198602 0.034372 0.030232
v -0.200899 0.031356 0.030232
v -0.202151 0.028037 0.030232
v -0.202665 0.024662 0.030232
v -0.202748 0.021482 0.030232
v -0.202708 0.018746 -0.074505
v -0.195916 0.018746 -0.074505
v -0.195889 0.019183 -0.074505
v -0.195747 0.020336 -0.074505
v -0.195388 0.021967 -0.074505
v -0.194716 0.023836 -0.074505
v -0.193633 0.025704 -0.074505
v -0.192039 0.027334 -0.074505
v -0.189837 0.028488 -0.074505
v -0.186929 0.028925 -0.074505
v -0.183372 0.028925 -0.074505
v -0.179460 0.028925 -0.074505
v -0.175448 0.028925 -0.074505
v -0.171592 0.028925 -0.074505
v -0.168148 0.028925 -0.074505
v -0.165372 0.028925 -0.074505
v -0.163519 0.028925 -0.074505
v -0.162845 0.028925 -0.074505
v -0.161728 0.029549 -0.074505
v -0.160933 0.030724 -0.074505
v -0.160458 0.032268 -0.074505
v -0.160302 0.033996 -0.074505
v -0.160464 0.035727 -0.074505
v -0.160943 0.037277 -0.074505
v -0.161736 0.038463 -0.074505
v -0.162845 0.039103 -0.074505
v -0.162769 0.039103 -0.074505
v -0.162762 0.039103 -0.074505
v -0.163148 0.039103 -0.074505
v -0.164251 0.039103 -0.074505
v -0.166401 0.039103 -0.074505
v -0.169921 0.039103 -0.074505
v -0.175136 0.039103 -0.074505
v -0.182374 0.039103 -0.074505
v -0.189646 0.038495 -0.074505
v -0.194953 0.036834 -0.074505
v -0.198602 0.034372 -0.074505
v -0.200899 0.031356 -0.074505
v -0.202151 0.028037 -0.074505
v -0.202665 0.024662 -0.074505
v -0.202748 0.021482 -0.074505
v -0.202708 -0.007532 0.030232
v -0.195916 -0.007532 0.030232
v -0.195889 -0.007970 0.030232
v -0.195747 -0.009123 0.030232
v -0.195388 -0.010753 0.030232
v -0.194716 -0.012622 0.030232
v -0.193633 -0.014491 0.030232
v -0.192039 -0.016121 0.030232
v -0.189837 -0.017274 0.030232
v -0.186929 -0.017711 0.030232
v -0.183372 -0.017711 0.030232
v -0.179460 -0.017711 0.030232
v -0.175447 -0.017711 0.030232
v -0.171592 -0.017711 0.030232
v -0.168148 -0.017711 0.030232
v -0.165372 -0.017711 0.030232
v -0.163519 -0.017711 0.030232
v -0.162845 -0.017711 0.030232
v -0.161728 -0.018335 0.030232
v -0.160933 -0.019511 0.030232
v -0.160458 -0.021054 0.030232
v -0.160302 -0.022783 0.030232
v -0.160464 -0.024513 0.030232
v -0.160943 -0.026064 0.030232
v -0.161736 -0.027250 0.030232
v -0.162845 -0.027890 0.030232
v -0.162769 -0.027890 0.030232
v -0.162762 -0.027890 0.030232
v -0.163148 -0.027890 0.030232
v -0.164251 -0.027890 0.030232
v -0.166401 -0.027890 0.030232
v -0.169921 -0.027890 0.030232
v -0.175136 -0.027890 0.030232
v -0.182374 -0.027890 0.030232
v -0.189646 -0.027281 0.030232
v -0.194953 -0.025621 0.030232
v -0.198602 -0.023158 0.030232
v -0.200899 -0.020143 0.030232
v -0.202151 -0.016823 0.030232
v -0.202665 -0.013449 0.030232
v -0.202748 -0.010269 0.030232
v -0.202708 -0.007532 -0.074505
v -0.195916 -0.007532 -0.074505
v -0.195889 -0.007970 -0.074505
v -0.195747 -0.009123 -0.074505
v -0.195388 -0.010753 -0.074505
v -0.194716 -0.012622 -0.074505
v -0.193633 -0.014491 -0.074505
v -0.192039 -0.016121 -0.074505
v -0.189837 -0.017274 -0.074505
v -0.186929 -0.017711 -0.074505
v -0.183372 -0.017711 -0.074505
v -0.179460 -0.017711 -0.074505
v -0.175448 -0.017711 -0.074505
v -0.171592 -0.017711 -0.074505
v -0.168148 -0.017711 -0.074505
v -0.165372 -0.017711 -0.074505
v -0.163519 -0.017711 -0.074505
v -0.162845 -0.017711 -0.074505
v -0.161728 -0.018335 -0.074505
v -0.160933 -0.019511 -0.074505
v -0.160458 -0.021054 -0.074505
v -0.160302 -0.022783 -0.074505
v -0.160464 -0.024513 -0.074505
v -0.160943 -0.026064 -0.074505
v -0.161736 -0.027250 -0.074505
v -0.162845 -0.027890 -0.074505
v -0.162769 -0.027890 -0.074505
v -0.162762 -0.027890 -0.074505
v -0.163148 -0.027890 -0.074505
v -0.164251 -0.027890 -0.074505
v -0.166401 -0.027890 -0.074505
v -0.169921 -0.027890 -0.074505
v -0.175136 -0.027890 -0.074505
v -0.182374 -0.027890 -0.074505
v -0.189646 -0.027281 -0.074505
v -0.194953 -0.025621 -0.074505
v -0.198602 -0.023158 -0.074505
v -0.200899 -0.020143 -0.074505
v -0.202151 -0.016823 -0.074505
v -0.202665 -0.013449 -0.074505
v -0.202748 -0.010269 -0.074505
v -0.224258 0.022452 -0.451999
v 0.697069 0.022452 -0.451999
v 0.697069 0.022452 0.374709
v -0.224258 0.022452 0.374709
v -0.205136 0.022452 -0.438514
v -0.205136 0.022452 0.355334
v 0.678931 0.022452 0.355334
v 0.678931 0.022452 -0.438514
v -0.224258 -0.040905 -0.451999
v 0.697069 -0.040905 -0.451999
v 0.697069 -0.040905 0.374709
v -0.224258 -0.040905 0.374709
v -0.205136 -0.040905 -0.438514
v -0.205136 -0.040905 0.355334
v 0.678931 -0.040905 0.355334
v 0.678931 -0.040905 -0.438514
v -0.208899 -0.040034 0.355815
v -0.208899 -0.040034 0.339104
v -0.208899 -0.039199 0.339104
v -0.208899 -0.039199 0.353836
v -0.208899 -0.009955 0.353836
v -0.208899 -0.009955 0.339104
v -0.208899 -0.008701 0.339104
v -0.208899 -0.008701 0.353836
v -0.208899 0.020542 0.353836
v -0.208899 0.020542 0.339104
v -0.208899 0.021587 0.339104
v -0.208899 0.021587 0.355815
v 0.679509 -0.040034 0.355815
v 0.679509 -0.040034 0.339104
v 0.679509 -0.039199 0.339104
v 0.679509 -0.039199 0.353836
v 0.679509 -0.009955 0.353836
v 0.679509 -0.009955 0.339104
v 0.679509 -0.008701 0.339104
v 0.679509 -0.008701 0.353836
v 0.679509 0.020543 0.353836
v 0.679509 0.020543 0.339104
v 0.679509 0.021587 0.339104
v 0.679509 0.021587 0.355815
v -0.238595 0.019193 -0.463288
v 0.711406 0.019193 -0.463288
v 0.711406 0.019193 0.385998
v -0.238595 0.019193 0.385998
v -0.225857 0.019193 -0.451373
v -0.225857 0.019193 0.375335
v 0.700116 0.019193 0.375335
v 0.700116 0.019193 -0.451373
v -0.238595 0.004581 -0.463288
v 0.711406 0.004581 -0.463288
v 0.711406 0.004581 0.385998
v -0.238595 0.004581 0.385998
v -0.225857 0.004581 -0.451373
v -0.225857 0.004581 0.375335
v 0.700116 0.004581 0.375335
v 0.700116 0.004581 -0.451373
vn 0.0000 1.0000 -0.0000
vn 0.0000 0.0000 -1.0000
vn 1.0000 0.0000 0.0000
vn 0.0000 0.0000 1.0000
vn -1.0000 0.0000 0.0000
vn 0.0000 -1.0000 0.0000
vn 0.9982 -0.0600 0.0000
vn 0.9982 -0.0601 0.0000
vn 0.9925 -0.1223 0.0000
vn 0.9766 -0.2149 0.0000
vn 0.9410 -0.3385 0.0000
vn 0.8651 -0.5016 0.0000
vn 0.7151 -0.6990 0.0000
vn 0.4639 -0.8859 0.0000
vn 0.1487 -0.9889 0.0000
vn 0.4878 -0.8730 0.0000
vn 0.8283 -0.5603 0.0000
vn 0.9558 -0.2941 0.0000
vn 0.9960 -0.0899 0.0000
vn 0.9956 0.0932 0.0000
vn 0.9554 0.2953 0.0000
vn 0.9554 0.2952 0.0000
vn 0.8313 0.5558 0.0000
vn 0.4998 0.8661 0.0000
vn -0.0833 0.9965 0.0000
vn -0.2987 0.9543 0.0000
vn -0.5593 0.8289 0.0000
vn -0.7955 0.6059 0.0000
vn -0.9357 0.3529 0.0000
vn -0.9886 0.1506 0.0000
vn -0.9997 0.0263 0.0000
vn -0.9999 -0.0148 0.0000
vn 0.9982 0.0600 0.0000
vn 0.9982 0.0601 0.0000
vn 0.9925 0.1223 0.0000
vn 0.9766 0.2149 0.0000
vn 0.9766 0.2150 0.0000
vn 0.9410 0.3385 0.0000
vn 0.8651 0.5016 0.0000
vn 0.7151 0.6991 0.0000
vn 0.4639 0.8859 0.0000
vn 0.1487 0.9889 0.0000
vn 0.4878 0.8729 0.0000
vn 0.8283 0.5603 0.0000
vn 0.9558 0.2941 0.0000
vn 0.9558 0.2942 0.0000
vn 0.9960 0.0899 0.0000
vn 0.9956 -0.0932 -0.0000
vn 0.9554 -0.2953 0.0000
vn 0.9554 -0.2952 -0.0000
vn 0.8314 -0.5556 0.0000
vn 0.4998 -0.8662 0.0000
vn -0.0834 -0.9965 0.0000
vn -0.2986 -0.9544 0.0000
vn -0.5594 -0.8289 0.0000
vn -0.7955 -0.6060 -0.0000
vn -0.7955 -0.6059 0.0000
vn -0.9357 -0.3529 0.0000
vn -0.9886 -0.1506 0.0000
vn -0.9997 -0.0263 0.0000
vn -0.9999 0.0148 0.0000
usemtl None
s off
f 2//1 1//1 5//1
f 2//1 5//1 8//1
f 3//1 2//1 8//1
f 3//1 8//1 7//1
f 4//1 3//1 7//1
f 4//1 7//1 6//1
f 1//1 4//1 6//1
f 1//1 6//1 5//1
f 1//2 2//2 10//2
f 1//2 10//2 9//2
f 2//3 3//3 11//3
f 2//3 11//3 10//3
f 3//4 4//4 12//4
f 3//4 12//4 11//4
f 4//5 1//5 9//5
f 4//5 9//5 12//5
f 5//3 6//3 14//3
f 5//3 14//3 13//3
f 6//2 7//2 15//2
f 6//2 15//2 14//2
f 7//5 8//5 16//5
f 7//5 16//5 15//5
f 8//4 5//4 13//4
f 8//4 13//4 16//4
f 13//6 9//6 10//6
f 16//6 13//6 10//6
f 16//6 10//6 11//6
f 15//6 16//6 11//6
f 15//6 11//6 12//6
f 14//6 15//6 12//6
f 14//6 12//6 9//6
f 13//6 14//6 9//6
f 18//1 17//1 21//1
f 18//1 21//1 24//1
f 19//1 18//1 24//1
f 19//1 24//1 23//1
f 20//1 19//1 23//1
f 20//1 23//1 22//1
f 17//1 20//1 22//1
f 17//1 22//1 21//1
f 17//2 18//2 26//2
f 17//2 26//2 25//2
f 18//3 19//3 27//3
f 18//3 27//3 26//3
f 19//4 20//4 28//4
f 19//4 28//4 27//4
f 20//5 17//5 25//5
f 20//5 25//5 28//5
f 21//3 22//3 30//3
f 21//3 30//3 29//3
f 22//2 23//2 31//2
f 22//2 31//2 30//2
f 23//5 24//5 32//5
f 23//5 32//5 31//5
f 24//4 21//4 29//4
f 24//4 29//4 32//4
f 29//6 25//6 26//6
f 32//6 29//6 26//6
f 32//6 26//6 27//6
f 31//6 32//6 27//6
f 31//6 27//6 28//6
f 30//6 31//6 28//6
f 30//6 28//6 25//6
f 29//6 30//6 25//6
f 33//1 34//1 35//1
f 33//1 35//1 36//1
f 33//4 37//4 38//4
f 33//4 38//4 34//4
f 34//3 38//3 39//3
f 34//3 39//3 35//3
f 35//2 39//2 40//2
f 35//2 40//2 36//2
f 36//5 40//5 37//5
f 36//5 37//5 33//5
f 37//6 40//6 39//6
f 37//6 39//6 38//6
f 42//1 41//1 45//1
f 42//1 45//1 48//1
f 43//1 42//1 48//1
f 43//1 48//1 47//1
f 44//1 43//1 47//1
f 44//1 47//1 46//1
f 41//1 44//1 46//1
f 41//1 46//1 45//1
f 41//2 42//2 50//2
f 41//2 50//2 49//2
f 42//3 43//3 51//3
f 42//3 51//3 50//3
f 43//4 44//4 52//4
f 43//4 52//4 51//4
f 44//5 41//5 49//5
f 44//5 49//5 52//5
f 45//3 46//3 54//3
f 45//3 54//3 53//3
f 46//2 47//2 55//2
f 46//2 55//2 54//2
f 47//5 48//5 56//5
f 47//5 56//5 55//5
f 48//4 45//4 53//4
f 48//4 53//4 56//4
f 53//6 49//6 50//6
f 56//6 53//6 50//6
f 56//6 50//6 51//6
f 55//6 56//6 51//6
f 55//6 51//6 52//6
f 54//6 55//6 52//6
f 54//6 52//6 49//6
f 53//6 54//6 49//6
f 58//1 57//1 61//1
f 58//1 61//1 64//1
f 59//1 58//1 64//1
f 59//1 64//1 63//1
f 60//1 59//1 63//1
f 60//1 63//1 62//1
f 57//1 60//1 62//1
f 57//1 62//1 61//1
f 57//2 58//2 66//2
f 57//2 66//2 65//2
f 58//3 59//3 67//3
f 58//3 67//3 66//3
f 59//4 60//4 68//4
f 59//4 68//4 67//4
f 60//5 57//5 65//5
f 60//5 65//5 68//5
f 61//3 62//3 70//3
f 61//3 70//3 69//3
f 62//2 63//2 71//2
f 62//2 71//2 70//2
f 63//5 64//5 72//5
f 63//5 72//5 71//5
f 64//4 61//4 69//4
f 64//4 69//4 72//4
f 69//6 65//6 66//6
f 72//6 69//6 66//6
f 72//6 66//6 67//6
f 71//6 72//6 67//6
f 71//6 67//6 68//6
f 70//6 71//6 68//6
f 70//6 68//6 65//6
f 69//6 70//6 65//6
f 73//1 74//1 75//1
f 73//1 75//1 76//1
f 73//4 77//4 78//4
f 73//4 78//4 74//4
f 74//3 78//3 79//3
f 74//3 79//3 75//3
f 75//2 79//2 80//2
f 75//2 80//2 76//2
f 76//5 80//5 77//5
f 76//5 77//5 73//5
f 77//6 80//6 79//6
f 77//6 79//6 78//6
f 121//4 81//4 82//4
f 121//4 82//4 83//4
f 121//4 83//4 84//4
f 120//4 121//4 84//4
f 120//4 84//4 85//4
f 119//4 120//4 85//4
f 119//4 85//4 86//4
f 118//4 119//4 86//4
f 117//4 118//4 86//4
f 117//4 86//4 87//4
f 116//4 117//4 87//4
f 116//4 87//4 88//4
f 115//4 116//4 88//4
f 115//4 88//4 89//4
f 115//4 89//4 90//4
f 114//4 115//4 90//4
f 114//4 90//4 91//4
f 114//4 91//4 92//4
f 113//4 114//4 92//4
f 113//4 92//4 93//4
f 113//4 93//4 94//4
f 112//4 113//4 94//4
f 112//4 94//4 95//4
f 111//4 112//4 95//4
f 111//4 95//4 96//4
f 110//4 111//4 96//4
f 110//4 96//4 97//4
f 109//4 110//4 97//4
f 109//4 97//4 98//4
f 109//4 98//4 99//4
f 109//4 99//4 100//4
f 109//4 100//4 101//4
f 109//4 101//4 102//4
f 109//4 102//4 103//4
f 109//4 103//4 104//4
f 109//4 104//4 105//4
f 109//4 105//4 106//4
f 123//6 82//6 81//6
f 122//6 123//6 81//6
f 124//7 83//7 82//7
f 123//8 124//8 82//8
f 125//9 84//9 83//9
f 124//9 125//9 83//9
f 126//10 85//10 84//10
f 125//10 126//10 84//10
f 127//11 86//11 85//11
f 126//11 127//11 85//11
f 128//12 87//12 86//12
f 127//12 128//12 86//12
f 129//13 88//13 87//13
f 128//13 129//13 87//13
f 130//14 89//14 88//14
f 129//14 130//14 88//14
f 131//15 90//15 89//15
f 130//15 131//15 89//15
f 132//6 91//6 90//6
f 131//6 132//6 90//6
f 133//6 92//6 91//6
f 132//6 133//6 91//6
f 134//6 93//6 92//6
f 133//6 134//6 92//6
f 135//6 94//6 93//6
f 134//6 135//6 93//6
f 136//6 95//6 94//6
f 135//6 136//6 94//6
f 137//6 96//6 95//6
f 136//6 137//6 95//6
f 138//6 97//6 96//6
f 137//6 138//6 96//6
f 139//6 98//6 97//6
f 138//6 139//6 97//6
f 140//16 99//16 98//16
f 139//16 140//16 98//16
f 141//17 100//17 99//17
f 140//17 141//17 99//17
f 142//18 101//18 100//18
f 141//18 142//18 100//18
f 143//19 102//19 101//19
f 142//19 143//19 101//19
f 144//20 103//20 102//20
f 143//20 144//20 102//20
f 145//21 104//21 103//21
f 144//22 145//22 103//22
f 146//23 105//23 104//23
f 145//23 146//23 104//23
f 147//24 106//24 105//24
f 146//24 147//24 105//24
f 148//6 107//6 106//6
f 147//6 148//6 106//6
f 149//6 108//6 107//6
f 148//6 149//6 107//6
f 150//1 109//1 108//1
f 149//1 150//1 108//1
f 151//1 110//1 109//1
f 150//1 151//1 109//1
f 152//1 111//1 110//1
f 151//1 152//1 110//1
f 153//1 112//1 111//1
f 152//1 153//1 111//1
f 154//1 113//1 112//1
f 153//1 154//1 112//1
f 155//1 114//1 113//1
f 154//1 155//1 113//1
f 156//25 115//25 114//25
f 155//25 156//25 114//25
f 157//26 116//26 115//26
f 156//26 157//26 115//26
f 158//27 117//27 116//27
f 157//27 158//27 116//27
f 159//28 118//28 117//28
f 158//28 159//28 117//28
f 160//29 119//29 118//29
f 159//29 160//29 118//29
f 161//30 120//30 119//30
f 160//30 161//30 119//30
f 162//31 121//31 120//31
f 161//31 162//31 120//31
f 122//32 81//32 121//32
f 162//32 122//32 121//32
f 150//4 149//4 148//4
f 123//2 122//2 162//2
f 124//2 123//2 162//2
f 125//2 124//2 162//2
f 125//2 162//2 161//2
f 126//2 125//2 161//2
f 126//2 161//2 160//2
f 127//2 126//2 160//2
f 127//2 160//2 159//2
f 127//2 159//2 158//2
f 128//2 127//2 158//2
f 128//2 158//2 157//2
f 129//2 128//2 157//2
f 129//2 157//2 156//2
f 130//2 129//2 156//2
f 131//2 130//2 156//2
f 131//2 156//2 155//2
f 132//2 131//2 155//2
f 133//2 132//2 155//2
f 133//2 155//2 154//2
f 134//2 133//2 154//2
f 135//2 134//2 154//2
f 135//2 154//2 153//2
f 136//2 135//2 153//2
f 136//2 153//2 152//2
f 137//2 136//2 152//2
f 137//2 152//2 151//2
f 138//2 137//2 151//2
f 138//2 151//2 150//2
f 139//2 138//2 150//2
f 140//2 139//2 150//2
f 141//2 140//2 150//2
f 142//2 141//2 150//2
f 143//2 142//2 150//2
f 144//2 143//2 150//2
f 145//2 144//2 150//2
f 146//2 145//2 150//2
f 147//2 146//2 150//2
f 191//4 190//4 189//4
f 191//4 189//4 188//4
f 164//4 163//4 203//4
f 165//4 164//4 203//4
f 166//4 165//4 203//4
f 166//4 203//4 202//4
f 167//4 166//4 202//4
f 167//4 202//4 201//4
f 168//4 167//4 201//4
f 168//4 201//4 200//4
f 168//4 200//4 199//4
f 169//4 168//4 199//4
f 169//4 199//4 198//4
f 170//4 169//4 198//4
f 170//4 198//4 197//4
f 171//4 170//4 197//4
f 172//4 171//4 197//4
f 172//4 197//4 196//4
f 173//4 172//4 196//4
f 174//4 173//4 196//4
f 174//4 196//4 195//4
f 175//4 174//4 195//4
f 176//4 175//4 195//4
f 176//4 195//4 194//4
f 177//4 176//4 194//4
f 177//4 194//4 193//4
f 178//4 177//4 193//4
f 178//4 193//4 192//4
f 179//4 178//4 192//4
f 179//4 192//4 191//4
f 180//4 179//4 191//4
f 181//4 180//4 191//4
f 182//4 181//4 191//4
f 183//4 182//4 191//4
f 184//4 183//4 191//4
f 185//4 184//4 191//4
f 186//4 185//4 191//4
f 187//4 186//4 191//4
f 188//4 187//4 191//4
f 163//1 164//1 205//1
f 163//1 205//1 204//1
f 164//33 165//33 206//33
f 164//34 206//34 205//34
f 165//35 166//35 207//35
f 165//35 207//35 206//35
f 166//36 167//36 208//36
f 166//37 208//37 207//37
f 167//38 168//38 209//38
f 167//38 209//38 208//38
f 168//39 169//39 210//39
f 168//39 210//39 209//39
f 169//40 170//40 211//40
f 169//40 211//40 210//40
f 170//41 171//41 212//41
f 170//41 212//41 211//41
f 171//42 172//42 213//42
f 171//42 213//42 212//42
f 172//1 173//1 214//1
f 172//1 214//1 213//1
f 173//1 174//1 215//1
f 173//1 215//1 214//1
f 174//1 175//1 216//1
f 174//1 216//1 215//1
f 175//1 176//1 217//1
f 175//1 217//1 216//1
f 176//1 177//1 218//1
f 176//1 218//1 217//1
f 177//1 178//1 219//1
f 177//1 219//1 218//1
f 178//1 179//1 220//1
f 178//1 220//1 219//1
f 179//1 180//1 221//1
f 179//1 221//1 220//1
f 180//43 181//43 222//43
f 180//43 222//43 221//43
f 181//44 182//44 223//44
f 181//44 223//44 222//44
f 182//45 183//45 224//45
f 182//46 224//46 223//46
f 183//47 184//47 225//47
f 183//47 225//47 224//47
f 184//48 185//48 226//48
f 184//48 226//48 225//48
f 185//49 186//49 227//49
f 185//50 227//50 226//50
f 186//51 187//51 228//51
f 186//51 228//51 227//51
f 187//52 188//52 229//52
f 187//52 229//52 228//52
f 188//1 189//1 230//1
f 188//1 230//1 229//1
f 189//1 190//1 231//1
f 189//1 231//1 230//1
f 190//6 191//6 232//6
f 190//6 232//6 231//6
f 191//6 192//6 233//6
f 191//6 233//6 232//6
f 192//6 193//6 234//6
f 192//6 234//6 233//6
f 193//6 194//6 235//6
f 193//6 235//6 234//6
f 194//6 195//6 236//6
f 194//6 236//6 235//6
f 195//6 196//6 237//6
f 195//6 237//6 236//6
f 196//53 197//53 238//53
f 196//53 238//53 237//53
f 197//54 198//54 239//54
f 197//54 239//54 238//54
f 198//55 199//55 240//55
f 198//55 240//55 239//55
f 199//56 200//56 241//56
f 199//57 241//57 240//57
f 200//58 201//58 242//58
f 200//58 242//58 241//58
f 201//59 202//59 243//59
f 201//59 243//59 242//59
f 202//60 203//60 244//60
f 202//60 244//60 243//60
f 203//61 163//61 204//61
f 203//61 204//61 244//61
f 244//2 204//2 205//2
f 244//2 205//2 206//2
f 244//2 206//2 207//2
f 243//2 244//2 207//2
f 243//2 207//2 208//2
f 242//2 243//2 208//2
f 242//2 208//2 209//2
f 241//2 242//2 209//2
f 240//2 241//2 209//2
f 240//2 209//2 210//2
f 239//2 240//2 210//2
f 239//2 210//2 211//2
f 238//2 239//2 211//2
f 238//2 211//2 212//2
f 238//2 212//2 213//2
f 237//2 238//2 213//2
f 237//2 213//2 214//2
f 237//2 214//2 215//2
f 236//2 237//2 215//2
f 236//2 215//2 216//2
f 236//2 216//2 217//2
f 235//2 236//2 217//2
f 235//2 217//2 218//2
f 234//2 235//2 218//2
f 234//2 218//2 219//2
f 233//2 234//2 219//2
f 233//2 219//2 220//2
f 232//2 233//2 220//2
f 232//2 220//2 221//2
f 232//2 221//2 222//2
f 232//2 222//2 223//2
f 232//2 223//2 224//2
f 232//2 224//2 225//2
f 232//2 225//2 226//2
f 232//2 226//2 227//2
f 232//2 227//2 228//2
f 232//2 228//2 229//2
f 246//1 245//1 249//1
f 246//1 249//1 252//1
f 247//1 246//1 252//1
f 247//1 252//1 251//1
f 248//1 247//1 251//1
f 248//1 251//1 250//1
f 245//1 248//1 250//1
f 245//1 250//1 249//1
f 245//2 246//2 254//2
f 245//2 254//2 253//2
f 246//3 247//3 255//3
f 246//3 255//3 254//3
f 247//4 248//4 256//4
f 247//4 256//4 255//4
f 248//5 245//5 253//5
f 248//5 253//5 256//5
f 249//3 250//3 258//3
f 249//3 258//3 257//3
f 250//2 251//2 259//2
f 250//2 259//2 258//2
f 251//5 252//5 260//5
f 251//5 260//5 259//5
f 252//4 249//4 257//4
f 252//4 257//4 260//4
f 257//6 253//6 254//6
f 260//6 257//6 254//6
f 260//6 254//6 255//6
f 259//6 260//6 255//6
f 259//6 255//6 256//6
f 258//6 259//6 256//6
f 258//6 256//6 253//6
f 257//6 258//6 253//6
f 272//5 271//5 270//5
f 272//5 270//5 269//5
f 261//5 272//5 269//5
f 261//5 269//5 268//5
f 268//5 267//5 266//5
f 268//5 266//5 265//5
f 261//5 268//5 265//5
f 261//5 265//5 264//5
f 262//5 261//5 264//5
f 262//5 264//5 263//5
f 261//6 262//6 274//6
f 261//6 274//6 273//6
f 262//2 263//2 275//2
f 262//2 275//2 274//2
f 263//1 264//1 276//1
f 263//1 276//1 275//1
f 264//2 265//2 277//2
f 264//2 277//2 276//2
f 265//6 266//6 278//6
f 265//6 278//6 277//6
f 266//2 267//2 279//2
f 266//2 279//2 278//2
f 267//1 268//1 280//1
f 267//1 280//1 279//1
f 268//2 269//2 281//2
f 268//2 281//2 280//2
f 269//6 270//6 282//6
f 269//6 282//6 281//6
f 270//2 271//2 283//2
f 270//2 283//2 282//2
f 271//1 272//1 284//1
f 271//1 284//1 283//1
f 272//4 261//4 273//4
f 272//4 273//4 284//4
f 282//3 283//3 284//3
f 281//3 282//3 284//3
f 281//3 284//3 273//3
f 280//3 281//3 273//3
f 278//3 279//3 280//3
f 277//3 278//3 280//3
f 277//3 280//3 273//3
f 276//3 277//3 273//3
f 276//3 273//3 274//3
f 275//3 276//3 274//3
f 286//1 285//1 289//1
f 286//1 289//1 292//1
f 287//1 286//1 292//1
f 287//1 292//1 291//1
f 288//1 287//1 291//1
f 288//1 291//1 290//1
f 289//1 285//1 288//1
f 290//1 289//1 288//1
f 285//2 286//2 294//2
f 285//2 294//2 293//2
f 286//3 287//3 295//3
f 286//3 295//3 294//3
f 287//4 288//4 296//4
f 287//4 296//4 295//4
f 288//5 285//5 293//5
f 288//5 293//5 296//5
f 289//3 290//3 298//3
f 289//3 298//3 297//3
f 290//2 291//2 299//2
f 290//2 299//2 298//2
f 291//5 292//5 300//5
f 291//5 300//5 299//5
f 292//4 289//4 297//4
f 292//4 297//4 300//4
f 297//6 293//6 294//6
f 300//6 297//6 294//6
f 300//6 294//6 295//6
f 299//6 300//6 295//6
f 299//6 295//6 296//6
f 298//6 299//6 296//6
f 296//6 293//6 297//6
f 296//6 297//6 298//6
