# Blender v2.79 (sub 0) OBJ File: ''
# www.blender.org
mtllib m1748.mtl
o m1748
v -0.000000 -0.000000 -0.124690
v 0.384283 0.279198 0.001977
v -0.000000 -0.000000 0.001977
v 0.146783 0.451752 0.001977
v -0.146783 0.451752 0.001977
v -0.384283 0.279198 0.001977
v -0.475000 -0.000000 0.001977
v -0.384283 -0.279198 0.001977
v -0.146783 -0.451752 0.001977
v 0.146783 -0.451752 0.001977
v 0.384283 -0.279198 0.001977
v 0.475000 -0.000000 0.001977
v 0.015833 -0.000000 -0.061357
v 0.012809 0.009306 -0.061357
v 0.015833 -0.000000 0.730310
v 0.012809 0.009306 0.730310
v -0.000000 -0.000000 0.730310
v -0.000000 -0.000000 -0.061357
v 0.004893 0.015058 -0.061357
v 0.004893 0.015058 0.730310
v -0.004893 0.015058 -0.061357
v -0.004893 0.015058 0.730310
v -0.012809 0.009306 -0.061357
v -0.012809 0.009306 0.730310
v -0.015833 -0.000000 -0.061357
v -0.015833 -0.000000 0.730310
v -0.012809 -0.009307 -0.061357
v -0.012809 -0.009307 0.730310
v -0.004893 -0.015059 -0.061357
v -0.004893 -0.015059 0.730310
v 0.004893 -0.015059 -0.061357
v 0.004893 -0.015059 0.730310
v 0.012809 -0.009307 -0.061357
v 0.012809 -0.009307 0.730310
vn 0.2568 0.0834 -0.9629
vn 0.0000 0.0000 1.0000
vn 0.1587 0.2184 -0.9629
vn 0.0000 0.2700 -0.9629
vn -0.1587 0.2184 -0.9629
vn -0.2568 0.0834 -0.9629
vn -0.2568 -0.0834 -0.9629
vn -0.1587 -0.2184 -0.9629
vn 0.0000 -0.2700 -0.9629
vn 0.1587 -0.2184 -0.9629
vn 0.2568 -0.0834 -0.9629
vn 0.9510 0.3090 0.0000
vn 0.0000 0.0000 -1.0000
vn 0.5878 0.8090 0.0000
vn 0.0000 1.0000 0.0000
vn -0.5878 0.8090 0.0000
vn -0.9510 0.3090 0.0000
vn -0.9511 -0.3090 0.0000
vn -0.5878 -0.8090 0.0000
vn 0.0000 -1.0000 0.0000
vn 0.5878 -0.8090 0.0000
vn 0.9511 -0.3090 0.0000
usemtl None
s off
f 1//1 2//1 12//1
f 3//2 12//2 2//2
f 1//3 4//3 2//3
f 3//2 2//2 4//2
f 1//4 5//4 4//4
f 3//2 4//2 5//2
f 1//5 6//5 5//5
f 3//2 5//2 6//2
f 1//6 7//6 6//6
f 3//2 6//2 7//2
f 1//7 8//7 7//7
f 3//2 7//2 8//2
f 1//8 9//8 8//8
f 3//2 8//2 9//2
f 1//9 10//9 9//9
f 3//2 9//2 10//2
f 1//10 11//10 10//10
f 3//2 10//2 11//2
f 1//11 12//11 11//11
f 3//2 11//2 12//2
f 13//12 14//12 15//12
f 14//12 16//12 15//12
f 17//2 15//2 16//2
f 18//13 14//13 13//13
f 14//14 19//14 16//14
f 19//14 20//14 16//14
f 17//2 16//2 20//2
f 18//13 19//13 14//13
f 19//15 21//15 20//15
f 21//15 22//15 20//15
f 17//2 20//2 22//2
f 18//13 21//13 19//13
f 21//16 23//16 22//16
f 23//16 24//16 22//16
f 17//2 22//2 24//2
f 18//13 23//13 21//13
f 23//17 25//17 24//17
f 25//17 26//17 24//17
f 17//2 24//2 26//2
f 18//13 25//13 23//13
f 25//18 27//18 26//18
f 27//18 28//18 26//18
f 17//2 26//2 28//2
f 18//13 27//13 25//13
f 27//19 29//19 28//19
f 29//19 30//19 28//19
f 17//2 28//2 30//2
f 18//13 29//13 27//13
f 29//20 31//20 30//20
f 31//20 32//20 30//20
f 17//2 30//2 32//2
f 18//13 31//13 29//13
f 31//21 33//21 32//21
f 33//21 34//21 32//21
f 17//2 32//2 34//2
f 18//13 33//13 31//13
f 33//22 13//22 34//22
f 13//22 15//22 34//22
f 17//2 34//2 15//2
f 18//13 13//13 33//13
