# Blender v2.79 (sub 0) OBJ File: ''
# www.blender.org
mtllib m1765.mtl
o m1765
v 0.276025 0.114208 0.119622
v 0.034441 0.114208 0.119622
v 0.034441 0.355792 0.119622
v 0.276025 0.355792 0.119622
v -0.025955 0.114208 0.119622
v -0.267540 0.114208 0.119622
v -0.267540 0.355792 0.119622
v -0.025955 0.355792 0.119622
v -0.302222 -0.050039 0.184246
v 0.301738 -0.050039 0.184246
v 0.301738 -0.050039 0.123850
v -0.302222 -0.050039 0.123850
v -0.302222 0.553921 0.184246
v 0.301738 0.553921 0.184246
v 0.301738 0.553921 0.123850
v -0.302222 0.553921 0.123850
v 0.271540 -0.326277 -0.376209
v -0.272024 -0.326277 -0.376209
v -0.272024 -0.054402 0.094478
v 0.271540 -0.054402 0.094478
v -0.302222 -0.041989 0.124038
v 0.301738 -0.041989 0.124038
v 0.301738 -0.094306 0.154215
v -0.302222 -0.094306 0.154215
v -0.302222 -0.343763 -0.399126
v 0.301738 -0.343763 -0.399126
v 0.301738 -0.396079 -0.368949
v -0.302222 -0.396079 -0.368949
vn 0.0000 0.0000 1.0000
vn 0.0000 -1.0000 0.0000
vn -1.0000 0.0000 0.0000
vn 0.0000 0.0000 -1.0000
vn 1.0000 0.0000 0.0000
vn 0.0000 1.0000 0.0000
vn 0.0000 -0.8659 0.5002
vn 0.0000 0.4997 0.8662
vn 0.0000 0.8662 -0.4997
vn 0.0000 -0.8662 0.4997
vn 0.0000 -0.4997 -0.8662
usemtl None
s off
f 3//1 1//1 4//1
f 3//1 2//1 1//1
f 7//1 5//1 8//1
f 7//1 6//1 5//1
f 9//2 12//2 10//2
f 10//2 12//2 11//2
f 9//1 14//1 13//1
f 9//1 10//1 14//1
f 9//3 13//3 12//3
f 12//3 13//3 16//3
f 12//4 16//4 15//4
f 12//4 15//4 11//4
f 10//5 15//5 14//5
f 10//5 11//5 15//5
f 14//6 16//6 13//6
f 14//6 15//6 16//6
f 19//7 17//7 20//7
f 18//7 17//7 19//7
f 21//8 24//8 22//8
f 22//8 24//8 23//8
f 21//9 26//9 25//9
f 21//9 22//9 26//9
f 21//3 25//3 24//3
f 24//3 25//3 28//3
f 24//10 28//10 27//10
f 24//10 27//10 23//10
f 22//5 27//5 26//5
f 22//5 23//5 27//5
f 26//11 28//11 25//11
f 26//11 27//11 28//11
