# Blender v2.79 (sub 0) OBJ File: ''
# www.blender.org
mtllib m334.mtl
o m334
v 0.177632 -0.149200 0.014130
v 0.250310 -0.039203 0.014130
v -0.044710 -0.039203 -0.014752
v -0.267054 -0.149200 0.014130
v -0.339732 -0.039203 0.014130
v -0.267054 0.070795 0.014130
v 0.177632 0.070795 0.014130
v 0.177632 -0.131681 0.394083
v 0.235015 -0.039203 0.394083
v -0.267054 -0.131683 0.394083
v -0.324434 -0.039203 0.394083
v -0.267054 0.053278 0.394083
v 0.177632 0.053278 0.394083
v -0.044710 -0.039203 0.458325
v -0.227700 -0.066336 -0.179501
v -0.227700 -0.097900 0.019433
v -0.193809 -0.039203 0.019433
v -0.193809 -0.010521 -0.161331
v -0.295479 -0.066336 -0.179501
v -0.295479 -0.097900 0.019433
v -0.329367 -0.010521 -0.161331
v -0.329367 -0.039203 0.019433
v -0.295479 0.045295 -0.143158
v -0.295479 0.019495 0.019433
v -0.227700 0.045295 -0.143158
v -0.227700 0.019495 0.019433
v -0.261588 -0.039203 0.019433
v -0.261588 0.120908 -0.382255
v -0.227700 0.060842 -0.403447
v -0.193812 0.105040 -0.364820
v -0.295479 0.060842 -0.403447
v -0.329367 0.105040 -0.364820
v -0.295479 0.149238 -0.326196
v -0.227700 0.149238 -0.326196
v -0.083303 -0.036396 -0.254915
v -0.083303 -0.097900 0.019433
v -0.049412 -0.039203 0.019433
v -0.049412 0.016683 -0.229856
v -0.151081 -0.036396 -0.254915
v -0.151081 -0.097900 0.019433
v -0.184970 0.016683 -0.229856
v -0.184970 -0.039203 0.019433
v -0.151081 0.069763 -0.204797
v -0.151081 0.019495 0.019433
v -0.083303 0.069763 -0.204797
v -0.083303 0.019495 0.019433
v -0.117191 -0.039203 0.019433
v -0.117191 0.174901 -0.432457
v -0.083303 0.117986 -0.461050
v -0.049412 0.156964 -0.417162
v -0.151081 0.117986 -0.461050
v -0.184970 0.156964 -0.417162
v -0.151081 0.195943 -0.373276
v -0.083303 0.195943 -0.373276
v 0.058359 -0.014207 -0.297687
v 0.058359 -0.097900 0.019433
v 0.092248 -0.039203 0.019433
v 0.092248 0.036849 -0.268721
v -0.009420 -0.014207 -0.297687
v -0.009420 -0.097900 0.019433
v -0.043310 0.036849 -0.268721
v -0.043310 -0.039203 0.019433
v -0.009420 0.087901 -0.239756
v -0.009420 0.019495 0.019433
v 0.058359 0.087901 -0.239756
v 0.058359 0.019495 0.019433
v 0.024469 -0.039203 0.019433
v 0.024469 0.209802 -0.458900
v 0.058359 0.155187 -0.491675
v 0.092248 0.190769 -0.444991
v -0.009420 0.155187 -0.491675
v -0.043310 0.190769 -0.444991
v -0.009420 0.226350 -0.398307
v 0.058359 0.226350 -0.398307
v 0.202127 -0.040198 -0.246716
v 0.202127 -0.097900 0.019433
v 0.236018 -0.039203 0.019433
v 0.236018 0.013231 -0.222405
v 0.134350 -0.040198 -0.246716
v 0.134350 -0.097900 0.019433
v 0.100460 0.013231 -0.222405
v 0.100460 -0.039203 0.019433
v 0.134350 0.066657 -0.198097
v 0.134350 0.019495 0.019433
v 0.202127 0.066657 -0.198097
v 0.202127 0.019495 0.019433
v 0.168239 -0.039203 0.019433
v 0.168239 0.168584 -0.427212
v 0.202127 0.111270 -0.455001
v 0.236018 0.150863 -0.411667
v 0.134350 0.111270 -0.455001
v 0.100460 0.150863 -0.411667
v 0.134350 0.190456 -0.368333
v 0.202127 0.190456 -0.368333
v 0.395907 -0.067961 0.096296
v 0.278987 -0.106320 0.329735
v 0.318315 -0.037000 0.309761
v 0.431011 -0.008630 0.109619
v 0.325710 -0.067961 0.096296
v 0.200331 -0.107637 0.372531
v 0.290612 -0.008630 0.109619
v 0.161003 -0.039686 0.393944
v 0.325710 0.050750 0.122594
v 0.200331 0.028582 0.374647
v 0.395907 0.050750 0.122594
v 0.278987 0.029768 0.336083
v 0.239659 -0.039481 0.370701
v 0.331990 0.064972 -0.118910
v 0.387525 0.006749 -0.098916
v 0.414238 0.049844 -0.082134
v 0.334098 0.006749 -0.098916
v 0.307385 0.049844 -0.082134
v 0.334098 0.093021 -0.065684
v 0.387525 0.093021 -0.065684
vn 0.0972 -0.0642 -0.9932
vn 0.0000 -0.2540 -0.9672
vn -0.0972 -0.0642 -0.9932
vn -0.0972 0.0642 -0.9932
vn 0.0000 0.2540 -0.9672
vn 0.0972 0.0642 -0.9932
vn 0.8492 -0.5269 0.0342
vn 0.8341 -0.5511 0.0254
vn 0.0000 -0.9989 0.0461
vn -0.8495 -0.5271 0.0243
vn -0.8339 -0.5510 0.0336
vn -0.8492 0.5269 0.0342
vn -0.8341 0.5511 0.0254
vn 0.0000 0.9989 0.0461
vn 0.8495 0.5271 0.0243
vn 0.8339 0.5510 0.0336
vn 0.0000 0.5705 0.8213
vn -0.2217 0.1376 0.9654
vn -0.2217 -0.1376 0.9654
vn 0.0000 -0.5705 0.8213
vn 0.2217 -0.1376 0.9654
vn 0.2217 0.1376 0.9654
vn 0.8633 -0.4985 -0.0791
vn 0.0000 -0.9876 -0.1567
vn -0.8633 -0.4984 -0.0791
vn -0.8633 0.4984 0.0791
vn 0.0000 0.9876 0.1567
vn 0.8633 0.4985 0.0791
vn 0.8633 0.4984 0.0791
vn 0.0000 0.0000 1.0000
vn 0.3216 0.4712 -0.8213
vn 0.0000 0.3327 -0.9430
vn -0.3216 0.4712 -0.8213
vn -0.3238 0.7511 -0.5753
vn 0.0000 0.8925 -0.4510
vn 0.3238 0.7511 -0.5753
vn 0.8615 -0.4415 -0.2507
vn 0.0000 -0.8696 -0.4938
vn -0.8615 -0.4415 -0.2507
vn -0.8615 0.4415 0.2507
vn 0.0000 0.8696 0.4938
vn 0.8615 0.4415 0.2507
vn 0.8606 -0.4969 -0.1114
vn 0.0000 -0.9758 -0.2188
vn -0.8606 -0.4969 -0.1114
vn -0.8606 0.4969 0.1114
vn 0.0000 0.9758 0.2188
vn 0.8606 0.4969 0.1114
vn 0.3216 0.5710 -0.7554
vn 0.0000 0.4489 -0.8936
vn -0.3216 0.5710 -0.7554
vn -0.3238 0.8176 -0.4761
vn 0.0000 0.9422 -0.3350
vn 0.3238 0.8176 -0.4761
vn 0.8615 -0.4064 -0.3044
vn 0.0000 -0.8004 -0.5995
vn -0.8615 -0.4064 -0.3043
vn -0.8615 0.4064 0.3043
vn 0.0000 0.8004 0.5995
vn 0.8615 0.4064 0.3044
vn 0.8586 -0.4957 -0.1308
vn 0.0000 -0.9669 -0.2552
vn -0.8586 -0.4957 -0.1308
vn -0.8586 0.4957 0.1308
vn 0.0000 0.9669 0.2552
vn 0.8586 0.4957 0.1308
vn 0.3216 0.6259 -0.7105
vn 0.0000 0.5146 -0.8575
vn -0.3216 0.6259 -0.7105
vn -0.3238 0.8510 -0.4135
vn 0.0000 0.9647 -0.2635
vn 0.3238 0.8510 -0.4135
vn 0.8615 -0.3824 -0.3339
vn 0.0000 -0.7532 -0.6577
vn -0.8615 -0.3824 -0.3339
vn -0.8615 0.3824 0.3339
vn 0.0000 0.7532 0.6577
vn 0.8615 0.3824 0.3339
vn 0.8610 -0.4971 -0.1078
vn 0.0000 -0.9773 -0.2119
vn -0.8610 -0.4971 -0.1078
vn -0.8610 0.4971 0.1078
vn 0.0000 0.9773 0.2119
vn 0.8610 0.4971 0.1078
vn 0.3216 0.5602 -0.7634
vn 0.0000 0.4363 -0.8998
vn -0.3216 0.5603 -0.7634
vn -0.3238 0.8108 -0.4876
vn 0.0000 0.9374 -0.3482
vn 0.3238 0.8108 -0.4876
vn 0.8615 -0.4106 -0.2986
vn 0.0000 -0.8088 -0.5881
vn -0.8615 -0.4106 -0.2986
vn -0.8615 0.4106 0.2986
vn 0.0000 0.8088 0.5881
vn 0.8615 0.4106 0.2986
vn 0.8512 -0.3780 0.3642
vn 0.7670 -0.5338 0.3562
vn -0.0800 -0.9809 -0.1772
vn 0.0000 -0.9868 -0.1621
vn -0.8366 -0.3519 -0.4198
vn -0.8172 -0.3876 -0.4266
vn -0.8423 0.3762 -0.3859
vn -0.7903 0.5331 -0.3020
vn 0.0449 0.9915 0.1220
vn 0.0000 0.9962 0.0876
vn 0.8176 0.2842 0.5007
vn 0.7994 0.3690 0.4741
vn 0.6104 -0.1207 0.7829
vn 0.4664 -0.2463 0.8496
vn 0.2810 -0.1367 0.9499
vn 0.2815 0.1074 0.9535
vn 0.4292 0.1969 0.8815
vn 0.6108 0.0482 0.7903
vn 0.4204 0.0910 -0.9028
vn 0.0000 -0.3248 -0.9458
vn -0.7602 -0.2355 -0.6055
vn -0.7672 0.5794 -0.2750
vn 0.0000 0.8847 -0.4662
vn 0.4244 0.5396 -0.7271
vn 0.8608 -0.4609 -0.2158
vn 0.8655 -0.4543 -0.2110
vn 0.0000 -0.9339 -0.3574
vn -0.8611 -0.4614 -0.2136
vn -0.8654 -0.4531 -0.2139
vn -0.8655 0.4951 0.0753
vn -0.8605 0.5039 0.0748
vn 0.0000 0.9757 0.2191
vn 0.8654 0.4957 0.0728
vn 0.8608 0.5029 0.0780
usemtl None
s off
f 3//1 2//1 1//1
f 3//2 1//2 4//2
f 3//3 4//3 5//3
f 3//4 5//4 6//4
f 3//5 6//5 7//5
f 3//6 7//6 2//6
f 2//7 9//7 8//7
f 2//8 8//8 1//8
f 1//9 8//9 10//9
f 1//9 10//9 4//9
f 4//10 10//10 11//10
f 4//11 11//11 5//11
f 5//12 11//12 12//12
f 5//13 12//13 6//13
f 6//14 12//14 13//14
f 6//14 13//14 7//14
f 7//15 13//15 9//15
f 7//16 9//16 2//16
f 14//17 13//17 12//17
f 14//18 12//18 11//18
f 14//19 11//19 10//19
f 14//20 10//20 8//20
f 14//21 8//21 9//21
f 14//22 9//22 13//22
f 17//23 16//23 15//23
f 17//23 15//23 18//23
f 16//24 20//24 19//24
f 16//24 19//24 15//24
f 20//25 22//25 21//25
f 20//25 21//25 19//25
f 22//26 24//26 23//26
f 22//26 23//26 21//26
f 24//27 26//27 25//27
f 24//27 25//27 23//27
f 26//28 17//28 18//28
f 26//29 18//29 25//29
f 16//30 17//30 27//30
f 20//30 16//30 27//30
f 22//30 20//30 27//30
f 24//30 22//30 27//30
f 26//30 24//30 27//30
f 17//30 26//30 27//30
f 30//31 29//31 28//31
f 29//32 31//32 28//32
f 31//33 32//33 28//33
f 32//34 33//34 28//34
f 33//35 34//35 28//35
f 34//36 30//36 28//36
f 30//37 18//37 15//37
f 15//37 29//37 30//37
f 29//38 15//38 19//38
f 19//38 31//38 29//38
f 31//39 19//39 21//39
f 21//39 32//39 31//39
f 32//40 21//40 23//40
f 23//40 33//40 32//40
f 33//41 23//41 25//41
f 25//41 34//41 33//41
f 34//42 25//42 18//42
f 18//42 30//42 34//42
f 37//43 36//43 35//43
f 37//43 35//43 38//43
f 36//44 40//44 39//44
f 36//44 39//44 35//44
f 40//45 42//45 41//45
f 40//45 41//45 39//45
f 42//46 44//46 43//46
f 42//46 43//46 41//46
f 44//47 46//47 45//47
f 44//47 45//47 43//47
f 46//48 37//48 38//48
f 46//48 38//48 45//48
f 36//30 37//30 47//30
f 40//30 36//30 47//30
f 42//30 40//30 47//30
f 44//30 42//30 47//30
f 46//30 44//30 47//30
f 37//30 46//30 47//30
f 50//49 49//49 48//49
f 49//50 51//50 48//50
f 51//51 52//51 48//51
f 52//52 53//52 48//52
f 53//53 54//53 48//53
f 54//54 50//54 48//54
f 50//55 38//55 35//55
f 35//55 49//55 50//55
f 49//56 35//56 39//56
f 39//56 51//56 49//56
f 51//57 39//57 41//57
f 41//57 52//57 51//57
f 52//58 41//58 43//58
f 43//58 53//58 52//58
f 53//59 43//59 45//59
f 45//59 54//59 53//59
f 54//60 45//60 38//60
f 38//60 50//60 54//60
f 57//61 56//61 55//61
f 57//61 55//61 58//61
f 56//62 60//62 59//62
f 56//62 59//62 55//62
f 60//63 62//63 61//63
f 60//63 61//63 59//63
f 62//64 64//64 63//64
f 62//64 63//64 61//64
f 64//65 66//65 65//65
f 64//65 65//65 63//65
f 66//66 57//66 58//66
f 66//66 58//66 65//66
f 56//30 57//30 67//30
f 60//30 56//30 67//30
f 62//30 60//30 67//30
f 64//30 62//30 67//30
f 66//30 64//30 67//30
f 57//30 66//30 67//30
f 70//67 69//67 68//67
f 69//68 71//68 68//68
f 71//69 72//69 68//69
f 72//70 73//70 68//70
f 73//71 74//71 68//71
f 74//72 70//72 68//72
f 70//73 58//73 55//73
f 55//73 69//73 70//73
f 69//74 55//74 59//74
f 59//74 71//74 69//74
f 71//75 59//75 61//75
f 61//75 72//75 71//75
f 72//76 61//76 63//76
f 63//76 73//76 72//76
f 73//77 63//77 65//77
f 65//77 74//77 73//77
f 74//78 65//78 58//78
f 58//78 70//78 74//78
f 77//79 76//79 75//79
f 77//79 75//79 78//79
f 76//80 80//80 79//80
f 76//80 79//80 75//80
f 80//81 82//81 81//81
f 80//81 81//81 79//81
f 82//82 84//82 83//82
f 82//82 83//82 81//82
f 84//83 86//83 85//83
f 84//83 85//83 83//83
f 86//84 77//84 78//84
f 86//84 78//84 85//84
f 76//30 77//30 87//30
f 80//30 76//30 87//30
f 82//30 80//30 87//30
f 84//30 82//30 87//30
f 86//30 84//30 87//30
f 77//30 86//30 87//30
f 90//85 89//85 88//85
f 89//86 91//86 88//86
f 91//87 92//87 88//87
f 92//88 93//88 88//88
f 93//89 94//89 88//89
f 94//90 90//90 88//90
f 90//91 78//91 75//91
f 75//91 89//91 90//91
f 89//92 75//92 79//92
f 79//92 91//92 89//92
f 91//93 79//93 81//93
f 81//93 92//93 91//93
f 92//94 81//94 83//94
f 83//94 93//94 92//94
f 93//95 83//95 85//95
f 85//95 94//95 93//95
f 94//96 85//96 78//96
f 78//96 90//96 94//96
f 97//97 96//97 95//97
f 97//98 95//98 98//98
f 96//99 100//99 99//99
f 96//100 99//100 95//100
f 100//101 102//101 101//101
f 100//102 101//102 99//102
f 102//103 104//103 103//103
f 102//104 103//104 101//104
f 104//105 106//105 105//105
f 104//106 105//106 103//106
f 106//107 97//107 98//107
f 106//108 98//108 105//108
f 96//109 97//109 107//109
f 100//110 96//110 107//110
f 102//111 100//111 107//111
f 104//112 102//112 107//112
f 106//113 104//113 107//113
f 97//114 106//114 107//114
f 110//115 109//115 108//115
f 109//116 111//116 108//116
f 111//117 112//117 108//117
f 112//118 113//118 108//118
f 113//119 114//119 108//119
f 114//120 110//120 108//120
f 110//121 98//121 95//121
f 95//122 109//122 110//122
f 109//123 95//123 99//123
f 99//123 111//123 109//123
f 111//124 99//124 101//124
f 101//125 112//125 111//125
f 112//126 101//126 103//126
f 103//127 113//127 112//127
f 113//128 103//128 105//128
f 105//128 114//128 113//128
f 114//129 105//129 98//129
f 98//130 110//130 114//130
