# Blender v2.79 (sub 0) OBJ File: ''
# www.blender.org
mtllib m382.mtl
o m382
v -0.141510 0.152750 0.007018
v 0.141511 0.152750 0.007018
v 0.141511 0.152750 -0.417513
v -0.141510 0.152750 -0.417513
v -0.141510 0.294261 0.007018
v 0.141511 0.294261 0.007018
v 0.141511 0.294261 -0.417513
v -0.141510 0.294261 -0.417513
v -0.141510 0.152750 0.219284
v -0.070755 0.152750 0.219284
v -0.070755 0.152750 0.007018
v -0.141510 0.258883 0.219284
v -0.070755 0.258883 0.219284
v -0.070755 0.258883 0.007018
v -0.141510 0.258883 0.007018
v 0.070756 0.152750 0.219284
v 0.141511 0.152750 0.219284
v 0.070756 0.152750 0.007018
v 0.070756 0.258883 0.219284
v 0.141511 0.258883 0.219284
v 0.141511 0.258883 0.007018
v 0.070756 0.258883 0.007018
v -0.088443 0.276572 0.007018
v -0.091822 0.286969 0.007018
v -0.088443 0.276572 0.219284
v -0.091822 0.286969 0.219284
v -0.106132 0.276572 0.219284
v -0.106132 0.276572 0.007018
v -0.100666 0.293395 0.007018
v -0.100666 0.293395 0.219284
v -0.111598 0.293395 0.007018
v -0.111598 0.293395 0.219284
v -0.120443 0.286969 0.007018
v -0.120443 0.286969 0.219284
v -0.123821 0.276572 0.007018
v -0.123821 0.276572 0.219284
v -0.120443 0.266175 0.007018
v -0.120443 0.266175 0.219284
v -0.111598 0.259749 0.007018
v -0.111598 0.259749 0.219284
v -0.100666 0.259749 0.007018
v -0.100666 0.259749 0.219284
v -0.091822 0.266175 0.007018
v -0.091822 0.266175 0.219284
v 0.123822 0.276572 0.007018
v 0.120444 0.286969 0.007018
v 0.123822 0.276572 0.219284
v 0.120444 0.286969 0.219284
v 0.106133 0.276572 0.219284
v 0.106133 0.276572 0.007018
v 0.111599 0.293395 0.007018
v 0.111599 0.293395 0.219284
v 0.100667 0.293395 0.007018
v 0.100667 0.293395 0.219284
v 0.091823 0.286969 0.007018
v 0.091823 0.286969 0.219284
v 0.088444 0.276572 0.007018
v 0.088444 0.276572 0.219284
v 0.091823 0.266175 0.007018
v 0.091823 0.266175 0.219284
v 0.100667 0.259749 0.007018
v 0.100667 0.259749 0.219284
v 0.111599 0.259749 0.007018
v 0.111599 0.259749 0.219284
v 0.120444 0.266175 0.007018
v 0.120444 0.266175 0.219284
v -0.283020 0.188128 0.219284
v -0.141510 0.188128 0.219284
v -0.141510 0.188128 -0.063737
v -0.283020 0.188128 -0.063737
v -0.283020 0.258883 0.219284
v -0.141510 0.258883 -0.063737
v -0.283020 0.258883 -0.063737
v 0.141511 0.188128 0.219284
v 0.283021 0.188128 0.219284
v 0.283021 0.188128 -0.063737
v 0.141511 0.188128 -0.063737
v 0.283021 0.258883 0.219284
v 0.283021 0.258883 -0.063737
v 0.141511 0.258883 -0.063737
v -0.283020 0.223505 -0.134492
v -0.296533 0.265094 -0.134492
v -0.283020 0.223505 0.219284
v -0.296533 0.265094 0.219284
v -0.353775 0.223505 0.219284
v -0.331911 0.290798 -0.134492
v -0.331911 0.290798 0.219284
v -0.375640 0.290798 -0.134492
v -0.375640 0.290798 0.219284
v -0.411018 0.265094 -0.134492
v -0.411018 0.265094 0.219284
v -0.424531 0.223505 -0.134492
v -0.424531 0.223505 0.219284
v -0.411018 0.181917 -0.134492
v -0.411018 0.181917 0.219284
v -0.375640 0.156213 -0.134492
v -0.375640 0.156213 0.219284
v -0.331911 0.156213 -0.134492
v -0.331911 0.156213 0.219284
v -0.296533 0.181917 -0.134492
v -0.296533 0.181917 0.219284
v 0.424531 0.223505 -0.134492
v 0.411018 0.265094 -0.134492
v 0.424531 0.223505 0.219284
v 0.411018 0.265094 0.219284
v 0.353776 0.223505 0.219284
v 0.375641 0.290798 -0.134492
v 0.375641 0.290798 0.219284
v 0.331912 0.290798 -0.134492
v 0.331912 0.290798 0.219284
v 0.296534 0.265094 -0.134492
v 0.296534 0.265094 0.219284
v 0.283021 0.223505 -0.134492
v 0.283021 0.223505 0.219284
v 0.296534 0.181917 -0.134492
v 0.296534 0.181917 0.219284
v 0.331912 0.156213 -0.134492
v 0.331912 0.156213 0.219284
v 0.375641 0.156213 -0.134492
v 0.375641 0.156213 0.219284
v 0.411018 0.181917 -0.134492
v 0.411018 0.181917 0.219284
v -0.283020 -0.342536 -0.134492
v -0.296533 -0.300947 -0.134492
v -0.283020 -0.342536 0.219284
v -0.296533 -0.300947 0.219284
v -0.353775 -0.342536 0.219284
v -0.331911 -0.275244 -0.134492
v -0.331911 -0.275244 0.219284
v -0.375640 -0.275244 -0.134492
v -0.375640 -0.275244 0.219284
v -0.411018 -0.300947 -0.134492
v -0.411018 -0.300947 0.219284
v -0.424531 -0.342536 -0.134492
v -0.424531 -0.342536 0.219284
v -0.411018 -0.384124 -0.134492
v -0.411018 -0.384124 0.219284
v -0.375640 -0.409827 -0.134492
v -0.375640 -0.409827 0.219284
v -0.331911 -0.409827 -0.134492
v -0.331911 -0.409827 0.219284
v -0.296533 -0.384124 -0.134492
v -0.296533 -0.384124 0.219284
v 0.424531 -0.342536 -0.134492
v 0.411018 -0.300947 -0.134492
v 0.424531 -0.342536 0.219284
v 0.411018 -0.300947 0.219284
v 0.353776 -0.342536 0.219284
v 0.375641 -0.275244 -0.134492
v 0.375641 -0.275244 0.219284
v 0.331912 -0.275244 -0.134492
v 0.331912 -0.275244 0.219284
v 0.296534 -0.300947 -0.134492
v 0.296534 -0.300947 0.219284
v 0.283021 -0.342536 -0.134492
v 0.283021 -0.342536 0.219284
v 0.296534 -0.384124 -0.134492
v 0.296534 -0.384124 0.219284
v 0.331912 -0.409827 -0.134492
v 0.331912 -0.409827 0.219284
v 0.375641 -0.409827 -0.134492
v 0.375641 -0.409827 0.219284
v 0.411018 -0.384124 -0.134492
v 0.411018 -0.384124 0.219284
v -0.353775 0.223505 -0.346758
v -0.267912 0.285889 -0.134492
v -0.247643 0.223505 -0.134492
v -0.353775 0.223505 -0.134492
v -0.320978 0.324444 -0.134492
v -0.386572 0.324444 -0.134492
v -0.439639 0.285889 -0.134492
v -0.459908 0.223505 -0.134492
v -0.439639 0.161122 -0.134492
v -0.386572 0.122567 -0.134492
v -0.320978 0.122567 -0.134492
v -0.267912 0.161122 -0.134492
v 0.353776 0.223505 -0.346758
v 0.439639 0.285889 -0.134492
v 0.459909 0.223505 -0.134492
v 0.353776 0.223505 -0.134492
v 0.386573 0.324444 -0.134492
v 0.320979 0.324444 -0.134492
v 0.267913 0.285889 -0.134492
v 0.247644 0.223505 -0.134492
v 0.267913 0.161122 -0.134492
v 0.320979 0.122567 -0.134492
v 0.386573 0.122567 -0.134492
v 0.439639 0.161122 -0.134492
v -0.353775 -0.342536 -0.346758
v -0.267912 -0.280153 -0.134492
v -0.247643 -0.342536 -0.134492
v -0.353775 -0.342536 -0.134492
v -0.320978 -0.241598 -0.134492
v -0.386572 -0.241598 -0.134492
v -0.439639 -0.280153 -0.134492
v -0.459908 -0.342536 -0.134492
v -0.439639 -0.404919 -0.134492
v -0.386572 -0.443474 -0.134492
v -0.320978 -0.443474 -0.134492
v -0.267912 -0.404919 -0.134492
v 0.353776 -0.342536 -0.346758
v 0.439639 -0.280153 -0.134492
v 0.459909 -0.342536 -0.134492
v 0.353776 -0.342536 -0.134492
v 0.386573 -0.241598 -0.134492
v 0.320979 -0.241598 -0.134492
v 0.267913 -0.280153 -0.134492
v 0.247644 -0.342536 -0.134492
v 0.267913 -0.404919 -0.134492
v 0.320979 -0.443474 -0.134492
v 0.386573 -0.443474 -0.134492
v 0.439639 -0.404919 -0.134492
v -0.389153 -0.271781 0.219284
v -0.318398 -0.271781 0.219284
v -0.318398 -0.271781 -0.063737
v -0.389153 -0.271781 -0.063737
v -0.389153 0.152750 0.219284
v -0.318398 0.152750 0.219284
v -0.318398 0.152750 -0.063737
v -0.389153 0.152750 -0.063737
v 0.318399 -0.271781 0.219284
v 0.389154 -0.271781 0.219284
v 0.389154 -0.271781 -0.063737
v 0.318399 -0.271781 -0.063737
v 0.318399 0.152750 0.219284
v 0.389154 0.152750 0.219284
v 0.389154 0.152750 -0.063737
v 0.318399 0.152750 -0.063737
v -0.283020 -0.377913 0.219284
v 0.283021 -0.377913 0.219284
v 0.283021 -0.377913 -0.063737
v -0.283020 -0.377913 -0.063737
v -0.283020 -0.307158 0.219284
v 0.283021 -0.307158 0.219284
v 0.283021 -0.307158 -0.063737
v -0.283020 -0.307158 -0.063737
v -0.070755 0.294261 0.228128
v 0.070756 0.294261 0.228128
v 0.070756 0.294261 0.210439
v -0.070755 0.294261 0.210439
v -0.070755 0.506526 0.228128
v 0.070756 0.506526 0.228128
v 0.070756 0.506526 0.210439
v -0.070755 0.506526 0.210439
v -0.132665 0.297621 -0.276002
v 0.132666 0.297621 -0.276002
v 0.132666 0.297621 -0.382135
v -0.132665 0.297621 -0.382135
v -0.132665 0.297975 -0.276002
v 0.132666 0.297975 -0.276002
v 0.132666 0.297975 -0.382135
v -0.132665 0.297975 -0.382135
vn 0.0000 -1.0000 0.0000
vn 0.0000 0.0000 1.0000
vn -1.0000 0.0000 0.0000
vn 0.0000 0.0000 -1.0000
vn 1.0000 0.0000 0.0000
vn 0.0000 1.0000 0.0000
vn 0.9510 0.3091 0.0000
vn 0.5878 0.8090 0.0000
vn -0.5878 0.8090 0.0000
vn -0.9511 0.3090 0.0000
vn -0.9511 -0.3090 0.0000
vn -0.5878 -0.8090 0.0000
vn 0.5878 -0.8090 0.0000
vn 0.9510 -0.3091 0.0000
vn 0.9511 0.3090 0.0000
vn -0.9510 0.3091 0.0000
vn -0.9510 -0.3091 0.0000
vn 0.9511 -0.3090 0.0000
vn 0.8589 0.2791 -0.4294
vn 0.5308 0.7306 -0.4294
vn 0.0000 0.9031 -0.4294
vn -0.5308 0.7306 -0.4294
vn -0.8589 0.2791 -0.4294
vn -0.8589 -0.2791 -0.4294
vn -0.5308 -0.7306 -0.4294
vn 0.0000 -0.9031 -0.4294
vn 0.5308 -0.7306 -0.4294
vn 0.8589 -0.2791 -0.4294
usemtl None
s off
f 1//1 4//1 2//1
f 2//1 4//1 3//1
f 1//2 6//2 5//2
f 1//2 2//2 6//2
f 1//3 5//3 4//3
f 4//3 5//3 8//3
f 4//4 8//4 7//4
f 4//4 7//4 3//4
f 2//5 7//5 6//5
f 2//5 3//5 7//5
f 6//6 8//6 5//6
f 6//6 7//6 8//6
f 9//1 1//1 10//1
f 10//1 1//1 11//1
f 9//2 13//2 12//2
f 9//2 10//2 13//2
f 9//3 12//3 1//3
f 1//3 12//3 15//3
f 1//4 15//4 14//4
f 1//4 14//4 11//4
f 10//5 14//5 13//5
f 10//5 11//5 14//5
f 13//6 15//6 12//6
f 13//6 14//6 15//6
f 16//1 18//1 17//1
f 17//1 18//1 2//1
f 16//2 20//2 19//2
f 16//2 17//2 20//2
f 16//3 19//3 18//3
f 18//3 19//3 22//3
f 18//4 22//4 21//4
f 18//4 21//4 2//4
f 17//5 21//5 20//5
f 17//5 2//5 21//5
f 20//6 22//6 19//6
f 20//6 21//6 22//6
f 23//7 24//7 25//7
f 24//7 26//7 25//7
f 27//2 25//2 26//2
f 28//4 24//4 23//4
f 24//8 29//8 26//8
f 29//8 30//8 26//8
f 27//2 26//2 30//2
f 28//4 29//4 24//4
f 29//6 31//6 30//6
f 31//6 32//6 30//6
f 27//2 30//2 32//2
f 28//4 31//4 29//4
f 31//9 33//9 32//9
f 33//9 34//9 32//9
f 27//2 32//2 34//2
f 28//4 33//4 31//4
f 33//10 35//10 34//10
f 35//10 36//10 34//10
f 27//2 34//2 36//2
f 28//4 35//4 33//4
f 35//11 37//11 36//11
f 37//11 38//11 36//11
f 27//2 36//2 38//2
f 28//4 37//4 35//4
f 37//12 39//12 38//12
f 39//12 40//12 38//12
f 27//2 38//2 40//2
f 28//4 39//4 37//4
f 39//1 41//1 40//1
f 41//1 42//1 40//1
f 27//2 40//2 42//2
f 28//4 41//4 39//4
f 41//13 43//13 42//13
f 43//13 44//13 42//13
f 27//2 42//2 44//2
f 28//4 43//4 41//4
f 43//14 23//14 44//14
f 23//14 25//14 44//14
f 27//2 44//2 25//2
f 28//4 23//4 43//4
f 45//15 46//15 47//15
f 46//15 48//15 47//15
f 49//2 47//2 48//2
f 50//4 46//4 45//4
f 46//8 51//8 48//8
f 51//8 52//8 48//8
f 49//2 48//2 52//2
f 50//4 51//4 46//4
f 51//6 53//6 52//6
f 53//6 54//6 52//6
f 49//2 52//2 54//2
f 50//4 53//4 51//4
f 53//9 55//9 54//9
f 55//9 56//9 54//9
f 49//2 54//2 56//2
f 50//4 55//4 53//4
f 55//16 57//16 56//16
f 57//16 58//16 56//16
f 49//2 56//2 58//2
f 50//4 57//4 55//4
f 57//17 59//17 58//17
f 59//17 60//17 58//17
f 49//2 58//2 60//2
f 50//4 59//4 57//4
f 59//12 61//12 60//12
f 61//12 62//12 60//12
f 49//2 60//2 62//2
f 50//4 61//4 59//4
f 61//1 63//1 62//1
f 63//1 64//1 62//1
f 49//2 62//2 64//2
f 50//4 63//4 61//4
f 63//13 65//13 64//13
f 65//13 66//13 64//13
f 49//2 64//2 66//2
f 50//4 65//4 63//4
f 65//18 45//18 66//18
f 45//18 47//18 66//18
f 49//2 66//2 47//2
f 50//4 45//4 65//4
f 67//1 70//1 68//1
f 68//1 70//1 69//1
f 67//2 12//2 71//2
f 67//2 68//2 12//2
f 67//3 71//3 70//3
f 70//3 71//3 73//3
f 70//4 73//4 72//4
f 70//4 72//4 69//4
f 68//5 72//5 12//5
f 68//5 69//5 72//5
f 12//6 73//6 71//6
f 12//6 72//6 73//6
f 74//1 77//1 75//1
f 75//1 77//1 76//1
f 74//2 78//2 20//2
f 74//2 75//2 78//2
f 74//3 20//3 77//3
f 77//3 20//3 80//3
f 77//4 80//4 79//4
f 77//4 79//4 76//4
f 75//5 79//5 78//5
f 75//5 76//5 79//5
f 78//6 80//6 20//6
f 78//6 79//6 80//6
f 81//15 82//15 83//15
f 82//15 84//15 83//15
f 85//2 83//2 84//2
f 82//8 86//8 84//8
f 86//8 87//8 84//8
f 85//2 84//2 87//2
f 86//6 88//6 87//6
f 88//6 89//6 87//6
f 85//2 87//2 89//2
f 88//9 90//9 89//9
f 90//9 91//9 89//9
f 85//2 89//2 91//2
f 90//10 92//10 91//10
f 92//10 93//10 91//10
f 85//2 91//2 93//2
f 92//11 94//11 93//11
f 94//11 95//11 93//11
f 85//2 93//2 95//2
f 94//12 96//12 95//12
f 96//12 97//12 95//12
f 85//2 95//2 97//2
f 96//1 98//1 97//1
f 98//1 99//1 97//1
f 85//2 97//2 99//2
f 98//13 100//13 99//13
f 100//13 101//13 99//13
f 85//2 99//2 101//2
f 100//18 81//18 101//18
f 81//18 83//18 101//18
f 85//2 101//2 83//2
f 102//15 103//15 104//15
f 103//15 105//15 104//15
f 106//2 104//2 105//2
f 103//8 107//8 105//8
f 107//8 108//8 105//8
f 106//2 105//2 108//2
f 107//6 109//6 108//6
f 109//6 110//6 108//6
f 106//2 108//2 110//2
f 109//9 111//9 110//9
f 111//9 112//9 110//9
f 106//2 110//2 112//2
f 111//10 113//10 112//10
f 113//10 114//10 112//10
f 106//2 112//2 114//2
f 113//11 115//11 114//11
f 115//11 116//11 114//11
f 106//2 114//2 116//2
f 115//12 117//12 116//12
f 117//12 118//12 116//12
f 106//2 116//2 118//2
f 117//1 119//1 118//1
f 119//1 120//1 118//1
f 106//2 118//2 120//2
f 119//13 121//13 120//13
f 121//13 122//13 120//13
f 106//2 120//2 122//2
f 121//18 102//18 122//18
f 102//18 104//18 122//18
f 106//2 122//2 104//2
f 123//15 124//15 125//15
f 124//15 126//15 125//15
f 127//2 125//2 126//2
f 124//8 128//8 126//8
f 128//8 129//8 126//8
f 127//2 126//2 129//2
f 128//6 130//6 129//6
f 130//6 131//6 129//6
f 127//2 129//2 131//2
f 130//9 132//9 131//9
f 132//9 133//9 131//9
f 127//2 131//2 133//2
f 132//10 134//10 133//10
f 134//10 135//10 133//10
f 127//2 133//2 135//2
f 134//11 136//11 135//11
f 136//11 137//11 135//11
f 127//2 135//2 137//2
f 136//12 138//12 137//12
f 138//12 139//12 137//12
f 127//2 137//2 139//2
f 138//1 140//1 139//1
f 140//1 141//1 139//1
f 127//2 139//2 141//2
f 140//13 142//13 141//13
f 142//13 143//13 141//13
f 127//2 141//2 143//2
f 142//18 123//18 143//18
f 123//18 125//18 143//18
f 127//2 143//2 125//2
f 144//15 145//15 146//15
f 145//15 147//15 146//15
f 148//2 146//2 147//2
f 145//8 149//8 147//8
f 149//8 150//8 147//8
f 148//2 147//2 150//2
f 149//6 151//6 150//6
f 151//6 152//6 150//6
f 148//2 150//2 152//2
f 151//9 153//9 152//9
f 153//9 154//9 152//9
f 148//2 152//2 154//2
f 153//10 155//10 154//10
f 155//10 156//10 154//10
f 148//2 154//2 156//2
f 155//11 157//11 156//11
f 157//11 158//11 156//11
f 148//2 156//2 158//2
f 157//12 159//12 158//12
f 159//12 160//12 158//12
f 148//2 158//2 160//2
f 159//1 161//1 160//1
f 161//1 162//1 160//1
f 148//2 160//2 162//2
f 161//13 163//13 162//13
f 163//13 164//13 162//13
f 148//2 162//2 164//2
f 163//18 144//18 164//18
f 144//18 146//18 164//18
f 148//2 164//2 146//2
f 165//19 166//19 167//19
f 168//2 167//2 166//2
f 165//20 169//20 166//20
f 168//2 166//2 169//2
f 165//21 170//21 169//21
f 168//2 169//2 170//2
f 165//22 171//22 170//22
f 168//2 170//2 171//2
f 165//23 172//23 171//23
f 168//2 171//2 172//2
f 165//24 173//24 172//24
f 168//2 172//2 173//2
f 165//25 174//25 173//25
f 168//2 173//2 174//2
f 165//26 175//26 174//26
f 168//2 174//2 175//2
f 165//27 176//27 175//27
f 168//2 175//2 176//2
f 165//28 167//28 176//28
f 168//2 176//2 167//2
f 177//19 178//19 179//19
f 180//2 179//2 178//2
f 177//20 181//20 178//20
f 180//2 178//2 181//2
f 177//21 182//21 181//21
f 180//2 181//2 182//2
f 177//22 183//22 182//22
f 180//2 182//2 183//2
f 177//23 184//23 183//23
f 180//2 183//2 184//2
f 177//24 185//24 184//24
f 180//2 184//2 185//2
f 177//25 186//25 185//25
f 180//2 185//2 186//2
f 177//26 187//26 186//26
f 180//2 186//2 187//2
f 177//27 188//27 187//27
f 180//2 187//2 188//2
f 177//28 179//28 188//28
f 180//2 188//2 179//2
f 189//19 190//19 191//19
f 192//2 191//2 190//2
f 189//20 193//20 190//20
f 192//2 190//2 193//2
f 189//21 194//21 193//21
f 192//2 193//2 194//2
f 189//22 195//22 194//22
f 192//2 194//2 195//2
f 189//23 196//23 195//23
f 192//2 195//2 196//2
f 189//24 197//24 196//24
f 192//2 196//2 197//2
f 189//25 198//25 197//25
f 192//2 197//2 198//2
f 189//26 199//26 198//26
f 192//2 198//2 199//2
f 189//27 200//27 199//27
f 192//2 199//2 200//2
f 189//28 191//28 200//28
f 192//2 200//2 191//2
f 201//19 202//19 203//19
f 204//2 203//2 202//2
f 201//20 205//20 202//20
f 204//2 202//2 205//2
f 201//21 206//21 205//21
f 204//2 205//2 206//2
f 201//22 207//22 206//22
f 204//2 206//2 207//2
f 201//23 208//23 207//23
f 204//2 207//2 208//2
f 201//24 209//24 208//24
f 204//2 208//2 209//2
f 201//25 210//25 209//25
f 204//2 209//2 210//2
f 201//26 211//26 210//26
f 204//2 210//2 211//2
f 201//27 212//27 211//27
f 204//2 211//2 212//2
f 201//28 203//28 212//28
f 204//2 212//2 203//2
f 213//1 216//1 214//1
f 214//1 216//1 215//1
f 213//2 218//2 217//2
f 213//2 214//2 218//2
f 213//3 217//3 216//3
f 216//3 217//3 220//3
f 216//4 220//4 219//4
f 216//4 219//4 215//4
f 214//5 219//5 218//5
f 214//5 215//5 219//5
f 218//6 220//6 217//6
f 218//6 219//6 220//6
f 221//1 224//1 222//1
f 222//1 224//1 223//1
f 221//2 226//2 225//2
f 221//2 222//2 226//2
f 221//3 225//3 224//3
f 224//3 225//3 228//3
f 224//4 228//4 227//4
f 224//4 227//4 223//4
f 222//5 227//5 226//5
f 222//5 223//5 227//5
f 226//6 228//6 225//6
f 226//6 227//6 228//6
f 229//1 232//1 230//1
f 230//1 232//1 231//1
f 229//2 234//2 233//2
f 229//2 230//2 234//2
f 229//3 233//3 232//3
f 232//3 233//3 236//3
f 232//4 236//4 235//4
f 232//4 235//4 231//4
f 230//5 235//5 234//5
f 230//5 231//5 235//5
f 234//6 236//6 233//6
f 234//6 235//6 236//6
f 237//1 240//1 238//1
f 238//1 240//1 239//1
f 237//2 242//2 241//2
f 237//2 238//2 242//2
f 237//3 241//3 240//3
f 240//3 241//3 244//3
f 240//4 244//4 243//4
f 240//4 243//4 239//4
f 238//5 243//5 242//5
f 238//5 239//5 243//5
f 242//6 244//6 241//6
f 242//6 243//6 244//6
f 245//1 248//1 246//1
f 246//1 248//1 247//1
f 245//2 250//2 249//2
f 245//2 246//2 250//2
f 245//3 249//3 248//3
f 248//3 249//3 252//3
f 248//4 252//4 251//4
f 248//4 251//4 247//4
f 246//5 251//5 250//5
f 246//5 247//5 251//5
f 250//6 252//6 249//6
f 250//6 251//6 252//6
