# Blender v2.79 (sub 0) OBJ File: ''
# www.blender.org
mtllib m390.mtl
o m390
v -0.041848 0.434240 -0.028465
v -0.057317 0.445746 -0.029367
v 0.176316 0.300577 -0.290097
v 0.210841 0.230453 -0.346127
v 0.106032 0.284545 -0.353074
v 0.131378 0.200265 -0.417111
v 0.377118 0.234974 0.258843
v 0.377295 0.235914 0.294172
v 0.409040 0.200812 0.000922
v 0.399166 0.204383 -0.005155
v -0.325560 -0.088139 0.004403
v -0.351700 -0.074053 0.001112
v 0.051496 0.180940 -0.345122
v 0.105719 0.284634 -0.351826
v 0.131758 0.199652 -0.415580
v -0.412777 -0.240160 0.087548
v -0.095414 -0.212124 -0.257632
v -0.408259 -0.228673 0.262535
v 0.011420 -0.448667 0.291274
v 0.155554 0.127289 -0.337152
v 0.211318 0.229513 -0.345178
v 0.129855 -0.325404 0.037853
v -0.047627 0.461271 0.297491
v 0.382168 0.214273 0.001138
v 0.144498 0.250529 -0.283352
v 0.106378 0.277161 -0.236256
v 0.063359 0.197263 -0.229638
v 0.105570 0.171096 -0.278014
v 0.188283 0.232863 -0.229074
v 0.147317 0.152796 -0.222858
v -0.065929 0.443699 -0.034497
v -0.319847 -0.082039 0.059771
v -0.185466 -0.371709 -0.163962
v -0.100583 -0.215140 -0.172471
v 0.082800 -0.316539 0.250334
v 0.124586 -0.312184 0.031757
v 0.101324 -0.306352 0.086389
v 0.025190 -0.465948 0.110487
v -0.035435 -0.439402 0.027785
v -0.306344 -0.020069 0.302991
vn -0.4663 -0.8832 0.0489
vn -0.4600 -0.8852 0.0700
vn -0.6679 0.2993 -0.6814
vn -0.4674 -0.8811 0.0717
vn 0.4551 0.8888 0.0548
vn -0.4597 -0.8868 0.0483
vn -0.3531 -0.9340 -0.0545
vn 0.4773 0.8764 -0.0635
vn -0.6544 0.3900 0.6478
vn 0.8883 -0.4457 0.1103
vn 0.9044 -0.4199 0.0761
vn 0.6562 -0.3862 -0.6483
vn 0.6572 -0.3892 -0.6454
vn 0.4631 0.8839 -0.0651
vn 0.4674 0.8822 -0.0574
vn 0.8246 -0.5499 0.1326
vn 0.8655 -0.4711 -0.1705
vn 0.6536 -0.3896 -0.6489
vn 0.4146 -0.5362 -0.7353
vn -0.8799 0.4724 -0.0511
vn -0.8789 0.4739 -0.0549
vn -0.6062 0.2740 -0.7466
vn -0.6104 0.2861 -0.7387
vn -0.4003 -0.9055 0.1411
vn -0.5272 -0.8475 -0.0620
vn -0.4744 -0.8803 -0.0001
vn 0.3269 0.9441 0.0436
vn 0.8737 -0.4528 0.1777
vn 0.8836 -0.4395 0.1618
vn 0.6881 -0.4202 -0.5916
vn 0.3704 0.6300 -0.6826
vn -0.8789 0.4759 0.0327
vn -0.8838 0.4671 0.0248
vn -0.6077 0.2893 -0.7396
vn -0.6476 0.2544 -0.7183
vn -0.8981 0.4399 -0.0057
vn -0.8654 0.4949 -0.0781
vn -0.3374 -0.7407 -0.5810
vn 0.6674 -0.3051 0.6793
vn -0.3738 -0.9123 0.1673
vn -0.4591 -0.8541 0.2446
vn -0.5505 -0.8223 0.1438
vn 0.6847 -0.4203 -0.5955
vn 0.4895 -0.6594 -0.5705
vn 0.7739 -0.2837 0.5663
usemtl None
s off
f 38//1 19//1 18//1
f 38//2 18//2 16//2
f 13//3 5//3 15//3
f 9//4 2//4 3//4
f 26//5 4//5 5//5
f 38//6 16//6 33//6
f 36//7 34//7 17//7
f 22//8 34//8 37//8
f 37//9 34//9 33//9
f 19//10 38//10 35//10
f 35//11 38//11 37//11
f 17//12 10//12 22//12
f 10//13 17//13 3//13
f 23//14 24//14 1//14
f 24//15 23//15 8//15
f 10//16 7//16 39//16
f 7//17 19//17 39//17
f 39//18 33//18 34//18
f 34//19 22//19 39//19
f 40//20 23//20 11//20
f 11//21 23//21 1//21
f 12//22 3//22 17//22
f 12//23 31//23 3//23
f 34//24 32//24 11//24
f 34//25 11//25 17//25
f 12//26 17//26 11//26
f 25//27 29//27 4//27
f 29//28 20//28 4//28
f 20//29 29//29 30//29
f 20//30 6//30 4//30
f 6//31 5//31 4//31
f 5//32 27//32 26//32
f 5//33 13//33 27//33
f 34//34 33//34 32//34
f 32//35 33//35 16//35
f 16//36 18//36 40//36
f 32//37 16//37 40//37
f 15//38 20//38 13//38
f 13//39 15//39 14//39
f 13//40 28//40 27//40
f 28//41 13//41 20//41
f 30//42 28//42 20//42
f 20//43 15//43 21//43
f 22//44 38//44 39//44
f 38//45 22//45 37//45
