# Blender v2.79 (sub 0) OBJ File: ''
# www.blender.org
mtllib m423.mtl
o m423
v -0.464292 0.006284 -0.099240
v 0.485709 -0.003711 -0.099240
v 0.485709 -0.180677 -0.011874
v -0.464292 -0.180677 -0.011874
v -0.464292 0.185158 -0.011026
v 0.485709 0.185158 -0.011026
v -0.126137 0.048737 -0.057042
v -0.085706 0.048737 -0.057042
v -0.126137 0.004516 -0.057042
v -0.085706 0.004516 -0.057042
v -0.126137 0.048737 -0.143022
v -0.085706 0.048737 -0.143022
v -0.126137 0.004516 -0.143022
v -0.085706 0.004516 -0.143022
v -0.463189 -0.112226 -0.023622
v -0.436172 -0.112226 -0.023622
v -0.463189 -0.151597 -0.023622
v -0.436172 -0.151597 -0.023622
v -0.463189 -0.112226 -0.133961
v -0.436172 -0.112226 -0.133961
v -0.463189 -0.151597 -0.133961
v -0.436172 -0.151597 -0.133961
v 0.485709 -0.003711 0.141087
v 0.485709 -0.170244 0.141087
v 0.485709 -0.003711 -0.001272
v 0.485709 -0.170244 -0.001272
v 0.485709 0.173707 0.141087
v 0.485709 0.173707 -0.001272
v -0.464292 0.005365 0.141087
v -0.464292 -0.170244 0.141087
v -0.464292 0.005365 -0.001272
v -0.464292 -0.170244 -0.001272
v -0.464292 0.173707 0.141087
v -0.464292 0.173707 -0.001272
v -0.464292 0.005365 -0.099240
vn -0.0047 -0.4427 -0.8967
vn 0.0000 -0.4234 -0.9060
vn 0.0047 0.4423 -0.8969
vn 0.0000 0.4232 -0.9060
vn 0.0000 0.0000 -1.0000
vn 0.0000 1.0000 0.0000
vn 1.0000 0.0000 0.0000
vn 0.0000 -1.0000 0.0000
vn -1.0000 0.0000 0.0000
vn 0.0000 -0.7128 0.7014
vn 0.0000 0.6484 0.7613
usemtl None
s off
f 1//1 2//1 3//1
f 3//2 4//2 1//2
f 2//3 1//3 5//3
f 5//4 6//4 2//4
f 11//5 12//5 14//5
f 14//5 13//5 11//5
f 7//6 8//6 12//6
f 12//6 11//6 7//6
f 8//7 10//7 14//7
f 14//7 12//7 8//7
f 10//8 9//8 13//8
f 13//8 14//8 10//8
f 9//9 7//9 11//9
f 11//9 13//9 9//9
f 19//5 20//5 22//5
f 22//5 21//5 19//5
f 15//6 16//6 20//6
f 20//6 19//6 15//6
f 16//7 18//7 22//7
f 22//7 20//7 16//7
f 18//8 17//8 21//8
f 21//8 22//8 18//8
f 17//9 15//9 19//9
f 19//9 21//9 17//9
f 23//7 24//7 26//7
f 26//7 25//7 23//7
f 23//7 25//7 28//7
f 28//7 27//7 23//7
f 25//7 26//7 3//7
f 3//7 2//7 25//7
f 28//7 25//7 2//7
f 2//7 6//7 28//7
f 30//9 29//9 31//9
f 31//9 32//9 30//9
f 31//9 29//9 33//9
f 33//9 34//9 31//9
f 32//9 31//9 35//9
f 35//9 4//9 32//9
f 31//9 34//9 5//9
f 5//9 35//9 31//9
f 33//6 27//6 28//6
f 28//6 34//6 33//6
f 24//8 30//8 32//8
f 32//8 26//8 24//8
f 26//10 32//10 4//10
f 4//10 3//10 26//10
f 34//11 28//11 6//11
f 6//11 5//11 34//11
