# Blender v2.79 (sub 0) OBJ File: ''
# www.blender.org
mtllib m436.mtl
o m436
v 0.433329 0.060969 -0.186192
v 0.433325 0.060958 -0.179033
v 0.424208 0.055899 -0.179046
v 0.424213 0.055909 -0.186205
v 0.433296 0.020470 -0.186252
v 0.433292 0.020460 -0.179092
v 0.424184 0.025525 -0.179090
v 0.424188 0.025536 -0.186250
v 0.360399 0.020493 -0.186296
v 0.360395 0.020483 -0.179137
v 0.369511 0.025542 -0.179124
v 0.369515 0.025553 -0.186283
v 0.360432 0.060992 -0.186236
v 0.360428 0.060981 -0.179077
v 0.369536 0.055916 -0.179079
v 0.369540 0.055927 -0.186238
v 0.414762 0.098577 -0.012901
v 0.378966 0.098577 -0.012901
v 0.378966 -0.015969 -0.013084
v 0.414762 -0.015969 -0.013084
v 0.414762 0.098349 0.130282
v 0.378966 0.098349 0.130282
v 0.378966 -0.016197 0.130100
v 0.414762 -0.016197 0.130100
v 0.414762 0.075238 -0.070212
v 0.378966 0.075238 -0.070212
v 0.378966 0.007369 -0.070320
v 0.414762 0.007369 -0.070320
v 0.414762 0.098056 -0.012902
v 0.378966 0.098056 -0.012902
v 0.378966 -0.015631 -0.013083
v 0.414762 -0.015631 -0.013083
v 0.414762 0.074665 -0.181895
v 0.378966 0.074665 -0.181895
v 0.378966 0.007942 -0.182002
v 0.414762 0.007942 -0.182002
v 0.414762 0.074483 -0.067349
v 0.378966 0.074483 -0.067349
v 0.378966 0.007760 -0.067455
v 0.414762 0.007760 -0.067455
v 0.226825 0.171441 0.003754
v 0.226970 0.171586 0.061027
v 0.278371 0.171571 0.003623
v 0.278516 0.171717 0.060896
v 0.311733 0.171441 0.003754
v 0.311878 0.171586 0.061027
v 0.363279 0.171571 0.003623
v 0.363424 0.171717 0.060896
v 0.067892 0.171441 0.003754
v 0.068037 0.171586 0.061027
v 0.119438 0.171571 0.003623
v 0.119583 0.171717 0.060896
v -0.017016 0.171441 0.003754
v -0.016871 0.171586 0.061027
v 0.034530 0.171571 0.003623
v 0.034675 0.171717 0.060896
v -0.048207 0.092827 0.003760
v -0.048207 0.092872 0.061033
v -0.048207 0.135782 0.003726
v -0.048207 0.135827 0.060999
v -0.048207 0.005199 0.003760
v -0.048207 0.005244 0.061033
v -0.048207 0.048153 0.003726
v -0.048207 0.048199 0.060999
v 0.151607 0.171394 0.015638
v 0.151799 0.171586 0.091381
v 0.196996 0.171509 0.015523
v 0.197188 0.171701 0.091266
v 0.345400 -0.194665 0.006831
v 0.345226 -0.194490 0.075559
v 0.259490 -0.194447 0.006613
v 0.259316 -0.194272 0.075340
v 0.040405 -0.194650 0.003624
v 0.040260 -0.194504 0.060897
v -0.011141 -0.194519 0.003493
v -0.011286 -0.194374 0.060766
v 0.132549 0.181466 0.086965
v 0.132553 0.181470 0.092263
v 0.132543 0.195731 0.092253
v 0.132549 0.195737 0.101660
v 0.132539 0.210199 0.101650
v 0.132546 0.210206 0.111286
v 0.132536 0.224438 0.111276
v 0.132543 0.224445 0.120683
v 0.132533 0.238477 0.120673
v 0.132539 0.238483 0.129880
v 0.132588 0.169182 0.129928
v 0.132558 0.169153 0.087260
v 0.218459 0.181526 0.086905
v 0.218463 0.181530 0.092203
v 0.218453 0.195791 0.092193
v 0.218459 0.195797 0.101600
v 0.218449 0.210259 0.101590
v 0.218456 0.210266 0.111226
v 0.218446 0.224498 0.111216
v 0.218452 0.224505 0.120623
v 0.218443 0.238537 0.120613
v 0.218449 0.238543 0.129820
v 0.218497 0.169242 0.129868
v 0.218468 0.169213 0.087200
v -0.032708 -0.116822 -0.000675
v -0.261801 -0.116662 -0.000932
v -0.261800 -0.113797 0.002502
v -0.032707 -0.113957 0.002758
v -0.032595 -0.011621 -0.088994
v -0.261688 -0.011461 -0.089250
v -0.261691 -0.011458 -0.083523
v -0.032598 -0.011618 -0.083267
v -0.032560 0.093657 -0.000911
v -0.261653 0.093817 -0.001167
v -0.261657 0.090955 0.002273
v -0.032564 0.090795 0.002529
v -0.147254 -0.115310 0.000340
v -0.147108 0.092306 0.000108
v -0.039793 0.079402 -0.007527
v -0.039822 -0.011553 -0.085317
v -0.039920 -0.102440 -0.007324
v -0.254567 0.079552 -0.007767
v -0.254597 -0.011403 -0.085557
v -0.254694 -0.102291 -0.007564
v -0.038413 -0.102452 0.105059
v -0.256051 -0.102452 0.105059
v -0.256051 0.079391 0.105059
v -0.038413 0.079391 0.105059
v -0.038413 -0.102452 -0.009487
v -0.256051 -0.102452 -0.009487
v -0.256051 0.079391 -0.009487
v -0.038413 0.079391 -0.009487
v -0.039845 -0.101020 0.130019
v -0.254619 -0.101020 0.130019
v -0.254619 0.077959 0.130019
v -0.039845 0.077959 0.130019
v -0.039845 -0.101020 0.101382
v -0.254619 -0.101020 0.101382
v -0.254619 0.077959 0.101382
v -0.039845 0.077959 0.101382
v -0.241759 -0.137880 -0.006760
v -0.516671 -0.137688 -0.007048
v -0.516670 -0.134250 -0.003186
v -0.241759 -0.134442 -0.002898
v -0.241625 -0.011639 -0.106119
v -0.516536 -0.011447 -0.106407
v -0.516539 -0.011444 -0.099963
v -0.241628 -0.011636 -0.099675
v -0.241583 0.114695 -0.007025
v -0.516494 0.114887 -0.007313
v -0.516498 0.111452 -0.003443
v -0.241587 0.111260 -0.003155
v -0.379215 -0.136065 -0.005618
v -0.379041 0.113073 -0.005879
v -0.250262 0.097589 -0.014468
v -0.250297 -0.011558 -0.101982
v -0.250414 -0.120622 -0.014240
v -0.507991 0.097769 -0.014738
v -0.508026 -0.011378 -0.102252
v -0.508143 -0.120442 -0.014510
v -0.248606 -0.120636 0.112191
v -0.509772 -0.120636 0.112191
v -0.509772 0.097575 0.112191
v -0.248606 0.097575 0.112191
v -0.248606 -0.120636 -0.016674
v -0.509772 -0.120636 -0.016674
v -0.509772 0.097575 -0.016674
v -0.248606 0.097575 -0.016674
v -0.250324 -0.118918 0.140271
v -0.508053 -0.118918 0.140271
v -0.508053 0.095857 0.140271
v -0.250324 0.095857 0.140271
v -0.250324 -0.118918 0.108055
v -0.508053 -0.118918 0.108055
v -0.508053 0.095857 0.108055
v -0.250324 0.095857 0.108055
v 0.399684 -0.222113 -0.033320
v -0.058502 -0.221793 -0.033641
v -0.058501 -0.216063 -0.029349
v 0.399685 -0.216383 -0.029029
v 0.399908 -0.011711 -0.143718
v -0.058278 -0.011391 -0.144039
v -0.058283 -0.011386 -0.136879
v 0.399903 -0.011706 -0.136559
v 0.399978 0.198845 -0.033614
v -0.058208 0.199165 -0.033935
v -0.058215 0.193441 -0.029635
v 0.399971 0.193121 -0.029315
v 0.170592 -0.219088 -0.032051
v 0.170882 0.196143 -0.032341
v 0.385409 -0.190510 0.130191
v -0.044140 -0.190510 0.130191
v -0.044140 0.167448 0.130191
v 0.385409 0.167448 0.130191
v 0.385409 -0.190510 0.094395
v -0.044140 -0.190510 0.094395
v -0.044140 0.167448 0.094395
v 0.385409 0.167448 0.094395
v 0.388273 -0.193373 0.098834
v -0.047004 -0.193373 0.098834
v -0.047004 0.170312 0.098834
v 0.388273 0.170312 0.098834
v 0.388273 -0.193373 -0.044349
v -0.047004 -0.193373 -0.044349
v -0.047004 0.170312 -0.044349
v 0.388273 0.170312 -0.044349
v 0.385513 0.170335 -0.041613
v 0.385454 -0.011576 -0.138850
v 0.385259 -0.193350 -0.041359
v -0.044036 0.170635 -0.041913
v -0.044095 -0.011276 -0.139150
v -0.044290 -0.193050 -0.041659
v -0.200389 0.095067 0.027072
v -0.200273 0.095212 0.072890
v -0.159152 0.095197 0.026967
v -0.159036 0.095343 0.072786
v -0.132577 0.095067 0.027072
v -0.132461 0.095212 0.072890
v -0.091341 0.095197 0.026967
v -0.091224 0.095343 0.072786
v -0.477789 0.103016 0.031724
v -0.477539 0.103266 0.130191
v -0.296234 0.103476 0.031263
v -0.295984 0.103726 0.129730
vn 1.0000 -0.0008 0.0006
vn -0.0006 -0.0015 1.0000
vn -0.0006 -0.0014 1.0000
vn -1.0000 0.0008 -0.0006
vn -1.0000 0.0008 -0.0007
vn 0.0006 0.0015 -1.0000
vn -0.0003 -1.0000 -0.0014
vn 0.0003 1.0000 0.0015
vn -0.0003 -1.0000 -0.0015
vn 0.0000 1.0000 0.0016
vn -1.0000 0.0000 0.0000
vn 0.0000 -1.0000 -0.0016
vn 1.0000 0.0000 0.0000
vn 0.0000 0.9291 -0.3699
vn 0.0000 -0.9279 -0.3729
vn 0.0000 0.0016 -1.0000
vn -0.0025 1.0000 -0.0025
vn -0.0025 -1.0000 0.0025
vn -0.0007 1.0000 -0.0008
vn -0.0007 -0.0007 -1.0000
vn -0.0007 1.0000 -0.0006
vn -0.0007 1.0000 -0.0007
vn 0.0007 0.0007 1.0000
vn 0.0007 -1.0000 0.0007
vn -0.0007 -0.0239 -0.9997
vn -1.0000 -0.0007 0.0008
vn -1.0000 -0.0007 0.0007
vn -1.0000 -0.0007 0.0006
vn -0.9999 -0.0071 0.0105
vn 1.0000 0.0007 -0.0008
vn 1.0000 0.0007 -0.0007
vn 1.0000 0.0007 -0.0006
vn 1.0000 0.0006 -0.0010
vn 0.9999 0.0075 -0.0112
vn 0.0004 -0.6430 -0.7659
vn -1.0000 0.0006 -0.0005
vn -1.0000 0.0008 -0.0004
vn 1.0000 -0.0006 0.0005
vn 1.0000 -0.0008 0.0004
vn 0.0013 0.6417 -0.7670
vn -1.0000 0.0008 -0.0005
vn 1.0000 -0.0008 0.0005
vn -0.0013 -0.6240 0.7814
vn 0.0019 -0.7679 0.6406
vn -0.0012 -0.8477 0.5305
vn -0.0045 -0.7678 0.6407
vn -0.0004 0.6254 0.7803
vn 0.0030 0.7687 0.6396
vn 0.0000 0.8484 0.5294
vn -0.0034 0.7687 0.6396
vn -1.0000 0.0007 -0.0004
vn 0.0000 -1.0000 0.0000
vn 0.0000 1.0000 0.0000
vn 0.0004 -0.6185 -0.7858
vn -1.0000 0.0007 -0.0005
vn 1.0000 -0.0007 0.0005
vn 1.0000 -0.0006 0.0006
vn 0.0013 0.6172 -0.7868
vn 1.0000 -0.0007 0.0004
vn -0.0013 -0.5990 0.8007
vn 0.0019 -0.7469 0.6649
vn -0.0012 -0.8318 0.5551
vn -0.0043 -0.7469 0.6649
vn -0.0004 0.6005 0.7997
vn 0.0029 0.7479 0.6638
vn 0.0000 0.8325 0.5540
vn -0.0033 0.7479 0.6638
vn 0.0003 -0.4646 -0.8855
vn -1.0000 0.0007 -0.0007
vn 1.0000 -0.0007 0.0007
vn 0.0009 0.4634 -0.8862
vn -0.0009 -0.4465 0.8948
vn 0.0015 -0.5995 0.8004
vn -0.0010 -0.7067 0.7076
vn -0.0035 -0.5994 0.8004
vn -0.0003 0.4478 0.8941
vn 0.0024 0.6006 0.7995
vn 0.0000 0.7076 0.7066
vn -0.0026 0.6005 0.7996
vn -0.0032 1.0000 -0.0032
usemtl None
s off
f 1//1 6//1 5//1
f 1//1 2//1 6//1
f 2//2 7//2 6//2
f 2//3 3//3 7//3
f 3//4 8//4 7//4
f 3//5 4//5 8//5
f 4//6 5//6 8//6
f 4//6 1//6 5//6
f 5//7 10//7 9//7
f 5//7 6//7 10//7
f 6//2 11//2 10//2
f 6//2 7//2 11//2
f 7//8 12//8 11//8
f 7//8 8//8 12//8
f 8//6 9//6 12//6
f 8//6 5//6 9//6
f 9//4 14//4 13//4
f 9//4 10//4 14//4
f 10//2 15//2 14//2
f 10//2 11//2 15//2
f 11//1 16//1 15//1
f 11//1 12//1 16//1
f 12//6 13//6 16//6
f 12//6 9//6 13//6
f 13//8 2//8 1//8
f 13//8 14//8 2//8
f 14//2 3//2 2//2
f 14//2 15//2 3//2
f 15//7 4//7 3//7
f 15//9 16//9 4//9
f 16//6 1//6 4//6
f 16//6 13//6 1//6
f 17//10 18//10 22//10
f 17//10 22//10 21//10
f 18//11 19//11 23//11
f 18//11 23//11 22//11
f 19//12 20//12 24//12
f 19//12 24//12 23//12
f 20//13 17//13 21//13
f 20//13 21//13 24//13
f 25//14 26//14 30//14
f 25//14 30//14 29//14
f 26//11 27//11 31//11
f 26//11 31//11 30//11
f 27//15 28//15 32//15
f 27//15 32//15 31//15
f 28//13 25//13 29//13
f 28//13 29//13 32//13
f 33//10 34//10 38//10
f 33//10 38//10 37//10
f 34//11 35//11 39//11
f 34//11 39//11 38//11
f 35//12 36//12 40//12
f 35//12 40//12 39//12
f 36//13 33//13 37//13
f 36//13 37//13 40//13
f 35//16 33//16 36//16
f 34//16 33//16 35//16
f 41//17 42//17 44//17
f 41//17 44//17 43//17
f 45//17 46//17 48//17
f 45//17 48//17 47//17
f 49//17 50//17 52//17
f 49//17 52//17 51//17
f 53//17 54//17 56//17
f 53//17 56//17 55//17
f 57//11 58//11 60//11
f 57//11 60//11 59//11
f 61//11 62//11 64//11
f 61//11 64//11 63//11
f 65//17 66//17 68//17
f 65//17 68//17 67//17
f 69//18 70//18 72//18
f 69//18 72//18 71//18
f 73//18 74//18 76//18
f 73//18 76//18 75//18
f 77//19 78//19 90//19
f 77//19 90//19 89//19
f 78//20 79//20 91//20
f 78//20 91//20 90//20
f 79//21 80//21 92//21
f 79//21 92//21 91//21
f 80//20 81//20 93//20
f 80//20 93//20 92//20
f 81//22 82//22 94//22
f 81//22 94//22 93//22
f 82//20 83//20 95//20
f 82//20 95//20 94//20
f 83//22 84//22 96//22
f 83//22 96//22 95//22
f 84//20 85//20 97//20
f 84//20 97//20 96//20
f 85//21 86//21 98//21
f 85//22 98//22 97//22
f 86//23 87//23 99//23
f 86//23 99//23 98//23
f 87//24 88//24 100//24
f 87//24 100//24 99//24
f 88//25 77//25 89//25
f 88//25 89//25 100//25
f 88//26 78//26 77//26
f 87//27 78//27 88//27
f 85//27 87//27 86//27
f 84//28 87//28 85//28
f 82//27 84//27 83//27
f 82//27 87//27 84//27
f 82//27 78//27 87//27
f 80//27 82//27 81//27
f 80//29 78//29 82//29
f 80//28 79//28 78//28
f 100//30 89//30 90//30
f 99//31 100//31 90//31
f 97//32 98//32 99//32
f 96//33 97//33 99//33
f 94//32 95//32 96//32
f 94//32 96//32 99//32
f 94//31 99//31 90//31
f 92//31 93//31 94//31
f 92//34 94//34 90//34
f 92//32 90//32 91//32
f 101//35 106//35 105//35
f 101//35 102//35 106//35
f 102//36 107//36 106//36
f 102//37 103//37 107//37
f 104//38 105//38 108//38
f 104//39 101//39 105//39
f 105//40 110//40 109//40
f 105//40 106//40 110//40
f 106//41 111//41 110//41
f 106//41 107//41 111//41
f 108//42 109//42 112//42
f 108//42 105//42 109//42
f 113//43 102//43 101//43
f 113//44 103//44 102//44
f 113//45 104//45 103//45
f 113//46 101//46 104//46
f 114//47 109//47 110//47
f 114//48 110//48 111//48
f 114//49 111//49 112//49
f 114//50 112//50 109//50
f 116//51 117//51 115//51
f 119//51 120//51 118//51
f 121//52 122//52 126//52
f 121//52 126//52 125//52
f 122//11 123//11 127//11
f 122//11 127//11 126//11
f 123//53 124//53 128//53
f 123//53 128//53 127//53
f 124//13 121//13 125//13
f 124//13 125//13 128//13
f 129//52 130//52 134//52
f 129//52 134//52 133//52
f 130//11 131//11 135//11
f 130//11 135//11 134//11
f 131//53 132//53 136//53
f 131//53 136//53 135//53
f 132//13 129//13 133//13
f 132//13 133//13 136//13
f 137//54 142//54 141//54
f 137//54 138//54 142//54
f 138//55 143//55 142//55
f 138//55 139//55 143//55
f 140//56 141//56 144//56
f 140//57 137//57 141//57
f 141//58 146//58 145//58
f 141//58 142//58 146//58
f 142//55 147//55 146//55
f 142//55 143//55 147//55
f 144//59 145//59 148//59
f 144//56 141//56 145//56
f 149//60 138//60 137//60
f 149//61 139//61 138//61
f 149//62 140//62 139//62
f 149//63 137//63 140//63
f 150//64 145//64 146//64
f 150//65 146//65 147//65
f 150//66 147//66 148//66
f 150//67 148//67 145//67
f 152//56 151//56 153//56
f 155//56 154//56 156//56
f 157//52 158//52 162//52
f 157//52 162//52 161//52
f 158//11 159//11 163//11
f 158//11 163//11 162//11
f 159//53 160//53 164//53
f 159//53 164//53 163//53
f 160//13 157//13 161//13
f 160//13 161//13 164//13
f 165//52 166//52 170//52
f 165//52 170//52 169//52
f 166//11 167//11 171//11
f 166//11 171//11 170//11
f 167//53 168//53 172//53
f 167//53 172//53 171//53
f 168//13 165//13 169//13
f 168//13 169//13 172//13
f 173//68 178//68 177//68
f 173//68 174//68 178//68
f 174//69 179//69 178//69
f 174//69 175//69 179//69
f 176//70 177//70 180//70
f 176//70 173//70 177//70
f 177//71 182//71 181//71
f 177//71 178//71 182//71
f 178//69 183//69 182//69
f 178//69 179//69 183//69
f 180//70 181//70 184//70
f 180//70 177//70 181//70
f 185//72 174//72 173//72
f 185//73 175//73 174//73
f 185//74 176//74 175//74
f 185//75 173//75 176//75
f 186//76 181//76 182//76
f 186//77 182//77 183//77
f 186//78 183//78 184//78
f 186//79 184//79 181//79
f 187//52 188//52 192//52
f 187//52 192//52 191//52
f 188//11 189//11 193//11
f 188//11 193//11 192//11
f 189//53 190//53 194//53
f 189//53 194//53 193//53
f 190//13 187//13 191//13
f 190//13 191//13 194//13
f 195//52 196//52 200//52
f 195//52 200//52 199//52
f 196//11 197//11 201//11
f 196//11 201//11 200//11
f 197//53 198//53 202//53
f 197//53 202//53 201//53
f 198//13 195//13 199//13
f 198//13 199//13 202//13
f 204//69 205//69 203//69
f 207//70 206//70 208//70
f 209//80 210//80 212//80
f 209//80 212//80 211//80
f 213//80 214//80 216//80
f 213//80 216//80 215//80
f 217//17 218//17 220//17
f 217//17 220//17 219//17
