# Blender v2.79 (sub 0) OBJ File: ''
# www.blender.org
mtllib m449.mtl
o m449
v 0.092933 0.280227 -0.032687
v 0.092933 0.280227 -0.010419
v 0.092933 0.309793 -0.010419
v -0.091243 0.309793 -0.010419
v -0.091243 0.280227 -0.010419
v -0.091243 0.280227 -0.032687
v 0.328801 0.309793 -0.010419
v 0.328801 -0.381064 -0.010419
v 0.150613 -0.035635 -0.270239
v -0.148596 -0.035635 -0.270239
v -0.326783 -0.381064 -0.010419
v -0.326783 0.309793 -0.010419
v 0.092933 -0.351498 -0.010419
v 0.092933 -0.381064 -0.010419
v -0.091243 -0.381064 -0.010419
v -0.091243 -0.351498 -0.010419
v 0.092933 -0.351498 -0.032640
v -0.091243 -0.351498 -0.032640
v -0.114360 -0.169289 -0.167476
v 0.112320 -0.169289 -0.167476
v -0.114360 -0.373420 -0.093907
v 0.112320 -0.373420 -0.093907
v 0.112320 0.095132 -0.167476
v -0.114360 0.095133 -0.167476
v 0.112320 0.299263 -0.093907
v -0.114360 0.299263 -0.093907
v -0.296887 0.280252 0.228883
v 0.298888 0.280252 0.228883
v -0.296887 0.280252 -0.016451
v 0.298888 0.280252 -0.016451
v -0.296887 -0.351508 -0.016451
v 0.298888 -0.351508 -0.016451
v -0.296887 -0.351508 0.228883
v 0.298888 -0.351508 0.228883
v -0.082408 -0.351508 0.085492
v -0.036534 -0.351508 0.085492
v -0.036534 -0.351508 0.187154
v -0.082408 -0.351508 0.187154
v -0.221819 -0.351508 0.089973
v -0.173562 -0.351508 0.089973
v -0.173562 -0.351508 0.130582
v -0.221819 -0.351508 0.130582
v 0.101686 -0.351508 0.091093
v 0.152923 -0.351508 0.091093
v 0.152923 -0.351508 0.151026
v 0.101686 -0.351508 0.151026
v 0.298888 -0.179038 0.149906
v 0.298888 -0.228947 0.149906
v 0.298888 -0.228947 0.091093
v 0.298888 -0.179038 0.091093
v -0.296887 -0.167034 0.147385
v -0.296887 -0.111440 0.147385
v -0.296887 -0.111440 0.089973
v -0.296887 -0.167034 0.089973
v -0.090749 0.278987 0.228883
v 0.092750 0.280252 0.228883
v 0.092750 0.280252 -0.016171
v -0.090749 0.280252 -0.015891
v -0.090749 -0.351508 -0.016171
v 0.092750 -0.351508 -0.015891
v 0.092750 -0.351508 0.228883
v -0.090749 -0.351508 0.228883
v 0.092750 0.280252 -0.100190
v -0.090749 0.281514 -0.100190
v -0.090749 -0.351508 -0.100190
v 0.092750 -0.351508 -0.100190
v -0.090749 -0.241582 -0.016451
v 0.092750 -0.241582 -0.016451
v 0.092750 -0.160717 -0.169365
v -0.090749 -0.160717 -0.169365
v -0.090749 0.157689 -0.016451
v 0.092750 0.157689 -0.016451
v -0.090749 0.077456 -0.169365
v 0.092750 0.077456 -0.169365
v -0.296887 -0.038787 0.225242
v -0.296887 0.012385 0.225242
v -0.296887 0.012385 0.110977
v -0.296887 -0.038787 0.110977
v 0.298888 0.160848 0.145985
v 0.298888 0.107781 0.145985
v 0.298888 0.107781 0.086892
v 0.298888 0.160848 0.086892
v 0.223820 0.280252 0.157187
v 0.223820 0.280252 0.061686
v 0.167221 0.280252 0.061686
v 0.167221 0.280252 0.157187
v -0.221819 0.280252 0.061966
v -0.221819 0.280252 0.150466
v -0.165817 0.280252 0.150466
v -0.165817 0.280252 0.061966
v -0.024022 0.278987 0.187154
v 0.026023 0.280252 0.187154
v 0.026023 0.280252 0.061686
v -0.024022 0.280252 0.061686
v 0.023640 0.280252 -0.026814
v 0.059982 0.280252 -0.026814
v 0.059982 0.280252 -0.095149
v 0.023640 0.280252 -0.095149
v -0.057981 0.280252 -0.026814
v -0.021639 0.280252 -0.026814
v -0.021639 0.280252 -0.095149
v -0.057981 0.280252 -0.095149
v -0.053215 -0.351508 -0.092628
v -0.017469 -0.351508 -0.092628
v -0.017469 -0.351508 -0.026533
v -0.053215 -0.351508 -0.026533
v 0.020661 -0.351508 -0.092628
v 0.056407 -0.351508 -0.092628
v 0.056407 -0.351508 -0.026533
v 0.020661 -0.351508 -0.026533
v 0.298888 0.034496 0.224122
v 0.298888 -0.016044 0.224122
v 0.298888 -0.016044 0.104816
v 0.298888 0.034496 0.104816
v -0.296887 0.065453 0.058045
v -0.296887 0.109676 0.058045
v -0.296887 0.109676 0.014076
v -0.296887 0.065453 0.014076
v -0.011901 -0.425318 0.229205
v -0.103643 -0.425411 0.229205
v -0.103643 -0.441363 0.229205
v -0.011901 -0.441363 0.229205
v -0.103643 -0.425411 0.198143
v -0.011901 -0.425318 0.198143
v -0.011901 -0.441363 0.198143
v -0.103643 -0.441363 0.198143
v -0.011901 -0.425411 0.229205
v -0.103643 -0.425318 0.229205
v -0.103643 -0.351919 0.229205
v -0.103643 -0.351919 0.187991
v -0.103643 -0.425318 0.187991
v -0.103643 -0.441363 0.208341
v -0.103643 -0.457970 0.208341
v -0.103643 -0.457970 0.218071
v -0.103643 -0.474578 0.218071
v -0.103643 -0.474578 0.229158
v -0.103643 -0.457970 0.229158
v -0.103643 -0.457970 0.229205
v -0.011901 -0.425318 0.187991
v -0.011901 -0.351826 0.187991
v -0.011901 -0.351919 0.229205
v -0.011901 -0.457970 0.229205
v -0.011901 -0.457970 0.229158
v -0.011901 -0.474578 0.229158
v -0.011901 -0.474578 0.218071
v -0.011901 -0.457970 0.218071
v -0.011901 -0.457970 0.208341
v -0.011901 -0.441363 0.208341
v -0.244885 0.405724 0.052912
v 0.241941 0.405724 0.052912
v -0.082459 0.275463 0.006131
v 0.079515 0.275463 0.006131
v -0.244885 0.259166 0.052912
v 0.241941 0.259166 0.052912
v 0.199420 0.365945 0.191376
v 0.192403 0.372962 0.191376
v 0.199420 0.379979 0.191376
v 0.206437 0.372962 0.191376
v 0.199420 0.365945 0.051034
v 0.192403 0.372962 0.051034
v 0.199420 0.379979 0.051034
v 0.206437 0.372962 0.051034
v -0.082047 0.365945 0.191376
v -0.089065 0.372962 0.191376
v -0.082047 0.379979 0.191376
v -0.075030 0.372962 0.191376
v -0.082047 0.365945 0.051034
v -0.089065 0.372962 0.051034
v -0.082047 0.379979 0.051034
v -0.075030 0.372962 0.051034
v 0.059539 0.365945 0.191376
v 0.052522 0.372962 0.191376
v 0.059539 0.379979 0.191376
v 0.066556 0.372962 0.191376
v 0.059539 0.365945 0.051034
v 0.052522 0.372962 0.051034
v 0.059539 0.379979 0.051034
v 0.066556 0.372962 0.051034
v -0.227692 0.390236 0.229439
v 0.224748 0.390236 0.229439
v -0.227692 0.390236 0.182658
v 0.224748 0.390236 0.182658
v -0.227692 0.274654 0.182658
v 0.224748 0.274654 0.182658
v -0.227692 0.274654 0.229439
v 0.224748 0.274654 0.229439
v -0.076993 0.426162 0.229205
v 0.080287 0.426162 0.229205
v 0.080287 0.442208 0.229205
v 0.080287 0.426162 0.198143
v -0.076993 0.426162 0.198143
v -0.076993 0.442208 0.198143
v 0.080287 0.442208 0.198143
v 0.080287 0.352670 0.229205
v 0.080287 0.352670 0.187991
v 0.080287 0.426162 0.187991
v 0.080287 0.442208 0.208341
v 0.080287 0.458815 0.208341
v 0.080287 0.458815 0.218071
v 0.080287 0.475423 0.218071
v 0.080287 0.475423 0.229158
v 0.080287 0.458815 0.229158
v -0.076993 0.426162 0.187991
v -0.076993 0.352670 0.187991
v -0.076993 0.352670 0.229205
v -0.076993 0.442208 0.229205
v -0.076993 0.458815 0.229205
v -0.076993 0.458815 0.229158
v -0.076993 0.475423 0.229158
v -0.076993 0.475423 0.218071
v -0.076993 0.458815 0.218071
v -0.076993 0.458815 0.208341
v -0.076993 0.442208 0.208341
v -0.204264 0.365945 0.191376
v -0.211281 0.372962 0.191376
v -0.204264 0.379979 0.191376
v -0.197247 0.372962 0.191376
v -0.204264 0.365945 0.051034
v -0.211281 0.372962 0.051034
v -0.204264 0.379979 0.051034
v -0.197247 0.372962 0.051034
vn -1.0000 0.0000 0.0000
vn 1.0000 0.0000 0.0000
vn 0.8247 0.0000 -0.5656
vn -0.8247 0.0000 -0.5656
vn 0.0000 0.0000 1.0000
vn 0.0000 -0.6011 -0.7992
vn -0.0028 -0.6008 -0.7994
vn 0.0000 -0.6008 -0.7994
vn 0.0001 -0.6012 -0.7991
vn 0.0000 -0.6011 -0.7991
vn 0.0000 0.6011 -0.7992
vn -0.0048 0.6016 -0.7988
vn 0.0000 0.6016 -0.7988
vn 0.0001 0.6010 -0.7992
vn 0.0000 -0.3391 -0.9408
vn 0.0000 0.3391 -0.9408
vn 0.0032 1.0000 0.0052
vn -0.0055 0.9999 0.0101
vn -0.0069 0.9999 -0.0110
vn -0.0252 0.9989 0.0403
vn 0.0000 1.0000 0.0000
vn 0.0067 0.9795 0.2016
vn 0.0385 0.9993 0.0000
vn 0.2628 0.9596 -0.1008
vn 0.0000 -1.0000 0.0000
vn 0.0054 1.0000 0.0052
vn 0.0168 0.9999 0.0000
vn 0.0061 1.0000 0.0059
vn 0.0000 0.9999 0.0161
vn -0.0252 0.9997 0.0000
vn 0.0000 0.9999 0.0101
vn -0.0266 0.9995 0.0150
vn 0.0000 0.0000 -1.0000
vn 0.0010 -1.0000 -0.0092
vn 0.0000 0.3380 -0.9411
vn 0.2768 0.0000 -0.9609
vn -0.2768 0.0000 -0.9609
vn -0.7071 -0.7071 0.0000
vn -0.7071 0.7071 0.0000
vn 0.7071 0.7071 0.0000
vn 0.7071 -0.7071 0.0000
vn -0.7071 -0.7072 0.0000
vn -0.7071 0.7072 0.0000
usemtl None
s off
f 1//1 2//1 3//1
f 4//2 5//2 6//2
f 7//3 8//3 9//3
f 10//4 11//4 12//4
f 4//5 12//5 5//5
f 12//5 11//5 5//5
f 3//5 2//5 7//5
f 7//5 2//5 11//5
f 5//5 11//5 2//5
f 14//5 8//5 13//5
f 8//5 7//5 13//5
f 15//5 16//5 11//5
f 11//5 16//5 7//5
f 13//5 7//5 16//5
f 8//6 14//6 9//6
f 14//7 17//7 9//7
f 15//8 11//8 18//8
f 11//9 9//9 18//9
f 17//10 18//10 9//10
f 11//6 10//6 9//6
f 12//11 4//11 10//11
f 4//12 6//12 10//12
f 3//13 7//13 1//13
f 7//14 10//14 1//14
f 1//11 10//11 6//11
f 7//11 9//11 10//11
f 13//1 17//1 14//1
f 15//2 18//2 16//2
f 19//15 20//15 21//15
f 20//15 22//15 21//15
f 23//16 24//16 25//16
f 24//16 26//16 25//16
f 55//17 91//17 58//17
f 91//18 94//18 64//18
f 55//19 56//19 91//19
f 91//20 56//20 92//20
f 56//21 57//21 92//21
f 92//21 63//21 93//21
f 64//22 102//22 63//22
f 102//21 101//21 63//21
f 97//21 96//21 63//21
f 63//21 96//21 93//21
f 96//21 95//21 93//21
f 93//21 95//21 94//21
f 102//23 64//23 99//23
f 64//24 94//24 99//24
f 99//21 94//21 100//21
f 94//21 95//21 100//21
f 95//21 98//21 100//21
f 100//21 98//21 101//21
f 101//21 98//21 63//21
f 98//21 97//21 63//21
f 65//25 66//25 103//25
f 103//25 66//25 104//25
f 65//25 35//25 59//25
f 35//25 38//25 62//25
f 65//25 103//25 35//25
f 103//25 106//25 35//25
f 66//25 60//25 108//25
f 108//25 61//25 109//25
f 35//25 106//25 36//25
f 106//25 105//25 36//25
f 62//25 38//25 61//25
f 38//25 37//25 61//25
f 61//25 37//25 109//25
f 37//25 36//25 109//25
f 109//25 36//25 110//25
f 36//25 105//25 110//25
f 105//25 104//25 110//25
f 110//25 104//25 107//25
f 104//25 66//25 107//25
f 66//25 108//25 107//25
f 28//2 34//2 111//2
f 111//2 34//2 112//2
f 28//2 79//2 30//2
f 79//2 82//2 30//2
f 28//2 111//2 79//2
f 79//2 111//2 80//2
f 111//2 114//2 80//2
f 80//2 114//2 81//2
f 30//2 82//2 32//2
f 82//2 81//2 32//2
f 81//2 114//2 32//2
f 114//2 113//2 32//2
f 32//2 49//2 34//2
f 49//2 48//2 34//2
f 34//2 48//2 112//2
f 48//2 47//2 112//2
f 112//2 47//2 113//2
f 47//2 50//2 113//2
f 113//2 50//2 32//2
f 50//2 49//2 32//2
f 33//1 27//1 75//1
f 75//1 27//1 76//1
f 27//1 29//1 76//1
f 76//1 29//1 77//1
f 29//1 31//1 117//1
f 117//1 31//1 118//1
f 31//1 33//1 54//1
f 54//1 33//1 51//1
f 33//1 75//1 51//1
f 31//1 54//1 118//1
f 54//1 53//1 118//1
f 118//1 53//1 115//1
f 51//1 75//1 52//1
f 75//1 78//1 52//1
f 52//1 78//1 53//1
f 53//1 78//1 115//1
f 78//1 77//1 115//1
f 117//1 116//1 29//1
f 29//1 116//1 77//1
f 77//1 116//1 115//1
f 28//21 30//21 83//21
f 83//21 30//21 84//21
f 28//21 83//21 56//21
f 83//21 86//21 56//21
f 56//21 86//21 57//21
f 86//21 85//21 57//21
f 30//21 57//21 84//21
f 85//21 84//21 57//21
f 29//21 27//21 87//21
f 87//21 27//21 88//21
f 29//21 87//21 58//21
f 87//21 90//21 58//21
f 58//26 90//26 55//26
f 90//27 89//27 55//27
f 27//28 55//28 88//28
f 89//29 88//29 55//29
f 32//25 34//25 60//25
f 60//25 43//25 61//25
f 43//25 46//25 61//25
f 61//25 46//25 34//25
f 46//25 45//25 34//25
f 43//25 60//25 44//25
f 60//25 34//25 44//25
f 34//25 45//25 44//25
f 33//25 31//25 42//25
f 42//25 31//25 39//25
f 33//25 42//25 62//25
f 42//25 41//25 62//25
f 62//25 41//25 59//25
f 41//25 40//25 59//25
f 31//25 59//25 39//25
f 40//25 39//25 59//25
f 69//2 68//2 66//2
f 60//2 66//2 68//2
f 70//1 65//1 67//1
f 65//1 59//1 67//1
f 73//1 71//1 64//1
f 58//1 64//1 71//1
f 74//2 63//2 72//2
f 63//2 57//2 72//2
f 79//2 80//2 82//2
f 80//2 81//2 82//2
f 111//2 112//2 114//2
f 112//2 113//2 114//2
f 47//2 48//2 50//2
f 48//2 49//2 50//2
f 84//21 85//21 83//21
f 83//21 85//21 86//21
f 92//30 93//30 91//30
f 91//31 93//31 94//31
f 87//21 88//21 90//21
f 88//21 89//21 90//21
f 116//1 117//1 115//1
f 117//1 118//1 115//1
f 76//1 77//1 75//1
f 77//1 78//1 75//1
f 52//1 53//1 51//1
f 53//1 54//1 51//1
f 40//25 41//25 39//25
f 39//25 41//25 42//25
f 36//25 37//25 35//25
f 35//25 37//25 38//25
f 44//25 45//25 43//25
f 43//25 45//25 46//25
f 100//21 101//21 99//21
f 99//21 101//21 102//21
f 96//21 97//21 95//21
f 95//21 97//21 98//21
f 104//25 105//25 103//25
f 103//25 105//25 106//25
f 108//25 109//25 107//25
f 107//25 109//25 110//25
f 57//21 63//21 92//21
f 58//32 91//32 64//32
f 59//25 35//25 62//25
f 60//25 61//25 108//25
f 123//33 124//33 126//33
f 124//33 125//33 126//33
f 119//5 120//5 127//5
f 127//33 120//33 128//33
f 129//1 130//1 120//1
f 131//1 123//1 130//1
f 130//1 123//1 120//1
f 120//1 123//1 121//1
f 126//1 132//1 123//1
f 123//1 132//1 121//1
f 132//1 133//1 121//1
f 133//1 134//1 121//1
f 135//1 136//1 134//1
f 136//1 137//1 134//1
f 134//1 137//1 121//1
f 139//2 140//2 124//2
f 140//2 141//2 124//2
f 141//2 119//2 124//2
f 124//2 119//2 125//2
f 125//2 119//2 148//2
f 119//2 122//2 148//2
f 122//2 142//2 148//2
f 144//2 145//2 143//2
f 145//2 146//2 143//2
f 143//2 146//2 148//2
f 146//2 147//2 148//2
f 123//34 131//34 124//34
f 131//25 139//25 124//25
f 130//33 140//33 131//33
f 140//33 139//33 131//33
f 146//33 145//33 134//33
f 145//33 135//33 134//33
f 134//25 133//25 146//25
f 133//25 147//25 146//25
f 143//25 142//25 137//25
f 142//25 138//25 137//25
f 135//25 145//25 136//25
f 145//25 144//25 136//25
f 132//25 126//25 148//25
f 126//25 125//25 148//25
f 132//33 148//33 133//33
f 148//33 147//33 133//33
f 152//35 151//35 150//35
f 149//35 150//35 151//35
f 150//36 154//36 152//36
f 153//37 149//37 151//37
f 155//38 156//38 159//38
f 156//38 160//38 159//38
f 156//39 157//39 160//39
f 157//39 161//39 160//39
f 157//40 158//40 161//40
f 158//40 162//40 161//40
f 158//41 155//41 162//41
f 155//41 159//41 162//41
f 155//5 158//5 156//5
f 158//5 157//5 156//5
f 159//33 160//33 162//33
f 160//33 161//33 162//33
f 163//42 164//42 167//42
f 164//42 168//42 167//42
f 164//43 165//43 168//43
f 165//43 169//43 168//43
f 165//40 166//40 169//40
f 166//40 170//40 169//40
f 166//41 163//41 170//41
f 163//41 167//41 170//41
f 163//5 166//5 164//5
f 166//5 165//5 164//5
f 167//33 168//33 170//33
f 168//33 169//33 170//33
f 171//38 172//38 175//38
f 172//38 176//38 175//38
f 172//39 173//39 176//39
f 173//39 177//39 176//39
f 173//40 174//40 177//40
f 174//40 178//40 177//40
f 174//41 171//41 178//41
f 171//41 175//41 178//41
f 171//5 174//5 172//5
f 174//5 173//5 172//5
f 175//33 176//33 178//33
f 176//33 177//33 178//33
f 179//21 180//21 181//21
f 180//21 182//21 181//21
f 181//33 182//33 183//33
f 182//33 184//33 183//33
f 180//2 186//2 182//2
f 186//2 184//2 182//2
f 185//1 179//1 183//1
f 179//1 181//1 183//1
f 190//33 191//33 193//33
f 191//33 192//33 193//33
f 194//2 195//2 188//2
f 196//2 190//2 195//2
f 195//2 190//2 188//2
f 188//2 190//2 189//2
f 193//2 197//2 190//2
f 190//2 197//2 189//2
f 197//2 198//2 189//2
f 198//2 199//2 189//2
f 200//2 201//2 199//2
f 201//2 202//2 199//2
f 199//2 202//2 189//2
f 203//1 204//1 191//1
f 204//1 205//1 191//1
f 205//1 187//1 191//1
f 191//1 187//1 192//1
f 192//1 187//1 213//1
f 187//1 206//1 213//1
f 206//1 207//1 213//1
f 209//1 210//1 208//1
f 210//1 211//1 208//1
f 208//1 211//1 213//1
f 211//1 212//1 213//1
f 190//21 196//21 191//21
f 196//21 203//21 191//21
f 195//33 204//33 196//33
f 204//33 203//33 196//33
f 211//33 210//33 199//33
f 210//33 200//33 199//33
f 199//21 198//21 211//21
f 198//21 212//21 211//21
f 200//21 210//21 201//21
f 210//21 209//21 201//21
f 197//21 193//21 213//21
f 193//21 192//21 213//21
f 197//33 213//33 198//33
f 213//33 212//33 198//33
f 214//38 215//38 218//38
f 215//38 219//38 218//38
f 215//39 216//39 219//39
f 216//39 220//39 219//39
f 216//40 217//40 220//40
f 217//40 221//40 220//40
f 217//41 214//41 221//41
f 214//41 218//41 221//41
f 214//5 217//5 215//5
f 217//5 216//5 215//5
f 218//33 219//33 221//33
f 219//33 220//33 221//33
