# Blender v2.79 (sub 0) OBJ File: ''
# www.blender.org
mtllib m455.mtl
o m455
v -0.365807 0.295553 0.248460
v -0.365807 0.295553 -0.096995
v -0.063534 0.338735 -0.269722
v -0.063534 0.209190 -0.269722
v 0.066011 0.209190 -0.269722
v 0.066011 0.338735 -0.269722
v 0.325102 0.381917 -0.096995
v 0.325102 0.381917 0.248460
v 0.066011 0.381917 0.248460
v 0.066011 0.209190 0.248460
v -0.063534 0.209190 0.248460
v -0.063534 0.338735 0.248460
v 0.066011 0.381917 -0.096995
v 0.066011 0.338735 -0.096995
v -0.063534 0.295553 -0.096995
v -0.063534 0.295553 0.248460
v 0.066011 0.338735 0.248460
v 0.195557 0.381917 -0.183358
v 0.325102 0.122826 0.248460
v 0.325102 0.122826 -0.096995
v 0.325102 0.252372 -0.183358
v 0.195557 0.252372 -0.183358
v 0.238738 0.122826 -0.096995
v 0.238738 -0.308992 -0.096995
v 0.152375 -0.308992 -0.096995
v 0.152375 -0.568083 -0.096995
v -0.106716 -0.568083 -0.096995
v 0.238738 0.122826 0.248460
v 0.238738 -0.308992 0.248460
v 0.152375 -0.308992 0.248460
v 0.152375 -0.568083 0.248460
v -0.106716 -0.568083 0.248460
v -0.106716 -0.308992 -0.096995
v -0.106716 -0.308992 0.248460
v -0.193080 -0.308992 -0.096995
v -0.193080 -0.308992 0.248460
v -0.193080 -0.179447 -0.096995
v -0.193080 -0.179447 0.248460
v -0.279443 -0.179447 -0.096995
v -0.279443 -0.179447 0.248460
v -0.279443 0.036462 -0.096995
v -0.279443 0.036462 0.248460
v -0.365807 0.036462 -0.096995
v -0.365807 0.036462 0.248460
v -0.365807 0.166008 -0.183358
v 0.152375 0.122826 -0.096995
v -0.106716 0.036462 -0.096995
v 0.066011 0.295553 -0.096995
v 0.022829 0.166008 -0.183358
v 0.022829 -0.568083 -0.183358
v 0.195557 0.166008 -0.183358
v -0.193080 0.122826 -0.096995
vn 0.0000 1.0000 0.0000
vn -1.0000 0.0000 0.0000
vn 0.0000 -1.0000 0.0000
vn 1.0000 0.0000 0.0000
vn 0.0000 0.0000 -1.0000
vn 0.5547 0.0000 -0.8321
vn 0.0000 0.5547 -0.8321
vn -0.5547 0.0000 -0.8321
vn 0.0000 -0.8944 -0.4472
vn 0.0000 -0.5547 -0.8321
vn 0.3468 -0.5203 -0.7804
usemtl None
s off
f 1//1 16//1 15//1
f 12//1 17//1 6//1
f 11//2 12//2 3//2
f 11//3 4//3 5//3
f 9//4 10//4 5//4
f 3//5 6//5 5//5
f 9//1 8//1 7//1
f 17//2 9//2 13//2
f 13//1 7//1 18//1
f 8//4 19//4 20//4
f 7//4 20//4 21//4
f 7//6 22//6 18//6
f 7//7 21//7 22//7
f 51//7 45//7 2//7
f 51//8 48//8 13//8
f 51//5 22//5 21//5
f 49//9 51//9 23//9
f 20//9 23//9 51//9
f 49//6 46//6 26//6
f 46//5 23//5 24//5
f 49//9 23//9 46//9
f 49//8 50//8 27//8
f 49//10 47//10 41//10
f 52//5 37//5 39//5
f 47//5 33//5 35//5
f 20//3 19//3 28//3
f 23//4 28//4 29//4
f 24//3 29//3 30//3
f 25//4 30//4 31//4
f 26//3 31//3 32//3
f 27//2 32//2 34//2
f 33//3 34//3 36//3
f 35//2 36//2 38//2
f 37//3 38//3 40//3
f 39//2 40//2 42//2
f 41//3 42//3 44//3
f 43//2 44//2 1//2
f 1//1 15//1 2//1
f 12//1 6//1 3//1
f 11//2 3//2 4//2
f 11//3 5//3 10//3
f 9//4 5//4 6//4
f 3//5 5//5 4//5
f 9//1 7//1 13//1
f 17//2 13//2 14//2
f 8//4 20//4 7//4
f 51//7 2//7 48//7
f 51//8 13//8 18//8
f 51//11 21//11 20//11
f 49//6 26//6 50//6
f 46//5 24//5 25//5
f 49//8 27//8 47//8
f 49//10 41//10 43//10
f 49//10 43//10 45//10
f 52//5 39//5 41//5
f 47//5 35//5 52//5
f 20//3 28//3 23//3
f 23//4 29//4 24//4
f 24//3 30//3 25//3
f 25//4 31//4 26//4
f 26//3 32//3 27//3
f 26//3 27//3 50//3
f 27//2 34//2 33//2
f 33//3 36//3 35//3
f 35//2 38//2 37//2
f 37//3 40//3 39//3
f 39//2 42//2 41//2
f 41//3 44//3 43//3
f 43//2 1//2 2//2
f 43//2 2//2 45//2
