# Blender v2.79 (sub 0) OBJ File: ''
# www.blender.org
mtllib m459.mtl
o m459
v 0.000000 -0.475000 -0.377121
v 0.316666 -0.475000 -0.139621
v 0.316666 -0.475000 0.256212
v -0.316667 -0.475000 0.256212
v -0.316667 -0.475000 -0.139621
v 0.000000 0.475000 -0.377121
v 0.316666 0.475000 -0.139621
v 0.316666 0.475000 0.256212
v -0.316667 0.475000 0.256212
v -0.316667 0.475000 -0.139621
vn 0.0000 -1.0000 0.0000
vn 0.0000 1.0000 0.0000
vn 1.0000 0.0000 0.0000
vn -1.0000 0.0000 0.0000
vn 0.0000 0.0000 1.0000
vn 0.6000 0.0000 -0.8000
vn -0.6000 0.0000 -0.8000
usemtl None
s off
f 1//1 4//1 5//1
f 6//2 8//2 7//2
f 7//3 3//3 2//3
f 10//4 4//4 9//4
f 4//5 8//5 9//5
f 6//6 2//6 1//6
f 6//7 5//7 10//7
f 1//1 3//1 4//1
f 1//1 2//1 3//1
f 6//2 9//2 8//2
f 6//2 10//2 9//2
f 7//3 8//3 3//3
f 10//4 5//4 4//4
f 4//5 3//5 8//5
f 6//6 7//6 2//6
f 6//7 1//7 5//7
