# Blender v2.79 (sub 0) OBJ File: ''
# www.blender.org
mtllib m462.mtl
o m462
v -0.277986 0.484961 0.305338
v 0.287447 0.484961 0.305338
v -0.277986 0.484961 0.004290
v 0.287447 0.484961 0.005209
v -0.277986 -0.462282 0.012559
v 0.286883 -0.462282 -0.015310
v -0.277986 -0.462282 0.305338
v 0.286883 -0.462282 0.305338
v 0.002754 0.484961 -0.273482
v 0.002754 -0.462282 -0.273482
v -0.195515 0.484961 -0.169662
v -0.194950 -0.462282 -0.171193
v 0.200458 0.484961 -0.170581
v 0.213450 -0.463201 -0.170887
v -0.277986 0.416973 0.305338
v 0.286883 0.416973 0.305338
v 0.284623 0.416973 -0.000916
v 0.200458 0.416973 -0.167824
v 0.002754 0.416973 -0.269195
v -0.194950 0.416973 -0.166906
v -0.275162 0.416973 -0.000916
v 0.329813 0.483124 0.045022
v 0.330377 -0.464120 0.045022
v -0.323175 0.485880 0.095554
v -0.324870 -0.461363 0.112092
vn 0.0000 1.0000 -0.0000
vn -0.9010 0.0002 -0.4337
vn 0.0000 -1.0000 0.0000
vn 1.0000 -0.0006 0.0000
vn -1.0000 0.0000 0.0000
vn 0.4617 0.0066 -0.8870
vn -0.4639 0.0000 -0.8859
vn 0.8575 0.0005 -0.5145
vn -0.9090 -0.0057 -0.4168
vn -0.0030 -1.0000 -0.0029
vn 0.0003 -1.0000 0.0058
vn 0.4378 0.0000 -0.8991
vn -0.4595 0.0012 -0.8882
vn 0.8793 0.0122 -0.4761
usemtl None
s off
f 15//1 16//1 17//1
f 24//2 11//2 12//2
f 5//3 12//3 10//3
f 2//4 8//4 6//4
f 7//5 1//5 3//5
f 9//6 13//6 14//6
f 11//7 9//7 10//7
f 13//8 22//8 23//8
f 15//1 17//1 18//1
f 15//1 18//1 19//1
f 15//1 19//1 20//1
f 15//1 20//1 21//1
f 24//9 12//9 25//9
f 5//10 10//10 14//10
f 5//11 14//11 6//11
f 5//3 6//3 8//3
f 5//3 8//3 7//3
f 2//4 6//4 4//4
f 7//5 3//5 5//5
f 9//12 14//12 10//12
f 11//13 10//13 12//13
f 13//14 23//14 14//14
