# Blender v2.79 (sub 0) OBJ File: ''
# www.blender.org
mtllib m475.mtl
o m475
v -0.487936 -0.487943 0.024141
v 0.462064 -0.487943 0.024141
v -0.487936 0.462057 0.024141
v 0.462064 0.462057 0.024141
v 0.044882 0.044875 0.019981
v 0.051152 0.044812 0.019091
v -0.020024 -0.026365 -0.477476
v -0.026295 -0.026302 -0.476586
v 0.044819 0.051145 0.019091
v 0.051089 0.051082 0.018201
v -0.020087 -0.020094 -0.478366
v -0.026358 -0.020031 -0.477476
v 0.304047 0.303344 0.023444
v 0.264717 0.233867 0.008054
v 0.239447 0.170154 -0.004043
v 0.224691 0.108530 -0.013289
v 0.218674 0.046907 -0.019496
v 0.220384 -0.016363 -0.022156
v 0.229251 -0.082926 -0.020509
v 0.245401 -0.154810 -0.013479
v 0.269531 -0.235053 0.000517
v 0.303857 -0.328976 0.024014
v 0.234444 0.264140 0.008054
v 0.217217 0.216704 -0.002776
v 0.202207 0.163567 -0.014113
v 0.193531 0.108910 -0.024246
v 0.191061 0.052987 -0.032289
v 0.194481 -0.004583 -0.037799
v 0.203347 -0.064306 -0.039953
v 0.217281 -0.126500 -0.038053
v 0.235457 -0.190720 -0.031909
v 0.254394 -0.250126 -0.023676
v 0.170541 0.238934 -0.004106
v 0.163891 0.201820 -0.014176
v 0.158381 0.158057 -0.025576
v 0.155974 0.110430 -0.037103
v 0.157621 0.060650 -0.047743
v 0.163257 0.009287 -0.056736
v 0.172441 -0.043026 -0.063386
v 0.184474 -0.095466 -0.067312
v 0.198091 -0.145626 -0.068706
v 0.210884 -0.189200 -0.068516
v 0.108791 0.224304 -0.013353
v 0.109107 0.193144 -0.024246
v 0.110627 0.155714 -0.037103
v 0.114174 0.114040 -0.050972
v 0.120127 0.069770 -0.064906
v 0.128361 0.024234 -0.078079
v 0.138431 -0.021430 -0.089796
v 0.149767 -0.065700 -0.099612
v 0.161104 -0.106423 -0.107339
v 0.171237 -0.140813 -0.113166
v 0.047041 0.218350 -0.019559
v 0.053057 0.190800 -0.032353
v 0.060721 0.157424 -0.047806
v 0.069841 0.119994 -0.064906
v 0.080227 0.080157 -0.082892
v 0.091501 0.039434 -0.100942
v 0.103217 -0.000846 -0.118232
v 0.114744 -0.039100 -0.134129
v 0.125447 -0.073490 -0.148062
v 0.134441 -0.102053 -0.159336
v -0.016356 0.220060 -0.022219
v -0.004576 0.194284 -0.037863
v 0.009294 0.163060 -0.056799
v 0.024241 0.128227 -0.078079
v 0.039441 0.091430 -0.100942
v 0.054197 0.054127 -0.124502
v 0.068004 0.017774 -0.148062
v 0.080544 -0.016236 -0.170736
v 0.091437 -0.046446 -0.191382
v 0.100241 -0.071273 -0.208672
v -0.083046 0.229054 -0.020573
v -0.064426 0.203150 -0.040016
v -0.043146 0.172244 -0.063449
v -0.021486 0.138360 -0.089859
v -0.000903 0.103147 -0.118232
v 0.017781 0.067997 -0.148126
v 0.034121 0.034177 -0.178779
v 0.048054 0.002827 -0.209369
v 0.059517 -0.024786 -0.238186
v 0.068384 -0.047396 -0.262822
v -0.155119 0.245204 -0.013543
v -0.126746 0.217084 -0.038116
v -0.095649 0.184340 -0.067376
v -0.065819 0.149634 -0.099676
v -0.039219 0.114674 -0.134192
v -0.016293 0.080537 -0.170799
v 0.002771 0.048110 -0.209369
v 0.018161 0.018217 -0.249396
v 0.030067 -0.008193 -0.288979
v 0.038997 -0.029790 -0.324002
v -0.235426 0.269397 0.000454
v -0.191093 0.235387 -0.031973
v -0.145873 0.197957 -0.068769
v -0.106669 0.161034 -0.107402
v -0.073673 0.125377 -0.148062
v -0.046566 0.091430 -0.191446
v -0.024906 0.059510 -0.238186
v -0.008249 0.030124 -0.288979
v 0.003721 0.003777 -0.343572
v 0.012017 -0.018263 -0.395316
v -0.329603 0.303724 0.023951
v -0.250626 0.254260 -0.023739
v -0.189573 0.210814 -0.068579
v -0.141059 0.171167 -0.113229
v -0.102236 0.134434 -0.159399
v -0.071456 0.100170 -0.208672
v -0.047516 0.068377 -0.262886
v -0.029909 0.039054 -0.324066
v -0.018319 0.012010 -0.395379
v -0.012936 -0.012943 -0.482526
vn 0.0000 0.0000 1.0000
vn 0.0100 -0.9900 0.1405
vn 0.1405 0.1405 0.9801
vn -0.9900 0.0100 0.1405
vn -0.1405 -0.1405 -0.9801
vn 0.9900 -0.0100 -0.1405
vn -0.0100 0.9900 -0.1405
vn 0.1136 0.1817 -0.9768
vn 0.1817 0.1135 -0.9768
vn 0.1636 0.1614 -0.9732
vn 0.2459 0.0858 -0.9655
vn 0.2351 0.1410 -0.9617
vn 0.3318 0.0618 -0.9413
vn 0.3306 0.1200 -0.9361
vn 0.4287 0.0490 -0.9021
vn 0.4379 0.1114 -0.8921
vn 0.5329 0.0499 -0.8447
vn 0.5504 0.1115 -0.8274
vn 0.6283 0.0645 -0.7753
vn 0.6507 0.1229 -0.7493
vn 0.7050 0.0896 -0.7035
vn 0.7286 0.1421 -0.6700
vn 0.7604 0.1173 -0.6388
vn 0.7853 0.1678 -0.5959
vn 0.7961 0.1439 -0.5878
vn 0.0865 0.2464 -0.9653
vn 0.1625 0.1632 -0.9731
vn 0.1407 0.2329 -0.9623
vn 0.2342 0.1391 -0.9622
vn 0.2211 0.2188 -0.9504
vn 0.3259 0.1221 -0.9375
vn 0.3243 0.2080 -0.9228
vn 0.4375 0.1091 -0.8926
vn 0.4486 0.2017 -0.8707
vn 0.5512 0.1119 -0.8269
vn 0.5718 0.2015 -0.7953
vn 0.6523 0.1238 -0.7478
vn 0.6780 0.2083 -0.7050
vn 0.7308 0.1433 -0.6674
vn 0.7577 0.2228 -0.6134
vn 0.7862 0.1655 -0.5954
vn 0.8114 0.2359 -0.5348
vn 0.8193 0.1860 -0.5423
vn 0.0629 0.3299 -0.9419
vn 0.1394 0.2360 -0.9617
vn 0.1205 0.3269 -0.9374
vn 0.2187 0.2201 -0.9507
vn 0.2068 0.3248 -0.9229
vn 0.3242 0.2070 -0.9231
vn 0.3230 0.3234 -0.8894
vn 0.4477 0.2010 -0.8713
vn 0.4577 0.3225 -0.8286
vn 0.5725 0.2020 -0.7946
vn 0.5903 0.3203 -0.7409
vn 0.6790 0.2087 -0.7038
vn 0.6995 0.3207 -0.6386
vn 0.7590 0.2200 -0.6128
vn 0.7777 0.3193 -0.5415
vn 0.8101 0.2348 -0.5372
vn 0.8255 0.3218 -0.4637
vn 0.8414 0.2449 -0.4817
vn 0.0492 0.4295 -0.9017
vn 0.1217 0.3287 -0.9366
vn 0.1107 0.4384 -0.8919
vn 0.2089 0.3253 -0.9223
vn 0.2022 0.4473 -0.8712
vn 0.3230 0.3235 -0.8894
vn 0.3219 0.4580 -0.8286
vn 0.4575 0.3224 -0.8287
vn 0.4616 0.4631 -0.7566
vn 0.5913 0.3209 -0.7399
vn 0.5973 0.4567 -0.6593
vn 0.7012 0.3183 -0.6379
vn 0.7056 0.4426 -0.5534
vn 0.7771 0.3193 -0.5424
vn 0.7781 0.4283 -0.4594
vn 0.8258 0.3182 -0.4657
vn 0.8242 0.4126 -0.3879
vn 0.8534 0.3210 -0.4106
vn 0.0498 0.5347 -0.8436
vn 0.1118 0.4385 -0.8918
vn 0.1124 0.5513 -0.8267
vn 0.2014 0.4493 -0.8704
vn 0.2017 0.5722 -0.7949
vn 0.3220 0.4572 -0.8290
vn 0.3205 0.5919 -0.7395
vn 0.4626 0.4622 -0.7566
vn 0.4568 0.5971 -0.6593
vn 0.5966 0.4574 -0.6594
vn 0.5850 0.5857 -0.5610
vn 0.7042 0.4430 -0.5548
vn 0.6874 0.5610 -0.4613
vn 0.7784 0.4261 -0.4610
vn 0.7587 0.5312 -0.3770
vn 0.8235 0.4136 -0.3883
vn 0.8035 0.5048 -0.3157
vn 0.8507 0.4017 -0.3391
vn 0.0657 0.6288 -0.7748
vn 0.1115 0.5523 -0.8261
vn 0.1235 0.6522 -0.7480
vn 0.2010 0.5717 -0.7955
vn 0.2083 0.6806 -0.7024
vn 0.3215 0.5903 -0.7404
vn 0.3196 0.7007 -0.6378
vn 0.4561 0.5979 -0.6591
vn 0.4422 0.7058 -0.5535
vn 0.5862 0.5855 -0.5599
vn 0.5608 0.6882 -0.4604
vn 0.6886 0.5600 -0.4606
vn 0.6560 0.6559 -0.3734
vn 0.7592 0.5309 -0.3765
vn 0.7246 0.6183 -0.3043
vn 0.8038 0.5048 -0.3146
vn 0.7714 0.5822 -0.2567
vn 0.8301 0.4854 -0.2743
vn 0.0893 0.7050 -0.7036
vn 0.1226 0.6507 -0.7494
vn 0.1433 0.7316 -0.6665
vn 0.2089 0.6781 -0.7046
vn 0.2207 0.7594 -0.6121
vn 0.3195 0.7011 -0.6375
vn 0.3179 0.7775 -0.5426
vn 0.4428 0.7051 -0.5538
vn 0.4259 0.7792 -0.4598
vn 0.5598 0.6890 -0.4603
vn 0.5302 0.7597 -0.3766
vn 0.6561 0.6557 -0.3737
vn 0.6184 0.7249 -0.3036
vn 0.7249 0.6184 -0.3036
vn 0.6861 0.6834 -0.2496
vn 0.7696 0.5855 -0.2549
vn 0.7317 0.6475 -0.2127
vn 0.7996 0.5573 -0.2237
vn 0.1185 0.7617 -0.6370
vn 0.1436 0.7294 -0.6688
vn 0.1669 0.7864 -0.5948
vn 0.2227 0.7586 -0.6123
vn 0.2346 0.8106 -0.5366
vn 0.3194 0.7780 -0.5410
vn 0.3185 0.8257 -0.4656
vn 0.4270 0.7787 -0.4597
vn 0.4122 0.8245 -0.3876
vn 0.5301 0.7597 -0.3765
vn 0.5043 0.8039 -0.3153
vn 0.6167 0.7256 -0.3052
vn 0.5832 0.7713 -0.2550
vn 0.6834 0.6861 -0.2496
vn 0.6472 0.7324 -0.2115
vn 0.7324 0.6472 -0.2115
vn 0.6963 0.6938 -0.1839
vn 0.7618 0.6199 -0.1880
vn 0.1434 0.7960 -0.5881
vn 0.1666 0.7855 -0.5961
vn 0.1848 0.8195 -0.5424
vn 0.2364 0.8113 -0.5348
vn 0.2456 0.8418 -0.4807
vn 0.3218 0.8260 -0.4629
vn 0.3210 0.8540 -0.4095
vn 0.4146 0.8240 -0.3862
vn 0.4039 0.8498 -0.3387
vn 0.5017 0.8051 -0.3165
vn 0.4823 0.8318 -0.2748
vn 0.5827 0.7711 -0.2566
vn 0.5573 0.7998 -0.2230
vn 0.6461 0.7331 -0.2123
vn 0.6194 0.7622 -0.1884
vn 0.6933 0.6967 -0.1842
vn 0.6651 0.7278 -0.1673
vn 0.7267 0.6663 -0.1673
usemtl None
s off
f 1//1 2//1 4//1
f 1//1 4//1 3//1
f 5//2 8//2 6//2
f 6//2 8//2 7//2
f 5//3 10//3 9//3
f 5//3 6//3 10//3
f 5//4 9//4 8//4
f 8//4 9//4 12//4
f 8//5 12//5 11//5
f 8//5 11//5 7//5
f 6//6 11//6 10//6
f 6//6 7//6 11//6
f 10//7 12//7 9//7
f 10//7 11//7 12//7
f 13//8 24//8 23//8
f 13//9 14//9 24//9
f 14//10 25//10 24//10
f 14//11 15//11 25//11
f 15//12 26//12 25//12
f 15//13 16//13 26//13
f 16//14 27//14 26//14
f 16//15 17//15 27//15
f 17//16 28//16 27//16
f 17//17 18//17 28//17
f 18//18 29//18 28//18
f 18//19 19//19 29//19
f 19//20 30//20 29//20
f 19//21 20//21 30//21
f 20//22 31//22 30//22
f 20//23 21//23 31//23
f 21//24 32//24 31//24
f 21//25 22//25 32//25
f 23//26 34//26 33//26
f 23//27 24//27 34//27
f 24//28 35//28 34//28
f 24//29 25//29 35//29
f 25//30 36//30 35//30
f 25//31 26//31 36//31
f 26//32 37//32 36//32
f 26//33 27//33 37//33
f 27//34 38//34 37//34
f 27//35 28//35 38//35
f 28//36 39//36 38//36
f 28//37 29//37 39//37
f 29//38 40//38 39//38
f 29//39 30//39 40//39
f 30//40 41//40 40//40
f 30//41 31//41 41//41
f 31//42 42//42 41//42
f 31//43 32//43 42//43
f 33//44 44//44 43//44
f 33//45 34//45 44//45
f 34//46 45//46 44//46
f 34//47 35//47 45//47
f 35//48 46//48 45//48
f 35//49 36//49 46//49
f 36//50 47//50 46//50
f 36//51 37//51 47//51
f 37//52 48//52 47//52
f 37//53 38//53 48//53
f 38//54 49//54 48//54
f 38//55 39//55 49//55
f 39//56 50//56 49//56
f 39//57 40//57 50//57
f 40//58 51//58 50//58
f 40//59 41//59 51//59
f 41//60 52//60 51//60
f 41//61 42//61 52//61
f 43//62 54//62 53//62
f 43//63 44//63 54//63
f 44//64 55//64 54//64
f 44//65 45//65 55//65
f 45//66 56//66 55//66
f 45//67 46//67 56//67
f 46//68 57//68 56//68
f 46//69 47//69 57//69
f 47//70 58//70 57//70
f 47//71 48//71 58//71
f 48//72 59//72 58//72
f 48//73 49//73 59//73
f 49//74 60//74 59//74
f 49//75 50//75 60//75
f 50//76 61//76 60//76
f 50//77 51//77 61//77
f 51//78 62//78 61//78
f 51//79 52//79 62//79
f 53//80 64//80 63//80
f 53//81 54//81 64//81
f 54//82 65//82 64//82
f 54//83 55//83 65//83
f 55//84 66//84 65//84
f 55//85 56//85 66//85
f 56//86 67//86 66//86
f 56//87 57//87 67//87
f 57//88 68//88 67//88
f 57//89 58//89 68//89
f 58//90 69//90 68//90
f 58//91 59//91 69//91
f 59//92 70//92 69//92
f 59//93 60//93 70//93
f 60//94 71//94 70//94
f 60//95 61//95 71//95
f 61//96 72//96 71//96
f 61//97 62//97 72//97
f 63//98 74//98 73//98
f 63//99 64//99 74//99
f 64//100 75//100 74//100
f 64//101 65//101 75//101
f 65//102 76//102 75//102
f 65//103 66//103 76//103
f 66//104 77//104 76//104
f 66//105 67//105 77//105
f 67//106 78//106 77//106
f 67//107 68//107 78//107
f 68//108 79//108 78//108
f 68//109 69//109 79//109
f 69//110 80//110 79//110
f 69//111 70//111 80//111
f 70//112 81//112 80//112
f 70//113 71//113 81//113
f 71//114 82//114 81//114
f 71//115 72//115 82//115
f 73//116 84//116 83//116
f 73//117 74//117 84//117
f 74//118 85//118 84//118
f 74//119 75//119 85//119
f 75//120 86//120 85//120
f 75//121 76//121 86//121
f 76//122 87//122 86//122
f 76//123 77//123 87//123
f 77//124 88//124 87//124
f 77//125 78//125 88//125
f 78//126 89//126 88//126
f 78//127 79//127 89//127
f 79//128 90//128 89//128
f 79//129 80//129 90//129
f 80//130 91//130 90//130
f 80//131 81//131 91//131
f 81//132 92//132 91//132
f 81//133 82//133 92//133
f 83//134 94//134 93//134
f 83//135 84//135 94//135
f 84//136 95//136 94//136
f 84//137 85//137 95//137
f 85//138 96//138 95//138
f 85//139 86//139 96//139
f 86//140 97//140 96//140
f 86//141 87//141 97//141
f 87//142 98//142 97//142
f 87//143 88//143 98//143
f 88//144 99//144 98//144
f 88//145 89//145 99//145
f 89//146 100//146 99//146
f 89//147 90//147 100//147
f 90//148 101//148 100//148
f 90//149 91//149 101//149
f 91//150 102//150 101//150
f 91//151 92//151 102//151
f 93//152 104//152 103//152
f 93//153 94//153 104//153
f 94//154 105//154 104//154
f 94//155 95//155 105//155
f 95//156 106//156 105//156
f 95//157 96//157 106//157
f 96//158 107//158 106//158
f 96//159 97//159 107//159
f 97//160 108//160 107//160
f 97//161 98//161 108//161
f 98//162 109//162 108//162
f 98//163 99//163 109//163
f 99//164 110//164 109//164
f 99//165 100//165 110//165
f 100//166 111//166 110//166
f 100//167 101//167 111//167
f 101//168 112//168 111//168
f 101//169 102//169 112//169
