# Blender v2.79 (sub 0) OBJ File: ''
# www.blender.org
mtllib m514.mtl
o m514
v -0.044186 -0.048554 0.684916
v 0.038602 -0.048554 0.684916
v 0.038602 -0.048554 0.026746
v -0.044186 -0.048554 0.026746
v -0.044186 0.034235 0.684916
v 0.038602 0.034235 0.684916
v 0.038602 0.034235 0.026746
v -0.044186 0.034235 0.026746
v -0.149742 0.241206 0.024262
v -0.149742 -0.296920 0.024262
v 0.144158 -0.296920 0.024262
v 0.144158 0.241206 0.024262
v -0.002792 0.241206 -0.265084
v -0.002792 -0.305199 -0.265084
v -0.075422 -0.305199 -0.248526
v -0.075422 0.241206 -0.248526
v -0.129473 -0.305199 -0.202992
v -0.129473 0.241206 -0.202992
v -0.149742 -0.305199 -0.140901
v -0.149742 0.241206 -0.140901
v -0.149742 -0.305199 0.024676
v -0.149742 0.241206 0.024676
v 0.069839 -0.305199 -0.248526
v 0.069839 0.241206 -0.248526
v 0.123889 -0.305199 -0.202992
v 0.123889 0.241206 -0.202992
v 0.144158 -0.305199 -0.140901
v 0.144158 0.241206 -0.140901
v 0.144158 -0.305199 0.024676
v 0.144158 0.241206 0.024676
v 0.162785 -0.191141 -0.143577
v 0.162785 0.180475 -0.117224
v 0.162785 0.177547 -0.075933
v 0.162785 -0.111488 -0.096430
v 0.162785 -0.116465 -0.026236
v 0.162785 -0.199047 -0.032092
v -0.149328 0.245346 0.024676
v -0.149328 0.245346 -0.140901
v 0.143744 0.245346 -0.140901
v 0.143744 0.245346 0.024676
v -0.002837 0.241206 -0.265084
v 0.069793 0.241212 -0.248526
v 0.123844 0.241217 -0.202992
v 0.144113 0.241218 -0.140901
v 0.144113 0.241218 0.024676
v -0.075467 0.241200 -0.248526
v -0.129518 0.241196 -0.202992
v -0.149787 0.241194 -0.140901
v -0.149787 0.241194 0.024676
vn 0.0000 -1.0000 0.0000
vn 0.0000 0.0000 1.0000
vn -1.0000 0.0000 0.0000
vn 0.0000 0.0000 -1.0000
vn 1.0000 0.0000 0.0000
vn 0.0000 1.0000 0.0000
vn -0.2223 0.0000 -0.9750
vn -0.6443 0.0000 -0.7648
vn -0.9506 0.0000 -0.3103
vn 0.2223 0.0000 -0.9750
vn 0.6443 0.0000 -0.7648
vn 0.9506 0.0000 -0.3103
vn -0.0001 1.0000 0.0000
usemtl None
s off
f 1//1 4//1 2//1
f 2//1 4//1 3//1
f 1//2 6//2 5//2
f 1//2 2//2 6//2
f 1//3 5//3 4//3
f 4//3 5//3 8//3
f 4//4 8//4 7//4
f 4//4 7//4 3//4
f 2//5 7//5 6//5
f 2//5 3//5 7//5
f 6//6 8//6 5//6
f 6//6 7//6 8//6
f 12//2 10//2 11//2
f 13//7 14//7 15//7
f 16//8 15//8 17//8
f 18//9 17//9 19//9
f 20//3 19//3 21//3
f 24//10 23//10 14//10
f 26//11 25//11 23//11
f 28//12 27//12 25//12
f 30//5 29//5 27//5
f 29//2 30//2 22//2
f 31//5 32//5 33//5
f 21//1 19//1 17//1
f 37//6 39//6 38//6
f 45//6 44//6 43//6
f 22//6 18//6 20//6
f 12//2 9//2 10//2
f 13//7 15//7 16//7
f 16//8 17//8 18//8
f 18//9 19//9 20//9
f 20//3 21//3 22//3
f 24//10 14//10 13//10
f 26//11 23//11 24//11
f 28//12 25//12 26//12
f 30//5 27//5 28//5
f 29//2 22//2 21//2
f 31//5 33//5 34//5
f 31//5 34//5 35//5
f 31//5 35//5 36//5
f 21//1 17//1 15//1
f 21//1 15//1 14//1
f 21//1 14//1 23//1
f 21//1 23//1 25//1
f 21//1 25//1 27//1
f 21//1 27//1 29//1
f 37//6 40//6 39//6
f 45//13 43//13 42//13
f 45//13 42//13 41//13
f 45//13 41//13 46//13
f 45//13 46//13 47//13
f 45//13 47//13 48//13
f 45//13 48//13 49//13
f 22//6 16//6 18//6
f 22//6 13//6 16//6
f 22//6 24//6 13//6
f 22//6 26//6 24//6
f 22//6 28//6 26//6
f 22//6 30//6 28//6
