# Blender v2.79 (sub 0) OBJ File: ''
# www.blender.org
mtllib m517.mtl
o m517
v -0.170506 0.030414 -0.211349
v 0.040605 0.030414 -0.211350
v 0.040605 -0.000608 -0.168651
v -0.170506 -0.000608 -0.168651
v -0.170506 0.049586 -0.184960
v 0.040605 0.049586 -0.184961
v -0.170505 0.049586 -0.152342
v 0.040605 0.049586 -0.152342
v -0.170505 0.030414 -0.125953
v 0.040605 0.030414 -0.125953
v -0.170505 -0.000608 -0.115873
v 0.040605 -0.000608 -0.115874
v -0.170505 -0.031630 -0.125953
v 0.040605 -0.031630 -0.125953
v -0.170505 -0.050803 -0.152342
v 0.040605 -0.050803 -0.152342
v -0.170506 -0.050803 -0.184960
v 0.040605 -0.050803 -0.184961
v -0.170506 -0.031630 -0.211349
v 0.040605 -0.031630 -0.211350
v -0.170506 -0.000608 -0.221428
v 0.040605 -0.000608 -0.221429
v 0.040606 -0.053386 -0.063096
v 0.040605 -0.053386 -0.168651
v -0.170506 -0.053386 -0.168651
v -0.170505 -0.053386 -0.063095
v 0.040606 0.052170 -0.063096
v 0.040605 0.052170 -0.168651
v -0.170506 0.052170 -0.168651
v -0.170505 0.052170 -0.063095
v -0.012172 0.052170 -0.107957
v -0.012172 0.052170 -0.123790
v -0.117728 0.052170 -0.123790
v -0.117728 0.052170 -0.107956
v -0.012172 0.054281 -0.107957
v -0.012172 0.054281 -0.123790
v -0.117728 0.054281 -0.123790
v -0.117728 0.054281 -0.107956
v 0.003661 0.052170 -0.092124
v 0.003661 0.052170 -0.123790
v -0.028006 0.052170 -0.123790
v -0.028006 0.052170 -0.092123
v 0.003661 0.054281 -0.092124
v 0.003661 0.054281 -0.123790
v -0.028006 0.054281 -0.123790
v -0.028006 0.054281 -0.092123
v 0.093386 -0.026997 0.623015
v 0.093382 -0.026997 -0.326985
v 0.040605 -0.026997 -0.326985
v 0.040608 -0.026997 0.623015
v 0.093386 0.025781 0.623015
v 0.093382 0.025781 -0.326985
v 0.040605 0.025781 -0.326985
v 0.040608 0.025781 0.623015
v 0.198939 -0.026997 -0.010319
v 0.198939 -0.026997 -0.063097
v -0.170505 -0.026997 -0.063095
v -0.170505 -0.026997 -0.010317
v 0.198939 0.025781 -0.010319
v 0.198939 0.025781 -0.063097
v -0.170505 0.025781 -0.063095
v -0.170505 0.025781 -0.010317
v 0.041152 -0.026997 0.084433
v 0.066454 -0.026997 0.038116
v -0.118813 -0.026997 -0.063095
v -0.144116 -0.026997 -0.016778
v 0.041152 0.025781 0.084433
v 0.066454 0.025781 0.038116
v -0.118813 0.025781 -0.063095
v -0.144116 0.025781 -0.016778
vn -0.0000 0.3090 -0.9511
vn 1.0000 0.0000 0.0000
vn -1.0000 -0.0000 0.0000
vn -0.0000 0.8090 -0.5878
vn 0.0000 1.0000 0.0000
vn 0.0000 0.8090 0.5878
vn 0.0000 0.3090 0.9511
vn 0.0000 -0.3090 0.9511
vn 0.0000 -0.8090 0.5878
vn 0.0000 -1.0000 0.0000
vn -0.0000 -0.8090 -0.5878
vn -0.0000 -0.3090 -0.9511
vn 0.0000 0.0000 1.0000
vn 0.0000 0.0000 -1.0000
vn 0.8776 0.0000 0.4794
vn -0.4794 0.0000 0.8776
vn -0.8776 0.0000 -0.4794
vn 0.4794 0.0000 -0.8776
usemtl None
s off
f 21//1 1//1 22//1
f 1//1 2//1 22//1
f 3//2 22//2 2//2
f 4//3 1//3 21//3
f 1//4 5//4 2//4
f 5//4 6//4 2//4
f 3//2 2//2 6//2
f 4//3 5//3 1//3
f 5//5 7//5 6//5
f 7//5 8//5 6//5
f 3//2 6//2 8//2
f 4//3 7//3 5//3
f 7//6 9//6 8//6
f 9//6 10//6 8//6
f 3//2 8//2 10//2
f 4//3 9//3 7//3
f 9//7 11//7 10//7
f 11//7 12//7 10//7
f 3//2 10//2 12//2
f 4//3 11//3 9//3
f 11//8 13//8 12//8
f 13//8 14//8 12//8
f 3//2 12//2 14//2
f 4//3 13//3 11//3
f 13//9 15//9 14//9
f 15//9 16//9 14//9
f 3//2 14//2 16//2
f 4//3 15//3 13//3
f 15//10 17//10 16//10
f 17//10 18//10 16//10
f 3//2 16//2 18//2
f 4//3 17//3 15//3
f 17//11 19//11 18//11
f 19//11 20//11 18//11
f 3//2 18//2 20//2
f 4//3 19//3 17//3
f 19//12 21//12 20//12
f 21//12 22//12 20//12
f 3//2 20//2 22//2
f 4//3 21//3 19//3
f 23//10 26//10 24//10
f 24//10 26//10 25//10
f 23//2 28//2 27//2
f 23//2 24//2 28//2
f 23//13 27//13 26//13
f 26//13 27//13 30//13
f 26//3 30//3 29//3
f 26//3 29//3 25//3
f 24//14 29//14 28//14
f 24//14 25//14 29//14
f 28//5 30//5 27//5
f 28//5 29//5 30//5
f 31//10 34//10 32//10
f 32//10 34//10 33//10
f 31//2 36//2 35//2
f 31//2 32//2 36//2
f 31//13 35//13 34//13
f 34//13 35//13 38//13
f 34//3 38//3 37//3
f 34//3 37//3 33//3
f 32//14 37//14 36//14
f 32//14 33//14 37//14
f 36//5 38//5 35//5
f 36//5 37//5 38//5
f 39//10 42//10 40//10
f 40//10 42//10 41//10
f 39//2 44//2 43//2
f 39//2 40//2 44//2
f 39//13 43//13 42//13
f 42//13 43//13 46//13
f 42//3 46//3 45//3
f 42//3 45//3 41//3
f 40//14 45//14 44//14
f 40//14 41//14 45//14
f 44//5 46//5 43//5
f 44//5 45//5 46//5
f 47//10 50//10 48//10
f 48//10 50//10 49//10
f 47//2 52//2 51//2
f 47//2 48//2 52//2
f 47//13 51//13 50//13
f 50//13 51//13 54//13
f 50//3 54//3 53//3
f 50//3 53//3 49//3
f 48//14 53//14 52//14
f 48//14 49//14 53//14
f 52//5 54//5 51//5
f 52//5 53//5 54//5
f 55//10 58//10 56//10
f 56//10 58//10 57//10
f 55//2 60//2 59//2
f 55//2 56//2 60//2
f 55//13 59//13 58//13
f 58//13 59//13 62//13
f 58//3 62//3 61//3
f 58//3 61//3 57//3
f 56//14 61//14 60//14
f 56//14 57//14 61//14
f 60//5 62//5 59//5
f 60//5 61//5 62//5
f 63//10 66//10 64//10
f 64//10 66//10 65//10
f 63//15 68//15 67//15
f 63//15 64//15 68//15
f 63//16 67//16 66//16
f 66//16 67//16 70//16
f 66//17 70//17 69//17
f 66//17 69//17 65//17
f 64//18 69//18 68//18
f 64//18 65//18 69//18
f 68//5 70//5 67//5
f 68//5 69//5 70//5
