# Blender v2.79 (sub 0) OBJ File: ''
# www.blender.org
mtllib m520.mtl
o m520
v -0.050398 -0.082712 -0.064196
v -0.050398 -0.082712 -0.148591
v -0.043628 -0.082712 -0.173867
v -0.024930 -0.082712 -0.192568
v 0.000613 -0.082712 -0.199416
v 0.026158 -0.082712 -0.192575
v 0.044860 -0.082712 -0.173877
v 0.051637 -0.082712 -0.148598
v 0.051637 -0.082712 -0.064196
v 0.000620 -0.082712 -0.148326
v -0.048357 -0.074549 -0.066236
v -0.048357 -0.074549 -0.148322
v -0.041798 -0.074549 -0.172810
v -0.023874 -0.074549 -0.190738
v 0.000613 -0.074549 -0.197302
v 0.025102 -0.074549 -0.190744
v 0.043031 -0.074549 -0.172821
v 0.049596 -0.074549 -0.148331
v 0.049596 -0.074549 -0.066236
v 0.000620 -0.074549 -0.148326
v 0.049595 0.211148 -0.066236
v -0.048358 0.211148 -0.066236
v 0.051636 0.211148 -0.064196
v -0.050399 0.211148 -0.064196
v 0.008782 0.213207 -0.206926
v 0.008781 0.217448 -0.206926
v 0.008781 0.219012 -0.204253
v 0.008781 0.214840 -0.190601
v 0.008781 0.214840 -0.205293
v 0.008781 0.216512 -0.205293
v 0.008781 0.217603 -0.203429
v 0.008782 0.213207 -0.190601
v -0.007544 0.213207 -0.190601
v -0.007544 0.213207 -0.206926
v -0.007544 0.217448 -0.206926
v -0.007544 0.219012 -0.204253
v -0.007544 0.217602 -0.203429
v -0.007544 0.216511 -0.205293
v -0.007544 0.214839 -0.205293
v -0.007544 0.214839 -0.190601
v -0.048358 0.204507 -0.066236
v -0.041799 0.204508 -0.172810
v -0.023874 0.204508 -0.190738
v 0.000613 0.204508 -0.197302
v 0.025101 0.204508 -0.190744
v 0.043030 0.204508 -0.172821
v 0.049595 0.204508 -0.148331
v -0.048358 0.204507 -0.148322
v 0.049595 0.204508 -0.066236
v -0.048358 0.211161 -0.066236
v -0.048358 0.211161 -0.148322
v -0.041799 0.211161 -0.172810
v -0.023874 0.211161 -0.190738
v 0.000613 0.211162 -0.197302
v 0.025101 0.211162 -0.190744
v 0.043030 0.211162 -0.172821
v 0.049595 0.211162 -0.148331
v 0.049595 0.211162 -0.066236
v -0.046725 0.204507 -0.067869
v -0.046725 0.204507 -0.148107
v -0.040335 0.204508 -0.171965
v -0.023029 0.204508 -0.189276
v 0.000613 0.204508 -0.195612
v 0.024256 0.204508 -0.189281
v 0.041566 0.204508 -0.171975
v 0.047963 0.204508 -0.148115
v 0.047963 0.204508 -0.067869
v -0.046725 0.209529 -0.067869
v -0.046725 0.209529 -0.148107
v -0.040335 0.209529 -0.171965
v -0.023029 0.209529 -0.189276
v 0.000613 0.209529 -0.195612
v 0.024256 0.209529 -0.189281
v 0.041566 0.209529 -0.171975
v 0.047963 0.209529 -0.148115
v 0.047963 0.209529 -0.067869
v 0.000619 0.209529 -0.148326
v -0.049991 0.211161 -0.064604
v -0.049991 0.211161 -0.148537
v -0.043262 0.211161 -0.173656
v -0.024720 0.211161 -0.192203
v 0.000612 0.211162 -0.198994
v 0.025946 0.211162 -0.192208
v 0.044493 0.211162 -0.173666
v 0.051228 0.211162 -0.148546
v 0.051228 0.211162 -0.064604
v -0.049991 0.213202 -0.064604
v -0.049991 0.213202 -0.148537
v -0.043262 0.213202 -0.173656
v -0.024720 0.213202 -0.192203
v 0.000612 0.213202 -0.198994
v 0.025946 0.213202 -0.192208
v 0.044493 0.213202 -0.173666
v 0.051228 0.213202 -0.148546
v 0.051228 0.213202 -0.064604
v 0.000619 0.213202 -0.148326
v -0.041799 0.211148 -0.172810
v -0.023874 0.211148 -0.190738
v 0.000613 0.211148 -0.197302
v 0.025101 0.211148 -0.190744
v 0.043030 0.211148 -0.172821
v 0.049595 0.211148 -0.148331
v -0.048358 0.211148 -0.148322
v -0.050399 0.211148 -0.148591
v -0.043628 0.211148 -0.173867
v -0.024931 0.211148 -0.192568
v 0.000612 0.211148 -0.199416
v 0.026157 0.211148 -0.192575
v 0.044859 0.211148 -0.173877
v 0.051636 0.211148 -0.148598
v -0.052057 0.170415 -0.145925
v -0.052057 0.082824 -0.133523
v -0.052057 0.170414 -0.133520
v -0.052056 0.082824 -0.145927
v -0.050424 0.082824 -0.145927
v -0.050424 0.170414 -0.133520
v -0.050424 0.170415 -0.145925
v -0.050424 0.082824 -0.133523
v -0.052056 0.056593 -0.145927
v -0.052056 0.056592 -0.096950
v -0.052057 0.082823 -0.096950
v -0.050424 0.056593 -0.145927
v -0.050424 0.056592 -0.096950
v -0.050424 0.082823 -0.096950
v -0.028789 -0.140998 -0.298073
v -0.028789 -0.140998 0.626828
v 0.028350 -0.141001 0.626828
v 0.028350 -0.141001 -0.298073
v -0.028786 -0.083858 -0.298073
v -0.028786 -0.083858 0.626828
v 0.028353 -0.083861 0.626828
v 0.028353 -0.083861 -0.298073
v -0.027165 -0.196578 -0.064205
v 0.029974 -0.196581 -0.064205
v -0.027165 -0.196577 -0.007066
v 0.029974 -0.196580 -0.007066
v -0.027138 0.227381 -0.064227
v 0.030002 0.227378 -0.064227
v -0.027138 0.227383 -0.007087
v 0.030002 0.227380 -0.007087
v 0.001434 0.242021 -0.035657
v -0.000218 -0.112429 -0.323173
v 0.028373 0.079331 -0.007751
v -0.028766 0.079337 -0.007751
v -0.028758 0.160145 -0.007752
v 0.028382 0.160139 -0.007752
v -0.028784 -0.082555 0.234955
v 0.028355 -0.082562 0.234955
v 0.028355 -0.082562 0.154147
v -0.028784 -0.082555 0.154147
vn 0.0000 -1.0000 0.0000
vn 0.0000 1.0000 0.0000
vn 0.0000 0.0000 1.0000
vn 0.0000 0.0000 -1.0000
vn 0.0000 0.8631 -0.5050
vn -0.0000 0.5050 0.8631
vn 0.0000 0.5053 0.8630
vn 0.0001 -0.8631 0.5049
vn 0.0001 -0.8632 0.5049
vn -0.0001 1.0000 0.0000
vn 1.0000 0.0001 0.0000
vn 1.0000 0.0000 0.0000
vn -1.0000 0.0000 0.0000
vn -1.0000 0.0002 -0.0004
vn -1.0000 -0.0001 0.0001
vn -0.9659 0.0000 -0.2587
vn -0.7072 0.0000 -0.7070
vn -0.2589 0.0000 -0.9659
vn 0.2587 0.0000 -0.9660
vn 0.7070 0.0000 -0.7072
vn 0.9659 0.0000 -0.2589
vn 0.9659 0.0000 0.2587
vn 0.7072 0.0000 0.7070
vn 0.2589 0.0000 0.9659
vn -0.2587 0.0000 0.9660
vn -0.7070 0.0000 0.7072
vn -0.9659 0.0000 0.2590
vn 0.9659 0.0000 -0.2590
vn 0.0000 1.0000 0.0001
vn -0.0001 -1.0000 0.0000
vn 0.0001 1.0000 0.0000
vn -0.9659 -0.0000 0.2589
vn 1.0000 -0.0001 0.0000
vn -1.0000 0.0001 -0.0000
vn -0.4560 0.8900 -0.0000
vn 0.4561 0.8899 -0.0000
vn 0.0000 0.8899 -0.4561
vn 0.0000 0.8900 0.4560
vn -0.6600 0.0000 -0.7513
vn 0.6600 -0.0000 -0.7513
vn 0.0001 0.7071 0.7071
vn -0.0001 -0.7071 -0.7071
vn -0.0000 -0.6600 -0.7513
vn 0.0000 0.6600 -0.7513
usemtl None
s off
f 9//1 1//1 10//1
f 8//1 9//1 10//1
f 7//1 8//1 10//1
f 6//1 7//1 10//1
f 5//1 6//1 10//1
f 4//1 5//1 10//1
f 3//1 4//1 10//1
f 2//1 3//1 10//1
f 1//1 2//1 10//1
f 12//2 11//2 20//2
f 13//2 12//2 20//2
f 14//2 13//2 20//2
f 15//2 14//2 20//2
f 16//2 15//2 20//2
f 17//2 16//2 20//2
f 18//2 17//2 20//2
f 19//2 18//2 20//2
f 11//2 19//2 20//2
f 1//3 9//3 23//3
f 24//3 1//3 23//3
f 19//4 11//4 22//4
f 21//4 19//4 22//4
f 33//1 34//1 25//1
f 32//1 33//1 25//1
f 34//4 35//4 26//4
f 25//4 34//4 26//4
f 35//5 36//5 27//5
f 26//5 35//5 27//5
f 36//6 37//6 31//6
f 27//7 36//7 31//7
f 37//8 38//8 30//8
f 31//9 37//9 30//9
f 38//3 39//3 29//3
f 30//3 38//3 29//3
f 39//10 40//10 28//10
f 29//10 39//10 28//10
f 40//3 33//3 32//3
f 28//3 40//3 32//3
f 29//11 28//11 32//11
f 27//11 31//11 30//11
f 26//12 27//12 30//12
f 26//12 30//12 29//12
f 25//12 26//12 29//12
f 25//11 29//11 32//11
f 39//13 34//13 33//13
f 40//13 39//13 33//13
f 36//13 35//13 34//13
f 38//14 36//14 34//14
f 39//15 38//15 34//15
f 38//13 37//13 36//13
f 50//13 51//13 48//13
f 41//13 50//13 48//13
f 51//16 52//16 42//16
f 48//16 51//16 42//16
f 52//17 53//17 43//17
f 42//17 52//17 43//17
f 53//18 54//18 44//18
f 43//18 53//18 44//18
f 54//19 55//19 45//19
f 44//19 54//19 45//19
f 55//20 56//20 46//20
f 45//20 55//20 46//20
f 56//21 57//21 47//21
f 46//21 56//21 47//21
f 57//12 58//12 49//12
f 47//12 57//12 49//12
f 58//3 50//3 41//3
f 49//3 58//3 41//3
f 69//12 68//12 59//12
f 60//12 69//12 59//12
f 70//22 69//22 60//22
f 61//22 70//22 60//22
f 71//23 70//23 61//23
f 62//23 71//23 61//23
f 72//24 71//24 62//24
f 63//24 72//24 62//24
f 73//25 72//25 63//25
f 64//25 73//25 63//25
f 74//26 73//26 64//26
f 65//26 74//26 64//26
f 75//27 74//27 65//27
f 66//27 75//27 65//27
f 76//13 75//13 66//13
f 67//13 76//13 66//13
f 68//4 76//4 67//4
f 59//4 68//4 67//4
f 77//1 68//1 69//1
f 77//1 69//1 70//1
f 77//1 70//1 71//1
f 77//1 71//1 72//1
f 77//1 72//1 73//1
f 77//1 73//1 74//1
f 77//1 74//1 75//1
f 77//1 75//1 76//1
f 77//1 76//1 68//1
f 60//1 59//1 41//1
f 48//1 60//1 41//1
f 61//1 60//1 48//1
f 42//1 61//1 48//1
f 62//1 61//1 42//1
f 43//1 62//1 42//1
f 63//1 62//1 43//1
f 44//1 63//1 43//1
f 64//1 63//1 44//1
f 45//1 64//1 44//1
f 65//1 64//1 45//1
f 46//1 65//1 45//1
f 66//1 65//1 46//1
f 47//1 66//1 46//1
f 67//1 66//1 47//1
f 49//1 67//1 47//1
f 59//1 67//1 49//1
f 41//1 59//1 49//1
f 78//1 79//1 51//1
f 50//1 78//1 51//1
f 79//1 80//1 52//1
f 51//1 79//1 52//1
f 80//1 81//1 53//1
f 52//1 80//1 53//1
f 81//1 82//1 54//1
f 53//1 81//1 54//1
f 82//1 83//1 55//1
f 54//1 82//1 55//1
f 83//1 84//1 56//1
f 55//1 83//1 56//1
f 84//1 85//1 57//1
f 56//1 84//1 57//1
f 85//1 86//1 58//1
f 57//1 85//1 58//1
f 86//1 78//1 50//1
f 58//1 86//1 50//1
f 87//13 88//13 79//13
f 78//13 87//13 79//13
f 88//16 89//16 80//16
f 79//16 88//16 80//16
f 89//17 90//17 81//17
f 80//17 89//17 81//17
f 90//18 91//18 82//18
f 81//18 90//18 82//18
f 91//19 92//19 83//19
f 82//19 91//19 83//19
f 92//20 93//20 84//20
f 83//20 92//20 84//20
f 93//28 94//28 85//28
f 84//28 93//28 85//28
f 94//12 95//12 86//12
f 85//12 94//12 86//12
f 95//3 87//3 78//3
f 86//3 95//3 78//3
f 88//2 87//2 96//2
f 89//2 88//2 96//2
f 90//2 89//2 96//2
f 91//2 90//2 96//2
f 92//2 91//2 96//2
f 93//2 92//2 96//2
f 94//2 93//2 96//2
f 95//2 94//2 96//2
f 87//2 95//2 96//2
f 104//2 24//2 22//2
f 103//2 104//2 22//2
f 105//2 104//2 103//2
f 97//2 105//2 103//2
f 106//2 105//2 97//2
f 98//2 106//2 97//2
f 107//2 106//2 98//2
f 99//2 107//2 98//2
f 108//2 107//2 99//2
f 100//2 108//2 99//2
f 109//2 108//2 100//2
f 101//2 109//2 100//2
f 110//2 109//2 101//2
f 102//2 110//2 101//2
f 23//2 110//2 102//2
f 21//2 23//2 102//2
f 24//2 23//2 21//2
f 22//2 24//2 21//2
f 118//2 115//2 114//2
f 112//2 118//2 114//2
f 118//3 116//3 113//3
f 112//3 118//3 113//3
f 116//29 117//29 111//29
f 113//29 116//29 111//29
f 117//4 115//4 114//4
f 111//4 117//4 114//4
f 115//2 112//2 118//2
f 114//2 112//2 115//2
f 113//13 111//13 114//13
f 112//13 113//13 114//13
f 115//12 117//12 116//12
f 118//12 115//12 116//12
f 115//4 122//4 119//4
f 114//4 115//4 119//4
f 122//1 123//1 120//1
f 119//1 122//1 120//1
f 123//3 124//3 121//3
f 120//3 123//3 121//3
f 124//2 118//2 112//2
f 121//2 124//2 112//2
f 120//13 121//13 112//13
f 119//13 120//13 112//13
f 114//13 119//13 112//13
f 124//12 123//12 122//12
f 118//12 124//12 122//12
f 115//12 118//12 122//12
f 128//30 127//30 126//30
f 125//30 128//30 126//30
f 129//31 130//31 131//31
f 132//31 129//31 131//31
f 11//12 12//12 103//12
f 22//12 11//12 103//12
f 12//22 13//22 97//22
f 103//22 12//22 97//22
f 13//23 14//23 98//23
f 97//23 13//23 98//23
f 14//24 15//24 99//24
f 98//24 14//24 99//24
f 15//25 16//25 100//25
f 99//25 15//25 100//25
f 16//26 17//26 101//26
f 100//26 16//26 101//26
f 17//32 18//32 102//32
f 101//32 17//32 102//32
f 18//13 19//13 21//13
f 102//13 18//13 21//13
f 2//13 1//13 24//13
f 104//13 2//13 24//13
f 3//16 2//16 104//16
f 105//16 3//16 104//16
f 4//17 3//17 105//17
f 106//17 4//17 105//17
f 5//18 4//18 106//18
f 107//18 5//18 106//18
f 6//19 5//19 107//19
f 108//19 6//19 107//19
f 7//20 6//20 108//20
f 109//20 7//20 108//20
f 8//21 7//21 109//21
f 110//21 8//21 109//21
f 9//12 8//12 110//12
f 23//12 9//12 110//12
f 134//30 136//30 135//30
f 133//30 134//30 135//30
f 138//4 134//4 133//4
f 137//4 138//4 133//4
f 139//3 135//3 136//3
f 140//3 139//3 136//3
f 140//33 136//33 134//33
f 138//33 140//33 134//33
f 137//34 133//34 135//34
f 139//34 137//34 135//34
f 137//35 139//35 141//35
f 140//36 138//36 141//36
f 138//37 137//37 141//37
f 139//38 140//38 141//38
f 132//33 131//33 127//33
f 128//33 132//33 127//33
f 125//34 126//34 130//34
f 129//34 125//34 130//34
f 125//39 129//39 142//39
f 132//40 128//40 142//40
f 127//3 131//3 130//3
f 126//3 127//3 130//3
f 147//34 145//34 144//34
f 150//34 147//34 144//34
f 143//33 146//33 148//33
f 149//33 143//33 148//33
f 146//41 145//41 147//41
f 148//41 146//41 147//41
f 144//42 143//42 149//42
f 150//42 144//42 149//42
f 128//43 125//43 142//43
f 129//44 132//44 142//44
