# Blender v2.79 (sub 0) OBJ File: ''
# www.blender.org
mtllib m533.mtl
o m533
v 0.133989 0.134015 -0.469021
v 0.167298 0.167234 -0.534063
v 0.138264 0.138201 -0.568154
v 0.109230 0.109167 -0.534063
v 0.072610 0.072637 -0.469021
v 0.192928 0.163310 0.246008
v 0.206706 0.206643 0.381846
v 0.295461 0.250062 0.246008
v 0.133989 -0.133997 -0.469021
v 0.167298 -0.167306 -0.534063
v 0.138264 -0.138272 -0.568154
v 0.109230 -0.109238 -0.534063
v 0.072610 -0.072619 -0.469021
v 0.192928 -0.163292 0.246008
v 0.206706 -0.206714 0.381846
v 0.295461 -0.250044 0.246008
v -0.134024 -0.133997 -0.469021
v -0.167243 -0.167306 -0.534063
v -0.138209 -0.138272 -0.568154
v -0.109175 -0.109238 -0.534063
v -0.072645 -0.072619 -0.469021
v -0.192877 -0.163292 0.246008
v -0.206651 -0.206714 0.381846
v -0.295496 -0.250044 0.246008
v -0.134024 0.134015 -0.469021
v -0.167243 0.167234 -0.534063
v -0.138209 0.138201 -0.568154
v -0.109175 0.109167 -0.534063
v -0.072645 0.072637 -0.469021
v -0.192877 0.163310 0.246008
v -0.206651 0.206643 0.381846
v -0.295496 0.250062 0.246008
vn 0.8901 0.0000 0.4558
vn 0.7613 0.0000 -0.6484
vn -0.7613 0.0000 -0.6484
vn -0.8714 0.0000 -0.4906
vn -0.9861 0.0000 0.1659
vn 0.9949 0.0000 -0.1009
vn 0.8371 0.0000 0.5470
vn 0.9754 0.0000 -0.2203
vn 0.0000 -0.8901 0.4558
vn 0.0000 -0.7613 -0.6484
vn 0.0000 0.7613 -0.6484
vn 0.0000 0.8714 -0.4906
vn 0.0000 0.9921 0.1258
vn 0.0000 -0.9525 -0.3045
vn 0.0000 -0.9527 0.3039
vn 0.0000 -0.9871 -0.1602
vn -0.8906 0.0000 0.4548
vn 0.8719 0.0000 -0.4897
vn 0.9862 0.0000 0.1658
vn -0.9949 0.0000 -0.1009
vn -0.8369 0.0000 0.5474
vn -0.9754 0.0000 -0.2203
vn 0.0000 0.8906 0.4548
vn 0.0000 -0.8719 -0.4897
vn 0.0000 -0.9921 0.1258
vn 0.0000 0.9527 -0.3039
vn 0.0000 0.9525 0.3045
vn 0.0000 0.9871 -0.1602
vn 0.0000 0.0000 1.0000
usemtl None
s off
f 10//1 2//1 1//1
f 9//1 10//1 1//1
f 11//2 3//2 2//2
f 10//2 11//2 2//2
f 12//3 4//3 3//3
f 11//3 12//3 3//3
f 13//4 5//4 4//4
f 12//4 13//4 4//4
f 14//5 6//5 5//5
f 13//5 14//5 5//5
f 15//6 6//6 7//6
f 14//6 6//6 15//6
f 16//7 8//7 7//7
f 15//7 16//7 7//7
f 9//8 1//8 8//8
f 16//8 9//8 8//8
f 18//9 10//9 9//9
f 17//9 18//9 9//9
f 19//10 11//10 10//10
f 18//10 19//10 10//10
f 20//11 12//11 11//11
f 19//11 20//11 11//11
f 21//12 13//12 12//12
f 20//12 21//12 12//12
f 22//13 14//13 13//13
f 21//13 22//13 13//13
f 23//14 14//14 15//14
f 22//14 14//14 23//14
f 24//15 16//15 15//15
f 23//15 24//15 15//15
f 17//16 9//16 16//16
f 24//16 17//16 16//16
f 26//17 18//17 17//17
f 25//17 26//17 17//17
f 27//3 19//3 18//3
f 26//3 27//3 18//3
f 28//2 20//2 19//2
f 27//2 28//2 19//2
f 29//18 21//18 20//18
f 28//18 29//18 20//18
f 30//19 22//19 21//19
f 29//19 30//19 21//19
f 31//20 22//20 23//20
f 30//20 22//20 31//20
f 32//21 24//21 23//21
f 31//21 32//21 23//21
f 25//22 17//22 24//22
f 32//22 25//22 24//22
f 2//23 26//23 25//23
f 1//23 2//23 25//23
f 3//11 27//11 26//11
f 2//11 3//11 26//11
f 4//10 28//10 27//10
f 3//10 4//10 27//10
f 5//24 29//24 28//24
f 4//24 5//24 28//24
f 6//25 30//25 29//25
f 5//25 6//25 29//25
f 7//26 30//26 31//26
f 6//26 30//26 7//26
f 8//27 32//27 31//27
f 7//27 8//27 31//27
f 1//28 25//28 32//28
f 8//28 1//28 32//28
f 31//29 23//29 7//29
f 23//29 15//29 7//29
f 22//29 6//29 30//29
f 14//29 6//29 22//29
