# Blender v2.79 (sub 0) OBJ File: ''
# www.blender.org
mtllib m535.mtl
o m535
v 0.253333 0.000000 -0.425311
v 0.188530 0.000000 -0.382295
v 0.134570 0.000000 -0.330311
v 0.231648 0.095962 -0.425311
v 0.172722 0.071541 -0.382295
v 0.123069 0.050970 -0.330311
v 0.179157 0.179157 -0.425311
v 0.133304 0.133304 -0.382295
v 0.095152 0.095152 -0.330311
v 0.231648 -0.095963 -0.425311
v 0.179157 -0.179158 -0.425311
v 0.172722 -0.071542 -0.382295
v 0.133304 -0.133304 -0.382295
v 0.123069 -0.050971 -0.330311
v 0.095152 -0.095152 -0.330311
v 0.135026 0.000000 -0.285370
v 0.158333 0.000000 -0.243215
v 0.124184 0.051426 -0.285370
v 0.144805 0.059989 -0.243215
v 0.095456 0.095456 -0.285370
v 0.111973 0.111973 -0.243215
v 0.124184 -0.051427 -0.285370
v 0.095456 -0.095456 -0.285370
v 0.144805 -0.059990 -0.243215
v 0.111973 -0.111974 -0.243215
v 0.259464 0.000000 -0.185708
v 0.324570 0.000000 -0.116548
v 0.236157 0.097837 -0.185708
v 0.296805 0.122968 -0.116548
v 0.183464 0.183464 -0.185708
v 0.229520 0.229520 -0.116548
v 0.236157 -0.097838 -0.185708
v 0.183464 -0.183464 -0.185708
v 0.296805 -0.122968 -0.116548
v 0.229520 -0.229520 -0.116548
v 0.212242 0.000000 0.169414
v 0.087096 0.000000 0.453452
v 0.193698 0.080205 0.169414
v 0.079648 0.032984 0.453452
v 0.150074 0.150074 0.169414
v 0.061560 0.061560 0.453452
v 0.193698 -0.080206 0.169414
v 0.150074 -0.150075 0.169414
v 0.079648 -0.032984 0.453452
v 0.061560 -0.061560 0.453452
v 0.127173 0.000000 0.495607
v 0.197904 0.000000 0.524689
v 0.117192 0.048538 0.495607
v 0.180981 0.074986 0.524689
v 0.089933 0.089933 0.495607
v 0.139941 0.139941 0.524689
v 0.117192 -0.048539 0.495607
v 0.089933 -0.089934 0.495607
v 0.180981 -0.074987 0.524689
v 0.139941 -0.139942 0.524689
v 0.095962 -0.231648 -0.425311
v 0.000000 -0.253334 -0.425311
v 0.071541 -0.172723 -0.382295
v 0.000000 -0.188531 -0.382295
v 0.050970 -0.123070 -0.330311
v 0.000000 -0.134571 -0.330311
v -0.095963 -0.231648 -0.425311
v -0.179158 -0.179158 -0.425311
v -0.071542 -0.172723 -0.382295
v -0.133304 -0.133304 -0.382295
v -0.050971 -0.123070 -0.330311
v -0.095152 -0.095152 -0.330311
v -0.231648 -0.095963 -0.425311
v -0.253333 0.000000 -0.425311
v -0.172723 -0.071542 -0.382295
v -0.188531 0.000000 -0.382295
v -0.123070 -0.050971 -0.330311
v -0.134571 0.000000 -0.330311
v -0.231648 0.095962 -0.425311
v -0.179158 0.179157 -0.425311
v -0.172723 0.071541 -0.382295
v -0.133304 0.133304 -0.382295
v -0.123070 0.050970 -0.330311
v -0.095152 0.095152 -0.330311
v -0.095963 0.231648 -0.425311
v 0.000000 0.253333 -0.425311
v -0.071542 0.172722 -0.382295
v 0.000000 0.188530 -0.382295
v -0.050971 0.123069 -0.330311
v 0.000000 0.134570 -0.330311
v 0.095962 0.231648 -0.425311
v 0.071541 0.172722 -0.382295
v 0.050970 0.123069 -0.330311
v 0.051426 -0.124184 -0.285370
v 0.000000 -0.135027 -0.285370
v 0.059989 -0.144806 -0.243215
v 0.000000 -0.158334 -0.243215
v -0.051427 -0.124184 -0.285370
v -0.095456 -0.095456 -0.285370
v -0.059990 -0.144806 -0.243215
v -0.111974 -0.111974 -0.243215
v -0.124184 -0.051427 -0.285370
v -0.135027 0.000000 -0.285370
v -0.144806 -0.059990 -0.243215
v -0.158334 0.000000 -0.243215
v -0.124184 0.051426 -0.285370
v -0.095456 0.095456 -0.285370
v -0.144806 0.059989 -0.243215
v -0.111974 0.111973 -0.243215
v -0.051427 0.124184 -0.285370
v 0.000000 0.135026 -0.285370
v -0.059990 0.144805 -0.243215
v 0.000000 0.158333 -0.243215
v 0.051426 0.124184 -0.285370
v 0.059989 0.144805 -0.243215
v 0.097837 -0.236158 -0.185708
v 0.000000 -0.259464 -0.185708
v 0.122968 -0.296806 -0.116548
v 0.000000 -0.324571 -0.116548
v -0.097838 -0.236158 -0.185708
v -0.183464 -0.183464 -0.185708
v -0.122968 -0.296806 -0.116548
v -0.229520 -0.229520 -0.116548
v -0.236158 -0.097838 -0.185708
v -0.259464 0.000000 -0.185708
v -0.296805 -0.122968 -0.116548
v -0.324571 0.000000 -0.116548
v -0.236158 0.097837 -0.185708
v -0.183464 0.183464 -0.185708
v -0.296805 0.122968 -0.116548
v -0.229520 0.229520 -0.116548
v -0.097838 0.236157 -0.185708
v 0.000000 0.259464 -0.185708
v -0.122968 0.296805 -0.116548
v 0.000000 0.324570 -0.116548
v 0.097837 0.236157 -0.185708
v 0.122968 0.296805 -0.116548
v 0.080205 -0.193699 0.169414
v 0.000000 -0.212243 0.169414
v 0.032984 -0.079648 0.453452
v 0.000000 -0.087096 0.453452
v -0.080206 -0.193699 0.169414
v -0.150075 -0.150075 0.169414
v -0.032984 -0.079648 0.453452
v -0.061560 -0.061560 0.453452
v -0.193699 -0.080206 0.169414
v -0.212243 0.000000 0.169414
v -0.079648 -0.032984 0.453452
v -0.087096 0.000000 0.453452
v -0.193699 0.080205 0.169414
v -0.150075 0.150074 0.169414
v -0.079648 0.032984 0.453452
v -0.061560 0.061560 0.453452
v -0.080206 0.193698 0.169414
v 0.000000 0.212242 0.169414
v -0.032984 0.079648 0.453452
v 0.000000 0.087096 0.453452
v 0.080205 0.193698 0.169414
v 0.032984 0.079648 0.453452
v 0.048538 -0.117192 0.495607
v 0.000000 -0.127174 0.495607
v 0.074986 -0.180982 0.524689
v 0.000000 -0.197904 0.524689
v -0.048539 -0.117192 0.495607
v -0.089934 -0.089934 0.495607
v -0.074987 -0.180982 0.524689
v -0.139942 -0.139942 0.524689
v -0.117192 -0.048539 0.495607
v -0.127174 0.000000 0.495607
v -0.180982 -0.074987 0.524689
v -0.197904 0.000000 0.524689
v -0.117192 0.048538 0.495607
v -0.089934 0.089933 0.495607
v -0.180982 0.074986 0.524689
v -0.139942 0.139941 0.524689
v -0.048539 0.117192 0.495607
v 0.000000 0.127173 0.495607
v -0.074987 0.180981 0.524689
v 0.000000 0.197904 0.524689
v 0.048538 0.117192 0.495607
v 0.074986 0.180981 0.524689
vn -0.5490 -0.1213 -0.8270
vn -0.5509 -0.1245 -0.8253
vn -0.4763 -0.3040 -0.8251
vn -0.4756 -0.3001 -0.8269
vn -0.6854 -0.1547 -0.7115
vn -0.6843 -0.1512 -0.7134
vn -0.5922 -0.3742 -0.7137
vn -0.5921 -0.3779 -0.7118
vn -0.5509 0.1245 -0.8253
vn -0.5490 0.1213 -0.8270
vn -0.6843 0.1512 -0.7134
vn -0.6854 0.1547 -0.7115
vn -0.4756 0.3001 -0.8269
vn -0.4763 0.3040 -0.8251
vn -0.5920 0.3779 -0.7118
vn -0.5922 0.3742 -0.7137
vn -0.9784 -0.2063 0.0099
vn -0.9751 -0.2200 0.0264
vn -0.8372 -0.5462 0.0263
vn -0.8453 -0.5341 0.0093
vn -0.8586 -0.1936 0.4747
vn -0.8679 -0.1830 0.4617
vn -0.7495 -0.4734 0.4628
vn -0.7362 -0.4804 0.4767
vn -0.9751 0.2200 0.0264
vn -0.9784 0.2063 0.0099
vn -0.8679 0.1830 0.4617
vn -0.8586 0.1936 0.4747
vn -0.8453 0.5342 0.0093
vn -0.8372 0.5463 0.0263
vn -0.7362 0.4804 0.4767
vn -0.7495 0.4734 0.4628
vn -0.4909 -0.1169 0.8633
vn -0.4958 -0.1118 0.8612
vn -0.4322 -0.2660 0.8617
vn -0.4259 -0.2690 0.8639
vn -0.7185 -0.1622 0.6764
vn -0.7098 -0.1691 0.6838
vn -0.6175 -0.3899 0.6832
vn -0.6280 -0.3864 0.6755
vn -0.4958 0.1118 0.8612
vn -0.4909 0.1169 0.8633
vn -0.7098 0.1691 0.6838
vn -0.7185 0.1622 0.6764
vn -0.4259 0.2690 0.8639
vn -0.4322 0.2660 0.8616
vn -0.6280 0.3864 0.6755
vn -0.6175 0.3899 0.6832
vn -0.9099 -0.2104 -0.3574
vn -0.9104 -0.2056 -0.3590
vn -0.7916 -0.4942 -0.3593
vn -0.7895 -0.4986 -0.3579
vn -0.8962 -0.2024 -0.3949
vn -0.8955 -0.2070 -0.3940
vn -0.7767 -0.4917 -0.3936
vn -0.7794 -0.4866 -0.3945
vn -0.9104 0.2056 -0.3590
vn -0.9099 0.2104 -0.3574
vn -0.8955 0.2070 -0.3940
vn -0.8962 0.2024 -0.3949
vn -0.7895 0.4986 -0.3579
vn -0.7916 0.4942 -0.3593
vn -0.7794 0.4866 -0.3945
vn -0.7767 0.4917 -0.3936
vn -0.7168 -0.1474 0.6815
vn -0.7072 -0.1597 0.6888
vn -0.6065 -0.3994 0.6875
vn -0.6191 -0.3919 0.6805
vn -0.3789 -0.0855 0.9215
vn -0.3861 -0.0794 0.9190
vn -0.3322 -0.2099 0.9196
vn -0.3233 -0.2129 0.9220
vn -0.7072 0.1597 0.6888
vn -0.7168 0.1474 0.6815
vn -0.3861 0.0794 0.9190
vn -0.3789 0.0855 0.9215
vn -0.6191 0.3919 0.6805
vn -0.6065 0.3994 0.6875
vn -0.3233 0.2129 0.9220
vn -0.3322 0.2099 0.9196
vn -0.3013 0.4776 -0.8253
vn -0.3023 0.4737 -0.8272
vn -0.3770 0.5907 -0.7134
vn -0.3754 0.5941 -0.7115
vn -0.1240 0.5488 -0.8267
vn -0.1219 0.5518 -0.8250
vn -0.1515 0.6858 -0.7119
vn -0.1542 0.6833 -0.7137
vn 0.1245 0.5509 -0.8253
vn 0.1213 0.5490 -0.8270
vn 0.1512 0.6843 -0.7134
vn 0.1547 0.6854 -0.7115
vn 0.3001 0.4756 -0.8269
vn 0.3040 0.4763 -0.8251
vn 0.3779 0.5920 -0.7118
vn 0.3742 0.5922 -0.7137
vn 0.4776 0.3013 -0.8253
vn 0.4737 0.3023 -0.8272
vn 0.5907 0.3770 -0.7134
vn 0.5940 0.3754 -0.7115
vn 0.5488 0.1240 -0.8267
vn 0.5518 0.1219 -0.8250
vn 0.6858 0.1515 -0.7119
vn 0.6833 0.1542 -0.7137
vn 0.5509 -0.1245 -0.8253
vn 0.5490 -0.1213 -0.8270
vn 0.6843 -0.1512 -0.7134
vn 0.6854 -0.1547 -0.7115
vn 0.4756 -0.3001 -0.8269
vn 0.4763 -0.3040 -0.8251
vn 0.5920 -0.3779 -0.7118
vn 0.5922 -0.3742 -0.7137
vn 0.3013 -0.4776 -0.8253
vn 0.3023 -0.4737 -0.8272
vn 0.3770 -0.5907 -0.7134
vn 0.3754 -0.5941 -0.7115
vn 0.1240 -0.5488 -0.8267
vn 0.1219 -0.5518 -0.8250
vn 0.1515 -0.6858 -0.7119
vn 0.1542 -0.6833 -0.7137
vn -0.1245 -0.5509 -0.8253
vn -0.1213 -0.5490 -0.8270
vn -0.1512 -0.6843 -0.7134
vn -0.1547 -0.6854 -0.7115
vn -0.3001 -0.4756 -0.8269
vn -0.3040 -0.4763 -0.8251
vn -0.3779 -0.5921 -0.7118
vn -0.3742 -0.5922 -0.7137
vn -0.5340 0.8451 0.0264
vn -0.5464 0.8375 0.0094
vn -0.4847 0.7428 0.4618
vn -0.4698 0.7438 0.4755
vn -0.2201 0.9754 0.0099
vn -0.2062 0.9781 0.0263
vn -0.1815 0.8606 0.4758
vn -0.1950 0.8648 0.4627
vn 0.2200 0.9751 0.0264
vn 0.2063 0.9784 0.0099
vn 0.1830 0.8679 0.4618
vn 0.1936 0.8586 0.4747
vn 0.5342 0.8453 0.0093
vn 0.5463 0.8372 0.0263
vn 0.4804 0.7362 0.4767
vn 0.4734 0.7495 0.4628
vn 0.8451 0.5340 0.0264
vn 0.8375 0.5464 0.0094
vn 0.7428 0.4847 0.4618
vn 0.7438 0.4698 0.4755
vn 0.9754 0.2201 0.0099
vn 0.9781 0.2062 0.0263
vn 0.8606 0.1815 0.4758
vn 0.8648 0.1950 0.4627
vn 0.9751 -0.2200 0.0264
vn 0.9784 -0.2063 0.0099
vn 0.8679 -0.1830 0.4618
vn 0.8586 -0.1936 0.4747
vn 0.8453 -0.5342 0.0093
vn 0.8372 -0.5462 0.0263
vn 0.7362 -0.4804 0.4767
vn 0.7495 -0.4734 0.4628
vn 0.5340 -0.8451 0.0264
vn 0.5464 -0.8375 0.0094
vn 0.4847 -0.7428 0.4618
vn 0.4698 -0.7438 0.4755
vn 0.2201 -0.9754 0.0099
vn 0.2062 -0.9782 0.0264
vn 0.1814 -0.8606 0.4758
vn 0.1950 -0.8648 0.4627
vn -0.2200 -0.9751 0.0264
vn -0.2063 -0.9784 0.0099
vn -0.1830 -0.8679 0.4617
vn -0.1936 -0.8586 0.4747
vn -0.5341 -0.8453 0.0093
vn -0.5462 -0.8372 0.0263
vn -0.4804 -0.7362 0.4767
vn -0.4734 -0.7495 0.4628
vn -0.2714 0.4297 0.8612
vn -0.2645 0.4299 0.8633
vn -0.3824 0.6214 0.6839
vn -0.3932 0.6227 0.6765
vn -0.1108 0.4913 0.8639
vn -0.1176 0.4937 0.8616
vn -0.1709 0.7174 0.6754
vn -0.1608 0.7124 0.6831
vn 0.1118 0.4958 0.8612
vn 0.1169 0.4909 0.8633
vn 0.1691 0.7098 0.6838
vn 0.1622 0.7185 0.6764
vn 0.2690 0.4259 0.8639
vn 0.2660 0.4322 0.8616
vn 0.3864 0.6280 0.6755
vn 0.3899 0.6175 0.6832
vn 0.4297 0.2714 0.8612
vn 0.4299 0.2645 0.8633
vn 0.6214 0.3824 0.6839
vn 0.6227 0.3932 0.6765
vn 0.4913 0.1108 0.8639
vn 0.4937 0.1176 0.8616
vn 0.7174 0.1709 0.6754
vn 0.7124 0.1608 0.6831
vn 0.4958 -0.1118 0.8612
vn 0.4909 -0.1169 0.8633
vn 0.7098 -0.1691 0.6838
vn 0.7185 -0.1622 0.6764
vn 0.4259 -0.2690 0.8639
vn 0.4322 -0.2660 0.8616
vn 0.6280 -0.3864 0.6755
vn 0.6175 -0.3899 0.6832
vn 0.2714 -0.4297 0.8612
vn 0.2645 -0.4299 0.8633
vn 0.3824 -0.6214 0.6839
vn 0.3932 -0.6227 0.6765
vn 0.1108 -0.4913 0.8639
vn 0.1176 -0.4937 0.8616
vn 0.1709 -0.7174 0.6754
vn 0.1608 -0.7124 0.6831
vn -0.1118 -0.4958 0.8612
vn -0.1169 -0.4909 0.8633
vn -0.1691 -0.7098 0.6838
vn -0.1622 -0.7185 0.6764
vn -0.2690 -0.4259 0.8639
vn -0.2660 -0.4322 0.8616
vn -0.3864 -0.6280 0.6755
vn -0.3899 -0.6175 0.6832
vn -0.4983 0.7891 -0.3591
vn -0.4946 0.7922 -0.3575
vn -0.4868 0.7796 -0.3940
vn -0.4913 0.7762 -0.3950
vn -0.2057 0.9109 -0.3578
vn -0.2102 0.9092 -0.3593
vn -0.2070 0.8953 -0.3945
vn -0.2025 0.8967 -0.3937
vn 0.2056 0.9104 -0.3590
vn 0.2104 0.9099 -0.3574
vn 0.2070 0.8955 -0.3940
vn 0.2024 0.8962 -0.3949
vn 0.4986 0.7895 -0.3579
vn 0.4942 0.7916 -0.3593
vn 0.4866 0.7794 -0.3945
vn 0.4917 0.7767 -0.3936
vn 0.7891 0.4983 -0.3591
vn 0.7922 0.4946 -0.3575
vn 0.7796 0.4868 -0.3940
vn 0.7762 0.4913 -0.3950
vn 0.9109 0.2057 -0.3578
vn 0.9092 0.2102 -0.3593
vn 0.8953 0.2070 -0.3945
vn 0.8967 0.2025 -0.3937
vn 0.9104 -0.2056 -0.3590
vn 0.9099 -0.2104 -0.3574
vn 0.8955 -0.2070 -0.3940
vn 0.8962 -0.2024 -0.3949
vn 0.7895 -0.4986 -0.3579
vn 0.7916 -0.4942 -0.3593
vn 0.7794 -0.4866 -0.3945
vn 0.7767 -0.4917 -0.3936
vn 0.4983 -0.7891 -0.3591
vn 0.4946 -0.7922 -0.3575
vn 0.4868 -0.7796 -0.3940
vn 0.4913 -0.7762 -0.3950
vn 0.2057 -0.9109 -0.3578
vn 0.2102 -0.9092 -0.3593
vn 0.2070 -0.8953 -0.3945
vn 0.2025 -0.8967 -0.3937
vn -0.2056 -0.9104 -0.3590
vn -0.2104 -0.9099 -0.3574
vn -0.2070 -0.8955 -0.3940
vn -0.2024 -0.8962 -0.3949
vn -0.4986 -0.7895 -0.3579
vn -0.4942 -0.7916 -0.3593
vn -0.4866 -0.7794 -0.3945
vn -0.4917 -0.7767 -0.3936
vn -0.3878 0.6126 0.6887
vn -0.4023 0.6109 0.6819
vn -0.2167 0.3292 0.9191
vn -0.2075 0.3284 0.9215
vn -0.1615 0.7152 0.6800
vn -0.1463 0.7113 0.6875
vn -0.0780 0.3791 0.9221
vn -0.0865 0.3834 0.9195
vn 0.1597 0.7072 0.6888
vn 0.1474 0.7168 0.6815
vn 0.0794 0.3861 0.9190
vn 0.0855 0.3789 0.9215
vn 0.3919 0.6191 0.6805
vn 0.3994 0.6065 0.6875
vn 0.2129 0.3233 0.9220
vn 0.2099 0.3322 0.9196
vn 0.6126 0.3878 0.6887
vn 0.6109 0.4023 0.6819
vn 0.3292 0.2167 0.9191
vn 0.3284 0.2075 0.9215
vn 0.7152 0.1615 0.6800
vn 0.7113 0.1463 0.6875
vn 0.3791 0.0780 0.9221
vn 0.3834 0.0865 0.9195
vn 0.7072 -0.1597 0.6888
vn 0.7168 -0.1474 0.6815
vn 0.3861 -0.0794 0.9190
vn 0.3789 -0.0855 0.9215
vn 0.6191 -0.3919 0.6805
vn 0.6065 -0.3994 0.6875
vn 0.3233 -0.2129 0.9220
vn 0.3322 -0.2099 0.9196
vn 0.3878 -0.6126 0.6887
vn 0.4023 -0.6109 0.6819
vn 0.2168 -0.3292 0.9191
vn 0.2075 -0.3284 0.9215
vn 0.1615 -0.7152 0.6800
vn 0.1463 -0.7113 0.6875
vn 0.0780 -0.3791 0.9221
vn 0.0865 -0.3834 0.9195
vn -0.1597 -0.7072 0.6888
vn -0.1474 -0.7168 0.6815
vn -0.0794 -0.3861 0.9190
vn -0.0855 -0.3789 0.9215
vn -0.3919 -0.6191 0.6805
vn -0.3994 -0.6065 0.6875
vn -0.2129 -0.3233 0.9220
vn -0.2099 -0.3322 0.9196
usemtl None
s off
f 5//1 1//1 2//1
f 1//2 5//2 4//2
f 8//3 4//3 5//3
f 4//4 8//4 7//4
f 6//5 2//5 3//5
f 2//6 6//6 5//6
f 9//7 5//7 6//7
f 5//8 9//8 8//8
f 12//9 1//9 10//9
f 1//10 12//10 2//10
f 14//11 2//11 12//11
f 2//12 14//12 3//12
f 13//13 10//13 11//13
f 10//14 13//14 12//14
f 15//15 12//15 13//15
f 12//16 15//16 14//16
f 18//17 3//17 16//17
f 3//18 18//18 6//18
f 20//19 6//19 18//19
f 6//20 20//20 9//20
f 19//21 16//21 17//21
f 16//22 19//22 18//22
f 21//23 18//23 19//23
f 18//24 21//24 20//24
f 22//25 3//25 14//25
f 3//26 22//26 16//26
f 24//27 16//27 22//27
f 16//28 24//28 17//28
f 23//29 14//29 15//29
f 14//30 23//30 22//30
f 25//31 22//31 23//31
f 22//32 25//32 24//32
f 28//33 17//33 26//33
f 17//34 28//34 19//34
f 30//35 19//35 28//35
f 19//36 30//36 21//36
f 29//37 26//37 27//37
f 26//38 29//38 28//38
f 31//39 28//39 29//39
f 28//40 31//40 30//40
f 32//41 17//41 24//41
f 17//42 32//42 26//42
f 34//43 26//43 32//43
f 26//44 34//44 27//44
f 33//45 24//45 25//45
f 24//46 33//46 32//46
f 35//47 32//47 33//47
f 32//48 35//48 34//48
f 38//49 27//49 36//49
f 27//50 38//50 29//50
f 40//51 29//51 38//51
f 29//52 40//52 31//52
f 39//53 36//53 37//53
f 36//54 39//54 38//54
f 41//55 38//55 39//55
f 38//56 41//56 40//56
f 42//57 27//57 34//57
f 27//58 42//58 36//58
f 44//59 36//59 42//59
f 36//60 44//60 37//60
f 43//61 34//61 35//61
f 34//62 43//62 42//62
f 45//63 42//63 43//63
f 42//64 45//64 44//64
f 48//65 37//65 46//65
f 37//66 48//66 39//66
f 50//67 39//67 48//67
f 39//68 50//68 41//68
f 49//69 46//69 47//69
f 46//70 49//70 48//70
f 51//71 48//71 49//71
f 48//72 51//72 50//72
f 52//73 37//73 44//73
f 37//74 52//74 46//74
f 54//75 46//75 52//75
f 46//76 54//76 47//76
f 53//77 44//77 45//77
f 44//78 53//78 52//78
f 55//79 52//79 53//79
f 52//80 55//80 54//80
f 58//81 11//81 56//81
f 11//82 58//82 13//82
f 60//83 13//83 58//83
f 13//84 60//84 15//84
f 59//85 56//85 57//85
f 56//86 59//86 58//86
f 61//87 58//87 59//87
f 58//88 61//88 60//88
f 64//89 57//89 62//89
f 57//90 64//90 59//90
f 66//91 59//91 64//91
f 59//92 66//92 61//92
f 65//93 62//93 63//93
f 62//94 65//94 64//94
f 67//95 64//95 65//95
f 64//96 67//96 66//96
f 70//97 63//97 68//97
f 63//98 70//98 65//98
f 72//99 65//99 70//99
f 65//100 72//100 67//100
f 71//101 68//101 69//101
f 68//102 71//102 70//102
f 73//103 70//103 71//103
f 70//104 73//104 72//104
f 76//105 69//105 74//105
f 69//106 76//106 71//106
f 78//107 71//107 76//107
f 71//108 78//108 73//108
f 77//109 74//109 75//109
f 74//110 77//110 76//110
f 79//111 76//111 77//111
f 76//112 79//112 78//112
f 82//113 75//113 80//113
f 75//114 82//114 77//114
f 84//115 77//115 82//115
f 77//116 84//116 79//116
f 83//117 80//117 81//117
f 80//118 83//118 82//118
f 85//119 82//119 83//119
f 82//120 85//120 84//120
f 87//121 81//121 86//121
f 81//122 87//122 83//122
f 88//123 83//123 87//123
f 83//124 88//124 85//124
f 8//125 86//125 7//125
f 86//126 8//126 87//126
f 9//127 87//127 8//127
f 87//128 9//128 88//128
f 89//129 15//129 60//129
f 15//130 89//130 23//130
f 91//131 23//131 89//131
f 23//132 91//132 25//132
f 90//133 60//133 61//133
f 60//134 90//134 89//134
f 92//135 89//135 90//135
f 89//136 92//136 91//136
f 93//137 61//137 66//137
f 61//138 93//138 90//138
f 95//139 90//139 93//139
f 90//140 95//140 92//140
f 94//141 66//141 67//141
f 66//142 94//142 93//142
f 96//143 93//143 94//143
f 93//144 96//144 95//144
f 97//145 67//145 72//145
f 67//146 97//146 94//146
f 99//147 94//147 97//147
f 94//148 99//148 96//148
f 98//149 72//149 73//149
f 72//150 98//150 97//150
f 100//151 97//151 98//151
f 97//152 100//152 99//152
f 101//153 73//153 78//153
f 73//154 101//154 98//154
f 103//155 98//155 101//155
f 98//156 103//156 100//156
f 102//157 78//157 79//157
f 78//158 102//158 101//158
f 104//159 101//159 102//159
f 101//160 104//160 103//160
f 105//161 79//161 84//161
f 79//162 105//162 102//162
f 107//163 102//163 105//163
f 102//164 107//164 104//164
f 106//165 84//165 85//165
f 84//166 106//166 105//166
f 108//167 105//167 106//167
f 105//168 108//168 107//168
f 109//169 85//169 88//169
f 85//170 109//170 106//170
f 110//171 106//171 109//171
f 106//172 110//172 108//172
f 20//173 88//173 9//173
f 88//174 20//174 109//174
f 21//175 109//175 20//175
f 109//176 21//176 110//176
f 111//177 25//177 91//177
f 25//178 111//178 33//178
f 113//179 33//179 111//179
f 33//180 113//180 35//180
f 112//181 91//181 92//181
f 91//182 112//182 111//182
f 114//183 111//183 112//183
f 111//184 114//184 113//184
f 115//185 92//185 95//185
f 92//186 115//186 112//186
f 117//187 112//187 115//187
f 112//188 117//188 114//188
f 116//189 95//189 96//189
f 95//190 116//190 115//190
f 118//191 115//191 116//191
f 115//192 118//192 117//192
f 119//193 96//193 99//193
f 96//194 119//194 116//194
f 121//195 116//195 119//195
f 116//196 121//196 118//196
f 120//197 99//197 100//197
f 99//198 120//198 119//198
f 122//199 119//199 120//199
f 119//200 122//200 121//200
f 123//201 100//201 103//201
f 100//202 123//202 120//202
f 125//203 120//203 123//203
f 120//204 125//204 122//204
f 124//205 103//205 104//205
f 103//206 124//206 123//206
f 126//207 123//207 124//207
f 123//208 126//208 125//208
f 127//209 104//209 107//209
f 104//210 127//210 124//210
f 129//211 124//211 127//211
f 124//212 129//212 126//212
f 128//213 107//213 108//213
f 107//214 128//214 127//214
f 130//215 127//215 128//215
f 127//216 130//216 129//216
f 131//217 108//217 110//217
f 108//218 131//218 128//218
f 132//219 128//219 131//219
f 128//220 132//220 130//220
f 30//221 110//221 21//221
f 110//222 30//222 131//222
f 31//223 131//223 30//223
f 131//224 31//224 132//224
f 133//225 35//225 113//225
f 35//226 133//226 43//226
f 135//227 43//227 133//227
f 43//228 135//228 45//228
f 134//229 113//229 114//229
f 113//230 134//230 133//230
f 136//231 133//231 134//231
f 133//232 136//232 135//232
f 137//233 114//233 117//233
f 114//234 137//234 134//234
f 139//235 134//235 137//235
f 134//236 139//236 136//236
f 138//237 117//237 118//237
f 117//238 138//238 137//238
f 140//239 137//239 138//239
f 137//240 140//240 139//240
f 141//241 118//241 121//241
f 118//242 141//242 138//242
f 143//243 138//243 141//243
f 138//244 143//244 140//244
f 142//245 121//245 122//245
f 121//246 142//246 141//246
f 144//247 141//247 142//247
f 141//248 144//248 143//248
f 145//249 122//249 125//249
f 122//250 145//250 142//250
f 147//251 142//251 145//251
f 142//252 147//252 144//252
f 146//253 125//253 126//253
f 125//254 146//254 145//254
f 148//255 145//255 146//255
f 145//256 148//256 147//256
f 149//257 126//257 129//257
f 126//258 149//258 146//258
f 151//259 146//259 149//259
f 146//260 151//260 148//260
f 150//261 129//261 130//261
f 129//262 150//262 149//262
f 152//263 149//263 150//263
f 149//264 152//264 151//264
f 153//265 130//265 132//265
f 130//266 153//266 150//266
f 154//267 150//267 153//267
f 150//268 154//268 152//268
f 40//269 132//269 31//269
f 132//270 40//270 153//270
f 41//271 153//271 40//271
f 153//272 41//272 154//272
f 155//273 45//273 135//273
f 45//274 155//274 53//274
f 157//275 53//275 155//275
f 53//276 157//276 55//276
f 156//277 135//277 136//277
f 135//278 156//278 155//278
f 158//279 155//279 156//279
f 155//280 158//280 157//280
f 159//281 136//281 139//281
f 136//282 159//282 156//282
f 161//283 156//283 159//283
f 156//284 161//284 158//284
f 160//285 139//285 140//285
f 139//286 160//286 159//286
f 162//287 159//287 160//287
f 159//288 162//288 161//288
f 163//289 140//289 143//289
f 140//290 163//290 160//290
f 165//291 160//291 163//291
f 160//292 165//292 162//292
f 164//293 143//293 144//293
f 143//294 164//294 163//294
f 166//295 163//295 164//295
f 163//296 166//296 165//296
f 167//297 144//297 147//297
f 144//298 167//298 164//298
f 169//299 164//299 167//299
f 164//300 169//300 166//300
f 168//301 147//301 148//301
f 147//302 168//302 167//302
f 170//303 167//303 168//303
f 167//304 170//304 169//304
f 171//305 148//305 151//305
f 148//306 171//306 168//306
f 173//307 168//307 171//307
f 168//308 173//308 170//308
f 172//309 151//309 152//309
f 151//310 172//310 171//310
f 174//311 171//311 172//311
f 171//312 174//312 173//312
f 175//313 152//313 154//313
f 152//314 175//314 172//314
f 176//315 172//315 175//315
f 172//316 176//316 174//316
f 50//317 154//317 41//317
f 154//318 50//318 175//318
f 51//319 175//319 50//319
f 175//320 51//320 176//320
