# Blender v2.79 (sub 0) OBJ File: ''
# www.blender.org
mtllib m550.mtl
o m550
v -0.112010 0.349182 0.225923
v 0.185775 -0.316217 0.225923
v 0.185775 -0.316217 -0.381571
v -0.112010 0.349182 -0.381571
v 0.109790 0.448444 0.225923
v 0.407575 -0.216955 0.225923
v 0.407575 -0.216955 -0.381571
v 0.109790 0.448444 -0.381571
v -0.535767 0.106344 0.177324
v -0.277687 -0.470335 0.177324
v -0.277687 -0.470335 -0.332972
v -0.535767 0.106344 -0.332972
v 0.040912 0.364424 0.177324
v 0.298992 -0.212255 0.177324
v 0.298992 -0.212255 -0.332972
v 0.040912 0.364424 -0.332972
v -0.344100 0.085573 0.247591
v -0.165429 -0.313666 0.247591
v -0.156572 -0.309702 0.150877
v -0.335243 0.089537 0.150877
v 0.097282 0.283105 0.296109
v 0.275954 -0.116134 0.296109
v 0.284811 -0.112170 0.199396
v 0.106140 0.287069 0.199396
v 0.385031 -0.184416 0.225923
v 0.400912 -0.219904 0.225923
v 0.400912 -0.219904 -0.381571
v 0.385031 -0.184416 -0.381571
v 0.398338 -0.178460 0.225923
v 0.414220 -0.213948 0.225923
v 0.414220 -0.213948 -0.381571
v 0.398338 -0.178460 -0.381571
v 0.103114 0.445473 0.225923
v 0.118996 0.409985 0.225923
v 0.118996 0.409985 -0.381571
v 0.103114 0.445473 -0.381571
v 0.116422 0.451429 0.225923
v 0.132304 0.415941 0.225923
v 0.132304 0.415941 -0.381571
v 0.116422 0.451429 -0.381571
v 0.103140 0.445504 -0.342692
v 0.400925 -0.219895 -0.342692
v 0.400925 -0.219895 -0.381571
v 0.103140 0.445504 -0.381571
v 0.116448 0.451459 -0.342692
v 0.414233 -0.213939 -0.342692
v 0.414233 -0.213939 -0.381571
v 0.116448 0.451459 -0.381571
v 0.103140 0.445504 0.225923
v 0.400925 -0.219895 0.225923
v 0.400925 -0.219895 0.187044
v 0.103140 0.445504 0.187044
v 0.116448 0.451459 0.225923
v 0.414233 -0.213939 0.225923
v 0.414233 -0.213939 0.187044
v 0.116448 0.451459 0.187044
v -0.379034 0.083284 0.359572
v -0.190437 -0.338135 0.359572
v -0.190437 -0.338135 0.320692
v -0.379034 0.083284 0.320692
v 0.042385 0.271881 0.359572
v 0.230982 -0.149538 0.359572
v 0.230982 -0.149538 0.320692
v 0.042385 0.271881 0.320692
vn -0.9128 -0.4085 0.0000
vn 0.0000 0.0000 1.0000
vn -0.4085 0.9128 0.0000
vn 0.0000 0.0000 -1.0000
vn 0.4085 -0.9128 0.0000
vn 0.9128 0.4085 0.0000
vn -0.9082 -0.4064 -0.0998
vn -0.0911 -0.0408 0.9950
vn 0.0911 0.0408 -0.9950
vn 0.9082 0.4064 0.0998
vn -0.4085 0.9127 0.0000
vn -0.4084 0.9128 0.0000
usemtl None
s off
f 1//1 4//1 2//1
f 2//1 4//1 3//1
f 1//2 6//2 5//2
f 1//2 2//2 6//2
f 1//3 5//3 4//3
f 4//3 5//3 8//3
f 4//4 8//4 7//4
f 4//4 7//4 3//4
f 2//5 7//5 6//5
f 2//5 3//5 7//5
f 6//6 8//6 5//6
f 6//6 7//6 8//6
f 9//1 12//1 10//1
f 10//1 12//1 11//1
f 9//2 14//2 13//2
f 9//2 10//2 14//2
f 9//3 13//3 12//3
f 12//3 13//3 16//3
f 12//4 16//4 15//4
f 12//4 15//4 11//4
f 10//5 15//5 14//5
f 10//5 11//5 15//5
f 14//6 16//6 13//6
f 14//6 15//6 16//6
f 17//7 20//7 18//7
f 18//7 20//7 19//7
f 17//8 22//8 21//8
f 17//8 18//8 22//8
f 17//3 21//3 20//3
f 20//3 21//3 24//3
f 20//9 24//9 23//9
f 20//9 23//9 19//9
f 18//5 23//5 22//5
f 18//5 19//5 23//5
f 22//10 24//10 21//10
f 22//10 23//10 24//10
f 25//1 28//1 26//1
f 26//1 28//1 27//1
f 25//2 30//2 29//2
f 25//2 26//2 30//2
f 25//11 29//11 28//11
f 28//11 29//11 32//11
f 28//4 32//4 31//4
f 28//4 31//4 27//4
f 26//5 31//5 30//5
f 26//5 27//5 31//5
f 30//6 32//6 29//6
f 30//6 31//6 32//6
f 33//1 36//1 34//1
f 34//1 36//1 35//1
f 33//2 38//2 37//2
f 33//2 34//2 38//2
f 33//3 37//3 36//3
f 36//3 37//3 40//3
f 36//4 40//4 39//4
f 36//4 39//4 35//4
f 34//5 39//5 38//5
f 34//5 35//5 39//5
f 38//6 40//6 37//6
f 38//6 39//6 40//6
f 41//1 44//1 42//1
f 42//1 44//1 43//1
f 41//2 46//2 45//2
f 41//2 42//2 46//2
f 41//12 45//12 44//12
f 44//12 45//12 48//12
f 44//4 48//4 47//4
f 44//4 47//4 43//4
f 42//5 47//5 46//5
f 42//5 43//5 47//5
f 46//6 48//6 45//6
f 46//6 47//6 48//6
f 49//1 52//1 50//1
f 50//1 52//1 51//1
f 49//2 54//2 53//2
f 49//2 50//2 54//2
f 49//12 53//12 52//12
f 52//12 53//12 56//12
f 52//4 56//4 55//4
f 52//4 55//4 51//4
f 50//5 55//5 54//5
f 50//5 51//5 55//5
f 54//6 56//6 53//6
f 54//6 55//6 56//6
f 57//1 60//1 58//1
f 58//1 60//1 59//1
f 57//2 62//2 61//2
f 57//2 58//2 62//2
f 57//3 61//3 60//3
f 60//3 61//3 64//3
f 60//4 64//4 63//4
f 60//4 63//4 59//4
f 58//5 63//5 62//5
f 58//5 59//5 63//5
f 62//6 64//6 61//6
f 62//6 63//6 64//6
