# Blender v2.79 (sub 0) OBJ File: ''
# www.blender.org
mtllib m554.mtl
o m554
v -0.224999 -0.324396 0.365233
v -0.224999 -0.324396 0.400410
v 0.225000 -0.324395 0.400410
v 0.225000 -0.324395 0.365233
v 0.225000 -0.267611 0.400409
v 0.225000 -0.049401 0.400409
v 0.225000 -0.049401 0.365233
v 0.225000 -0.280284 0.400410
v 0.225000 -0.275569 0.400410
v 0.225000 -0.272176 0.400410
v 0.213983 0.020146 0.400409
v 0.213983 0.020146 0.365233
v 0.182022 0.082865 0.400409
v 0.182022 0.082865 0.365233
v 0.132244 0.132638 0.365233
v 0.132244 0.132638 0.400409
v 0.069522 0.164594 0.400409
v 0.069522 0.164594 0.365233
v -0.000005 0.175604 0.400409
v -0.000005 0.175604 0.365233
v -0.069532 0.164591 0.400409
v -0.069532 0.164591 0.365233
v -0.132253 0.132632 0.400409
v -0.132253 0.132632 0.365233
v -0.182029 0.082857 0.365233
v -0.182029 0.082857 0.400409
v -0.213987 0.020136 0.400409
v -0.213987 0.020136 0.365233
v -0.225000 -0.049391 0.400409
v -0.225000 -0.049391 0.365233
v -0.225000 -0.260174 0.400409
v -0.225000 -0.264708 0.400410
v -0.225000 -0.268197 0.400410
v -0.225000 -0.273221 0.400410
v -0.016074 -0.006851 0.365233
v 0.280181 0.237090 0.400409
v -0.280183 0.237089 0.400409
v 0.288077 0.229195 0.400409
v 0.288078 -0.328901 0.400409
v 0.286859 -0.333452 0.400410
v 0.284734 -0.335578 0.400410
v 0.280182 -0.336798 0.400410
v -0.280181 -0.336799 0.400410
v -0.284733 -0.335579 0.400410
v -0.286858 -0.333453 0.400410
v -0.288077 -0.328903 0.400409
v -0.288079 0.229194 0.400409
v 0.281827 0.249590 0.406659
v -0.281829 0.249589 0.406659
v -0.291204 0.247077 0.406659
v -0.284733 0.235870 0.400409
v 0.284731 0.235871 0.400409
v 0.291202 0.247078 0.406659
v -0.298067 0.240214 0.406659
v -0.286860 0.233743 0.400409
v 0.286858 0.233745 0.400409
v 0.298065 0.240216 0.406659
v 0.300577 0.230841 0.406659
v -0.300579 0.230840 0.406659
v 0.300578 -0.330547 0.406659
v 0.298067 -0.339922 0.406660
v -0.300577 -0.330548 0.406659
v -0.298066 -0.339923 0.406660
v 0.291205 -0.346785 0.406660
v -0.291204 -0.346786 0.406660
v -0.281827 -0.349299 0.406660
v 0.281828 -0.349298 0.406660
v 0.281827 0.249590 0.425409
v -0.281829 0.249589 0.425409
v 0.291202 0.247078 0.425409
v -0.291204 0.247077 0.425409
v -0.298067 0.240214 0.425409
v 0.298065 0.240216 0.425409
v -0.300579 0.230840 0.425409
v 0.300577 0.230841 0.425409
v -0.300577 -0.330548 0.425409
v 0.298067 -0.339922 0.425410
v 0.300578 -0.330547 0.425409
v -0.298066 -0.339923 0.425410
v 0.291205 -0.346785 0.425410
v -0.291204 -0.346786 0.425410
v -0.281827 -0.349299 0.425410
v 0.281828 -0.349298 0.425410
v -0.271076 -0.052241 0.158752
v -0.317790 0.070979 0.271697
v -0.270214 -0.079026 0.134201
v 0.271074 -0.052240 0.158752
v 0.317789 0.070981 0.271697
v 0.270213 -0.079024 0.134201
v -0.370706 0.290193 0.271692
v -0.368272 0.294029 0.271692
v 0.368269 0.294031 0.271692
v -0.389358 0.260122 0.271693
v 0.389356 0.260124 0.271693
v 0.385825 0.265696 0.271692
v 0.257421 -0.477265 0.075647
v -0.257421 -0.477266 0.075647
v 0.263651 -0.283387 0.104153
v -0.262601 -0.315958 0.099365
v -0.368272 0.294030 0.312709
v 0.368269 0.294032 0.312709
v 0.257421 -0.477715 0.227333
v 0.271074 -0.052610 0.331694
v 0.389356 0.259997 0.331694
v -0.257421 -0.477716 0.227333
v -0.271075 -0.052611 0.331694
v -0.389358 0.259995 0.331694
v -0.287500 -0.079026 0.134201
v -0.274999 -0.504026 0.071713
v 0.275001 -0.504025 0.071713
v 0.287500 -0.079024 0.134201
v 0.474999 0.070981 0.271697
v -0.475000 0.070978 0.271697
v 0.474998 0.345981 0.271690
v -0.475001 0.345978 0.271690
v -0.475000 0.070953 -0.486583
v -0.475001 0.345953 -0.486593
v 0.474999 0.070956 -0.486583
v 0.474998 0.345956 -0.486593
v 0.418748 0.345979 0.215440
v 0.418748 0.345957 -0.430343
v -0.418751 0.345955 -0.430343
v -0.418751 0.345977 0.215440
v -0.287500 -0.079041 -0.349083
v 0.287500 -0.079039 -0.349083
v -0.274999 -0.504041 -0.286568
v 0.275001 -0.504040 -0.286568
v 0.168915 -0.120991 0.314907
v 0.163928 -0.130021 0.312690
v -0.168920 -0.120988 0.314908
v -0.163950 -0.129985 0.312699
v 0.170056 -0.070212 0.327373
v 0.161019 -0.052610 0.331694
v -0.170060 -0.070213 0.327373
v -0.161022 -0.052611 0.331694
v 0.099002 0.059286 0.331694
v 0.149531 -0.009740 0.331694
v -0.149536 -0.009745 0.331694
v -0.098998 0.059290 0.331694
v 0.000002 0.095525 0.331694
v -0.077591 -0.227679 0.288716
v 0.000002 -0.249442 0.283373
v -0.098998 -0.222080 0.290090
v 0.017612 -0.244714 0.284533
v -0.128291 -0.186394 0.298851
v -0.118584 -0.201750 0.295081
v 0.118580 -0.201756 0.295079
v 0.099002 -0.222078 0.290091
v -0.098996 -0.155949 0.375460
v -0.098996 -0.070212 0.398433
v -0.098996 0.015524 0.375460
v 0.000004 0.028788 0.398430
v 0.099003 0.015525 0.375455
v 0.099004 -0.070211 0.398428
v 0.099004 -0.155948 0.375455
v 0.099003 -0.218712 0.312692
v 0.000003 -0.241685 0.325958
v -0.098997 -0.218712 0.312697
v 0.000005 -0.169212 0.398431
v -0.400001 0.333455 -0.411593
v -0.400001 0.333477 0.196691
v 0.399998 0.333458 -0.411593
v 0.399998 0.333479 0.196691
vn 0.0000 -1.0000 0.0000
vn 1.0000 0.0000 0.0000
vn 0.9877 0.1565 0.0000
vn 0.8910 0.4540 0.0000
vn 0.4540 0.8910 0.0000
vn 0.1564 0.9877 0.0000
vn -0.1564 0.9877 0.0000
vn -0.4540 0.8910 0.0000
vn -0.8910 0.4540 0.0000
vn -0.9877 0.1564 0.0000
vn -1.0000 0.0000 0.0000
vn -1.0000 -0.0000 -0.0001
vn 0.0000 0.0000 -1.0000
vn -0.0000 -0.0001 -1.0000
vn 0.0001 -0.0000 -1.0000
vn 0.0001 -0.0001 -1.0000
vn -0.0000 0.4472 -0.8944
vn -0.1158 0.4320 -0.8944
vn -0.1157 0.4320 -0.8944
vn 0.1158 0.4320 -0.8944
vn 0.1157 0.4320 -0.8944
vn -0.3162 0.3162 -0.8944
vn 0.3162 0.3162 -0.8944
vn 0.3162 0.3163 -0.8944
vn 0.4320 0.1157 -0.8944
vn -0.4320 0.1157 -0.8944
vn 0.4472 0.0000 -0.8944
vn 0.4320 -0.1157 -0.8944
vn 0.4320 -0.1158 -0.8944
vn -0.4320 -0.1157 -0.8944
vn -0.4319 -0.1158 -0.8944
vn -0.4472 -0.0000 -0.8944
vn 0.3162 -0.3162 -0.8944
vn 0.3163 -0.3162 -0.8944
vn -0.3162 -0.3162 -0.8944
vn -0.3163 -0.3162 -0.8944
vn -0.1158 -0.4320 -0.8944
vn -0.1157 -0.4320 -0.8944
vn 0.1158 -0.4320 -0.8944
vn 0.0000 -0.4472 -0.8944
vn -0.0000 1.0000 0.0000
vn 0.2588 0.9659 0.0000
vn -0.2588 0.9659 0.0000
vn -0.7071 0.7071 0.0000
vn 0.7071 0.7072 0.0000
vn -0.9659 0.2588 0.0000
vn 0.9659 0.2588 0.0000
vn 0.9660 -0.2587 0.0000
vn -0.9660 -0.2587 0.0000
vn 0.7072 -0.7071 0.0000
vn -0.7072 -0.7071 0.0000
vn -0.2589 -0.9659 0.0000
vn 0.2589 -0.9659 0.0000
vn 0.7071 0.7071 0.0000
vn 0.9995 -0.0321 -0.0001
vn 0.9353 -0.3539 -0.0008
vn 0.9353 -0.3539 -0.0007
vn -0.9995 -0.0321 -0.0001
vn -0.9353 -0.3539 -0.0008
vn -0.9353 -0.3539 -0.0007
vn 0.0000 -1.0000 -0.0030
vn 0.8447 0.5353 0.0011
vn 0.8501 0.5267 -0.0000
vn -0.8498 0.5271 0.0011
vn -0.8444 0.5358 -0.0000
vn 0.0000 -0.2384 0.9712
vn -0.0000 0.4871 0.8733
vn 0.0000 0.0000 1.0000
vn 0.0000 -0.1455 0.9894
vn 0.0000 -0.1454 0.9894
vn -0.0001 -0.1455 0.9894
vn 0.0000 -0.6757 0.7372
vn -0.0001 0.0001 1.0000
vn 0.0000 -0.6757 -0.7371
vn -0.6247 -0.7809 0.0000
vn 0.6247 -0.7809 0.0000
vn -0.9996 -0.0294 0.0000
vn 0.9996 -0.0294 0.0000
vn 0.0000 -0.1455 -0.9894
vn -0.6947 -0.1862 0.6948
vn -0.6947 0.1862 0.6948
vn -0.2506 0.6845 0.6846
vn -0.2505 0.6845 0.6846
vn 0.2506 0.6845 0.6845
vn 0.6948 -0.1862 0.6947
vn 0.6948 -0.1861 0.6947
vn 0.6948 0.1862 0.6947
vn 0.7032 -0.7032 0.1047
vn -0.2418 -0.9597 0.1429
vn -0.2419 -0.9597 0.1430
vn -0.2549 -0.9513 0.1733
vn -0.7032 -0.7032 0.1048
vn 0.6948 -0.5086 0.5086
vn 0.7667 -0.5612 0.3119
vn -0.6947 0.5086 0.5086
vn 0.6948 0.5086 0.5086
vn 0.2447 -0.9539 0.1737
vn 0.2446 -0.9539 0.1738
vn 0.2562 -0.9561 0.1424
vn -0.6948 -0.5087 0.5084
vn -0.6947 -0.5086 0.5086
vn -0.7666 -0.5612 0.3120
vn 0.2506 -0.6845 0.6845
vn -0.2505 -0.6846 0.6846
vn -0.2505 -0.6845 0.6846
vn -0.0001 0.2384 -0.9712
vn 0.0000 0.2384 -0.9712
vn -0.0000 0.2385 -0.9712
vn 0.5547 0.8320 -0.0000
vn 0.5547 0.8321 -0.0000
vn -0.0000 0.8321 0.5547
vn -0.0000 0.8320 0.5547
vn -0.5547 0.8321 -0.0000
vn -0.0000 0.8320 -0.5547
usemtl None
s off
f 3//1 2//1 1//1
f 4//1 3//1 1//1
f 6//2 5//2 4//2
f 7//2 6//2 4//2
f 8//2 3//2 4//2
f 9//2 8//2 4//2
f 10//2 9//2 4//2
f 5//2 10//2 4//2
f 11//3 6//3 7//3
f 12//3 11//3 7//3
f 13//4 11//4 12//4
f 14//4 13//4 12//4
f 17//5 16//5 15//5
f 18//5 17//5 15//5
f 19//6 17//6 18//6
f 20//6 19//6 18//6
f 21//7 19//7 20//7
f 22//7 21//7 20//7
f 23//8 21//8 22//8
f 24//8 23//8 22//8
f 27//9 26//9 25//9
f 28//9 27//9 25//9
f 28//10 30//10 29//10
f 27//10 28//10 29//10
f 32//11 31//11 30//11
f 33//11 32//11 30//11
f 34//11 33//11 30//11
f 2//12 34//12 30//12
f 1//11 2//11 30//11
f 31//11 29//11 30//11
f 24//13 22//13 35//13
f 1//13 30//13 35//13
f 22//13 20//13 35//13
f 20//13 18//13 35//13
f 18//13 15//13 35//13
f 15//13 14//13 35//13
f 14//13 12//13 35//13
f 12//13 7//13 35//13
f 30//13 28//13 35//13
f 7//13 4//13 35//13
f 28//13 25//13 35//13
f 4//13 1//13 35//13
f 25//13 24//13 35//13
f 36//13 16//13 17//13
f 19//13 21//13 37//13
f 21//13 23//13 37//13
f 5//13 6//13 38//13
f 39//13 5//13 38//13
f 6//13 11//13 38//13
f 11//13 13//13 38//13
f 10//13 5//13 39//13
f 40//14 10//14 39//14
f 9//13 10//13 40//13
f 41//13 9//13 40//13
f 8//13 9//13 41//13
f 42//13 8//13 41//13
f 43//13 2//13 42//13
f 43//13 34//13 2//13
f 2//13 3//13 42//13
f 3//13 8//13 42//13
f 33//13 34//13 43//13
f 44//13 33//13 43//13
f 32//13 33//13 44//13
f 45//13 32//13 44//13
f 31//15 32//15 45//15
f 46//16 31//16 45//16
f 47//13 27//13 46//13
f 47//13 26//13 27//13
f 27//13 29//13 46//13
f 29//13 31//13 46//13
f 49//17 48//17 36//17
f 37//17 49//17 36//17
f 50//18 49//18 37//18
f 51//19 50//19 37//19
f 48//20 53//20 52//20
f 36//21 48//21 52//21
f 54//22 50//22 51//22
f 55//22 54//22 51//22
f 53//23 57//23 56//23
f 52//24 53//24 56//24
f 57//25 58//25 38//25
f 56//25 57//25 38//25
f 59//26 54//26 55//26
f 47//26 59//26 55//26
f 58//27 60//27 39//27
f 38//27 58//27 39//27
f 60//28 61//28 40//28
f 39//29 60//29 40//29
f 63//30 62//30 46//30
f 45//31 63//31 46//31
f 62//32 59//32 47//32
f 46//32 62//32 47//32
f 61//33 64//33 41//33
f 40//34 61//34 41//34
f 65//35 63//35 45//35
f 44//36 65//36 45//36
f 66//37 65//37 44//37
f 43//38 66//38 44//38
f 64//39 67//39 42//39
f 41//39 64//39 42//39
f 67//40 66//40 43//40
f 42//40 67//40 43//40
f 69//41 68//41 48//41
f 49//41 69//41 48//41
f 68//42 70//42 53//42
f 48//42 68//42 53//42
f 71//43 69//43 49//43
f 50//43 71//43 49//43
f 72//44 71//44 50//44
f 54//44 72//44 50//44
f 70//45 73//45 57//45
f 53//45 70//45 57//45
f 74//46 72//46 54//46
f 59//46 74//46 54//46
f 73//47 75//47 58//47
f 57//47 73//47 58//47
f 76//11 74//11 59//11
f 62//11 76//11 59//11
f 78//48 77//48 61//48
f 60//48 78//48 61//48
f 75//2 78//2 60//2
f 58//2 75//2 60//2
f 79//49 76//49 62//49
f 63//49 79//49 62//49
f 77//50 80//50 64//50
f 61//50 77//50 64//50
f 81//51 79//51 63//51
f 65//51 81//51 63//51
f 82//52 81//52 65//52
f 66//52 82//52 65//52
f 80//53 83//53 67//53
f 64//53 80//53 67//53
f 83//1 82//1 66//1
f 67//1 83//1 66//1
f 16//54 13//54 14//54
f 15//54 16//54 14//54
f 13//13 16//13 38//13
f 38//14 16//14 56//14
f 56//13 16//13 52//13
f 52//13 16//13 36//13
f 26//44 23//44 24//44
f 25//44 26//44 24//44
f 23//13 26//13 47//13
f 23//14 47//14 55//14
f 23//13 55//13 51//13
f 23//13 51//13 37//13
f 19//13 36//13 17//13
f 19//13 37//13 36//13
f 92//41 91//41 100//41
f 101//41 92//41 100//41
f 96//55 98//55 102//55
f 89//55 87//55 103//55
f 98//55 89//55 103//55
f 102//55 98//55 103//55
f 103//56 88//56 104//56
f 103//56 87//56 88//56
f 88//57 94//57 104//57
f 99//58 97//58 105//58
f 106//58 99//58 105//58
f 86//58 99//58 106//58
f 84//58 86//58 106//58
f 93//59 85//59 106//59
f 107//60 93//60 106//60
f 85//59 84//59 106//59
f 97//61 96//61 102//61
f 105//61 97//61 102//61
f 94//62 95//62 104//62
f 95//63 92//63 101//63
f 104//63 95//63 101//63
f 90//64 93//64 107//64
f 100//64 90//64 107//64
f 91//65 90//65 100//65
f 102//66 103//66 106//66
f 105//66 102//66 106//66
f 101//67 100//67 107//67
f 104//67 101//67 107//67
f 103//68 104//68 107//68
f 106//68 103//68 107//68
f 109//69 97//69 108//69
f 110//70 96//70 97//70
f 109//70 110//70 97//70
f 110//69 98//69 96//69
f 111//69 89//69 98//69
f 110//69 111//69 98//69
f 99//69 86//69 108//69
f 97//71 99//71 108//71
f 87//72 89//72 111//72
f 88//72 87//72 111//72
f 112//72 88//72 111//72
f 84//72 85//72 113//72
f 86//72 84//72 113//72
f 108//72 86//72 113//72
f 95//73 94//73 114//73
f 92//68 95//68 114//68
f 88//68 112//68 114//68
f 94//68 88//68 114//68
f 85//68 93//68 115//68
f 113//68 85//68 115//68
f 93//68 90//68 115//68
f 90//68 91//68 115//68
f 91//68 92//68 115//68
f 92//68 114//68 115//68
f 117//11 116//11 113//11
f 115//11 117//11 113//11
f 114//2 112//2 118//2
f 119//2 114//2 118//2
f 120//41 114//41 119//41
f 121//41 120//41 119//41
f 121//41 119//41 117//41
f 122//41 121//41 117//41
f 119//13 118//13 116//13
f 117//13 119//13 116//13
f 122//41 117//41 115//41
f 123//41 122//41 115//41
f 118//74 125//74 124//74
f 116//74 118//74 124//74
f 116//75 124//75 108//75
f 113//75 116//75 108//75
f 112//76 111//76 125//76
f 118//76 112//76 125//76
f 124//77 126//77 109//77
f 108//77 124//77 109//77
f 111//78 110//78 127//78
f 125//78 111//78 127//78
f 125//79 127//79 126//79
f 124//79 125//79 126//79
f 109//1 126//1 127//1
f 110//1 109//1 127//1
f 123//41 115//41 114//41
f 120//41 123//41 114//41
f 134//80 130//80 149//80
f 150//80 134//80 149//80
f 135//81 134//81 150//81
f 151//81 135//81 150//81
f 151//81 138//81 135//81
f 140//82 139//82 151//82
f 152//83 140//83 151//83
f 136//84 140//84 152//84
f 153//84 136//84 152//84
f 128//85 132//85 154//85
f 155//86 128//86 154//86
f 133//87 137//87 153//87
f 154//87 133//87 153//87
f 154//87 132//87 133//87
f 156//88 148//88 147//88
f 143//89 141//89 157//89
f 158//90 143//90 157//90
f 157//91 141//91 142//91
f 158//92 146//92 143//92
f 129//93 128//93 155//93
f 156//93 129//93 155//93
f 156//94 147//94 129//94
f 151//95 139//95 138//95
f 153//96 137//96 136//96
f 142//97 144//97 156//97
f 157//98 142//98 156//98
f 156//99 144//99 148//99
f 130//100 131//100 158//100
f 149//101 130//101 158//101
f 158//102 131//102 145//102
f 158//102 145//102 146//102
f 159//103 157//103 156//103
f 155//103 159//103 156//103
f 149//104 158//104 157//104
f 159//105 149//105 157//105
f 140//13 136//13 137//13
f 139//13 140//13 137//13
f 138//13 139//13 137//13
f 135//13 138//13 137//13
f 133//13 135//13 137//13
f 131//106 130//106 134//106
f 145//107 131//107 134//107
f 146//107 145//107 134//107
f 143//107 146//107 134//107
f 141//107 143//107 134//107
f 135//107 141//107 134//107
f 144//107 142//107 141//107
f 148//108 144//108 141//108
f 147//107 148//107 141//107
f 129//107 147//107 141//107
f 128//107 129//107 141//107
f 132//107 128//107 141//107
f 133//107 132//107 141//107
f 135//107 133//107 141//107
f 160//109 122//109 123//109
f 161//110 160//110 123//110
f 162//111 121//111 122//111
f 160//112 162//112 122//112
f 163//113 120//113 121//113
f 162//113 163//113 121//113
f 161//114 123//114 120//114
f 163//114 161//114 120//114
f 160//41 161//41 163//41
f 162//41 160//41 163//41
