# Blender v2.79 (sub 0) OBJ File: ''
# www.blender.org
mtllib m556.mtl
o m556
v -0.394649 -0.328632 0.289634
v 0.397018 -0.328632 0.289634
v 0.397018 -0.328632 -0.502033
v -0.394649 -0.328632 -0.502033
v -0.394649 0.225534 0.289634
v 0.397018 0.225534 0.289634
v 0.397018 0.225534 -0.502033
v -0.394649 0.225534 -0.502033
v -0.323399 0.233451 -0.106200
v -0.327935 0.233451 -0.092240
v -0.323399 0.217618 -0.106200
v -0.327935 0.217617 -0.092240
v -0.347149 0.217618 -0.106200
v -0.347149 0.233451 -0.106200
v -0.339810 0.233451 -0.083612
v -0.339810 0.217617 -0.083612
v -0.354488 0.233451 -0.083612
v -0.354488 0.217617 -0.083612
v -0.366363 0.233451 -0.092240
v -0.366363 0.217617 -0.092240
v -0.370899 0.233451 -0.106200
v -0.370899 0.217618 -0.106200
v -0.366363 0.233451 -0.120160
v -0.366363 0.217618 -0.120160
v -0.354488 0.233451 -0.128787
v -0.354488 0.217618 -0.128787
v -0.339810 0.233451 -0.128787
v -0.339810 0.217618 -0.128787
v -0.327935 0.233451 -0.120160
v -0.327935 0.217618 -0.120160
v -0.323399 0.233451 0.052134
v -0.327935 0.233451 0.066094
v -0.323399 0.217618 0.052134
v -0.327935 0.217617 0.066094
v -0.347149 0.217618 0.052134
v -0.347149 0.233451 0.052134
v -0.339810 0.233451 0.074721
v -0.339810 0.217617 0.074721
v -0.354488 0.233451 0.074721
v -0.354488 0.217617 0.074721
v -0.366363 0.233451 0.066094
v -0.366363 0.217617 0.066094
v -0.370899 0.233451 0.052134
v -0.370899 0.217618 0.052134
v -0.366363 0.233451 0.038174
v -0.366363 0.217618 0.038174
v -0.354488 0.233451 0.029546
v -0.354488 0.217618 0.029546
v -0.339810 0.233451 0.029546
v -0.339810 0.217618 0.029546
v -0.327935 0.233451 0.038174
v -0.327935 0.217618 0.038174
v -0.323399 0.233451 0.210467
v -0.327935 0.233451 0.224427
v -0.323399 0.217618 0.210467
v -0.327935 0.217617 0.224427
v -0.347149 0.217618 0.210467
v -0.347149 0.233451 0.210467
v -0.339810 0.233451 0.233055
v -0.339810 0.217617 0.233055
v -0.354488 0.233451 0.233055
v -0.354488 0.217617 0.233055
v -0.366363 0.233451 0.224427
v -0.366363 0.217617 0.224427
v -0.370899 0.233451 0.210467
v -0.370899 0.217618 0.210467
v -0.366363 0.233451 0.196507
v -0.366363 0.217618 0.196507
v -0.354488 0.233451 0.187879
v -0.354488 0.217618 0.187879
v -0.339810 0.233451 0.187879
v -0.339810 0.217618 0.187879
v -0.327935 0.233451 0.196507
v -0.327935 0.217618 0.196507
v 0.001184 -0.051549 0.131300
v 0.321420 0.181116 0.447967
v 0.001184 -0.051549 0.447967
v 0.123504 0.324911 0.447967
v -0.121135 0.324911 0.447967
v -0.319052 0.181116 0.447967
v -0.394649 -0.051549 0.447967
v -0.319052 -0.284214 0.447967
v -0.121135 -0.428009 0.447967
v 0.123504 -0.428009 0.447967
v 0.321420 -0.284214 0.447967
v 0.397018 -0.051549 0.447967
v -0.315482 0.217618 0.210467
v 0.317851 0.217618 0.210467
v 0.317851 0.217618 -0.422866
v -0.315482 0.217618 -0.422866
v -0.315482 0.249284 0.210467
v 0.317851 0.249284 0.210467
v 0.317851 0.249284 -0.422866
v -0.315482 0.249284 -0.422866
vn 0.0000 -1.0000 0.0000
vn 0.0000 0.0000 1.0000
vn -1.0000 0.0000 0.0000
vn 0.0000 0.0000 -1.0000
vn 1.0000 0.0000 0.0000
vn 0.0000 1.0000 0.0000
vn 0.9511 0.0000 0.3090
vn 0.0000 -1.0000 -0.0001
vn 0.5878 0.0000 0.8090
vn -0.5878 0.0000 0.8090
vn -0.9511 0.0000 0.3090
vn -0.9511 0.0000 -0.3090
vn -0.5878 0.0000 -0.8090
vn 0.5878 0.0000 -0.8090
vn 0.9511 0.0000 -0.3090
vn 0.6122 0.1989 -0.7653
vn 0.3784 0.5208 -0.7653
vn 0.0000 0.6437 -0.7653
vn -0.3784 0.5208 -0.7653
vn -0.6122 0.1989 -0.7653
vn -0.6122 -0.1989 -0.7653
vn -0.3784 -0.5208 -0.7653
vn 0.0000 -0.6437 -0.7653
vn 0.3784 -0.5208 -0.7653
vn 0.6122 -0.1989 -0.7653
usemtl None
s off
f 1//1 4//1 2//1
f 2//1 4//1 3//1
f 1//2 6//2 5//2
f 1//2 2//2 6//2
f 1//3 5//3 4//3
f 4//3 5//3 8//3
f 4//4 8//4 7//4
f 4//4 7//4 3//4
f 2//5 7//5 6//5
f 2//5 3//5 7//5
f 6//6 8//6 5//6
f 6//6 7//6 8//6
f 9//7 10//7 11//7
f 10//7 12//7 11//7
f 13//8 11//8 12//8
f 14//6 10//6 9//6
f 10//9 15//9 12//9
f 15//9 16//9 12//9
f 13//1 12//1 16//1
f 14//6 15//6 10//6
f 15//2 17//2 16//2
f 17//2 18//2 16//2
f 13//1 16//1 18//1
f 14//6 17//6 15//6
f 17//10 19//10 18//10
f 19//10 20//10 18//10
f 13//1 18//1 20//1
f 14//6 19//6 17//6
f 19//11 21//11 20//11
f 21//11 22//11 20//11
f 13//8 20//8 22//8
f 14//6 21//6 19//6
f 21//12 23//12 22//12
f 23//12 24//12 22//12
f 13//1 22//1 24//1
f 14//6 23//6 21//6
f 23//13 25//13 24//13
f 25//13 26//13 24//13
f 13//1 24//1 26//1
f 14//6 25//6 23//6
f 25//4 27//4 26//4
f 27//4 28//4 26//4
f 13//1 26//1 28//1
f 14//6 27//6 25//6
f 27//14 29//14 28//14
f 29//14 30//14 28//14
f 13//1 28//1 30//1
f 14//6 29//6 27//6
f 29//15 9//15 30//15
f 9//15 11//15 30//15
f 13//1 30//1 11//1
f 14//6 9//6 29//6
f 31//7 32//7 33//7
f 32//7 34//7 33//7
f 35//8 33//8 34//8
f 36//6 32//6 31//6
f 32//9 37//9 34//9
f 37//9 38//9 34//9
f 35//1 34//1 38//1
f 36//6 37//6 32//6
f 37//2 39//2 38//2
f 39//2 40//2 38//2
f 35//1 38//1 40//1
f 36//6 39//6 37//6
f 39//10 41//10 40//10
f 41//10 42//10 40//10
f 35//1 40//1 42//1
f 36//6 41//6 39//6
f 41//11 43//11 42//11
f 43//11 44//11 42//11
f 35//8 42//8 44//8
f 36//6 43//6 41//6
f 43//12 45//12 44//12
f 45//12 46//12 44//12
f 35//1 44//1 46//1
f 36//6 45//6 43//6
f 45//13 47//13 46//13
f 47//13 48//13 46//13
f 35//1 46//1 48//1
f 36//6 47//6 45//6
f 47//4 49//4 48//4
f 49//4 50//4 48//4
f 35//1 48//1 50//1
f 36//6 49//6 47//6
f 49//14 51//14 50//14
f 51//14 52//14 50//14
f 35//1 50//1 52//1
f 36//6 51//6 49//6
f 51//15 31//15 52//15
f 31//15 33//15 52//15
f 35//1 52//1 33//1
f 36//6 31//6 51//6
f 53//7 54//7 55//7
f 54//7 56//7 55//7
f 57//8 55//8 56//8
f 58//6 54//6 53//6
f 54//9 59//9 56//9
f 59//9 60//9 56//9
f 57//1 56//1 60//1
f 58//6 59//6 54//6
f 59//2 61//2 60//2
f 61//2 62//2 60//2
f 57//1 60//1 62//1
f 58//6 61//6 59//6
f 61//10 63//10 62//10
f 63//10 64//10 62//10
f 57//1 62//1 64//1
f 58//6 63//6 61//6
f 63//11 65//11 64//11
f 65//11 66//11 64//11
f 57//8 64//8 66//8
f 58//6 65//6 63//6
f 65//12 67//12 66//12
f 67//12 68//12 66//12
f 57//1 66//1 68//1
f 58//6 67//6 65//6
f 67//13 69//13 68//13
f 69//13 70//13 68//13
f 57//1 68//1 70//1
f 58//6 69//6 67//6
f 69//4 71//4 70//4
f 71//4 72//4 70//4
f 57//1 70//1 72//1
f 58//6 71//6 69//6
f 71//14 73//14 72//14
f 73//14 74//14 72//14
f 57//1 72//1 74//1
f 58//6 73//6 71//6
f 73//15 53//15 74//15
f 53//15 55//15 74//15
f 57//1 74//1 55//1
f 58//6 53//6 73//6
f 75//16 76//16 86//16
f 77//2 86//2 76//2
f 75//17 78//17 76//17
f 77//2 76//2 78//2
f 75//18 79//18 78//18
f 77//2 78//2 79//2
f 75//19 80//19 79//19
f 77//2 79//2 80//2
f 75//20 81//20 80//20
f 77//2 80//2 81//2
f 75//21 82//21 81//21
f 77//2 81//2 82//2
f 75//22 83//22 82//22
f 77//2 82//2 83//2
f 75//23 84//23 83//23
f 77//2 83//2 84//2
f 75//24 85//24 84//24
f 77//2 84//2 85//2
f 75//25 86//25 85//25
f 77//2 85//2 86//2
f 87//1 90//1 88//1
f 88//1 90//1 89//1
f 87//2 92//2 91//2
f 87//2 88//2 92//2
f 87//3 91//3 90//3
f 90//3 91//3 94//3
f 90//4 94//4 93//4
f 90//4 93//4 89//4
f 88//5 93//5 92//5
f 88//5 89//5 93//5
f 92//6 94//6 91//6
f 92//6 93//6 94//6
