# Blender v2.79 (sub 0) OBJ File: ''
# www.blender.org
mtllib m569.mtl
o m569
v -0.490138 -0.842523 0.270662
v -0.490138 -0.842523 -0.228973
v 0.317209 -0.842523 0.270641
v 0.317209 -0.842523 -0.228973
v -0.153701 -0.834854 -0.204941
v -0.074245 -0.834854 -0.204941
v -0.153190 -0.802130 -0.189602
v -0.074245 -0.802130 -0.189602
v -0.153701 -0.794461 -0.312826
v -0.074245 -0.794461 -0.312826
v -0.153701 -0.778099 -0.338391
v -0.074245 -0.778099 -0.338391
v -0.153701 -0.761737 -0.348617
v -0.074245 -0.761737 -0.348617
v -0.153701 -0.757647 -0.302600
v -0.074245 -0.757647 -0.302600
v -0.153701 -0.750489 -0.312826
v -0.074245 -0.750489 -0.312826
v -0.153190 -0.074035 -0.312826
v -0.074245 -0.074035 -0.312826
v -0.153190 -0.050004 -0.348617
v -0.074245 -0.050004 -0.348617
v -0.153190 -0.036710 -0.204941
v -0.074245 -0.036710 -0.204941
v 0.244092 -0.015747 -0.113929
v 0.260454 -0.015747 -0.113929
v 0.244092 -0.015747 -0.148187
v 0.260454 -0.015747 -0.148187
v -0.153190 -0.003476 -0.219258
v -0.074245 -0.003476 -0.219258
v 0.244092 0.001126 -0.083763
v 0.260454 0.001126 -0.083763
v 0.244092 0.001126 -0.178354
v 0.260454 0.001126 -0.178354
v 0.244092 0.014420 -0.189091
v -0.421112 0.014420 0.109510
v -0.413443 0.014420 0.150925
v -0.403728 0.014420 0.172400
v -0.390945 0.014420 0.187228
v -0.331634 0.014420 0.200010
v -0.425202 0.014420 0.020032
v -0.420601 0.014420 -0.070980
v -0.241645 0.014420 0.210747
v -0.411909 0.014420 -0.115463
v -0.402194 0.014420 -0.136938
v -0.390945 0.014420 -0.149721
v -0.331634 0.014420 -0.161481
v -0.133760 0.014420 0.210747
v -0.241645 0.014420 -0.171707
v -0.049293 0.014420 0.200010
v 0.003780 0.014420 0.187228
v 0.016563 0.014420 0.172400
v 0.026278 0.014420 0.150925
v 0.033947 0.014420 0.109510
v -0.133811 0.014420 -0.171707
v -0.049293 0.014420 -0.161481
v 0.024744 0.014420 -0.115463
v 0.033436 0.014420 -0.070980
v 0.038037 0.014420 0.020032
v 0.003780 0.014420 -0.149721
v 0.015029 0.014420 -0.136938
v 0.244092 0.029759 -0.066378
v 0.260454 0.029759 -0.066378
v 0.244092 0.029759 -0.195738
v 0.260454 0.029759 -0.195738
v -0.423157 0.049189 0.111044
v -0.415487 0.049189 0.152459
v -0.405773 0.049189 0.174445
v -0.392479 0.049189 0.189784
v -0.332657 0.049189 0.202566
v -0.427247 0.049189 0.020543
v -0.422646 0.049189 -0.071491
v -0.413954 0.049189 -0.116486
v -0.404239 0.049189 -0.137961
v -0.392479 0.049189 -0.150743
v -0.332657 0.049189 -0.163015
v -0.241645 0.049189 0.213304
v -0.186936 0.049189 0.215349
v -0.132942 0.049189 0.213304
v -0.241645 0.049189 -0.173241
v -0.132942 0.049189 -0.173241
v -0.047606 0.049189 0.202566
v 0.005825 0.049189 0.189273
v 0.019119 0.049189 0.173934
v 0.028834 0.049189 0.152459
v 0.036504 0.049189 0.111044
v -0.047606 0.049189 -0.163015
v 0.005825 0.049189 -0.150743
v 0.017585 0.049189 -0.137961
v 0.027300 0.049189 -0.116486
v 0.035992 0.049189 -0.071491
v 0.040594 0.049189 0.020543
v 0.005825 0.059415 0.189273
v 0.005825 0.059415 -0.150743
v 0.015029 0.059415 -0.141540
v 0.019119 0.059415 0.173934
v 0.027300 0.059415 -0.116486
v 0.028834 0.059415 0.152459
v 0.035992 0.059415 -0.071491
v 0.036504 0.059415 0.111044
v 0.040594 0.059415 0.020543
v 0.071272 0.059415 0.244698
v 0.071272 0.059415 -0.202896
v -0.186936 0.059415 0.215349
v -0.132942 0.059415 0.213304
v -0.132942 0.059415 -0.173241
v -0.047606 0.059415 0.202566
v -0.047606 0.059415 -0.163015
v -0.332657 0.059415 0.202566
v -0.332657 0.059415 -0.163015
v -0.241645 0.059415 0.213304
v -0.241645 0.059415 -0.173241
v -0.452813 0.059415 0.244749
v -0.452813 0.059415 -0.202896
v -0.427247 0.059415 0.020543
v -0.423157 0.059415 0.111044
v -0.422646 0.059415 -0.071491
v -0.415487 0.059415 0.152459
v -0.413954 0.059415 -0.116486
v -0.405773 0.059415 0.174445
v -0.404239 0.059415 -0.137961
v -0.392479 0.059415 0.189784
v -0.392479 0.059415 -0.150743
v -0.421112 0.060437 0.109510
v -0.403728 0.060437 0.172400
v -0.331634 0.060437 0.200010
v -0.425202 0.060437 0.020032
v -0.413443 0.060437 0.150925
v -0.390945 0.060437 0.187228
v -0.420601 0.060437 -0.070980
v -0.402194 0.060437 -0.136938
v -0.331634 0.060437 -0.161481
v -0.241645 0.060437 0.210747
v -0.133760 0.060437 0.210747
v -0.411909 0.060437 -0.115463
v -0.390945 0.060437 -0.149721
v -0.049293 0.060437 0.200010
v -0.241645 0.060437 -0.171707
v -0.133811 0.060437 -0.171707
v 0.024744 0.060437 -0.115463
v 0.026278 0.060437 0.150925
v -0.049293 0.060437 -0.161481
v 0.003780 0.060437 0.187228
v 0.003780 0.060437 -0.149721
v 0.015029 0.060437 -0.136938
v 0.016563 0.060437 0.172400
v 0.033436 0.060437 -0.070980
v 0.033947 0.060437 0.109510
v 0.038037 0.060437 0.020032
v 0.244092 0.061971 -0.066378
v 0.260454 0.061971 -0.066378
v 0.244092 0.061971 -0.195738
v 0.260454 0.061971 -0.195738
v 0.107063 0.067595 0.137120
v 0.107063 0.067595 0.114623
v 0.107063 0.067595 0.088035
v 0.107063 0.067595 0.065538
v 0.107063 0.067595 0.038950
v 0.107063 0.067595 0.016453
v 0.108597 0.067595 0.186716
v 0.108597 0.067595 0.164219
v 0.173533 0.067595 0.186716
v 0.173533 0.067595 0.164219
v 0.198075 0.067595 0.186716
v 0.198075 0.067595 0.164219
v 0.263011 0.067595 0.186716
v 0.263011 0.067595 0.164219
v 0.263522 0.067595 0.137120
v 0.263522 0.067595 0.114623
v 0.263522 0.067595 0.088035
v 0.263522 0.067595 0.065538
v 0.263522 0.067595 0.038950
v 0.263522 0.067595 0.016453
v 0.114222 0.068618 0.183649
v 0.114222 0.068618 0.167798
v 0.157171 0.068618 0.133541
v 0.157171 0.068618 0.117691
v 0.157171 0.068618 0.084967
v 0.157171 0.068618 0.069117
v 0.157171 0.068618 0.034860
v 0.157171 0.068618 0.019009
v 0.203699 0.068618 0.183649
v 0.203699 0.068618 0.167798
v 0.167397 0.068618 0.183649
v 0.167397 0.068618 0.167798
v 0.257386 0.068618 0.183649
v 0.257386 0.068618 0.167798
v 0.210858 0.068618 0.133541
v 0.210858 0.068618 0.117691
v 0.210858 0.068618 0.084967
v 0.210858 0.068618 0.069117
v 0.210858 0.068618 0.034860
v 0.210858 0.068618 0.019009
v 0.097860 0.070663 -0.055130
v 0.097860 0.070663 -0.202896
v 0.201143 0.070663 -0.055130
v 0.201143 0.070663 -0.202896
v 0.241536 0.070663 -0.055130
v 0.241536 0.070663 -0.202896
v 0.263522 0.070663 -0.055130
v 0.263522 0.070663 -0.202896
v 0.244092 0.077310 -0.073025
v 0.244092 0.077310 -0.189091
v 0.260454 0.077310 -0.189091
v 0.198075 0.087536 0.186716
v 0.198075 0.087536 0.164219
v 0.201143 0.087536 -0.055130
v 0.201143 0.087536 -0.202896
v 0.241536 0.087536 -0.055130
v 0.241536 0.087536 -0.202896
v 0.263011 0.087536 0.186716
v 0.263011 0.087536 0.164219
v 0.263522 0.087536 0.137120
v 0.263522 0.087536 0.114623
v 0.263522 0.087536 0.088035
v 0.263522 0.087536 0.065538
v 0.263522 0.087536 0.038950
v 0.263522 0.087536 0.016453
v 0.263522 0.087536 -0.055130
v 0.263522 0.087536 -0.202896
v 0.317720 0.087536 0.270641
v 0.317720 0.087536 -0.228973
v 0.203699 0.087536 0.183649
v 0.203699 0.087536 0.167798
v 0.114222 0.087536 0.183649
v 0.114222 0.087536 0.167798
v 0.157171 0.087536 0.133541
v 0.157171 0.087536 0.117691
v 0.157171 0.087536 0.084967
v 0.157171 0.087536 0.069117
v 0.157171 0.087536 0.034860
v 0.157171 0.087536 0.019009
v 0.071272 0.087536 0.244698
v 0.071272 0.087536 -0.202896
v 0.097860 0.087536 -0.055130
v 0.097860 0.087536 -0.202896
v 0.107063 0.087536 0.137120
v 0.107063 0.087536 0.114623
v 0.107063 0.087536 0.088035
v 0.107063 0.087536 0.065538
v 0.107063 0.087536 0.038950
v 0.107063 0.087536 0.016453
v 0.108597 0.087536 0.186716
v 0.108597 0.087536 0.164219
v 0.173533 0.087536 0.186716
v 0.173533 0.087536 0.164219
v 0.257386 0.087536 0.183649
v 0.257386 0.087536 0.167798
v 0.167397 0.087536 0.183649
v 0.167397 0.087536 0.167798
v 0.210858 0.087536 0.133541
v 0.210858 0.087536 0.117691
v 0.210858 0.087536 0.084967
v 0.210858 0.087536 0.069117
v 0.210858 0.087536 0.034860
v 0.210858 0.087536 0.019009
v -0.489626 0.087536 0.270662
v -0.489626 0.087536 -0.228973
v -0.452813 0.087536 0.244749
v -0.452813 0.087536 -0.202896
v 0.244092 0.091115 -0.083763
v 0.260454 0.091115 -0.083763
v 0.244092 0.091115 -0.178354
v 0.260454 0.091115 -0.178354
v 0.244092 0.107477 -0.113929
v 0.260454 0.107477 -0.113929
v 0.244092 0.107477 -0.148187
v 0.260454 0.107477 -0.148187
vn 0.1261 0.0000 0.9920
vn 0.0000 0.0000 1.0000
vn -0.1129 0.0000 -0.9936
vn 0.2163 0.0000 -0.9763
vn 0.0000 0.0000 -1.0000
vn 0.2341 0.0000 0.9722
vn -0.9833 0.0000 0.1821
vn -0.9987 0.0000 -0.0505
vn 0.1201 0.0000 -0.9928
vn 0.9987 0.0000 -0.0505
vn -0.1945 0.0000 -0.9809
vn 0.9990 0.0000 0.0457
vn 0.9814 0.0000 -0.1918
vn -0.1185 0.0000 0.9930
vn 0.9833 0.0000 0.1821
vn 0.9111 0.0000 -0.4122
vn -0.9111 0.0000 -0.4122
vn -0.2107 0.0000 0.9776
vn -0.9814 0.0000 -0.1918
vn 0.7507 0.0000 -0.6606
vn -0.9990 0.0000 0.0457
vn -0.7574 0.0000 0.6529
vn 0.7574 0.0000 0.6529
vn -0.7507 0.0000 -0.6606
vn -0.9111 0.0000 0.4122
vn 0.9111 0.0000 0.4122
vn 0.0000 -1.0000 0.0000
vn 0.0000 1.0000 0.0000
vn 0.0000 -0.5300 -0.8480
vn 0.0000 -0.4244 0.9055
vn 0.0000 -0.9450 0.3270
vn 0.0000 -0.9365 -0.3506
vn 0.0000 0.9410 -0.3385
vn 0.0000 0.9305 0.3663
vn 0.0000 0.3956 0.9184
vn 0.0000 -0.8423 -0.5391
vn 0.0000 0.8192 0.5735
vn 1.0000 0.0000 0.0000
vn -1.0000 -0.0011 0.0041
vn -1.0000 0.0000 0.0000
vn -1.0000 0.0008 -0.0002
vn 0.0000 0.8790 -0.4768
vn 0.0000 -0.8728 0.4882
vn 0.0000 0.6139 -0.7894
vn 0.0000 -0.5190 0.8548
vn 0.0000 -0.8728 -0.4882
vn 0.0000 0.3976 -0.9176
vn 0.0000 0.8790 0.4768
vn 0.2634 -0.6061 -0.7505
vn 0.2470 0.5949 0.7649
vn 0.0000 -0.3976 -0.9176
vn 0.0000 0.3976 0.9176
vn -1.0000 0.0005 0.0000
vn 1.0000 -0.0005 0.0000
vn -0.0001 0.0000 -1.0000
vn 0.1172 0.0000 -0.9931
vn 0.1117 0.0000 0.9937
vn -0.9988 0.0000 0.0499
vn 0.9988 0.0000 0.0499
vn -0.1248 0.0000 -0.9922
vn -0.1190 0.0000 0.9929
vn 0.9990 0.0000 -0.0452
vn -0.9990 0.0000 -0.0451
vn 0.2090 0.0000 -0.9779
vn 0.2010 0.0000 0.9796
vn -0.2414 0.0000 -0.9704
vn -0.2239 0.0000 0.9746
vn 0.0374 0.0000 -0.9993
vn -0.0379 0.0000 -0.9993
vn -0.9818 0.0000 0.1897
vn 0.9818 0.0000 0.1897
vn 0.9833 0.0000 -0.1821
vn -0.9833 0.0000 -0.1821
vn -0.9079 -0.0832 0.4107
vn 0.9147 0.0000 -0.4042
vn 0.7557 0.0000 -0.6549
vn -0.7557 0.0000 -0.6549
vn 0.7359 0.0000 0.6771
vn -0.7359 0.0000 0.6771
vn -0.9999 0.0133 0.0050
vn -1.0000 0.0007 0.0005
vn 0.0000 -0.5190 -0.8548
vn 0.0000 0.5123 0.8588
vn -0.8981 0.0000 0.4399
vn -0.7053 0.0706 0.7054
usemtl None
s off
f 134//1 48//1 50//1
f 133//2 43//2 48//2
f 138//3 49//3 47//3
f 56//4 142//4 144//4
f 49//5 138//5 139//5
f 51//6 143//6 137//6
f 124//7 36//7 37//7
f 41//8 127//8 130//8
f 55//9 139//9 142//9
f 58//10 147//10 149//10
f 132//11 47//11 46//11
f 59//12 149//12 148//12
f 57//13 140//13 147//13
f 43//14 133//14 126//14
f 54//15 148//15 141//15
f 61//16 145//16 140//16
f 131//17 45//17 44//17
f 40//18 126//18 129//18
f 42//19 130//19 135//19
f 145//20 61//20 60//20
f 127//21 41//21 36//21
f 39//22 129//22 125//22
f 52//23 146//23 143//23
f 45//24 131//24 136//24
f 38//25 125//25 128//25
f 53//26 141//26 146//26
f 48//27 55//27 56//27
f 134//28 137//28 142//28
f 135//28 130//28 133//28
f 44//27 48//27 43//27
f 42//27 43//27 40//27
f 130//28 127//28 126//28
f 132//28 136//28 131//28
f 47//27 48//27 45//27
f 146//28 142//28 137//28
f 52//27 51//27 50//27
f 55//27 48//27 47//27
f 139//28 138//28 132//28
f 38//27 37//27 36//27
f 125//28 126//28 124//28
f 58//27 56//27 61//27
f 145//28 142//28 147//28
f 148//28 149//28 147//28
f 54//27 56//27 58//27
f 148//28 142//28 146//28
f 54//27 53//27 52//27
f 127//28 124//28 126//28
f 126//28 125//28 129//28
f 134//28 131//28 135//28
f 142//28 145//28 144//28
f 40//27 39//27 38//27
f 41//27 40//27 36//27
f 48//27 44//27 45//27
f 56//27 60//27 61//27
f 18//2 20//2 19//2
f 21//5 22//5 14//5
f 12//29 11//29 13//29
f 8//30 7//30 5//30
f 24//31 23//31 19//31
f 6//32 5//32 9//32
f 22//33 21//33 29//33
f 7//34 8//34 16//34
f 30//35 29//35 23//35
f 10//36 9//36 11//36
f 18//37 17//37 15//37
f 10//38 16//38 8//38
f 7//39 15//39 9//39
f 18//38 16//38 10//38
f 17//40 11//40 9//40
f 13//41 17//41 19//41
f 20//38 18//38 14//38
f 23//40 29//40 21//40
f 24//38 20//38 22//38
f 11//40 17//40 13//40
f 12//38 14//38 18//38
f 25//27 27//27 28//27
f 151//2 150//2 62//2
f 265//28 266//28 268//28
f 263//42 267//42 268//42
f 26//43 32//43 31//43
f 204//44 203//44 263//44
f 63//45 62//45 31//45
f 65//5 64//5 152//5
f 28//46 27//46 33//46
f 153//47 152//47 203//47
f 266//48 265//48 261//48
f 31//40 267//40 27//40
f 32//38 26//38 28//38
f 28//38 34//38 65//38
f 31//40 62//40 150//40
f 151//38 63//38 32//38
f 35//40 33//40 27//40
f 35//40 267//40 152//40
f 65//38 153//38 264//38
f 266//38 262//38 151//38
f 265//40 267//40 202//40
f 33//49 35//49 65//49
f 261//50 202//50 151//50
f 203//40 152//40 267//40
f 267//40 150//40 202//40
f 65//51 35//51 64//51
f 202//52 150//52 151//52
f 264//38 153//38 204//38
f 1//2 3//2 221//2
f 4//5 2//5 258//5
f 2//53 1//53 257//53
f 3//54 4//54 222//54
f 4//27 3//27 1//27
f 260//28 234//28 222//28
f 259//28 257//28 221//28
f 111//28 113//28 102//28
f 106//28 103//28 114//28
f 220//28 219//28 221//28
f 233//55 102//55 113//55
f 260//2 114//2 103//2
f 259//28 260//28 258//28
f 101//28 102//28 103//28
f 115//28 114//28 113//28
f 259//38 113//38 114//38
f 234//40 103//40 102//40
f 233//28 235//28 236//28
f 218//28 217//28 221//28
f 219//28 218//28 221//28
f 242//28 235//28 233//28
f 243//28 233//28 221//28
f 105//28 104//28 102//28
f 216//28 215//28 221//28
f 217//28 216//28 221//28
f 234//5 236//5 208//5
f 101//28 100//28 102//28
f 117//28 114//28 115//28
f 111//28 109//28 113//28
f 112//28 114//28 110//28
f 196//28 197//28 195//28
f 107//28 105//28 102//28
f 106//28 108//28 103//28
f 240//28 241//28 233//28
f 207//28 235//28 242//28
f 214//28 213//28 221//28
f 215//28 214//28 221//28
f 245//28 221//28 211//28
f 239//28 240//28 233//28
f 238//28 239//28 233//28
f 210//28 208//28 207//28
f 212//28 211//28 221//28
f 239//28 238//28 214//28
f 241//28 240//28 216//28
f 237//28 206//28 212//28
f 155//28 154//28 168//28
f 159//28 158//28 172//28
f 157//28 156//28 170//28
f 159//2 173//2 218//2
f 170//5 156//5 239//5
f 168//5 154//5 237//5
f 157//2 171//2 216//2
f 155//2 169//2 214//2
f 172//5 158//5 241//5
f 100//28 98//28 102//28
f 99//28 103//28 97//28
f 109//28 122//28 113//28
f 107//28 102//28 93//28
f 110//28 114//28 123//28
f 108//28 94//28 103//28
f 116//28 113//28 118//28
f 117//28 119//28 114//28
f 200//28 201//28 199//28
f 237//28 238//28 233//28
f 235//38 194//38 195//38
f 220//40 201//40 200//40
f 209//38 198//38 199//38
f 208//40 197//40 196//40
f 244//28 237//28 233//28
f 98//28 96//28 102//28
f 97//28 103//28 95//28
f 208//2 210//2 220//2
f 118//28 113//28 120//28
f 93//28 102//28 96//28
f 119//28 121//28 114//28
f 219//5 209//5 207//5
f 120//28 113//28 122//28
f 95//28 103//28 94//28
f 121//28 123//28 114//28
f 236//2 195//2 197//2
f 194//5 235//5 207//5
f 80//2 81//2 106//2
f 246//28 206//28 237//28
f 77//56 70//56 109//56
f 112//57 110//57 76//57
f 101//58 99//58 91//58
f 71//59 72//59 117//59
f 105//60 107//60 82//60
f 81//61 87//61 108//61
f 115//62 116//62 66//62
f 100//63 101//63 92//63
f 246//28 237//28 244//28
f 161//28 160//28 162//28
f 165//28 164//28 166//28
f 243//5 245//5 162//5
f 161//2 163//2 246//2
f 205//5 211//5 166//5
f 165//2 167//2 212//2
f 70//64 69//64 122//64
f 110//65 123//65 75//65
f 107//66 93//66 83//66
f 87//67 88//67 94//67
f 111//68 104//68 78//68
f 104//69 105//69 79//69
f 99//70 97//70 90//70
f 72//71 73//71 119//71
f 116//72 118//72 67//72
f 98//73 100//73 86//73
f 95//74 89//74 90//74
f 245//28 205//28 206//28
f 238//38 237//38 154//38
f 244//38 243//38 160//38
f 242//38 241//38 158//38
f 173//40 172//40 217//40
f 163//40 162//40 245//40
f 167//40 166//40 211//40
f 169//40 168//40 213//40
f 171//40 170//40 215//40
f 240//38 239//38 156//38
f 206//38 205//38 164//38
f 68//75 67//75 118//75
f 96//17 98//17 85//17
f 121//26 119//26 73//26
f 210//2 199//2 201//2
f 209//5 219//5 200//5
f 120//76 122//76 69//76
f 84//77 83//77 93//77
f 74//78 75//78 123//78
f 94//79 88//79 89//79
f 192//2 255//2 231//2
f 255//28 256//28 232//28
f 181//27 193//27 192//27
f 181//5 232//5 256//5
f 193//38 256//38 255//38
f 180//40 231//40 232//40
f 190//2 253//2 229//2
f 191//38 254//38 253//38
f 179//27 191//27 190//27
f 179//5 230//5 254//5
f 253//28 254//28 230//28
f 178//40 229//40 230//40
f 188//2 251//2 227//2
f 189//38 252//38 251//38
f 177//27 189//27 188//27
f 177//5 228//5 252//5
f 251//28 252//28 228//28
f 176//40 227//40 228//40
f 184//2 249//2 225//2
f 185//38 250//38 249//38
f 175//27 185//27 184//27
f 175//5 226//5 250//5
f 249//28 250//28 226//28
f 174//40 225//40 226//40
f 186//2 247//2 223//2
f 187//38 248//38 247//38
f 183//27 187//27 186//27
f 183//5 224//5 248//5
f 247//28 248//28 224//28
f 182//40 223//40 224//40
f 134//1 50//1 137//1
f 133//2 48//2 134//2
f 138//3 47//3 132//3
f 56//4 144//4 60//4
f 49//5 139//5 55//5
f 51//6 137//6 50//6
f 124//7 37//7 128//7
f 41//8 130//8 42//8
f 55//9 142//9 56//9
f 58//10 149//10 59//10
f 132//11 46//11 136//11
f 59//12 148//12 54//12
f 57//13 147//13 58//13
f 43//14 126//14 40//14
f 54//15 141//15 53//15
f 61//16 140//16 57//16
f 131//17 44//17 135//17
f 40//18 129//18 39//18
f 42//19 135//19 44//19
f 145//20 60//20 144//20
f 127//21 36//21 124//21
f 39//22 125//22 38//22
f 52//23 143//23 51//23
f 45//24 136//24 46//24
f 38//25 128//25 37//25
f 53//26 146//26 52//26
f 48//27 56//27 50//27
f 134//28 142//28 139//28
f 135//28 133//28 134//28
f 44//27 43//27 42//27
f 42//27 40//27 41//27
f 130//28 126//28 133//28
f 132//28 131//28 134//28
f 47//27 45//27 46//27
f 146//28 137//28 143//28
f 52//27 50//27 56//27
f 55//27 47//27 49//27
f 139//28 132//28 134//28
f 38//27 36//27 40//27
f 125//28 124//28 128//28
f 58//27 61//27 57//27
f 145//28 147//28 140//28
f 148//28 147//28 142//28
f 54//27 58//27 59//27
f 148//28 146//28 141//28
f 54//27 52//27 56//27
f 18//2 19//2 17//2
f 21//5 14//5 13//5
f 12//29 13//29 14//29
f 8//30 5//30 6//30
f 24//31 19//31 20//31
f 6//32 9//32 10//32
f 22//33 29//33 30//33
f 7//34 16//34 15//34
f 30//35 23//35 24//35
f 10//36 11//36 12//36
f 18//37 15//37 16//37
f 10//38 8//38 6//38
f 7//80 9//80 5//80
f 18//38 10//38 12//38
f 17//40 9//40 15//40
f 13//81 19//81 21//81
f 20//38 14//38 22//38
f 23//40 21//40 19//40
f 24//38 22//38 30//38
f 25//27 28//27 26//27
f 151//2 62//2 63//2
f 265//28 268//28 267//28
f 263//42 268//42 264//42
f 26//43 31//43 25//43
f 204//44 263//44 264//44
f 63//45 31//45 32//45
f 65//5 152//5 153//5
f 28//46 33//46 34//46
f 153//47 203//47 204//47
f 266//48 261//48 262//48
f 31//40 27//40 25//40
f 32//38 28//38 268//38
f 28//38 65//38 268//38
f 31//40 150//40 267//40
f 151//38 32//38 268//38
f 35//40 27//40 267//40
f 35//40 152//40 64//40
f 65//38 264//38 268//38
f 266//38 151//38 268//38
f 265//40 202//40 261//40
f 33//82 65//82 34//82
f 261//83 151//83 262//83
f 203//40 267//40 263//40
f 1//2 221//2 257//2
f 4//5 258//5 222//5
f 2//53 257//53 258//53
f 3//54 222//54 221//54
f 4//27 1//27 2//27
f 260//28 222//28 258//28
f 259//28 221//28 233//28
f 111//28 102//28 104//28
f 106//28 114//28 112//28
f 220//28 221//28 222//28
f 233//55 113//55 259//55
f 260//2 103//2 234//2
f 259//28 258//28 257//28
f 101//28 103//28 99//28
f 115//28 113//28 116//28
f 259//38 114//38 260//38
f 234//40 102//40 233//40
f 233//28 236//28 234//28
f 242//28 233//28 241//28
f 243//28 221//28 245//28
f 234//28 208//28 222//28
f 196//28 195//28 194//28
f 207//28 242//28 218//28
f 245//2 211//2 205//2
f 210//28 207//28 209//28
f 212//28 221//28 213//28
f 239//28 214//28 215//28
f 241//28 216//28 217//28
f 237//28 212//28 213//28
f 155//28 168//28 169//28
f 159//28 172//28 173//28
f 157//28 170//28 171//28
f 159//2 218//2 242//2
f 170//5 239//5 215//5
f 168//5 237//5 213//5
f 157//2 216//2 240//2
f 155//2 214//2 238//2
f 172//5 241//5 217//5
f 200//28 199//28 198//28
f 235//38 195//38 236//38
f 220//40 200//40 219//40
f 209//38 199//38 210//38
f 208//40 196//40 207//40
f 244//28 233//28 243//28
f 208//28 220//28 222//28
f 219//28 207//28 218//28
f 236//2 197//2 208//2
f 194//5 207//5 196//5
f 80//2 106//2 112//2
f 77//56 109//56 111//56
f 112//57 76//57 80//57
f 101//58 91//58 92//58
f 71//59 117//59 115//59
f 105//60 82//60 79//60
f 81//61 108//61 106//61
f 115//62 66//62 71//62
f 100//63 92//63 86//63
f 161//28 162//28 163//28
f 165//28 166//28 167//28
f 243//5 162//5 160//5
f 161//2 246//2 244//2
f 205//5 166//5 164//5
f 165//2 212//2 206//2
f 70//64 122//64 109//64
f 110//65 75//65 76//65
f 107//66 83//66 82//66
f 87//67 94//67 108//67
f 111//68 78//68 77//68
f 104//69 79//69 78//69
f 99//70 90//70 91//70
f 72//71 119//71 117//71
f 116//72 67//72 66//72
f 98//73 86//73 85//73
f 95//84 90//84 97//84
f 245//28 206//28 246//28
f 238//38 154//38 155//38
f 244//38 160//38 161//38
f 242//38 158//38 159//38
f 173//40 217//40 218//40
f 163//40 245//40 246//40
f 167//40 211//40 212//40
f 169//40 213//40 214//40
f 171//40 215//40 216//40
f 240//38 156//38 157//38
f 206//38 164//38 165//38
f 68//75 118//75 120//75
f 96//17 85//17 84//17
f 121//26 73//26 74//26
f 210//2 201//2 220//2
f 209//5 200//5 198//5
f 120//76 69//76 68//76
f 84//77 93//77 96//77
f 74//78 123//78 121//78
f 94//85 89//85 95//85
f 192//2 231//2 180//2
f 255//28 232//28 231//28
f 181//27 192//27 180//27
f 181//5 256//5 193//5
f 193//38 255//38 192//38
f 180//40 232//40 181//40
f 190//2 229//2 178//2
f 191//38 253//38 190//38
f 179//27 190//27 178//27
f 179//5 254//5 191//5
f 253//28 230//28 229//28
f 178//40 230//40 179//40
f 188//2 227//2 176//2
f 189//38 251//38 188//38
f 177//27 188//27 176//27
f 177//5 252//5 189//5
f 251//28 228//28 227//28
f 176//40 228//40 177//40
f 184//2 225//2 174//2
f 185//38 249//38 184//38
f 175//27 184//27 174//27
f 175//5 250//5 185//5
f 249//28 226//28 225//28
f 174//40 226//40 175//40
f 186//2 223//2 182//2
f 187//38 247//38 186//38
f 183//27 186//27 182//27
f 183//5 248//5 187//5
f 247//28 224//28 223//28
f 182//40 224//40 183//40
