# Blender v2.79 (sub 0) OBJ File: ''
# www.blender.org
mtllib m571.mtl
o m571
v -0.336651 -0.188511 0.150308
v 0.336651 -0.188511 0.150308
v 0.336651 -0.054040 -0.284402
v -0.336651 -0.054040 -0.284402
v -0.336651 0.164912 0.259635
v 0.336651 0.164912 0.259635
v 0.336651 0.299384 -0.175076
v -0.336651 0.299384 -0.175076
v -0.397692 -0.036368 -0.278936
v 0.397692 -0.036368 -0.278936
v 0.397692 -0.019969 -0.331950
v -0.397692 -0.019969 -0.331950
v -0.397692 0.317055 -0.169610
v 0.397692 0.317055 -0.169610
v 0.397692 0.333454 -0.222623
v -0.397692 0.333454 -0.222623
v -0.397692 -0.187239 0.208788
v 0.397692 -0.187239 0.208788
v 0.397692 -0.170840 0.155774
v -0.397692 -0.170840 0.155774
v -0.397692 0.166184 0.318115
v 0.397692 0.166184 0.318115
v 0.397692 0.182583 0.265101
v -0.397692 0.182583 0.265101
v -0.397692 -0.171933 0.159309
v -0.342200 -0.171933 0.159309
v -0.342200 -0.035275 -0.282470
v -0.397692 -0.035275 -0.282470
v -0.397692 0.181490 0.268635
v -0.342200 0.181490 0.268635
v -0.342200 0.318148 -0.173144
v -0.397692 0.318148 -0.173144
v 0.342200 -0.171933 0.159309
v 0.397692 -0.171933 0.159309
v 0.397692 -0.035275 -0.282470
v 0.342200 -0.035275 -0.282470
v 0.342200 0.181490 0.268635
v 0.397692 0.181490 0.268635
v 0.397692 0.318148 -0.173144
v 0.342200 0.318148 -0.173144
v -0.184973 -0.252984 -0.204600
v 0.184973 -0.252984 -0.204600
v 0.184973 -0.334979 0.060467
v -0.184973 -0.334979 0.060467
v -0.184973 -0.423335 0.033136
v 0.184973 -0.423335 0.033136
v 0.184973 -0.341340 -0.231932
v -0.184973 -0.341340 -0.231932
v -0.184973 -0.246623 0.087799
v 0.184973 -0.246623 0.087799
v 0.184973 -0.164628 -0.177268
v -0.184973 -0.164628 -0.177268
v -0.416190 -0.232878 0.262437
v 0.416189 -0.232878 0.262437
v 0.416189 -0.194614 0.138739
v -0.416190 -0.194614 0.138739
v -0.416190 0.173559 0.388163
v 0.416189 0.173559 0.388163
v 0.416189 0.211823 0.264465
v -0.416190 0.211823 0.264465
v -0.416190 -0.213746 0.200588
v -0.397692 -0.213746 0.200588
v -0.397692 -0.104419 -0.152835
v -0.416190 -0.104419 -0.152835
v -0.416190 0.051321 0.282583
v -0.397692 0.051321 0.282583
v -0.397692 0.160648 -0.070840
v -0.416190 0.160648 -0.070840
v 0.397692 -0.213746 0.200588
v 0.416189 -0.213746 0.200588
v 0.416189 -0.104419 -0.152835
v 0.397692 -0.104419 -0.152835
v 0.397692 0.051321 0.282583
v 0.416189 0.051321 0.282583
v 0.416189 0.160648 -0.070840
v 0.397692 0.160648 -0.070840
v -0.434687 -0.074871 0.039326
v -0.416190 -0.074871 0.039326
v -0.416190 -0.074871 -0.423107
v -0.434687 -0.074871 -0.423107
v -0.434687 0.073107 0.039326
v -0.416190 0.073107 0.039326
v -0.416190 0.073107 -0.423107
v -0.434687 0.073107 -0.423107
v 0.416189 -0.074871 0.039326
v 0.434687 -0.074871 0.039326
v 0.434687 -0.074871 -0.423107
v 0.416189 -0.074871 -0.423107
v 0.416189 0.073107 0.039326
v 0.434687 0.073107 0.039326
v 0.434687 0.073107 -0.423107
v 0.416189 0.073107 -0.423107
v -0.425438 -0.074871 -0.404610
v 0.425438 -0.074871 -0.404610
v 0.425438 -0.074871 -0.423107
v -0.425438 -0.074871 -0.423107
v -0.425438 0.073107 -0.404610
v 0.425438 0.073107 -0.404610
v 0.425438 0.073107 -0.423107
v -0.425438 0.073107 -0.423107
v 0.027746 -0.000882 -0.561837
v 0.022447 0.015427 -0.561837
v 0.027746 -0.000882 -0.413858
v 0.022447 0.015427 -0.413858
v -0.000000 -0.000882 -0.413858
v -0.000000 -0.000882 -0.561837
v 0.008574 0.025506 -0.561837
v 0.008574 0.025506 -0.413858
v -0.008574 0.025506 -0.561837
v -0.008574 0.025506 -0.413858
v -0.022447 0.015427 -0.561837
v -0.022447 0.015427 -0.413858
v -0.027746 -0.000882 -0.561837
v -0.027746 -0.000882 -0.413858
v -0.022447 -0.017191 -0.561837
v -0.022447 -0.017191 -0.413858
v -0.008574 -0.027270 -0.561837
v -0.008574 -0.027270 -0.413858
v 0.008574 -0.027270 -0.561837
v 0.008574 -0.027270 -0.413858
v 0.022447 -0.017191 -0.561837
v 0.022447 -0.017191 -0.413858
vn 0.0000 -0.9553 -0.2955
vn 0.0000 -0.2955 0.9553
vn -1.0000 0.0000 0.0000
vn 0.0000 0.2955 -0.9553
vn 1.0000 0.0000 0.0000
vn 0.0000 0.9553 0.2955
vn 0.0000 -0.4796 -0.8775
vn 0.0000 -0.7085 0.7057
vn 0.6562 -0.7209 -0.2230
vn -0.6562 -0.7209 -0.2230
vn 0.0000 -1.0000 0.0000
vn 0.0000 0.0000 1.0000
vn 0.0000 0.0000 -1.0000
vn 0.0000 1.0000 0.0000
vn 0.9511 0.3090 0.0000
vn 0.5878 0.8090 0.0000
vn -0.5878 0.8090 0.0000
vn -0.9511 0.3090 0.0000
vn -0.9511 -0.3090 0.0000
vn -0.5878 -0.8090 0.0000
vn 0.5878 -0.8090 0.0000
vn 0.9511 -0.3090 0.0000
usemtl None
s off
f 1//1 4//1 2//1
f 2//1 4//1 3//1
f 1//2 6//2 5//2
f 1//2 2//2 6//2
f 1//3 5//3 4//3
f 4//3 5//3 8//3
f 4//4 8//4 7//4
f 4//4 7//4 3//4
f 2//5 7//5 6//5
f 2//5 3//5 7//5
f 6//6 8//6 5//6
f 6//6 7//6 8//6
f 9//1 12//1 10//1
f 10//1 12//1 11//1
f 9//2 14//2 13//2
f 9//2 10//2 14//2
f 9//3 13//3 12//3
f 12//3 13//3 16//3
f 12//4 16//4 15//4
f 12//4 15//4 11//4
f 10//5 15//5 14//5
f 10//5 11//5 15//5
f 14//6 16//6 13//6
f 14//6 15//6 16//6
f 17//1 20//1 18//1
f 18//1 20//1 19//1
f 17//2 22//2 21//2
f 17//2 18//2 22//2
f 17//3 21//3 20//3
f 20//3 21//3 24//3
f 20//4 24//4 23//4
f 20//4 23//4 19//4
f 18//5 23//5 22//5
f 18//5 19//5 23//5
f 22//6 24//6 21//6
f 22//6 23//6 24//6
f 25//1 28//1 26//1
f 26//1 28//1 27//1
f 25//2 30//2 29//2
f 25//2 26//2 30//2
f 25//3 29//3 28//3
f 28//3 29//3 32//3
f 28//4 32//4 31//4
f 28//4 31//4 27//4
f 26//5 31//5 30//5
f 26//5 27//5 31//5
f 30//6 32//6 29//6
f 30//6 31//6 32//6
f 33//1 36//1 34//1
f 34//1 36//1 35//1
f 33//2 38//2 37//2
f 33//2 34//2 38//2
f 33//3 37//3 36//3
f 36//3 37//3 40//3
f 36//4 40//4 39//4
f 36//4 39//4 35//4
f 34//5 39//5 38//5
f 34//5 35//5 39//5
f 38//6 40//6 37//6
f 38//6 39//6 40//6
f 41//7 12//7 11//7
f 43//8 18//8 17//8
f 18//9 43//9 42//9
f 44//10 17//10 12//10
f 45//1 48//1 46//1
f 46//1 48//1 47//1
f 45//2 50//2 49//2
f 45//2 46//2 50//2
f 45//3 49//3 48//3
f 48//3 49//3 52//3
f 48//4 52//4 51//4
f 48//4 51//4 47//4
f 46//5 51//5 50//5
f 46//5 47//5 51//5
f 50//6 52//6 49//6
f 50//6 51//6 52//6
f 53//1 56//1 54//1
f 54//1 56//1 55//1
f 53//2 58//2 57//2
f 53//2 54//2 58//2
f 53//3 57//3 56//3
f 56//3 57//3 60//3
f 56//4 60//4 59//4
f 56//4 59//4 55//4
f 54//5 59//5 58//5
f 54//5 55//5 59//5
f 58//6 60//6 57//6
f 58//6 59//6 60//6
f 61//1 64//1 62//1
f 62//1 64//1 63//1
f 61//2 66//2 65//2
f 61//2 62//2 66//2
f 61//3 65//3 64//3
f 64//3 65//3 68//3
f 64//4 68//4 67//4
f 64//4 67//4 63//4
f 62//5 67//5 66//5
f 62//5 63//5 67//5
f 66//6 68//6 65//6
f 66//6 67//6 68//6
f 69//1 72//1 70//1
f 70//1 72//1 71//1
f 69//2 74//2 73//2
f 69//2 70//2 74//2
f 69//3 73//3 72//3
f 72//3 73//3 76//3
f 72//4 76//4 75//4
f 72//4 75//4 71//4
f 70//5 75//5 74//5
f 70//5 71//5 75//5
f 74//6 76//6 73//6
f 74//6 75//6 76//6
f 77//11 80//11 78//11
f 78//11 80//11 79//11
f 77//12 82//12 81//12
f 77//12 78//12 82//12
f 77//3 81//3 80//3
f 80//3 81//3 84//3
f 80//13 84//13 83//13
f 80//13 83//13 79//13
f 78//5 83//5 82//5
f 78//5 79//5 83//5
f 82//14 84//14 81//14
f 82//14 83//14 84//14
f 85//11 88//11 86//11
f 86//11 88//11 87//11
f 85//12 90//12 89//12
f 85//12 86//12 90//12
f 85//3 89//3 88//3
f 88//3 89//3 92//3
f 88//13 92//13 91//13
f 88//13 91//13 87//13
f 86//5 91//5 90//5
f 86//5 87//5 91//5
f 90//14 92//14 89//14
f 90//14 91//14 92//14
f 93//11 96//11 94//11
f 94//11 96//11 95//11
f 93//12 98//12 97//12
f 93//12 94//12 98//12
f 93//3 97//3 96//3
f 96//3 97//3 100//3
f 96//13 100//13 99//13
f 96//13 99//13 95//13
f 94//5 99//5 98//5
f 94//5 95//5 99//5
f 98//14 100//14 97//14
f 98//14 99//14 100//14
f 101//15 102//15 103//15
f 102//15 104//15 103//15
f 105//12 103//12 104//12
f 106//13 102//13 101//13
f 102//16 107//16 104//16
f 107//16 108//16 104//16
f 105//12 104//12 108//12
f 106//13 107//13 102//13
f 107//14 109//14 108//14
f 109//14 110//14 108//14
f 105//12 108//12 110//12
f 106//13 109//13 107//13
f 109//17 111//17 110//17
f 111//17 112//17 110//17
f 105//12 110//12 112//12
f 106//13 111//13 109//13
f 111//18 113//18 112//18
f 113//18 114//18 112//18
f 105//12 112//12 114//12
f 106//13 113//13 111//13
f 113//19 115//19 114//19
f 115//19 116//19 114//19
f 105//12 114//12 116//12
f 106//13 115//13 113//13
f 115//20 117//20 116//20
f 117//20 118//20 116//20
f 105//12 116//12 118//12
f 106//13 117//13 115//13
f 117//11 119//11 118//11
f 119//11 120//11 118//11
f 105//12 118//12 120//12
f 106//13 119//13 117//13
f 119//21 121//21 120//21
f 121//21 122//21 120//21
f 105//12 120//12 122//12
f 106//13 121//13 119//13
f 121//22 101//22 122//22
f 101//22 103//22 122//22
f 105//12 122//12 103//12
f 106//13 101//13 121//13
f 41//7 11//7 42//7
f 43//8 17//8 44//8
f 18//9 42//9 11//9
f 44//10 12//10 41//10
