# Blender v2.79 (sub 0) OBJ File: ''
# www.blender.org
mtllib m59.mtl
o m59
v -0.000018 -0.459179 -0.000119
v -0.000018 -0.359179 -0.040119
v -0.024018 -0.359179 -0.020119
v -0.050018 -0.359179 -0.000119
v -0.024018 -0.359179 0.019881
v -0.000018 -0.359179 0.039881
v 0.023982 -0.359179 0.019881
v 0.049982 -0.359179 -0.000119
v 0.023982 -0.359179 -0.020119
v -0.000018 -0.159179 -0.080119
v -0.050018 -0.159179 -0.040119
v -0.100018 -0.159179 -0.000119
v -0.050018 -0.159179 0.039881
v -0.000018 -0.159179 0.079881
v 0.049982 -0.159179 0.039881
v 0.099982 -0.159179 -0.000119
v 0.049982 -0.159179 -0.040119
v -0.000018 0.020821 -0.070519
v -0.038018 0.020821 -0.035319
v -0.074018 0.020821 -0.000119
v -0.038018 0.020821 0.035081
v -0.000018 0.020821 0.070281
v 0.037982 0.020821 0.035081
v 0.073982 0.020821 -0.000119
v 0.037982 0.020821 -0.035319
v -0.000018 0.190821 -0.060119
v -0.024018 0.190821 -0.028119
v -0.050018 0.190821 -0.000119
v -0.024018 0.190821 0.027881
v -0.000018 0.190821 0.059881
v 0.023982 0.190821 0.027881
v 0.049982 0.190821 -0.000119
v 0.023982 0.190821 -0.028119
v -0.000018 0.340821 -0.040119
v -0.010018 0.340821 -0.020119
v -0.020018 0.340821 -0.000119
v -0.010018 0.340821 0.019881
v -0.000018 0.340821 0.039881
v 0.009982 0.340821 0.019881
v 0.019982 0.340821 -0.000119
v 0.009982 0.340821 -0.020119
v -0.000018 0.490821 -0.100119
v -0.000018 0.440821 -0.000119
v -0.000018 0.490821 0.099881
vn -0.6119 -0.2937 -0.7343
vn 0.8893 0.1067 0.4447
vn -0.6169 -0.1573 -0.7711
vn 0.7967 0.0909 -0.5975
vn 0.8805 -0.1761 0.4402
vn 0.6119 -0.2937 -0.7343
vn 0.6169 -0.1573 0.7711
vn -0.7289 0.1029 -0.6768
vn -0.7299 0.0888 0.6778
vn 0.7289 0.1029 -0.6768
vn -0.8805 -0.1761 -0.4402
vn 0.8805 -0.1761 -0.4402
vn 0.9759 0.1952 -0.0976
vn 0.8805 0.1761 -0.4402
vn 0.9759 0.1952 0.0976
vn -0.6119 -0.2937 0.7343
vn -0.8805 -0.1761 0.4402
vn 0.5832 -0.2916 -0.7582
vn 0.6119 -0.2937 0.7343
vn 0.6172 -0.1543 0.7715
vn -0.6790 0.0391 0.7331
vn -0.6781 0.0647 -0.7321
vn -0.6169 -0.1573 0.7711
vn -0.8893 0.1067 -0.4447
vn -0.8928 0.0595 0.4464
vn -0.6956 0.1005 -0.7114
vn 0.6790 0.0391 0.7331
vn -0.8893 0.1067 0.4447
vn 0.5832 -0.2916 0.7582
vn -0.7995 0.0367 0.5996
vn -0.5832 -0.2916 0.7582
vn -0.5832 -0.2916 -0.7582
vn -0.6172 -0.1543 0.7715
vn 0.6169 -0.1573 -0.7711
vn 0.6976 0.0655 0.7135
vn 0.6172 -0.1543 -0.7715
vn -0.7967 0.0909 -0.5975
vn 0.7299 0.0888 0.6778
vn -0.9759 0.1952 0.0976
vn 0.6781 0.0647 -0.7321
vn 0.7995 0.0367 0.5996
vn -0.9759 0.1952 -0.0976
vn -0.6172 -0.1543 -0.7715
vn -0.8805 0.1761 -0.4402
vn 0.8928 0.0595 0.4464
vn -0.6976 0.0655 0.7135
vn 0.6956 0.1005 -0.7114
vn 0.8893 0.1067 -0.4447
vn -0.6321 -0.1580 0.7586
vn 0.6022 -0.1566 -0.7828
vn -0.6964 0.0875 -0.7123
vn -0.6789 0.0448 -0.7329
vn 0.6770 0.0867 0.7309
vn -0.6022 -0.1566 -0.7828
vn 0.6957 0.0982 0.7115
vn -0.6328 -0.1519 -0.7593
vn 0.6964 0.0875 -0.7123
vn 0.6328 -0.1519 -0.7593
vn -0.6235 0.0623 -0.7793
vn 0.6235 0.0623 0.7793
vn 0.7250 0.1450 0.6733
vn -0.6770 0.0867 0.7309
vn -0.7975 0.0797 -0.5981
vn -0.6957 0.0982 0.7115
vn -0.7288 0.1041 -0.6768
vn -0.6222 0.0899 0.7777
vn 0.7955 0.1061 0.5966
vn 0.7975 0.0797 -0.5981
vn -0.6027 -0.1507 0.7836
vn 0.6027 -0.1507 0.7836
vn 0.6222 0.0899 0.7777
vn -0.7250 0.1450 0.6733
vn -0.7955 0.1061 0.5966
vn -0.6235 0.0623 0.7793
vn 0.7288 0.1041 -0.6768
vn -0.6242 0.0416 -0.7802
vn 0.6789 0.0448 -0.7329
vn 0.6242 0.0416 -0.7802
vn 0.6235 0.0623 -0.7793
vn 0.6321 -0.1580 0.7586
usemtl None
s off
f 2//1 1//1 3//1
f 31//2 40//2 39//2
f 10//3 3//3 11//3
f 25//4 26//4 33//4
f 38//5 39//5 44//5
f 9//6 1//6 2//6
f 7//7 16//7 15//7
f 27//8 20//8 28//8
f 28//9 21//9 29//9
f 24//10 33//10 32//10
f 42//11 34//11 35//11
f 41//12 34//12 42//12
f 44//13 40//13 43//13
f 32//14 41//14 40//14
f 43//15 40//15 42//15
f 5//16 1//16 6//16
f 44//17 37//17 38//17
f 40//12 41//12 42//12
f 8//18 1//18 9//18
f 6//19 1//19 7//19
f 6//20 15//20 14//20
f 21//21 14//21 22//21
f 18//22 11//22 19//22
f 36//17 37//17 44//17
f 12//23 5//23 13//23
f 34//24 27//24 35//24
f 37//25 30//25 38//25
f 19//26 12//26 20//26
f 14//27 23//27 22//27
f 36//28 29//28 37//28
f 7//29 1//29 8//29
f 29//30 22//30 30//30
f 38//5 40//5 44//5
f 4//31 1//31 5//31
f 42//11 35//11 36//11
f 3//32 1//32 4//32
f 13//33 6//33 14//33
f 9//34 10//34 17//34
f 15//35 24//35 23//35
f 8//36 17//36 16//36
f 26//37 19//37 27//37
f 23//38 32//38 31//38
f 42//39 36//39 43//39
f 17//40 18//40 25//40
f 22//41 31//41 30//41
f 43//42 36//42 44//42
f 11//43 4//43 12//43
f 35//44 28//44 36//44
f 30//45 39//45 38//45
f 20//46 13//46 21//46
f 16//47 25//47 24//47
f 33//48 34//48 41//48
f 13//49 5//49 6//49
f 8//50 9//50 17//50
f 27//51 19//51 20//51
f 26//52 18//52 19//52
f 22//53 23//53 31//53
f 11//54 3//54 4//54
f 23//55 24//55 32//55
f 10//56 2//56 3//56
f 24//57 25//57 33//57
f 9//58 2//58 10//58
f 19//59 11//59 12//59
f 14//60 15//60 23//60
f 31//61 32//61 40//61
f 29//62 21//62 22//62
f 34//63 26//63 27//63
f 28//64 20//64 21//64
f 35//65 27//65 28//65
f 20//66 12//66 13//66
f 30//67 31//67 39//67
f 33//68 26//68 34//68
f 12//69 4//69 5//69
f 7//70 8//70 16//70
f 15//71 16//71 24//71
f 36//72 28//72 29//72
f 37//73 29//73 30//73
f 21//74 13//74 14//74
f 32//75 33//75 41//75
f 18//76 10//76 11//76
f 25//77 18//77 26//77
f 17//78 10//78 18//78
f 16//79 17//79 25//79
f 6//80 7//80 15//80
