# Blender v2.79 (sub 0) OBJ File: ''
# www.blender.org
mtllib m596.mtl
o m596
v -0.000000 -0.000000 0.000001
v 0.182992 0.132952 0.452382
v -0.000000 -0.000000 0.452382
v 0.069897 0.215120 0.452382
v -0.069897 0.215120 0.452382
v -0.182992 0.132952 0.452382
v -0.226191 -0.000000 0.452382
v -0.182992 -0.132951 0.452382
v -0.069897 -0.215120 0.452382
v 0.069897 -0.215120 0.452382
v 0.182992 -0.132951 0.452382
v 0.226191 -0.000000 0.452382
v -0.000000 -0.000002 0.000001
v 0.182992 -0.132950 -0.452381
v 0.226191 0.000002 -0.452380
v -0.000000 0.000002 -0.452380
v 0.069897 -0.215119 -0.452382
v -0.069897 -0.215119 -0.452382
v -0.182992 -0.132950 -0.452381
v -0.226191 0.000002 -0.452380
v -0.182992 0.132953 -0.452379
v -0.069897 0.215122 -0.452378
v 0.069897 0.215122 -0.452378
v 0.182992 0.132953 -0.452379
v 0.226191 0.180952 -0.456904
v 0.217551 0.207543 -0.456904
v 0.226191 0.180952 0.456906
v 0.217551 0.207543 0.456906
v 0.180952 0.180952 0.456906
v 0.180952 0.180952 -0.456904
v 0.194932 0.223976 -0.456904
v 0.194932 0.223976 0.456906
v 0.166973 0.223976 -0.456904
v 0.166973 0.223976 0.456906
v 0.144354 0.207543 -0.456904
v 0.144354 0.207543 0.456906
v 0.135714 0.180952 -0.456904
v 0.135714 0.180952 0.456906
v 0.144354 0.154362 -0.456904
v 0.144354 0.154362 0.456906
v 0.166973 0.137928 -0.456904
v 0.166973 0.137928 0.456906
v 0.194932 0.137928 -0.456904
v 0.194932 0.137928 0.456906
v 0.217551 0.154362 -0.456904
v 0.217551 0.154362 0.456906
v -0.135714 -0.180952 -0.456904
v -0.144354 -0.154362 -0.456904
v -0.135714 -0.180952 0.456906
v -0.144354 -0.154362 0.456906
v -0.180952 -0.180952 0.456906
v -0.180952 -0.180952 -0.456904
v -0.166973 -0.137928 -0.456904
v -0.166973 -0.137928 0.456906
v -0.194932 -0.137928 -0.456904
v -0.194932 -0.137928 0.456906
v -0.217551 -0.154362 -0.456904
v -0.217551 -0.154362 0.456906
v -0.226191 -0.180952 -0.456904
v -0.226191 -0.180952 0.456906
v -0.217551 -0.207543 -0.456904
v -0.217551 -0.207543 0.456906
v -0.194932 -0.223977 -0.456904
v -0.194932 -0.223977 0.456906
v -0.166973 -0.223977 -0.456904
v -0.166973 -0.223977 0.456906
v -0.144354 -0.207543 -0.456904
v -0.144354 -0.207543 0.456906
v 0.226191 -0.180952 -0.456904
v 0.217551 -0.154362 -0.456904
v 0.226191 -0.180952 0.456906
v 0.217551 -0.154362 0.456906
v 0.180952 -0.180952 0.456906
v 0.180952 -0.180952 -0.456904
v 0.194932 -0.137928 -0.456904
v 0.194932 -0.137928 0.456906
v 0.166973 -0.137928 -0.456904
v 0.166973 -0.137928 0.456906
v 0.144354 -0.154362 -0.456904
v 0.144354 -0.154362 0.456906
v 0.135714 -0.180952 -0.456904
v 0.135714 -0.180952 0.456906
v 0.144354 -0.207543 -0.456904
v 0.144354 -0.207543 0.456906
v 0.166973 -0.223977 -0.456904
v 0.166973 -0.223977 0.456906
v 0.194932 -0.223977 -0.456904
v 0.194932 -0.223977 0.456906
v 0.217551 -0.207543 -0.456904
v 0.217551 -0.207543 0.456906
v -0.135714 0.180952 -0.456904
v -0.144354 0.207543 -0.456904
v -0.135714 0.180952 0.456906
v -0.144354 0.207543 0.456906
v -0.180952 0.180952 0.456906
v -0.180952 0.180952 -0.456904
v -0.166973 0.223976 -0.456904
v -0.166973 0.223976 0.456906
v -0.194932 0.223976 -0.456904
v -0.194932 0.223976 0.456906
v -0.217551 0.207543 -0.456904
v -0.217551 0.207543 0.456906
v -0.226191 0.180952 -0.456904
v -0.226191 0.180952 0.456906
v -0.217551 0.154362 -0.456904
v -0.217551 0.154362 0.456906
v -0.194932 0.137928 -0.456904
v -0.194932 0.137928 0.456906
v -0.166973 0.137928 -0.456904
v -0.166973 0.137928 0.456906
v -0.144354 0.154362 -0.456904
v -0.144354 0.154362 0.456906
v -0.282738 -0.282738 -0.429761
v 0.282738 -0.282738 -0.429761
v 0.282738 -0.282738 -0.474999
v -0.282738 -0.282738 -0.474999
v -0.282738 0.282737 -0.429761
v 0.282738 0.282737 -0.429761
v 0.282738 0.282737 -0.474999
v -0.282738 0.282737 -0.474999
v -0.282738 -0.282738 0.475001
v 0.282738 -0.282738 0.475001
v 0.282738 -0.282738 0.429763
v -0.282738 -0.282738 0.429763
v -0.282738 0.282737 0.475001
v 0.282738 0.282737 0.475001
v 0.282738 0.282737 0.429763
v -0.282738 0.282737 0.429763
vn 0.8589 0.2791 -0.4294
vn 0.0000 0.0000 1.0000
vn 0.5308 0.7306 -0.4294
vn 0.0000 0.9031 -0.4294
vn -0.5308 0.7306 -0.4294
vn -0.8589 0.2791 -0.4294
vn -0.8589 -0.2791 -0.4294
vn -0.5308 -0.7306 -0.4294
vn 0.0000 -0.9031 -0.4294
vn 0.5308 -0.7306 -0.4294
vn 0.8589 -0.2791 -0.4294
vn 0.8589 -0.2791 0.4294
vn 0.0000 0.0000 -1.0000
vn 0.5308 -0.7306 0.4294
vn 0.0000 -0.9031 0.4294
vn -0.5308 -0.7306 0.4294
vn -0.8589 -0.2791 0.4294
vn -0.8589 0.2791 0.4294
vn -0.5308 0.7306 0.4295
vn 0.0000 0.9031 0.4295
vn 0.5308 0.7306 0.4295
vn 0.8589 0.2791 0.4294
vn 0.9511 0.3090 0.0000
vn 0.5878 0.8090 0.0000
vn 0.0000 1.0000 0.0000
vn -0.5878 0.8090 0.0000
vn -0.9511 0.3090 0.0000
vn -0.9511 -0.3090 0.0000
vn -0.5878 -0.8090 0.0000
vn 0.0000 -1.0000 0.0000
vn 0.5878 -0.8090 0.0000
vn 0.9511 -0.3090 0.0000
vn -1.0000 0.0000 0.0000
vn 1.0000 0.0000 0.0000
usemtl None
s off
f 1//1 2//1 12//1
f 3//2 12//2 2//2
f 1//3 4//3 2//3
f 3//2 2//2 4//2
f 1//4 5//4 4//4
f 3//2 4//2 5//2
f 1//5 6//5 5//5
f 3//2 5//2 6//2
f 1//6 7//6 6//6
f 3//2 6//2 7//2
f 1//7 8//7 7//7
f 3//2 7//2 8//2
f 1//8 9//8 8//8
f 3//2 8//2 9//2
f 1//9 10//9 9//9
f 3//2 9//2 10//2
f 1//10 11//10 10//10
f 3//2 10//2 11//2
f 1//11 12//11 11//11
f 3//2 11//2 12//2
f 13//12 14//12 15//12
f 16//13 15//13 14//13
f 13//14 17//14 14//14
f 16//13 14//13 17//13
f 13//15 18//15 17//15
f 16//13 17//13 18//13
f 13//16 19//16 18//16
f 16//13 18//13 19//13
f 13//17 20//17 19//17
f 16//13 19//13 20//13
f 13//18 21//18 20//18
f 16//13 20//13 21//13
f 13//19 22//19 21//19
f 16//13 21//13 22//13
f 13//20 23//20 22//20
f 16//13 22//13 23//13
f 13//21 24//21 23//21
f 16//13 23//13 24//13
f 13//22 15//22 24//22
f 16//13 24//13 15//13
f 25//23 26//23 27//23
f 26//23 28//23 27//23
f 29//2 27//2 28//2
f 30//13 26//13 25//13
f 26//24 31//24 28//24
f 31//24 32//24 28//24
f 29//2 28//2 32//2
f 30//13 31//13 26//13
f 31//25 33//25 32//25
f 33//25 34//25 32//25
f 29//2 32//2 34//2
f 30//13 33//13 31//13
f 33//26 35//26 34//26
f 35//26 36//26 34//26
f 29//2 34//2 36//2
f 30//13 35//13 33//13
f 35//27 37//27 36//27
f 37//27 38//27 36//27
f 29//2 36//2 38//2
f 30//13 37//13 35//13
f 37//28 39//28 38//28
f 39//28 40//28 38//28
f 29//2 38//2 40//2
f 30//13 39//13 37//13
f 39//29 41//29 40//29
f 41//29 42//29 40//29
f 29//2 40//2 42//2
f 30//13 41//13 39//13
f 41//30 43//30 42//30
f 43//30 44//30 42//30
f 29//2 42//2 44//2
f 30//13 43//13 41//13
f 43//31 45//31 44//31
f 45//31 46//31 44//31
f 29//2 44//2 46//2
f 30//13 45//13 43//13
f 45//32 25//32 46//32
f 25//32 27//32 46//32
f 29//2 46//2 27//2
f 30//13 25//13 45//13
f 47//23 48//23 49//23
f 48//23 50//23 49//23
f 51//2 49//2 50//2
f 52//13 48//13 47//13
f 48//24 53//24 50//24
f 53//24 54//24 50//24
f 51//2 50//2 54//2
f 52//13 53//13 48//13
f 53//25 55//25 54//25
f 55//25 56//25 54//25
f 51//2 54//2 56//2
f 52//13 55//13 53//13
f 55//26 57//26 56//26
f 57//26 58//26 56//26
f 51//2 56//2 58//2
f 52//13 57//13 55//13
f 57//27 59//27 58//27
f 59//27 60//27 58//27
f 51//2 58//2 60//2
f 52//13 59//13 57//13
f 59//28 61//28 60//28
f 61//28 62//28 60//28
f 51//2 60//2 62//2
f 52//13 61//13 59//13
f 61//29 63//29 62//29
f 63//29 64//29 62//29
f 51//2 62//2 64//2
f 52//13 63//13 61//13
f 63//30 65//30 64//30
f 65//30 66//30 64//30
f 51//2 64//2 66//2
f 52//13 65//13 63//13
f 65//31 67//31 66//31
f 67//31 68//31 66//31
f 51//2 66//2 68//2
f 52//13 67//13 65//13
f 67//32 47//32 68//32
f 47//32 49//32 68//32
f 51//2 68//2 49//2
f 52//13 47//13 67//13
f 69//23 70//23 71//23
f 70//23 72//23 71//23
f 73//2 71//2 72//2
f 74//13 70//13 69//13
f 70//24 75//24 72//24
f 75//24 76//24 72//24
f 73//2 72//2 76//2
f 74//13 75//13 70//13
f 75//25 77//25 76//25
f 77//25 78//25 76//25
f 73//2 76//2 78//2
f 74//13 77//13 75//13
f 77//26 79//26 78//26
f 79//26 80//26 78//26
f 73//2 78//2 80//2
f 74//13 79//13 77//13
f 79//27 81//27 80//27
f 81//27 82//27 80//27
f 73//2 80//2 82//2
f 74//13 81//13 79//13
f 81//28 83//28 82//28
f 83//28 84//28 82//28
f 73//2 82//2 84//2
f 74//13 83//13 81//13
f 83//29 85//29 84//29
f 85//29 86//29 84//29
f 73//2 84//2 86//2
f 74//13 85//13 83//13
f 85//30 87//30 86//30
f 87//30 88//30 86//30
f 73//2 86//2 88//2
f 74//13 87//13 85//13
f 87//31 89//31 88//31
f 89//31 90//31 88//31
f 73//2 88//2 90//2
f 74//13 89//13 87//13
f 89//32 69//32 90//32
f 69//32 71//32 90//32
f 73//2 90//2 71//2
f 74//13 69//13 89//13
f 91//23 92//23 93//23
f 92//23 94//23 93//23
f 95//2 93//2 94//2
f 96//13 92//13 91//13
f 92//24 97//24 94//24
f 97//24 98//24 94//24
f 95//2 94//2 98//2
f 96//13 97//13 92//13
f 97//25 99//25 98//25
f 99//25 100//25 98//25
f 95//2 98//2 100//2
f 96//13 99//13 97//13
f 99//26 101//26 100//26
f 101//26 102//26 100//26
f 95//2 100//2 102//2
f 96//13 101//13 99//13
f 101//27 103//27 102//27
f 103//27 104//27 102//27
f 95//2 102//2 104//2
f 96//13 103//13 101//13
f 103//28 105//28 104//28
f 105//28 106//28 104//28
f 95//2 104//2 106//2
f 96//13 105//13 103//13
f 105//29 107//29 106//29
f 107//29 108//29 106//29
f 95//2 106//2 108//2
f 96//13 107//13 105//13
f 107//30 109//30 108//30
f 109//30 110//30 108//30
f 95//2 108//2 110//2
f 96//13 109//13 107//13
f 109//31 111//31 110//31
f 111//31 112//31 110//31
f 95//2 110//2 112//2
f 96//13 111//13 109//13
f 111//32 91//32 112//32
f 91//32 93//32 112//32
f 95//2 112//2 93//2
f 96//13 91//13 111//13
f 113//30 116//30 114//30
f 114//30 116//30 115//30
f 113//2 118//2 117//2
f 113//2 114//2 118//2
f 113//33 117//33 116//33
f 116//33 117//33 120//33
f 116//13 120//13 119//13
f 116//13 119//13 115//13
f 114//34 119//34 118//34
f 114//34 115//34 119//34
f 118//25 120//25 117//25
f 118//25 119//25 120//25
f 121//30 124//30 122//30
f 122//30 124//30 123//30
f 121//2 126//2 125//2
f 121//2 122//2 126//2
f 121//33 125//33 124//33
f 124//33 125//33 128//33
f 124//13 128//13 127//13
f 124//13 127//13 123//13
f 122//34 127//34 126//34
f 122//34 123//34 127//34
f 126//25 128//25 125//25
f 126//25 127//25 128//25
