# Blender v2.79 (sub 0) OBJ File: ''
# www.blender.org
mtllib m613.mtl
o m613
v -0.379489 -0.008080 0.524169
v -0.380725 -0.004275 0.524169
v -0.379489 -0.008080 0.550058
v -0.380725 -0.004275 0.550058
v -0.385961 -0.008080 0.550058
v -0.385961 -0.008080 0.524169
v -0.383961 -0.001924 0.524169
v -0.383961 -0.001924 0.550058
v -0.387961 -0.001924 0.524169
v -0.387961 -0.001924 0.550058
v -0.391197 -0.004275 0.524169
v -0.391197 -0.004275 0.550058
v -0.392433 -0.008080 0.524169
v -0.392433 -0.008080 0.550058
v -0.391197 -0.011884 0.524169
v -0.391197 -0.011884 0.550058
v -0.387961 -0.014235 0.524169
v -0.387961 -0.014235 0.550058
v -0.383961 -0.014235 0.524169
v -0.383961 -0.014235 0.550058
v -0.380725 -0.011884 0.524169
v -0.380725 -0.011884 0.550058
v -0.392433 -0.014552 0.528246
v -0.379489 -0.014552 0.528246
v -0.379489 -0.014552 -0.067205
v -0.392433 -0.014552 -0.067205
v -0.392433 -0.001607 0.528246
v -0.379489 -0.001607 0.528246
v -0.379489 -0.001607 -0.067205
v -0.392433 -0.001607 -0.067205
v -0.347127 0.017810 0.554136
v -0.334183 0.017810 0.554136
v -0.334183 0.017810 -0.041316
v -0.347127 0.017810 -0.041316
v -0.347127 0.030754 0.554136
v -0.334183 0.030754 0.554136
v -0.334183 0.030754 -0.041316
v -0.347127 0.030754 -0.041316
v -0.347127 -0.046913 0.554136
v -0.334183 -0.046913 0.554136
v -0.334183 -0.046913 -0.041316
v -0.347127 -0.046913 -0.041316
v -0.347127 -0.033969 0.554136
v -0.334183 -0.033969 0.554136
v -0.334183 -0.033969 -0.041316
v -0.347127 -0.033969 -0.041316
v 0.241260 -0.017401 -0.282122
v 0.405936 0.095745 -0.161549
v 0.315366 0.021175 -0.106845
v 0.342684 0.141831 -0.144950
v 0.268998 0.141831 -0.113795
v 0.213022 0.095745 -0.079986
v 0.196138 0.021175 -0.056436
v 0.224795 -0.053395 -0.052140
v 0.288047 -0.099481 -0.068740
v 0.361733 -0.099481 -0.099894
v 0.417709 -0.053395 -0.133703
v 0.434593 0.021175 -0.157253
v 0.262207 -0.025116 -0.332301
v 0.253610 -0.002745 -0.333589
v 0.299260 -0.005828 -0.244662
v 0.290663 0.016543 -0.245951
v 0.234634 0.011081 -0.328609
v 0.271687 0.030369 -0.240971
v 0.212528 0.011081 -0.319263
v 0.249581 0.030369 -0.231625
v 0.195736 -0.002745 -0.309120
v 0.232789 0.016543 -0.221482
v 0.190671 -0.025116 -0.302055
v 0.227724 -0.005828 -0.214417
v 0.199268 -0.047487 -0.300767
v 0.236321 -0.028199 -0.213128
v 0.218243 -0.061312 -0.305747
v 0.255296 -0.042025 -0.218108
v 0.240349 -0.061312 -0.315093
v 0.277402 -0.042025 -0.227455
v 0.257142 -0.047487 -0.325236
v 0.294195 -0.028199 -0.237597
v -0.391480 -0.014552 -0.077916
v -0.387654 -0.014552 -0.065550
v 0.181203 -0.014552 -0.241516
v 0.177377 -0.014552 -0.253882
v -0.391480 -0.001607 -0.077916
v -0.387654 -0.001607 -0.065550
v 0.181203 -0.001607 -0.241516
v 0.177377 -0.001607 -0.253882
v -0.391480 -0.014552 -0.026138
v -0.387654 -0.014552 -0.013772
v 0.181203 -0.014552 -0.189737
v 0.177377 -0.014552 -0.202104
v -0.391480 -0.001607 -0.026138
v -0.387654 -0.001607 -0.013772
v 0.181203 -0.001607 -0.189737
v 0.177377 -0.001607 -0.202104
v -0.281237 0.068007 0.550058
v -0.281237 0.068007 0.575947
v -0.345960 0.115031 0.550058
v -0.345960 0.115031 0.575947
v -0.425962 0.115031 0.550058
v -0.425962 0.115031 0.575947
v -0.490685 0.068007 0.550058
v -0.490685 0.068007 0.575947
v -0.515407 -0.008080 0.550058
v -0.515407 -0.008080 0.575947
v -0.490685 -0.084166 0.550058
v -0.490685 -0.084166 0.575947
v -0.425962 -0.131190 0.550058
v -0.425962 -0.131190 0.575947
v -0.345960 -0.131190 0.550058
v -0.345960 -0.131190 0.575947
v -0.281237 -0.084166 0.550058
v -0.281237 -0.084166 0.575947
v -0.256515 -0.008080 0.550058
v -0.256515 -0.008080 0.575947
v 0.275976 -0.006794 -0.267296
v 0.275210 -0.003311 -0.269108
v 0.251365 -0.003311 -0.259027
v 0.249661 -0.008080 -0.263057
v 0.273506 -0.008080 -0.273139
v 0.273793 -0.001649 -0.272460
v 0.249948 -0.001649 -0.262378
v 0.272267 -0.002444 -0.276071
v 0.248421 -0.002444 -0.265989
v 0.271214 -0.005391 -0.278562
v 0.247368 -0.005391 -0.268480
v 0.271036 -0.009365 -0.278982
v 0.247191 -0.009365 -0.268900
v 0.271802 -0.012848 -0.277170
v 0.247957 -0.012848 -0.267088
v 0.273219 -0.014510 -0.273818
v 0.249374 -0.014510 -0.263736
v 0.274746 -0.013715 -0.270207
v 0.250900 -0.013715 -0.260126
v 0.275799 -0.010768 -0.267716
v 0.251953 -0.010768 -0.257635
v 0.252131 -0.006794 -0.257215
vn 0.9511 0.3089 0.0000
vn 0.9511 0.3090 0.0000
vn 0.0000 0.0000 1.0000
vn 0.0000 0.0000 -1.0000
vn 0.5878 0.8090 0.0000
vn 0.0000 1.0000 0.0000
vn -0.5878 0.8090 0.0000
vn -0.9511 0.3090 0.0000
vn -0.9511 0.3089 0.0000
vn -0.9511 -0.3090 0.0000
vn -0.5878 -0.8090 0.0000
vn 0.0000 -1.0000 0.0000
vn 0.5878 -0.8090 0.0000
vn 0.9511 -0.3090 0.0000
vn -1.0000 0.0000 0.0000
vn 1.0000 0.0000 0.0000
vn 0.5153 0.1494 -0.8439
vn 0.3817 0.1987 0.9027
vn 0.2000 0.5633 -0.8017
vn -0.2697 0.7213 -0.6379
vn -0.7145 0.5633 -0.4151
vn -0.9644 0.1494 -0.2183
vn -0.9240 -0.3622 -0.1228
vn -0.6087 -0.7760 -0.1650
vn -0.1390 -0.9341 -0.3288
vn 0.3057 -0.7760 -0.5517
vn 0.5556 -0.3622 -0.7484
vn 0.8521 0.3029 -0.4269
vn 0.8521 0.3028 -0.4269
vn 0.4788 0.7929 -0.3769
vn -0.0774 0.9801 -0.1830
vn -0.6040 0.7929 0.0809
vn -0.8999 0.3028 0.3138
vn -0.8521 -0.3029 0.4269
vn -0.8521 -0.3028 0.4269
vn -0.4788 -0.7929 0.3769
vn 0.0774 -0.9801 0.1830
vn 0.6040 -0.7929 -0.0808
vn 0.6040 -0.7929 -0.0809
vn 0.8999 -0.3028 -0.3138
vn 0.8999 -0.3029 -0.3138
vn -0.9553 0.0000 0.2956
vn -0.2955 0.0000 -0.9553
vn 0.9553 0.0000 -0.2956
vn 0.2955 0.0000 0.9553
vn 0.3391 0.4918 0.8020
vn -0.9211 0.0000 0.3894
vn 0.9211 -0.0000 -0.3894
vn 0.1618 0.9096 0.3826
vn 0.1618 0.9096 0.3827
vn -0.9210 -0.0000 0.3895
vn -0.0774 0.9800 -0.1831
vn 0.9211 -0.0000 -0.3893
vn -0.2869 0.6761 -0.6786
vn -0.9211 -0.0001 0.3894
vn -0.3869 0.1140 -0.9151
vn -0.3869 0.1139 -0.9151
vn 0.9211 -0.0001 -0.3893
vn -0.3391 -0.4918 -0.8020
vn -0.1618 -0.9096 -0.3826
vn 0.0774 -0.9800 0.1831
vn 0.9210 0.0000 -0.3895
vn 0.2869 -0.6761 0.6786
vn 0.9211 0.0001 -0.3894
vn 0.3869 -0.1140 0.9151
vn -0.9211 0.0001 0.3894
usemtl None
s off
f 1//1 2//1 3//1
f 2//2 4//2 3//2
f 5//3 3//3 4//3
f 6//4 2//4 1//4
f 2//5 7//5 4//5
f 7//5 8//5 4//5
f 5//3 4//3 8//3
f 6//4 7//4 2//4
f 7//6 9//6 8//6
f 9//6 10//6 8//6
f 5//3 8//3 10//3
f 6//4 9//4 7//4
f 9//7 11//7 10//7
f 11//7 12//7 10//7
f 5//3 10//3 12//3
f 6//4 11//4 9//4
f 11//8 13//8 12//8
f 13//9 14//9 12//9
f 5//3 12//3 14//3
f 6//4 13//4 11//4
f 13//10 15//10 14//10
f 15//10 16//10 14//10
f 5//3 14//3 16//3
f 6//4 15//4 13//4
f 15//11 17//11 16//11
f 17//11 18//11 16//11
f 5//3 16//3 18//3
f 6//4 17//4 15//4
f 17//12 19//12 18//12
f 19//12 20//12 18//12
f 5//3 18//3 20//3
f 6//4 19//4 17//4
f 19//13 21//13 20//13
f 21//13 22//13 20//13
f 5//3 20//3 22//3
f 6//4 21//4 19//4
f 21//14 1//14 22//14
f 1//14 3//14 22//14
f 5//3 22//3 3//3
f 6//4 1//4 21//4
f 23//12 26//12 24//12
f 24//12 26//12 25//12
f 23//3 28//3 27//3
f 23//3 24//3 28//3
f 23//15 27//15 26//15
f 26//15 27//15 30//15
f 26//4 30//4 29//4
f 26//4 29//4 25//4
f 24//16 29//16 28//16
f 24//16 25//16 29//16
f 28//6 30//6 27//6
f 28//6 29//6 30//6
f 31//12 34//12 32//12
f 32//12 34//12 33//12
f 31//3 36//3 35//3
f 31//3 32//3 36//3
f 31//15 35//15 34//15
f 34//15 35//15 38//15
f 34//4 38//4 37//4
f 34//4 37//4 33//4
f 32//16 37//16 36//16
f 32//16 33//16 37//16
f 36//6 38//6 35//6
f 36//6 37//6 38//6
f 39//12 42//12 40//12
f 40//12 42//12 41//12
f 39//3 44//3 43//3
f 39//3 40//3 44//3
f 39//15 43//15 42//15
f 42//15 43//15 46//15
f 42//4 46//4 45//4
f 42//4 45//4 41//4
f 40//16 45//16 44//16
f 40//16 41//16 45//16
f 44//6 46//6 43//6
f 44//6 45//6 46//6
f 47//17 48//17 58//17
f 49//18 58//18 48//18
f 47//19 50//19 48//19
f 49//18 48//18 50//18
f 47//20 51//20 50//20
f 49//18 50//18 51//18
f 47//21 52//21 51//21
f 49//18 51//18 52//18
f 47//22 53//22 52//22
f 49//18 52//18 53//18
f 47//23 54//23 53//23
f 49//18 53//18 54//18
f 47//24 55//24 54//24
f 49//18 54//18 55//18
f 47//25 56//25 55//25
f 49//18 55//18 56//18
f 47//26 57//26 56//26
f 49//18 56//18 57//18
f 47//27 58//27 57//27
f 49//18 57//18 58//18
f 59//28 60//28 61//28
f 60//29 62//29 61//29
f 60//30 63//30 62//30
f 63//30 64//30 62//30
f 63//31 65//31 64//31
f 65//31 66//31 64//31
f 65//32 67//32 66//32
f 67//32 68//32 66//32
f 67//33 69//33 68//33
f 69//33 70//33 68//33
f 69//34 71//34 70//34
f 71//35 72//35 70//35
f 71//36 73//36 72//36
f 73//36 74//36 72//36
f 73//37 75//37 74//37
f 75//37 76//37 74//37
f 75//38 77//38 76//38
f 77//39 78//39 76//39
f 77//40 59//40 78//40
f 59//41 61//41 78//41
f 79//12 82//12 80//12
f 80//12 82//12 81//12
f 79//42 84//42 83//42
f 79//42 80//42 84//42
f 79//43 83//43 82//43
f 82//43 83//43 86//43
f 82//44 86//44 85//44
f 82//44 85//44 81//44
f 80//45 85//45 84//45
f 80//45 81//45 85//45
f 84//6 86//6 83//6
f 84//6 85//6 86//6
f 87//12 90//12 88//12
f 88//12 90//12 89//12
f 87//42 92//42 91//42
f 87//42 88//42 92//42
f 87//43 91//43 90//43
f 90//43 91//43 94//43
f 90//44 94//44 93//44
f 90//44 93//44 89//44
f 88//45 93//45 92//45
f 88//45 89//45 93//45
f 92//6 94//6 91//6
f 92//6 93//6 94//6
f 113//2 95//2 114//2
f 95//2 96//2 114//2
f 95//5 97//5 96//5
f 97//5 98//5 96//5
f 97//6 99//6 98//6
f 99//6 100//6 98//6
f 99//7 101//7 100//7
f 101//7 102//7 100//7
f 101//8 103//8 102//8
f 103//8 104//8 102//8
f 103//10 105//10 104//10
f 105//10 106//10 104//10
f 105//11 107//11 106//11
f 107//11 108//11 106//11
f 107//12 109//12 108//12
f 109//12 110//12 108//12
f 109//13 111//13 110//13
f 111//13 112//13 110//13
f 111//14 113//14 112//14
f 113//14 114//14 112//14
f 115//46 116//46 136//46
f 116//46 117//46 136//46
f 118//47 136//47 117//47
f 119//48 116//48 115//48
f 116//49 120//49 117//49
f 120//50 121//50 117//50
f 118//51 117//51 121//51
f 119//48 120//48 116//48
f 120//52 122//52 121//52
f 122//31 123//31 121//31
f 118//51 121//51 123//51
f 119//53 122//53 120//53
f 122//54 124//54 123//54
f 124//54 125//54 123//54
f 118//55 123//55 125//55
f 119//53 124//53 122//53
f 124//56 126//56 125//56
f 126//57 127//57 125//57
f 118//55 125//55 127//55
f 119//58 126//58 124//58
f 126//59 128//59 127//59
f 128//59 129//59 127//59
f 118//47 127//47 129//47
f 119//48 128//48 126//48
f 128//60 130//60 129//60
f 130//60 131//60 129//60
f 118//47 129//47 131//47
f 119//48 130//48 128//48
f 130//37 132//37 131//37
f 132//61 133//61 131//61
f 118//47 131//47 133//47
f 119//62 132//62 130//62
f 132//63 134//63 133//63
f 134//63 135//63 133//63
f 118//47 133//47 135//47
f 119//64 134//64 132//64
f 134//65 115//65 135//65
f 115//65 136//65 135//65
f 118//66 135//66 136//66
f 119//64 115//64 134//64
