# Blender v2.79 (sub 0) OBJ File: ''
# www.blender.org
mtllib m646.mtl
o m646
v -0.275697 0.349561 0.072423
v -0.275697 0.425645 0.072423
v 0.367211 0.425645 0.072423
v 0.367211 0.349561 0.072423
v -0.275697 0.425645 0.110465
v 0.367211 0.425645 0.110465
v 0.367211 0.349561 0.110465
v -0.275697 0.349561 0.110465
v 0.365994 0.123212 0.107897
v 0.330082 0.045454 0.107669
v 0.330082 0.045987 -0.012220
v 0.365385 0.123744 -0.012220
v 0.261911 -0.000881 0.107612
v 0.261911 -0.000348 -0.012220
v 0.199827 -0.039760 0.107612
v 0.199827 -0.039227 -0.012791
v 0.179132 -0.106333 0.107383
v 0.178523 -0.105800 -0.012791
v 0.178523 -0.385408 0.106185
v 0.178523 -0.385408 -0.013932
v 0.131656 -0.470622 0.105900
v 0.131656 -0.470622 -0.014503
v 0.042790 -0.523881 0.105900
v 0.042790 -0.523881 -0.014503
v -0.102074 -0.518555 0.106299
v -0.102682 -0.518555 -0.013932
v -0.202505 -0.481274 0.106756
v -0.203113 -0.481274 -0.013362
v -0.273719 -0.374757 0.107383
v -0.274328 -0.374757 -0.012791
v -0.273111 0.348975 0.110579
v -0.273719 0.349455 -0.009367
v 0.365994 0.348549 0.108924
v 0.365385 0.349029 -0.011079
v -0.259111 -0.348127 -0.012791
v -0.192157 -0.449319 -0.013362
v -0.096596 -0.486600 -0.013932
v 0.041572 -0.486600 -0.013932
v 0.125569 -0.438667 -0.013932
v 0.170611 -0.358779 -0.013932
v 0.170611 -0.093551 -0.012791
v 0.190697 -0.030173 -0.012220
v 0.249738 0.006575 -0.012220
v 0.314257 0.050780 -0.012220
v 0.347734 0.124809 -0.012220
v 0.347734 0.338686 -0.011079
v -0.259111 0.338909 -0.009367
v 0.314257 0.050780 0.097911
v 0.347734 0.124809 0.097911
v 0.249738 0.006575 0.097911
v 0.190697 -0.030173 0.097911
v 0.170611 -0.093551 0.097911
v 0.170611 -0.358779 0.097911
v 0.125569 -0.438667 0.097911
v 0.041572 -0.486600 0.097911
v -0.096596 -0.486600 0.097911
v -0.192157 -0.449319 0.097911
v -0.259111 -0.348127 0.097911
v -0.259111 0.338909 0.097911
v 0.347734 0.338686 0.097911
v 0.347734 0.124809 0.040848
v 0.314257 0.050780 0.040848
v 0.249738 0.006575 0.040848
v 0.190697 -0.030173 0.040848
v 0.170611 -0.093551 0.040848
v 0.170611 -0.358779 0.040848
v 0.125569 -0.438667 0.040848
v 0.041572 -0.486600 0.040848
v -0.096596 -0.486600 0.040848
v -0.192157 -0.449319 0.040848
v -0.259111 -0.348127 0.040848
v -0.259111 0.338909 0.040848
v 0.347734 0.338686 0.040848
v 0.346927 0.350186 0.011531
v 0.346879 0.374349 0.011442
v 0.346901 0.377663 0.026076
v 0.346912 0.387304 0.040896
v 0.346888 0.406778 0.048147
v 0.346850 0.425951 0.048077
v 0.346894 0.426033 0.070293
v 0.347045 0.348793 0.070578
v 0.365947 0.350223 0.011494
v 0.365900 0.374387 0.011405
v 0.365922 0.377700 0.026039
v 0.365932 0.387341 0.040859
v 0.365909 0.406815 0.048110
v 0.365871 0.425988 0.048039
v 0.365914 0.426070 0.070255
v 0.366066 0.348831 0.070540
v 0.347637 0.280740 0.041763
v 0.171897 0.275307 -0.264120
v 0.163420 0.275291 -0.261680
v 0.335603 0.280770 0.048918
v 0.164402 0.267181 -0.259939
v 0.335517 0.266862 0.048708
v 0.172879 0.267197 -0.262380
v 0.347551 0.266833 0.041553
v -0.275162 0.424591 0.111867
v -0.275259 0.411009 0.332351
v -0.253843 0.410968 0.333668
v -0.240166 0.424665 0.111737
v -0.253805 0.390692 0.332419
v -0.240240 0.389896 0.111878
v -0.275220 0.390733 0.331102
v -0.275237 0.389822 0.112008
v 0.364409 0.391350 0.110726
v 0.364483 0.404932 0.331209
v 0.343068 0.404939 0.332527
v 0.329412 0.391220 0.110596
v 0.342998 0.425215 0.331278
v 0.329432 0.425989 0.110737
v 0.364413 0.425208 0.329960
v 0.364428 0.426119 0.110866
v -0.225708 -0.416135 0.106161
v -0.225804 -0.429717 0.326644
v -0.204389 -0.429758 0.327962
v -0.190711 -0.416061 0.106031
v -0.204351 -0.450034 0.326713
v -0.190785 -0.450830 0.106172
v -0.225766 -0.449993 0.325395
v -0.225782 -0.450904 0.106301
v 0.146429 -0.446713 0.106161
v 0.146503 -0.433131 0.326644
v 0.125088 -0.433124 0.327962
v 0.111432 -0.446843 0.106031
v 0.125017 -0.412848 0.326713
v 0.111452 -0.412074 0.106172
v 0.146433 -0.412855 0.325395
v 0.146448 -0.411944 0.106301
v -0.273954 0.349876 0.012294
v -0.274015 0.374039 0.012233
v -0.273986 0.377336 0.026871
v -0.273973 0.386960 0.041702
v -0.274004 0.406425 0.048975
v -0.274052 0.425598 0.048927
v -0.273996 0.425655 0.071143
v -0.273800 0.348415 0.071338
v -0.254933 0.349924 0.012246
v -0.254994 0.374087 0.012184
v -0.254965 0.377384 0.026822
v -0.254952 0.387008 0.041653
v -0.254983 0.406474 0.048927
v -0.255032 0.425647 0.048878
v -0.254975 0.425703 0.071094
v -0.254779 0.348463 0.071290
v 0.038149 0.287553 0.300294
v 0.053365 0.287553 0.300294
v 0.053365 0.287553 0.110084
v 0.038149 0.287553 0.110084
v 0.038149 0.302770 0.300294
v 0.053365 0.302770 0.300294
v 0.053365 0.302770 0.110084
v 0.038149 0.302770 0.110084
v 0.070484 0.287553 0.300294
v 0.085701 0.287553 0.300294
v 0.085701 0.287553 0.110084
v 0.070484 0.287553 0.110084
v 0.070484 0.302770 0.300294
v 0.085701 0.302770 0.300294
v 0.085701 0.302770 0.110084
v 0.070484 0.302770 0.110084
v 0.002009 0.287553 0.300294
v 0.017226 0.287553 0.300294
v 0.017226 0.287553 0.110084
v 0.002009 0.287553 0.110084
v 0.002009 0.302770 0.300294
v 0.017226 0.302770 0.300294
v 0.017226 0.302770 0.110084
v 0.002009 0.302770 0.110084
v -0.004458 0.283749 0.319315
v 0.090647 0.283749 0.319315
v 0.090647 0.283749 0.300294
v -0.004458 0.283749 0.300294
v -0.004458 0.306574 0.319315
v 0.090647 0.306574 0.319315
v 0.090647 0.306574 0.300294
v -0.004458 0.306574 0.300294
v 0.038149 0.302770 0.311326
v 0.053365 0.302770 0.311326
v 0.053365 0.302770 0.307522
v 0.038149 0.302770 0.307522
v 0.038149 0.329399 0.311326
v 0.053365 0.329399 0.311326
v 0.053365 0.329399 0.307522
v 0.038149 0.329399 0.307522
v 0.070865 0.306574 0.311326
v 0.086082 0.306574 0.311326
v 0.086082 0.306574 0.307522
v 0.070865 0.306574 0.307522
v 0.070865 0.325595 0.311326
v 0.086082 0.325595 0.311326
v 0.086082 0.325595 0.307522
v 0.070865 0.325595 0.307522
v 0.001248 0.306574 0.311326
v 0.016465 0.306574 0.311326
v 0.016465 0.306574 0.307522
v 0.001248 0.306574 0.307522
v 0.001248 0.325595 0.311326
v 0.016465 0.325595 0.311326
v 0.016465 0.325595 0.307522
v 0.001248 0.325595 0.307522
v 0.288296 0.134320 -0.333068
v 0.257499 0.060290 -0.315271
v 0.253692 0.060290 -0.321859
v 0.284489 0.134320 -0.339656
v 0.198146 0.016086 -0.280972
v 0.194339 0.016086 -0.287559
v 0.143831 -0.020663 -0.249584
v 0.140025 -0.020663 -0.256172
v 0.125353 -0.084041 -0.238906
v 0.121547 -0.084041 -0.245494
v 0.125353 -0.349269 -0.238906
v 0.121547 -0.349269 -0.245494
v 0.083918 -0.429157 -0.214961
v 0.080111 -0.429157 -0.221549
v 0.006646 -0.477089 -0.170307
v 0.002839 -0.477089 -0.176894
v -0.120460 -0.477089 -0.096854
v -0.124267 -0.477089 -0.103442
v -0.208371 -0.439808 -0.046052
v -0.212178 -0.439808 -0.052639
v -0.269964 -0.338617 -0.010458
v -0.273771 -0.338617 -0.017045
v -0.269964 0.348420 -0.010458
v -0.273771 0.348420 -0.017045
v 0.288296 0.348196 -0.333068
v 0.284489 0.348196 -0.339656
vn 0.0000 1.0000 0.0000
vn 1.0000 0.0000 0.0000
vn 0.0000 -1.0000 0.0000
vn -1.0000 0.0000 0.0000
vn 0.0000 0.0000 1.0000
vn 0.0000 0.0000 -1.0000
vn 0.9079 -0.4193 -0.0019
vn 0.5621 -0.8270 -0.0037
vn 0.5307 -0.8475 -0.0038
vn 0.9549 -0.2968 -0.0062
vn 1.0000 -0.0022 0.0000
vn 0.8762 -0.4819 0.0000
vn 0.5141 -0.8578 0.0000
vn -0.0367 -0.9993 0.0002
vn -0.3480 -0.9375 0.0018
vn -0.8313 -0.5558 0.0042
vn -1.0000 0.0008 0.0051
vn 0.0007 1.0000 0.0040
vn 1.0000 0.0000 -0.0051
vn -0.0051 0.0023 -1.0000
vn 0.0022 -0.0044 1.0000
vn 0.9112 -0.4120 0.0000
vn 0.5652 -0.8249 0.0000
vn 0.5284 -0.8490 0.0000
vn 0.9533 -0.3021 0.0000
vn 0.8711 -0.4911 0.0000
vn 0.4956 -0.8685 0.0000
vn -0.3634 -0.9316 0.0000
vn -0.8340 -0.5518 0.0000
vn 0.0004 1.0000 0.0000
vn -1.0000 -0.0020 0.0020
vn -1.0000 -0.0020 0.0021
vn 1.0000 0.0020 -0.0020
vn -1.0000 -0.0019 0.0020
vn -0.0019 -0.0037 -1.0000
vn -0.0024 0.9753 -0.2208
vn -0.0023 0.9753 -0.2209
vn -0.0027 0.8382 -0.5453
vn -0.0025 0.3489 -0.9371
vn -0.0020 -0.0037 -1.0000
vn -0.0020 1.0000 -0.0037
vn 0.0020 0.0037 1.0000
vn 0.0019 -0.9997 -0.0236
vn 1.0000 0.0019 -0.0019
vn -1.0000 -0.0019 0.0019
vn -0.0060 0.9999 -0.0143
vn -0.8746 -0.0018 0.4849
vn -0.2686 -0.2332 -0.9346
vn 0.5110 -0.0161 0.8595
vn 0.0013 -1.0000 -0.0020
vn 0.8670 0.0022 -0.4983
vn -0.0019 0.9981 0.0615
vn 0.9981 -0.0019 0.0614
vn -0.0614 -0.0615 0.9962
vn -0.0037 -0.0040 -1.0000
vn -0.0022 -1.0000 0.0042
vn -1.0000 0.0021 0.0001
vn 0.0035 -0.9981 0.0615
vn -0.9981 0.0003 0.0614
vn 0.0613 0.0616 0.9962
vn 0.0037 0.0040 -1.0000
vn 0.0006 1.0000 0.0042
vn 1.0000 -0.0005 0.0001
vn -1.0000 -0.0025 0.0025
vn 1.0000 0.0025 -0.0025
vn -0.0025 -0.0026 -1.0000
vn -0.0026 -0.0025 -1.0000
vn -0.0030 0.9756 -0.2197
vn -0.0035 0.8389 -0.5443
vn -0.0033 0.3500 -0.9367
vn -0.0026 1.0000 -0.0025
vn -0.0025 1.0000 -0.0026
vn 0.0026 0.0025 1.0000
vn 0.0025 0.0025 1.0000
vn 0.0025 -0.9997 -0.0247
vn 0.7804 -0.4331 -0.4510
vn 0.4692 -0.8404 -0.2712
vn 0.4377 -0.8628 -0.2529
vn 0.8206 -0.3191 -0.4741
vn 0.8659 0.0000 -0.5002
vn 0.7428 -0.5139 -0.4292
vn 0.4097 -0.8810 -0.2368
vn -0.2984 -0.9387 0.1725
vn -0.7083 -0.5751 0.4093
vn -0.8658 0.0000 0.5004
vn 0.0003 1.0000 -0.0002
vn 0.8658 0.0000 -0.5003
vn -0.5003 0.0000 -0.8658
vn 0.5003 0.0000 0.8658
vn 0.9105 -0.4134 -0.0064
vn 0.5308 -0.8475 -0.0038
vn 0.9524 -0.3048 -0.0013
vn -0.0366 -0.9993 0.0000
vn 0.0000 0.0082 -1.0000
vn -0.0021 0.0037 -1.0000
vn -0.0026 0.0015 -1.0000
vn -0.0025 0.0043 -1.0000
vn -0.0066 0.0111 -0.9999
vn 0.0094 -0.0150 0.9998
vn 0.0641 -0.0935 0.9936
vn 0.0015 -0.0007 -1.0000
vn -0.0032 0.0053 -1.0000
vn -0.0028 0.0050 -1.0000
vn -0.0083 0.0047 -1.0000
vn -0.0027 0.0049 -1.0000
vn -0.0029 0.0051 -1.0000
vn 0.0014 -0.0006 -1.0000
vn 0.0607 -0.0894 -0.9941
vn -0.1286 0.1911 0.9731
vn -0.0023 0.0041 -1.0000
vn -0.0019 0.0078 -1.0000
vn -0.0029 0.0048 -1.0000
vn -0.0038 0.0032 -1.0000
vn -0.0048 0.0023 -1.0000
vn -0.0043 0.0025 -1.0000
vn 0.0029 -0.0044 1.0000
vn 0.0026 -0.0044 1.0000
vn 0.0023 -0.0046 1.0000
vn 0.0027 -0.0043 1.0000
vn 0.0024 -0.0048 1.0000
vn 0.0027 -0.0042 1.0000
vn 0.0026 -0.0046 1.0000
vn -0.8746 -0.0019 0.4849
vn -0.2687 -0.2331 -0.9346
vn -0.0023 -1.0000 0.0002
vn 0.8671 -0.0019 -0.4981
vn 0.0021 -1.0000 0.0037
vn -1.0000 -0.0019 -0.0006
vn 0.0037 0.0041 -1.0000
vn -0.0037 1.0000 0.0037
vn 1.0000 0.0034 -0.0005
vn 0.4692 -0.8404 -0.2711
vn 0.4376 -0.8628 -0.2529
vn 0.7428 -0.5139 -0.4291
vn 0.4097 -0.8810 -0.2367
vn -0.5004 -0.0000 -0.8658
usemtl None
s off
f 2//1 5//1 6//1
f 3//2 6//2 7//2
f 4//3 7//3 8//3
f 1//4 8//4 5//4
f 6//5 5//5 8//5
f 2//6 3//6 4//6
f 9//7 10//7 11//7
f 10//8 13//8 14//8
f 13//9 15//9 16//9
f 15//10 17//10 18//10
f 17//11 19//11 20//11
f 19//12 21//12 22//12
f 21//13 23//13 24//13
f 23//14 25//14 26//14
f 25//15 27//15 28//15
f 27//16 29//16 30//16
f 29//17 31//17 32//17
f 31//18 33//18 34//18
f 33//19 9//19 12//19
f 35//20 37//20 36//20
f 31//21 29//21 27//21
f 44//22 49//22 48//22
f 43//23 48//23 50//23
f 42//24 50//24 51//24
f 41//25 51//25 52//25
f 40//2 52//2 53//2
f 39//26 53//26 54//26
f 38//27 54//27 55//27
f 37//3 55//3 56//3
f 36//28 56//28 57//28
f 35//29 57//29 58//29
f 47//4 58//4 59//4
f 46//30 59//30 60//30
f 45//2 60//2 49//2
f 61//5 63//5 62//5
f 76//31 75//31 74//31
f 77//32 76//32 74//32
f 78//33 77//33 74//33
f 79//33 78//33 74//33
f 80//31 79//31 74//31
f 81//34 80//34 74//34
f 74//35 83//35 82//35
f 74//35 75//35 83//35
f 75//36 84//36 83//36
f 75//37 76//37 84//37
f 76//38 85//38 84//38
f 76//38 77//38 85//38
f 77//39 86//39 85//39
f 77//39 78//39 86//39
f 78//35 87//35 86//35
f 78//40 79//40 87//40
f 79//41 88//41 87//41
f 79//41 80//41 88//41
f 80//42 89//42 88//42
f 80//42 81//42 89//42
f 81//43 82//43 89//43
f 81//43 74//43 82//43
f 82//44 83//44 84//44
f 82//44 84//44 85//44
f 82//45 85//45 86//45
f 82//31 86//31 87//31
f 82//44 87//44 88//44
f 82//33 88//33 89//33
f 90//46 91//46 92//46
f 93//47 92//47 94//47
f 94//48 92//48 91//48
f 95//49 97//49 90//49
f 94//50 96//50 97//50
f 90//51 97//51 96//51
f 98//52 99//52 100//52
f 101//53 100//53 102//53
f 102//54 100//54 99//54
f 103//55 105//55 98//55
f 102//56 104//56 105//56
f 98//57 105//57 104//57
f 106//58 107//58 108//58
f 109//59 108//59 110//59
f 110//60 108//60 107//60
f 111//61 113//61 106//61
f 110//62 112//62 113//62
f 106//63 113//63 112//63
f 114//52 115//52 116//52
f 117//53 116//53 118//53
f 118//54 116//54 115//54
f 119//55 121//55 114//55
f 118//56 120//56 121//56
f 114//57 121//57 120//57
f 122//58 123//58 124//58
f 125//59 124//59 126//59
f 126//60 124//60 123//60
f 127//61 129//61 122//61
f 126//62 128//62 129//62
f 122//63 129//63 128//63
f 132//64 131//64 130//64
f 133//64 132//64 130//64
f 134//65 133//65 130//65
f 135//65 134//65 130//65
f 136//64 135//64 130//64
f 137//64 136//64 130//64
f 130//66 139//66 138//66
f 130//67 131//67 139//67
f 131//68 140//68 139//68
f 131//68 132//68 140//68
f 132//69 141//69 140//69
f 132//69 133//69 141//69
f 133//70 142//70 141//70
f 133//70 134//70 142//70
f 134//66 143//66 142//66
f 134//67 135//67 143//67
f 135//71 144//71 143//71
f 135//72 136//72 144//72
f 136//73 145//73 144//73
f 136//74 137//74 145//74
f 137//75 138//75 145//75
f 137//75 130//75 138//75
f 138//65 139//65 140//65
f 138//65 140//65 141//65
f 138//64 141//64 142//64
f 138//64 142//64 143//64
f 138//65 143//65 144//65
f 138//65 144//65 145//65
f 146//3 149//3 147//3
f 147//3 149//3 148//3
f 146//5 151//5 150//5
f 146//5 147//5 151//5
f 146//4 150//4 149//4
f 149//4 150//4 153//4
f 149//6 153//6 152//6
f 149//6 152//6 148//6
f 147//2 152//2 151//2
f 147//2 148//2 152//2
f 151//1 153//1 150//1
f 151//1 152//1 153//1
f 154//3 157//3 155//3
f 155//3 157//3 156//3
f 154//5 159//5 158//5
f 154//5 155//5 159//5
f 154//4 158//4 157//4
f 157//4 158//4 161//4
f 157//6 161//6 160//6
f 157//6 160//6 156//6
f 155//2 160//2 159//2
f 155//2 156//2 160//2
f 159//1 161//1 158//1
f 159//1 160//1 161//1
f 162//3 165//3 163//3
f 163//3 165//3 164//3
f 162//5 167//5 166//5
f 162//5 163//5 167//5
f 162//4 166//4 165//4
f 165//4 166//4 169//4
f 165//6 169//6 168//6
f 165//6 168//6 164//6
f 163//2 168//2 167//2
f 163//2 164//2 168//2
f 167//1 169//1 166//1
f 167//1 168//1 169//1
f 170//3 173//3 171//3
f 171//3 173//3 172//3
f 170//5 175//5 174//5
f 170//5 171//5 175//5
f 170//4 174//4 173//4
f 173//4 174//4 177//4
f 173//6 177//6 176//6
f 173//6 176//6 172//6
f 171//2 176//2 175//2
f 171//2 172//2 176//2
f 175//1 177//1 174//1
f 175//1 176//1 177//1
f 178//3 181//3 179//3
f 179//3 181//3 180//3
f 178//5 183//5 182//5
f 178//5 179//5 183//5
f 178//4 182//4 181//4
f 181//4 182//4 185//4
f 181//6 185//6 184//6
f 181//6 184//6 180//6
f 179//2 184//2 183//2
f 179//2 180//2 184//2
f 183//1 185//1 182//1
f 183//1 184//1 185//1
f 186//3 189//3 187//3
f 187//3 189//3 188//3
f 186//5 191//5 190//5
f 186//5 187//5 191//5
f 186//4 190//4 189//4
f 189//4 190//4 193//4
f 189//6 193//6 192//6
f 189//6 192//6 188//6
f 187//2 192//2 191//2
f 187//2 188//2 192//2
f 191//1 193//1 190//1
f 191//1 192//1 193//1
f 194//3 197//3 195//3
f 195//3 197//3 196//3
f 194//5 199//5 198//5
f 194//5 195//5 199//5
f 194//4 198//4 197//4
f 197//4 198//4 201//4
f 197//6 201//6 200//6
f 197//6 200//6 196//6
f 195//2 200//2 199//2
f 195//2 196//2 200//2
f 199//1 201//1 198//1
f 199//1 200//1 201//1
f 202//76 203//76 204//76
f 203//77 206//77 207//77
f 206//78 208//78 209//78
f 208//79 210//79 211//79
f 210//80 212//80 213//80
f 212//81 214//81 215//81
f 214//82 216//82 217//82
f 216//3 218//3 219//3
f 218//83 220//83 221//83
f 220//84 222//84 223//84
f 222//85 224//85 225//85
f 224//86 226//86 227//86
f 226//87 202//87 205//87
f 225//88 227//88 205//88
f 224//89 222//89 220//89
f 2//1 6//1 3//1
f 3//2 7//2 4//2
f 4//3 8//3 1//3
f 1//4 5//4 2//4
f 6//5 8//5 7//5
f 2//6 4//6 1//6
f 9//90 11//90 12//90
f 10//8 14//8 11//8
f 13//91 16//91 14//91
f 15//92 18//92 16//92
f 17//19 20//19 18//19
f 19//12 22//12 20//12
f 21//13 24//13 22//13
f 23//93 26//93 24//93
f 25//15 28//15 26//15
f 27//16 30//16 28//16
f 29//17 32//17 30//17
f 31//18 34//18 32//18
f 33//19 12//19 34//19
f 35//94 38//94 37//94
f 35//95 39//95 38//95
f 35//96 40//96 39//96
f 35//97 41//97 40//97
f 35//98 42//98 41//98
f 35//99 43//99 42//99
f 35//100 44//100 43//100
f 35//101 45//101 44//101
f 35//102 46//102 45//102
f 35//103 47//103 46//103
f 35//104 30//104 32//104
f 35//105 32//105 34//105
f 35//106 34//106 12//106
f 35//107 12//107 11//107
f 35//108 11//108 14//108
f 35//109 14//109 16//109
f 35//6 16//6 18//6
f 35//110 18//110 20//110
f 35//111 20//111 22//111
f 35//112 22//112 24//112
f 35//113 24//113 26//113
f 35//114 26//114 28//114
f 35//115 28//115 30//115
f 31//116 27//116 25//116
f 31//117 25//117 23//117
f 31//117 23//117 21//117
f 31//118 21//118 19//118
f 31//119 19//119 17//119
f 31//119 17//119 15//119
f 31//119 15//119 13//119
f 31//120 13//120 10//120
f 31//121 10//121 9//121
f 31//122 9//122 33//122
f 44//22 45//22 49//22
f 43//23 44//23 48//23
f 42//24 43//24 50//24
f 41//25 42//25 51//25
f 40//2 41//2 52//2
f 39//26 40//26 53//26
f 38//27 39//27 54//27
f 37//3 38//3 55//3
f 36//28 37//28 56//28
f 35//29 36//29 57//29
f 47//4 35//4 58//4
f 46//30 47//30 59//30
f 45//2 46//2 60//2
f 61//5 64//5 63//5
f 61//6 65//6 64//6
f 61//6 66//6 65//6
f 61//5 67//5 66//5
f 61//5 68//5 67//5
f 61//5 69//5 68//5
f 61//5 70//5 69//5
f 61//5 71//5 70//5
f 61//5 72//5 71//5
f 61//5 73//5 72//5
f 90//46 92//46 93//46
f 93//123 94//123 95//123
f 94//124 91//124 96//124
f 95//49 90//49 93//49
f 94//125 97//125 95//125
f 90//126 96//126 91//126
f 98//52 100//52 101//52
f 101//53 102//53 103//53
f 102//54 99//54 104//54
f 103//55 98//55 101//55
f 102//127 105//127 103//127
f 98//128 104//128 99//128
f 106//58 108//58 109//58
f 109//59 110//59 111//59
f 110//60 107//60 112//60
f 111//129 106//129 109//129
f 110//130 113//130 111//130
f 106//131 112//131 107//131
f 114//52 116//52 117//52
f 117//53 118//53 119//53
f 118//54 115//54 120//54
f 119//55 114//55 117//55
f 118//127 121//127 119//127
f 114//128 120//128 115//128
f 122//58 124//58 125//58
f 125//59 126//59 127//59
f 126//60 123//60 128//60
f 127//129 122//129 125//129
f 126//130 129//130 127//130
f 122//131 128//131 123//131
f 202//76 204//76 205//76
f 203//132 207//132 204//132
f 206//133 209//133 207//133
f 208//79 211//79 209//79
f 210//80 213//80 211//80
f 212//134 215//134 213//134
f 214//135 217//135 215//135
f 216//3 219//3 217//3
f 218//83 221//83 219//83
f 220//84 223//84 221//84
f 222//85 225//85 223//85
f 224//86 227//86 225//86
f 226//87 205//87 227//87
f 225//88 205//88 204//88
f 225//136 204//136 207//136
f 225//88 207//88 209//88
f 225//88 209//88 211//88
f 225//88 211//88 213//88
f 225//88 213//88 215//88
f 225//136 215//136 217//136
f 225//88 217//88 219//88
f 225//136 219//136 221//136
f 225//88 221//88 223//88
f 224//89 220//89 218//89
f 224//89 218//89 216//89
f 224//89 216//89 214//89
f 224//89 214//89 212//89
f 224//89 212//89 210//89
f 224//89 210//89 208//89
f 224//89 208//89 206//89
f 224//89 206//89 203//89
f 224//89 203//89 202//89
f 224//89 202//89 226//89
