# Blender v2.79 (sub 0) OBJ File: ''
# www.blender.org
mtllib m689.mtl
o m689
v -0.200426 0.025078 0.262953
v -0.202822 0.016866 0.261834
v -0.206835 0.009828 0.259113
v -0.212067 0.004671 0.255059
v -0.218022 0.001885 0.250055
v -0.224102 0.001743 0.244606
v -0.229716 0.004266 0.239238
v -0.234321 0.009201 0.234475
v -0.237452 0.016060 0.230793
v -0.238813 0.024192 0.228543
v -0.238272 0.032781 0.227946
v -0.235876 0.040993 0.229065
v -0.231863 0.048031 0.231786
v -0.226631 0.053187 0.235840
v -0.220676 0.055973 0.240844
v -0.214596 0.056115 0.246294
v -0.208982 0.053593 0.251661
v -0.204377 0.048658 0.256424
v -0.201246 0.041799 0.260106
v -0.199885 0.033667 0.262356
v 0.623456 -0.082677 -0.687047
v -0.048117 0.008013 0.009935
v -0.008568 -0.000704 0.065773
v -0.035217 0.010564 0.079251
v -0.036750 0.018720 0.077192
v -0.039538 0.025531 0.073128
v -0.043799 0.030418 0.067983
v -0.048984 0.032879 0.062138
v -0.054033 0.032593 0.055542
v -0.059300 0.029711 0.049774
v -0.063588 0.024421 0.044669
v -0.067000 0.017299 0.041279
v -0.069395 0.009087 0.040161
v -0.070452 0.000570 0.041331
v -0.069521 -0.007501 0.044058
v -0.067162 -0.014252 0.048600
v -0.062815 -0.019151 0.053650
v -0.057888 -0.021577 0.059781
v -0.053183 -0.021242 0.066759
v -0.047486 -0.018420 0.072049
v -0.042769 -0.013191 0.076677
v -0.039443 -0.006056 0.080162
v -0.036274 0.002047 0.080421
v -0.061543 -0.019720 0.054866
v -0.069699 -0.003862 0.042568
v -0.069215 0.009391 0.040110
v -0.066488 0.018208 0.041625
v -0.062324 0.025763 0.045810
v -0.054118 0.032554 0.055470
v -0.041388 0.027843 0.070476
v -0.035194 0.006831 0.079220
v -0.035410 0.004758 0.079462
v -0.056281 -0.021521 0.061568
v -0.044308 -0.016039 0.073212
v -0.040436 0.006573 0.013539
v -0.032471 0.005074 0.017405
v -0.030257 0.004626 0.019453
v -0.010828 0.000364 0.046177
v -0.027305 0.004023 0.022183
v -0.029215 0.008579 0.018148
v -0.012163 0.026237 0.043455
v -0.009292 0.003550 0.047157
v -0.018988 -0.016605 0.040980
v -0.035853 -0.024968 0.026869
v -0.052731 -0.017280 0.012462
v -0.062368 0.002676 0.004763
v -0.058201 0.025392 0.005645
v -0.044198 0.040476 0.016335
v -0.025795 0.040726 0.031110
v -0.011367 0.041997 0.080525
v -0.005953 0.000125 0.087191
v -0.022952 -0.037127 0.074862
v -0.054953 -0.052346 0.049746
v -0.086566 -0.038418 0.023045
v -0.102581 -0.001646 0.007314
v -0.096247 0.040513 0.010131
v -0.070116 0.068421 0.029935
v -0.036447 0.068964 0.057705
v -0.025278 0.053513 0.122159
v -0.018358 -0.001313 0.130943
v -0.040986 -0.050088 0.115179
v -0.082513 -0.069844 0.082069
v -0.123671 -0.051467 0.047094
v -0.145003 -0.003583 0.026748
v -0.136579 0.051418 0.030521
v -0.102493 0.087842 0.056405
v -0.058524 0.088844 0.092683
v -0.082303 0.095157 0.122613
v -0.121386 0.092490 0.076300
v -0.149414 0.053303 0.042095
v -0.159383 -0.003487 0.039599
v -0.144800 -0.053456 0.067558
v -0.094512 -0.064934 0.136016
v -0.107869 -0.073610 0.111330
v -0.106700 -0.072554 0.106845
v -0.141470 -0.050219 0.061953
v -0.156332 -0.001253 0.037180
v -0.148440 0.052331 0.040828
v -0.119041 0.089193 0.069935
v -0.080568 0.093987 0.114387
v -0.041562 0.001151 0.165885
v -0.048594 0.059450 0.152553
v -0.042565 0.000100 0.167903
v -0.098642 -0.069035 0.119748
v -0.065536 -0.052466 0.149347
v -0.029838 0.002839 0.122535
v -0.036030 0.048608 0.114852
v -0.063466 0.078069 0.088204
v -0.099301 0.076933 0.055598
v -0.126679 0.046280 0.031881
v -0.132902 0.000110 0.028450
v -0.114871 -0.039814 0.046741
v -0.081286 -0.055074 0.078171
v -0.047574 -0.038066 0.108260
v -0.034647 0.006709 0.080076
v -0.037986 0.031371 0.075879
v -0.052854 0.047316 0.061542
v -0.072270 0.046774 0.043800
v -0.087110 0.030220 0.030975
v -0.090423 0.005228 0.029058
v -0.080682 -0.016442 0.038983
v -0.062433 -0.024594 0.056075
v -0.067915 -0.052713 0.152641
v -0.043000 0.000130 0.168380
v -0.045708 0.029479 0.162242
v -0.048572 0.057934 0.156076
v -0.049375 0.058942 0.155226
v -0.077481 -0.056571 0.150103
v -0.077137 -0.056619 0.149721
v -0.042921 -0.000536 0.168535
v -0.067963 -0.052985 0.152632
v -0.074589 -0.056141 0.147071
v -0.087546 0.002969 0.060339
v -0.075434 0.001269 0.046871
v -0.072831 0.009569 0.043982
v -0.088637 0.011787 0.061557
v -0.072728 0.013622 0.045654
v -0.072554 0.012380 0.044922
v -0.083852 0.017782 0.059178
v -0.084166 0.017605 0.059440
v -0.086653 0.015243 0.060987
v -0.088494 0.012265 0.061624
v -0.088990 0.008976 0.061942
v -0.088595 0.005696 0.061491
v -0.087332 0.002739 0.060212
v -0.085098 0.000405 0.058681
v -0.082505 -0.001097 0.056322
v -0.079981 -0.001594 0.053601
v -0.077736 -0.001054 0.050671
v -0.075894 0.000480 0.047777
v -0.074303 0.002822 0.045601
v -0.072769 0.009083 0.043924
v -0.073147 0.005799 0.044347
v -0.081956 0.019121 0.056879
v -0.079611 0.019669 0.054038
v -0.077248 0.019148 0.051175
v -0.075024 0.017665 0.048483
v -0.073363 0.015307 0.046440
v -0.076921 0.009098 0.040537
v -0.077279 0.005813 0.040978
v -0.078373 0.002851 0.042285
v -0.080069 0.000475 0.044372
v -0.082061 -0.001080 0.046959
v -0.084510 -0.001612 0.049878
v -0.086968 -0.001072 0.052654
v -0.089083 0.000422 0.055269
v -0.090702 0.002738 0.057529
v -0.091894 0.005715 0.058696
v -0.092223 0.008976 0.059383
v -0.091780 0.012245 0.058846
v -0.090685 0.015214 0.057539
v -0.088989 0.017590 0.055453
v -0.087002 0.019118 0.052865
v -0.084553 0.019650 0.049946
v -0.082279 0.019176 0.046996
v -0.080164 0.017681 0.044380
v -0.078356 0.015327 0.042295
v -0.077164 0.012350 0.041128
vn 0.6926 -0.2919 0.6597
vn 0.5799 -0.5596 0.5921
vn 0.6461 0.5684 0.5093
vn 0.1931 -0.9368 0.2918
vn 0.2900 0.9465 0.1413
vn -0.4961 -0.7965 -0.3456
vn -0.6461 -0.5684 -0.5093
vn -0.4098 0.7833 -0.4674
vn -0.6657 0.0934 0.7403
vn 0.7435 -0.0010 0.6687
vn -0.5828 0.5544 -0.5941
vn -0.2903 -0.9464 -0.1417
vn -0.0482 -0.9954 0.0822
vn 0.4071 -0.7860 0.4653
vn 0.4952 0.7974 0.3447
vn -0.1931 0.9368 -0.2919
vn 0.0495 0.9955 -0.0811
vn 0.7290 0.2932 0.6186
vn -0.1686 -0.9851 -0.0342
vn 0.1686 0.9851 0.0343
vn 0.8252 0.0123 -0.5646
vn 0.7920 -0.2047 -0.5751
vn 0.5703 -0.4157 -0.7085
vn 0.6146 -0.2991 -0.7299
vn 0.4047 -0.1680 -0.8989
vn 0.4730 0.1731 -0.8639
vn 0.6056 0.2413 -0.7583
vn 0.7562 0.1739 -0.6309
vn 0.9905 0.1165 -0.0726
vn 0.9082 -0.3990 -0.1265
vn 0.6099 -0.7136 -0.3447
vn 0.2406 -0.7142 -0.6573
vn -0.0153 -0.3989 -0.9169
vn -0.0856 0.0792 -0.9932
vn 0.1021 0.5103 -0.8539
vn 0.4500 0.6963 -0.5591
vn 0.8049 0.5397 -0.2467
vn 0.9477 0.1635 0.2741
vn 0.8522 -0.4698 0.2302
vn 0.4740 -0.8776 -0.0709
vn 0.0056 -0.8825 -0.4702
vn -0.3437 -0.4928 -0.7994
vn -0.4202 0.1260 -0.8986
vn -0.1792 0.6758 -0.7150
vn 0.2642 0.9006 -0.3451
vn 0.7096 0.7033 0.0426
vn 0.2062 -0.9304 0.3031
vn -0.1674 -0.9490 -0.2672
vn -0.5689 -0.5192 -0.6378
vn 0.6790 -0.1489 0.7189
vn -0.3820 0.7462 -0.5452
vn 0.0947 0.9856 -0.1403
vn 0.5953 0.7394 0.3145
vn -0.9669 -0.1664 -0.1933
vn -0.8647 0.4516 -0.2197
vn -0.3247 0.9348 -0.1436
vn 0.3527 -0.1165 0.9284
vn -0.0613 0.8706 0.4882
vn -0.9880 -0.1166 0.1011
vn -0.8133 -0.5152 0.2705
vn -0.4947 -0.6631 0.5617
vn -0.1816 -0.4953 0.8495
vn -0.0051 -0.0758 0.9971
vn -0.0605 0.3930 0.9175
vn -0.3183 0.6775 0.6630
vn 0.6402 -0.7002 -0.3159
vn 0.7991 -0.1746 -0.5753
vn 0.5813 -0.3891 -0.7146
vn 0.4013 -0.1825 -0.8976
vn 0.4276 -0.1749 -0.8869
vn -0.8233 0.1497 0.5475
vn -0.7129 -0.7001 -0.0400
vn -0.2941 -0.8877 0.3542
vn 0.1151 -0.6702 0.7332
vn 0.2741 0.5001 0.8214
vn -0.7250 0.4869 -0.4871
vn -0.5037 0.8603 0.0780
vn 0.3265 -0.9279 0.1798
vn 0.7240 -0.4922 0.4833
vn 0.8198 0.1989 0.5371
vn -0.6662 0.0933 0.7399
vn -0.8432 -0.0097 0.5375
vn -0.7861 -0.1574 0.5977
vn 0.7195 -0.2736 -0.6384
vn -0.6562 -0.2383 0.7159
vn -0.5465 -0.1805 0.8178
vn -0.4850 -0.0590 0.8725
vn 0.9222 -0.3558 -0.1517
vn 0.5819 -0.3891 -0.7141
vn 0.6177 -0.2278 -0.7527
vn -0.6926 0.2919 -0.6597
vn -0.7435 0.0004 -0.6687
vn 0.7375 0.2767 0.6161
vn 0.6223 -0.1704 -0.7640
vn 0.5453 -0.4987 -0.6737
vn -0.5630 -0.4959 0.6612
vn 0.2836 -0.9025 -0.3241
vn 0.0901 -0.9904 -0.1049
vn -0.5657 0.4980 0.6573
vn -0.4233 0.7493 0.5093
vn -0.2555 0.9121 0.3205
vn -0.0865 0.9904 0.1080
vn 0.0782 0.9920 -0.0991
vn 0.2625 0.9138 -0.3099
vn 0.4065 0.7606 -0.5062
vn -0.8642 0.0267 -0.5024
vn 0.4190 -0.7494 -0.5127
vn 0.6232 0.1706 -0.7632
vn -0.6435 0.0859 0.7606
vn -0.6051 -0.2221 0.7645
vn 0.5533 0.4866 -0.6761
vn 0.7736 -0.0040 0.6336
vn -0.3988 -0.7679 0.5012
vn -0.2664 -0.9138 0.3066
vn -0.0948 -0.9896 0.1086
vn 0.6461 0.5684 0.5094
vn 0.2900 0.9465 0.1414
vn -0.4098 0.7834 -0.4674
vn -0.4099 0.7833 -0.4674
vn -0.6658 0.0934 0.7403
vn 0.7435 -0.0004 0.6687
vn 0.7436 0.0000 0.6687
vn 0.7414 0.0011 0.6711
vn -0.5799 0.5596 -0.5921
vn -0.5794 0.5604 -0.5918
vn -0.2901 -0.9465 -0.1415
vn -0.2890 -0.9470 -0.1404
vn -0.0495 -0.9955 0.0811
vn -0.0524 -0.9955 0.0785
vn 0.4099 -0.7833 0.4673
vn 0.4128 -0.7804 0.4697
vn 0.4961 0.7965 0.3457
vn 0.4971 0.7954 0.3467
vn -0.1931 0.9368 -0.2918
vn -0.1876 0.9393 -0.2872
vn -0.1687 -0.9851 -0.0344
vn 0.1685 0.9851 0.0346
vn 0.1687 0.9851 0.0343
vn 0.1650 0.9856 0.0372
vn 0.1707 0.9848 0.0330
vn -0.1689 -0.9850 -0.0342
vn 0.1686 0.9851 0.0344
vn 0.1668 0.9853 0.0372
vn 0.1700 0.9849 0.0317
vn 0.6950 -0.2957 -0.6554
vn 0.5325 -0.3083 -0.7883
vn 0.3912 -0.1607 -0.9062
vn 0.9910 0.1140 -0.0698
vn 0.9496 -0.2957 -0.1045
vn 0.9172 -0.3864 -0.0970
vn 0.9105 -0.3923 -0.1311
vn 0.9085 -0.3982 -0.1265
vn 0.6328 -0.6929 -0.3456
vn 0.2362 -0.7148 -0.6582
vn -0.0509 -0.3808 -0.9233
vn -0.0687 0.0513 -0.9963
vn 0.4468 0.6910 -0.5682
vn 0.8027 0.5404 -0.2522
vn 0.9482 0.1657 0.2710
vn 0.8554 -0.4655 0.2272
vn 0.4731 -0.8782 -0.0707
vn 0.0086 -0.8824 -0.4704
vn -0.3449 -0.4922 -0.7992
vn -0.4180 0.1229 -0.9001
vn -0.1791 0.6754 -0.7154
vn 0.2647 0.9029 -0.3386
vn 0.7103 0.7022 0.0492
vn -0.1824 -0.9422 -0.2811
vn -0.1827 -0.9424 -0.2802
vn -0.5679 -0.5221 -0.6364
vn -0.5698 -0.5231 -0.6337
vn 0.7215 -0.1563 0.6746
vn -0.6504 0.1469 -0.7452
vn -0.6581 0.1514 -0.7375
vn 0.4027 -0.7437 0.5336
vn -0.3866 0.7466 -0.5415
vn -0.0609 -0.9899 0.1279
vn 0.0901 0.9865 -0.1365
vn 0.5972 0.7381 0.3139
vn 0.5680 0.7722 0.2849
vn 0.5654 0.7736 0.2860
vn -0.9338 -0.1830 -0.3076
vn -0.9481 -0.1751 -0.2656
vn -0.9491 -0.1726 -0.2634
vn -0.8647 0.4538 -0.2152
vn -0.8823 0.4148 -0.2225
vn 0.3181 -0.9339 0.1633
vn 0.3244 -0.9335 0.1530
vn -0.3177 0.9346 -0.1598
vn 0.3202 -0.9342 0.1572
vn 0.3190 -0.9346 0.1575
vn 0.3503 -0.1149 0.9296
vn -0.0568 0.8788 0.4738
vn -0.0582 0.8745 0.4815
vn -0.9880 -0.1167 0.1013
vn -0.8140 -0.5150 0.2686
vn -0.4936 -0.6607 0.5655
vn -0.1816 -0.4951 0.8496
vn -0.0069 -0.0732 0.9973
vn -0.3132 0.6787 0.6643
vn 0.6505 -0.6729 -0.3521
vn -0.6504 0.6732 0.3519
vn -0.6541 0.6654 0.3597
vn -0.6549 0.6658 0.3574
vn 0.7903 -0.2032 -0.5780
vn 0.0313 -0.1834 -0.9825
vn -0.4819 0.1768 0.8582
vn -0.4821 0.1763 0.8582
vn 0.3764 -0.0331 -0.9259
vn 0.3837 -0.0251 -0.9231
vn -0.7130 -0.7002 -0.0363
vn -0.7058 -0.7068 -0.0483
vn -0.2930 -0.8899 0.3496
vn -0.2953 -0.8884 0.3514
vn 0.1156 -0.6707 0.7327
vn 0.1963 -0.6993 0.6874
vn 0.2768 0.4994 0.8210
vn 0.2829 0.5000 0.8185
vn -0.6293 0.4884 -0.6046
vn -0.5038 0.8608 0.0715
vn -0.5029 0.8603 0.0836
vn -0.5034 0.8602 0.0814
vn -0.3299 0.9289 -0.1686
vn -0.3298 0.9316 -0.1526
vn -0.3329 0.9309 -0.1502
vn 0.7240 -0.4921 0.4834
vn 0.8243 0.1893 0.5336
vn -0.8496 -0.1565 -0.5037
vn -0.7123 -0.3091 -0.6301
vn 0.7937 0.2256 0.5649
vn 0.8237 0.1896 0.5343
vn -0.6652 0.0928 0.7409
vn -0.6657 0.0930 0.7404
vn 0.7262 -0.1444 0.6721
vn -0.9585 -0.0834 0.2727
vn -0.8390 -0.0235 0.5436
vn 0.8219 0.0042 -0.5696
vn 0.8409 0.0215 -0.5408
vn -0.7795 -0.1902 0.5968
vn -0.7736 -0.1833 0.6066
vn 0.6938 -0.3465 -0.6313
vn 0.7734 0.2025 -0.6008
vn -0.7139 0.2886 0.6380
vn -0.6507 -0.2427 0.7195
vn -0.6450 -0.2358 0.7269
vn -0.5270 -0.1723 0.8322
vn -0.5261 -0.1633 0.8346
vn -0.4596 -0.0072 0.8881
vn -0.4619 -0.0017 0.8869
vn 0.9238 -0.3671 -0.1086
vn -0.9244 0.3558 0.1375
vn -0.9254 0.3542 0.1348
vn -0.9322 0.3354 0.1362
vn -0.9369 0.3345 0.1014
vn 0.5398 -0.3319 -0.7736
vn 0.5935 -0.2799 -0.7546
vn -0.5811 0.2907 0.7602
vn -0.5800 0.2943 0.7596
vn -0.6926 0.2915 -0.6598
vn -0.6906 0.2984 -0.6588
vn -0.4516 -0.8404 -0.2996
vn 0.6934 -0.2891 0.6601
vn 0.6929 -0.2916 0.6595
vn 0.6929 -0.2913 0.6596
vn 0.7061 -0.3112 0.6360
vn 0.6859 -0.2832 0.6703
vn 0.7084 -0.3014 0.6383
vn 0.7497 -0.0047 0.6618
vn 0.7291 0.0051 0.6844
vn 0.7149 0.0078 0.6992
vn 0.7370 0.2778 0.6161
vn -0.7286 -0.2954 -0.6179
vn -0.7283 -0.2962 -0.6179
vn -0.7292 -0.2895 -0.6200
vn -0.7293 -0.2912 -0.6191
vn -0.7290 -0.2932 -0.6186
vn -0.7286 -0.2954 -0.6180
vn 0.7322 0.3631 0.5762
vn 0.7289 0.2912 0.6196
vn 0.7293 0.2756 0.6262
vn 0.7410 -0.0011 0.6715
vn 0.7332 -0.0052 0.6800
vn 0.6225 -0.1700 -0.7639
vn 0.5476 -0.4964 -0.6736
vn -0.5606 -0.4870 0.6697
vn -0.4378 -0.7111 0.5502
vn 0.2602 -0.9118 -0.3177
vn 0.0980 -0.9894 -0.1073
vn -0.5642 0.4908 0.6639
vn -0.4224 0.7641 0.4875
vn -0.2708 0.9055 0.3267
vn -0.2582 0.9154 0.3089
vn -0.0961 0.9891 0.1115
vn 0.0921 0.9903 -0.1042
vn 0.2456 0.9204 -0.3041
vn 0.4279 0.7449 -0.5119
vn -0.7967 0.0279 -0.6037
vn -0.7900 0.0260 -0.6125
vn -0.8014 0.0329 -0.5973
vn -0.7661 0.0003 -0.6427
vn -0.7504 -0.0192 -0.6607
vn -0.7722 0.0186 -0.6351
vn -0.7852 0.0532 -0.6170
vn -0.7566 -0.0473 -0.6522
vn -0.7752 0.0544 -0.6294
vn -0.7714 0.0000 -0.6363
vn -0.7714 0.0044 -0.6363
vn -0.7723 -0.0064 -0.6352
vn -0.7787 -0.0470 -0.6256
vn -0.7662 0.0008 -0.6427
vn -0.7956 -0.0800 -0.6005
vn -0.7981 -0.0852 -0.5965
vn -0.7990 -0.0867 -0.5950
vn 0.4113 -0.7545 -0.5114
vn -0.6487 0.7056 0.2851
vn 0.6206 0.1849 -0.7620
vn 0.6229 0.1922 -0.7583
vn -0.6212 0.2083 0.7554
vn -0.6102 0.1822 0.7710
vn -0.6365 -0.1798 0.7500
vn 0.5548 0.4987 -0.6659
vn 0.3972 0.5066 -0.7652
vn 0.7674 -0.0127 0.6410
vn 0.7707 -0.0063 0.6372
vn 0.7716 -0.0038 0.6361
vn 0.7720 -0.0019 0.6356
vn -0.4346 -0.7465 0.5039
vn -0.2550 -0.9179 0.3041
vn -0.0822 -0.9911 0.1048
usemtl None
s off
f 42//1 43//1 1//1
f 41//2 42//2 2//2
f 25//3 26//3 18//3
f 39//4 40//4 4//4
f 27//5 28//5 16//5
f 36//6 37//6 7//6
f 35//7 36//7 8//7
f 48//8 31//8 13//8
f 3//9 2//9 1//9
f 51//10 24//10 20//10
f 47//11 32//11 12//11
f 44//12 38//12 6//12
f 53//13 39//13 5//13
f 54//14 41//14 3//14
f 50//15 27//15 17//15
f 49//16 30//16 14//16
f 28//17 29//17 15//17
f 24//18 25//18 19//18
f 58//19 21//19 23//19
f 55//20 21//20 22//20
f 60//21 61//21 62//21
f 59//22 58//22 63//22
f 57//23 59//23 63//23
f 56//24 57//24 64//24
f 55//25 56//25 65//25
f 60//26 67//26 68//26
f 60//27 68//27 69//27
f 60//28 69//28 61//28
f 70//29 71//29 62//29
f 23//30 58//30 62//30
f 72//31 73//31 64//31
f 73//32 74//32 65//32
f 74//33 75//33 66//33
f 75//34 76//34 67//34
f 76//35 77//35 68//35
f 77//36 78//36 69//36
f 78//37 70//37 61//37
f 79//38 80//38 71//38
f 80//39 81//39 72//39
f 81//40 82//40 73//40
f 82//41 83//41 74//41
f 83//42 84//42 75//42
f 84//43 85//43 76//43
f 85//44 86//44 77//44
f 86//45 87//45 78//45
f 87//46 79//46 70//46
f 93//47 129//47 128//47
f 82//48 94//48 95//48
f 83//49 92//49 96//49
f 91//50 97//50 98//50
f 85//51 90//51 99//51
f 86//52 89//52 100//52
f 102//53 127//53 126//53
f 101//54 125//54 127//54
f 106//55 114//55 105//55
f 131//56 132//56 129//56
f 97//57 111//57 110//57
f 113//58 112//58 96//58
f 107//59 116//59 115//59
f 108//60 117//60 116//60
f 109//61 118//61 117//61
f 110//62 119//62 118//62
f 111//63 120//63 119//63
f 112//64 121//64 120//64
f 113//65 122//65 121//65
f 54//66 40//66 39//66
f 58//67 59//67 60//67
f 59//68 57//68 60//68
f 56//69 55//69 60//69
f 45//70 34//70 33//70
f 51//71 52//71 115//71
f 100//72 108//72 107//72
f 99//73 109//73 108//73
f 98//74 110//74 109//74
f 96//75 112//75 111//75
f 105//76 123//76 124//76
f 114//77 113//77 95//77
f 128//78 132//78 123//78
f 80//79 130//79 131//79
f 79//80 126//80 125//80
f 127//81 125//81 126//81
f 131//9 130//9 124//9
f 24//82 51//82 115//82
f 27//83 50//83 116//83
f 53//84 38//84 44//84
f 30//85 49//85 117//85
f 31//86 48//86 118//86
f 32//87 47//87 119//87
f 43//88 42//88 41//88
f 57//89 56//89 60//89
f 44//90 37//90 36//90
f 136//91 11//91 12//91
f 135//92 33//92 34//92
f 148//93 149//93 150//93
f 133//92 10//92 11//92
f 153//94 160//94 159//94
f 151//95 161//95 160//95
f 133//96 144//96 168//96
f 149//97 163//97 162//97
f 148//98 164//98 163//98
f 141//99 171//99 170//99
f 140//100 172//100 171//100
f 139//101 154//101 173//101
f 174//102 173//102 154//102
f 175//103 174//103 155//103
f 176//104 175//104 156//104
f 177//105 176//105 157//105
f 178//106 159//106 160//106
f 150//107 162//107 161//107
f 135//108 152//108 159//108
f 136//109 142//109 170//109
f 143//110 169//110 168//110
f 138//111 178//111 177//111
f 137//112 158//112 157//112
f 145//113 167//113 166//113
f 146//114 166//114 165//114
f 147//115 165//115 164//115
f 42//1 1//1 2//1
f 41//2 2//2 3//2
f 25//116 18//116 19//116
f 39//4 4//4 5//4
f 27//117 16//117 17//117
f 36//6 7//6 8//6
f 35//7 8//7 9//7
f 48//118 13//118 14//118
f 48//119 14//119 30//119
f 3//9 1//9 20//9
f 3//120 20//120 19//120
f 3//120 19//120 18//120
f 3//9 18//9 17//9
f 3//120 17//120 16//120
f 3//120 16//120 15//120
f 3//120 15//120 14//120
f 3//120 14//120 13//120
f 3//120 13//120 12//120
f 3//120 12//120 11//120
f 3//120 11//120 10//120
f 3//120 10//120 9//120
f 3//120 9//120 8//120
f 3//120 8//120 7//120
f 3//120 7//120 6//120
f 3//120 6//120 5//120
f 3//9 5//9 4//9
f 51//121 20//121 1//121
f 51//122 1//122 43//122
f 51//123 43//123 52//123
f 47//124 12//124 13//124
f 47//125 13//125 31//125
f 44//126 6//126 7//126
f 44//127 7//127 37//127
f 53//128 5//128 6//128
f 53//129 6//129 38//129
f 54//130 3//130 4//130
f 54//131 4//131 40//131
f 50//132 17//132 18//132
f 50//133 18//133 26//133
f 49//134 14//134 15//134
f 49//135 15//135 29//135
f 28//17 15//17 16//17
f 24//18 19//18 20//18
f 58//136 22//136 21//136
f 58//137 55//137 22//137
f 58//138 56//138 55//138
f 58//139 57//139 56//139
f 58//140 59//140 57//140
f 55//138 23//138 21//138
f 55//141 58//141 23//141
f 55//142 58//142 59//142
f 55//143 59//143 57//143
f 55//144 57//144 56//144
f 57//145 63//145 64//145
f 56//146 64//146 65//146
f 55//147 65//147 66//147
f 70//148 62//148 61//148
f 23//149 62//149 71//149
f 23//150 71//150 72//150
f 23//151 72//151 63//151
f 23//152 63//152 58//152
f 72//153 64//153 63//153
f 73//154 65//154 64//154
f 74//155 66//155 65//155
f 75//156 67//156 66//156
f 76//35 68//35 67//35
f 77//157 69//157 68//157
f 78//158 61//158 69//158
f 79//159 71//159 70//159
f 80//160 72//160 71//160
f 81//161 73//161 72//161
f 82//162 74//162 73//162
f 83//163 75//163 74//163
f 84//164 76//164 75//164
f 85//165 77//165 76//165
f 86//166 78//166 77//166
f 87//167 70//167 78//167
f 82//168 95//168 92//168
f 82//169 92//169 83//169
f 83//170 96//170 91//170
f 83//171 91//171 84//171
f 91//172 98//172 90//172
f 91//173 90//173 85//173
f 91//174 85//174 84//174
f 85//175 99//175 89//175
f 85//176 89//176 86//176
f 86//177 100//177 88//177
f 86//178 88//178 87//178
f 102//179 126//179 79//179
f 102//180 79//180 87//180
f 102//181 87//181 88//181
f 101//182 127//182 102//182
f 101//183 102//183 107//183
f 101//184 107//184 106//184
f 106//185 105//185 103//185
f 106//186 103//186 101//186
f 131//187 129//187 93//187
f 131//188 93//188 104//188
f 131//189 104//189 94//189
f 131//190 94//190 82//190
f 131//191 82//191 81//191
f 97//192 110//192 98//192
f 113//193 96//193 92//193
f 113//194 92//194 95//194
f 107//195 115//195 106//195
f 108//196 116//196 107//196
f 109//197 117//197 108//197
f 110//198 118//198 109//198
f 111//199 119//199 110//199
f 112//64 120//64 111//64
f 113//200 121//200 112//200
f 54//201 39//201 53//201
f 54//202 53//202 122//202
f 54//203 122//203 113//203
f 54//204 113//204 114//204
f 58//205 60//205 62//205
f 45//206 33//206 46//206
f 45//207 46//207 120//207
f 45//208 120//208 121//208
f 55//209 66//209 67//209
f 55//210 67//210 60//210
f 100//211 107//211 102//211
f 100//212 102//212 88//212
f 99//213 108//213 100//213
f 99//214 100//214 89//214
f 98//215 109//215 99//215
f 98//216 99//216 90//216
f 96//217 111//217 97//217
f 96//218 97//218 91//218
f 105//219 124//219 103//219
f 114//220 95//220 94//220
f 114//221 94//221 104//221
f 114//222 104//222 105//222
f 128//223 123//223 105//223
f 128//224 105//224 104//224
f 128//225 104//225 93//225
f 80//226 131//226 81//226
f 79//227 125//227 101//227
f 79//228 101//228 103//228
f 79//229 103//229 124//229
f 79//230 124//230 130//230
f 79//231 130//231 80//231
f 131//232 124//232 123//232
f 131//233 123//233 132//233
f 129//234 132//234 128//234
f 24//235 115//235 116//235
f 24//236 116//236 50//236
f 24//237 50//237 26//237
f 24//238 26//238 25//238
f 27//239 116//239 117//239
f 27//240 117//240 49//240
f 27//241 49//241 29//241
f 27//242 29//242 28//242
f 53//243 44//243 122//243
f 30//244 117//244 118//244
f 30//245 118//245 48//245
f 31//246 118//246 119//246
f 31//247 119//247 47//247
f 32//248 119//248 120//248
f 32//249 120//249 46//249
f 43//250 41//250 54//250
f 43//251 54//251 114//251
f 43//252 114//252 106//252
f 43//253 106//253 115//253
f 43//254 115//254 52//254
f 44//255 36//255 35//255
f 44//256 35//256 45//256
f 44//257 45//257 121//257
f 44//258 121//258 122//258
f 136//91 12//91 32//91
f 136//259 32//259 46//259
f 136//260 46//260 33//260
f 136//261 33//261 135//261
f 136//262 135//262 138//262
f 136//263 138//263 137//263
f 136//264 137//264 139//264
f 136//265 139//265 140//265
f 136//266 140//266 141//266
f 136//267 141//267 142//267
f 135//92 34//92 134//92
f 135//268 134//268 151//268
f 135//269 151//269 153//269
f 135//270 153//270 152//270
f 148//271 150//271 134//271
f 148//272 134//272 34//272
f 148//273 34//273 45//273
f 148//274 45//274 35//274
f 148//275 35//275 9//275
f 148//276 9//276 10//276
f 148//277 10//277 133//277
f 148//278 133//278 145//278
f 148//279 145//279 146//279
f 148//280 146//280 147//280
f 133//92 11//92 136//92
f 133//281 136//281 143//281
f 133//282 143//282 144//282
f 153//283 159//283 152//283
f 151//284 160//284 153//284
f 133//285 168//285 167//285
f 133//286 167//286 145//286
f 149//287 162//287 150//287
f 148//288 163//288 149//288
f 141//289 170//289 142//289
f 140//290 171//290 141//290
f 139//291 173//291 172//291
f 139//292 172//292 140//292
f 174//293 154//293 155//293
f 175//294 155//294 156//294
f 176//295 156//295 157//295
f 177//296 157//296 158//296
f 178//297 160//297 161//297
f 178//298 161//298 162//298
f 178//299 162//299 163//299
f 178//300 163//300 164//300
f 178//301 164//301 165//301
f 178//302 165//302 166//302
f 178//303 166//303 167//303
f 178//304 167//304 168//304
f 178//305 168//305 169//305
f 178//306 169//306 170//306
f 178//307 170//307 171//307
f 178//308 171//308 172//308
f 178//309 172//309 173//309
f 178//310 173//310 174//310
f 178//311 174//311 175//311
f 178//312 175//312 176//312
f 178//313 176//313 177//313
f 150//314 161//314 151//314
f 150//315 151//315 134//315
f 135//316 159//316 178//316
f 135//317 178//317 138//317
f 136//318 170//318 169//318
f 136//319 169//319 143//319
f 143//320 168//320 144//320
f 138//321 177//321 158//321
f 138//322 158//322 137//322
f 137//323 157//323 156//323
f 137//324 156//324 155//324
f 137//325 155//325 154//325
f 137//326 154//326 139//326
f 145//327 166//327 146//327
f 146//328 165//328 147//328
f 147//329 164//329 148//329
