# Blender v2.79 (sub 0) OBJ File: ''
# www.blender.org
mtllib m724.mtl
o m724
v 0.296589 0.010789 -0.027403
v 0.298559 0.010789 0.005877
v 0.027288 0.010789 0.006753
v 0.026464 0.010789 0.006674
v 0.024190 0.010789 0.006546
v 0.020757 0.010789 0.006535
v 0.016460 0.010789 0.006805
v 0.011591 0.006809 0.007521
v 0.006442 0.006697 0.008848
v 0.001309 0.006518 0.010949
v -0.003518 0.006260 0.013991
v -0.007743 0.005909 0.018138
v -0.013271 0.005233 0.026104
v -0.017627 0.004524 0.034466
v -0.020951 0.003811 0.042868
v -0.023382 0.003125 0.050955
v -0.025059 0.002496 0.058369
v -0.026122 0.001955 0.064756
v -0.026708 0.001531 0.069758
v -0.026958 0.001254 0.073021
v -0.027010 0.001155 0.074187
v -0.035742 0.001093 0.074919
v -0.059939 0.000947 0.076634
v -0.096599 0.000780 0.078608
v -0.142725 0.000652 0.080119
v -0.195317 0.000624 0.080443
v -0.251375 0.000759 0.078859
v -0.307901 0.001116 0.074644
v -0.361894 0.001758 0.067074
v -0.410355 0.002746 0.055428
v -0.435441 0.003557 0.045870
v -0.459181 0.004580 0.033805
v -0.481147 0.005734 0.020202
v -0.500908 0.006935 0.006031
v -0.518039 0.008103 -0.007738
v -0.532108 0.009155 -0.020136
v -0.542689 0.010008 -0.030192
v -0.549352 0.010580 -0.036936
v -0.551668 0.010789 -0.039400
v 0.043489 0.010789 -0.038788
v 0.042614 0.010789 -0.023900
v 0.296589 -0.011612 -0.027403
v 0.298559 -0.011612 0.005877
v 0.027288 -0.011612 0.006753
v 0.026464 -0.011612 0.006674
v 0.024190 -0.011612 0.006546
v 0.020757 -0.011612 0.006535
v 0.016460 -0.011612 0.006805
v 0.011591 -0.007632 0.007521
v 0.006442 -0.007520 0.008848
v 0.001309 -0.007342 0.010949
v -0.003518 -0.007084 0.013991
v -0.007743 -0.006732 0.018138
v -0.013271 -0.006056 0.026104
v -0.017627 -0.005347 0.034466
v -0.020951 -0.004635 0.042868
v -0.023382 -0.003949 0.050955
v -0.025059 -0.003320 0.058369
v -0.026122 -0.002778 0.064756
v -0.026708 -0.002354 0.069758
v -0.026958 -0.002077 0.073021
v -0.027010 -0.001978 0.074187
v -0.035742 -0.001916 0.074919
v -0.059939 -0.001771 0.076634
v -0.096599 -0.001603 0.078608
v -0.142725 -0.001475 0.080119
v -0.195317 -0.001448 0.080443
v -0.251375 -0.001582 0.078859
v -0.307901 -0.001940 0.074644
v -0.361894 -0.002582 0.067074
v -0.410355 -0.003569 0.055428
v -0.435441 -0.004380 0.045870
v -0.459181 -0.005403 0.033805
v -0.481147 -0.006557 0.020202
v -0.500908 -0.007759 0.006031
v -0.518039 -0.008927 -0.007738
v -0.532108 -0.009978 -0.020136
v -0.542689 -0.010831 -0.030192
v -0.549352 -0.011403 -0.036936
v -0.551668 -0.011612 -0.039400
v 0.043489 -0.011612 -0.038788
v 0.042614 -0.011612 -0.023900
v 0.017939 0.041349 0.013191
v 0.018648 0.041349 0.011165
v 0.020568 0.041349 0.005741
v 0.023381 0.041349 -0.002102
v 0.026774 0.041349 -0.011384
v 0.030430 0.041349 -0.021125
v 0.034034 0.041349 -0.030345
v 0.037272 0.041349 -0.038065
v 0.039828 0.041349 -0.043306
v 0.041386 0.041349 -0.045086
v 0.043971 0.041349 -0.044042
v 0.046619 0.041349 -0.042480
v 0.049232 0.041349 -0.040573
v 0.051712 0.041349 -0.038490
v 0.053962 0.041349 -0.036403
v 0.055882 0.041349 -0.034483
v 0.057375 0.041349 -0.032899
v 0.058343 0.041349 -0.031824
v 0.058687 0.041349 -0.031427
v 0.063657 0.041349 -0.032311
v 0.077898 0.041349 -0.034610
v 0.100405 0.041349 -0.037797
v 0.130174 0.041349 -0.041343
v 0.166201 0.041349 -0.044722
v 0.207482 0.041349 -0.047404
v 0.253011 0.041349 -0.048863
v 0.301787 0.041349 -0.048569
v 0.352803 0.041349 -0.045997
v 0.362802 0.041349 -0.044699
v 0.371485 0.041349 -0.042454
v 0.378888 0.041349 -0.039329
v 0.385043 0.041349 -0.035392
v 0.389987 0.041349 -0.030713
v 0.393753 0.041349 -0.025359
v 0.396376 0.041349 -0.019399
v 0.397891 0.041349 -0.012900
v 0.398332 0.041349 -0.005931
v 0.396674 0.041349 0.000923
v 0.392370 0.041349 0.007316
v 0.386181 0.041349 0.013155
v 0.378864 0.041349 0.018347
v 0.371176 0.041349 0.022802
v 0.363876 0.041349 0.026427
v 0.357725 0.041349 0.029130
v 0.353477 0.041349 0.030819
v 0.351893 0.041349 0.031403
v 0.351617 0.041349 0.031035
v 0.350811 0.041349 0.030054
v 0.349503 0.041349 0.028643
v 0.347722 0.041349 0.026984
v 0.345500 0.041349 0.025261
v 0.342864 0.041349 0.023657
v 0.339844 0.041349 0.022354
v 0.336469 0.041349 0.021537
v 0.332770 0.041349 0.021386
v 0.315292 0.041349 0.022995
v 0.301855 0.041349 0.025164
v 0.291290 0.041349 0.027698
v 0.282430 0.041349 0.030401
v 0.274107 0.041349 0.033077
v 0.265153 0.041349 0.035530
v 0.254399 0.041349 0.037566
v 0.240677 0.041349 0.038987
v 0.222818 0.041349 0.039598
v 0.198149 0.041349 0.039216
v 0.179155 0.041349 0.037859
v 0.164225 0.041349 0.035789
v 0.151752 0.041349 0.033272
v 0.140123 0.041349 0.030571
v 0.127728 0.041349 0.027950
v 0.112956 0.041349 0.025673
v 0.094197 0.041349 0.024004
v 0.069842 0.041349 0.023207
v 0.064260 0.041349 0.023753
v 0.059921 0.041349 0.025305
v 0.056510 0.041349 0.027546
v 0.053714 0.041349 0.030161
v 0.051219 0.041349 0.032834
v 0.048711 0.041349 0.035247
v 0.045876 0.041349 0.037087
v 0.042401 0.041349 0.038035
v 0.037971 0.041349 0.037777
v 0.033701 0.041349 0.036242
v 0.029956 0.041349 0.033615
v 0.026731 0.041349 0.030236
v 0.024018 0.041349 0.026444
v 0.021813 0.041349 0.022579
v 0.020109 0.041349 0.018982
v 0.018899 0.041349 0.015991
v 0.018178 0.041349 0.013948
v 0.017939 -0.040307 0.013191
v 0.018648 -0.040307 0.011165
v 0.020568 -0.040307 0.005741
v 0.023381 -0.040307 -0.002102
v 0.026774 -0.040307 -0.011384
v 0.030430 -0.040307 -0.021125
v 0.034034 -0.040307 -0.030345
v 0.037272 -0.040307 -0.038065
v 0.039828 -0.040307 -0.043306
v 0.041386 -0.040307 -0.045086
v 0.043971 -0.040307 -0.044042
v 0.046619 -0.040307 -0.042480
v 0.049232 -0.040307 -0.040573
v 0.051712 -0.040307 -0.038490
v 0.053962 -0.040307 -0.036403
v 0.055882 -0.040307 -0.034483
v 0.057375 -0.040307 -0.032899
v 0.058343 -0.040307 -0.031824
v 0.058687 -0.040307 -0.031427
v 0.063657 -0.040307 -0.032311
v 0.077898 -0.040307 -0.034610
v 0.100405 -0.040307 -0.037797
v 0.130174 -0.040307 -0.041343
v 0.166201 -0.040307 -0.044722
v 0.207482 -0.040307 -0.047404
v 0.253011 -0.040307 -0.048863
v 0.301787 -0.040307 -0.048569
v 0.352803 -0.040307 -0.045997
v 0.362802 -0.040307 -0.044699
v 0.371485 -0.040307 -0.042454
v 0.378888 -0.040307 -0.039329
v 0.385043 -0.040307 -0.035392
v 0.389987 -0.040307 -0.030713
v 0.393753 -0.040307 -0.025359
v 0.396376 -0.040307 -0.019399
v 0.397891 -0.040307 -0.012900
v 0.398332 -0.040307 -0.005931
v 0.396674 -0.040307 0.000923
v 0.392370 -0.040307 0.007316
v 0.386181 -0.040307 0.013155
v 0.378864 -0.040307 0.018347
v 0.371176 -0.040307 0.022802
v 0.363876 -0.040307 0.026427
v 0.357725 -0.040307 0.029130
v 0.353477 -0.040307 0.030819
v 0.351893 -0.040307 0.031403
v 0.351617 -0.040307 0.031035
v 0.350811 -0.040307 0.030054
v 0.349503 -0.040307 0.028643
v 0.347722 -0.040307 0.026984
v 0.345500 -0.040307 0.025261
v 0.342864 -0.040307 0.023657
v 0.339844 -0.040307 0.022354
v 0.336469 -0.040307 0.021537
v 0.332770 -0.040307 0.021386
v 0.315292 -0.040307 0.022995
v 0.301855 -0.040307 0.025164
v 0.291290 -0.040307 0.027698
v 0.282430 -0.040307 0.030401
v 0.274107 -0.040307 0.033077
v 0.265153 -0.040307 0.035530
v 0.254399 -0.040307 0.037566
v 0.240677 -0.040307 0.038987
v 0.222818 -0.040307 0.039598
v 0.198149 -0.040307 0.039216
v 0.179155 -0.040307 0.037859
v 0.164225 -0.040307 0.035789
v 0.151752 -0.040307 0.033272
v 0.140123 -0.040307 0.030571
v 0.127728 -0.040307 0.027950
v 0.112956 -0.040307 0.025673
v 0.094197 -0.040307 0.024004
v 0.069842 -0.040307 0.023207
v 0.064260 -0.040307 0.023753
v 0.059921 -0.040307 0.025305
v 0.056510 -0.040307 0.027546
v 0.053714 -0.040307 0.030161
v 0.051219 -0.040307 0.032834
v 0.048711 -0.040307 0.035247
v 0.045876 -0.040307 0.037087
v 0.042401 -0.040307 0.038035
v 0.037971 -0.040307 0.037777
v 0.033701 -0.040307 0.036242
v 0.029956 -0.040307 0.033615
v 0.026731 -0.040307 0.030236
v 0.024018 -0.040307 0.026444
v 0.021813 -0.040307 0.022579
v 0.020109 -0.040307 0.018982
v 0.018899 -0.040307 0.015991
v 0.018178 -0.040307 0.013948
vn -0.0001 0.9964 0.0846
vn -0.0001 0.9964 0.0847
vn -0.0001 0.9964 0.0848
vn -0.0000 0.9964 0.0848
vn -0.0000 0.9964 0.0849
vn 0.0000 0.9964 0.0850
vn -0.0749 0.9972 -0.0044
vn 0.0000 1.0000 0.0000
vn 0.0000 0.9964 0.0846
vn -0.0000 0.9964 0.0845
vn -0.5902 0.6316 -0.5027
vn 0.0143 0.9901 0.1395
vn 0.0296 0.9873 0.1561
vn 0.1470 0.9451 0.2919
vn 0.0912 0.9696 0.2269
vn 0.9983 0.0000 -0.0591
vn 0.0032 0.0000 1.0000
vn -0.0956 0.0000 0.9954
vn -0.0559 0.0000 0.9984
vn -0.0032 0.0000 1.0000
vn 0.0627 0.0000 0.9980
vn 0.1455 0.0000 0.9894
vn 0.2495 0.0000 0.9684
vn 0.3789 0.0000 0.9254
vn 0.5331 0.0000 0.8460
vn 0.7005 0.0000 0.7137
vn 0.8216 0.0000 0.5701
vn 0.8869 0.0000 0.4620
vn 0.9299 0.0000 0.3679
vn 0.9577 0.0000 0.2879
vn 0.9754 0.0000 0.2206
vn 0.9864 0.0000 0.1642
vn 0.9932 0.0000 0.1163
vn 0.9971 0.0000 0.0764
vn 0.9990 0.0000 0.0445
vn 0.0835 0.0000 0.9965
vn 0.0707 0.0000 0.9975
vn 0.0538 0.0000 0.9986
vn 0.0327 0.0000 0.9995
vn 0.0062 0.0000 1.0000
vn -0.0282 0.0000 0.9996
vn -0.0744 0.0000 0.9972
vn -0.1388 0.0000 0.9903
vn -0.2337 0.0000 0.9723
vn -0.3560 0.0000 0.9345
vn -0.4531 0.0000 0.8915
vn -0.5265 0.0000 0.8502
vn -0.5827 0.0000 0.8127
vn -0.6265 0.0000 0.7794
vn -0.6611 0.0000 0.7503
vn -0.6889 0.0000 0.7249
vn -0.7114 0.0000 0.7028
vn -0.7286 0.0000 0.6850
vn 0.0010 0.0000 -1.0000
vn 0.9983 0.0000 0.0587
vn -0.0138 0.0000 -0.9999
vn -0.0001 -0.9964 0.0846
vn -0.0001 -0.9964 0.0847
vn -0.0001 -0.9964 0.0848
vn -0.0000 -0.9964 0.0848
vn -0.0000 -0.9964 0.0849
vn 0.0000 -0.9964 0.0850
vn -0.0749 -0.9972 -0.0044
vn 0.0000 -1.0000 -0.0000
vn 0.0000 -0.9964 0.0846
vn 0.0000 -0.9964 0.0845
vn -0.5902 -0.6316 -0.5027
vn 0.0143 -0.9901 0.1396
vn 0.0296 -0.9873 0.1561
vn 0.1470 -0.9451 0.2919
vn 0.0911 -0.9697 0.2268
vn -0.9439 -0.0000 -0.3303
vn -0.9439 0.0000 -0.3304
vn -0.9427 0.0000 -0.3337
vn -0.9413 0.0000 -0.3376
vn -0.9392 0.0000 -0.3433
vn -0.9362 0.0000 -0.3514
vn -0.9314 0.0000 -0.3641
vn -0.9222 0.0000 -0.3868
vn -0.8988 0.0000 -0.4383
vn -0.7525 0.0000 -0.6586
vn 0.3745 0.0000 -0.9272
vn 0.5081 0.0000 -0.8613
vn 0.5895 0.0000 -0.8078
vn 0.6432 0.0000 -0.7657
vn 0.6800 0.0000 -0.7332
vn 0.7071 0.0000 -0.7071
vn 0.7277 0.0000 -0.6859
vn 0.7431 0.0000 -0.6692
vn 0.7558 0.0000 -0.6548
vn -0.1751 0.0000 -0.9845
vn -0.1594 0.0000 -0.9872
vn -0.1402 0.0000 -0.9901
vn -0.1183 0.0000 -0.9930
vn -0.0934 0.0000 -0.9956
vn -0.0648 0.0000 -0.9979
vn -0.0320 0.0000 -0.9995
vn 0.0060 0.0000 -1.0000
vn 0.0504 0.0000 -0.9987
vn 0.1287 0.0000 -0.9917
vn 0.2503 0.0000 -0.9682
vn 0.3889 0.0000 -0.9213
vn 0.5388 0.0000 -0.8424
vn 0.6874 0.0000 -0.7263
vn 0.8179 0.0000 -0.5753
vn 0.9153 0.0000 -0.4028
vn 0.9739 0.0000 -0.2270
vn 0.9980 0.0000 -0.0632
vn 0.9720 0.0000 0.2351
vn 0.8295 0.0000 0.5585
vn 0.6862 0.0000 0.7274
vn 0.5787 0.0000 0.8155
vn 0.5014 0.0000 0.8652
vn 0.4447 0.0000 0.8957
vn 0.4023 0.0000 0.9155
vn 0.3695 0.0000 0.9292
vn 0.3457 0.0000 0.9384
vn -0.7997 0.0000 0.6004
vn -0.7727 0.0000 0.6348
vn -0.7334 0.0000 0.6798
vn -0.6815 0.0000 0.7318
vn -0.6128 0.0000 0.7903
vn -0.5199 0.0000 0.8542
vn -0.3960 0.0000 0.9182
vn -0.2355 0.0000 0.9719
vn -0.0406 0.0000 0.9992
vn 0.0916 0.0000 0.9958
vn 0.1594 0.0000 0.9872
vn 0.2332 0.0000 0.9724
vn 0.2918 0.0000 0.9565
vn 0.3061 0.0000 0.9520
vn 0.2643 0.0000 0.9644
vn 0.1860 0.0000 0.9826
vn 0.1030 0.0000 0.9947
vn 0.0342 0.0000 0.9994
vn -0.0155 0.0000 0.9999
vn -0.0713 0.0000 0.9975
vn -0.1373 0.0000 0.9905
vn -0.1978 0.0000 0.9802
vn -0.2262 0.0000 0.9741
vn -0.2069 0.0000 0.9784
vn -0.1523 0.0000 0.9883
vn -0.0886 0.0000 0.9961
vn -0.0327 0.0000 0.9995
vn 0.0974 0.0000 0.9952
vn 0.0973 0.0000 0.9953
vn 0.3367 0.0000 0.9416
vn 0.5491 0.0000 0.8357
vn 0.6831 0.0000 0.7304
vn 0.7309 0.0000 0.6824
vn 0.6934 0.0000 0.7205
vn 0.5442 0.0000 0.8389
vn 0.2633 0.0000 0.9647
vn -0.0582 0.0000 0.9983
vn -0.3382 0.0000 0.9411
vn -0.5743 0.0000 0.8187
vn -0.7234 0.0000 0.6904
vn -0.8133 0.0000 0.5819
vn -0.8686 0.0000 0.4956
vn -0.9037 0.0000 0.4281
vn -0.9270 0.0000 0.3751
vn -0.9430 0.0000 0.3327
vn -0.9536 0.0000 0.3012
usemtl None
s off
f 40//1 39//1 38//1
f 40//1 38//1 37//1
f 40//1 37//1 36//1
f 40//1 36//1 35//1
f 40//1 35//1 34//1
f 40//1 34//1 33//1
f 40//1 33//1 32//1
f 40//2 32//2 31//2
f 40//2 31//2 30//2
f 40//3 30//3 29//3
f 40//4 29//4 28//4
f 40//5 28//5 27//5
f 40//5 27//5 26//5
f 40//5 26//5 25//5
f 40//6 25//6 24//6
f 41//7 40//7 24//7
f 3//8 2//8 1//8
f 3//8 1//8 41//8
f 22//9 21//9 20//9
f 22//10 20//10 19//10
f 4//8 3//8 41//8
f 5//8 4//8 41//8
f 6//8 5//8 41//8
f 22//10 19//10 18//10
f 7//8 6//8 41//8
f 23//10 22//10 18//10
f 23//10 18//10 17//10
f 23//10 17//10 16//10
f 8//11 7//11 41//11
f 23//10 16//10 15//10
f 24//10 23//10 15//10
f 24//10 15//10 14//10
f 24//10 14//10 13//10
f 9//12 8//12 41//12
f 24//10 13//10 12//10
f 10//13 9//13 41//13
f 24//10 12//10 11//10
f 41//14 24//14 11//14
f 10//15 41//15 11//15
f 1//16 2//16 43//16
f 1//16 43//16 42//16
f 2//17 3//17 44//17
f 2//17 44//17 43//17
f 3//18 4//18 45//18
f 3//18 45//18 44//18
f 4//19 5//19 46//19
f 4//19 46//19 45//19
f 5//20 6//20 47//20
f 5//20 47//20 46//20
f 6//21 7//21 48//21
f 6//21 48//21 47//21
f 7//22 8//22 49//22
f 7//22 49//22 48//22
f 8//23 9//23 50//23
f 8//23 50//23 49//23
f 9//24 10//24 51//24
f 9//24 51//24 50//24
f 10//25 11//25 52//25
f 10//25 52//25 51//25
f 11//26 12//26 53//26
f 11//26 53//26 52//26
f 12//27 13//27 54//27
f 12//27 54//27 53//27
f 13//28 14//28 55//28
f 13//28 55//28 54//28
f 14//29 15//29 56//29
f 14//29 56//29 55//29
f 15//30 16//30 57//30
f 15//30 57//30 56//30
f 16//31 17//31 58//31
f 16//31 58//31 57//31
f 17//32 18//32 59//32
f 17//32 59//32 58//32
f 18//33 19//33 60//33
f 18//33 60//33 59//33
f 19//34 20//34 61//34
f 19//34 61//34 60//34
f 20//35 21//35 62//35
f 20//35 62//35 61//35
f 21//36 22//36 63//36
f 21//36 63//36 62//36
f 22//37 23//37 64//37
f 22//37 64//37 63//37
f 23//38 24//38 65//38
f 23//38 65//38 64//38
f 24//39 25//39 66//39
f 24//39 66//39 65//39
f 25//40 26//40 67//40
f 25//40 67//40 66//40
f 26//41 27//41 68//41
f 26//41 68//41 67//41
f 27//42 28//42 69//42
f 27//42 69//42 68//42
f 28//43 29//43 70//43
f 28//43 70//43 69//43
f 29//44 30//44 71//44
f 29//44 71//44 70//44
f 30//45 31//45 72//45
f 30//45 72//45 71//45
f 31//46 32//46 73//46
f 31//46 73//46 72//46
f 32//47 33//47 74//47
f 32//47 74//47 73//47
f 33//48 34//48 75//48
f 33//48 75//48 74//48
f 34//49 35//49 76//49
f 34//49 76//49 75//49
f 35//50 36//50 77//50
f 35//50 77//50 76//50
f 36//51 37//51 78//51
f 36//51 78//51 77//51
f 37//52 38//52 79//52
f 37//52 79//52 78//52
f 38//53 39//53 80//53
f 38//53 80//53 79//53
f 39//54 40//54 81//54
f 39//54 81//54 80//54
f 40//55 41//55 82//55
f 40//55 82//55 81//55
f 41//56 1//56 42//56
f 41//56 42//56 82//56
f 79//57 80//57 81//57
f 78//57 79//57 81//57
f 77//57 78//57 81//57
f 76//57 77//57 81//57
f 75//57 76//57 81//57
f 74//57 75//57 81//57
f 73//57 74//57 81//57
f 72//58 73//58 81//58
f 71//58 72//58 81//58
f 70//59 71//59 81//59
f 69//60 70//60 81//60
f 68//61 69//61 81//61
f 67//61 68//61 81//61
f 66//61 67//61 81//61
f 65//62 66//62 81//62
f 65//63 81//63 82//63
f 42//64 43//64 44//64
f 82//64 42//64 44//64
f 61//65 62//65 63//65
f 60//66 61//66 63//66
f 82//64 44//64 45//64
f 82//64 45//64 46//64
f 82//64 46//64 47//64
f 59//66 60//66 63//66
f 82//64 47//64 48//64
f 59//66 63//66 64//66
f 58//66 59//66 64//66
f 57//66 58//66 64//66
f 82//67 48//67 49//67
f 56//66 57//66 64//66
f 56//66 64//66 65//66
f 55//66 56//66 65//66
f 54//66 55//66 65//66
f 82//68 49//68 50//68
f 53//66 54//66 65//66
f 82//69 50//69 51//69
f 52//66 53//66 65//66
f 52//70 65//70 82//70
f 52//71 82//71 51//71
f 129//8 128//8 127//8
f 93//8 92//8 91//8
f 130//8 129//8 127//8
f 93//8 91//8 90//8
f 94//8 93//8 90//8
f 95//8 94//8 90//8
f 95//8 90//8 89//8
f 96//8 95//8 89//8
f 97//8 96//8 89//8
f 98//8 97//8 89//8
f 98//8 89//8 88//8
f 99//8 98//8 88//8
f 100//8 99//8 88//8
f 101//8 100//8 88//8
f 101//8 88//8 87//8
f 101//8 87//8 86//8
f 130//8 127//8 126//8
f 131//8 130//8 126//8
f 132//8 131//8 126//8
f 84//8 83//8 172//8
f 132//8 126//8 125//8
f 133//8 132//8 125//8
f 101//8 86//8 85//8
f 102//8 101//8 85//8
f 103//8 102//8 85//8
f 103//8 85//8 84//8
f 103//8 84//8 172//8
f 103//8 172//8 171//8
f 103//8 171//8 170//8
f 103//8 170//8 169//8
f 103//8 169//8 168//8
f 103//8 168//8 167//8
f 103//8 167//8 166//8
f 103//8 166//8 165//8
f 103//8 165//8 164//8
f 103//8 164//8 163//8
f 103//8 163//8 162//8
f 103//8 162//8 161//8
f 103//8 161//8 160//8
f 103//8 160//8 159//8
f 103//8 159//8 158//8
f 103//8 158//8 157//8
f 103//8 157//8 156//8
f 103//8 156//8 155//8
f 103//8 155//8 154//8
f 104//8 103//8 154//8
f 104//8 154//8 153//8
f 105//8 104//8 153//8
f 105//8 153//8 152//8
f 106//8 105//8 152//8
f 106//8 152//8 151//8
f 106//8 151//8 150//8
f 106//8 150//8 149//8
f 107//8 106//8 149//8
f 107//8 149//8 148//8
f 107//8 148//8 147//8
f 107//8 147//8 146//8
f 108//8 107//8 146//8
f 108//8 146//8 145//8
f 108//8 145//8 144//8
f 108//8 144//8 143//8
f 109//8 108//8 143//8
f 109//8 143//8 142//8
f 109//8 142//8 141//8
f 109//8 141//8 140//8
f 109//8 140//8 139//8
f 109//8 139//8 138//8
f 110//8 109//8 138//8
f 110//8 138//8 137//8
f 110//8 137//8 136//8
f 110//8 136//8 135//8
f 111//8 110//8 135//8
f 112//8 111//8 135//8
f 112//8 135//8 134//8
f 113//8 112//8 134//8
f 114//8 113//8 134//8
f 115//8 114//8 134//8
f 116//8 115//8 134//8
f 117//8 116//8 134//8
f 118//8 117//8 134//8
f 119//8 118//8 134//8
f 120//8 119//8 134//8
f 121//8 120//8 134//8
f 122//8 121//8 134//8
f 123//8 122//8 134//8
f 124//8 123//8 134//8
f 125//8 124//8 134//8
f 133//8 125//8 134//8
f 83//72 84//72 174//72
f 83//73 174//73 173//73
f 84//74 85//74 175//74
f 84//74 175//74 174//74
f 85//75 86//75 176//75
f 85//75 176//75 175//75
f 86//76 87//76 177//76
f 86//76 177//76 176//76
f 87//77 88//77 178//77
f 87//77 178//77 177//77
f 88//78 89//78 179//78
f 88//78 179//78 178//78
f 89//79 90//79 180//79
f 89//79 180//79 179//79
f 90//80 91//80 181//80
f 90//80 181//80 180//80
f 91//81 92//81 182//81
f 91//81 182//81 181//81
f 92//82 93//82 183//82
f 92//82 183//82 182//82
f 93//83 94//83 184//83
f 93//83 184//83 183//83
f 94//84 95//84 185//84
f 94//84 185//84 184//84
f 95//85 96//85 186//85
f 95//85 186//85 185//85
f 96//86 97//86 187//86
f 96//86 187//86 186//86
f 97//87 98//87 188//87
f 97//87 188//87 187//87
f 98//88 99//88 189//88
f 98//88 189//88 188//88
f 99//89 100//89 190//89
f 99//89 190//89 189//89
f 100//90 101//90 191//90
f 100//90 191//90 190//90
f 101//91 102//91 192//91
f 101//91 192//91 191//91
f 102//92 103//92 193//92
f 102//92 193//92 192//92
f 103//93 104//93 194//93
f 103//93 194//93 193//93
f 104//94 105//94 195//94
f 104//94 195//94 194//94
f 105//95 106//95 196//95
f 105//95 196//95 195//95
f 106//96 107//96 197//96
f 106//96 197//96 196//96
f 107//97 108//97 198//97
f 107//97 198//97 197//97
f 108//98 109//98 199//98
f 108//98 199//98 198//98
f 109//99 110//99 200//99
f 109//99 200//99 199//99
f 110//100 111//100 201//100
f 110//100 201//100 200//100
f 111//101 112//101 202//101
f 111//101 202//101 201//101
f 112//102 113//102 203//102
f 112//102 203//102 202//102
f 113//103 114//103 204//103
f 113//103 204//103 203//103
f 114//104 115//104 205//104
f 114//104 205//104 204//104
f 115//105 116//105 206//105
f 115//105 206//105 205//105
f 116//106 117//106 207//106
f 116//106 207//106 206//106
f 117//107 118//107 208//107
f 117//107 208//107 207//107
f 118//108 119//108 209//108
f 118//108 209//108 208//108
f 119//109 120//109 210//109
f 119//109 210//109 209//109
f 120//110 121//110 211//110
f 120//110 211//110 210//110
f 121//111 122//111 212//111
f 121//111 212//111 211//111
f 122//112 123//112 213//112
f 122//112 213//112 212//112
f 123//113 124//113 214//113
f 123//113 214//113 213//113
f 124//114 125//114 215//114
f 124//114 215//114 214//114
f 125//115 126//115 216//115
f 125//115 216//115 215//115
f 126//116 127//116 217//116
f 126//116 217//116 216//116
f 127//117 128//117 218//117
f 127//117 218//117 217//117
f 128//118 129//118 219//118
f 128//118 219//118 218//118
f 129//119 130//119 220//119
f 129//119 220//119 219//119
f 130//120 131//120 221//120
f 130//120 221//120 220//120
f 131//121 132//121 222//121
f 131//121 222//121 221//121
f 132//122 133//122 223//122
f 132//122 223//122 222//122
f 133//123 134//123 224//123
f 133//123 224//123 223//123
f 134//124 135//124 225//124
f 134//124 225//124 224//124
f 135//125 136//125 226//125
f 135//125 226//125 225//125
f 136//126 137//126 227//126
f 136//126 227//126 226//126
f 137//127 138//127 228//127
f 137//127 228//127 227//127
f 138//128 139//128 229//128
f 138//128 229//128 228//128
f 139//129 140//129 230//129
f 139//129 230//129 229//129
f 140//130 141//130 231//130
f 140//130 231//130 230//130
f 141//131 142//131 232//131
f 141//131 232//131 231//131
f 142//132 143//132 233//132
f 142//132 233//132 232//132
f 143//133 144//133 234//133
f 143//133 234//133 233//133
f 144//134 145//134 235//134
f 144//134 235//134 234//134
f 145//135 146//135 236//135
f 145//135 236//135 235//135
f 146//136 147//136 237//136
f 146//136 237//136 236//136
f 147//137 148//137 238//137
f 147//137 238//137 237//137
f 148//138 149//138 239//138
f 148//138 239//138 238//138
f 149//139 150//139 240//139
f 149//139 240//139 239//139
f 150//140 151//140 241//140
f 150//140 241//140 240//140
f 151//141 152//141 242//141
f 151//141 242//141 241//141
f 152//142 153//142 243//142
f 152//142 243//142 242//142
f 153//143 154//143 244//143
f 153//143 244//143 243//143
f 154//144 155//144 245//144
f 154//144 245//144 244//144
f 155//145 156//145 246//145
f 155//146 246//146 245//146
f 156//147 157//147 247//147
f 156//147 247//147 246//147
f 157//148 158//148 248//148
f 157//148 248//148 247//148
f 158//149 159//149 249//149
f 158//149 249//149 248//149
f 159//150 160//150 250//150
f 159//150 250//150 249//150
f 160//151 161//151 251//151
f 160//151 251//151 250//151
f 161//152 162//152 252//152
f 161//152 252//152 251//152
f 162//153 163//153 253//153
f 162//153 253//153 252//153
f 163//154 164//154 254//154
f 163//154 254//154 253//154
f 164//155 165//155 255//155
f 164//155 255//155 254//155
f 165//156 166//156 256//156
f 165//156 256//156 255//156
f 166//157 167//157 257//157
f 166//157 257//157 256//157
f 167//158 168//158 258//158
f 167//158 258//158 257//158
f 168//159 169//159 259//159
f 168//159 259//159 258//159
f 169//160 170//160 260//160
f 169//160 260//160 259//160
f 170//161 171//161 261//161
f 170//161 261//161 260//161
f 171//162 172//162 262//162
f 171//162 262//162 261//162
f 172//163 83//163 173//163
f 172//163 173//163 262//163
f 217//64 218//64 219//64
f 181//64 182//64 183//64
f 217//64 219//64 220//64
f 180//64 181//64 183//64
f 180//64 183//64 184//64
f 180//64 184//64 185//64
f 179//64 180//64 185//64
f 179//64 185//64 186//64
f 179//64 186//64 187//64
f 179//64 187//64 188//64
f 178//64 179//64 188//64
f 178//64 188//64 189//64
f 178//64 189//64 190//64
f 178//64 190//64 191//64
f 177//64 178//64 191//64
f 176//64 177//64 191//64
f 216//64 217//64 220//64
f 216//64 220//64 221//64
f 216//64 221//64 222//64
f 262//64 173//64 174//64
f 215//64 216//64 222//64
f 215//64 222//64 223//64
f 175//64 176//64 191//64
f 175//64 191//64 192//64
f 175//64 192//64 193//64
f 174//64 175//64 193//64
f 262//64 174//64 193//64
f 261//64 262//64 193//64
f 260//64 261//64 193//64
f 259//64 260//64 193//64
f 258//64 259//64 193//64
f 257//64 258//64 193//64
f 256//64 257//64 193//64
f 255//64 256//64 193//64
f 254//64 255//64 193//64
f 253//64 254//64 193//64
f 252//64 253//64 193//64
f 251//64 252//64 193//64
f 250//64 251//64 193//64
f 249//64 250//64 193//64
f 248//64 249//64 193//64
f 247//64 248//64 193//64
f 246//64 247//64 193//64
f 245//64 246//64 193//64
f 244//64 245//64 193//64
f 244//64 193//64 194//64
f 243//64 244//64 194//64
f 243//64 194//64 195//64
f 242//64 243//64 195//64
f 242//64 195//64 196//64
f 241//64 242//64 196//64
f 240//64 241//64 196//64
f 239//64 240//64 196//64
f 239//64 196//64 197//64
f 238//64 239//64 197//64
f 237//64 238//64 197//64
f 236//64 237//64 197//64
f 236//64 197//64 198//64
f 235//64 236//64 198//64
f 234//64 235//64 198//64
f 233//64 234//64 198//64
f 233//64 198//64 199//64
f 232//64 233//64 199//64
f 231//64 232//64 199//64
f 230//64 231//64 199//64
f 229//64 230//64 199//64
f 228//64 229//64 199//64
f 228//64 199//64 200//64
f 227//64 228//64 200//64
f 226//64 227//64 200//64
f 225//64 226//64 200//64
f 225//64 200//64 201//64
f 225//64 201//64 202//64
f 224//64 225//64 202//64
f 224//64 202//64 203//64
f 224//64 203//64 204//64
f 224//64 204//64 205//64
f 224//64 205//64 206//64
f 224//64 206//64 207//64
f 224//64 207//64 208//64
f 224//64 208//64 209//64
f 224//64 209//64 210//64
f 224//64 210//64 211//64
f 224//64 211//64 212//64
f 224//64 212//64 213//64
f 224//64 213//64 214//64
f 224//64 214//64 215//64
f 224//64 215//64 223//64
