# Blender v2.79 (sub 0) OBJ File: ''
# www.blender.org
mtllib m74.mtl
o m74
v -0.003104 0.388596 -0.030085
v -0.029546 0.326941 -0.028356
v -0.006573 0.357375 -0.018687
v -0.012817 0.372515 -0.025427
v -0.037455 0.307096 -0.025914
v -0.005311 0.386524 -0.029500
v -0.002608 0.286014 -0.086580
v 0.001150 0.251407 -0.085878
v -0.004590 0.390083 -0.030085
v -0.001865 0.340031 -0.055855
v -0.004590 0.386614 -0.036032
v -0.003798 0.388299 -0.029887
v -0.049220 0.281610 -0.028202
v -0.015121 0.360544 -0.024157
v -0.007068 0.388596 -0.025130
v -0.010537 0.379180 -0.019679
v -0.044731 0.269660 -0.055855
v -0.054643 0.264209 -0.020174
v -0.042253 0.297412 -0.014723
v -0.024413 0.309305 -0.067748
v -0.009051 0.321199 0.001135
v -0.027386 0.322686 -0.048183
v -0.022431 0.234971 -0.081624
v -0.019953 0.304350 -0.028599
v -0.025900 0.305837 -0.026616
v -0.005582 0.380667 -0.034546
v -0.034324 0.311783 -0.030085
v -0.003599 0.314261 -0.023643
v 0.001356 0.311783 -0.019679
v -0.000936 0.368743 -0.014785
v -0.013015 0.316739 -0.021661
v -0.014006 0.314757 -0.023643
v -0.025900 0.308314 -0.027608
v -0.008555 0.363818 -0.014723
v -0.006077 0.364313 -0.012741
v -0.012024 0.351429 -0.015714
v 0.005321 0.316243 -0.021661
v 0.003603 0.389785 -0.030020
v -0.006077 0.383789 -0.028103
v 0.006087 0.388371 -0.030221
v 0.026465 0.310297 -0.021991
v 0.031204 0.324371 -0.027984
v 0.035550 0.308314 -0.022652
v 0.038028 0.306828 -0.024634
v 0.003339 0.390578 -0.031077
v 0.003339 0.391074 -0.030581
v 0.004330 0.334579 -0.066262
v 0.003339 0.392065 -0.026616
v 0.002843 0.384631 -0.017201
v 0.007303 0.390083 -0.030085
v 0.007303 0.391074 -0.026616
v 0.051391 0.282864 -0.029183
v 0.039515 0.313270 -0.029094
v 0.018206 0.372738 -0.025130
v 0.042984 0.305837 -0.025625
v 0.038524 0.312279 -0.028599
v 0.035550 0.319217 -0.029094
v 0.052400 0.277589 -0.010758
v 0.059338 0.253307 0.000640
v 0.031586 0.323181 -0.046711
v 0.043479 0.307323 -0.030085
v 0.011268 0.381658 -0.037519
v 0.034064 0.322190 -0.018687
v 0.019692 0.368278 -0.024634
v 0.020683 0.361340 -0.017201
v 0.019692 0.274616 -0.083111
v 0.022170 0.247855 -0.084598
v 0.004825 0.336066 -0.040492
v 0.006808 0.381658 -0.035537
v 0.016719 0.305341 -0.027608
v 0.040011 0.307075 -0.027236
v 0.023657 0.310297 -0.034050
v 0.013250 0.376207 -0.030085
v 0.038524 0.308314 -0.028103
v 0.038028 0.311783 -0.029590
v 0.012754 0.381163 -0.028103
v 0.015728 0.316739 -0.021661
v 0.016719 0.314261 -0.023643
v 0.029604 0.308810 -0.026121
v 0.009781 0.363322 -0.012741
v -0.018693 0.350644 -0.025006
v 0.025144 0.316243 -0.028599
v -0.023257 0.341040 -0.026616
v -0.018962 0.346969 -0.024634
v 0.008170 0.383640 -0.029218
v 0.002843 0.388596 -0.029590
v 0.074700 0.159645 0.036320
v 0.073213 0.160636 0.039789
v 0.059833 0.238440 0.024427
v 0.170248 0.113061 0.117373
v 0.168762 0.095717 0.117373
v 0.075196 0.157662 0.043754
v 0.075196 0.155184 0.045241
v 0.088080 0.150724 0.048214
v 0.074205 0.158653 0.037312
v 0.137637 0.184918 0.073044
v -0.068023 0.175007 0.041772
v -0.072648 0.161379 0.037229
v -0.068518 0.216139 0.013029
v -0.057616 0.238935 0.024427
v -0.159207 0.119504 0.123540
v -0.154127 0.108477 0.129239
v -0.147561 0.111533 0.123499
v -0.159207 0.134866 0.104213
v -0.141366 0.120495 0.104709
v -0.070501 0.155928 0.041276
v -0.114110 0.210192 0.047718
v -0.124517 0.132884 0.085382
v -0.073474 0.137344 -0.008281
v -0.053156 0.093239 0.079435
v 0.007303 0.119999 0.087859
v 0.007799 0.053098 -0.092527
v 0.071727 0.164105 0.041276
v 0.072718 0.160140 0.039294
v 0.074205 0.159149 0.034834
v 0.079160 0.079858 0.020462
v 0.070240 0.190865 -0.035041
v 0.054878 0.138831 0.065559
v 0.024152 0.240422 0.038798
v 0.004330 -0.502927 0.008073
v 0.006312 -0.514325 0.008816
v -0.000998 -0.521759 0.007330
v -0.014006 -0.461300 0.038798
v -0.059970 -0.540466 0.006463
v -0.068023 -0.547528 0.002622
v -0.052660 -0.536130 0.008073
v -0.068518 -0.547528 0.003613
v -0.082890 -0.555953 -0.002086
v -0.059103 -0.531670 0.012533
v -0.029369 -0.530679 0.006586
v -0.089828 -0.557935 -0.002829
v -0.079916 -0.518785 0.010055
v 0.027621 -0.440486 0.037312
v 0.007799 -0.497971 0.021453
v 0.012754 -0.520932 0.007082
v 0.065780 -0.534643 0.006586
v 0.103443 -0.554961 -0.002829
v 0.006741 -0.438008 0.006091
v 0.000861 -0.289834 -0.023643
v 0.006312 -0.308665 0.063040
v 0.027621 -0.341373 0.025418
v 0.025639 -0.135217 -0.051890
v -0.000130 -0.151075 -0.164879
v -0.004095 -0.129766 -0.068244
v -0.002608 -0.010830 -0.097978
v -0.001617 -0.144137 -0.167357
v -0.006573 -0.105483 -0.104916
v -0.009546 -0.098545 -0.083607
v -0.013015 -0.030653 -0.094013
v -0.053395 -0.077236 -0.027608
v 0.001852 -0.121341 -0.079147
v 0.000861 -0.148598 -0.153481
v 0.001852 -0.104492 -0.155959
v 0.000861 -0.122333 -0.099960
v 0.002843 -0.144137 -0.167357
v 0.012754 -0.125306 -0.066757
v 0.003339 -0.148102 -0.159924
v 0.010277 -0.098545 -0.083607
v 0.011763 -0.033626 -0.096987
v 0.006868 -0.068015 0.076973
v -0.029286 -0.068079 0.072854
v 0.032327 -0.068958 0.064389
vn 0.0881 -0.1114 0.9899
vn 0.1575 0.8745 -0.4588
vn 0.0711 0.0619 -0.9955
vn -0.0704 0.8258 0.5595
vn -0.5675 -0.0783 -0.8197
vn 0.5516 -0.1239 -0.8248
vn 0.0393 -0.4348 -0.8997
vn 0.0794 0.1851 0.9795
vn 0.1900 -0.3328 -0.9236
vn 0.5413 -0.1455 -0.8282
vn 0.2267 0.1353 -0.9645
vn 0.0152 -0.2867 -0.9579
vn 0.0648 -0.3135 -0.9474
vn -0.3290 0.9207 -0.2101
vn -0.2958 0.9455 0.1358
vn -0.1343 -0.1342 -0.9818
vn -0.9362 0.3290 0.1240
vn -0.9290 0.3595 -0.0872
vn -0.8849 0.3849 0.2623
vn -0.9313 0.3507 -0.0980
vn -0.4670 0.3230 -0.8232
vn -0.8945 0.4071 -0.1848
vn -0.7670 0.6372 -0.0759
vn -0.9018 0.1142 -0.4167
vn -0.8253 0.3039 -0.4759
vn -0.9379 0.3418 -0.0599
vn -0.6061 0.0730 -0.7920
vn -0.8691 0.3367 -0.3623
vn -0.5819 0.6273 -0.5175
vn -0.5640 0.2662 0.7817
vn -0.2957 0.3160 0.9015
vn -0.4046 0.3633 -0.8392
vn -0.9068 0.4208 -0.0246
vn -0.9022 0.3909 -0.1822
vn -0.9414 0.3369 -0.0172
vn -0.9377 0.3461 -0.0294
vn -0.9298 0.3547 -0.0984
vn -0.9378 0.3348 0.0922
vn -0.8963 0.3352 -0.2903
vn -0.9096 0.0972 -0.4039
vn 0.1115 -0.6092 0.7851
vn -0.0050 0.7928 -0.6094
vn 0.0687 0.8861 -0.4584
vn 0.6752 0.0595 0.7352
vn 0.4846 -0.7720 0.4113
vn 0.9202 -0.3197 0.2256
vn 0.3764 -0.2213 0.8996
vn 0.0612 0.3082 0.9494
vn 0.2111 0.5673 0.7960
vn 0.3842 -0.2751 0.8813
vn 0.8945 -0.3178 0.3143
vn -0.8775 0.3890 0.2805
vn -0.3936 0.5032 0.7694
vn -0.0586 0.3927 0.9178
vn 0.1596 -0.1712 0.9722
vn -0.0333 -0.6984 0.7150
vn -0.0181 -0.3808 -0.9245
vn 0.4366 0.8995 0.0166
vn -0.1378 -0.0667 -0.9882
vn -0.0259 -0.3717 -0.9280
vn -0.0965 -0.3700 -0.9240
vn -0.6345 0.1165 0.7641
vn -0.0725 0.0997 -0.9924
vn -0.0028 -0.0407 -0.9992
vn 0.0247 0.3951 0.9183
vn -0.4898 0.7630 0.4218
vn -0.0137 -0.2188 0.9757
vn -0.4442 -0.1390 0.8851
vn -0.5549 -0.4329 0.7104
vn -0.5830 -0.2250 0.7807
vn -0.1057 -0.3238 -0.9402
vn -0.4280 0.3106 0.8487
vn -0.1206 -0.1204 -0.9854
vn 0.0560 -0.2307 -0.9714
vn -0.0461 0.0465 -0.9979
vn -0.2626 -0.0136 -0.9648
vn -0.6874 -0.4583 -0.5634
vn -0.7063 -0.3878 -0.5922
vn -0.1431 -0.3466 -0.9270
vn -0.5853 -0.3659 -0.7236
vn -0.2653 -0.5067 -0.8203
vn -0.1921 -0.1434 -0.9708
vn -0.1147 -0.3563 -0.9273
vn -0.3644 -0.5315 -0.7646
vn -0.3667 0.5636 0.7402
vn -0.1728 0.7774 0.6048
vn -0.3110 0.4043 -0.8601
vn -0.5017 0.6068 -0.6165
vn -0.1352 0.9613 -0.2403
vn -0.0626 0.6089 0.7908
vn -0.0554 -0.0554 -0.9969
vn 0.0771 -0.3846 -0.9199
vn 0.0158 -0.3963 -0.9180
vn -0.0253 0.0970 -0.9950
vn 0.2633 0.9359 -0.2339
vn 0.2337 0.9349 -0.2671
vn 0.1356 0.6564 -0.7421
vn 0.1519 -0.0036 -0.9884
vn 0.1956 0.5567 0.8073
vn 0.1914 0.7654 0.6144
vn 0.2615 -0.1096 -0.9590
vn 0.1736 0.2956 0.9394
vn 0.2820 0.1880 0.9408
vn -0.3848 0.2367 0.8921
vn 0.8934 0.4027 0.1994
vn 0.8304 0.5537 -0.0623
vn 0.8888 0.4515 0.0786
vn 0.8314 0.5543 -0.0396
vn 0.8302 0.2032 -0.5191
vn 0.8264 0.5603 -0.0567
vn 0.7436 0.6635 -0.0825
vn 0.0367 0.3931 -0.9188
vn 0.9384 0.3160 -0.1400
vn 0.9079 0.3514 -0.2287
vn 0.8558 0.4974 -0.1421
vn 0.9512 0.3046 0.0488
vn 0.8872 0.4464 -0.1166
vn 0.8655 0.1470 -0.4789
vn 0.6384 0.3554 -0.6828
vn 0.8188 0.2604 0.5116
vn 0.5595 0.4778 0.6773
vn -0.0075 0.4200 0.9075
vn 0.2832 0.2169 0.9342
vn 0.6511 0.7297 -0.2089
vn 0.9681 0.2281 -0.1034
vn 0.4795 0.8617 -0.1660
vn 0.3073 0.3296 -0.8927
vn 0.7720 0.1063 -0.6266
vn 0.7042 -0.0231 -0.7096
vn 0.6486 0.3835 0.6574
vn 0.9504 0.3088 0.0364
vn 0.8777 0.4169 0.2363
vn 0.8188 0.2457 -0.5189
vn 0.6223 0.4766 0.6210
vn 0.7470 0.4813 0.4586
vn 0.9361 0.3139 0.1588
vn 0.9797 0.2005 0.0037
vn 0.8230 0.5053 0.2597
vn 0.3783 0.2706 -0.8853
vn 0.0667 0.0357 -0.9971
vn -0.0377 0.8112 0.5835
vn 0.0787 0.2955 0.9521
vn -0.0748 0.9965 0.0376
vn 0.2407 0.9318 0.2719
vn -0.4440 -0.2224 0.8680
vn -0.7581 -0.5576 0.3383
vn -0.6507 -0.6731 0.3514
vn -0.8114 -0.5698 0.1302
vn -0.2983 0.0206 0.9543
vn -0.2322 0.3550 0.9056
vn -0.3107 0.3366 0.8889
vn -0.3331 0.2386 0.9122
vn -0.6787 -0.0476 0.7329
vn -0.6701 -0.0513 0.7405
vn -0.8631 -0.1180 0.4910
vn -0.7855 -0.2980 0.5423
vn -0.1341 0.1897 0.9726
vn -0.1650 0.1345 0.9771
vn -0.4369 -0.2041 0.8761
vn 0.2020 0.2874 0.9362
vn -0.0192 -0.0757 -0.9969
vn 0.6309 0.5909 -0.5027
vn -0.0710 -0.2235 0.9721
vn 0.4888 -0.8259 -0.2810
vn 0.0000 -0.6246 0.7809
vn 0.1085 0.5978 0.7943
vn 0.0000 0.8479 0.5301
vn 0.2518 0.9557 -0.1527
vn 0.7420 0.5653 0.3604
vn 0.1454 -0.1190 -0.9822
vn -0.6531 0.3832 0.6532
vn -0.7981 0.2406 0.5525
vn 0.1697 -0.2185 -0.9610
vn -0.7900 0.2850 0.5429
vn 0.0211 0.1304 -0.9912
vn 0.3521 0.3723 -0.8587
vn 0.4225 -0.0750 -0.9033
vn 0.5045 0.5757 0.6435
vn -0.3797 -0.6657 0.6424
vn 0.4422 0.7089 0.5495
vn -0.0197 0.5144 0.8573
vn -0.8927 -0.4342 0.1208
vn 0.7512 -0.0644 -0.6569
vn -0.2609 0.1735 0.9496
vn -0.1854 0.2642 0.9465
vn -0.2278 -0.9022 -0.3662
vn -0.9191 -0.3901 -0.0558
vn -0.9127 0.0499 -0.4055
vn -0.3763 -0.9085 -0.1819
vn -0.8437 0.5264 0.1054
vn 0.5756 -0.2750 -0.7701
vn -0.6860 0.3744 0.6239
vn 0.5211 -0.0175 -0.8533
vn 0.5499 -0.2099 -0.8084
vn -0.4891 0.0781 0.8687
vn -0.7076 -0.5532 -0.4397
vn -0.5345 -0.6808 -0.5009
vn 0.2725 -0.9003 -0.3396
vn -0.2673 -0.6897 -0.6730
vn 0.7301 -0.4259 0.5344
vn -0.3016 -0.6421 -0.7048
vn -0.5548 -0.3010 -0.7757
vn -0.5438 0.5687 -0.6172
vn 0.6714 0.2496 0.6978
vn 0.4417 0.6421 0.6266
vn -0.4670 0.6922 0.5502
vn 0.3856 0.3616 0.8488
vn 0.2802 0.2086 0.9370
vn -0.4590 0.3015 0.8357
vn 0.3841 0.5574 0.7361
vn -0.5514 -0.3042 -0.7768
vn -0.4640 -0.3367 -0.8193
vn -0.4226 -0.5495 -0.7207
vn -0.8318 0.1003 0.5460
vn 0.7385 -0.1896 -0.6471
vn -0.9976 0.0675 -0.0175
vn -0.9530 -0.2604 0.1548
vn -0.1011 0.0428 -0.9940
vn -0.1952 0.0263 -0.9804
vn -0.1410 0.3459 0.9276
vn -0.6443 0.5351 0.5464
vn -0.9189 0.3663 0.1463
vn -0.9662 0.1221 -0.2269
vn -0.8332 -0.0178 -0.5528
vn -0.2832 0.3601 0.8889
vn -0.9676 0.1330 -0.2146
vn -0.7535 0.0040 -0.6574
vn 0.8845 -0.2960 0.3607
vn 0.8458 -0.0539 0.5308
vn 0.8574 -0.0394 0.5132
vn 0.1592 -0.9512 0.2644
vn 0.4091 -0.8160 0.4085
vn 0.2780 0.3548 0.8927
vn 0.6401 0.2658 0.7208
vn -0.3239 -0.4865 0.8114
vn 0.9974 0.0671 -0.0262
vn 0.8504 -0.1790 -0.4947
vn -0.0979 0.3872 0.9168
vn 0.9830 0.1817 0.0267
vn 0.3703 0.3056 0.8772
vn 0.2509 0.8232 0.5093
vn 0.9886 0.1358 0.0643
vn 0.1202 -0.6887 0.7150
vn 0.2232 -0.0247 -0.9745
vn 0.4426 -0.5731 0.6896
vn 0.1518 0.2959 -0.9431
vn 0.5553 -0.7840 0.2774
vn 0.1616 -0.5712 0.8047
vn 0.4293 -0.8774 0.2144
vn 0.0212 0.4589 -0.8882
vn 0.1147 -0.4391 0.8911
vn 0.1603 -0.4447 0.8812
vn 0.2530 -0.4764 0.8420
vn -0.3979 -0.4942 0.7729
vn -0.1072 -0.2577 0.9602
vn 0.0765 0.2311 -0.9699
vn 0.0152 0.0351 -0.9993
vn -0.1044 0.1792 -0.9783
vn -0.1092 -0.4773 0.8719
vn -0.1534 -0.2736 0.9495
vn 0.0134 0.3095 -0.9508
vn -0.0347 0.0595 -0.9976
vn -0.1236 0.5535 -0.8236
vn -0.2381 -0.2020 0.9500
vn 0.1620 -0.0361 -0.9861
vn 0.1944 -0.3226 0.9264
vn 0.1206 -0.1713 0.9778
vn 0.8301 -0.0246 -0.5571
vn -0.3608 -0.5495 0.7536
vn 0.0805 0.3386 -0.9375
vn -0.0906 0.2756 -0.9570
vn -0.1335 -0.5463 0.8269
vn 0.0739 0.3199 -0.9446
vn 0.0643 -0.2859 0.9561
vn -0.8493 0.0154 -0.5277
vn 0.8885 0.0547 0.4557
vn -0.7819 -0.1523 -0.6045
vn 0.8286 -0.0949 0.5518
vn 0.8406 -0.0743 -0.5366
vn 0.8269 -0.0670 -0.5583
vn -0.8151 0.0165 0.5791
vn -0.6977 -0.1909 -0.6905
vn 0.7286 -0.2343 -0.6436
vn 0.9333 -0.1182 -0.3391
vn -0.9799 -0.1947 0.0428
vn -0.9304 -0.3331 0.1533
vn -0.9785 0.1313 -0.1590
vn -0.9188 -0.3543 0.1738
vn -0.8975 -0.4363 0.0635
vn -0.6102 0.1654 -0.7748
vn -0.9861 -0.0733 -0.1493
vn -0.7816 0.3010 -0.5464
vn -0.8041 -0.1300 -0.5801
vn -0.7939 -0.3744 -0.4792
vn -0.9843 0.0729 -0.1610
vn -0.9153 -0.4028 0.0034
vn -0.7418 -0.2012 -0.6398
vn -0.6068 -0.4337 -0.6661
vn -0.9579 -0.1517 0.2437
vn -0.9791 -0.1072 0.1729
vn -0.9731 -0.1903 0.1297
vn -0.8443 -0.0308 -0.5350
vn 0.1532 -0.2608 -0.9532
vn 0.2628 -0.8275 -0.4961
vn 0.0000 -0.3364 -0.9417
vn 0.6861 0.4063 -0.6035
vn 0.0000 0.2763 -0.9611
vn 0.1599 0.0580 -0.9854
vn 0.4409 -0.0529 0.8960
vn 0.8318 -0.4648 -0.3034
vn 0.9982 0.0382 -0.0462
vn 0.5245 -0.8403 0.1370
vn 0.7982 -0.5408 0.2654
vn 0.9991 0.0315 0.0277
vn 0.9358 -0.3513 -0.0278
vn 0.6366 -0.3679 -0.6778
vn -0.1129 -0.0572 0.9920
vn 0.8365 0.0662 -0.5440
vn 0.8232 -0.1326 -0.5521
vn 0.8941 -0.0739 -0.4417
vn 0.6509 -0.2361 -0.7215
vn 0.9924 -0.1213 -0.0211
vn 0.9182 -0.1000 -0.3832
vn 0.5319 -0.4154 -0.7379
vn 0.8213 -0.0923 0.5629
usemtl None
s off
f 69//1 26//1 68//1
f 43//2 44//2 41//2
f 66//3 67//3 8//3
f 70//4 71//4 72//4
f 7//5 8//5 17//5
f 81//6 84//6 83//6
f 29//7 2//7 37//7
f 38//8 39//8 4//8
f 39//9 3//9 4//9
f 3//10 2//10 4//10
f 37//11 2//11 3//11
f 1//12 4//12 6//12
f 4//13 1//13 38//13
f 45//14 11//14 12//14
f 48//15 9//15 15//15
f 6//16 9//16 1//16
f 18//17 100//17 19//17
f 19//18 2//18 5//18
f 2//19 13//19 5//19
f 11//20 22//20 6//20
f 11//21 10//21 22//21
f 2//22 14//22 22//22
f 12//23 11//23 6//23
f 9//24 6//24 15//24
f 6//25 4//25 15//25
f 14//26 6//26 22//26
f 7//27 17//27 20//27
f 22//28 20//28 17//28
f 20//29 22//29 10//29
f 19//30 21//30 16//30
f 49//31 16//31 21//31
f 23//32 17//32 8//32
f 13//33 19//33 5//33
f 22//34 13//34 2//34
f 4//35 16//35 15//35
f 2//36 16//36 4//36
f 16//37 2//37 19//37
f 13//38 18//38 19//38
f 17//39 13//39 22//39
f 109//40 18//40 13//40
f 69//41 86//41 26//41
f 25//42 70//42 24//42
f 25//43 24//43 5//43
f 68//44 26//44 14//44
f 26//45 86//45 39//45
f 26//46 39//46 14//46
f 68//47 2//47 27//47
f 27//48 24//48 68//48
f 24//49 27//49 5//49
f 2//50 68//50 14//50
f 5//51 27//51 2//51
f 6//52 14//52 39//52
f 12//53 6//53 39//53
f 39//54 86//54 12//54
f 31//55 28//55 36//55
f 28//56 31//56 32//56
f 28//57 32//57 2//57
f 2//58 29//58 28//58
f 2//59 33//59 5//59
f 33//60 70//60 25//60
f 5//61 33//61 25//61
f 34//62 36//62 35//62
f 30//63 36//63 34//63
f 33//64 2//64 70//64
f 80//65 30//65 35//65
f 30//66 34//66 35//66
f 80//67 35//67 36//67
f 36//68 2//68 31//68
f 2//69 32//69 31//69
f 37//70 3//70 14//70
f 41//71 29//71 37//71
f 39//72 14//72 3//72
f 39//73 38//73 14//73
f 54//74 14//74 38//74
f 14//75 54//75 42//75
f 57//76 42//76 54//76
f 42//77 57//77 53//77
f 42//78 44//78 43//78
f 42//79 43//79 41//79
f 42//80 53//80 44//80
f 44//81 53//81 55//81
f 14//82 42//82 37//82
f 41//83 37//83 42//83
f 40//84 54//84 38//84
f 15//85 16//85 49//85
f 48//86 15//86 49//86
f 20//87 47//87 7//87
f 20//88 10//88 47//88
f 48//89 46//89 9//89
f 86//90 45//90 12//90
f 1//91 9//91 46//91
f 46//92 38//92 1//92
f 38//93 46//93 50//93
f 50//94 40//94 38//94
f 46//95 48//95 50//95
f 48//96 51//96 50//96
f 45//97 62//97 11//97
f 8//98 7//98 66//98
f 45//99 86//99 40//99
f 49//100 51//100 48//100
f 40//101 50//101 54//101
f 53//102 56//102 71//102
f 57//103 56//103 53//103
f 71//104 55//104 53//104
f 58//105 55//105 63//105
f 60//106 57//106 53//106
f 55//107 53//107 63//107
f 57//108 63//108 53//108
f 52//109 117//109 66//109
f 61//110 60//110 53//110
f 40//111 76//111 62//111
f 62//112 10//112 11//112
f 57//113 60//113 64//113
f 64//114 60//114 62//114
f 51//115 54//115 50//115
f 57//116 54//116 63//116
f 64//117 62//117 76//117
f 66//118 60//118 61//118
f 66//119 47//119 60//119
f 65//120 119//120 63//120
f 59//121 58//121 119//121
f 119//122 65//122 21//122
f 49//123 21//123 65//123
f 40//124 62//124 45//124
f 117//125 58//125 59//125
f 10//126 60//126 47//126
f 66//127 7//127 47//127
f 67//128 66//128 117//128
f 117//129 112//129 67//129
f 58//130 63//130 119//130
f 58//131 52//131 61//131
f 61//132 55//132 58//132
f 61//133 52//133 66//133
f 51//134 49//134 65//134
f 54//135 51//135 65//135
f 65//136 63//136 54//136
f 52//137 58//137 117//137
f 61//138 53//138 55//138
f 62//139 60//139 10//139
f 67//140 112//140 8//140
f 72//141 24//141 70//141
f 68//142 24//142 72//142
f 44//143 71//143 70//143
f 44//144 55//144 71//144
f 57//145 64//145 68//145
f 69//146 73//146 85//146
f 85//147 86//147 69//147
f 64//148 85//148 73//148
f 68//149 72//149 75//149
f 74//150 71//150 75//150
f 72//151 74//151 75//151
f 74//152 72//152 71//152
f 64//153 73//153 68//153
f 73//154 69//154 68//154
f 71//155 56//155 75//155
f 57//156 75//156 56//156
f 76//157 85//157 64//157
f 40//158 85//158 76//158
f 75//159 57//159 68//159
f 40//160 86//160 85//160
f 2//161 82//161 70//161
f 77//162 81//162 36//162
f 36//163 28//163 77//163
f 80//164 36//164 81//164
f 78//165 77//165 28//165
f 29//166 41//166 78//166
f 78//167 28//167 29//167
f 79//168 41//168 44//168
f 79//169 82//169 41//169
f 44//170 70//170 79//170
f 14//171 36//171 30//171
f 14//172 81//172 36//172
f 82//173 79//173 70//173
f 2//174 36//174 81//174
f 2//175 81//175 82//175
f 14//176 30//176 80//176
f 14//177 80//177 81//177
f 77//178 82//178 81//178
f 77//179 78//179 41//179
f 77//180 41//180 82//180
f 94//181 92//181 93//181
f 113//182 88//182 92//182
f 96//183 90//183 91//183
f 89//184 113//184 94//184
f 113//185 92//185 94//185
f 93//186 95//186 94//186
f 95//187 93//187 88//187
f 87//188 95//188 88//188
f 115//189 94//189 95//189
f 95//190 87//190 115//190
f 115//191 96//191 94//191
f 92//192 88//192 93//192
f 115//193 89//193 96//193
f 94//194 96//194 91//194
f 89//195 94//195 96//195
f 104//196 102//196 101//196
f 104//197 105//197 103//197
f 105//198 108//198 103//198
f 103//199 102//199 104//199
f 108//200 98//200 97//200
f 108//201 98//201 106//201
f 99//202 98//202 108//202
f 99//203 107//203 100//203
f 107//204 101//204 108//204
f 108//205 101//205 103//205
f 107//206 104//206 101//206
f 108//207 97//207 107//207
f 97//208 100//208 107//208
f 100//209 97//209 110//209
f 102//210 103//210 101//210
f 107//211 99//211 108//211
f 104//212 107//212 108//212
f 108//213 105//213 104//213
f 97//214 98//214 110//214
f 106//215 110//215 98//215
f 99//216 109//216 98//216
f 98//217 109//217 106//217
f 149//218 23//218 112//218
f 112//219 23//219 8//219
f 21//220 100//220 110//220
f 19//221 100//221 21//221
f 100//222 18//222 99//222
f 109//223 99//223 18//223
f 149//224 109//224 17//224
f 21//225 110//225 111//225
f 17//226 109//226 13//226
f 23//227 149//227 17//227
f 115//228 114//228 118//228
f 118//229 114//229 113//229
f 116//230 115//230 118//230
f 114//231 115//231 87//231
f 87//232 88//232 114//232
f 118//233 89//233 111//233
f 113//234 89//234 118//234
f 113//235 114//235 88//235
f 117//236 115//236 116//236
f 112//237 117//237 116//237
f 119//238 21//238 111//238
f 115//239 117//239 89//239
f 111//240 89//240 119//240
f 119//241 89//241 59//241
f 117//242 59//242 89//242
f 128//243 127//243 131//243
f 120//244 121//244 122//244
f 122//245 121//245 134//245
f 128//246 132//246 124//246
f 127//247 125//247 124//247
f 126//248 129//248 124//248
f 125//249 127//249 128//249
f 124//250 125//250 128//250
f 123//251 130//251 122//251
f 126//252 130//252 123//252
f 123//253 129//253 126//253
f 124//254 129//254 132//254
f 132//255 127//255 124//255
f 132//256 126//256 124//256
f 120//257 122//257 130//257
f 130//258 126//258 120//258
f 122//259 134//259 123//259
f 132//260 131//260 127//260
f 128//261 131//261 132//261
f 132//262 120//262 126//262
f 120//263 132//263 123//263
f 129//264 123//264 132//264
f 138//265 121//265 120//265
f 134//266 133//266 123//266
f 133//267 140//267 123//267
f 138//268 133//268 121//268
f 134//269 121//269 135//269
f 121//270 133//270 136//270
f 136//271 133//271 137//271
f 134//272 135//272 136//272
f 135//273 121//273 136//273
f 136//274 133//274 134//274
f 138//275 120//275 123//275
f 133//276 141//276 140//276
f 139//277 138//277 123//277
f 141//278 116//278 140//278
f 138//279 139//279 141//279
f 141//280 133//280 138//280
f 140//281 150//281 123//281
f 139//282 123//282 150//282
f 142//283 141//283 139//283
f 116//284 141//284 142//284
f 143//285 147//285 146//285
f 147//286 143//286 152//286
f 153//287 146//287 147//287
f 147//288 152//288 154//288
f 148//289 154//289 151//289
f 149//290 112//290 145//290
f 149//291 153//291 148//291
f 145//292 153//292 149//292
f 149//293 148//293 150//293
f 144//294 150//294 148//294
f 148//295 153//295 147//295
f 154//296 148//296 147//296
f 144//297 139//297 150//297
f 151//298 144//298 148//298
f 140//299 161//299 150//299
f 110//300 109//300 150//300
f 110//301 106//301 109//301
f 150//302 109//302 149//302
f 139//303 144//303 156//303
f 156//304 144//304 151//304
f 143//305 146//305 155//305
f 145//306 159//306 153//306
f 153//307 155//307 146//307
f 145//308 112//308 159//308
f 160//309 118//309 111//309
f 155//310 157//310 143//310
f 155//311 153//311 157//311
f 152//312 143//312 157//312
f 154//313 152//313 157//313
f 157//314 153//314 154//314
f 151//315 154//315 158//315
f 158//316 156//316 151//316
f 160//317 111//317 110//317
f 112//318 116//318 159//318
f 159//319 142//319 158//319
f 159//320 116//320 142//320
f 139//321 156//321 142//321
f 154//322 153//322 159//322
f 159//323 158//323 154//323
f 156//324 158//324 142//324
f 162//325 116//325 118//325
f 140//317 160//317 161//317
f 162//309 118//309 160//309
f 161//317 160//317 110//317
f 161//299 110//299 150//299
f 140//309 162//309 160//309
f 140//325 116//325 162//325
