# Blender v2.79 (sub 0) OBJ File: ''
# www.blender.org
mtllib m742.mtl
o m742
v 0.439286 -0.088023 0.026988
v 0.475000 -0.088023 0.017495
v 0.475000 -0.088023 -0.017495
v 0.439286 -0.088023 -0.026988
v 0.436110 -0.088023 -0.059230
v 0.469286 -0.088023 -0.075509
v 0.462460 -0.088023 -0.109828
v 0.425579 -0.088023 -0.112169
v 0.416174 -0.088023 -0.143174
v 0.445539 -0.088023 -0.165611
v 0.432147 -0.088023 -0.197938
v 0.395519 -0.088023 -0.193041
v 0.380245 -0.088023 -0.221615
v 0.404668 -0.088023 -0.249349
v 0.385228 -0.088023 -0.278442
v 0.350258 -0.088023 -0.266494
v 0.329705 -0.088023 -0.291538
v 0.348247 -0.088023 -0.323504
v 0.323504 -0.088023 -0.348247
v 0.291538 -0.088023 -0.329705
v 0.266494 -0.088023 -0.350258
v 0.278442 -0.088023 -0.385228
v 0.249349 -0.088023 -0.404668
v 0.221615 -0.088023 -0.380245
v 0.193041 -0.088023 -0.395519
v 0.197938 -0.088023 -0.432147
v 0.165611 -0.088023 -0.445539
v 0.143174 -0.088023 -0.416174
v 0.112169 -0.088023 -0.425579
v 0.109828 -0.088023 -0.462460
v 0.075509 -0.088023 -0.469286
v 0.059230 -0.088023 -0.436110
v 0.026988 -0.088023 -0.439286
v 0.017495 -0.088023 -0.475000
v -0.017495 -0.088023 -0.475000
v -0.026988 -0.088023 -0.439286
v -0.059230 -0.088023 -0.436110
v -0.075509 -0.088023 -0.469286
v -0.109828 -0.088023 -0.462460
v -0.112169 -0.088023 -0.425579
v -0.143174 -0.088023 -0.416174
v -0.165611 -0.088023 -0.445539
v -0.197938 -0.088023 -0.432147
v -0.193041 -0.088023 -0.395519
v -0.221615 -0.088023 -0.380245
v -0.249349 -0.088023 -0.404668
v -0.278442 -0.088023 -0.385228
v -0.266494 -0.088023 -0.350258
v -0.291538 -0.088023 -0.329705
v -0.323504 -0.088023 -0.348247
v -0.348247 -0.088023 -0.323504
v -0.329705 -0.088023 -0.291538
v -0.350258 -0.088023 -0.266494
v -0.385227 -0.088023 -0.278442
v -0.404669 -0.088023 -0.249349
v -0.380245 -0.088023 -0.221615
v -0.395519 -0.088023 -0.193041
v -0.432147 -0.088023 -0.197938
v -0.445539 -0.088023 -0.165611
v -0.416175 -0.088023 -0.143174
v -0.425579 -0.088023 -0.112169
v -0.462461 -0.088023 -0.109828
v -0.469286 -0.088023 -0.075509
v -0.436110 -0.088023 -0.059230
v -0.439286 -0.088023 -0.026988
v -0.475000 -0.088023 -0.017495
v -0.475000 -0.088023 0.017495
v -0.439286 -0.088023 0.026988
v -0.436110 -0.088023 0.059230
v -0.469286 -0.088023 0.075509
v -0.462461 -0.088023 0.109828
v -0.425579 -0.088023 0.112169
v -0.416175 -0.088023 0.143174
v -0.445539 -0.088023 0.165611
v -0.432147 -0.088023 0.197938
v -0.395519 -0.088023 0.193041
v -0.380245 -0.088023 0.221615
v -0.404669 -0.088023 0.249349
v -0.385227 -0.088023 0.278442
v -0.350258 -0.088023 0.266494
v -0.329705 -0.088023 0.291538
v -0.348247 -0.088023 0.323504
v -0.323504 -0.088023 0.348247
v -0.291538 -0.088023 0.329705
v -0.266494 -0.088023 0.350258
v -0.278442 -0.088023 0.385227
v -0.249349 -0.088023 0.404668
v -0.221615 -0.088023 0.380245
v -0.193041 -0.088023 0.395519
v -0.197938 -0.088023 0.432147
v -0.165611 -0.088023 0.445539
v -0.143172 -0.088023 0.416174
v -0.112169 -0.088023 0.425579
v -0.109828 -0.088023 0.462460
v -0.075509 -0.088023 0.469285
v -0.059230 -0.088023 0.436110
v -0.026988 -0.088023 0.439286
v -0.017495 -0.088023 0.475000
v 0.017495 -0.088023 0.475000
v 0.026988 -0.088023 0.439286
v 0.059230 -0.088023 0.436110
v 0.075509 -0.088023 0.469285
v 0.109828 -0.088023 0.462460
v 0.112169 -0.088023 0.425579
v 0.143174 -0.088023 0.416174
v 0.165611 -0.088023 0.445539
v 0.197938 -0.088023 0.432147
v 0.193041 -0.088023 0.395519
v 0.221615 -0.088023 0.380245
v 0.249349 -0.088023 0.404668
v 0.278444 -0.088023 0.385227
v 0.266494 -0.088023 0.350258
v 0.291538 -0.088023 0.329705
v 0.323504 -0.088023 0.348247
v 0.348247 -0.088023 0.323504
v 0.329705 -0.088023 0.291538
v 0.350258 -0.088023 0.266494
v 0.385228 -0.088023 0.278442
v 0.404668 -0.088023 0.249349
v 0.380245 -0.088023 0.221615
v 0.395519 -0.088023 0.193041
v 0.432147 -0.088023 0.197938
v 0.445539 -0.088023 0.165611
v 0.416174 -0.088023 0.143174
v 0.425579 -0.088023 0.112169
v 0.462460 -0.088023 0.109828
v 0.469286 -0.088023 0.075509
v 0.436110 -0.088023 0.059230
v 0.439286 0.088022 0.026988
v 0.475000 0.088022 0.017495
v 0.475000 0.088022 -0.017495
v 0.439286 0.088022 -0.026988
v 0.436110 0.088022 -0.059230
v 0.469286 0.088022 -0.075509
v 0.462460 0.088022 -0.109828
v 0.425579 0.088022 -0.112169
v 0.416174 0.088022 -0.143174
v 0.445539 0.088022 -0.165611
v 0.432147 0.088022 -0.197938
v 0.395519 0.088022 -0.193041
v 0.380245 0.088022 -0.221615
v 0.404668 0.088022 -0.249349
v 0.385228 0.088022 -0.278442
v 0.350258 0.088022 -0.266494
v 0.329705 0.088022 -0.291538
v 0.348247 0.088022 -0.323504
v 0.323504 0.088022 -0.348247
v 0.291538 0.088022 -0.329705
v 0.266494 0.088022 -0.350258
v 0.278442 0.088022 -0.385228
v 0.249349 0.088022 -0.404668
v 0.221615 0.088022 -0.380245
v 0.193041 0.088022 -0.395519
v 0.197938 0.088022 -0.432147
v 0.165611 0.088022 -0.445539
v 0.143174 0.088022 -0.416174
v 0.112169 0.088022 -0.425579
v 0.109828 0.088022 -0.462460
v 0.075509 0.088022 -0.469286
v 0.059230 0.088022 -0.436110
v 0.026988 0.088022 -0.439286
v 0.017495 0.088022 -0.475000
v -0.017495 0.088022 -0.475000
v -0.026988 0.088022 -0.439286
v -0.059230 0.088022 -0.436110
v -0.075509 0.088022 -0.469286
v -0.109828 0.088022 -0.462460
v -0.112169 0.088022 -0.425579
v -0.143174 0.088022 -0.416174
v -0.165611 0.088022 -0.445539
v -0.197938 0.088022 -0.432147
v -0.193041 0.088022 -0.395519
v -0.221615 0.088022 -0.380245
v -0.249349 0.088022 -0.404668
v -0.278442 0.088022 -0.385228
v -0.266494 0.088022 -0.350258
v -0.291538 0.088022 -0.329705
v -0.323504 0.088022 -0.348247
v -0.348247 0.088022 -0.323504
v -0.329705 0.088022 -0.291538
v -0.350258 0.088022 -0.266494
v -0.385227 0.088022 -0.278442
v -0.404669 0.088022 -0.249349
v -0.380245 0.088022 -0.221615
v -0.395519 0.088022 -0.193041
v -0.432147 0.088022 -0.197938
v -0.445539 0.088022 -0.165611
v -0.416175 0.088022 -0.143174
v -0.425579 0.088022 -0.112169
v -0.462461 0.088022 -0.109828
v -0.469286 0.088022 -0.075509
v -0.436110 0.088022 -0.059230
v -0.439286 0.088022 -0.026988
v -0.475000 0.088022 -0.017495
v -0.475000 0.088022 0.017495
v -0.439286 0.088022 0.026988
v -0.436110 0.088022 0.059230
v -0.469286 0.088022 0.075509
v -0.462461 0.088022 0.109828
v -0.425579 0.088022 0.112169
v -0.416175 0.088022 0.143174
v -0.445539 0.088022 0.165611
v -0.432147 0.088022 0.197938
v -0.395519 0.088022 0.193041
v -0.380245 0.088022 0.221615
v -0.404669 0.088022 0.249349
v -0.385227 0.088022 0.278442
v -0.350258 0.088022 0.266494
v -0.329705 0.088022 0.291538
v -0.348247 0.088022 0.323504
v -0.323504 0.088022 0.348247
v -0.291538 0.088022 0.329705
v -0.266494 0.088022 0.350258
v -0.278442 0.088022 0.385227
v -0.249349 0.088022 0.404668
v -0.221615 0.088022 0.380245
v -0.193041 0.088022 0.395519
v -0.197938 0.088022 0.432147
v -0.165611 0.088022 0.445539
v -0.143172 0.088022 0.416174
v -0.112169 0.088022 0.425579
v -0.109828 0.088022 0.462460
v -0.075509 0.088022 0.469285
v -0.059230 0.088022 0.436110
v -0.026988 0.088022 0.439286
v -0.017495 0.088022 0.475000
v 0.017495 0.088022 0.475000
v 0.026988 0.088022 0.439286
v 0.059230 0.088022 0.436110
v 0.075509 0.088022 0.469285
v 0.109828 0.088022 0.462460
v 0.112169 0.088022 0.425579
v 0.143174 0.088022 0.416174
v 0.165611 0.088022 0.445539
v 0.197938 0.088022 0.432147
v 0.193041 0.088022 0.395519
v 0.221615 0.088022 0.380245
v 0.249349 0.088022 0.404668
v 0.278444 0.088022 0.385227
v 0.266494 0.088022 0.350258
v 0.291538 0.088022 0.329705
v 0.323504 0.088022 0.348247
v 0.348247 0.088022 0.323504
v 0.329705 0.088022 0.291538
v 0.350258 0.088022 0.266494
v 0.385228 0.088022 0.278442
v 0.404668 0.088022 0.249349
v 0.380245 0.088022 0.221615
v 0.395519 0.088022 0.193041
v 0.432147 0.088022 0.197938
v 0.445539 0.088022 0.165611
v 0.416174 0.088022 0.143174
v 0.425579 0.088022 0.112169
v 0.462460 0.088022 0.109828
v 0.469286 0.088022 0.075509
v 0.436110 0.088022 0.059230
vn 0.0000 -1.0000 0.0000
vn 0.0000 1.0000 0.0000
vn 0.2569 0.0000 0.9664
vn 1.0000 0.0000 0.0000
vn 0.2569 0.0000 -0.9664
vn 0.9952 0.0000 -0.0980
vn 0.4405 0.0000 0.8977
vn 0.9808 0.0000 -0.1951
vn 0.0633 0.0000 -0.9980
vn 0.9569 0.0000 -0.2903
vn 0.6071 0.0000 0.7946
vn 0.9239 0.0000 -0.3827
vn -0.1325 0.0000 -0.9912
vn 0.8819 0.0000 -0.4714
vn 0.7505 0.0000 0.6609
vn 0.8315 0.0000 -0.5556
vn -0.3233 0.0000 -0.9463
vn 0.7730 0.0000 -0.6344
vn 0.8650 0.0000 0.5018
vn 0.7071 0.0000 -0.7071
vn -0.5018 0.0000 -0.8650
vn 0.6344 0.0000 -0.7730
vn 0.9463 0.0000 0.3233
vn 0.5556 0.0000 -0.8315
vn -0.6609 0.0000 -0.7505
vn 0.4714 0.0000 -0.8819
vn 0.9912 0.0000 0.1325
vn 0.3827 0.0000 -0.9239
vn -0.7946 0.0000 -0.6071
vn 0.2903 0.0000 -0.9569
vn 0.9980 0.0000 -0.0633
vn 0.1951 0.0000 -0.9808
vn -0.8977 0.0000 -0.4405
vn 0.0980 0.0000 -0.9952
vn 0.9664 0.0000 -0.2569
vn 0.0000 0.0000 -1.0000
vn -0.9664 0.0000 -0.2569
vn -0.0980 0.0000 -0.9952
vn 0.8977 0.0000 -0.4405
vn -0.1951 0.0000 -0.9808
vn -0.9980 0.0000 -0.0633
vn -0.2903 0.0000 -0.9569
vn 0.7946 0.0000 -0.6071
vn -0.3827 0.0000 -0.9239
vn -0.9912 0.0000 0.1325
vn -0.4714 0.0000 -0.8819
vn 0.6609 0.0000 -0.7505
vn -0.5556 0.0000 -0.8315
vn -0.9463 0.0000 0.3233
vn -0.6344 0.0000 -0.7730
vn 0.5018 0.0000 -0.8650
vn -0.7071 0.0000 -0.7071
vn -0.8650 0.0000 0.5018
vn -0.7730 0.0000 -0.6344
vn 0.3233 0.0000 -0.9463
vn -0.8314 0.0000 -0.5556
vn -0.7505 0.0000 0.6609
vn -0.8819 0.0000 -0.4714
vn 0.1325 0.0000 -0.9912
vn -0.9239 0.0000 -0.3827
vn -0.6071 0.0000 0.7946
vn -0.9569 0.0000 -0.2903
vn -0.0633 0.0000 -0.9980
vn -0.9808 0.0000 -0.1951
vn -0.4405 0.0000 0.8977
vn -0.9952 0.0000 -0.0980
vn -0.2569 0.0000 -0.9664
vn -1.0000 0.0000 0.0000
vn -0.2569 0.0000 0.9664
vn -0.9952 0.0000 0.0980
vn -0.4405 0.0000 -0.8977
vn -0.9808 0.0000 0.1951
vn -0.0633 0.0000 0.9980
vn -0.9569 0.0000 0.2903
vn -0.6071 0.0000 -0.7946
vn -0.9239 0.0000 0.3827
vn 0.1325 0.0000 0.9912
vn -0.8819 0.0000 0.4714
vn -0.7505 0.0000 -0.6609
vn -0.8314 0.0000 0.5556
vn 0.3233 0.0000 0.9463
vn -0.7730 0.0000 0.6344
vn -0.8650 0.0000 -0.5018
vn -0.7071 0.0000 0.7071
vn 0.5018 0.0000 0.8650
vn -0.6344 0.0000 0.7730
vn -0.9463 0.0000 -0.3233
vn -0.5556 0.0000 0.8314
vn 0.6609 0.0000 0.7505
vn -0.4714 0.0000 0.8819
vn -0.9912 0.0000 -0.1325
vn -0.3827 0.0000 0.9239
vn 0.7946 0.0000 0.6072
vn -0.2903 0.0000 0.9569
vn -0.9980 0.0000 0.0633
vn -0.1951 0.0000 0.9808
vn 0.8977 0.0000 0.4405
vn -0.0980 0.0000 0.9952
vn -0.9664 0.0000 0.2569
vn 0.0000 0.0000 1.0000
vn 0.9664 0.0000 0.2569
vn 0.0980 0.0000 0.9952
vn -0.8977 0.0000 0.4405
vn 0.1951 0.0000 0.9808
vn 0.9980 0.0000 0.0633
vn 0.2903 0.0000 0.9569
vn -0.7946 0.0000 0.6071
vn 0.3827 0.0000 0.9239
vn 0.9912 0.0000 -0.1325
vn 0.4714 0.0000 0.8819
vn -0.6609 0.0000 0.7505
vn 0.5556 0.0000 0.8315
vn 0.9463 0.0000 -0.3234
vn 0.6344 0.0000 0.7730
vn -0.5018 0.0000 0.8650
vn 0.7071 0.0000 0.7071
vn 0.8650 0.0000 -0.5018
vn 0.7730 0.0000 0.6344
vn -0.3233 0.0000 0.9463
vn 0.8315 0.0000 0.5556
vn 0.7505 0.0000 -0.6609
vn 0.8819 0.0000 0.4714
vn -0.1325 0.0000 0.9912
vn 0.9239 0.0000 0.3827
vn 0.6071 0.0000 -0.7946
vn 0.9569 0.0000 0.2903
vn 0.0633 0.0000 0.9980
vn 0.9808 0.0000 0.1951
vn 0.4405 0.0000 -0.8977
vn 0.9952 0.0000 0.0980
usemtl None
s off
f 3//1 2//1 4//1
f 1//1 4//1 2//1
f 1//1 128//1 4//1
f 7//1 6//1 8//1
f 5//1 8//1 6//1
f 5//1 124//1 8//1
f 5//1 125//1 124//1
f 5//1 4//1 125//1
f 128//1 125//1 4//1
f 128//1 126//1 125//1
f 128//1 127//1 126//1
f 11//1 10//1 12//1
f 9//1 12//1 10//1
f 9//1 120//1 12//1
f 9//1 121//1 120//1
f 9//1 8//1 121//1
f 124//1 121//1 8//1
f 124//1 122//1 121//1
f 124//1 123//1 122//1
f 15//1 14//1 16//1
f 13//1 16//1 14//1
f 13//1 116//1 16//1
f 13//1 117//1 116//1
f 13//1 12//1 117//1
f 120//1 117//1 12//1
f 120//1 118//1 117//1
f 120//1 119//1 118//1
f 19//1 18//1 20//1
f 17//1 20//1 18//1
f 17//1 112//1 20//1
f 17//1 113//1 112//1
f 17//1 16//1 113//1
f 116//1 113//1 16//1
f 116//1 114//1 113//1
f 116//1 115//1 114//1
f 23//1 22//1 24//1
f 21//1 24//1 22//1
f 21//1 108//1 24//1
f 21//1 109//1 108//1
f 21//1 20//1 109//1
f 112//1 109//1 20//1
f 112//1 110//1 109//1
f 112//1 111//1 110//1
f 27//1 26//1 28//1
f 25//1 28//1 26//1
f 25//1 104//1 28//1
f 25//1 105//1 104//1
f 25//1 24//1 105//1
f 108//1 105//1 24//1
f 108//1 106//1 105//1
f 108//1 107//1 106//1
f 31//1 30//1 32//1
f 29//1 32//1 30//1
f 29//1 100//1 32//1
f 29//1 101//1 100//1
f 29//1 28//1 101//1
f 104//1 101//1 28//1
f 104//1 102//1 101//1
f 104//1 103//1 102//1
f 35//1 34//1 36//1
f 33//1 36//1 34//1
f 33//1 96//1 36//1
f 33//1 97//1 96//1
f 33//1 32//1 97//1
f 100//1 97//1 32//1
f 100//1 98//1 97//1
f 100//1 99//1 98//1
f 39//1 38//1 40//1
f 37//1 40//1 38//1
f 37//1 92//1 40//1
f 37//1 93//1 92//1
f 37//1 36//1 93//1
f 96//1 93//1 36//1
f 96//1 94//1 93//1
f 96//1 95//1 94//1
f 43//1 42//1 44//1
f 41//1 44//1 42//1
f 41//1 88//1 44//1
f 41//1 89//1 88//1
f 41//1 40//1 89//1
f 92//1 89//1 40//1
f 92//1 90//1 89//1
f 92//1 91//1 90//1
f 47//1 46//1 48//1
f 45//1 48//1 46//1
f 45//1 84//1 48//1
f 45//1 85//1 84//1
f 45//1 44//1 85//1
f 88//1 85//1 44//1
f 88//1 86//1 85//1
f 88//1 87//1 86//1
f 51//1 50//1 52//1
f 49//1 52//1 50//1
f 49//1 80//1 52//1
f 49//1 81//1 80//1
f 49//1 48//1 81//1
f 84//1 81//1 48//1
f 84//1 82//1 81//1
f 84//1 83//1 82//1
f 55//1 54//1 56//1
f 53//1 56//1 54//1
f 53//1 76//1 56//1
f 53//1 77//1 76//1
f 53//1 52//1 77//1
f 80//1 77//1 52//1
f 80//1 78//1 77//1
f 80//1 79//1 78//1
f 59//1 58//1 60//1
f 57//1 60//1 58//1
f 57//1 72//1 60//1
f 57//1 73//1 72//1
f 57//1 56//1 73//1
f 76//1 73//1 56//1
f 76//1 74//1 73//1
f 76//1 75//1 74//1
f 63//1 62//1 64//1
f 61//1 64//1 62//1
f 61//1 68//1 64//1
f 61//1 69//1 68//1
f 61//1 60//1 69//1
f 72//1 69//1 60//1
f 72//1 70//1 69//1
f 72//1 71//1 70//1
f 64//1 68//1 65//1
f 66//1 65//1 68//1
f 66//1 68//1 67//1
f 130//2 131//2 129//2
f 132//2 129//2 131//2
f 132//2 253//2 129//2
f 132//2 252//2 253//2
f 129//2 253//2 256//2
f 255//2 256//2 253//2
f 132//2 133//2 252//2
f 249//2 252//2 133//2
f 249//2 251//2 252//2
f 249//2 250//2 251//2
f 134//2 135//2 133//2
f 136//2 133//2 135//2
f 136//2 249//2 133//2
f 136//2 248//2 249//2
f 136//2 137//2 248//2
f 245//2 248//2 137//2
f 245//2 247//2 248//2
f 245//2 246//2 247//2
f 138//2 139//2 137//2
f 140//2 137//2 139//2
f 140//2 245//2 137//2
f 140//2 244//2 245//2
f 140//2 141//2 244//2
f 241//2 244//2 141//2
f 241//2 243//2 244//2
f 241//2 242//2 243//2
f 142//2 143//2 141//2
f 144//2 141//2 143//2
f 144//2 241//2 141//2
f 144//2 240//2 241//2
f 144//2 145//2 240//2
f 237//2 240//2 145//2
f 237//2 239//2 240//2
f 237//2 238//2 239//2
f 146//2 147//2 145//2
f 148//2 145//2 147//2
f 148//2 237//2 145//2
f 148//2 236//2 237//2
f 148//2 149//2 236//2
f 233//2 236//2 149//2
f 233//2 235//2 236//2
f 233//2 234//2 235//2
f 150//2 151//2 149//2
f 152//2 149//2 151//2
f 152//2 233//2 149//2
f 152//2 232//2 233//2
f 152//2 153//2 232//2
f 229//2 232//2 153//2
f 229//2 231//2 232//2
f 229//2 230//2 231//2
f 154//2 155//2 153//2
f 156//2 153//2 155//2
f 156//2 229//2 153//2
f 156//2 228//2 229//2
f 156//2 157//2 228//2
f 225//2 228//2 157//2
f 225//2 227//2 228//2
f 225//2 226//2 227//2
f 158//2 159//2 157//2
f 160//2 157//2 159//2
f 160//2 225//2 157//2
f 160//2 224//2 225//2
f 160//2 161//2 224//2
f 221//2 224//2 161//2
f 221//2 223//2 224//2
f 221//2 222//2 223//2
f 162//2 163//2 161//2
f 164//2 161//2 163//2
f 164//2 221//2 161//2
f 164//2 220//2 221//2
f 164//2 165//2 220//2
f 217//2 220//2 165//2
f 217//2 219//2 220//2
f 217//2 218//2 219//2
f 166//2 167//2 165//2
f 168//2 165//2 167//2
f 168//2 217//2 165//2
f 168//2 216//2 217//2
f 168//2 169//2 216//2
f 213//2 216//2 169//2
f 213//2 215//2 216//2
f 213//2 214//2 215//2
f 170//2 171//2 169//2
f 172//2 169//2 171//2
f 172//2 213//2 169//2
f 172//2 212//2 213//2
f 172//2 173//2 212//2
f 209//2 212//2 173//2
f 209//2 211//2 212//2
f 209//2 210//2 211//2
f 174//2 175//2 173//2
f 176//2 173//2 175//2
f 176//2 209//2 173//2
f 176//2 208//2 209//2
f 176//2 177//2 208//2
f 205//2 208//2 177//2
f 205//2 207//2 208//2
f 205//2 206//2 207//2
f 178//2 179//2 177//2
f 180//2 177//2 179//2
f 180//2 205//2 177//2
f 180//2 204//2 205//2
f 180//2 181//2 204//2
f 201//2 204//2 181//2
f 201//2 203//2 204//2
f 201//2 202//2 203//2
f 182//2 183//2 181//2
f 184//2 181//2 183//2
f 184//2 201//2 181//2
f 184//2 200//2 201//2
f 184//2 185//2 200//2
f 197//2 200//2 185//2
f 197//2 199//2 200//2
f 197//2 198//2 199//2
f 186//2 187//2 185//2
f 188//2 185//2 187//2
f 188//2 197//2 185//2
f 188//2 196//2 197//2
f 188//2 189//2 196//2
f 193//2 196//2 189//2
f 193//2 195//2 196//2
f 193//2 194//2 195//2
f 193//2 189//2 192//2
f 191//2 192//2 189//2
f 191//2 189//2 190//2
f 255//2 253//2 254//2
f 2//3 130//3 1//3
f 129//3 1//3 130//3
f 3//4 131//4 2//4
f 130//4 2//4 131//4
f 4//5 132//5 3//5
f 131//5 3//5 132//5
f 5//6 133//6 4//6
f 132//6 4//6 133//6
f 6//7 134//7 5//7
f 133//7 5//7 134//7
f 7//8 135//8 6//8
f 134//8 6//8 135//8
f 8//9 136//9 7//9
f 135//9 7//9 136//9
f 9//10 137//10 8//10
f 136//10 8//10 137//10
f 10//11 138//11 9//11
f 137//11 9//11 138//11
f 11//12 139//12 10//12
f 138//12 10//12 139//12
f 12//13 140//13 11//13
f 139//13 11//13 140//13
f 13//14 141//14 12//14
f 140//14 12//14 141//14
f 14//15 142//15 13//15
f 141//15 13//15 142//15
f 15//16 143//16 14//16
f 142//16 14//16 143//16
f 16//17 144//17 15//17
f 143//17 15//17 144//17
f 17//18 145//18 16//18
f 144//18 16//18 145//18
f 18//19 146//19 17//19
f 145//19 17//19 146//19
f 19//20 147//20 18//20
f 146//20 18//20 147//20
f 20//21 148//21 19//21
f 147//21 19//21 148//21
f 21//22 149//22 20//22
f 148//22 20//22 149//22
f 22//23 150//23 21//23
f 149//23 21//23 150//23
f 23//24 151//24 22//24
f 150//24 22//24 151//24
f 24//25 152//25 23//25
f 151//25 23//25 152//25
f 25//26 153//26 24//26
f 152//26 24//26 153//26
f 26//27 154//27 25//27
f 153//27 25//27 154//27
f 27//28 155//28 26//28
f 154//28 26//28 155//28
f 28//29 156//29 27//29
f 155//29 27//29 156//29
f 29//30 157//30 28//30
f 156//30 28//30 157//30
f 30//31 158//31 29//31
f 157//31 29//31 158//31
f 31//32 159//32 30//32
f 158//32 30//32 159//32
f 32//33 160//33 31//33
f 159//33 31//33 160//33
f 33//34 161//34 32//34
f 160//34 32//34 161//34
f 34//35 162//35 33//35
f 161//35 33//35 162//35
f 35//36 163//36 34//36
f 162//36 34//36 163//36
f 36//37 164//37 35//37
f 163//37 35//37 164//37
f 37//38 165//38 36//38
f 164//38 36//38 165//38
f 38//39 166//39 37//39
f 165//39 37//39 166//39
f 39//40 167//40 38//40
f 166//40 38//40 167//40
f 40//41 168//41 39//41
f 167//41 39//41 168//41
f 41//42 169//42 40//42
f 168//42 40//42 169//42
f 42//43 170//43 41//43
f 169//43 41//43 170//43
f 43//44 171//44 42//44
f 170//44 42//44 171//44
f 44//45 172//45 43//45
f 171//45 43//45 172//45
f 45//46 173//46 44//46
f 172//46 44//46 173//46
f 46//47 174//47 45//47
f 173//47 45//47 174//47
f 47//48 175//48 46//48
f 174//48 46//48 175//48
f 48//49 176//49 47//49
f 175//49 47//49 176//49
f 49//50 177//50 48//50
f 176//50 48//50 177//50
f 50//51 178//51 49//51
f 177//51 49//51 178//51
f 51//52 179//52 50//52
f 178//52 50//52 179//52
f 52//53 180//53 51//53
f 179//53 51//53 180//53
f 53//54 181//54 52//54
f 180//54 52//54 181//54
f 54//55 182//55 53//55
f 181//55 53//55 182//55
f 55//56 183//56 54//56
f 182//56 54//56 183//56
f 56//57 184//57 55//57
f 183//57 55//57 184//57
f 57//58 185//58 56//58
f 184//58 56//58 185//58
f 58//59 186//59 57//59
f 185//59 57//59 186//59
f 59//60 187//60 58//60
f 186//60 58//60 187//60
f 60//61 188//61 59//61
f 187//61 59//61 188//61
f 61//62 189//62 60//62
f 188//62 60//62 189//62
f 62//63 190//63 61//63
f 189//63 61//63 190//63
f 63//64 191//64 62//64
f 190//64 62//64 191//64
f 64//65 192//65 63//65
f 191//65 63//65 192//65
f 65//66 193//66 64//66
f 192//66 64//66 193//66
f 66//67 194//67 65//67
f 193//67 65//67 194//67
f 67//68 195//68 66//68
f 194//68 66//68 195//68
f 68//69 196//69 67//69
f 195//69 67//69 196//69
f 69//70 197//70 68//70
f 196//70 68//70 197//70
f 70//71 198//71 69//71
f 197//71 69//71 198//71
f 71//72 199//72 70//72
f 198//72 70//72 199//72
f 72//73 200//73 71//73
f 199//73 71//73 200//73
f 73//74 201//74 72//74
f 200//74 72//74 201//74
f 74//75 202//75 73//75
f 201//75 73//75 202//75
f 75//76 203//76 74//76
f 202//76 74//76 203//76
f 76//77 204//77 75//77
f 203//77 75//77 204//77
f 77//78 205//78 76//78
f 204//78 76//78 205//78
f 78//79 206//79 77//79
f 205//79 77//79 206//79
f 79//80 207//80 78//80
f 206//80 78//80 207//80
f 80//81 208//81 79//81
f 207//81 79//81 208//81
f 81//82 209//82 80//82
f 208//82 80//82 209//82
f 82//83 210//83 81//83
f 209//83 81//83 210//83
f 83//84 211//84 82//84
f 210//84 82//84 211//84
f 84//85 212//85 83//85
f 211//85 83//85 212//85
f 85//86 213//86 84//86
f 212//86 84//86 213//86
f 86//87 214//87 85//87
f 213//87 85//87 214//87
f 87//88 215//88 86//88
f 214//88 86//88 215//88
f 88//89 216//89 87//89
f 215//89 87//89 216//89
f 89//90 217//90 88//90
f 216//90 88//90 217//90
f 90//91 218//91 89//91
f 217//91 89//91 218//91
f 91//92 219//92 90//92
f 218//92 90//92 219//92
f 92//93 220//93 91//93
f 219//93 91//93 220//93
f 93//94 221//94 92//94
f 220//94 92//94 221//94
f 94//95 222//95 93//95
f 221//95 93//95 222//95
f 95//96 223//96 94//96
f 222//96 94//96 223//96
f 96//97 224//97 95//97
f 223//97 95//97 224//97
f 97//98 225//98 96//98
f 224//98 96//98 225//98
f 98//99 226//99 97//99
f 225//99 97//99 226//99
f 99//100 227//100 98//100
f 226//100 98//100 227//100
f 100//101 228//101 99//101
f 227//101 99//101 228//101
f 101//102 229//102 100//102
f 228//102 100//102 229//102
f 102//103 230//103 101//103
f 229//103 101//103 230//103
f 103//104 231//104 102//104
f 230//104 102//104 231//104
f 104//105 232//105 103//105
f 231//105 103//105 232//105
f 105//106 233//106 104//106
f 232//106 104//106 233//106
f 106//107 234//107 105//107
f 233//107 105//107 234//107
f 107//108 235//108 106//108
f 234//108 106//108 235//108
f 108//109 236//109 107//109
f 235//109 107//109 236//109
f 109//110 237//110 108//110
f 236//110 108//110 237//110
f 110//111 238//111 109//111
f 237//111 109//111 238//111
f 111//112 239//112 110//112
f 238//112 110//112 239//112
f 112//113 240//113 111//113
f 239//113 111//113 240//113
f 113//114 241//114 112//114
f 240//114 112//114 241//114
f 114//115 242//115 113//115
f 241//115 113//115 242//115
f 115//116 243//116 114//116
f 242//116 114//116 243//116
f 116//117 244//117 115//117
f 243//117 115//117 244//117
f 117//118 245//118 116//118
f 244//118 116//118 245//118
f 118//119 246//119 117//119
f 245//119 117//119 246//119
f 119//120 247//120 118//120
f 246//120 118//120 247//120
f 120//121 248//121 119//121
f 247//121 119//121 248//121
f 121//122 249//122 120//122
f 248//122 120//122 249//122
f 122//123 250//123 121//123
f 249//123 121//123 250//123
f 123//124 251//124 122//124
f 250//124 122//124 251//124
f 124//125 252//125 123//125
f 251//125 123//125 252//125
f 125//126 253//126 124//126
f 252//126 124//126 253//126
f 126//127 254//127 125//127
f 253//127 125//127 254//127
f 127//128 255//128 126//128
f 254//128 126//128 255//128
f 128//129 256//129 127//129
f 255//129 127//129 256//129
f 1//130 129//130 128//130
f 256//130 128//130 129//130
