# Blender v2.79 (sub 0) OBJ File: ''
# www.blender.org
mtllib m746.mtl
o m746
v 0.257952 0.142500 0.000934
v 0.208965 0.142620 0.151700
v 0.257952 -0.142500 0.001160
v 0.208965 -0.142380 0.151927
v 0.001452 -0.142500 0.001160
v 0.001452 0.142500 0.000934
v 0.080715 0.142694 0.244879
v 0.080715 -0.142306 0.245106
v -0.077811 0.142694 0.244879
v -0.077811 -0.142306 0.245106
v -0.206061 0.142620 0.151700
v -0.206061 -0.142380 0.151927
v -0.255048 0.142500 0.000934
v -0.255048 -0.142500 0.001160
v -0.206061 0.142380 -0.149833
v -0.206061 -0.142620 -0.149606
v -0.077811 0.142306 -0.243012
v -0.077811 -0.142694 -0.242785
v 0.080715 0.142306 -0.243012
v 0.080715 -0.142694 -0.242785
v 0.208965 0.142380 -0.149833
v 0.208965 -0.142620 -0.149606
v 0.096452 0.332500 0.000782
v 0.078309 0.332544 0.056622
v 0.096452 -0.332500 0.001312
v 0.078309 -0.332455 0.057151
v 0.001452 -0.332500 0.001312
v 0.001452 0.332500 0.000782
v 0.030809 0.332572 0.091133
v 0.030809 -0.332428 0.091662
v -0.027905 0.332572 0.091133
v -0.027905 -0.332428 0.091662
v -0.075405 0.332544 0.056622
v -0.075405 -0.332455 0.057151
v -0.093548 0.332500 0.000782
v -0.093548 -0.332500 0.001312
v -0.075405 0.332455 -0.055057
v -0.075405 -0.332544 -0.054528
v -0.027905 0.332428 -0.089568
v -0.027905 -0.332572 -0.089039
v 0.030809 0.332428 -0.089568
v 0.030809 -0.332572 -0.089039
v 0.078309 0.332455 -0.055057
v 0.078309 -0.332544 -0.054528
v -0.252570 -0.142500 -0.005699
v -0.218909 -0.142500 0.118351
v -0.126943 -0.142500 0.209163
v -0.001316 -0.142500 0.242401
v 0.124311 -0.142500 0.209163
v 0.216276 -0.142500 0.118351
v 0.249938 -0.142500 -0.005699
v 0.216276 -0.142500 -0.129749
v 0.124311 -0.142500 -0.220559
v -0.001316 -0.142500 -0.253799
v -0.126943 -0.142500 -0.220559
v -0.218909 -0.142500 -0.129749
v -0.252570 0.142500 -0.005699
v -0.218909 0.142500 0.118351
v -0.126943 0.142500 0.209163
v -0.001316 0.142500 0.242401
v 0.124311 0.142500 0.209163
v 0.216276 0.142500 0.118351
v 0.249938 0.142500 -0.005699
v 0.216276 0.142500 -0.129749
v 0.124311 0.142500 -0.220559
v -0.001316 0.142500 -0.253799
v -0.126943 0.142500 -0.220559
v -0.218909 0.142500 -0.129748
v -0.466990 0.000000 0.136887
v -0.345775 0.000000 0.342126
v -0.113964 0.000000 0.476047
v 0.120591 0.000000 0.459212
v 0.347037 0.000000 0.344864
v 0.476452 0.000000 0.118523
v 0.460548 0.000000 -0.123786
v 0.346235 0.000000 -0.333550
v 0.132136 0.000000 -0.469294
v -0.128629 0.000000 -0.473953
v -0.343609 0.000000 -0.348348
v -0.473548 0.000000 -0.119511
vn 0.9511 0.0002 0.3090
vn 0.0000 -1.0000 0.0008
vn 0.0000 1.0000 -0.0008
vn 0.5878 0.0006 0.8090
vn 0.0000 0.0008 1.0000
vn -0.5878 0.0006 0.8090
vn -0.9511 0.0002 0.3090
vn -0.9511 -0.0002 -0.3090
vn -0.5878 -0.0006 -0.8090
vn 0.0000 -0.0008 -1.0000
vn 0.5878 -0.0006 -0.8090
vn 0.9511 -0.0002 -0.3090
vn -0.5537 0.0000 -0.8327
vn -0.4863 0.8638 0.1320
vn 0.0745 0.0000 0.9972
vn -0.4863 -0.8638 0.1320
vn -0.8699 0.0000 -0.4932
vn -0.3497 0.8674 0.3541
vn 0.5193 0.0000 0.8546
vn -0.3497 -0.8674 0.3541
vn -0.9988 0.0000 0.0486
vn -0.1249 0.8727 0.4720
vn 0.9008 0.0000 0.4343
vn -0.1249 -0.8727 0.4720
vn -0.8717 0.0000 0.4901
vn 0.1303 0.8606 0.4924
vn 0.9999 0.0000 0.0149
vn 0.1303 -0.8606 0.4924
vn -0.5203 0.0000 0.8540
vn 0.3448 0.8713 0.3491
vn 0.8661 0.0000 -0.5000
vn 0.3448 -0.8713 0.3491
vn -0.0007 0.0000 1.0000
vn 0.4763 0.8697 0.1292
vn 0.4808 0.0000 -0.8768
vn 0.4763 -0.8697 0.1292
vn 0.4891 0.0000 0.8722
vn 0.5017 0.8543 -0.1361
vn 0.0244 0.0000 -0.9997
vn 0.5017 -0.8543 -0.1361
vn 0.8432 0.0000 0.5377
vn 0.3628 0.8564 -0.3674
vn -0.4537 0.0000 -0.8911
vn 0.3628 -0.8564 -0.3674
vn 0.9995 0.0000 0.0314
vn 0.1296 0.8621 -0.4898
vn -0.8502 0.0000 -0.5265
vn 0.1296 -0.8621 -0.4898
vn 0.8657 0.0000 -0.5006
vn -0.1284 0.8648 -0.4855
vn -1.0000 0.0000 0.0067
vn -0.1284 -0.8648 -0.4855
vn 0.5080 0.0000 -0.8613
vn -0.3552 0.8628 -0.3598
vn -0.8686 -0.0000 0.4955
vn -0.3552 -0.8628 -0.3598
vn -0.0402 0.0000 -0.9992
vn -0.4881 0.8627 -0.1324
vn -0.4579 0.0000 0.8890
vn -0.4881 -0.8627 -0.1324
usemtl None
s off
f 1//1 2//1 3//1
f 2//1 4//1 3//1
f 5//2 3//2 4//2
f 6//3 2//3 1//3
f 2//4 7//4 4//4
f 7//4 8//4 4//4
f 5//2 4//2 8//2
f 6//3 7//3 2//3
f 7//5 9//5 8//5
f 9//5 10//5 8//5
f 5//2 8//2 10//2
f 6//3 9//3 7//3
f 9//6 11//6 10//6
f 11//6 12//6 10//6
f 5//2 10//2 12//2
f 6//3 11//3 9//3
f 11//7 13//7 12//7
f 13//7 14//7 12//7
f 5//2 12//2 14//2
f 6//3 13//3 11//3
f 13//8 15//8 14//8
f 15//8 16//8 14//8
f 5//2 14//2 16//2
f 6//3 15//3 13//3
f 15//9 17//9 16//9
f 17//9 18//9 16//9
f 5//2 16//2 18//2
f 6//3 17//3 15//3
f 17//10 19//10 18//10
f 19//10 20//10 18//10
f 5//2 18//2 20//2
f 6//3 19//3 17//3
f 19//11 21//11 20//11
f 21//11 22//11 20//11
f 5//2 20//2 22//2
f 6//3 21//3 19//3
f 21//12 1//12 22//12
f 1//12 3//12 22//12
f 5//2 22//2 3//2
f 6//3 1//3 21//3
f 23//1 24//1 25//1
f 24//1 26//1 25//1
f 27//2 25//2 26//2
f 28//3 24//3 23//3
f 24//4 29//4 26//4
f 29//4 30//4 26//4
f 27//2 26//2 30//2
f 28//3 29//3 24//3
f 29//5 31//5 30//5
f 31//5 32//5 30//5
f 27//2 30//2 32//2
f 28//3 31//3 29//3
f 31//6 33//6 32//6
f 33//6 34//6 32//6
f 27//2 32//2 34//2
f 28//3 33//3 31//3
f 33//7 35//7 34//7
f 35//7 36//7 34//7
f 27//2 34//2 36//2
f 28//3 35//3 33//3
f 35//8 37//8 36//8
f 37//8 38//8 36//8
f 27//2 36//2 38//2
f 28//3 37//3 35//3
f 37//9 39//9 38//9
f 39//9 40//9 38//9
f 27//2 38//2 40//2
f 28//3 39//3 37//3
f 39//10 41//10 40//10
f 41//10 42//10 40//10
f 27//2 40//2 42//2
f 28//3 41//3 39//3
f 41//11 43//11 42//11
f 43//11 44//11 42//11
f 27//2 42//2 44//2
f 28//3 43//3 41//3
f 43//12 23//12 44//12
f 23//12 25//12 44//12
f 27//2 44//2 25//2
f 28//3 23//3 43//3
f 45//13 69//13 57//13
f 57//14 69//14 58//14
f 58//15 69//15 46//15
f 46//16 69//16 45//16
f 46//17 70//17 58//17
f 58//18 70//18 59//18
f 59//19 70//19 47//19
f 47//20 70//20 46//20
f 47//21 71//21 59//21
f 59//22 71//22 60//22
f 60//23 71//23 48//23
f 48//24 71//24 47//24
f 48//25 72//25 60//25
f 60//26 72//26 61//26
f 61//27 72//27 49//27
f 49//28 72//28 48//28
f 49//29 73//29 61//29
f 61//30 73//30 62//30
f 62//31 73//31 50//31
f 50//32 73//32 49//32
f 50//33 74//33 62//33
f 62//34 74//34 63//34
f 63//35 74//35 51//35
f 51//36 74//36 50//36
f 51//37 75//37 63//37
f 63//38 75//38 64//38
f 64//39 75//39 52//39
f 52//40 75//40 51//40
f 52//41 76//41 64//41
f 64//42 76//42 65//42
f 65//43 76//43 53//43
f 53//44 76//44 52//44
f 53//45 77//45 65//45
f 65//46 77//46 66//46
f 66//47 77//47 54//47
f 54//48 77//48 53//48
f 54//49 78//49 66//49
f 66//50 78//50 67//50
f 67//51 78//51 55//51
f 55//52 78//52 54//52
f 55//53 79//53 67//53
f 67//54 79//54 68//54
f 68//55 79//55 56//55
f 56//56 79//56 55//56
f 56//57 80//57 68//57
f 68//58 80//58 57//58
f 57//59 80//59 45//59
f 45//60 80//60 56//60
