# Blender v2.79 (sub 0) OBJ File: ''
# www.blender.org
mtllib m747.mtl
o m747
v -0.011194 0.063960 -0.475000
v -0.081689 0.063960 -0.468056
v -0.071303 0.063960 -0.358463
v -0.139865 0.063960 -0.337665
v -0.192117 0.063960 -0.434559
v -0.254588 0.063960 -0.401168
v -0.203053 0.063960 -0.303891
v -0.258438 0.063960 -0.258438
v -0.343791 0.063960 -0.327960
v -0.388731 0.063960 -0.273203
v -0.303890 0.063960 -0.203053
v -0.337665 0.063960 -0.139865
v -0.443126 0.063960 -0.171433
v -0.463688 0.063960 -0.103647
v -0.358463 0.063960 -0.071303
v -0.365486 0.063960 -0.000000
v -0.475000 0.063960 0.011194
v -0.468056 0.063960 0.081689
v -0.358463 0.063960 0.071303
v -0.337665 0.063960 0.139865
v -0.434559 0.063960 0.192117
v -0.401168 0.063960 0.254588
v -0.303890 0.063960 0.203053
v -0.258438 0.063960 0.258438
v -0.327960 0.063960 0.343791
v -0.273203 0.063960 0.388731
v -0.203053 0.063960 0.303890
v -0.139865 0.063960 0.337665
v -0.171433 0.063960 0.443126
v -0.103647 0.063960 0.463688
v -0.071303 0.063960 0.358463
v -0.000000 0.063960 0.365486
v 0.011194 0.063960 0.475000
v 0.081689 0.063960 0.468056
v 0.071303 0.063960 0.358463
v 0.139865 0.063960 0.337665
v 0.192116 0.063960 0.434559
v 0.254588 0.063960 0.401168
v 0.203053 0.063960 0.303890
v 0.258438 0.063960 0.258438
v 0.343791 0.063960 0.327960
v 0.388731 0.063960 0.273203
v 0.303891 0.063960 0.203053
v 0.337665 0.063960 0.139865
v 0.443126 0.063960 0.171433
v 0.463688 0.063960 0.103647
v 0.358463 0.063960 0.071303
v 0.365486 0.063960 -0.000000
v 0.475000 0.063960 -0.011194
v 0.468056 0.063960 -0.081689
v 0.358463 0.063960 -0.071303
v 0.337665 0.063960 -0.139865
v 0.434559 0.063960 -0.192116
v 0.401168 0.063960 -0.254588
v 0.303891 0.063960 -0.203053
v 0.258438 0.063960 -0.258438
v 0.327960 0.063960 -0.343791
v 0.273203 0.063960 -0.388731
v 0.203053 0.063960 -0.303891
v 0.139865 0.063960 -0.337665
v 0.171433 0.063960 -0.443126
v 0.103647 0.063960 -0.463688
v 0.071303 0.063960 -0.358463
v -0.000000 0.063960 -0.365486
v -0.011194 -0.063960 -0.475000
v -0.081689 -0.063960 -0.468056
v -0.071303 -0.063960 -0.358463
v -0.139865 -0.063960 -0.337665
v -0.192117 -0.063960 -0.434559
v -0.254588 -0.063960 -0.401168
v -0.203053 -0.063960 -0.303891
v -0.258438 -0.063960 -0.258438
v -0.343791 -0.063960 -0.327960
v -0.388731 -0.063960 -0.273203
v -0.303890 -0.063960 -0.203053
v -0.337665 -0.063960 -0.139865
v -0.443126 -0.063960 -0.171433
v -0.463688 -0.063960 -0.103647
v -0.358463 -0.063960 -0.071303
v -0.365486 -0.063960 -0.000000
v -0.475000 -0.063960 0.011194
v -0.468056 -0.063960 0.081689
v -0.358463 -0.063960 0.071303
v -0.337665 -0.063960 0.139865
v -0.434559 -0.063960 0.192117
v -0.401168 -0.063960 0.254588
v -0.303890 -0.063960 0.203053
v -0.258438 -0.063960 0.258438
v -0.327960 -0.063960 0.343791
v -0.273203 -0.063960 0.388731
v -0.203053 -0.063960 0.303890
v -0.139865 -0.063960 0.337665
v -0.171433 -0.063960 0.443126
v -0.103647 -0.063960 0.463688
v -0.071303 -0.063960 0.358463
v -0.000000 -0.063960 0.365486
v 0.011194 -0.063960 0.475000
v 0.081689 -0.063960 0.468056
v 0.071303 -0.063960 0.358463
v 0.139865 -0.063960 0.337665
v 0.192116 -0.063960 0.434559
v 0.254588 -0.063960 0.401168
v 0.203053 -0.063960 0.303890
v 0.258438 -0.063960 0.258438
v 0.343791 -0.063960 0.327960
v 0.388731 -0.063960 0.273203
v 0.303891 -0.063960 0.203053
v 0.337665 -0.063960 0.139865
v 0.443126 -0.063960 0.171433
v 0.463688 -0.063960 0.103647
v 0.358463 -0.063960 0.071303
v 0.365486 -0.063960 -0.000000
v 0.475000 -0.063960 -0.011194
v 0.468056 -0.063960 -0.081689
v 0.358463 -0.063960 -0.071303
v 0.337665 -0.063960 -0.139865
v 0.434559 -0.063960 -0.192116
v 0.401168 -0.063960 -0.254588
v 0.303891 -0.063960 -0.203053
v 0.258438 -0.063960 -0.258438
v 0.327960 -0.063960 -0.343791
v 0.273203 -0.063960 -0.388731
v 0.203053 -0.063960 -0.303891
v 0.139865 -0.063960 -0.337665
v 0.171433 -0.063960 -0.443126
v 0.103647 -0.063960 -0.463688
v 0.071303 -0.063960 -0.358463
v -0.000000 -0.063960 -0.365486
vn 0.9948 0.0000 -0.1017
vn 0.0980 0.0000 -0.9952
vn -0.9559 0.0000 -0.2938
vn 0.2903 0.0000 -0.9569
vn 0.9580 0.0000 0.2868
vn 0.4714 0.0000 -0.8819
vn -0.7707 0.0000 -0.6372
vn 0.6344 0.0000 -0.7730
vn 0.7753 0.0000 0.6315
vn 0.7730 0.0000 -0.6344
vn -0.4681 0.0000 -0.8837
vn 0.8819 0.0000 -0.4714
vn 0.4746 0.0000 0.8802
vn 0.9569 0.0000 -0.2903
vn -0.0943 0.0000 -0.9955
vn 0.9952 0.0000 -0.0980
vn 0.1017 0.0000 0.9948
vn 0.9952 0.0000 0.0980
vn 0.2938 0.0000 -0.9559
vn 0.9569 0.0000 0.2903
vn -0.2868 0.0000 0.9580
vn 0.8819 0.0000 0.4714
vn 0.6372 0.0000 -0.7707
vn 0.7730 0.0000 0.6344
vn -0.6315 0.0000 0.7753
vn 0.6344 0.0000 0.7730
vn 0.8837 0.0000 -0.4681
vn 0.4714 0.0000 0.8819
vn -0.8802 0.0000 0.4746
vn 0.2903 0.0000 0.9569
vn 0.9955 0.0000 -0.0943
vn 0.0980 0.0000 0.9952
vn -0.9948 0.0000 0.1017
vn -0.0980 0.0000 0.9952
vn 0.9559 0.0000 0.2938
vn -0.2903 0.0000 0.9569
vn -0.9580 0.0000 -0.2868
vn -0.4714 0.0000 0.8819
vn 0.7707 0.0000 0.6372
vn -0.6344 0.0000 0.7730
vn -0.7753 0.0000 -0.6315
vn -0.7730 0.0000 0.6344
vn 0.4681 0.0000 0.8837
vn -0.8819 0.0000 0.4714
vn -0.4747 0.0000 -0.8802
vn -0.9569 0.0000 0.2903
vn 0.0943 0.0000 0.9955
vn -0.9952 0.0000 0.0980
vn -0.1017 0.0000 -0.9948
vn -0.9952 0.0000 -0.0980
vn -0.2938 0.0000 0.9559
vn -0.9569 0.0000 -0.2903
vn 0.2868 0.0000 -0.9580
vn -0.8819 0.0000 -0.4714
vn -0.6372 0.0000 0.7707
vn -0.7730 0.0000 -0.6344
vn 0.6315 0.0000 -0.7753
vn -0.6344 0.0000 -0.7730
vn -0.8837 0.0000 0.4681
vn -0.4714 0.0000 -0.8819
vn 0.8802 0.0000 -0.4747
vn -0.2903 0.0000 -0.9569
vn -0.9955 0.0000 0.0943
vn -0.0980 0.0000 -0.9952
vn 0.0000 1.0000 0.0000
vn 0.0000 -1.0000 -0.0000
usemtl None
s off
f 128//1 65//1 1//1
f 1//1 64//1 128//1
f 127//2 128//2 64//2
f 64//2 63//2 127//2
f 126//3 127//3 63//3
f 63//3 62//3 126//3
f 125//4 126//4 62//4
f 62//4 61//4 125//4
f 124//5 125//5 61//5
f 61//5 60//5 124//5
f 123//6 124//6 60//6
f 60//6 59//6 123//6
f 122//7 123//7 59//7
f 59//7 58//7 122//7
f 121//8 122//8 58//8
f 58//8 57//8 121//8
f 120//9 121//9 57//9
f 57//9 56//9 120//9
f 119//10 120//10 56//10
f 56//10 55//10 119//10
f 118//11 119//11 55//11
f 55//11 54//11 118//11
f 117//12 118//12 54//12
f 54//12 53//12 117//12
f 116//13 117//13 53//13
f 53//13 52//13 116//13
f 115//14 116//14 52//14
f 52//14 51//14 115//14
f 114//15 115//15 51//15
f 51//15 50//15 114//15
f 113//16 114//16 50//16
f 50//16 49//16 113//16
f 112//17 113//17 49//17
f 49//17 48//17 112//17
f 111//18 112//18 48//18
f 48//18 47//18 111//18
f 110//19 111//19 47//19
f 47//19 46//19 110//19
f 109//20 110//20 46//20
f 46//20 45//20 109//20
f 108//21 109//21 45//21
f 45//21 44//21 108//21
f 107//22 108//22 44//22
f 44//22 43//22 107//22
f 106//23 107//23 43//23
f 43//23 42//23 106//23
f 105//24 106//24 42//24
f 42//24 41//24 105//24
f 104//25 105//25 41//25
f 41//25 40//25 104//25
f 103//26 104//26 40//26
f 40//26 39//26 103//26
f 102//27 103//27 39//27
f 39//27 38//27 102//27
f 101//28 102//28 38//28
f 38//28 37//28 101//28
f 100//29 101//29 37//29
f 37//29 36//29 100//29
f 99//30 100//30 36//30
f 36//30 35//30 99//30
f 98//31 99//31 35//31
f 35//31 34//31 98//31
f 97//32 98//32 34//32
f 34//32 33//32 97//32
f 96//33 97//33 33//33
f 33//33 32//33 96//33
f 95//34 96//34 32//34
f 32//34 31//34 95//34
f 94//35 95//35 31//35
f 31//35 30//35 94//35
f 93//36 94//36 30//36
f 30//36 29//36 93//36
f 92//37 93//37 29//37
f 29//37 28//37 92//37
f 91//38 92//38 28//38
f 28//38 27//38 91//38
f 90//39 91//39 27//39
f 27//39 26//39 90//39
f 89//40 90//40 26//40
f 26//40 25//40 89//40
f 88//41 89//41 25//41
f 25//41 24//41 88//41
f 87//42 88//42 24//42
f 24//42 23//42 87//42
f 86//43 87//43 23//43
f 23//43 22//43 86//43
f 85//44 86//44 22//44
f 22//44 21//44 85//44
f 84//45 85//45 21//45
f 21//45 20//45 84//45
f 83//46 84//46 20//46
f 20//46 19//46 83//46
f 82//47 83//47 19//47
f 19//47 18//47 82//47
f 81//48 82//48 18//48
f 18//48 17//48 81//48
f 80//49 81//49 17//49
f 17//49 16//49 80//49
f 79//50 80//50 16//50
f 16//50 15//50 79//50
f 78//51 79//51 15//51
f 15//51 14//51 78//51
f 77//52 78//52 14//52
f 14//52 13//52 77//52
f 76//53 77//53 13//53
f 13//53 12//53 76//53
f 75//54 76//54 12//54
f 12//54 11//54 75//54
f 74//55 75//55 11//55
f 11//55 10//55 74//55
f 73//56 74//56 10//56
f 10//56 9//56 73//56
f 72//57 73//57 9//57
f 9//57 8//57 72//57
f 71//58 72//58 8//58
f 8//58 7//58 71//58
f 70//59 71//59 7//59
f 7//59 6//59 70//59
f 69//60 70//60 6//60
f 6//60 5//60 69//60
f 68//61 69//61 5//61
f 5//61 4//61 68//61
f 67//62 68//62 4//62
f 4//62 3//62 67//62
f 66//63 67//63 3//63
f 3//63 2//63 66//63
f 65//64 66//64 2//64
f 2//64 1//64 65//64
f 50//65 51//65 49//65
f 13//65 14//65 12//65
f 29//65 30//65 28//65
f 34//65 35//65 33//65
f 18//65 19//65 17//65
f 46//65 47//65 45//65
f 2//65 3//65 1//65
f 25//65 26//65 24//65
f 41//65 42//65 40//65
f 57//65 58//65 56//65
f 6//65 7//65 5//65
f 22//65 23//65 21//65
f 62//65 63//65 61//65
f 9//65 10//65 8//65
f 38//65 39//65 37//65
f 54//65 55//65 53//65
f 45//65 47//65 44//65
f 1//65 3//65 64//65
f 49//65 51//65 48//65
f 33//65 35//65 32//65
f 17//65 19//65 16//65
f 61//65 63//65 60//65
f 14//65 15//65 12//65
f 30//65 31//65 28//65
f 5//65 7//65 4//65
f 21//65 23//65 20//65
f 37//65 39//65 36//65
f 53//65 55//65 52//65
f 10//65 11//65 8//65
f 26//65 27//65 24//65
f 42//65 43//65 40//65
f 58//65 59//65 56//65
f 47//65 48//65 44//65
f 48//65 51//65 44//65
f 51//65 52//65 44//65
f 44//65 52//65 43//65
f 43//65 52//65 40//65
f 52//65 55//65 40//65
f 55//65 56//65 40//65
f 40//65 56//65 39//65
f 39//65 56//65 36//65
f 36//65 56//65 35//65
f 35//65 56//65 32//65
f 32//65 56//65 31//65
f 31//65 56//65 28//65
f 28//65 56//65 27//65
f 27//65 56//65 24//65
f 24//65 56//65 23//65
f 23//65 56//65 20//65
f 20//65 56//65 19//65
f 19//65 56//65 16//65
f 16//65 56//65 15//65
f 15//65 56//65 12//65
f 12//65 56//65 11//65
f 56//65 59//65 11//65
f 59//65 60//65 11//65
f 60//65 63//65 11//65
f 63//65 64//65 11//65
f 11//65 64//65 8//65
f 64//65 3//65 8//65
f 3//65 4//65 8//65
f 7//65 8//65 4//65
f 114//66 113//66 115//66
f 93//66 92//66 94//66
f 77//66 76//66 78//66
f 98//66 97//66 99//66
f 82//66 81//66 83//66
f 110//66 109//66 111//66
f 66//66 65//66 67//66
f 121//66 120//66 122//66
f 105//66 104//66 106//66
f 89//66 88//66 90//66
f 86//66 85//66 87//66
f 70//66 69//66 71//66
f 126//66 125//66 127//66
f 73//66 72//66 74//66
f 118//66 117//66 119//66
f 102//66 101//66 103//66
f 109//66 108//66 111//66
f 65//66 128//66 67//66
f 113//66 112//66 115//66
f 97//66 96//66 99//66
f 81//66 80//66 83//66
f 125//66 124//66 127//66
f 94//66 92//66 95//66
f 78//66 76//66 79//66
f 117//66 116//66 119//66
f 101//66 100//66 103//66
f 85//66 84//66 87//66
f 69//66 68//66 71//66
f 122//66 120//66 123//66
f 106//66 104//66 107//66
f 90//66 88//66 91//66
f 74//66 72//66 75//66
f 111//66 108//66 112//66
f 112//66 108//66 115//66
f 115//66 108//66 116//66
f 116//66 108//66 119//66
f 119//66 108//66 120//66
f 108//66 107//66 120//66
f 107//66 104//66 120//66
f 120//66 104//66 123//66
f 123//66 104//66 124//66
f 124//66 104//66 127//66
f 127//66 104//66 128//66
f 128//66 104//66 67//66
f 67//66 104//66 68//66
f 68//66 104//66 71//66
f 71//66 104//66 72//66
f 104//66 103//66 72//66
f 103//66 100//66 72//66
f 100//66 99//66 72//66
f 99//66 96//66 72//66
f 96//66 95//66 72//66
f 95//66 92//66 72//66
f 92//66 91//66 72//66
f 72//66 91//66 75//66
f 75//66 91//66 76//66
f 76//66 91//66 79//66
f 79//66 91//66 80//66
f 91//66 88//66 80//66
f 80//66 88//66 83//66
f 87//66 84//66 88//66
f 84//66 83//66 88//66
