# Blender v2.79 (sub 0) OBJ File: ''
# www.blender.org
mtllib m755.mtl
o m755
v 0.000000 0.000027 0.627023
v 0.085396 -0.062066 0.099251
v 0.105555 -0.000022 0.099245
v 0.000000 -0.000022 0.099245
v 0.032618 -0.100411 0.099255
v -0.032619 -0.100411 0.099255
v -0.085396 -0.062066 0.099251
v -0.105555 -0.000022 0.099245
v -0.085396 0.062022 0.099239
v -0.032619 0.100367 0.099236
v 0.032618 0.100367 0.099236
v 0.085396 0.062022 0.099239
v 0.000000 0.000002 -0.164644
v 0.000000 0.048930 -0.156894
v -0.028759 0.039586 -0.156894
v -0.046533 0.015122 -0.156894
v -0.046533 -0.015117 -0.156894
v -0.028759 -0.039581 -0.156894
v 0.000000 -0.048925 -0.156894
v 0.028759 -0.039581 -0.156894
v 0.046533 -0.015117 -0.156894
v 0.046533 0.015122 -0.156894
v 0.028759 0.039586 -0.156894
v 0.000000 0.093068 -0.134405
v -0.054703 0.075294 -0.134405
v -0.088511 0.028761 -0.134405
v -0.088511 -0.028757 -0.134405
v -0.054703 -0.075290 -0.134405
v 0.000000 -0.093063 -0.134405
v 0.054703 -0.075290 -0.134405
v 0.088511 -0.028757 -0.134405
v 0.088511 0.028761 -0.134405
v 0.054703 0.075294 -0.134405
v 0.000000 0.128097 -0.099376
v -0.075292 0.103633 -0.099376
v -0.121825 0.039586 -0.099376
v -0.121825 -0.039581 -0.099376
v -0.075292 -0.103628 -0.099376
v 0.000000 -0.128092 -0.099376
v 0.075292 -0.103628 -0.099376
v 0.121825 -0.039581 -0.099376
v 0.121825 0.039586 -0.099376
v 0.075292 0.103633 -0.099376
v 0.000000 0.150586 -0.055238
v -0.088511 0.121827 -0.055238
v -0.143214 0.046535 -0.055238
v -0.143214 -0.046531 -0.055238
v -0.088511 -0.121822 -0.055238
v 0.000000 -0.150581 -0.055238
v 0.088511 -0.121822 -0.055238
v 0.143214 -0.046531 -0.055238
v 0.143214 0.046535 -0.055238
v 0.088511 0.121827 -0.055238
v 0.000000 0.158336 -0.006310
v -0.093066 0.128097 -0.006310
v -0.150584 0.048930 -0.006310
v -0.150584 -0.048925 -0.006310
v -0.093066 -0.128092 -0.006310
v 0.000000 -0.158331 -0.006310
v 0.093066 -0.128092 -0.006310
v 0.150584 -0.048925 -0.006310
v 0.150584 0.048930 -0.006310
v 0.093066 0.128097 -0.006310
v 0.000000 0.150586 0.042617
v -0.088511 0.121827 0.042617
v -0.143214 0.046535 0.042617
v -0.143214 -0.046531 0.042617
v -0.088511 -0.121822 0.042617
v 0.000000 -0.150581 0.042617
v 0.088511 -0.121822 0.042617
v 0.143214 -0.046531 0.042617
v 0.143214 0.046535 0.042617
v 0.088511 0.121827 0.042617
v 0.000000 0.128097 0.086756
v -0.075292 0.103633 0.086756
v -0.121825 0.039586 0.086756
v -0.121825 -0.039581 0.086756
v -0.075292 -0.103628 0.086756
v 0.000000 -0.128092 0.086756
v 0.075292 -0.103628 0.086756
v 0.121825 -0.039581 0.086756
v 0.121825 0.039586 0.086756
v 0.075292 0.103633 0.086756
v 0.000000 0.093068 0.121784
v -0.054703 0.075294 0.121784
v -0.088511 0.028761 0.121784
v -0.088511 -0.028757 0.121784
v -0.054703 -0.075290 0.121784
v 0.000000 -0.093063 0.121784
v 0.054703 -0.075290 0.121784
v 0.088511 -0.028757 0.121784
v 0.088511 0.028761 0.121784
v 0.054703 0.075294 0.121784
v 0.000000 0.048930 0.144274
v -0.028759 0.039586 0.144274
v -0.046533 0.015122 0.144274
v -0.046533 -0.015117 0.144274
v -0.028759 -0.039581 0.144274
v 0.000000 -0.048925 0.144274
v 0.028759 -0.039581 0.144274
v 0.046533 -0.015117 0.144274
v 0.046533 0.015122 0.144274
v 0.028759 0.039586 0.144274
v 0.000000 0.000002 0.152023
v 0.000000 0.000002 -0.322977
v 0.000000 0.048930 -0.315228
v -0.028759 0.039586 -0.315228
v -0.046533 0.015122 -0.315228
v -0.046533 -0.015117 -0.315228
v -0.028759 -0.039581 -0.315228
v 0.000000 -0.048925 -0.315228
v 0.028759 -0.039581 -0.315228
v 0.046533 -0.015117 -0.315228
v 0.046533 0.015122 -0.315228
v 0.028759 0.039586 -0.315228
v 0.000000 0.093068 -0.292738
v -0.054703 0.075294 -0.292738
v -0.088511 0.028761 -0.292738
v -0.088511 -0.028757 -0.292738
v -0.054703 -0.075290 -0.292738
v 0.000000 -0.093063 -0.292738
v 0.054703 -0.075290 -0.292738
v 0.088511 -0.028757 -0.292738
v 0.088511 0.028761 -0.292738
v 0.054703 0.075294 -0.292738
v 0.000000 0.128097 -0.257710
v -0.075292 0.103633 -0.257710
v -0.121825 0.039586 -0.257710
v -0.121825 -0.039581 -0.257710
v -0.075292 -0.103628 -0.257710
v 0.000000 -0.128092 -0.257710
v 0.075292 -0.103628 -0.257710
v 0.121825 -0.039581 -0.257710
v 0.121825 0.039586 -0.257710
v 0.075292 0.103633 -0.257710
v 0.000000 0.150586 -0.213571
v -0.088511 0.121827 -0.213571
v -0.143214 0.046535 -0.213571
v -0.143214 -0.046531 -0.213571
v -0.088511 -0.121822 -0.213571
v 0.000000 -0.150581 -0.213571
v 0.088511 -0.121822 -0.213571
v 0.143214 -0.046531 -0.213571
v 0.143214 0.046535 -0.213571
v 0.088511 0.121827 -0.213571
v 0.000000 0.158336 -0.164644
v -0.093066 0.128097 -0.164644
v -0.150584 0.048930 -0.164644
v -0.150584 -0.048925 -0.164644
v -0.093066 -0.128092 -0.164644
v 0.000000 -0.158331 -0.164644
v 0.093066 -0.128092 -0.164644
v 0.150584 -0.048925 -0.164644
v 0.150584 0.048930 -0.164644
v 0.093066 0.128097 -0.164644
v 0.000000 0.150586 -0.115716
v -0.088511 0.121827 -0.115716
v -0.143214 0.046535 -0.115716
v -0.143214 -0.046531 -0.115716
v -0.088511 -0.121822 -0.115716
v 0.000000 -0.150581 -0.115716
v 0.088511 -0.121822 -0.115716
v 0.143214 -0.046531 -0.115716
v 0.143214 0.046535 -0.115716
v 0.088511 0.121827 -0.115716
v 0.000000 0.128097 -0.071578
v -0.075292 0.103633 -0.071578
v -0.121825 0.039586 -0.071578
v -0.121825 -0.039581 -0.071578
v -0.075292 -0.103628 -0.071578
v 0.000000 -0.128092 -0.071578
v 0.075292 -0.103628 -0.071578
v 0.121825 -0.039581 -0.071578
v 0.121825 0.039586 -0.071578
v 0.075292 0.103633 -0.071578
v 0.000000 0.093068 -0.036549
v -0.054703 0.075294 -0.036549
v -0.088511 0.028761 -0.036549
v -0.088511 -0.028757 -0.036549
v -0.054703 -0.075290 -0.036549
v 0.000000 -0.093063 -0.036549
v 0.054703 -0.075290 -0.036549
v 0.088511 -0.028757 -0.036549
v 0.088511 0.028761 -0.036549
v 0.054703 0.075294 -0.036549
v 0.000000 0.048930 -0.014060
v -0.028759 0.039586 -0.014060
v -0.046533 0.015122 -0.014060
v -0.046533 -0.015117 -0.014060
v -0.028759 -0.039581 -0.014060
v 0.000000 -0.048925 -0.014060
v 0.028759 -0.039581 -0.014060
v 0.046533 -0.015117 -0.014060
v 0.046533 0.015122 -0.014060
v 0.028759 0.039586 -0.014060
v 0.000000 0.000002 -0.006310
vn 0.9343 -0.3036 0.1869
vn 0.0000 -0.0001 -1.0000
vn 0.5774 -0.7947 0.1869
vn 0.0000 -0.9824 0.1870
vn -0.5774 -0.7947 0.1869
vn -0.9343 -0.3036 0.1869
vn -0.9343 0.3036 0.1868
vn -0.5774 0.7948 0.1868
vn 0.0000 0.9824 0.1868
vn 0.5774 0.7948 0.1868
vn 0.9343 0.3036 0.1868
vn -0.0508 0.1562 -0.9864
vn -0.1329 0.0966 -0.9864
vn -0.1643 0.0000 -0.9864
vn -0.1329 -0.0966 -0.9864
vn -0.0508 -0.1562 -0.9864
vn 0.0508 -0.1562 -0.9864
vn 0.1329 -0.0966 -0.9864
vn 0.1643 0.0000 -0.9864
vn 0.1329 0.0966 -0.9864
vn 0.0508 0.1562 -0.9864
vn -0.1459 0.4491 -0.8815
vn -0.3820 0.2776 -0.8815
vn -0.4722 0.0000 -0.8815
vn -0.3820 -0.2776 -0.8815
vn -0.1459 -0.4491 -0.8815
vn 0.1459 -0.4491 -0.8815
vn 0.3820 -0.2776 -0.8815
vn 0.4722 0.0000 -0.8815
vn 0.3820 0.2776 -0.8815
vn 0.1459 0.4491 -0.8815
vn -0.2239 0.6892 -0.6892
vn -0.2239 0.6892 -0.6891
vn -0.5862 0.4259 -0.6891
vn -0.7246 0.0000 -0.6891
vn -0.5862 -0.4259 -0.6891
vn -0.2239 -0.6892 -0.6891
vn 0.2239 -0.6892 -0.6891
vn 0.5862 -0.4259 -0.6891
vn 0.7246 0.0000 -0.6891
vn 0.5862 0.4259 -0.6892
vn 0.5862 0.4259 -0.6891
vn 0.2239 0.6892 -0.6891
vn 0.2239 0.6892 -0.6892
vn -0.2781 0.8559 -0.4361
vn -0.7280 0.5290 -0.4361
vn -0.8999 0.0000 -0.4361
vn -0.7280 -0.5289 -0.4361
vn -0.7280 -0.5290 -0.4361
vn -0.2781 -0.8559 -0.4361
vn 0.2781 -0.8559 -0.4361
vn 0.7280 -0.5290 -0.4361
vn 0.8999 0.0000 -0.4361
vn 0.7280 0.5290 -0.4361
vn 0.2781 0.8559 -0.4361
vn -0.3056 0.9404 -0.1490
vn -0.8000 0.5812 -0.1490
vn -0.9888 0.0000 -0.1490
vn -0.8000 -0.5812 -0.1489
vn -0.8000 -0.5812 -0.1490
vn -0.3056 -0.9404 -0.1490
vn 0.3056 -0.9404 -0.1490
vn 0.8000 -0.5812 -0.1490
vn 0.8000 -0.5812 -0.1489
vn 0.9888 0.0000 -0.1489
vn 0.8000 0.5812 -0.1490
vn 0.3056 0.9404 -0.1490
vn -0.3056 0.9404 0.1490
vn -0.8000 0.5812 0.1490
vn -0.9888 0.0000 0.1490
vn -0.8000 -0.5812 0.1489
vn -0.8000 -0.5812 0.1490
vn -0.3056 -0.9404 0.1490
vn 0.3056 -0.9404 0.1490
vn 0.8000 -0.5812 0.1490
vn 0.8000 -0.5812 0.1489
vn 0.9888 0.0000 0.1490
vn 0.8000 0.5812 0.1490
vn 0.3056 0.9404 0.1490
vn -0.2781 0.8559 0.4361
vn -0.7280 0.5290 0.4361
vn -0.8999 0.0000 0.4361
vn -0.7280 -0.5290 0.4361
vn -0.2781 -0.8559 0.4361
vn 0.2781 -0.8559 0.4361
vn 0.7280 -0.5290 0.4361
vn 0.8999 0.0000 0.4361
vn 0.7280 0.5290 0.4361
vn 0.2781 0.8559 0.4361
vn -0.2239 0.6891 0.6892
vn -0.5862 0.4259 0.6892
vn -0.7246 0.0000 0.6892
vn -0.5862 -0.4259 0.6892
vn -0.2239 -0.6892 0.6892
vn -0.2239 -0.6891 0.6892
vn 0.2239 -0.6891 0.6892
vn 0.2239 -0.6892 0.6892
vn 0.5862 -0.4259 0.6892
vn 0.7246 0.0000 0.6892
vn 0.5862 0.4259 0.6892
vn 0.2239 0.6891 0.6892
vn -0.1459 0.4491 0.8815
vn -0.3821 0.2776 0.8815
vn -0.4722 0.0000 0.8815
vn -0.3821 -0.2776 0.8815
vn -0.1459 -0.4491 0.8815
vn 0.1459 -0.4491 0.8815
vn 0.3821 -0.2776 0.8815
vn 0.4723 0.0000 0.8815
vn 0.4722 0.0000 0.8815
vn 0.3821 0.2776 0.8815
vn 0.1459 0.4491 0.8815
vn -0.0508 0.1562 0.9864
vn -0.1329 0.0966 0.9864
vn -0.1643 0.0000 0.9864
vn -0.1329 -0.0966 0.9864
vn -0.0508 -0.1562 0.9864
vn 0.0508 -0.1562 0.9864
vn 0.1329 -0.0966 0.9864
vn 0.1643 0.0000 0.9864
vn 0.1329 0.0966 0.9864
vn 0.0508 0.1562 0.9864
vn -0.3821 0.2776 -0.8815
vn -0.4723 0.0000 -0.8815
vn -0.3821 -0.2776 -0.8815
vn 0.3821 -0.2776 -0.8815
vn 0.4723 0.0000 -0.8815
vn 0.3821 0.2776 -0.8815
vn -0.2239 0.6891 -0.6892
vn -0.5862 0.4259 -0.6892
vn -0.7246 0.0000 -0.6892
vn -0.5862 -0.4259 -0.6892
vn -0.2239 -0.6892 -0.6892
vn -0.2239 -0.6891 -0.6892
vn 0.2239 -0.6891 -0.6892
vn 0.2239 -0.6892 -0.6892
vn 0.5862 -0.4259 -0.6892
vn 0.7246 0.0000 -0.6892
vn 0.2239 0.6891 -0.6892
vn 0.9888 0.0000 -0.1490
vn 0.9888 0.0000 0.1489
vn 0.7280 -0.5289 0.4361
vn -0.2239 0.6892 0.6892
vn -0.2239 0.6892 0.6891
vn -0.5862 0.4259 0.6891
vn -0.7246 0.0000 0.6891
vn -0.5862 -0.4259 0.6891
vn -0.2239 -0.6892 0.6891
vn 0.2239 -0.6892 0.6891
vn 0.5862 -0.4259 0.6891
vn 0.7246 0.0000 0.6891
vn 0.5862 0.4259 0.6891
vn 0.2239 0.6892 0.6891
vn 0.2239 0.6892 0.6892
vn -0.3820 0.2776 0.8815
vn -0.3820 -0.2776 0.8815
vn 0.3820 -0.2776 0.8815
vn 0.3820 0.2776 0.8815
usemtl None
s off
f 1//1 2//1 3//1
f 4//2 3//2 2//2
f 1//3 5//3 2//3
f 4//2 2//2 5//2
f 1//4 6//4 5//4
f 4//2 5//2 6//2
f 1//5 7//5 6//5
f 4//2 6//2 7//2
f 1//6 8//6 7//6
f 4//2 7//2 8//2
f 1//7 9//7 8//7
f 4//2 8//2 9//2
f 1//8 10//8 9//8
f 4//2 9//2 10//2
f 1//9 11//9 10//9
f 4//2 10//2 11//2
f 1//10 12//10 11//10
f 4//2 11//2 12//2
f 1//11 3//11 12//11
f 4//2 12//2 3//2
f 14//12 13//12 15//12
f 15//13 13//13 16//13
f 16//14 13//14 17//14
f 17//15 13//15 18//15
f 18//16 13//16 19//16
f 19//17 13//17 20//17
f 20//18 13//18 21//18
f 21//19 13//19 22//19
f 22//20 13//20 23//20
f 23//21 13//21 14//21
f 14//22 15//22 24//22
f 24//22 15//22 25//22
f 15//23 16//23 25//23
f 25//23 16//23 26//23
f 16//24 17//24 26//24
f 26//24 17//24 27//24
f 17//25 18//25 27//25
f 27//25 18//25 28//25
f 18//26 19//26 28//26
f 28//26 19//26 29//26
f 19//27 20//27 29//27
f 29//27 20//27 30//27
f 20//28 21//28 30//28
f 30//28 21//28 31//28
f 21//29 22//29 31//29
f 31//29 22//29 32//29
f 22//30 23//30 32//30
f 32//30 23//30 33//30
f 23//31 14//31 33//31
f 33//31 14//31 24//31
f 24//32 25//32 34//32
f 34//33 25//33 35//33
f 25//34 26//34 35//34
f 35//34 26//34 36//34
f 26//35 27//35 36//35
f 36//35 27//35 37//35
f 27//36 28//36 37//36
f 37//36 28//36 38//36
f 28//37 29//37 38//37
f 38//37 29//37 39//37
f 29//38 30//38 39//38
f 39//38 30//38 40//38
f 30//39 31//39 40//39
f 40//39 31//39 41//39
f 31//40 32//40 41//40
f 41//40 32//40 42//40
f 32//41 33//41 42//41
f 42//42 33//42 43//42
f 33//43 24//43 43//43
f 43//44 24//44 34//44
f 34//45 35//45 44//45
f 44//45 35//45 45//45
f 35//46 36//46 45//46
f 45//46 36//46 46//46
f 36//47 37//47 46//47
f 46//47 37//47 47//47
f 37//48 38//48 47//48
f 47//49 38//49 48//49
f 38//50 39//50 48//50
f 48//50 39//50 49//50
f 39//51 40//51 49//51
f 49//51 40//51 50//51
f 40//52 41//52 50//52
f 50//52 41//52 51//52
f 41//53 42//53 51//53
f 51//53 42//53 52//53
f 42//54 43//54 52//54
f 52//54 43//54 53//54
f 43//55 34//55 53//55
f 53//55 34//55 44//55
f 44//56 45//56 54//56
f 54//56 45//56 55//56
f 45//57 46//57 55//57
f 55//57 46//57 56//57
f 46//58 47//58 56//58
f 56//58 47//58 57//58
f 47//59 48//59 57//59
f 57//60 48//60 58//60
f 48//61 49//61 58//61
f 58//61 49//61 59//61
f 49//62 50//62 59//62
f 59//62 50//62 60//62
f 50//63 51//63 60//63
f 60//64 51//64 61//64
f 51//65 52//65 61//65
f 61//65 52//65 62//65
f 52//66 53//66 62//66
f 62//66 53//66 63//66
f 53//67 44//67 63//67
f 63//67 44//67 54//67
f 54//68 55//68 64//68
f 64//68 55//68 65//68
f 55//69 56//69 65//69
f 65//69 56//69 66//69
f 56//70 57//70 66//70
f 66//70 57//70 67//70
f 57//71 58//71 67//71
f 67//72 58//72 68//72
f 58//73 59//73 68//73
f 68//73 59//73 69//73
f 59//74 60//74 69//74
f 69//74 60//74 70//74
f 60//75 61//75 70//75
f 70//76 61//76 71//76
f 61//77 62//77 71//77
f 71//77 62//77 72//77
f 62//78 63//78 72//78
f 72//78 63//78 73//78
f 63//79 54//79 73//79
f 73//79 54//79 64//79
f 64//80 65//80 74//80
f 74//80 65//80 75//80
f 65//81 66//81 75//81
f 75//81 66//81 76//81
f 66//82 67//82 76//82
f 76//82 67//82 77//82
f 67//83 68//83 77//83
f 77//83 68//83 78//83
f 68//84 69//84 78//84
f 78//84 69//84 79//84
f 69//85 70//85 79//85
f 79//85 70//85 80//85
f 70//86 71//86 80//86
f 80//86 71//86 81//86
f 71//87 72//87 81//87
f 81//87 72//87 82//87
f 72//88 73//88 82//88
f 82//88 73//88 83//88
f 73//89 64//89 83//89
f 83//89 64//89 74//89
f 74//90 75//90 84//90
f 84//90 75//90 85//90
f 75//91 76//91 85//91
f 85//91 76//91 86//91
f 76//92 77//92 86//92
f 86//92 77//92 87//92
f 77//93 78//93 87//93
f 87//93 78//93 88//93
f 78//94 79//94 88//94
f 88//95 79//95 89//95
f 79//96 80//96 89//96
f 89//97 80//97 90//97
f 80//98 81//98 90//98
f 90//98 81//98 91//98
f 81//99 82//99 91//99
f 91//99 82//99 92//99
f 82//100 83//100 92//100
f 92//100 83//100 93//100
f 83//101 74//101 93//101
f 93//101 74//101 84//101
f 84//102 85//102 94//102
f 94//102 85//102 95//102
f 85//103 86//103 95//103
f 95//103 86//103 96//103
f 86//104 87//104 96//104
f 96//104 87//104 97//104
f 87//105 88//105 97//105
f 97//105 88//105 98//105
f 88//106 89//106 98//106
f 98//106 89//106 99//106
f 89//107 90//107 99//107
f 99//107 90//107 100//107
f 90//108 91//108 100//108
f 100//108 91//108 101//108
f 91//109 92//109 101//109
f 101//110 92//110 102//110
f 92//111 93//111 102//111
f 102//111 93//111 103//111
f 93//112 84//112 103//112
f 103//112 84//112 94//112
f 94//113 95//113 104//113
f 95//114 96//114 104//114
f 96//115 97//115 104//115
f 97//116 98//116 104//116
f 98//117 99//117 104//117
f 99//118 100//118 104//118
f 100//119 101//119 104//119
f 101//120 102//120 104//120
f 102//121 103//121 104//121
f 103//122 94//122 104//122
f 106//12 105//12 107//12
f 107//13 105//13 108//13
f 108//14 105//14 109//14
f 109//15 105//15 110//15
f 110//16 105//16 111//16
f 111//17 105//17 112//17
f 112//18 105//18 113//18
f 113//19 105//19 114//19
f 114//20 105//20 115//20
f 115//21 105//21 106//21
f 106//22 107//22 116//22
f 116//22 107//22 117//22
f 107//123 108//123 117//123
f 117//123 108//123 118//123
f 108//24 109//24 118//24
f 118//124 109//124 119//124
f 109//125 110//125 119//125
f 119//125 110//125 120//125
f 110//26 111//26 120//26
f 120//26 111//26 121//26
f 111//27 112//27 121//27
f 121//27 112//27 122//27
f 112//126 113//126 122//126
f 122//126 113//126 123//126
f 113//127 114//127 123//127
f 123//127 114//127 124//127
f 114//128 115//128 124//128
f 124//128 115//128 125//128
f 115//31 106//31 125//31
f 125//31 106//31 116//31
f 116//129 117//129 126//129
f 126//129 117//129 127//129
f 117//130 118//130 127//130
f 127//130 118//130 128//130
f 118//131 119//131 128//131
f 128//131 119//131 129//131
f 119//132 120//132 129//132
f 129//132 120//132 130//132
f 120//133 121//133 130//133
f 130//134 121//134 131//134
f 121//135 122//135 131//135
f 131//136 122//136 132//136
f 122//137 123//137 132//137
f 132//137 123//137 133//137
f 123//138 124//138 133//138
f 133//138 124//138 134//138
f 124//41 125//41 134//41
f 134//41 125//41 135//41
f 125//139 116//139 135//139
f 135//139 116//139 126//139
f 126//45 127//45 136//45
f 136//45 127//45 137//45
f 127//46 128//46 137//46
f 137//46 128//46 138//46
f 128//47 129//47 138//47
f 138//47 129//47 139//47
f 129//49 130//49 139//49
f 139//49 130//49 140//49
f 130//50 131//50 140//50
f 140//50 131//50 141//50
f 131//51 132//51 141//51
f 141//51 132//51 142//51
f 132//52 133//52 142//52
f 142//52 133//52 143//52
f 133//53 134//53 143//53
f 143//53 134//53 144//53
f 134//54 135//54 144//54
f 144//54 135//54 145//54
f 135//55 126//55 145//55
f 145//55 126//55 136//55
f 136//56 137//56 146//56
f 146//56 137//56 147//56
f 137//57 138//57 147//57
f 147//57 138//57 148//57
f 138//58 139//58 148//58
f 148//58 139//58 149//58
f 139//59 140//59 149//59
f 149//60 140//60 150//60
f 140//61 141//61 150//61
f 150//61 141//61 151//61
f 141//62 142//62 151//62
f 151//62 142//62 152//62
f 142//63 143//63 152//63
f 152//64 143//64 153//64
f 143//140 144//140 153//140
f 153//140 144//140 154//140
f 144//66 145//66 154//66
f 154//66 145//66 155//66
f 145//67 136//67 155//67
f 155//67 136//67 146//67
f 146//68 147//68 156//68
f 156//68 147//68 157//68
f 147//69 148//69 157//69
f 157//69 148//69 158//69
f 148//70 149//70 158//70
f 158//70 149//70 159//70
f 149//71 150//71 159//71
f 159//72 150//72 160//72
f 150//73 151//73 160//73
f 160//73 151//73 161//73
f 151//74 152//74 161//74
f 161//74 152//74 162//74
f 152//75 153//75 162//75
f 162//76 153//76 163//76
f 153//141 154//141 163//141
f 163//141 154//141 164//141
f 154//78 155//78 164//78
f 164//78 155//78 165//78
f 155//79 146//79 165//79
f 165//79 146//79 156//79
f 156//80 157//80 166//80
f 166//80 157//80 167//80
f 157//81 158//81 167//81
f 167//81 158//81 168//81
f 158//82 159//82 168//82
f 168//82 159//82 169//82
f 159//83 160//83 169//83
f 169//83 160//83 170//83
f 160//84 161//84 170//84
f 170//84 161//84 171//84
f 161//85 162//85 171//85
f 171//85 162//85 172//85
f 162//86 163//86 172//86
f 172//142 163//142 173//142
f 163//87 164//87 173//87
f 173//87 164//87 174//87
f 164//88 165//88 174//88
f 174//88 165//88 175//88
f 165//89 156//89 175//89
f 175//89 156//89 166//89
f 166//143 167//143 176//143
f 176//144 167//144 177//144
f 167//145 168//145 177//145
f 177//145 168//145 178//145
f 168//146 169//146 178//146
f 178//146 169//146 179//146
f 169//147 170//147 179//147
f 179//147 170//147 180//147
f 170//148 171//148 180//148
f 180//148 171//148 181//148
f 171//149 172//149 181//149
f 181//149 172//149 182//149
f 172//150 173//150 182//150
f 182//150 173//150 183//150
f 173//151 174//151 183//151
f 183//151 174//151 184//151
f 174//152 175//152 184//152
f 184//152 175//152 185//152
f 175//153 166//153 185//153
f 185//154 166//154 176//154
f 176//102 177//102 186//102
f 186//102 177//102 187//102
f 177//155 178//155 187//155
f 187//155 178//155 188//155
f 178//104 179//104 188//104
f 188//104 179//104 189//104
f 179//156 180//156 189//156
f 189//156 180//156 190//156
f 180//106 181//106 190//106
f 190//106 181//106 191//106
f 181//107 182//107 191//107
f 191//107 182//107 192//107
f 182//157 183//157 192//157
f 192//157 183//157 193//157
f 183//110 184//110 193//110
f 193//110 184//110 194//110
f 184//158 185//158 194//158
f 194//158 185//158 195//158
f 185//112 176//112 195//112
f 195//112 176//112 186//112
f 186//113 187//113 196//113
f 187//114 188//114 196//114
f 188//115 189//115 196//115
f 189//116 190//116 196//116
f 190//117 191//117 196//117
f 191//118 192//118 196//118
f 192//119 193//119 196//119
f 193//120 194//120 196//120
f 194//121 195//121 196//121
f 195//122 186//122 196//122
