# Blender v2.79 (sub 0) OBJ File: ''
# www.blender.org
mtllib m757.mtl
o m757
v -0.000000 0.000000 -0.408886
v -0.000000 0.083049 -0.395732
v -0.048815 0.067188 -0.395732
v -0.078984 0.025664 -0.395732
v -0.078984 -0.025664 -0.395732
v -0.048815 -0.067188 -0.395732
v -0.000000 -0.083049 -0.395732
v 0.048815 -0.067188 -0.395732
v 0.078985 -0.025664 -0.395732
v 0.078985 0.025664 -0.395732
v 0.048815 0.067188 -0.395732
v -0.000000 0.157969 -0.357559
v -0.092852 0.127800 -0.357559
v -0.150237 0.048815 -0.357559
v -0.150237 -0.048815 -0.357559
v -0.092852 -0.127800 -0.357559
v -0.000000 -0.157969 -0.357559
v 0.092852 -0.127800 -0.357559
v 0.150238 -0.048815 -0.357559
v 0.150238 0.048815 -0.357559
v 0.092852 0.127800 -0.357559
v -0.000000 0.217426 -0.298102
v -0.127799 0.175901 -0.298102
v -0.206784 0.067188 -0.298102
v -0.206784 -0.067188 -0.298102
v -0.127799 -0.175901 -0.298102
v -0.000000 -0.217426 -0.298102
v 0.127800 -0.175901 -0.298102
v 0.206784 -0.067188 -0.298102
v 0.206784 0.067188 -0.298102
v 0.127800 0.175901 -0.298102
v -0.000000 0.255599 -0.223182
v -0.150237 0.206784 -0.223182
v -0.243089 0.078985 -0.223182
v -0.243089 -0.078985 -0.223182
v -0.150237 -0.206784 -0.223182
v -0.000000 -0.255599 -0.223182
v 0.150238 -0.206784 -0.223182
v 0.243090 -0.078985 -0.223182
v 0.243090 0.078985 -0.223182
v 0.150238 0.206784 -0.223182
v -0.000000 0.268753 -0.140133
v -0.157969 0.217426 -0.140133
v -0.255599 0.083049 -0.140133
v -0.255599 -0.083049 -0.140133
v -0.157969 -0.217426 -0.140133
v -0.000000 -0.268753 -0.140133
v 0.157969 -0.217426 -0.140133
v 0.255600 -0.083049 -0.140133
v 0.255600 0.083049 -0.140133
v 0.157969 0.217426 -0.140133
v -0.000000 0.255599 -0.057084
v -0.150237 0.206784 -0.057084
v -0.243089 0.078985 -0.057084
v -0.243089 -0.078985 -0.057084
v -0.150237 -0.206784 -0.057084
v -0.000000 -0.255599 -0.057084
v 0.150238 -0.206784 -0.057084
v 0.243090 -0.078985 -0.057084
v 0.243090 0.078985 -0.057084
v 0.150238 0.206784 -0.057084
v -0.000000 0.217426 0.017836
v -0.127799 0.175901 0.017836
v -0.206784 0.067188 0.017836
v -0.206784 -0.067188 0.017836
v -0.127799 -0.175901 0.017836
v -0.000000 -0.217426 0.017836
v 0.127800 -0.175901 0.017836
v 0.206784 -0.067188 0.017836
v 0.206784 0.067188 0.017836
v 0.127800 0.175901 0.017836
v -0.000000 0.157969 0.077293
v -0.092852 0.127800 0.077293
v -0.150237 0.048815 0.077293
v -0.150237 -0.048815 0.077293
v -0.092852 -0.127800 0.077293
v -0.000000 -0.157969 0.077293
v 0.092852 -0.127800 0.077293
v 0.150238 -0.048815 0.077293
v 0.150238 0.048815 0.077293
v 0.092852 0.127800 0.077293
v -0.000000 0.083049 0.115466
v -0.048815 0.067188 0.115466
v -0.078984 0.025664 0.115466
v -0.078984 -0.025664 0.115466
v -0.048815 -0.067188 0.115466
v -0.000000 -0.083049 0.115466
v 0.048815 -0.067188 0.115466
v 0.078985 -0.025664 0.115466
v 0.078985 0.025664 0.115466
v 0.048815 0.067188 0.115466
v -0.000000 0.000000 0.128620
v 0.172064 0.000000 0.541114
v 0.071566 0.000000 0.367529
v 0.162740 0.055869 0.541114
v 0.067689 0.023237 0.367529
v 0.135782 0.105683 0.541114
v 0.056476 0.043957 0.367529
v 0.094110 0.144045 0.541114
v 0.039143 0.059913 0.367529
v 0.042239 0.166798 0.541114
v 0.017569 0.069376 0.367529
v -0.014209 0.171475 0.541114
v -0.005910 0.071322 0.367529
v -0.069117 0.157571 0.541114
v -0.028747 0.065538 0.367529
v -0.116534 0.126591 0.541114
v -0.048470 0.052653 0.367529
v -0.151325 0.081893 0.541114
v -0.062940 0.034062 0.367529
v -0.169716 0.028321 0.541114
v -0.070590 0.011779 0.367529
v -0.169716 -0.028321 0.541114
v -0.070590 -0.011779 0.367529
v -0.151325 -0.081893 0.541114
v -0.062940 -0.034062 0.367529
v -0.116534 -0.126591 0.541114
v -0.048470 -0.052653 0.367529
v -0.069117 -0.157571 0.541114
v -0.028747 -0.065538 0.367529
v -0.014209 -0.171475 0.541114
v -0.005910 -0.071322 0.367529
v 0.042239 -0.166798 0.541114
v 0.017569 -0.069376 0.367529
v 0.094110 -0.144045 0.541114
v 0.039143 -0.059913 0.367529
v 0.135782 -0.105683 0.541114
v 0.056476 -0.043957 0.367529
v 0.162740 -0.055869 0.541114
v 0.067689 -0.023237 0.367529
v 0.211653 0.000000 -0.031414
v 0.200185 0.068723 -0.031414
v 0.167024 0.130000 -0.031414
v 0.115763 0.177189 -0.031414
v 0.051958 0.205176 -0.031414
v -0.017478 0.210929 -0.031414
v -0.085019 0.193826 -0.031414
v -0.143348 0.155718 -0.031414
v -0.186143 0.100736 -0.031414
v -0.208766 0.034837 -0.031414
v -0.208766 -0.034837 -0.031414
v -0.186143 -0.100735 -0.031414
v -0.143348 -0.155718 -0.031414
v -0.085019 -0.193826 -0.031414
v -0.017478 -0.210929 -0.031414
v 0.051958 -0.205176 -0.031414
v 0.115763 -0.177189 -0.031414
v 0.167024 -0.130000 -0.031414
v 0.200185 -0.068723 -0.031414
vn -0.0508 0.1562 -0.9864
vn -0.1329 0.0966 -0.9864
vn -0.1643 0.0000 -0.9864
vn -0.1329 -0.0966 -0.9864
vn -0.0508 -0.1562 -0.9864
vn 0.0508 -0.1562 -0.9864
vn 0.1329 -0.0966 -0.9864
vn 0.1643 0.0000 -0.9864
vn 0.1329 0.0966 -0.9864
vn 0.0508 0.1562 -0.9864
vn -0.1459 0.4491 -0.8815
vn -0.3820 0.2776 -0.8815
vn -0.3821 0.2776 -0.8815
vn -0.4722 0.0000 -0.8815
vn -0.3821 -0.2776 -0.8815
vn -0.3820 -0.2776 -0.8815
vn -0.1459 -0.4491 -0.8815
vn 0.1459 -0.4491 -0.8815
vn 0.3820 -0.2776 -0.8815
vn 0.3821 -0.2776 -0.8815
vn 0.4722 0.0000 -0.8815
vn 0.3820 0.2776 -0.8815
vn 0.1459 0.4491 -0.8815
vn -0.2239 0.6892 -0.6892
vn -0.2239 0.6892 -0.6891
vn -0.5862 0.4259 -0.6891
vn -0.5862 0.4259 -0.6892
vn -0.7246 0.0000 -0.6892
vn -0.5862 -0.4259 -0.6892
vn -0.5862 -0.4259 -0.6891
vn -0.2239 -0.6892 -0.6891
vn -0.2239 -0.6892 -0.6892
vn 0.2239 -0.6892 -0.6892
vn 0.2239 -0.6892 -0.6891
vn 0.5862 -0.4259 -0.6891
vn 0.7246 0.0000 -0.6891
vn 0.5862 0.4259 -0.6891
vn 0.2239 0.6892 -0.6891
vn 0.2239 0.6892 -0.6892
vn -0.2781 0.8559 -0.4361
vn -0.7280 0.5290 -0.4361
vn -0.8999 0.0000 -0.4361
vn -0.7280 -0.5290 -0.4361
vn -0.2781 -0.8559 -0.4361
vn 0.2781 -0.8559 -0.4361
vn 0.7280 -0.5289 -0.4361
vn 0.7280 -0.5290 -0.4361
vn 0.8999 0.0000 -0.4361
vn 0.7280 0.5289 -0.4361
vn 0.7280 0.5290 -0.4361
vn 0.2781 0.8559 -0.4361
vn -0.3056 0.9404 -0.1490
vn -0.8000 0.5812 -0.1490
vn -0.8000 0.5812 -0.1489
vn -0.9888 0.0000 -0.1490
vn -0.8000 -0.5812 -0.1489
vn -0.8000 -0.5812 -0.1490
vn -0.3056 -0.9404 -0.1490
vn 0.3056 -0.9404 -0.1490
vn 0.3056 -0.9404 -0.1489
vn 0.8000 -0.5812 -0.1489
vn 0.9888 0.0000 -0.1490
vn 0.8000 0.5812 -0.1489
vn 0.8000 0.5812 -0.1490
vn 0.3056 0.9404 -0.1490
vn -0.3056 0.9404 0.1490
vn -0.8000 0.5812 0.1490
vn -0.8000 0.5812 0.1489
vn -0.9888 0.0000 0.1490
vn -0.8000 -0.5812 0.1489
vn -0.8000 -0.5812 0.1490
vn -0.3056 -0.9404 0.1490
vn 0.3056 -0.9404 0.1490
vn 0.3056 -0.9404 0.1489
vn 0.8000 -0.5812 0.1489
vn 0.9888 0.0000 0.1490
vn 0.8000 0.5812 0.1489
vn 0.8000 0.5812 0.1490
vn 0.3056 0.9404 0.1490
vn -0.2781 0.8559 0.4361
vn -0.7280 0.5290 0.4361
vn -0.8999 0.0000 0.4361
vn -0.7280 -0.5290 0.4361
vn -0.2781 -0.8559 0.4361
vn 0.2781 -0.8559 0.4361
vn 0.7280 -0.5290 0.4361
vn 0.7280 -0.5289 0.4361
vn 0.8999 0.0000 0.4361
vn 0.7280 0.5290 0.4361
vn 0.7280 0.5289 0.4361
vn 0.2781 0.8559 0.4361
vn -0.2239 0.6892 0.6892
vn -0.2239 0.6892 0.6891
vn -0.5862 0.4259 0.6891
vn -0.5862 0.4259 0.6892
vn -0.7246 0.0000 0.6892
vn -0.5862 -0.4259 0.6892
vn -0.5862 -0.4259 0.6891
vn -0.2239 -0.6892 0.6891
vn -0.2239 -0.6892 0.6892
vn 0.2239 -0.6892 0.6892
vn 0.2239 -0.6892 0.6891
vn 0.5862 -0.4259 0.6891
vn 0.7246 0.0000 0.6891
vn 0.5862 0.4259 0.6891
vn 0.2239 0.6892 0.6891
vn 0.2239 0.6892 0.6892
vn -0.1459 0.4491 0.8815
vn -0.3820 0.2776 0.8815
vn -0.4722 0.0000 0.8815
vn -0.3821 -0.2776 0.8815
vn -0.3820 -0.2776 0.8815
vn -0.1459 -0.4491 0.8815
vn 0.1459 -0.4491 0.8815
vn 0.3820 -0.2776 0.8815
vn 0.4722 0.0000 0.8815
vn 0.3820 0.2776 0.8815
vn 0.1459 0.4491 0.8815
vn -0.0508 0.1562 0.9864
vn -0.1329 0.0966 0.9864
vn -0.1643 0.0000 0.9864
vn -0.1329 -0.0966 0.9864
vn -0.0508 -0.1562 0.9864
vn 0.0508 -0.1562 0.9864
vn 0.1329 -0.0966 0.9864
vn 0.1643 0.0000 0.9864
vn 0.1329 0.0966 0.9864
vn 0.0508 0.1562 0.9864
vn -0.8565 -0.1429 0.4959
vn -0.7637 -0.4133 0.4959
vn -0.5881 -0.6389 0.4959
vn -0.3488 -0.7952 0.4959
vn -0.0717 -0.8654 0.4959
vn 0.2132 -0.8418 0.4959
vn 0.4750 -0.7270 0.4959
vn 0.4749 -0.7270 0.4959
vn 0.6853 -0.5334 0.4959
vn 0.8213 -0.2820 0.4959
vn 0.8684 0.0000 0.4959
vn 0.8213 0.2820 0.4959
vn 0.6853 0.5334 0.4959
vn 0.4750 0.7270 0.4959
vn 0.4749 0.7270 0.4959
vn 0.2132 0.8418 0.4959
vn -0.0717 0.8654 0.4959
vn -0.3488 0.7952 0.4959
vn -0.5881 0.6389 0.4959
vn -0.7637 0.4133 0.4959
vn -0.8565 0.1429 0.4959
vn -0.9320 -0.1555 -0.3273
vn -0.8310 -0.4497 -0.3273
vn -0.6400 -0.6952 -0.3273
vn -0.3796 -0.8653 -0.3273
vn -0.0781 -0.9417 -0.3273
vn -0.0780 -0.9417 -0.3273
vn 0.2320 -0.9160 -0.3273
vn 0.5168 -0.7911 -0.3273
vn 0.7457 -0.5804 -0.3273
vn 0.8937 -0.3068 -0.3273
vn 0.9449 0.0000 -0.3273
vn 0.8937 0.3068 -0.3273
vn 0.7457 0.5804 -0.3273
vn 0.5168 0.7911 -0.3273
vn 0.2320 0.9160 -0.3273
vn -0.0781 0.9417 -0.3273
vn -0.0780 0.9417 -0.3273
vn -0.3796 0.8653 -0.3273
vn -0.6400 0.6952 -0.3273
vn -0.8310 0.4497 -0.3273
vn -0.9320 0.1555 -0.3273
usemtl None
s off
f 2//1 1//1 3//1
f 3//2 1//2 4//2
f 4//3 1//3 5//3
f 5//4 1//4 6//4
f 6//5 1//5 7//5
f 7//6 1//6 8//6
f 8//7 1//7 9//7
f 9//8 1//8 10//8
f 10//9 1//9 11//9
f 11//10 1//10 2//10
f 2//11 3//11 12//11
f 12//11 3//11 13//11
f 3//12 4//12 13//12
f 13//13 4//13 14//13
f 4//14 5//14 14//14
f 14//14 5//14 15//14
f 5//15 6//15 15//15
f 15//16 6//16 16//16
f 6//17 7//17 16//17
f 16//17 7//17 17//17
f 7//18 8//18 17//18
f 17//18 8//18 18//18
f 8//19 9//19 18//19
f 18//20 9//20 19//20
f 9//21 10//21 19//21
f 19//21 10//21 20//21
f 10//22 11//22 20//22
f 20//22 11//22 21//22
f 11//23 2//23 21//23
f 21//23 2//23 12//23
f 12//24 13//24 22//24
f 22//25 13//25 23//25
f 13//26 14//26 23//26
f 23//27 14//27 24//27
f 14//28 15//28 24//28
f 24//28 15//28 25//28
f 15//29 16//29 25//29
f 25//30 16//30 26//30
f 16//31 17//31 26//31
f 26//32 17//32 27//32
f 17//33 18//33 27//33
f 27//34 18//34 28//34
f 18//35 19//35 28//35
f 28//35 19//35 29//35
f 19//36 20//36 29//36
f 29//36 20//36 30//36
f 20//37 21//37 30//37
f 30//37 21//37 31//37
f 21//38 12//38 31//38
f 31//39 12//39 22//39
f 22//40 23//40 32//40
f 32//40 23//40 33//40
f 23//41 24//41 33//41
f 33//41 24//41 34//41
f 24//42 25//42 34//42
f 34//42 25//42 35//42
f 25//43 26//43 35//43
f 35//43 26//43 36//43
f 26//44 27//44 36//44
f 36//44 27//44 37//44
f 27//45 28//45 37//45
f 37//45 28//45 38//45
f 28//46 29//46 38//46
f 38//47 29//47 39//47
f 29//48 30//48 39//48
f 39//48 30//48 40//48
f 30//49 31//49 40//49
f 40//50 31//50 41//50
f 31//51 22//51 41//51
f 41//51 22//51 32//51
f 32//52 33//52 42//52
f 42//52 33//52 43//52
f 33//53 34//53 43//53
f 43//54 34//54 44//54
f 34//55 35//55 44//55
f 44//55 35//55 45//55
f 35//56 36//56 45//56
f 45//57 36//57 46//57
f 36//58 37//58 46//58
f 46//58 37//58 47//58
f 37//59 38//59 47//59
f 47//60 38//60 48//60
f 38//61 39//61 48//61
f 48//61 39//61 49//61
f 39//62 40//62 49//62
f 49//62 40//62 50//62
f 40//63 41//63 50//63
f 50//64 41//64 51//64
f 41//65 32//65 51//65
f 51//65 32//65 42//65
f 42//66 43//66 52//66
f 52//66 43//66 53//66
f 43//67 44//67 53//67
f 53//68 44//68 54//68
f 44//69 45//69 54//69
f 54//69 45//69 55//69
f 45//70 46//70 55//70
f 55//71 46//71 56//71
f 46//72 47//72 56//72
f 56//72 47//72 57//72
f 47//73 48//73 57//73
f 57//74 48//74 58//74
f 48//75 49//75 58//75
f 58//75 49//75 59//75
f 49//76 50//76 59//76
f 59//76 50//76 60//76
f 50//77 51//77 60//77
f 60//78 51//78 61//78
f 51//79 42//79 61//79
f 61//79 42//79 52//79
f 52//80 53//80 62//80
f 62//80 53//80 63//80
f 53//81 54//81 63//81
f 63//81 54//81 64//81
f 54//82 55//82 64//82
f 64//82 55//82 65//82
f 55//83 56//83 65//83
f 65//83 56//83 66//83
f 56//84 57//84 66//84
f 66//84 57//84 67//84
f 57//85 58//85 67//85
f 67//85 58//85 68//85
f 58//86 59//86 68//86
f 68//87 59//87 69//87
f 59//88 60//88 69//88
f 69//88 60//88 70//88
f 60//89 61//89 70//89
f 70//90 61//90 71//90
f 61//91 52//91 71//91
f 71//91 52//91 62//91
f 62//92 63//92 72//92
f 72//93 63//93 73//93
f 63//94 64//94 73//94
f 73//95 64//95 74//95
f 64//96 65//96 74//96
f 74//96 65//96 75//96
f 65//97 66//97 75//97
f 75//98 66//98 76//98
f 66//99 67//99 76//99
f 76//100 67//100 77//100
f 67//101 68//101 77//101
f 77//102 68//102 78//102
f 68//103 69//103 78//103
f 78//103 69//103 79//103
f 69//104 70//104 79//104
f 79//104 70//104 80//104
f 70//105 71//105 80//105
f 80//105 71//105 81//105
f 71//106 62//106 81//106
f 81//107 62//107 72//107
f 72//108 73//108 82//108
f 82//108 73//108 83//108
f 73//109 74//109 83//109
f 83//109 74//109 84//109
f 74//110 75//110 84//110
f 84//110 75//110 85//110
f 75//111 76//111 85//111
f 85//112 76//112 86//112
f 76//113 77//113 86//113
f 86//113 77//113 87//113
f 77//114 78//114 87//114
f 87//114 78//114 88//114
f 78//115 79//115 88//115
f 88//115 79//115 89//115
f 79//116 80//116 89//116
f 89//116 80//116 90//116
f 80//117 81//117 90//117
f 90//117 81//117 91//117
f 81//118 72//118 91//118
f 91//118 72//118 82//118
f 82//119 83//119 92//119
f 83//120 84//120 92//120
f 84//121 85//121 92//121
f 85//122 86//122 92//122
f 86//123 87//123 92//123
f 87//124 88//124 92//124
f 88//125 89//125 92//125
f 89//126 90//126 92//126
f 90//127 91//127 92//127
f 91//128 82//128 92//128
f 93//129 95//129 94//129
f 95//129 96//129 94//129
f 95//130 97//130 96//130
f 97//130 98//130 96//130
f 97//131 99//131 98//131
f 99//131 100//131 98//131
f 99//132 101//132 100//132
f 101//132 102//132 100//132
f 101//133 103//133 102//133
f 103//133 104//133 102//133
f 103//134 105//134 104//134
f 105//134 106//134 104//134
f 105//135 107//135 106//135
f 107//136 108//136 106//136
f 107//137 109//137 108//137
f 109//137 110//137 108//137
f 109//138 111//138 110//138
f 111//138 112//138 110//138
f 111//139 113//139 112//139
f 113//139 114//139 112//139
f 113//140 115//140 114//140
f 115//140 116//140 114//140
f 115//141 117//141 116//141
f 117//141 118//141 116//141
f 117//142 119//142 118//142
f 119//143 120//143 118//143
f 119//144 121//144 120//144
f 121//144 122//144 120//144
f 121//145 123//145 122//145
f 123//145 124//145 122//145
f 123//146 125//146 124//146
f 125//146 126//146 124//146
f 125//147 127//147 126//147
f 127//147 128//147 126//147
f 127//148 129//148 128//148
f 129//148 130//148 128//148
f 129//149 93//149 130//149
f 93//149 94//149 130//149
f 94//150 96//150 131//150
f 96//150 132//150 131//150
f 96//151 98//151 132//151
f 98//151 133//151 132//151
f 98//152 100//152 133//152
f 100//152 134//152 133//152
f 100//153 102//153 134//153
f 102//153 135//153 134//153
f 102//154 104//154 135//154
f 104//155 136//155 135//155
f 104//156 106//156 136//156
f 106//156 137//156 136//156
f 106//157 108//157 137//157
f 108//157 138//157 137//157
f 108//158 110//158 138//158
f 110//158 139//158 138//158
f 110//159 112//159 139//159
f 112//159 140//159 139//159
f 112//160 114//160 140//160
f 114//160 141//160 140//160
f 114//161 116//161 141//161
f 116//161 142//161 141//161
f 116//162 118//162 142//162
f 118//162 143//162 142//162
f 118//163 120//163 143//163
f 120//163 144//163 143//163
f 120//164 122//164 144//164
f 122//164 145//164 144//164
f 122//165 124//165 145//165
f 124//166 146//166 145//166
f 124//167 126//167 146//167
f 126//167 147//167 146//167
f 126//168 128//168 147//168
f 128//168 148//168 147//168
f 128//169 130//169 148//169
f 130//169 149//169 148//169
f 130//170 94//170 149//170
f 94//170 131//170 149//170
