# Blender v2.79 (sub 0) OBJ File: ''
# www.blender.org
mtllib m758.mtl
o m758
v 0.000257 0.000000 0.631661
v -0.121367 0.088168 -0.034956
v -0.000015 0.000000 -0.035006
v -0.046367 0.142658 -0.034987
v 0.046338 0.142658 -0.035025
v 0.121338 0.088168 -0.035055
v 0.149985 0.000000 -0.035067
v 0.121338 -0.088168 -0.035055
v 0.046338 -0.142658 -0.035025
v -0.046367 -0.142658 -0.034987
v -0.121367 -0.088168 -0.034956
v -0.150014 0.000000 -0.034945
v 0.000033 0.000000 0.081661
v 0.000029 0.061803 0.071872
v 0.036356 0.050000 0.071857
v 0.058807 0.019098 0.071848
v 0.058807 -0.019098 0.071848
v 0.036356 -0.050000 0.071857
v 0.000029 -0.061803 0.071872
v -0.036298 -0.050000 0.071887
v -0.058750 -0.019098 0.071896
v -0.058750 0.019098 0.071896
v -0.036298 0.050000 0.071887
v 0.069116 0.095106 0.043436
v 0.111821 0.036327 0.043419
v 0.111821 -0.036327 0.043419
v 0.069116 -0.095106 0.043436
v 0.000017 -0.117557 0.043464
v -0.069081 -0.095106 0.043493
v -0.111786 -0.036327 0.043510
v -0.111786 0.036327 0.043510
v -0.069081 0.095106 0.043493
v 0.000017 0.117557 0.043464
v 0.095105 0.130902 -0.000821
v 0.153883 0.050000 -0.000845
v 0.153883 -0.050000 -0.000845
v 0.095105 -0.130902 -0.000821
v -0.000001 -0.161803 -0.000782
v -0.095106 -0.130902 -0.000743
v -0.153885 -0.050000 -0.000719
v -0.153885 0.050000 -0.000719
v -0.095106 0.130902 -0.000743
v -0.000001 0.161803 -0.000782
v 0.111780 0.153884 -0.056581
v 0.180878 0.058779 -0.056609
v 0.180878 -0.058779 -0.056609
v 0.111780 -0.153884 -0.056581
v -0.000024 -0.190211 -0.056536
v -0.111827 -0.153884 -0.056490
v -0.180925 -0.058779 -0.056462
v -0.180925 0.058779 -0.056462
v -0.111827 0.153884 -0.056490
v -0.000024 0.190211 -0.056536
v 0.117508 0.161803 -0.118387
v 0.190163 0.061803 -0.118416
v 0.190163 -0.061803 -0.118416
v 0.117508 -0.161803 -0.118387
v -0.000049 -0.200000 -0.118339
v -0.117605 -0.161803 -0.118291
v -0.190260 -0.061803 -0.118261
v -0.190260 0.061803 -0.118261
v -0.117605 0.161803 -0.118291
v -0.000049 0.200000 -0.118339
v 0.111730 0.153884 -0.180188
v 0.180828 0.058779 -0.180216
v 0.180828 -0.058779 -0.180216
v 0.111730 -0.153884 -0.180188
v -0.000074 -0.190211 -0.180142
v -0.111877 -0.153884 -0.180097
v -0.180975 -0.058779 -0.180069
v -0.180975 0.058779 -0.180069
v -0.111877 0.153884 -0.180097
v -0.000074 0.190211 -0.180142
v 0.095009 0.130902 -0.235935
v 0.153788 0.050000 -0.235959
v 0.153788 -0.050000 -0.235959
v 0.095009 -0.130902 -0.235935
v -0.000097 -0.161803 -0.235896
v -0.095202 -0.130902 -0.235857
v -0.153980 -0.050000 -0.235833
v -0.153980 0.050000 -0.235833
v -0.095202 0.130902 -0.235857
v -0.000097 0.161803 -0.235896
v 0.068984 0.095106 -0.280171
v 0.111689 0.036327 -0.280188
v 0.111689 -0.036327 -0.280188
v 0.068984 -0.095106 -0.280171
v -0.000115 -0.117557 -0.280142
v -0.069213 -0.095106 -0.280114
v -0.111918 -0.036327 -0.280097
v -0.111918 0.036327 -0.280097
v -0.069213 0.095106 -0.280114
v -0.000115 0.117557 -0.280142
v -0.000126 0.061803 -0.308550
v 0.036201 0.050000 -0.308565
v 0.058652 0.019098 -0.308574
v 0.058652 -0.019098 -0.308574
v 0.036201 -0.050000 -0.308565
v -0.000126 -0.061803 -0.308550
v -0.036453 -0.050000 -0.308535
v -0.058905 -0.019098 -0.308526
v -0.058905 0.019098 -0.308526
v -0.036453 0.050000 -0.308535
v -0.000130 0.000000 -0.318339
vn -0.9299 0.3022 0.2096
vn -0.0004 0.0000 -1.0000
vn -0.5747 0.7911 0.2095
vn 0.0001 0.9779 0.2092
vn 0.5749 0.7911 0.2090
vn 0.9301 0.3022 0.2089
vn 0.9301 -0.3022 0.2089
vn 0.5749 -0.7911 0.2090
vn 0.0001 -0.9779 0.2093
vn -0.5747 -0.7911 0.2095
vn -0.9299 -0.3022 0.2096
vn 0.0512 0.1562 0.9864
vn -0.0504 0.1562 0.9864
vn 0.1463 0.4491 0.8814
vn 0.4726 0.0000 0.8813
vn 0.3824 -0.2776 0.8813
vn 0.1463 -0.4491 0.8814
vn -0.1456 -0.4491 0.8815
vn -0.3817 -0.2776 0.8816
vn -0.4719 0.0000 0.8817
vn -0.3817 0.2776 0.8816
vn 0.2242 0.6892 0.6891
vn 0.7249 0.0000 0.6888
vn 0.5865 -0.4259 0.6889
vn 0.2242 -0.6891 0.6891
vn -0.2236 -0.6892 0.6892
vn -0.5860 -0.4259 0.6894
vn -0.5859 -0.4259 0.6894
vn -0.5859 0.4259 0.6894
vn 0.7282 0.5289 0.4358
vn 0.9001 0.0000 0.4357
vn 0.7282 -0.5289 0.4358
vn 0.7282 -0.5290 0.4358
vn -0.2779 -0.8559 0.4362
vn -0.7279 -0.5290 0.4364
vn -0.2779 0.8559 0.4362
vn 0.3056 0.9404 0.1488
vn 0.9889 0.0000 0.1486
vn 0.8001 -0.5812 0.1486
vn 0.3056 -0.9404 0.1488
vn -0.3055 -0.9404 0.1491
vn -0.7999 -0.5812 0.1493
vn 0.3055 0.9404 -0.1491
vn 0.7999 0.5812 -0.1493
vn 0.7999 -0.5812 -0.1493
vn 0.3055 -0.9404 -0.1491
vn -0.3056 -0.9404 -0.1488
vn -0.9889 0.0000 -0.1485
vn 0.2779 0.8559 -0.4362
vn 0.7279 0.5290 -0.4364
vn 0.8997 0.0000 -0.4364
vn 0.2779 -0.8559 -0.4362
vn -0.7282 -0.5290 -0.4358
vn -0.9001 0.0000 -0.4357
vn -0.7282 0.5290 -0.4358
vn -0.2783 0.8559 -0.4360
vn 0.2236 0.6892 -0.6892
vn 0.5859 0.4259 -0.6894
vn 0.7243 0.0000 -0.6895
vn 0.5860 -0.4259 -0.6894
vn -0.2242 -0.6892 -0.6891
vn -0.7249 0.0000 -0.6889
vn -0.5865 0.4259 -0.6889
vn -0.2242 0.6892 -0.6891
vn 0.1456 0.4491 -0.8815
vn 0.3817 0.2776 -0.8816
vn 0.3817 -0.2776 -0.8816
vn 0.1456 -0.4491 -0.8815
vn -0.1463 -0.4491 -0.8814
vn -0.4726 0.0000 -0.8813
vn 0.0504 -0.1562 -0.9864
vn -0.1647 0.0000 -0.9863
vn -0.0512 0.1562 -0.9864
vn 0.1333 0.0966 0.9864
vn 0.1647 0.0000 0.9863
vn 0.1333 -0.0966 0.9864
vn 0.0512 -0.1562 0.9864
vn -0.0504 -0.1562 0.9864
vn -0.1325 -0.0966 0.9865
vn -0.1639 0.0000 0.9865
vn -0.1325 0.0966 0.9865
vn 0.3824 0.2776 0.8813
vn -0.1456 0.4491 0.8815
vn 0.5865 0.4259 0.6889
vn 0.2242 -0.6892 0.6891
vn -0.7243 0.0000 0.6895
vn -0.2236 0.6892 0.6892
vn 0.2783 0.8559 0.4360
vn 0.7282 0.5290 0.4358
vn 0.2783 -0.8559 0.4360
vn -0.8997 0.0000 0.4364
vn -0.7279 0.5290 0.4364
vn 0.8001 0.5812 0.1486
vn 0.8000 0.5812 0.1486
vn -0.9888 0.0000 0.1494
vn -0.7999 0.5812 0.1493
vn -0.3055 0.9404 0.1491
vn 0.9888 0.0000 -0.1494
vn -0.8001 -0.5812 -0.1486
vn -0.8001 0.5812 -0.1486
vn -0.8000 0.5812 -0.1486
vn -0.3056 0.9404 -0.1488
vn 0.7279 -0.5290 -0.4364
vn -0.2783 -0.8559 -0.4360
vn 0.5859 -0.4259 -0.6894
vn 0.2236 -0.6892 -0.6892
vn -0.2242 -0.6891 -0.6891
vn -0.5865 -0.4259 -0.6889
vn 0.4719 0.0000 -0.8817
vn -0.3824 -0.2776 -0.8813
vn -0.3824 0.2776 -0.8813
vn -0.1463 0.4491 -0.8814
vn 0.0504 0.1562 -0.9864
vn 0.1325 0.0966 -0.9865
vn 0.1639 0.0000 -0.9865
vn 0.1325 -0.0966 -0.9865
vn -0.0512 -0.1562 -0.9864
vn -0.1333 -0.0966 -0.9864
vn -0.1333 0.0966 -0.9864
usemtl None
s off
f 1//1 2//1 12//1
f 3//2 12//2 2//2
f 1//3 4//3 2//3
f 3//2 2//2 4//2
f 1//4 5//4 4//4
f 3//2 4//2 5//2
f 1//5 6//5 5//5
f 3//2 5//2 6//2
f 1//6 7//6 6//6
f 3//2 6//2 7//2
f 1//7 8//7 7//7
f 3//2 7//2 8//2
f 1//8 9//8 8//8
f 3//2 8//2 9//2
f 1//9 10//9 9//9
f 3//2 9//2 10//2
f 1//10 11//10 10//10
f 3//2 10//2 11//2
f 1//11 12//11 11//11
f 3//2 11//2 12//2
f 14//12 13//12 15//12
f 23//13 13//13 14//13
f 14//14 15//14 33//14
f 16//15 17//15 25//15
f 25//15 17//15 26//15
f 17//16 18//16 26//16
f 18//17 19//17 27//17
f 27//17 19//17 28//17
f 28//18 20//18 29//18
f 29//19 21//19 30//19
f 21//20 22//20 30//20
f 30//20 22//20 31//20
f 31//21 23//21 32//21
f 43//22 24//22 34//22
f 25//23 26//23 35//23
f 26//24 27//24 36//24
f 37//25 28//25 38//25
f 28//26 29//26 38//26
f 38//26 29//26 39//26
f 29//27 30//27 39//27
f 39//28 30//28 40//28
f 41//29 32//29 42//29
f 34//30 35//30 44//30
f 35//31 36//31 45//31
f 45//31 36//31 46//31
f 36//32 37//32 46//32
f 46//33 37//33 47//33
f 48//34 39//34 49//34
f 49//35 40//35 50//35
f 42//36 43//36 52//36
f 52//36 43//36 53//36
f 63//37 44//37 54//37
f 45//38 46//38 55//38
f 56//39 47//39 57//39
f 57//40 48//40 58//40
f 48//41 49//41 58//41
f 49//42 50//42 59//42
f 59//42 50//42 60//42
f 73//43 54//43 64//43
f 54//44 55//44 64//44
f 66//45 57//45 67//45
f 57//46 58//46 67//46
f 67//46 58//46 68//46
f 58//47 59//47 68//47
f 68//47 59//47 69//47
f 60//48 61//48 70//48
f 83//49 64//49 74//49
f 74//50 65//50 75//50
f 75//51 66//51 76//51
f 67//52 68//52 77//52
f 79//53 70//53 80//53
f 70//54 71//54 80//54
f 81//55 72//55 82//55
f 72//56 73//56 82//56
f 83//57 74//57 93//57
f 74//58 75//58 84//58
f 75//59 76//59 85//59
f 86//60 77//60 87//60
f 88//61 79//61 89//61
f 80//62 81//62 90//62
f 91//63 82//63 92//63
f 92//64 83//64 93//64
f 94//65 84//65 95//65
f 84//66 85//66 95//66
f 95//66 85//66 96//66
f 97//67 87//67 98//67
f 87//68 88//68 98//68
f 88//69 89//69 99//69
f 90//70 91//70 101//70
f 101//70 91//70 102//70
f 98//71 99//71 104//71
f 101//72 102//72 104//72
f 103//73 94//73 104//73
f 15//74 13//74 16//74
f 16//75 13//75 17//75
f 17//76 13//76 18//76
f 18//77 13//77 19//77
f 19//78 13//78 20//78
f 20//79 13//79 21//79
f 21//80 13//80 22//80
f 22//81 13//81 23//81
f 33//14 15//14 24//14
f 15//82 16//82 24//82
f 24//82 16//82 25//82
f 26//16 18//16 27//16
f 19//18 20//18 28//18
f 20//19 21//19 29//19
f 22//21 23//21 31//21
f 23//83 14//83 32//83
f 32//83 14//83 33//83
f 33//22 24//22 43//22
f 24//84 25//84 34//84
f 34//84 25//84 35//84
f 35//23 26//23 36//23
f 36//24 27//24 37//24
f 27//85 28//85 37//85
f 30//86 31//86 40//86
f 40//86 31//86 41//86
f 31//29 32//29 41//29
f 32//87 33//87 42//87
f 42//87 33//87 43//87
f 43//88 34//88 53//88
f 53//88 34//88 44//88
f 44//89 35//89 45//89
f 37//90 38//90 47//90
f 47//90 38//90 48//90
f 38//34 39//34 48//34
f 39//35 40//35 49//35
f 40//91 41//91 50//91
f 50//91 41//91 51//91
f 41//92 42//92 51//92
f 51//92 42//92 52//92
f 53//37 44//37 63//37
f 44//93 45//93 54//93
f 54//94 45//94 55//94
f 55//38 46//38 56//38
f 46//39 47//39 56//39
f 47//40 48//40 57//40
f 58//41 49//41 59//41
f 50//95 51//95 60//95
f 60//95 51//95 61//95
f 51//96 52//96 61//96
f 61//96 52//96 62//96
f 52//97 53//97 62//97
f 62//97 53//97 63//97
f 63//43 54//43 73//43
f 64//44 55//44 65//44
f 55//98 56//98 65//98
f 65//98 56//98 66//98
f 56//45 57//45 66//45
f 59//99 60//99 69//99
f 69//99 60//99 70//99
f 70//48 61//48 71//48
f 61//100 62//100 71//100
f 71//101 62//101 72//101
f 62//102 63//102 72//102
f 72//102 63//102 73//102
f 73//49 64//49 83//49
f 64//50 65//50 74//50
f 65//51 66//51 75//51
f 66//103 67//103 76//103
f 76//103 67//103 77//103
f 77//52 68//52 78//52
f 68//104 69//104 78//104
f 78//104 69//104 79//104
f 69//53 70//53 79//53
f 80//54 71//54 81//54
f 71//55 72//55 81//55
f 82//56 73//56 83//56
f 93//57 74//57 84//57
f 84//58 75//58 85//58
f 85//59 76//59 86//59
f 76//105 77//105 86//105
f 77//106 78//106 87//106
f 87//106 78//106 88//106
f 78//107 79//107 88//107
f 79//108 80//108 89//108
f 89//108 80//108 90//108
f 90//62 81//62 91//62
f 81//63 82//63 91//63
f 82//64 83//64 92//64
f 93//65 84//65 94//65
f 85//109 86//109 96//109
f 96//109 86//109 97//109
f 86//67 87//67 97//67
f 98//68 88//68 99//68
f 99//69 89//69 100//69
f 89//110 90//110 100//110
f 100//110 90//110 101//110
f 91//111 92//111 102//111
f 102//111 92//111 103//111
f 92//112 93//112 103//112
f 103//112 93//112 94//112
f 94//113 95//113 104//113
f 95//114 96//114 104//114
f 96//115 97//115 104//115
f 97//116 98//116 104//116
f 99//117 100//117 104//117
f 100//118 101//118 104//118
f 102//119 103//119 104//119
