# Blender v2.79 (sub 0) OBJ File: ''
# www.blender.org
mtllib m774.mtl
o m774
v -0.459190 0.166110 -0.350772
v -0.444205 0.182675 -0.330688
v -0.474016 0.182817 -0.330688
v -0.459023 0.201008 -0.378180
v -0.444005 0.224707 -0.367910
v -0.473815 0.224849 -0.367910
v -0.459020 0.201872 -0.408634
v -0.444037 0.218013 -0.429073
v -0.473848 0.218155 -0.429073
v -0.459213 0.161330 -0.409565
v -0.444373 0.147498 -0.431790
v -0.474184 0.147640 -0.431790
v -0.459291 0.144748 -0.363481
v -0.444505 0.119786 -0.370484
v -0.474315 0.119928 -0.370484
v -0.459393 0.123324 -0.253507
v -0.444611 0.097627 -0.256779
v -0.474421 0.097769 -0.256779
v -0.459423 0.117194 -0.139666
v -0.444640 0.091301 -0.140232
v -0.474451 0.091443 -0.140232
v -0.459418 0.118214 -0.010516
v -0.444636 0.092356 -0.009059
v -0.474446 0.092498 -0.009059
v -0.459354 0.131711 0.125472
v -0.444571 0.105957 0.128244
v -0.474381 0.106099 0.128244
v -0.459299 0.143060 0.227406
v -0.444516 0.117500 0.231646
v -0.474326 0.117642 0.231646
v -0.459182 0.167704 0.349684
v -0.444396 0.142746 0.356705
v -0.474206 0.142888 0.356705
v -0.459041 0.197329 0.426292
v -0.444250 0.173326 0.436170
v -0.474061 0.173468 0.436170
v -0.458918 0.223316 0.488644
v -0.444126 0.199465 0.498888
v -0.473936 0.199607 0.498888
v -0.459486 0.104028 0.089164
v -0.444609 0.097884 0.063642
v -0.474420 0.098026 0.063642
v -0.459803 0.037286 0.105450
v -0.444913 0.034207 0.079370
v -0.474723 0.034349 0.079370
v -0.460313 -0.069696 0.109802
v -0.445403 -0.068832 0.083561
v -0.475213 -0.068690 0.083561
v -0.460770 -0.165765 0.098139
v -0.445867 -0.166369 0.071886
v -0.475679 -0.166227 0.071886
v -0.460980 -0.209876 0.109358
v -0.446150 -0.225709 0.088557
v -0.475959 -0.225567 0.088557
v -0.460998 -0.213655 0.124356
v -0.446208 -0.237908 0.133576
v -0.476016 -0.237766 0.133576
v -0.460876 -0.187994 0.141012
v -0.446046 -0.203779 0.161851
v -0.475855 -0.203637 0.161851
v -0.460587 -0.127187 0.093896
v -0.445803 -0.152788 0.089922
v -0.475613 -0.152646 0.089922
v -0.460670 -0.144796 0.210568
v -0.445888 -0.170592 0.208237
v -0.475698 -0.170450 0.208237
v -0.460675 -0.145781 0.306154
v -0.445893 -0.171665 0.305265
v -0.475703 -0.171522 0.305265
v -0.460701 -0.151273 0.399968
v -0.445917 -0.176747 0.395223
v -0.475726 -0.176605 0.395223
v -0.460827 -0.177574 0.472271
v -0.446018 -0.198032 0.456150
v -0.475826 -0.197890 0.456150
v -0.461087 -0.232351 0.507275
v -0.446245 -0.245778 0.484800
v -0.476054 -0.245636 0.484800
v -0.459343 0.133916 0.329653
v -0.444382 0.145551 0.306247
v -0.474193 0.145693 0.306247
v -0.459616 0.076635 0.299358
v -0.444686 0.081840 0.273652
v -0.474496 0.081982 0.273652
v -0.459850 0.027515 0.305069
v -0.444986 0.018744 0.280344
v -0.474796 0.018886 0.280344
v -0.460110 -0.027030 0.339782
v -0.445251 -0.036945 0.315506
v -0.475062 -0.036803 0.315506
v -0.460451 -0.098806 0.355885
v -0.445535 -0.096539 0.329735
v -0.475345 -0.096397 0.329735
v -0.460774 -0.166482 0.328087
v -0.445821 -0.156619 0.303847
v -0.475631 -0.156477 0.303847
v 0.458761 0.161735 -0.350772
v 0.473746 0.178300 -0.330688
v 0.443935 0.178442 -0.330688
v 0.458927 0.196634 -0.378180
v 0.473946 0.220332 -0.367910
v 0.444135 0.220474 -0.367910
v 0.458931 0.197497 -0.408634
v 0.473914 0.213639 -0.429073
v 0.444103 0.213781 -0.429073
v 0.458738 0.156955 -0.409565
v 0.473578 0.143123 -0.431790
v 0.443767 0.143265 -0.431790
v 0.458659 0.140374 -0.363481
v 0.473446 0.115411 -0.370484
v 0.443635 0.115553 -0.370484
v 0.458557 0.118950 -0.253507
v 0.473340 0.093253 -0.256779
v 0.443530 0.093395 -0.256779
v 0.458528 0.112819 -0.139666
v 0.473310 0.086927 -0.140232
v 0.443500 0.087069 -0.140232
v 0.458533 0.113840 -0.010516
v 0.473315 0.087982 -0.009059
v 0.443505 0.088124 -0.009059
v 0.458597 0.127336 0.125472
v 0.473380 0.101583 0.128244
v 0.443570 0.101725 0.128244
v 0.458651 0.138685 0.227406
v 0.473435 0.113126 0.231646
v 0.443625 0.113268 0.231646
v 0.458768 0.163329 0.349684
v 0.473555 0.138371 0.356705
v 0.443745 0.138513 0.356705
v 0.458909 0.192954 0.426292
v 0.473701 0.168952 0.436170
v 0.443890 0.169094 0.436170
v 0.459033 0.218942 0.488644
v 0.473825 0.195090 0.498888
v 0.444015 0.195232 0.498888
v 0.458465 0.099654 0.089164
v 0.473342 0.093510 0.063642
v 0.443531 0.093652 0.063642
v 0.458147 0.032912 0.105450
v 0.473038 0.029832 0.079370
v 0.443228 0.029974 0.079370
v 0.457638 -0.074071 0.109802
v 0.472548 -0.073206 0.083561
v 0.442738 -0.073064 0.083561
v 0.457180 -0.170139 0.098139
v 0.472083 -0.170744 0.071886
v 0.442273 -0.170602 0.071886
v 0.456970 -0.214250 0.109358
v 0.471801 -0.230084 0.088557
v 0.441990 -0.229942 0.088557
v 0.456952 -0.218029 0.124356
v 0.471742 -0.242283 0.133576
v 0.441932 -0.242141 0.133576
v 0.457075 -0.192368 0.141012
v 0.471905 -0.208154 0.161851
v 0.442095 -0.208012 0.161851
v 0.457364 -0.131561 0.093896
v 0.472148 -0.157162 0.089922
v 0.442338 -0.157020 0.089922
v 0.457281 -0.149171 0.210568
v 0.472063 -0.174967 0.208237
v 0.442253 -0.174825 0.208237
v 0.457276 -0.150156 0.306154
v 0.472058 -0.176040 0.305265
v 0.442248 -0.175897 0.305265
v 0.457250 -0.155647 0.399968
v 0.472034 -0.181121 0.395223
v 0.442224 -0.180979 0.395223
v 0.457124 -0.181949 0.472271
v 0.471932 -0.202406 0.456150
v 0.442122 -0.202264 0.456150
v 0.456864 -0.236726 0.507275
v 0.471705 -0.250152 0.484800
v 0.441895 -0.250010 0.484800
v 0.458608 0.129542 0.329653
v 0.473568 0.141176 0.306247
v 0.443758 0.141318 0.306247
v 0.458335 0.072260 0.299358
v 0.473265 0.077466 0.273652
v 0.443455 0.077608 0.273652
v 0.458101 0.023141 0.305069
v 0.472965 0.014369 0.280344
v 0.443154 0.014511 0.280344
v 0.457841 -0.031404 0.339782
v 0.472700 -0.041319 0.315506
v 0.442889 -0.041177 0.315506
v 0.457500 -0.103181 0.355885
v 0.472416 -0.100914 0.329735
v 0.442605 -0.100772 0.329735
v 0.457177 -0.170857 0.328087
v 0.472130 -0.160994 0.303847
v 0.442319 -0.160852 0.303847
v -0.459540 0.124395 -0.135798
v -0.459686 0.098568 -0.150958
v -0.459686 0.098568 -0.120637
v 0.461539 0.119169 -0.135800
v 0.461392 0.093341 -0.150962
v 0.461392 0.093341 -0.120641
v -0.459540 0.124395 -0.252504
v -0.459686 0.098568 -0.267664
v -0.459686 0.098568 -0.237343
v 0.461539 0.119169 -0.252507
v 0.461392 0.093341 -0.267668
v 0.461392 0.093341 -0.237346
v -0.459403 0.153092 -0.369211
v -0.459549 0.127265 -0.384370
v -0.459549 0.127265 -0.354049
v 0.461676 0.147866 -0.369212
v 0.461529 0.122039 -0.384374
v 0.461529 0.122039 -0.354052
v -0.459567 0.118656 -0.019092
v -0.459713 0.092828 -0.034252
v -0.459713 0.092828 -0.003931
v 0.461512 0.113429 -0.019094
v 0.461365 0.087602 -0.034256
v 0.461365 0.087602 -0.003935
v -0.459240 0.187528 -0.427563
v -0.459385 0.161701 -0.442725
v -0.459385 0.161701 -0.412401
v 0.461840 0.182302 -0.427568
v 0.461693 0.156475 -0.442725
v 0.461693 0.156475 -0.412406
v -0.459728 0.084975 0.080408
v -0.459886 0.056612 0.071038
v -0.459856 0.062811 0.100697
v 0.461352 0.079765 0.080582
v 0.461193 0.051403 0.071211
v 0.461222 0.057603 0.100871
v -0.460002 0.027251 0.090271
v -0.460158 -0.000591 0.079404
v -0.460136 0.004074 0.109353
v 0.461077 0.022034 0.090401
v 0.460920 -0.005808 0.079535
v 0.460942 -0.001143 0.109483
v -0.460276 -0.030143 0.090271
v -0.460431 -0.057985 0.079404
v -0.460409 -0.053320 0.109353
v 0.460804 -0.035360 0.090401
v 0.460647 -0.063202 0.079535
v 0.460669 -0.058537 0.109483
v -0.460549 -0.087537 0.090271
v -0.460705 -0.115379 0.079404
v -0.460683 -0.110714 0.109353
v 0.460530 -0.092754 0.090401
v 0.460373 -0.120596 0.079535
v 0.460396 -0.115931 0.109483
v -0.460822 -0.144931 0.085602
v -0.460978 -0.172773 0.074736
v -0.460956 -0.168108 0.104685
v 0.460257 -0.150148 0.085733
v 0.460100 -0.177990 0.074866
v 0.460123 -0.173325 0.104814
v -0.460987 -0.179368 0.093771
v -0.461142 -0.207210 0.082905
v -0.461120 -0.202545 0.112854
v 0.460093 -0.184585 0.093903
v 0.459936 -0.212426 0.083036
v 0.459959 -0.207761 0.112984
v -0.461129 -0.209214 0.118962
v -0.461262 -0.232391 0.099880
v -0.461284 -0.237056 0.129829
v 0.459951 -0.214429 0.118826
v 0.459816 -0.237605 0.099744
v 0.459794 -0.242270 0.129693
vn 0.8665 -0.3332 -0.3716
vn 0.0032 0.6630 0.7486
vn -0.8696 -0.3024 -0.3904
vn 0.8312 -0.5527 0.0601
vn 0.0047 0.9941 -0.1088
vn -0.8525 -0.5225 -0.0149
vn 0.8160 -0.0261 0.5775
vn 0.0002 0.0385 -0.9993
vn -0.8130 -0.0095 0.5822
vn 0.8267 0.5121 0.2333
vn -0.0043 -0.9112 -0.4119
vn -0.8058 0.5577 0.1993
vn 0.8680 0.4873 0.0958
vn -0.0047 -0.9815 -0.1913
vn -0.8633 0.4955 0.0957
vn 0.8680 0.4959 0.0271
vn -0.0048 -0.9985 -0.0542
vn -0.8632 0.5041 0.0269
vn 0.8684 0.4959 -0.0040
vn -0.0048 -1.0000 0.0080
vn -0.8636 0.5041 -0.0039
vn 0.8683 0.4936 -0.0493
vn -0.0047 -0.9951 0.0986
vn -0.8635 0.5018 -0.0494
vn 0.8685 0.4926 -0.0554
vn -0.0047 -0.9938 0.1109
vn -0.8638 0.5008 -0.0553
vn 0.8684 0.4859 -0.0989
vn -0.0047 -0.9802 0.1979
vn -0.8637 0.4942 -0.0988
vn 0.8677 0.4634 -0.1799
vn -0.0044 -0.9333 0.3592
vn -0.8632 0.4714 -0.1807
vn 0.8688 0.4564 -0.1919
vn -0.0044 -0.9230 0.3847
vn -0.8644 0.4647 -0.1920
vn -0.0037 -0.7701 0.6379
vn 0.0019 0.3956 0.9184
vn 0.8700 0.1143 0.4796
vn -0.0011 -0.2398 -0.9708
vn -0.8689 0.1212 0.4799
vn 0.8691 0.0160 0.4944
vn -0.0002 -0.0406 -0.9992
vn -0.8689 0.0242 0.4943
vn 0.8686 -0.0630 0.4915
vn 0.0006 0.1188 -0.9929
vn -0.8692 -0.0555 0.4914
vn 0.8633 0.1327 0.4870
vn -0.0013 -0.2705 -0.9627
vn -0.8634 0.1282 0.4880
vn 0.8136 0.5610 0.1530
vn -0.0046 -0.9652 -0.2615
vn -0.8043 0.5765 0.1443
vn 0.8356 0.3481 -0.4249
vn -0.0030 -0.6380 0.7701
vn -0.8127 0.3200 -0.4870
vn 0.0046 0.9728 -0.2315
vn 0.0038 0.7984 0.6021
vn 0.8685 0.4900 0.0744
vn -0.0047 -0.9889 -0.1488
vn -0.8638 0.4982 0.0746
vn 0.8678 0.4968 0.0055
vn -0.0048 -0.9999 -0.0110
vn -0.8631 0.5051 0.0052
vn 0.8684 0.4950 0.0282
vn -0.0048 -0.9984 -0.0564
vn -0.8637 0.5032 0.0292
vn 0.8660 0.4716 0.1662
vn -0.0045 -0.9440 -0.3298
vn -0.8610 0.4784 0.1725
vn 0.8538 0.2649 0.4482
vn -0.0025 -0.5145 -0.8575
vn -0.8536 0.2834 0.4371
vn 0.0007 0.1538 -0.9881
vn -0.0041 -0.8597 0.5108
vn 0.8678 -0.2296 0.4406
vn 0.0022 0.4555 -0.8903
vn -0.8700 -0.2273 0.4376
vn 0.8592 0.0499 0.5092
vn -0.0005 -0.1055 -0.9944
vn -0.8579 0.0634 0.5098
vn 0.8650 0.2649 0.4261
vn -0.0025 -0.5339 -0.8456
vn -0.8623 0.2748 0.4254
vn 0.8672 0.1117 0.4852
vn -0.0011 -0.2322 -0.9727
vn -0.8657 0.1135 0.4875
vn 0.8574 -0.2071 0.4711
vn 0.0019 0.3957 -0.9184
vn -0.8605 -0.1900 0.4726
vn 0.0043 0.8944 0.4473
vn -0.0044 -0.9253 -0.3792
vn 0.8665 -0.3332 -0.3717
vn -0.8696 -0.3024 -0.3903
vn 0.8312 -0.5528 0.0601
vn 0.8266 0.5121 0.2333
vn -0.8636 0.5041 -0.0040
vn 0.8136 0.5610 0.1531
vn 0.8356 0.3480 -0.4249
vn -0.8630 0.5051 0.0052
vn -0.8536 0.2834 0.4372
vn 0.8679 -0.2295 0.4406
vn 0.8592 0.0499 0.5091
vn -0.8580 0.0634 0.5098
vn 0.0029 0.5062 -0.8624
vn -0.0057 -1.0000 0.0000
vn 0.0029 0.5062 0.8624
vn -1.0000 0.0057 0.0000
vn 1.0000 -0.0057 0.0000
vn 0.0029 0.5063 0.8624
vn -1.0000 0.0056 0.0000
vn 0.0029 0.5063 -0.8624
vn 0.0020 0.3137 -0.9495
vn -0.0056 -0.9788 0.2046
vn 0.0037 0.6752 0.7376
vn -1.0000 0.0056 -0.0002
vn 1.0000 -0.0057 0.0002
vn 0.0022 0.3636 -0.9316
vn -0.0056 -0.9881 0.1539
vn 0.0035 0.6356 0.7720
vn -1.0000 0.0056 -0.0001
vn 1.0000 -0.0057 0.0001
vn 0.0035 0.6356 -0.7720
vn -0.0056 -0.9881 -0.1539
vn 0.0022 0.3636 0.9316
vn -1.0000 0.0056 0.0001
vn 1.0000 -0.0057 -0.0002
vn 0.8349 -0.3424 -0.4309
vn -0.8456 -0.3516 -0.4016
vn 0.7203 -0.6934 -0.0196
vn -0.7790 -0.6233 0.0686
vn 0.8267 -0.0168 0.5624
vn -0.8241 -0.0179 0.5661
vn 0.8681 0.4667 0.1694
vn -0.8617 0.4631 0.2075
vn 0.8680 0.4872 0.0957
vn -0.8634 0.4954 0.0957
vn 0.8684 0.4952 0.0269
vn -0.8636 0.5034 0.0271
vn 0.8682 0.4961 -0.0040
vn -0.8635 0.5044 -0.0040
vn 0.8685 0.4932 -0.0494
vn -0.8638 0.5015 -0.0493
vn 0.8683 0.4930 -0.0554
vn -0.8635 0.5012 -0.0555
vn 0.8681 0.4865 -0.0989
vn -0.8634 0.4947 -0.0990
vn 0.8688 0.4613 -0.1800
vn -0.8643 0.4699 -0.1792
vn -0.8644 0.4647 -0.1919
vn 0.8685 0.1136 0.4825
vn -0.8673 0.1232 0.4823
vn 0.8691 0.0160 0.4943
vn 0.8672 -0.0641 0.4938
vn -0.8678 -0.0550 0.4938
vn 0.8505 0.1258 0.5106
vn -0.8516 0.1455 0.5035
vn 0.8207 0.5539 0.1405
vn -0.8119 0.5637 0.1517
vn 0.8691 0.2664 -0.4168
vn -0.8666 0.3207 -0.3822
vn 0.8681 0.4907 0.0747
vn -0.8634 0.4990 0.0745
vn 0.8684 0.4958 0.0052
vn -0.0048 -0.9999 -0.0111
vn -0.8637 0.5040 0.0055
vn 0.8669 0.4977 0.0294
vn -0.8621 0.5060 0.0284
vn 0.8582 0.4819 0.1768
vn -0.8526 0.4937 0.1711
vn 0.8699 0.2627 0.4175
vn -0.8675 0.2590 0.4246
vn 0.8595 -0.2422 0.4502
vn -0.8626 -0.2272 0.4521
vn 0.8642 0.0541 0.5003
vn -0.8631 0.0573 0.5018
vn 0.8669 0.2647 0.4225
vn -0.8645 0.2713 0.4232
vn 0.8595 0.1080 0.4996
vn -0.8574 0.1234 0.4997
vn 0.8683 -0.1920 0.4574
vn -0.8701 -0.1916 0.4542
vn -0.8456 -0.3517 -0.4016
vn -0.7790 -0.6232 0.0686
vn 0.8267 -0.0169 0.5625
vn 0.8682 0.4930 -0.0554
vn -0.8645 0.4646 -0.1919
vn -0.8679 -0.0550 0.4938
vn -0.8119 0.5638 0.1517
vn 0.8691 0.2663 -0.4168
vn -0.8666 0.3208 -0.3822
vn 0.8669 0.4976 0.0294
vn -0.8620 0.5060 0.0284
vn -0.8526 0.4938 0.1711
vn -0.8675 0.2590 0.4247
vn 0.8595 -0.2422 0.4501
vn -0.8626 -0.2272 0.4520
vn 0.8641 0.0541 0.5003
vn 0.8682 -0.1920 0.4575
vn -0.8700 -0.1916 0.4542
vn 0.0029 0.5061 -0.8625
usemtl None
s off
f 1//1 5//1 2//1
f 2//2 6//2 3//2
f 3//3 4//3 1//3
f 4//4 8//4 5//4
f 5//5 9//5 6//5
f 6//6 7//6 4//6
f 7//7 11//7 8//7
f 8//8 12//8 9//8
f 9//9 10//9 7//9
f 10//10 14//10 11//10
f 11//11 15//11 12//11
f 12//12 13//12 10//12
f 13//13 17//13 14//13
f 14//14 18//14 15//14
f 15//15 16//15 13//15
f 16//16 20//16 17//16
f 17//17 21//17 18//17
f 18//18 19//18 16//18
f 19//19 23//19 20//19
f 20//20 24//20 21//20
f 21//21 22//21 19//21
f 22//22 26//22 23//22
f 23//23 27//23 24//23
f 24//24 25//24 22//24
f 25//25 29//25 26//25
f 26//26 30//26 27//26
f 27//27 28//27 25//27
f 28//28 32//28 29//28
f 29//29 33//29 30//29
f 30//30 31//30 28//30
f 31//31 35//31 32//31
f 32//32 36//32 33//32
f 33//33 34//33 31//33
f 34//34 38//34 35//34
f 35//35 39//35 36//35
f 36//36 37//36 34//36
f 3//37 1//37 2//37
f 37//38 39//38 38//38
f 40//39 44//39 41//39
f 41//40 45//40 42//40
f 42//41 43//41 40//41
f 43//42 47//42 44//42
f 44//43 48//43 45//43
f 45//44 46//44 43//44
f 46//45 50//45 47//45
f 47//46 51//46 48//46
f 48//47 49//47 46//47
f 49//48 53//48 50//48
f 50//49 54//49 51//49
f 51//50 52//50 49//50
f 52//51 56//51 53//51
f 53//52 57//52 54//52
f 54//53 55//53 52//53
f 55//54 59//54 56//54
f 56//55 60//55 57//55
f 57//56 58//56 55//56
f 42//57 40//57 41//57
f 58//58 60//58 59//58
f 61//59 65//59 62//59
f 62//60 66//60 63//60
f 63//61 64//61 61//61
f 64//62 68//62 65//62
f 65//63 69//63 66//63
f 66//64 67//64 64//64
f 67//65 71//65 68//65
f 68//66 72//66 69//66
f 69//67 70//67 67//67
f 70//68 74//68 71//68
f 71//69 75//69 72//69
f 72//70 73//70 70//70
f 73//71 77//71 74//71
f 74//72 78//72 75//72
f 75//73 76//73 73//73
f 63//74 61//74 62//74
f 76//75 78//75 77//75
f 79//76 83//76 80//76
f 80//77 84//77 81//77
f 81//78 82//78 79//78
f 82//79 86//79 83//79
f 83//80 87//80 84//80
f 84//81 85//81 82//81
f 85//82 89//82 86//82
f 86//83 90//83 87//83
f 87//84 88//84 85//84
f 88//85 92//85 89//85
f 89//86 93//86 90//86
f 90//87 91//87 88//87
f 91//88 95//88 92//88
f 92//89 96//89 93//89
f 93//90 94//90 91//90
f 81//91 79//91 80//91
f 94//92 96//92 95//92
f 97//93 101//93 98//93
f 98//2 102//2 99//2
f 99//94 100//94 97//94
f 100//95 104//95 101//95
f 101//5 105//5 102//5
f 102//6 103//6 100//6
f 103//7 107//7 104//7
f 104//8 108//8 105//8
f 105//9 106//9 103//9
f 106//96 110//96 107//96
f 107//11 111//11 108//11
f 108//12 109//12 106//12
f 109//13 113//13 110//13
f 110//14 114//14 111//14
f 111//15 112//15 109//15
f 112//16 116//16 113//16
f 113//17 117//17 114//17
f 114//18 115//18 112//18
f 115//19 119//19 116//19
f 116//20 120//20 117//20
f 117//97 118//97 115//97
f 118//22 122//22 119//22
f 119//23 123//23 120//23
f 120//24 121//24 118//24
f 121//25 125//25 122//25
f 122//26 126//26 123//26
f 123//27 124//27 121//27
f 124//28 128//28 125//28
f 125//29 129//29 126//29
f 126//30 127//30 124//30
f 127//31 131//31 128//31
f 128//32 132//32 129//32
f 129//33 130//33 127//33
f 130//34 134//34 131//34
f 131//35 135//35 132//35
f 132//36 133//36 130//36
f 99//37 97//37 98//37
f 133//38 135//38 134//38
f 136//39 140//39 137//39
f 137//40 141//40 138//40
f 138//41 139//41 136//41
f 139//42 143//42 140//42
f 140//43 144//43 141//43
f 141//44 142//44 139//44
f 142//45 146//45 143//45
f 143//46 147//46 144//46
f 144//47 145//47 142//47
f 145//48 149//48 146//48
f 146//49 150//49 147//49
f 147//50 148//50 145//50
f 148//98 152//98 149//98
f 149//52 153//52 150//52
f 150//53 151//53 148//53
f 151//99 155//99 152//99
f 152//55 156//55 153//55
f 153//56 154//56 151//56
f 138//57 136//57 137//57
f 154//58 156//58 155//58
f 157//59 161//59 158//59
f 158//60 162//60 159//60
f 159//61 160//61 157//61
f 160//62 164//62 161//62
f 161//63 165//63 162//63
f 162//100 163//100 160//100
f 163//65 167//65 164//65
f 164//66 168//66 165//66
f 165//67 166//67 163//67
f 166//68 170//68 167//68
f 167//69 171//69 168//69
f 168//70 169//70 166//70
f 169//71 173//71 170//71
f 170//72 174//72 171//72
f 171//101 172//101 169//101
f 159//74 157//74 158//74
f 172//75 174//75 173//75
f 175//102 179//102 176//102
f 176//77 180//77 177//77
f 177//78 178//78 175//78
f 178//103 182//103 179//103
f 179//80 183//80 180//80
f 180//104 181//104 178//104
f 181//82 185//82 182//82
f 182//83 186//83 183//83
f 183//84 184//84 181//84
f 184//85 188//85 185//85
f 185//86 189//86 186//86
f 186//87 187//87 184//87
f 187//88 191//88 188//88
f 188//89 192//89 189//89
f 189//90 190//90 187//90
f 177//91 175//91 176//91
f 190//92 192//92 191//92
f 193//105 197//105 194//105
f 194//106 198//106 195//106
f 195//107 196//107 193//107
f 195//108 193//108 194//108
f 196//109 198//109 197//109
f 199//105 203//105 200//105
f 200//106 204//106 201//106
f 201//107 202//107 199//107
f 201//108 199//108 200//108
f 202//109 204//109 203//109
f 205//105 209//105 206//105
f 206//106 210//106 207//106
f 207//110 208//110 205//110
f 207//108 205//108 206//108
f 208//109 210//109 209//109
f 211//105 215//105 212//105
f 212//106 216//106 213//106
f 213//107 214//107 211//107
f 213//111 211//111 212//111
f 214//109 216//109 215//109
f 217//112 221//112 218//112
f 218//106 222//106 219//106
f 219//110 220//110 217//110
f 219//111 217//111 218//111
f 220//109 222//109 221//109
f 223//113 227//113 224//113
f 224//114 228//114 225//114
f 225//115 226//115 223//115
f 225//116 223//116 224//116
f 226//117 228//117 227//117
f 229//118 233//118 230//118
f 230//119 234//119 231//119
f 231//120 232//120 229//120
f 231//121 229//121 230//121
f 232//117 234//117 233//117
f 235//118 239//118 236//118
f 236//119 240//119 237//119
f 237//120 238//120 235//120
f 237//121 235//121 236//121
f 238//117 240//117 239//117
f 241//118 245//118 242//118
f 242//119 246//119 243//119
f 243//120 244//120 241//120
f 243//121 241//121 242//121
f 244//122 246//122 245//122
f 247//118 251//118 248//118
f 248//119 252//119 249//119
f 249//120 250//120 247//120
f 249//121 247//121 248//121
f 250//122 252//122 251//122
f 253//118 257//118 254//118
f 254//119 258//119 255//119
f 255//120 256//120 253//120
f 255//121 253//121 254//121
f 256//122 258//122 257//122
f 259//123 263//123 260//123
f 260//124 264//124 261//124
f 261//125 262//125 259//125
f 261//126 259//126 260//126
f 262//127 264//127 263//127
f 1//128 4//128 5//128
f 2//2 5//2 6//2
f 3//129 6//129 4//129
f 4//130 7//130 8//130
f 5//5 8//5 9//5
f 6//131 9//131 7//131
f 7//132 10//132 11//132
f 8//8 11//8 12//8
f 9//133 12//133 10//133
f 10//134 13//134 14//134
f 11//11 14//11 15//11
f 12//135 15//135 13//135
f 13//136 16//136 17//136
f 14//14 17//14 18//14
f 15//137 18//137 16//137
f 16//138 19//138 20//138
f 17//17 20//17 21//17
f 18//139 21//139 19//139
f 19//140 22//140 23//140
f 20//20 23//20 24//20
f 21//141 24//141 22//141
f 22//142 25//142 26//142
f 23//23 26//23 27//23
f 24//143 27//143 25//143
f 25//144 28//144 29//144
f 26//26 29//26 30//26
f 27//145 30//145 28//145
f 28//146 31//146 32//146
f 29//29 32//29 33//29
f 30//147 33//147 31//147
f 31//148 34//148 35//148
f 32//32 35//32 36//32
f 33//149 36//149 34//149
f 34//34 37//34 38//34
f 35//35 38//35 39//35
f 36//150 39//150 37//150
f 40//151 43//151 44//151
f 41//40 44//40 45//40
f 42//152 45//152 43//152
f 43//153 46//153 47//153
f 44//43 47//43 48//43
f 45//44 48//44 46//44
f 46//154 49//154 50//154
f 47//46 50//46 51//46
f 48//155 51//155 49//155
f 49//156 52//156 53//156
f 50//49 53//49 54//49
f 51//157 54//157 52//157
f 52//158 55//158 56//158
f 53//52 56//52 57//52
f 54//159 57//159 55//159
f 55//160 58//160 59//160
f 56//55 59//55 60//55
f 57//161 60//161 58//161
f 61//162 64//162 65//162
f 62//60 65//60 66//60
f 63//163 66//163 64//163
f 64//164 67//164 68//164
f 65//165 68//165 69//165
f 66//166 69//166 67//166
f 67//167 70//167 71//167
f 68//66 71//66 72//66
f 69//168 72//168 70//168
f 70//169 73//169 74//169
f 71//69 74//69 75//69
f 72//170 75//170 73//170
f 73//171 76//171 77//171
f 74//72 77//72 78//72
f 75//172 78//172 76//172
f 79//173 82//173 83//173
f 80//77 83//77 84//77
f 81//174 84//174 82//174
f 82//175 85//175 86//175
f 83//80 86//80 87//80
f 84//176 87//176 85//176
f 85//177 88//177 89//177
f 86//83 89//83 90//83
f 87//178 90//178 88//178
f 88//179 91//179 92//179
f 89//86 92//86 93//86
f 90//180 93//180 91//180
f 91//181 94//181 95//181
f 92//89 95//89 96//89
f 93//182 96//182 94//182
f 97//128 100//128 101//128
f 98//2 101//2 102//2
f 99//183 102//183 100//183
f 100//130 103//130 104//130
f 101//5 104//5 105//5
f 102//184 105//184 103//184
f 103//185 106//185 107//185
f 104//8 107//8 108//8
f 105//133 108//133 106//133
f 106//134 109//134 110//134
f 107//11 110//11 111//11
f 108//135 111//135 109//135
f 109//136 112//136 113//136
f 110//14 113//14 114//14
f 111//137 114//137 112//137
f 112//138 115//138 116//138
f 113//17 116//17 117//17
f 114//139 117//139 115//139
f 115//140 118//140 119//140
f 116//20 119//20 120//20
f 117//141 120//141 118//141
f 118//142 121//142 122//142
f 119//23 122//23 123//23
f 120//143 123//143 121//143
f 121//186 124//186 125//186
f 122//26 125//26 126//26
f 123//145 126//145 124//145
f 124//146 127//146 128//146
f 125//29 128//29 129//29
f 126//147 129//147 127//147
f 127//148 130//148 131//148
f 128//32 131//32 132//32
f 129//149 132//149 130//149
f 130//34 133//34 134//34
f 131//35 134//35 135//35
f 132//187 135//187 133//187
f 136//151 139//151 140//151
f 137//40 140//40 141//40
f 138//152 141//152 139//152
f 139//42 142//42 143//42
f 140//43 143//43 144//43
f 141//44 144//44 142//44
f 142//154 145//154 146//154
f 143//46 146//46 147//46
f 144//188 147//188 145//188
f 145//156 148//156 149//156
f 146//49 149//49 150//49
f 147//157 150//157 148//157
f 148//158 151//158 152//158
f 149//52 152//52 153//52
f 150//189 153//189 151//189
f 151//190 154//190 155//190
f 152//55 155//55 156//55
f 153//191 156//191 154//191
f 157//162 160//162 161//162
f 158//60 161//60 162//60
f 159//163 162//163 160//163
f 160//164 163//164 164//164
f 161//63 164//63 165//63
f 162//166 165//166 163//166
f 163//192 166//192 167//192
f 164//66 167//66 168//66
f 165//193 168//193 166//193
f 166//169 169//169 170//169
f 167//69 170//69 171//69
f 168//194 171//194 169//194
f 169//171 172//171 173//171
f 170//72 173//72 174//72
f 171//195 174//195 172//195
f 175//196 178//196 179//196
f 176//77 179//77 180//77
f 177//197 180//197 178//197
f 178//198 181//198 182//198
f 179//80 182//80 183//80
f 180//176 183//176 181//176
f 181//177 184//177 185//177
f 182//83 185//83 186//83
f 183//178 186//178 184//178
f 184//179 187//179 188//179
f 185//86 188//86 189//86
f 186//180 189//180 187//180
f 187//199 190//199 191//199
f 188//89 191//89 192//89
f 189//200 192//200 190//200
f 193//105 196//105 197//105
f 194//106 197//106 198//106
f 195//107 198//107 196//107
f 199//105 202//105 203//105
f 200//106 203//106 204//106
f 201//107 204//107 202//107
f 205//112 208//112 209//112
f 206//106 209//106 210//106
f 207//107 210//107 208//107
f 211//112 214//112 215//112
f 212//106 215//106 216//106
f 213//107 216//107 214//107
f 217//201 220//201 221//201
f 218//106 221//106 222//106
f 219//110 222//110 220//110
f 223//113 226//113 227//113
f 224//114 227//114 228//114
f 225//115 228//115 226//115
f 229//118 232//118 233//118
f 230//119 233//119 234//119
f 231//120 234//120 232//120
f 235//118 238//118 239//118
f 236//119 239//119 240//119
f 237//120 240//120 238//120
f 241//118 244//118 245//118
f 242//119 245//119 246//119
f 243//120 246//120 244//120
f 247//118 250//118 251//118
f 248//119 251//119 252//119
f 249//120 252//120 250//120
f 253//118 256//118 257//118
f 254//119 257//119 258//119
f 255//120 258//120 256//120
f 259//123 262//123 263//123
f 260//124 263//124 264//124
f 261//125 264//125 262//125
