# Blender v2.79 (sub 0) OBJ File: ''
# www.blender.org
mtllib m784.mtl
o m784
v -0.475000 -0.092911 0.021991
v 0.475000 -0.092911 0.021991
v 0.475000 -0.092911 -0.215509
v -0.475000 -0.092911 -0.215509
v -0.475000 -0.063223 0.021991
v 0.475000 -0.063223 0.021991
v 0.475000 -0.063223 -0.215509
v -0.475000 -0.063223 -0.215509
v -0.475000 0.159421 0.036929
v 0.475000 0.159421 0.036929
v 0.475000 -0.078079 0.036740
v -0.475000 -0.078079 0.036740
v -0.475000 0.159445 0.007242
v 0.475000 0.159445 0.007242
v 0.475000 -0.078055 0.007053
v -0.475000 -0.078055 0.007053
v -0.475000 -0.018692 0.140741
v 0.475000 -0.018692 0.140741
v 0.475000 -0.018692 0.021991
v -0.475000 -0.018692 0.021991
v -0.475000 0.100058 0.140741
v 0.475000 0.100058 0.140741
v 0.475000 0.100058 0.021991
v -0.475000 0.100058 0.021991
vn 0.0000 -1.0000 0.0000
vn 0.0000 0.0000 1.0000
vn -1.0000 0.0000 0.0000
vn 0.0000 0.0000 -1.0000
vn 1.0000 0.0000 0.0000
vn 0.0000 1.0000 0.0000
vn 0.0000 -0.0008 1.0000
vn 0.0000 1.0000 0.0008
vn 0.0000 -1.0000 -0.0008
vn 0.0000 0.0008 -1.0000
usemtl None
s off
f 1//1 4//1 2//1
f 2//1 4//1 3//1
f 1//2 6//2 5//2
f 1//2 2//2 6//2
f 1//3 5//3 4//3
f 4//3 5//3 8//3
f 4//4 8//4 7//4
f 4//4 7//4 3//4
f 2//5 7//5 6//5
f 2//5 3//5 7//5
f 6//6 8//6 5//6
f 6//6 7//6 8//6
f 9//7 12//7 10//7
f 10//7 12//7 11//7
f 9//8 14//8 13//8
f 9//8 10//8 14//8
f 9//3 13//3 12//3
f 12//3 13//3 16//3
f 12//9 16//9 15//9
f 12//9 15//9 11//9
f 10//5 15//5 14//5
f 10//5 11//5 15//5
f 14//10 16//10 13//10
f 14//10 15//10 16//10
f 17//1 20//1 18//1
f 18//1 20//1 19//1
f 17//2 22//2 21//2
f 17//2 18//2 22//2
f 17//3 21//3 20//3
f 20//3 21//3 24//3
f 20//4 24//4 23//4
f 20//4 23//4 19//4
f 18//5 23//5 22//5
f 18//5 19//5 23//5
f 22//6 24//6 21//6
f 22//6 23//6 24//6
