# Blender v2.79 (sub 0) OBJ File: ''
# www.blender.org
mtllib m79.mtl
o m79
v -0.176831 0.016477 0.041117
v -0.245437 0.033087 0.037166
v -0.236370 0.012765 0.036405
v 0.013437 -0.025161 -0.063563
v -0.022683 -0.022093 -0.047070
v 0.046736 -0.025160 -0.048062
v 0.118219 -0.025160 -0.049053
v -0.009858 -0.025161 -0.130318
v -0.223585 0.027789 -0.048312
v -0.230485 0.029459 -0.028651
v -0.191786 0.020092 -0.035763
v -0.230684 0.029507 -0.070185
v -0.287309 0.043218 0.047904
v -0.298325 0.045884 0.066660
v -0.271841 0.039473 0.051908
v -0.245359 0.033062 0.037155
v -0.294419 0.044939 0.033877
v -0.042750 0.031750 0.026263
v -0.107099 0.043031 0.028711
v -0.074099 0.040802 0.047867
v -0.105234 0.046190 0.049087
v -0.121521 0.053734 0.068528
v 0.261821 0.029497 0.018408
v 0.119029 0.036782 0.018408
v 0.115136 0.114221 0.041756
v -0.323948 0.054082 0.033214
v -0.361083 0.079601 0.026001
v -0.440912 0.077107 0.066662
v -0.228080 0.047004 0.036405
v -0.223934 0.064127 0.026907
v -0.059028 0.024204 0.036405
v -0.176833 0.016470 0.041117
v -0.047825 0.001634 0.043182
v -0.022399 -0.020917 0.045051
v -0.047825 0.001634 0.043182
v 0.118219 0.010191 0.041117
v 0.118219 0.027167 0.033214
v 0.118219 -0.008915 0.045051
v 0.118219 -0.023760 0.045902
v 0.118219 -0.023760 0.045902
v 0.199058 -0.023760 0.045051
v 0.118219 0.035619 0.024320
v 0.218715 0.031604 0.026001
v 0.229321 0.017045 0.036405
v 0.395549 -0.023759 0.033214
v 0.340425 -0.003357 0.036405
v 0.303106 -0.023760 0.041117
v 0.218715 -0.005305 0.043182
v 0.419708 -0.005305 0.026001
v 0.441576 -0.008914 0.017410
v 0.395549 0.010192 0.017410
v 0.340425 0.017045 0.026907
v 0.303105 0.027167 0.017410
v 0.199058 0.035620 0.017410
v 0.118219 0.037447 0.017410
v -0.040326 0.032611 0.026001
v -0.132131 0.048369 0.026454
v -0.166486 0.059213 0.017410
v -0.010356 0.037278 0.017410
v -0.317600 0.086332 0.017410
v -0.398493 0.083404 0.017410
v -0.417986 0.072594 0.017410
v 0.451528 -0.023759 0.017410
v 0.441576 -0.023759 0.024320
v 0.118219 0.035619 0.001298
v -0.040326 0.032611 -0.002620
v -0.223934 0.064127 -0.004734
v -0.361083 0.079601 -0.002620
v -0.498468 0.088438 -0.162643
v -0.323948 0.054082 -0.019439
v -0.398495 0.083404 0.017410
v 0.118219 0.027167 -0.019439
v -0.059028 0.024204 -0.026877
v -0.228080 0.047004 -0.026877
v 0.118219 0.010191 -0.037863
v -0.047825 0.001634 -0.042678
v -0.176833 0.016470 -0.037863
v -0.022399 -0.020917 -0.047037
v 0.118219 -0.008915 -0.047037
v 0.118219 -0.023760 -0.049020
v 0.441576 -0.023759 0.001298
v 0.419708 -0.005305 -0.002620
v 0.340425 0.017045 -0.004734
v 0.218715 0.031604 -0.002620
v 0.395549 -0.023759 -0.019439
v 0.340425 -0.003357 -0.026877
v 0.229321 0.017045 -0.026877
v 0.303106 -0.023760 -0.037863
v 0.218715 -0.005305 -0.042678
v 0.199058 -0.023760 -0.047037
v 0.118219 -0.023760 -0.049020
v -0.245439 0.033079 -0.028651
v -0.245439 0.033079 0.037166
v -0.096602 -0.052150 0.047867
v -0.126968 -0.039038 0.028711
v -0.064584 -0.058439 0.026263
v -0.126754 -0.042700 0.049087
v -0.144688 -0.041959 0.068528
v 0.115135 -0.161737 0.041756
v 0.119028 -0.084298 0.018408
v 0.261820 -0.077014 0.018408
v -0.440910 0.077118 0.066662
v -0.367983 0.044552 0.026001
v -0.323947 0.054092 0.033214
v -0.240515 -0.004358 0.026907
v -0.075608 -0.044283 0.036405
v -0.055323 -0.029337 0.043182
v -0.022398 -0.020912 0.045051
v 0.118218 -0.057707 0.041117
v 0.118218 -0.074683 0.033214
v 0.118219 -0.038601 0.045051
v 0.118219 -0.023756 0.045902
v 0.199058 -0.023757 0.045051
v 0.118219 -0.023756 0.045902
v 0.218714 -0.079121 0.026001
v 0.118218 -0.083135 0.024320
v 0.229321 -0.064562 0.036405
v 0.303106 -0.023758 0.041117
v 0.340425 -0.044161 0.036405
v 0.395549 -0.023759 0.033214
v 0.218715 -0.042212 0.043182
v 0.419708 -0.042214 0.026001
v 0.395549 -0.057710 0.017410
v 0.441576 -0.038604 0.017410
v 0.303105 -0.074685 0.017410
v 0.340425 -0.064563 0.026907
v 0.199058 -0.083136 0.017410
v 0.118218 -0.084963 0.017410
v -0.151669 -0.032336 0.026454
v -0.062823 -0.060314 0.026001
v -0.187180 -0.026264 0.017410
v -0.034463 -0.070748 0.017410
v -0.330296 0.021841 0.017410
v -0.404044 0.055213 0.017410
v -0.417984 0.072605 0.017410
v 0.451528 -0.023759 0.017410
v 0.118218 -0.083135 0.001298
v -0.062823 -0.060314 -0.002620
v -0.240515 -0.004358 -0.004734
v -0.367983 0.044552 -0.002620
v -0.323947 0.054092 -0.019439
v -0.498472 0.088451 -0.162643
v -0.404045 0.055213 0.017410
v 0.118218 -0.074683 -0.019439
v -0.075608 -0.044283 -0.026877
v -0.236370 0.012765 -0.026877
v 0.118218 -0.057707 -0.037863
v -0.055323 -0.029337 -0.042678
v -0.176831 0.016477 -0.037863
v -0.022398 -0.020912 -0.047037
v 0.118219 -0.038601 -0.047037
v 0.118219 -0.023756 -0.049020
v 0.419708 -0.042214 -0.002620
v 0.340425 -0.064563 -0.004734
v 0.218714 -0.079121 -0.002620
v 0.395549 -0.023759 -0.019439
v 0.340425 -0.044161 -0.026877
v 0.229321 -0.064562 -0.026877
v 0.303106 -0.023758 -0.037863
v 0.218715 -0.042212 -0.042678
v 0.199058 -0.023757 -0.047037
v 0.118219 -0.023756 -0.049020
v -0.245437 0.033087 -0.028651
v 0.013437 -0.023761 -0.063529
v -0.022752 -0.023949 -0.047037
v 0.046736 -0.023761 -0.048028
vn -0.0743 -0.0704 0.9947
vn -0.2353 -0.9719 -0.0000
vn -0.2353 -0.9719 -0.0001
vn 0.1639 0.9718 -0.1693
vn 0.1619 0.9728 -0.1656
vn 0.1563 0.9579 -0.2408
vn -0.0148 -0.2893 0.9571
vn 0.3236 0.6620 0.6760
vn -0.0134 0.2538 0.9672
vn 0.0479 0.4756 0.8784
vn 0.0637 0.4722 0.8792
vn 0.0021 0.1560 0.9878
vn -0.0074 0.0743 0.9972
vn 0.0413 0.3061 0.9511
vn -0.0028 0.2863 0.9581
vn 0.0093 0.4220 0.9065
vn -0.0064 0.0754 0.9971
vn -0.0049 0.0572 0.9983
vn 0.0018 0.2017 0.9794
vn 0.0105 0.0572 0.9983
vn 0.0174 0.7248 0.6888
vn 0.0313 0.5961 0.8023
vn 0.0124 0.4220 0.9065
vn 0.0849 0.0741 0.9936
vn 0.0234 0.2799 0.9597
vn 0.0110 0.2017 0.9794
vn 0.0493 0.2683 0.9621
vn 0.0530 0.1316 0.9899
vn 0.0377 0.0608 0.9974
vn 0.0155 0.0844 0.9963
vn 0.1323 0.2058 0.9696
vn 0.3305 0.7962 0.5068
vn 0.0976 0.8482 0.5206
vn 0.0674 0.6121 0.7879
vn 0.1711 0.9316 0.3207
vn 0.2049 0.6992 0.6850
vn 0.1283 0.4186 0.8991
vn 0.0773 0.4208 0.9039
vn 0.0780 0.9596 0.2702
vn 0.0311 0.9309 0.3640
vn 0.0218 0.9665 0.2557
vn 0.1340 0.7540 0.6431
vn 0.1518 0.8708 0.4676
vn 0.0972 0.6921 0.7152
vn -0.0017 0.7793 0.6266
vn -0.0123 0.8960 0.4439
vn -0.0065 0.7249 0.6888
vn -0.0013 0.9667 0.2557
vn 0.1542 0.8591 0.4881
vn 0.0631 0.6053 0.7935
vn -0.0310 0.8570 0.5144
vn 0.0593 0.9825 0.1767
vn -0.4638 0.8363 -0.2925
vn 0.5327 0.3571 0.7672
vn 0.1880 0.1342 0.9730
vn 0.3918 0.3883 0.8341
vn -0.0013 0.9936 -0.1127
vn -0.0134 0.9781 -0.2078
vn 0.1274 0.9068 -0.4019
vn 0.1675 0.9607 -0.2212
vn 0.1718 0.9571 -0.2332
vn 0.0904 0.8681 -0.4880
vn 0.4317 0.8418 -0.3241
vn -0.0350 0.9678 -0.2492
vn 0.0895 0.9957 -0.0219
vn -0.4654 0.8391 0.2818
vn -0.0082 0.9260 -0.3774
vn -0.0021 0.9454 -0.3260
vn 0.1576 0.8891 -0.4296
vn 0.1048 0.7771 -0.6206
vn 0.0786 0.7814 -0.6190
vn -0.0276 0.5218 -0.8526
vn 0.0161 0.7353 -0.6775
vn -0.0057 0.5716 -0.8205
vn 0.0807 0.5982 -0.7973
vn 0.0047 0.3455 -0.9384
vn -0.0171 0.1712 -0.9851
vn 0.0038 0.4328 -0.9015
vn -0.0148 0.1736 -0.9847
vn -0.0113 0.1324 -0.9911
vn 0.7390 0.4954 -0.4565
vn 0.5959 0.5906 -0.5442
vn 0.3717 0.8956 -0.2445
vn 0.2609 0.8900 -0.3740
vn 0.1787 0.9733 -0.1437
vn 0.1106 0.9611 -0.2530
vn 0.0804 0.9896 -0.1195
vn 0.0329 0.9857 -0.1653
vn 0.0225 0.9934 -0.1127
vn 0.3942 0.2814 -0.8749
vn 0.2742 0.4266 -0.8619
vn 0.2199 0.7174 -0.6610
vn 0.1338 0.7288 -0.6715
vn 0.0959 0.8714 -0.4811
vn 0.0454 0.8652 -0.4994
vn 0.0223 0.9258 -0.3773
vn 0.1927 0.1681 -0.9668
vn 0.1184 0.2941 -0.9484
vn 0.0996 0.5425 -0.8342
vn 0.0470 0.5617 -0.8260
vn 0.0216 0.7352 -0.6775
vn 0.0870 0.1403 -0.9863
vn 0.0356 0.1937 -0.9804
vn 0.0235 0.4327 -0.9012
vn 0.0243 0.1324 -0.9909
vn -0.0610 0.2007 -0.9778
vn -0.0773 0.2202 -0.9724
vn 0.1168 0.6593 0.7428
vn 0.1168 0.6593 0.7427
vn -0.0267 0.0877 0.9958
vn -0.0339 0.0966 0.9947
vn -0.2987 -0.9392 -0.1693
vn -0.3010 -0.9391 -0.1656
vn -0.2991 -0.9233 -0.2408
vn 0.0148 -0.2893 -0.9571
vn 0.0486 -0.7353 0.6760
vn -0.1208 -0.1806 0.9761
vn -0.1767 -0.4444 0.8782
vn -0.1594 -0.4491 0.8792
vn -0.0695 -0.1397 0.9878
vn -0.0406 -0.0627 0.9972
vn -0.1033 -0.2911 0.9511
vn -0.0475 -0.3583 0.9324
vn -0.0512 -0.4215 0.9054
vn -0.0185 -0.1471 0.9890
vn -0.0072 -0.0572 0.9983
vn -0.0213 -0.2016 0.9792
vn 0.0105 -0.0572 0.9983
vn 0.0174 -0.7248 0.6888
vn 0.0313 -0.5961 0.8023
vn 0.0124 -0.4220 0.9065
vn 0.0849 -0.0741 0.9936
vn 0.0234 -0.2799 0.9597
vn 0.0110 -0.2017 0.9794
vn 0.0493 -0.2683 0.9621
vn 0.0530 -0.1316 0.9899
vn 0.0377 -0.0608 0.9974
vn 0.0155 -0.0844 0.9963
vn 0.1323 -0.2058 0.9696
vn 0.3305 -0.7962 0.5068
vn 0.0976 -0.8482 0.5206
vn 0.0673 -0.6121 0.7879
vn 0.1711 -0.9316 0.3207
vn 0.2049 -0.6992 0.6849
vn 0.1283 -0.4186 0.8991
vn 0.0773 -0.4208 0.9039
vn 0.0779 -0.9597 0.2702
vn 0.0311 -0.9309 0.3639
vn 0.0218 -0.9665 0.2557
vn -0.3040 -0.9523 -0.0248
vn -0.2634 -0.8439 0.4675
vn -0.2718 -0.9330 0.2360
vn -0.0787 -0.5861 0.8064
vn -0.0910 -0.7687 0.6331
vn -0.0847 -0.7223 0.6864
vn -0.0896 -0.9629 0.2547
vn -0.2961 -0.8810 0.3691
vn -0.2747 -0.7036 0.6553
vn -0.3535 -0.7812 0.5145
vn -0.3175 -0.9316 0.1767
vn -0.7462 -0.5981 -0.2925
vn 0.5327 -0.3571 0.7672
vn 0.1880 -0.1342 0.9730
vn 0.3918 -0.3883 0.8341
vn -0.0921 -0.9894 -0.1123
vn -0.1110 -0.9371 -0.3310
vn -0.2782 -0.9549 -0.1036
vn -0.2905 -0.9309 -0.2212
vn -0.3141 -0.9344 -0.1679
vn -0.3408 -0.8731 -0.3487
vn 0.0804 -0.9426 -0.3241
vn -0.3993 -0.8823 -0.2492
vn -0.2946 -0.9554 -0.0219
vn -0.7487 -0.6000 0.2819
vn -0.1079 -0.9206 -0.3752
vn -0.1148 -0.8555 -0.5049
vn -0.2666 -0.8627 -0.4297
vn -0.2622 -0.7390 -0.6206
vn -0.2903 -0.7299 -0.6188
vn -0.2561 -0.3829 -0.8876
vn -0.0890 -0.7325 -0.6749
vn -0.0881 -0.6647 -0.7419
vn -0.2019 -0.5689 -0.7973
vn -0.1539 -0.3094 -0.9384
vn -0.0935 -0.1444 -0.9851
vn -0.0457 -0.4324 -0.9005
vn -0.0412 -0.3274 -0.9440
vn -0.0167 -0.1324 -0.9911
vn 0.7390 -0.4954 -0.4565
vn 0.5959 -0.5906 -0.5442
vn 0.3718 -0.8956 -0.2445
vn 0.2609 -0.8900 -0.3739
vn 0.1787 -0.9733 -0.1437
vn 0.1106 -0.9611 -0.2530
vn 0.0804 -0.9896 -0.1195
vn 0.0329 -0.9857 -0.1653
vn 0.0225 -0.9934 -0.1127
vn 0.3942 -0.2813 -0.8749
vn 0.2742 -0.4266 -0.8619
vn 0.2199 -0.7174 -0.6610
vn 0.1338 -0.7288 -0.6715
vn 0.0959 -0.8714 -0.4811
vn 0.0454 -0.8652 -0.4994
vn 0.0223 -0.9258 -0.3773
vn 0.1927 -0.1681 -0.9668
vn 0.1184 -0.2941 -0.9484
vn 0.0996 -0.5425 -0.8342
vn 0.0470 -0.5617 -0.8260
vn 0.0216 -0.7352 -0.6775
vn 0.0870 -0.1403 -0.9863
vn 0.0356 -0.1937 -0.9804
vn 0.0235 -0.4327 -0.9012
vn 0.0243 -0.1324 -0.9909
vn -0.1559 -0.1547 -0.9756
vn -0.1694 -0.1605 -0.9724
vn -0.1977 -0.6397 0.7428
vn -0.0682 -0.0677 0.9954
vn 0.0000 -1.0000 0.0001
vn -0.0426 -0.9949 0.0917
vn 0.0000 -1.0000 -0.0000
vn 0.0026 -1.0000 -0.0056
usemtl None
s off
f 1//1 2//1 3//1
f 9//2 11//2 10//2
f 12//2 11//2 9//2
f 13//3 15//3 14//3
f 16//2 15//2 13//2
f 17//2 16//2 13//2
f 18//4 19//4 20//4
f 19//5 21//5 20//5
f 20//6 21//6 22//6
f 23//7 25//7 24//7
f 26//8 27//8 28//8
f 27//9 26//9 29//9
f 27//10 29//10 30//10
f 30//11 29//11 31//11
f 29//12 32//12 33//12
f 32//13 34//13 33//13
f 29//14 35//14 31//14
f 31//15 33//15 36//15
f 37//16 31//16 36//16
f 33//17 34//17 38//17
f 34//18 39//18 38//18
f 33//19 38//19 36//19
f 40//20 41//20 38//20
f 42//21 37//21 43//21
f 43//22 37//22 44//22
f 37//23 36//23 44//23
f 45//24 46//24 47//24
f 36//25 48//25 44//25
f 38//26 48//26 36//26
f 48//27 46//27 44//27
f 47//28 46//28 48//28
f 41//29 47//29 48//29
f 38//30 41//30 48//30
f 45//31 49//31 46//31
f 50//32 51//32 49//32
f 52//33 53//33 43//33
f 52//34 43//34 44//34
f 51//35 53//35 52//35
f 49//36 51//36 52//36
f 49//37 52//37 46//37
f 46//38 52//38 44//38
f 53//39 54//39 43//39
f 54//40 42//40 43//40
f 55//41 42//41 54//41
f 56//42 30//42 57//42
f 58//43 30//43 56//43
f 58//44 56//44 59//44
f 56//45 31//45 37//45
f 59//46 56//46 42//46
f 42//47 56//47 37//47
f 55//48 59//48 42//48
f 58//49 60//49 30//49
f 60//50 27//50 30//50
f 61//51 27//51 60//51
f 61//52 28//52 27//52
f 61//53 62//53 28//53
f 63//54 50//54 64//54
f 64//55 49//55 45//55
f 64//56 50//56 49//56
f 65//57 59//57 55//57
f 66//58 59//58 65//58
f 66//59 58//59 59//59
f 67//60 58//60 66//60
f 67//61 60//61 58//61
f 67//62 68//62 60//62
f 69//63 68//63 70//63
f 68//64 71//64 60//64
f 69//65 71//65 68//65
f 69//66 62//66 71//66
f 72//67 66//67 65//67
f 73//68 66//68 72//68
f 73//69 67//69 66//69
f 74//70 67//70 73//70
f 74//71 68//71 67//71
f 74//72 70//72 68//72
f 75//73 73//73 72//73
f 76//74 73//74 75//74
f 76//75 74//75 73//75
f 76//76 77//76 74//76
f 78//77 77//77 76//77
f 79//78 76//78 75//78
f 78//79 76//79 79//79
f 78//80 79//80 80//80
f 81//81 50//81 63//81
f 81//82 82//82 50//82
f 50//83 82//83 51//83
f 82//84 83//84 51//84
f 51//85 83//85 53//85
f 83//86 84//86 53//86
f 84//87 54//87 53//87
f 84//88 65//88 54//88
f 65//89 55//89 54//89
f 81//90 85//90 82//90
f 85//91 86//91 82//91
f 82//92 86//92 83//92
f 86//93 87//93 83//93
f 87//94 84//94 83//94
f 87//95 72//95 84//95
f 72//96 65//96 84//96
f 88//97 86//97 85//97
f 88//98 89//98 86//98
f 89//99 87//99 86//99
f 89//100 75//100 87//100
f 75//101 72//101 87//101
f 88//102 90//102 89//102
f 90//103 79//103 89//103
f 79//104 75//104 89//104
f 91//105 79//105 90//105
f 92//106 70//106 74//106
f 77//107 92//107 74//107
f 57//108 30//108 31//108
f 56//109 57//109 31//109
f 26//110 93//110 29//110
f 29//111 93//111 32//111
f 94//112 95//112 96//112
f 94//113 97//113 95//113
f 98//114 97//114 94//114
f 99//115 100//115 101//115
f 102//116 103//116 104//116
f 3//117 104//117 103//117
f 105//118 3//118 103//118
f 106//119 3//119 105//119
f 107//120 1//120 3//120
f 107//121 108//121 1//121
f 106//122 107//122 3//122
f 109//123 107//123 106//123
f 109//124 106//124 110//124
f 111//125 108//125 107//125
f 111//126 112//126 108//126
f 109//127 111//127 107//127
f 111//128 113//128 114//128
f 115//129 110//129 116//129
f 117//130 110//130 115//130
f 117//131 109//131 110//131
f 118//132 119//132 120//132
f 117//133 121//133 109//133
f 109//134 121//134 111//134
f 117//135 119//135 121//135
f 121//136 119//136 118//136
f 121//137 118//137 113//137
f 121//138 113//138 111//138
f 119//139 122//139 120//139
f 122//140 123//140 124//140
f 115//141 125//141 126//141
f 117//142 115//142 126//142
f 126//143 125//143 123//143
f 126//144 123//144 122//144
f 119//145 126//145 122//145
f 117//146 126//146 119//146
f 115//147 127//147 125//147
f 115//148 116//148 127//148
f 127//149 116//149 128//149
f 129//150 105//150 130//150
f 130//151 105//151 131//151
f 132//152 130//152 131//152
f 110//153 106//153 130//153
f 116//154 130//154 132//154
f 110//155 130//155 116//155
f 116//156 132//156 128//156
f 105//157 133//157 131//157
f 105//158 103//158 133//158
f 133//159 103//159 134//159
f 103//160 102//160 134//160
f 102//161 135//161 134//161
f 64//162 124//162 136//162
f 120//163 122//163 64//163
f 122//164 124//164 64//164
f 128//165 132//165 137//165
f 137//166 132//166 138//166
f 132//167 131//167 138//167
f 138//168 131//168 139//168
f 131//169 133//169 139//169
f 133//170 140//170 139//170
f 141//171 140//171 142//171
f 133//172 143//172 140//172
f 140//173 143//173 142//173
f 143//174 135//174 142//174
f 137//175 138//175 144//175
f 144//176 138//176 145//176
f 138//177 139//177 145//177
f 145//178 139//178 146//178
f 139//179 140//179 146//179
f 140//180 141//180 146//180
f 144//181 145//181 147//181
f 147//182 145//182 148//182
f 145//183 146//183 148//183
f 146//184 149//184 148//184
f 148//185 149//185 150//185
f 147//186 148//186 151//186
f 151//187 148//187 150//187
f 152//188 151//188 150//188
f 136//189 124//189 81//189
f 124//190 153//190 81//190
f 123//191 153//191 124//191
f 123//192 154//192 153//192
f 125//193 154//193 123//193
f 125//194 155//194 154//194
f 125//195 127//195 155//195
f 127//196 137//196 155//196
f 127//197 128//197 137//197
f 153//198 156//198 81//198
f 153//199 157//199 156//199
f 154//200 157//200 153//200
f 154//201 158//201 157//201
f 154//202 155//202 158//202
f 155//203 144//203 158//203
f 155//204 137//204 144//204
f 156//205 157//205 159//205
f 157//206 160//206 159//206
f 157//207 158//207 160//207
f 158//208 147//208 160//208
f 158//209 144//209 147//209
f 160//210 161//210 159//210
f 160//211 151//211 161//211
f 160//212 147//212 151//212
f 161//213 151//213 162//213
f 146//214 141//214 163//214
f 146//215 163//215 149//215
f 106//216 105//216 129//216
f 106//216 129//216 130//216
f 3//217 2//217 104//217
f 4//218 7//218 6//218
f 4//219 6//219 5//219
f 8//220 7//220 4//220
f 164//221 166//221 165//221
f 164//220 80//220 166//220
