# Blender v2.79 (sub 0) OBJ File: ''
# www.blender.org
mtllib m807.mtl
o m807
v -0.166250 -0.123155 -0.140387
v 0.166250 -0.123155 -0.140387
v 0.166250 -0.123155 -0.425387
v -0.166250 -0.123155 -0.425387
v -0.166250 -0.075655 -0.140387
v 0.166250 -0.075655 -0.140387
v 0.166250 -0.075655 -0.425387
v -0.166250 -0.075655 -0.425387
v -0.166250 -0.099405 0.073363
v 0.166250 -0.099405 0.073363
v 0.166250 -0.099405 0.025863
v -0.166250 -0.099405 0.025863
v -0.166250 0.233095 0.073363
v 0.166250 0.233095 0.073363
v 0.166250 0.233095 0.025863
v -0.166250 0.233095 0.025863
v -0.142500 -0.099405 -0.425387
v -0.147036 -0.085445 -0.425387
v -0.142500 -0.099405 0.524613
v -0.147036 -0.085445 0.524613
v -0.166250 -0.099405 0.524613
v -0.166250 -0.099405 -0.425387
v -0.158911 -0.076817 -0.425387
v -0.158911 -0.076817 0.524613
v -0.173589 -0.076817 -0.425387
v -0.173589 -0.076817 0.524613
v -0.185464 -0.085445 -0.425387
v -0.185464 -0.085445 0.524613
v -0.190000 -0.099405 -0.425387
v -0.190000 -0.099405 0.524613
v -0.185464 -0.113365 -0.425387
v -0.185464 -0.113365 0.524613
v -0.173589 -0.121993 -0.425387
v -0.173589 -0.121993 0.524613
v -0.158911 -0.121993 -0.425387
v -0.158911 -0.121993 0.524613
v -0.147036 -0.113365 -0.425387
v -0.147036 -0.113365 0.524613
v 0.190000 -0.099405 -0.425387
v 0.185464 -0.085445 -0.425387
v 0.190000 -0.099405 0.524613
v 0.185464 -0.085445 0.524613
v 0.166250 -0.099405 0.524613
v 0.166250 -0.099405 -0.425387
v 0.173589 -0.076817 -0.425387
v 0.173589 -0.076817 0.524613
v 0.158911 -0.076817 -0.425387
v 0.158911 -0.076817 0.524613
v 0.147036 -0.085445 -0.425387
v 0.147036 -0.085445 0.524613
v 0.142500 -0.099405 -0.425387
v 0.142500 -0.099405 0.524613
v 0.147036 -0.113365 -0.425387
v 0.147036 -0.113365 0.524613
v 0.158911 -0.121993 -0.425387
v 0.158911 -0.121993 0.524613
v 0.173589 -0.121993 -0.425387
v 0.173589 -0.121993 0.524613
v 0.185464 -0.113365 -0.425387
v 0.185464 -0.113365 0.524613
v -0.142500 0.233095 0.049613
v -0.147036 0.247055 0.049613
v -0.142500 0.233095 0.524613
v -0.147036 0.247055 0.524613
v -0.166250 0.233095 0.524613
v -0.166250 0.233095 0.049613
v -0.158911 0.255683 0.049613
v -0.158911 0.255683 0.524613
v -0.173589 0.255683 0.049613
v -0.173589 0.255683 0.524613
v -0.185464 0.247055 0.049613
v -0.185464 0.247055 0.524613
v -0.190000 0.233095 0.049613
v -0.190000 0.233095 0.524613
v -0.185464 0.219135 0.049613
v -0.185464 0.219135 0.524613
v -0.173589 0.210507 0.049613
v -0.173589 0.210507 0.524613
v -0.158911 0.210507 0.049613
v -0.158911 0.210507 0.524613
v -0.147036 0.219135 0.049613
v -0.147036 0.219135 0.524613
v 0.190000 0.233095 0.049613
v 0.185464 0.247055 0.049613
v 0.190000 0.233095 0.524613
v 0.185464 0.247055 0.524613
v 0.166250 0.233095 0.524613
v 0.166250 0.233095 0.049613
v 0.173589 0.255683 0.049613
v 0.173589 0.255683 0.524613
v 0.158911 0.255683 0.049613
v 0.158911 0.255683 0.524613
v 0.147036 0.247055 0.049613
v 0.147036 0.247055 0.524613
v 0.142500 0.233095 0.049613
v 0.142500 0.233095 0.524613
v 0.147036 0.219135 0.049613
v 0.147036 0.219135 0.524613
v 0.158911 0.210507 0.049613
v 0.158911 0.210507 0.524613
v 0.173589 0.210507 0.049613
v 0.173589 0.210507 0.524613
v 0.185464 0.219135 0.049613
v 0.185464 0.219135 0.524613
vn 0.0000 -1.0000 0.0000
vn 0.0000 0.0000 1.0000
vn -1.0000 0.0000 0.0000
vn 0.0000 0.0000 -1.0000
vn 1.0000 0.0000 0.0000
vn 0.0000 1.0000 0.0000
vn 0.9511 0.3090 0.0000
vn 0.5878 0.8090 0.0000
vn -0.5878 0.8090 0.0000
vn -0.9511 0.3090 0.0000
vn -0.9511 -0.3090 0.0000
vn -0.5878 -0.8090 0.0000
vn 0.5878 -0.8090 0.0000
vn 0.9511 -0.3090 0.0000
usemtl None
s off
f 1//1 4//1 2//1
f 2//1 4//1 3//1
f 1//2 6//2 5//2
f 1//2 2//2 6//2
f 1//3 5//3 4//3
f 4//3 5//3 8//3
f 4//4 8//4 7//4
f 4//4 7//4 3//4
f 2//5 7//5 6//5
f 2//5 3//5 7//5
f 6//6 8//6 5//6
f 6//6 7//6 8//6
f 9//1 12//1 10//1
f 10//1 12//1 11//1
f 9//2 14//2 13//2
f 9//2 10//2 14//2
f 9//3 13//3 12//3
f 12//3 13//3 16//3
f 12//4 16//4 15//4
f 12//4 15//4 11//4
f 10//5 15//5 14//5
f 10//5 11//5 15//5
f 14//6 16//6 13//6
f 14//6 15//6 16//6
f 17//7 18//7 19//7
f 18//7 20//7 19//7
f 21//2 19//2 20//2
f 22//4 18//4 17//4
f 18//8 23//8 20//8
f 23//8 24//8 20//8
f 21//2 20//2 24//2
f 22//4 23//4 18//4
f 23//6 25//6 24//6
f 25//6 26//6 24//6
f 21//2 24//2 26//2
f 22//4 25//4 23//4
f 25//9 27//9 26//9
f 27//9 28//9 26//9
f 21//2 26//2 28//2
f 22//4 27//4 25//4
f 27//10 29//10 28//10
f 29//10 30//10 28//10
f 21//2 28//2 30//2
f 22//4 29//4 27//4
f 29//11 31//11 30//11
f 31//11 32//11 30//11
f 21//2 30//2 32//2
f 22//4 31//4 29//4
f 31//12 33//12 32//12
f 33//12 34//12 32//12
f 21//2 32//2 34//2
f 22//4 33//4 31//4
f 33//1 35//1 34//1
f 35//1 36//1 34//1
f 21//2 34//2 36//2
f 22//4 35//4 33//4
f 35//13 37//13 36//13
f 37//13 38//13 36//13
f 21//2 36//2 38//2
f 22//4 37//4 35//4
f 37//14 17//14 38//14
f 17//14 19//14 38//14
f 21//2 38//2 19//2
f 22//4 17//4 37//4
f 39//7 40//7 41//7
f 40//7 42//7 41//7
f 43//2 41//2 42//2
f 44//4 40//4 39//4
f 40//8 45//8 42//8
f 45//8 46//8 42//8
f 43//2 42//2 46//2
f 44//4 45//4 40//4
f 45//6 47//6 46//6
f 47//6 48//6 46//6
f 43//2 46//2 48//2
f 44//4 47//4 45//4
f 47//9 49//9 48//9
f 49//9 50//9 48//9
f 43//2 48//2 50//2
f 44//4 49//4 47//4
f 49//10 51//10 50//10
f 51//10 52//10 50//10
f 43//2 50//2 52//2
f 44//4 51//4 49//4
f 51//11 53//11 52//11
f 53//11 54//11 52//11
f 43//2 52//2 54//2
f 44//4 53//4 51//4
f 53//12 55//12 54//12
f 55//12 56//12 54//12
f 43//2 54//2 56//2
f 44//4 55//4 53//4
f 55//1 57//1 56//1
f 57//1 58//1 56//1
f 43//2 56//2 58//2
f 44//4 57//4 55//4
f 57//13 59//13 58//13
f 59//13 60//13 58//13
f 43//2 58//2 60//2
f 44//4 59//4 57//4
f 59//14 39//14 60//14
f 39//14 41//14 60//14
f 43//2 60//2 41//2
f 44//4 39//4 59//4
f 61//7 62//7 63//7
f 62//7 64//7 63//7
f 65//2 63//2 64//2
f 66//4 62//4 61//4
f 62//8 67//8 64//8
f 67//8 68//8 64//8
f 65//2 64//2 68//2
f 66//4 67//4 62//4
f 67//6 69//6 68//6
f 69//6 70//6 68//6
f 65//2 68//2 70//2
f 66//4 69//4 67//4
f 69//9 71//9 70//9
f 71//9 72//9 70//9
f 65//2 70//2 72//2
f 66//4 71//4 69//4
f 71//10 73//10 72//10
f 73//10 74//10 72//10
f 65//2 72//2 74//2
f 66//4 73//4 71//4
f 73//11 75//11 74//11
f 75//11 76//11 74//11
f 65//2 74//2 76//2
f 66//4 75//4 73//4
f 75//12 77//12 76//12
f 77//12 78//12 76//12
f 65//2 76//2 78//2
f 66//4 77//4 75//4
f 77//1 79//1 78//1
f 79//1 80//1 78//1
f 65//2 78//2 80//2
f 66//4 79//4 77//4
f 79//13 81//13 80//13
f 81//13 82//13 80//13
f 65//2 80//2 82//2
f 66//4 81//4 79//4
f 81//14 61//14 82//14
f 61//14 63//14 82//14
f 65//2 82//2 63//2
f 66//4 61//4 81//4
f 83//7 84//7 85//7
f 84//7 86//7 85//7
f 87//2 85//2 86//2
f 88//4 84//4 83//4
f 84//8 89//8 86//8
f 89//8 90//8 86//8
f 87//2 86//2 90//2
f 88//4 89//4 84//4
f 89//6 91//6 90//6
f 91//6 92//6 90//6
f 87//2 90//2 92//2
f 88//4 91//4 89//4
f 91//9 93//9 92//9
f 93//9 94//9 92//9
f 87//2 92//2 94//2
f 88//4 93//4 91//4
f 93//10 95//10 94//10
f 95//10 96//10 94//10
f 87//2 94//2 96//2
f 88//4 95//4 93//4
f 95//11 97//11 96//11
f 97//11 98//11 96//11
f 87//2 96//2 98//2
f 88//4 97//4 95//4
f 97//12 99//12 98//12
f 99//12 100//12 98//12
f 87//2 98//2 100//2
f 88//4 99//4 97//4
f 99//1 101//1 100//1
f 101//1 102//1 100//1
f 87//2 100//2 102//2
f 88//4 101//4 99//4
f 101//13 103//13 102//13
f 103//13 104//13 102//13
f 87//2 102//2 104//2
f 88//4 103//4 101//4
f 103//14 83//14 104//14
f 83//14 85//14 104//14
f 87//2 104//2 85//2
f 88//4 83//4 103//4
