# Blender v2.79 (sub 0) OBJ File: ''
# www.blender.org
mtllib m809.mtl
o m809
v 0.083508 -0.041565 0.374035
v -0.083869 -0.040831 0.374035
v -0.083869 -0.040831 0.338939
v 0.083508 -0.041565 0.338939
v 0.083531 -0.036166 0.374035
v -0.083846 -0.035431 0.374035
v -0.083846 -0.035431 0.338939
v 0.083531 -0.036166 0.338939
v 0.083508 -0.041565 0.276847
v -0.083869 -0.040831 0.276847
v -0.083869 -0.040831 0.241752
v 0.083508 -0.041565 0.241752
v 0.083531 -0.036166 0.276847
v -0.083846 -0.035431 0.276847
v -0.083846 -0.035431 0.241752
v 0.083531 -0.036166 0.241752
v 0.083508 -0.041565 0.179660
v -0.083869 -0.040831 0.179660
v -0.083869 -0.040831 0.144564
v 0.083508 -0.041565 0.144564
v 0.083531 -0.036166 0.179660
v -0.083846 -0.035431 0.179660
v -0.083846 -0.035431 0.144564
v 0.083531 -0.036166 0.144564
v 0.083508 -0.041565 0.082472
v -0.083869 -0.040831 0.082472
v -0.083869 -0.040831 0.047376
v 0.083508 -0.041565 0.047376
v 0.083531 -0.036166 0.082472
v -0.083846 -0.035431 0.082472
v -0.083846 -0.035431 0.047376
v 0.083531 -0.036166 0.047376
v 0.083508 -0.041565 -0.209091
v -0.083869 -0.040831 -0.209091
v -0.083869 -0.040831 -0.244187
v 0.083508 -0.041565 -0.244187
v 0.083531 -0.036166 -0.209091
v -0.083846 -0.035431 -0.209091
v -0.083846 -0.035431 -0.244187
v 0.083531 -0.036166 -0.244187
v 0.083508 -0.041565 -0.306272
v -0.083869 -0.040831 -0.306272
v -0.083869 -0.040831 -0.341368
v 0.083508 -0.041565 -0.341368
v 0.083531 -0.036166 -0.306272
v -0.083846 -0.035431 -0.306272
v -0.083846 -0.035431 -0.341368
v 0.083531 -0.036166 -0.341368
v 0.083508 -0.041565 -0.403460
v -0.083869 -0.040831 -0.403460
v -0.083869 -0.040831 -0.438549
v 0.083508 -0.041565 -0.438549
v 0.083531 -0.036166 -0.403460
v -0.083846 -0.035431 -0.403460
v -0.083846 -0.035431 -0.438549
v 0.083531 -0.036166 -0.438549
v 0.083508 -0.041565 -0.500648
v -0.083869 -0.040831 -0.500648
v -0.083869 -0.040831 -0.535724
v 0.083508 -0.041565 -0.535724
v 0.083531 -0.036166 -0.500648
v -0.083846 -0.035431 -0.500648
v -0.083846 -0.035431 -0.535724
v 0.083531 -0.036166 -0.535724
v 0.083508 -0.041565 -0.014716
v -0.083869 -0.040831 -0.014716
v -0.083869 -0.040831 -0.049812
v 0.083508 -0.041565 -0.049812
v 0.083531 -0.036166 -0.014716
v -0.083846 -0.035431 -0.014716
v -0.083846 -0.035431 -0.049812
v 0.083531 -0.036166 -0.049812
v 0.083508 -0.041565 -0.111904
v -0.083869 -0.040831 -0.111904
v -0.083869 -0.040831 -0.146999
v 0.083508 -0.041565 -0.146999
v 0.083531 -0.036166 -0.111904
v -0.083846 -0.035431 -0.111904
v -0.083846 -0.035431 -0.146999
v 0.083531 -0.036166 -0.146999
v -0.082796 0.123979 0.399800
v -0.107794 0.124088 0.399800
v -0.107794 0.124088 0.105301
v -0.082796 0.123979 0.105301
v -0.082691 0.147771 0.399800
v -0.107692 0.147880 0.399800
v -0.107692 0.147880 0.105301
v -0.082691 0.147771 0.105301
v 0.108878 0.123140 0.399800
v 0.083877 0.123249 0.399800
v 0.083877 0.123249 0.105301
v 0.108878 0.123140 0.105301
v 0.108982 0.146931 0.399800
v 0.083981 0.147042 0.399800
v 0.083981 0.147042 0.105301
v 0.108982 0.146931 0.105301
v 0.108113 -0.051456 0.400898
v 0.083113 -0.051347 0.400898
v 0.083113 -0.051347 -0.549102
v 0.108113 -0.051456 -0.549102
v 0.108218 -0.027665 0.400898
v 0.083217 -0.027554 0.400898
v 0.083217 -0.027554 -0.549102
v 0.108218 -0.027665 -0.549102
v -0.083560 -0.050616 0.400898
v -0.108560 -0.050508 0.400898
v -0.108560 -0.050508 -0.549102
v -0.083560 -0.050616 -0.549102
v -0.083456 -0.026824 0.400898
v -0.108456 -0.026714 0.400898
v -0.108456 -0.026714 -0.549102
v -0.083456 -0.026824 -0.549102
v 0.107758 -0.052147 0.100210
v -0.108211 -0.051202 0.100210
v -0.107337 0.148571 0.100210
v 0.108633 0.147625 0.100210
v 0.107758 -0.052147 0.111012
v -0.108211 -0.051202 0.111012
v -0.107337 0.148571 0.111012
v 0.108633 0.147625 0.111012
vn -0.0044 -1.0000 0.0000
vn -0.0000 0.0000 1.0000
vn -1.0000 0.0043 0.0000
vn 0.0000 0.0000 -1.0000
vn 1.0000 -0.0043 0.0000
vn 0.0044 1.0000 0.0000
vn 1.0000 -0.0044 0.0000
vn -1.0000 0.0044 0.0000
vn -0.0043 -1.0000 0.0000
usemtl None
s off
f 1//1 2//1 3//1
f 1//1 3//1 4//1
f 1//2 5//2 6//2
f 1//2 6//2 2//2
f 2//3 6//3 7//3
f 2//3 7//3 3//3
f 3//4 7//4 8//4
f 3//4 8//4 4//4
f 4//5 8//5 5//5
f 4//5 5//5 1//5
f 5//6 8//6 7//6
f 5//6 7//6 6//6
f 9//1 10//1 11//1
f 9//1 11//1 12//1
f 9//2 13//2 14//2
f 9//2 14//2 10//2
f 10//3 14//3 15//3
f 10//3 15//3 11//3
f 11//4 15//4 16//4
f 11//4 16//4 12//4
f 12//5 16//5 13//5
f 12//5 13//5 9//5
f 13//6 16//6 15//6
f 13//6 15//6 14//6
f 17//1 18//1 19//1
f 17//1 19//1 20//1
f 17//2 21//2 22//2
f 17//2 22//2 18//2
f 18//3 22//3 23//3
f 18//3 23//3 19//3
f 19//4 23//4 24//4
f 19//4 24//4 20//4
f 20//5 24//5 21//5
f 20//5 21//5 17//5
f 21//6 24//6 23//6
f 21//6 23//6 22//6
f 25//1 26//1 27//1
f 25//1 27//1 28//1
f 25//2 29//2 30//2
f 25//2 30//2 26//2
f 26//3 30//3 31//3
f 26//3 31//3 27//3
f 27//4 31//4 32//4
f 27//4 32//4 28//4
f 28//5 32//5 29//5
f 28//5 29//5 25//5
f 29//6 32//6 31//6
f 29//6 31//6 30//6
f 33//1 34//1 35//1
f 33//1 35//1 36//1
f 33//2 37//2 38//2
f 33//2 38//2 34//2
f 34//3 38//3 39//3
f 34//3 39//3 35//3
f 35//4 39//4 40//4
f 35//4 40//4 36//4
f 36//5 40//5 37//5
f 36//5 37//5 33//5
f 37//6 40//6 39//6
f 37//6 39//6 38//6
f 41//1 42//1 43//1
f 41//1 43//1 44//1
f 41//2 45//2 46//2
f 41//2 46//2 42//2
f 42//3 46//3 47//3
f 42//3 47//3 43//3
f 43//4 47//4 48//4
f 43//4 48//4 44//4
f 44//5 48//5 45//5
f 44//5 45//5 41//5
f 45//6 48//6 47//6
f 45//6 47//6 46//6
f 49//1 50//1 51//1
f 49//1 51//1 52//1
f 49//2 53//2 54//2
f 49//2 54//2 50//2
f 50//3 54//3 55//3
f 50//3 55//3 51//3
f 51//4 55//4 56//4
f 51//4 56//4 52//4
f 52//5 56//5 53//5
f 52//5 53//5 49//5
f 53//6 56//6 55//6
f 53//6 55//6 54//6
f 57//1 58//1 59//1
f 57//1 59//1 60//1
f 57//2 61//2 62//2
f 57//2 62//2 58//2
f 58//3 62//3 63//3
f 58//3 63//3 59//3
f 59//4 63//4 64//4
f 59//4 64//4 60//4
f 60//5 64//5 61//5
f 60//5 61//5 57//5
f 61//6 64//6 63//6
f 61//6 63//6 62//6
f 65//1 66//1 67//1
f 65//1 67//1 68//1
f 65//2 69//2 70//2
f 65//2 70//2 66//2
f 66//3 70//3 71//3
f 66//3 71//3 67//3
f 67//4 71//4 72//4
f 67//4 72//4 68//4
f 68//5 72//5 69//5
f 68//5 69//5 65//5
f 69//6 72//6 71//6
f 69//6 71//6 70//6
f 73//1 74//1 75//1
f 73//1 75//1 76//1
f 73//2 77//2 78//2
f 73//2 78//2 74//2
f 74//3 78//3 79//3
f 74//3 79//3 75//3
f 75//4 79//4 80//4
f 75//4 80//4 76//4
f 76//5 80//5 77//5
f 76//5 77//5 73//5
f 77//6 80//6 79//6
f 77//6 79//6 78//6
f 81//1 82//1 83//1
f 81//1 83//1 84//1
f 81//2 85//2 86//2
f 81//2 86//2 82//2
f 82//3 86//3 87//3
f 82//3 87//3 83//3
f 83//4 87//4 88//4
f 83//4 88//4 84//4
f 84//7 88//7 85//7
f 84//7 85//7 81//7
f 85//6 88//6 87//6
f 85//6 87//6 86//6
f 89//1 90//1 91//1
f 89//1 91//1 92//1
f 89//2 93//2 94//2
f 89//2 94//2 90//2
f 90//8 94//8 95//8
f 90//8 95//8 91//8
f 91//4 95//4 96//4
f 91//4 96//4 92//4
f 92//7 96//7 93//7
f 92//7 93//7 89//7
f 93//6 96//6 95//6
f 93//6 95//6 94//6
f 97//1 98//1 99//1
f 97//1 99//1 100//1
f 97//2 101//2 102//2
f 97//2 102//2 98//2
f 98//8 102//8 103//8
f 98//8 103//8 99//8
f 99//4 103//4 104//4
f 99//4 104//4 100//4
f 100//7 104//7 101//7
f 100//7 101//7 97//7
f 101//6 104//6 103//6
f 101//6 103//6 102//6
f 105//9 106//9 107//9
f 105//9 107//9 108//9
f 105//2 109//2 110//2
f 105//2 110//2 106//2
f 106//8 110//8 111//8
f 106//8 111//8 107//8
f 107//4 111//4 112//4
f 107//4 112//4 108//4
f 108//7 112//7 109//7
f 108//7 109//7 105//7
f 109//6 112//6 111//6
f 109//6 111//6 110//6
f 113//4 114//4 115//4
f 113//4 115//4 116//4
f 113//1 117//1 118//1
f 113//1 118//1 114//1
f 114//8 118//8 119//8
f 114//8 119//8 115//8
f 115//6 119//6 120//6
f 115//6 120//6 116//6
f 116//7 120//7 117//7
f 116//7 117//7 113//7
f 117//2 120//2 119//2
f 117//2 119//2 118//2
