# Blender v2.79 (sub 0) OBJ File: ''
# www.blender.org
mtllib m812.mtl
o m812
v 0.187514 -0.158306 -0.405862
v 0.187514 -0.158306 -0.297446
v -0.187515 -0.158307 -0.297446
v -0.187515 -0.158307 -0.405862
v 0.190037 -0.166929 -0.405862
v -0.190038 -0.166930 -0.297446
v -0.190038 -0.166930 -0.405862
v 0.190037 -0.166929 -0.297446
v 0.168253 -0.173751 -0.297446
v 0.166018 -0.165038 -0.297446
v 0.166018 -0.165038 -0.405862
v 0.168253 -0.173751 -0.405862
v 0.112915 -0.187142 -0.412702
v 0.112915 -0.187142 -0.297446
v 0.111416 -0.178251 -0.412702
v 0.111416 -0.178251 -0.297446
v 0.055930 -0.186222 -0.297446
v 0.056682 -0.195220 -0.420787
v 0.056682 -0.195220 -0.297446
v 0.055930 -0.186222 -0.420787
v -0.000001 -0.188885 -0.423554
v -0.000001 -0.197920 -0.297446
v -0.000001 -0.197920 -0.423554
v -0.000001 -0.188885 -0.297446
v -0.055931 -0.186222 -0.297446
v -0.056683 -0.195221 -0.420787
v -0.056683 -0.195221 -0.297446
v -0.055931 -0.186222 -0.420787
v -0.111418 -0.178252 -0.412703
v -0.111418 -0.178252 -0.297446
v -0.112916 -0.187143 -0.297446
v -0.112916 -0.187143 -0.412703
v -0.166019 -0.165039 -0.405862
v -0.166019 -0.165039 -0.297446
v -0.168254 -0.173752 -0.297446
v -0.168254 -0.173752 -0.405862
v -0.186884 -0.176948 -0.424881
v -0.181620 -0.164235 -0.424881
v -0.186886 -0.151522 -0.424881
v -0.199599 -0.146257 -0.424881
v -0.212312 -0.151524 -0.424881
v -0.217578 -0.164236 -0.424881
v -0.212312 -0.176950 -0.424881
v -0.199600 -0.182216 -0.424881
v -0.199600 -0.182216 0.519095
v -0.212312 -0.176950 0.519095
v -0.217578 -0.164236 0.519095
v -0.212312 -0.151524 0.519095
v -0.199599 -0.146257 0.519095
v -0.186886 -0.151522 0.519095
v -0.181620 -0.164235 0.519095
v -0.186884 -0.176948 0.519095
v -0.189427 -0.174405 -0.430905
v -0.185216 -0.164235 -0.430905
v -0.189429 -0.154065 -0.430905
v -0.199599 -0.149853 -0.430905
v -0.209769 -0.154067 -0.430905
v -0.213982 -0.164236 -0.430905
v -0.209769 -0.174406 -0.430905
v -0.199599 -0.178620 -0.430905
v 0.212273 -0.151569 -0.424881
v 0.199560 -0.146304 -0.424881
v 0.186847 -0.151570 -0.424881
v 0.181582 -0.164283 -0.424881
v 0.186848 -0.176996 -0.424881
v 0.199560 -0.182262 -0.424881
v 0.212273 -0.176997 -0.424881
v 0.217541 -0.164284 -0.424881
v 0.217541 -0.164284 0.519095
v 0.212273 -0.176997 0.519095
v 0.199560 -0.182262 0.519095
v 0.186848 -0.176996 0.519095
v 0.181582 -0.164283 0.519095
v 0.186847 -0.151570 0.519095
v 0.199560 -0.146304 0.519095
v 0.212273 -0.151569 0.519095
v 0.209730 -0.154112 -0.430905
v 0.199560 -0.149899 -0.430905
v 0.189390 -0.154113 -0.430905
v 0.185178 -0.164283 -0.430905
v 0.189390 -0.174453 -0.430905
v 0.199560 -0.178666 -0.430905
v 0.209731 -0.174454 -0.430905
v 0.213945 -0.164284 -0.430905
v 0.186720 0.222043 -0.011020
v -0.186712 0.222042 -0.011020
v 0.186711 -0.151390 -0.011020
v -0.186701 -0.151391 -0.011020
v 0.186720 0.240112 -0.059205
v 0.186720 0.240112 -0.011020
v -0.186712 0.240111 -0.011020
v -0.186712 0.240111 -0.059205
v 0.186720 0.222043 -0.059205
v -0.186712 0.222042 -0.059205
v 0.186711 -0.151390 -0.059205
v 0.204780 -0.151390 -0.059205
v 0.204780 -0.151390 -0.011020
v 0.204789 0.222042 -0.011020
v 0.204789 0.222042 -0.059205
v -0.186701 -0.151391 -0.059205
v -0.204771 -0.151392 -0.059205
v -0.204771 -0.151392 -0.011020
v -0.204781 0.222041 -0.011020
v -0.204781 0.222041 -0.059205
v -0.186701 -0.169460 -0.059205
v -0.186701 -0.169460 -0.011020
v 0.186731 -0.169440 -0.011020
v 0.186731 -0.169440 -0.059205
v 0.186730 -0.151371 -0.059205
v 0.186730 -0.151371 -0.011020
v -0.186702 -0.151391 -0.011020
v -0.186702 -0.151391 -0.059205
v 0.199597 0.252877 0.519095
v 0.212309 0.247612 0.519095
v 0.217575 0.234900 0.519095
v 0.212310 0.222187 0.519095
v 0.199598 0.216920 0.519095
v 0.186885 0.222184 0.519095
v 0.181618 0.234896 0.519095
v 0.186881 0.247610 0.519095
v 0.199597 0.252877 -0.073343
v 0.212309 0.247612 -0.073343
v 0.217575 0.234900 -0.073343
v 0.212310 0.222187 -0.073343
v 0.199598 0.216920 -0.073343
v 0.186885 0.222184 -0.073343
v 0.181618 0.234896 -0.073343
v 0.186881 0.247610 -0.073343
v 0.189424 0.245067 -0.079366
v 0.185214 0.234897 -0.079366
v 0.189427 0.224727 -0.079366
v 0.199598 0.220516 -0.079366
v 0.209768 0.224729 -0.079366
v 0.213980 0.234899 -0.079366
v 0.209767 0.245069 -0.079366
v 0.199597 0.249281 -0.079366
v -0.212275 0.222208 -0.073343
v -0.199562 0.216944 -0.073343
v -0.186849 0.222211 -0.073343
v -0.181584 0.234924 -0.073343
v -0.186851 0.247637 -0.073343
v -0.199564 0.252903 -0.073343
v -0.212277 0.247636 -0.073343
v -0.217543 0.234924 -0.073343
v -0.217543 0.234924 0.519095
v -0.212277 0.247636 0.519095
v -0.199564 0.252903 0.519095
v -0.186851 0.247637 0.519095
v -0.181584 0.234924 0.519095
v -0.186849 0.222211 0.519095
v -0.199562 0.216944 0.519095
v -0.212275 0.222208 0.519095
v -0.209733 0.224751 -0.079366
v -0.199562 0.220540 -0.079366
v -0.189392 0.224754 -0.079366
v -0.185180 0.234924 -0.079366
v -0.189393 0.245094 -0.079366
v -0.199563 0.249307 -0.079366
v -0.209734 0.245094 -0.079366
v -0.213947 0.234924 -0.079366
v 0.192803 0.216434 -0.047519
v 0.192803 0.216434 -0.071611
v 0.192795 -0.145792 -0.047519
v 0.192795 -0.145792 -0.071611
v 0.190198 0.214214 -0.080130
v 0.190191 -0.143571 -0.080130
v 0.189381 0.224696 -0.047519
v 0.189381 0.224696 -0.071611
v 0.189373 -0.154054 -0.047519
v 0.189373 -0.154054 -0.071611
v 0.186776 0.222476 -0.080130
v 0.186769 -0.151833 -0.080130
v 0.183911 0.208853 -0.083657
v 0.183904 -0.138210 -0.083657
v 0.181118 0.228119 -0.047519
v 0.181118 0.228119 -0.071611
v 0.180488 0.217115 -0.083657
v 0.180481 -0.146472 -0.083657
v 0.178514 0.225898 -0.080130
v 0.172227 0.220538 -0.083657
v -0.172219 0.220547 -0.083657
v -0.178506 0.225907 -0.080130
v -0.180481 0.217124 -0.083657
v -0.180489 -0.146464 -0.083657
v -0.181111 0.228127 -0.047519
v -0.181111 0.228127 -0.071611
v -0.183903 0.208862 -0.083657
v -0.186769 0.222485 -0.080130
v -0.186776 -0.151824 -0.080130
v -0.189373 0.224705 -0.047519
v -0.189373 0.224705 -0.071611
v -0.189381 -0.154045 -0.047519
v -0.189381 -0.154045 -0.071611
v -0.190191 0.214222 -0.080130
v -0.192796 0.216442 -0.047519
v -0.192796 0.216442 -0.071611
v 0.178515 -0.155246 -0.080130
v -0.178505 -0.155256 -0.080130
v -0.172218 -0.149896 -0.083657
v 0.172228 -0.149886 -0.083657
v 0.181119 -0.157466 -0.071611
v -0.181110 -0.157477 -0.071611
v 0.181119 -0.157466 -0.047519
v -0.181110 -0.157477 -0.047519
v -0.183903 -0.138211 -0.083657
v -0.190190 -0.143572 -0.080130
v -0.192795 -0.145792 -0.071611
v -0.192795 -0.145792 -0.047519
v 0.000004 0.035326 -0.083657
v -0.192294 -0.167893 0.227514
v -0.192293 -0.172387 0.235299
v -0.192293 -0.181376 0.235300
v -0.192294 -0.185872 0.227514
v -0.192294 -0.181378 0.219730
v -0.192294 -0.172389 0.219728
v 0.192293 -0.167892 0.227503
v 0.192293 -0.172386 0.235287
v 0.192293 -0.181375 0.235288
v 0.192293 -0.185871 0.227503
v 0.192292 -0.181377 0.219718
v 0.192292 -0.172388 0.219716
v -0.192295 0.213205 0.227514
v 0.192292 0.213206 0.227503
v 0.192292 0.217700 0.235287
v -0.192294 0.217699 0.235299
v 0.192292 0.226689 0.235288
v -0.192294 0.226688 0.235300
v 0.192292 0.231185 0.227503
v -0.192295 0.231184 0.227514
v 0.192291 0.226691 0.219718
v -0.192295 0.226690 0.219730
v 0.192291 0.217702 0.219716
v -0.192295 0.217701 0.219728
v 0.190543 -0.169641 0.304916
v 0.190552 0.214945 0.304905
v 0.195047 0.214945 0.312689
v 0.195038 -0.169641 0.312701
v 0.204036 0.214945 0.312690
v 0.204027 -0.169641 0.312702
v 0.208531 0.214945 0.304906
v 0.208522 -0.169641 0.304917
v 0.204037 0.214945 0.297120
v 0.204029 -0.169641 0.297132
v 0.195048 0.214945 0.297119
v 0.195039 -0.169641 0.297131
v -0.195049 -0.169632 0.312701
v -0.195040 0.214954 0.312689
v -0.190545 0.214954 0.304905
v -0.190554 -0.169632 0.304916
v -0.204038 -0.169632 0.312702
v -0.204029 0.214954 0.312690
v -0.208533 -0.169632 0.304917
v -0.208524 0.214954 0.304906
v -0.204039 -0.169632 0.297132
v -0.204031 0.214954 0.297120
v -0.195050 -0.169632 0.297131
v -0.195041 0.214954 0.297119
vn 0.1171 0.0300 -0.9927
vn 0.1179 0.0199 -0.9928
vn 0.0492 0.0041 -0.9988
vn 0.0488 0.0000 -0.9988
vn -0.1425 0.0119 -0.9897
vn -0.1390 0.0234 -0.9900
vn -0.1195 0.0201 -0.9926
vn -0.1156 0.0296 -0.9929
vn 0.0000 0.0000 -1.0000
vn -0.0494 0.0000 -0.9988
vn -0.0486 0.0041 -0.9988
vn 0.1408 0.0237 -0.9898
vn 0.1406 0.0118 -0.9900
vn 0.0000 0.0000 1.0000
vn 0.2352 -0.9719 0.0000
vn 0.0476 -0.9989 0.0000
vn -0.1422 -0.9898 0.0000
vn -0.2352 -0.9719 0.0000
vn -0.2988 -0.9543 0.0000
vn -0.0476 -0.9989 0.0000
vn 0.1422 -0.9898 0.0000
vn 0.2988 -0.9543 0.0000
vn -0.2352 0.9719 0.0000
vn -0.0476 0.9989 0.0000
vn 0.1422 0.9898 0.0000
vn 0.2352 0.9719 0.0000
vn 0.2988 0.9543 0.0000
vn 0.0476 0.9989 0.0000
vn -0.1422 0.9898 0.0000
vn -0.2989 0.9543 0.0000
vn -0.3827 -0.9239 0.0000
vn -0.9239 -0.3826 0.0000
vn -0.9239 0.3826 0.0000
vn -0.3827 0.9239 0.0000
vn 0.3826 0.9239 0.0000
vn 0.9239 0.3827 0.0000
vn 0.9239 -0.3826 0.0000
vn 0.3827 -0.9239 0.0000
vn 0.8090 -0.3350 -0.4829
vn 0.8090 0.3351 -0.4830
vn 0.8090 0.3351 -0.4829
vn 0.3351 0.8090 -0.4829
vn 0.3351 0.8090 -0.4830
vn -0.3351 0.8090 -0.4830
vn -0.3351 0.8090 -0.4829
vn -0.8090 0.3351 -0.4829
vn -0.8090 0.3351 -0.4830
vn -0.8090 -0.3351 -0.4830
vn -0.8090 -0.3351 -0.4829
vn -0.3351 -0.8090 -0.4830
vn 0.3352 -0.8089 -0.4830
vn 0.3351 -0.8090 -0.4829
vn 0.9238 -0.3828 0.0000
vn 0.3826 -0.9239 0.0000
vn -0.9239 -0.3827 0.0000
vn 0.9238 0.3828 0.0000
vn -0.8090 0.3350 -0.4830
vn -0.8091 -0.3351 -0.4829
vn -0.3352 -0.8090 -0.4829
vn -0.3351 -0.8090 -0.4829
vn 0.8090 -0.3352 -0.4829
vn 0.8089 0.3352 -0.4830
vn 0.8090 0.3352 -0.4829
vn -1.0000 0.0000 0.0000
vn 1.0000 0.0000 0.0000
vn -0.0000 -1.0000 0.0000
vn 0.0001 1.0000 0.0000
vn 0.0001 -1.0000 0.0000
vn -0.0001 1.0000 0.0000
vn -0.0000 1.0000 0.0000
vn -1.0000 -0.0001 0.0000
vn 1.0000 0.0001 0.0000
vn 0.3827 0.9239 0.0000
vn 0.3828 -0.9238 0.0000
vn -0.3826 -0.9239 0.0000
vn -0.9238 -0.3828 0.0000
vn -0.9240 0.3825 0.0000
vn -0.8090 0.3349 -0.4830
vn -0.8089 -0.3352 -0.4830
vn -0.3349 -0.8090 -0.4830
vn -0.3350 -0.8090 -0.4830
vn 0.8091 -0.3351 -0.4829
vn 0.3350 0.8090 -0.4830
vn -0.3351 0.8089 -0.4830
vn -0.9239 0.3827 0.0000
vn -0.3828 0.9239 0.0000
vn 0.3352 -0.8089 -0.4831
vn 0.8090 -0.3351 -0.4830
vn 0.8090 -0.3350 -0.4830
vn 0.8090 0.3352 -0.4830
vn -0.3608 -0.8696 -0.3370
vn -0.3609 -0.8696 -0.3371
vn -0.3833 -0.9236 0.0000
vn 0.3820 -0.9242 0.0000
vn 0.3598 -0.8701 -0.3369
vn 0.3597 -0.8702 -0.3367
vn 0.8630 -0.3575 -0.3570
vn 0.8630 -0.3574 -0.3570
vn 0.8630 0.3574 -0.3570
vn 0.3603 0.8699 -0.3369
vn -0.3826 0.9239 0.0000
vn -0.3603 0.8699 -0.3368
vn -0.8630 0.3574 -0.3570
vn -0.9241 -0.3823 0.0000
vn -0.8632 -0.3571 -0.3570
vn -0.1656 -0.3991 -0.9018
vn 0.1652 -0.3995 -0.9017
vn 0.3782 -0.1567 -0.9124
vn 0.3782 0.1567 -0.9124
vn 0.1655 0.3993 -0.9018
vn 0.1654 0.3993 -0.9018
vn -0.1654 0.3993 -0.9018
vn -0.1654 0.3994 -0.9018
vn -0.3782 0.1567 -0.9124
vn -0.3782 0.1566 -0.9124
vn -0.3783 -0.1565 -0.9123
vn 0.0000 0.5497 -0.8354
vn 0.0000 0.9677 -0.2522
vn 0.0000 0.9677 -0.2523
vn 0.0000 -0.5497 -0.8354
vn 0.0000 -0.9676 -0.2523
vn 0.0000 -0.9677 -0.2521
vn 0.4893 -0.0000 -0.8721
vn 0.9563 -0.0000 -0.2923
vn 0.9563 -0.0000 -0.2924
vn -0.4893 -0.0000 -0.8721
vn -0.4892 0.0000 -0.8722
vn -0.9563 -0.0000 -0.2924
vn 0.0000 0.8660 0.5000
vn 0.0000 0.8661 0.4999
vn 0.0000 0.0001 1.0000
vn 0.0000 -0.8660 0.5001
vn -0.0000 -0.8661 -0.4999
vn -0.0000 -0.8660 -0.5000
vn -0.0000 -0.0002 -1.0000
vn -0.0000 0.8660 -0.5000
vn -0.0000 0.8660 -0.5001
vn 0.0000 -0.8660 0.5000
vn 0.0000 -0.8661 0.4999
vn 0.0000 -0.0001 1.0000
vn 0.0000 0.8660 0.5001
vn -0.0000 0.8661 -0.4999
vn -0.0000 0.0002 -1.0000
vn -0.0000 -0.8660 -0.5001
vn -0.8660 0.0000 0.5001
vn -0.8660 0.0000 0.5000
vn -0.0001 0.0000 1.0000
vn 0.8660 -0.0000 0.5001
vn 0.8660 -0.0000 0.5000
vn 0.8661 -0.0000 -0.4999
vn 0.0001 -0.0000 -1.0000
vn -0.8660 0.0000 -0.5001
vn 0.0001 0.0000 1.0000
vn -0.8661 0.0000 -0.4998
vn -0.8661 0.0000 -0.4999
vn -0.0001 -0.0000 -1.0000
vn 0.8660 -0.0000 -0.5001
usemtl None
s off
f 15//1 11//1 12//1
f 13//2 15//2 12//2
f 21//3 20//3 18//3
f 23//4 21//4 18//4
f 29//5 28//5 26//5
f 32//6 29//6 26//6
f 33//7 29//7 32//7
f 36//8 33//8 32//8
f 36//9 7//9 4//9
f 33//9 36//9 4//9
f 28//10 21//10 23//10
f 26//11 28//11 23//11
f 20//12 15//12 13//12
f 18//13 20//13 13//13
f 11//9 1//9 5//9
f 12//9 11//9 5//9
f 14//14 9//14 10//14
f 16//14 14//14 10//14
f 22//14 19//14 17//14
f 24//14 22//14 17//14
f 31//14 27//14 25//14
f 30//14 31//14 25//14
f 35//14 31//14 30//14
f 34//14 35//14 30//14
f 34//14 3//14 6//14
f 35//14 34//14 6//14
f 27//14 22//14 24//14
f 25//14 27//14 24//14
f 19//14 14//14 16//14
f 17//14 19//14 16//14
f 9//14 8//14 2//14
f 10//14 9//14 2//14
f 13//15 12//15 9//15
f 14//15 13//15 9//15
f 23//16 18//16 19//16
f 22//16 23//16 19//16
f 32//17 26//17 27//17
f 31//17 32//17 27//17
f 36//18 32//18 31//18
f 35//18 36//18 31//18
f 35//19 6//19 7//19
f 36//19 35//19 7//19
f 26//20 23//20 22//20
f 27//20 26//20 22//20
f 18//21 13//21 14//21
f 19//21 18//21 14//21
f 12//22 5//22 8//22
f 9//22 12//22 8//22
f 16//23 10//23 11//23
f 15//23 16//23 11//23
f 24//24 17//24 20//24
f 21//24 24//24 20//24
f 30//25 25//25 28//25
f 29//25 30//25 28//25
f 34//26 30//26 29//26
f 33//26 34//26 29//26
f 33//27 4//27 3//27
f 34//27 33//27 3//27
f 25//28 24//28 21//28
f 28//28 25//28 21//28
f 17//29 16//29 15//29
f 20//29 17//29 15//29
f 10//30 2//30 1//30
f 11//30 10//30 1//30
f 39//9 38//9 37//9
f 40//9 39//9 37//9
f 41//9 40//9 37//9
f 42//9 41//9 37//9
f 43//9 42//9 37//9
f 44//9 43//9 37//9
f 43//31 44//31 45//31
f 46//31 43//31 45//31
f 42//32 43//32 46//32
f 47//32 42//32 46//32
f 41//33 42//33 47//33
f 48//33 41//33 47//33
f 40//34 41//34 48//34
f 49//34 40//34 48//34
f 39//35 40//35 49//35
f 50//35 39//35 49//35
f 38//36 39//36 50//36
f 51//36 38//36 50//36
f 37//37 38//37 51//37
f 52//37 37//37 51//37
f 44//38 37//38 52//38
f 45//38 44//38 52//38
f 55//9 54//9 53//9
f 56//9 55//9 53//9
f 57//9 56//9 53//9
f 58//9 57//9 53//9
f 59//9 58//9 53//9
f 60//9 59//9 53//9
f 53//39 54//39 38//39
f 37//39 53//39 38//39
f 54//40 55//40 39//40
f 38//41 54//41 39//41
f 55//42 56//42 40//42
f 39//43 55//43 40//43
f 56//44 57//44 41//44
f 40//45 56//45 41//45
f 57//46 58//46 42//46
f 41//47 57//47 42//47
f 58//48 59//48 43//48
f 42//49 58//49 43//49
f 59//50 60//50 44//50
f 43//50 59//50 44//50
f 60//51 53//51 37//51
f 44//52 60//52 37//52
f 63//9 62//9 61//9
f 64//9 63//9 61//9
f 65//9 64//9 61//9
f 66//9 65//9 61//9
f 67//9 66//9 61//9
f 68//9 67//9 61//9
f 67//53 68//53 69//53
f 70//53 67//53 69//53
f 66//54 67//54 70//54
f 71//54 66//54 70//54
f 65//31 66//31 71//31
f 72//31 65//31 71//31
f 64//55 65//55 72//55
f 73//55 64//55 72//55
f 63//33 64//33 73//33
f 74//33 63//33 73//33
f 62//34 63//34 74//34
f 75//34 62//34 74//34
f 61//35 62//35 75//35
f 76//35 61//35 75//35
f 68//56 61//56 76//56
f 69//56 68//56 76//56
f 79//9 78//9 77//9
f 80//9 79//9 77//9
f 81//9 80//9 77//9
f 82//9 81//9 77//9
f 83//9 82//9 77//9
f 84//9 83//9 77//9
f 77//42 78//42 62//42
f 61//43 77//43 62//43
f 78//44 79//44 63//44
f 62//45 78//45 63//45
f 79//46 80//46 64//46
f 63//57 79//57 64//57
f 80//58 81//58 65//58
f 64//49 80//49 65//49
f 81//59 82//59 66//59
f 65//60 81//60 66//60
f 82//52 83//52 67//52
f 66//52 82//52 67//52
f 83//61 84//61 68//61
f 67//61 83//61 68//61
f 84//62 77//62 61//62
f 68//63 84//63 61//63
f 87//9 86//9 85//9
f 88//9 86//9 87//9
f 86//64 91//64 92//64
f 94//64 86//64 92//64
f 94//9 92//9 93//9
f 89//65 90//65 93//65
f 86//14 85//14 90//14
f 87//64 85//64 93//64
f 95//64 87//64 93//64
f 98//65 97//65 96//65
f 99//65 98//65 96//65
f 97//66 87//66 95//66
f 96//66 97//66 95//66
f 95//9 93//9 99//9
f 96//9 95//9 99//9
f 85//67 98//67 99//67
f 93//67 85//67 99//67
f 97//14 98//14 85//14
f 87//14 97//14 85//14
f 86//65 88//65 100//65
f 94//65 86//65 100//65
f 102//64 103//64 104//64
f 101//64 102//64 104//64
f 88//68 102//68 101//68
f 100//68 88//68 101//68
f 94//9 100//9 101//9
f 104//9 94//9 101//9
f 103//69 86//69 94//69
f 104//69 103//69 94//69
f 103//14 102//14 88//14
f 86//14 103//14 88//14
f 91//70 90//70 89//70
f 92//70 91//70 89//70
f 85//66 86//66 94//66
f 93//66 85//66 94//66
f 92//9 89//9 93//9
f 90//65 85//65 93//65
f 91//14 86//14 90//14
f 107//68 106//68 105//68
f 108//68 107//68 105//68
f 111//69 110//69 109//69
f 112//69 111//69 109//69
f 106//71 111//71 112//71
f 105//71 106//71 112//71
f 108//9 105//9 112//9
f 109//9 108//9 112//9
f 110//72 107//72 108//72
f 109//72 110//72 108//72
f 110//14 111//14 106//14
f 107//14 110//14 106//14
f 126//9 127//9 128//9
f 125//9 126//9 128//9
f 124//9 125//9 128//9
f 123//9 124//9 128//9
f 122//9 123//9 128//9
f 121//9 122//9 128//9
f 122//73 121//73 113//73
f 114//73 122//73 113//73
f 123//36 122//36 114//36
f 115//36 123//36 114//36
f 124//37 123//37 115//37
f 116//37 124//37 115//37
f 125//74 124//74 116//74
f 117//74 125//74 116//74
f 126//75 125//75 117//75
f 118//75 126//75 117//75
f 127//76 126//76 118//76
f 119//76 127//76 118//76
f 128//77 127//77 119//77
f 120//77 128//77 119//77
f 121//34 128//34 120//34
f 113//34 121//34 120//34
f 131//9 130//9 129//9
f 132//9 131//9 129//9
f 133//9 132//9 129//9
f 134//9 133//9 129//9
f 135//9 134//9 129//9
f 136//9 135//9 129//9
f 129//78 130//78 127//78
f 128//78 129//78 127//78
f 130//49 131//49 126//49
f 127//79 130//79 126//79
f 131//80 132//80 125//80
f 126//81 131//81 125//81
f 132//52 133//52 124//52
f 125//51 132//51 124//51
f 133//82 134//82 123//82
f 124//82 133//82 123//82
f 134//41 135//41 122//41
f 123//41 134//41 122//41
f 135//83 136//83 121//83
f 122//43 135//43 121//43
f 136//84 129//84 128//84
f 121//44 136//44 128//44
f 139//9 138//9 137//9
f 140//9 139//9 137//9
f 141//9 140//9 137//9
f 142//9 141//9 137//9
f 143//9 142//9 137//9
f 144//9 143//9 137//9
f 143//85 144//85 145//85
f 146//85 143//85 145//85
f 142//86 143//86 146//86
f 147//86 142//86 146//86
f 141//73 142//73 147//73
f 148//73 141//73 147//73
f 140//56 141//56 148//56
f 149//56 140//56 148//56
f 139//37 140//37 149//37
f 150//37 139//37 149//37
f 138//74 139//74 150//74
f 151//74 138//74 150//74
f 137//75 138//75 151//75
f 152//75 137//75 151//75
f 144//55 137//55 152//55
f 145//55 144//55 152//55
f 155//9 154//9 153//9
f 156//9 155//9 153//9
f 157//9 156//9 153//9
f 158//9 157//9 153//9
f 159//9 158//9 153//9
f 160//9 159//9 153//9
f 153//80 154//80 138//80
f 137//81 153//81 138//81
f 154//87 155//87 139//87
f 138//51 154//51 139//51
f 155//88 156//88 140//88
f 139//89 155//89 140//89
f 156//41 157//41 141//41
f 140//90 156//90 141//90
f 157//43 158//43 142//43
f 141//43 157//43 142//43
f 158//45 159//45 143//45
f 142//44 158//44 143//44
f 159//47 160//47 144//47
f 143//47 159//47 144//47
f 160//49 153//49 137//49
f 144//48 160//48 137//48
f 193//91 189//91 198//91
f 202//92 193//92 198//92
f 192//93 193//93 202//93
f 204//93 192//93 202//93
f 170//94 169//94 203//94
f 201//94 170//94 203//94
f 197//95 172//95 170//95
f 201//96 197//96 170//96
f 172//97 166//97 164//97
f 170//98 172//98 164//98
f 169//37 170//37 164//37
f 163//37 169//37 164//37
f 168//36 167//36 161//36
f 162//36 168//36 161//36
f 165//99 171//99 168//99
f 162//99 165//99 168//99
f 171//100 179//100 176//100
f 168//100 171//100 176//100
f 167//73 168//73 176//73
f 175//73 167//73 176//73
f 191//101 190//101 185//101
f 186//101 191//101 185//101
f 182//102 188//102 191//102
f 186//102 182//102 191//102
f 188//103 194//103 196//103
f 191//103 188//103 196//103
f 190//33 191//33 196//33
f 195//33 190//33 196//33
f 193//104 192//104 208//104
f 207//104 193//104 208//104
f 207//105 206//105 189//105
f 193//105 207//105 189//105
f 189//106 184//106 199//106
f 198//106 189//106 199//106
f 200//107 178//107 172//107
f 197//107 200//107 172//107
f 178//108 174//108 166//108
f 172//108 178//108 166//108
f 173//109 177//109 171//109
f 165//109 173//109 171//109
f 177//110 180//110 179//110
f 171//111 177//111 179//111
f 181//112 183//112 188//112
f 182//113 181//113 188//113
f 183//114 187//114 194//114
f 188//115 183//115 194//115
f 206//116 205//116 184//116
f 189//116 206//116 184//116
f 181//117 182//117 179//117
f 180//117 181//117 179//117
f 182//118 186//118 176//118
f 179//119 182//119 176//119
f 186//70 185//70 175//70
f 176//70 186//70 175//70
f 198//120 199//120 200//120
f 197//120 198//120 200//120
f 202//121 198//121 197//121
f 201//122 202//122 197//122
f 204//66 202//66 201//66
f 203//66 204//66 201//66
f 166//123 174//123 173//123
f 165//123 166//123 173//123
f 164//124 166//124 165//124
f 162//125 164//125 165//125
f 163//65 164//65 162//65
f 161//65 163//65 162//65
f 205//126 206//126 194//126
f 187//127 205//127 194//127
f 206//128 207//128 196//128
f 194//128 206//128 196//128
f 207//64 208//64 195//64
f 196//64 207//64 195//64
f 183//9 181//9 209//9
f 187//9 183//9 209//9
f 205//9 187//9 209//9
f 184//9 205//9 209//9
f 199//9 184//9 209//9
f 200//9 199//9 209//9
f 178//9 200//9 209//9
f 174//9 178//9 209//9
f 173//9 174//9 209//9
f 177//9 173//9 209//9
f 180//9 177//9 209//9
f 181//9 180//9 209//9
f 217//129 216//129 210//129
f 211//130 217//130 210//130
f 218//131 217//131 211//131
f 212//131 218//131 211//131
f 219//132 218//132 212//132
f 213//132 219//132 212//132
f 220//133 219//133 213//133
f 214//134 220//134 213//134
f 221//135 220//135 214//135
f 215//135 221//135 214//135
f 216//136 221//136 215//136
f 210//137 216//137 215//137
f 223//138 224//138 225//138
f 222//139 223//139 225//139
f 224//140 226//140 227//140
f 225//140 224//140 227//140
f 226//141 228//141 229//141
f 227//141 226//141 229//141
f 228//142 230//142 231//142
f 229//136 228//136 231//136
f 230//143 232//143 233//143
f 231//143 230//143 233//143
f 232//134 223//134 222//134
f 233//144 232//144 222//144
f 236//145 235//145 234//145
f 237//146 236//146 234//146
f 238//147 236//147 237//147
f 239//147 238//147 237//147
f 240//148 238//148 239//148
f 241//149 240//149 239//149
f 242//150 240//150 241//150
f 243//150 242//150 241//150
f 244//151 242//151 243//151
f 245//151 244//151 243//151
f 235//152 244//152 245//152
f 234//152 235//152 245//152
f 248//148 247//148 246//148
f 249//149 248//149 246//149
f 247//153 251//153 250//153
f 246//153 247//153 250//153
f 251//145 253//145 252//145
f 250//146 251//146 252//146
f 253//154 255//154 254//154
f 252//155 253//155 254//155
f 255//156 257//156 256//156
f 254//156 255//156 256//156
f 257//157 248//157 249//157
f 256//157 257//157 249//157
