# Blender v2.79 (sub 0) OBJ File: ''
# www.blender.org
mtllib m818.mtl
o m818
v 0.316391 0.081723 0.495586
v 0.272487 0.099852 0.495586
v 0.272487 0.099852 -0.454414
v 0.316391 0.081723 -0.454414
v 0.298262 0.037819 0.495586
v 0.254358 0.055948 0.495586
v 0.254358 0.055948 -0.454414
v 0.298262 0.037819 -0.454414
v -0.122653 0.263012 0.495586
v -0.166557 0.281141 0.495586
v -0.166557 0.281141 -0.454414
v -0.122653 0.263012 -0.454414
v -0.140782 0.219108 0.495586
v -0.184686 0.237237 0.495586
v -0.184686 0.237237 -0.454414
v -0.140782 0.219108 -0.454414
v 0.135102 -0.357321 0.495586
v 0.091198 -0.339192 0.495586
v 0.135102 -0.357321 0.020586
v 0.116973 -0.401225 0.495586
v 0.073069 -0.383096 0.495586
v 0.116973 -0.401225 0.020586
v -0.303942 -0.176032 0.495586
v -0.347847 -0.157903 0.495586
v -0.347847 -0.157903 0.020586
v -0.322071 -0.219936 0.495586
v -0.365975 -0.201807 0.495586
v -0.365975 -0.201807 0.020586
v 0.272487 0.099852 0.068086
v -0.122653 0.263012 0.068086
v -0.122653 0.263012 0.020586
v 0.272487 0.099852 0.020586
v 0.254358 0.055948 0.068086
v -0.140782 0.219108 0.068086
v -0.140782 0.219108 0.020586
v 0.254358 0.055948 0.020586
v 0.091198 -0.339192 0.068086
v -0.303942 -0.176032 0.068086
v -0.303942 -0.176032 0.020586
v 0.091198 -0.339192 0.020586
v 0.073069 -0.383096 0.068086
v -0.322071 -0.219936 0.068086
v -0.322071 -0.219936 0.020586
v 0.073069 -0.383096 0.020586
v 0.135060 -0.357309 0.068086
v 0.298300 0.037798 0.068086
v 0.298300 0.037798 0.020586
v 0.135060 -0.357309 0.020586
v 0.091159 -0.339171 0.068086
v 0.254400 0.055935 0.068086
v 0.254400 0.055935 0.020586
v 0.091159 -0.339171 0.020586
v -0.303947 -0.175930 0.068086
v -0.140706 0.219176 0.068086
v -0.140706 0.219176 0.020586
v -0.303947 -0.175930 0.020586
v -0.347848 -0.157792 0.068086
v -0.184607 0.237314 0.068086
v -0.184607 0.237314 0.020586
v -0.347848 -0.157792 0.020586
v 0.289906 0.079811 -0.193164
v -0.149137 0.261100 -0.193164
v -0.149137 0.261100 -0.430664
v 0.289906 0.079811 -0.430664
v 0.280842 0.057859 -0.193164
v -0.158202 0.239148 -0.193164
v -0.158202 0.239148 -0.430664
v 0.280842 0.057859 -0.430664
v 0.254358 0.055948 0.044336
v -0.140782 0.219108 0.044336
v -0.140782 0.219108 -0.003164
v 0.254358 0.055948 -0.003164
v 0.091198 -0.339192 0.044336
v -0.303942 -0.176032 0.044336
v -0.303942 -0.176032 -0.003164
v 0.091198 -0.339192 -0.003164
vn 0.3817 0.9243 0.0000
vn 0.0000 0.0000 1.0000
vn 0.9243 -0.3817 0.0000
vn 0.0000 0.0000 -1.0000
vn -0.9243 0.3817 0.0000
vn -0.3817 -0.9243 0.0000
vn 0.9242 -0.3818 0.0000
vn -0.3818 -0.9242 0.0000
vn 0.3818 0.9242 0.0000
vn -0.9242 0.3819 0.0000
vn -0.3819 -0.9242 0.0000
vn -0.9242 0.3818 0.0000
vn 0.9243 -0.3816 0.0000
usemtl None
s off
f 1//1 4//1 2//1
f 2//1 4//1 3//1
f 1//2 6//2 5//2
f 1//2 2//2 6//2
f 1//3 5//3 4//3
f 4//3 5//3 8//3
f 4//4 8//4 7//4
f 4//4 7//4 3//4
f 2//5 7//5 6//5
f 2//5 3//5 7//5
f 6//6 8//6 5//6
f 6//6 7//6 8//6
f 9//1 12//1 10//1
f 10//1 12//1 11//1
f 9//2 14//2 13//2
f 9//2 10//2 14//2
f 9//3 13//3 12//3
f 12//3 13//3 16//3
f 12//4 16//4 15//4
f 12//4 15//4 11//4
f 10//5 15//5 14//5
f 10//5 11//5 15//5
f 14//6 16//6 13//6
f 14//6 15//6 16//6
f 17//1 19//1 18//1
f 18//1 19//1 40//1
f 17//2 21//2 20//2
f 17//2 18//2 21//2
f 17//3 20//3 19//3
f 19//3 20//3 22//3
f 19//4 22//4 44//4
f 19//4 44//4 40//4
f 18//5 44//5 21//5
f 18//5 40//5 44//5
f 21//6 22//6 20//6
f 21//6 44//6 22//6
f 23//1 39//1 24//1
f 24//1 39//1 25//1
f 23//2 27//2 26//2
f 23//2 24//2 27//2
f 23//3 26//3 39//3
f 39//3 26//3 43//3
f 39//4 43//4 28//4
f 39//4 28//4 25//4
f 24//5 28//5 27//5
f 24//5 25//5 28//5
f 27//6 43//6 26//6
f 27//6 28//6 43//6
f 29//1 32//1 30//1
f 30//1 32//1 31//1
f 29//2 34//2 33//2
f 29//2 30//2 34//2
f 29//3 33//3 32//3
f 32//3 33//3 36//3
f 32//4 36//4 35//4
f 32//4 35//4 31//4
f 30//5 35//5 34//5
f 30//5 31//5 35//5
f 34//6 36//6 33//6
f 34//6 35//6 36//6
f 37//1 40//1 38//1
f 38//1 40//1 39//1
f 37//2 42//2 41//2
f 37//2 38//2 42//2
f 37//3 41//3 40//3
f 40//3 41//3 44//3
f 40//4 44//4 43//4
f 40//4 43//4 39//4
f 38//5 43//5 42//5
f 38//5 39//5 43//5
f 42//6 44//6 41//6
f 42//6 43//6 44//6
f 45//7 48//7 46//7
f 46//7 48//7 47//7
f 45//2 50//2 49//2
f 45//2 46//2 50//2
f 45//8 49//8 48//8
f 48//8 49//8 52//8
f 48//4 52//4 51//4
f 48//4 51//4 47//4
f 46//9 51//9 50//9
f 46//9 47//9 51//9
f 50//10 52//10 49//10
f 50//10 51//10 52//10
f 53//7 56//7 54//7
f 54//7 56//7 55//7
f 53//2 58//2 57//2
f 53//2 54//2 58//2
f 53//11 57//11 56//11
f 56//11 57//11 60//11
f 56//4 60//4 59//4
f 56//4 59//4 55//4
f 54//9 59//9 58//9
f 54//9 55//9 59//9
f 58//12 60//12 57//12
f 58//12 59//12 60//12
f 61//1 64//1 62//1
f 62//1 64//1 63//1
f 61//2 66//2 65//2
f 61//2 62//2 66//2
f 61//13 65//13 64//13
f 64//13 65//13 68//13
f 64//4 68//4 67//4
f 64//4 67//4 63//4
f 62//5 67//5 66//5
f 62//5 63//5 67//5
f 66//6 68//6 65//6
f 66//6 67//6 68//6
f 69//1 72//1 70//1
f 70//1 72//1 71//1
f 69//2 74//2 73//2
f 69//2 70//2 74//2
f 69//3 73//3 72//3
f 72//3 73//3 76//3
f 72//4 76//4 75//4
f 72//4 75//4 71//4
f 70//5 75//5 74//5
f 70//5 71//5 75//5
f 74//6 76//6 73//6
f 74//6 75//6 76//6
