# Blender v2.79 (sub 0) OBJ File: ''
# www.blender.org
mtllib m820.mtl
o m820
v 0.237500 0.294818 0.338399
v 0.237500 0.294818 0.281399
v 0.237500 -0.175432 0.281399
v 0.237500 -0.175432 0.338399
v 0.237500 -0.175432 0.129399
v 0.237500 -0.175432 0.072399
v 0.000000 -0.218182 -0.212601
v 0.114000 -0.208682 -0.212601
v 0.228000 -0.184932 -0.212601
v 0.228000 -0.165932 -0.212601
v 0.114000 -0.189682 -0.212601
v 0.000000 -0.199182 -0.212601
v 0.000000 -0.199182 -0.459601
v 0.114000 -0.189682 -0.459601
v 0.228000 -0.165932 -0.459601
v 0.228000 -0.184932 -0.459601
v 0.114000 -0.208682 -0.459601
v 0.000000 -0.218182 -0.459601
v 0.000000 -0.151682 0.034399
v 0.266000 -0.151682 0.034399
v 0.266000 -0.151682 0.072399
v 0.266000 0.323318 0.072399
v 0.000000 0.323318 0.072399
v 0.000000 -0.151682 0.072399
v 0.000000 0.294818 0.129399
v 0.000000 0.294818 0.072399
v 0.237500 0.294818 0.072399
v 0.237500 0.294818 0.129399
v 0.000000 -0.123182 0.129399
v 0.000000 -0.123182 0.072399
v 0.237500 -0.123182 0.072399
v 0.237500 -0.123182 0.129399
v 0.000000 0.323318 0.034399
v 0.266000 0.323318 0.034399
v 0.000000 0.294818 0.005899
v 0.000000 0.237818 -0.003601
v 0.237500 0.294818 0.005899
v 0.190000 0.237818 -0.003601
v 0.237500 -0.123182 0.005899
v 0.000000 -0.123182 0.005899
v 0.000000 -0.066182 -0.003601
v 0.190000 -0.066182 -0.003601
v 0.220706 0.278024 0.072399
v 0.213750 0.294818 0.072399
v 0.220706 0.311612 0.072399
v 0.237500 0.318568 0.072399
v 0.254294 0.311612 0.072399
v 0.261250 0.294818 0.072399
v 0.237500 0.271068 0.072399
v 0.254294 0.278024 0.072399
v 0.220706 -0.158638 -0.478601
v 0.237500 -0.151682 -0.478601
v 0.254294 -0.158638 -0.478601
v 0.261250 -0.175432 -0.478601
v 0.254294 -0.192227 -0.478601
v 0.237500 -0.199182 -0.478601
v 0.220706 -0.192227 -0.478601
v 0.213750 -0.175432 -0.478601
v 0.220706 -0.192227 0.471399
v 0.237500 -0.199182 0.471399
v 0.254294 -0.192227 0.471399
v 0.261250 -0.175432 0.471399
v 0.254294 -0.158638 0.471399
v 0.237500 -0.151682 0.471399
v 0.220706 -0.158638 0.471399
v 0.213750 -0.175432 0.471399
v 0.220706 0.278024 0.471399
v 0.237500 0.271068 0.471399
v 0.254294 0.278024 0.471399
v 0.261250 0.294818 0.471399
v 0.254294 0.311612 0.471399
v 0.237500 0.318568 0.471399
v 0.220706 0.311612 0.471399
v 0.213750 0.294818 0.471399
v -0.254294 0.278024 0.072399
v -0.254294 0.278024 0.471399
v -0.261250 0.294818 0.072399
v -0.261250 0.294818 0.471399
v -0.254294 0.311612 0.072399
v -0.254294 0.311612 0.471399
v -0.237500 0.318568 0.072399
v -0.237500 0.318568 0.471399
v -0.220705 0.311612 0.072399
v -0.220705 0.311612 0.471399
v -0.213750 0.294818 0.072399
v -0.213750 0.294818 0.471399
v -0.220705 0.278024 0.072399
v -0.220705 0.278024 0.471399
v -0.237500 0.271068 0.072399
v -0.237500 0.271068 0.471399
v -0.254294 -0.192227 -0.478601
v -0.254294 -0.192227 0.471399
v -0.261250 -0.175432 -0.478601
v -0.261250 -0.175432 0.471399
v -0.254294 -0.158638 -0.478601
v -0.254294 -0.158638 0.471399
v -0.237500 -0.151682 -0.478601
v -0.237500 -0.151682 0.471399
v -0.220705 -0.158638 -0.478601
v -0.220705 -0.158638 0.471399
v -0.213750 -0.175432 -0.478601
v -0.213750 -0.175432 0.471399
v -0.220705 -0.192227 -0.478601
v -0.220705 -0.192227 0.471399
v -0.237500 -0.199182 -0.478601
v -0.237500 -0.199182 0.471399
v -0.190000 -0.066182 -0.003601
v -0.190000 0.237818 -0.003601
v -0.266000 -0.151682 0.034399
v -0.237500 -0.123182 0.005899
v -0.237500 0.294818 0.005899
v -0.237500 -0.123182 0.072399
v -0.237500 -0.123182 0.129399
v -0.237500 0.294818 0.072399
v -0.237500 0.294818 0.129399
v -0.237500 -0.175432 0.072399
v -0.237500 -0.175432 0.129399
v -0.266000 0.323318 0.072399
v -0.266000 0.323318 0.034399
v -0.266000 -0.151682 0.072399
v -0.114000 -0.208682 -0.212601
v -0.114000 -0.208682 -0.459601
v -0.228000 -0.184932 -0.212601
v -0.228000 -0.184932 -0.459601
v -0.228000 -0.165932 -0.212601
v -0.228000 -0.165932 -0.459601
v -0.114000 -0.189682 -0.212601
v -0.114000 -0.189682 -0.459601
v -0.237500 0.294818 0.281399
v -0.237500 -0.175432 0.281399
v -0.237500 0.294818 0.338399
v -0.237500 -0.175432 0.338399
vn 1.0000 0.0000 0.0000
vn 0.0000 0.0000 1.0000
vn 0.0000 1.0000 0.0000
vn 0.0000 -1.0000 0.0000
vn 0.0000 0.0000 -1.0000
vn -1.0000 0.0000 0.0000
vn -0.3827 -0.9239 0.0000
vn -0.9239 -0.3827 0.0000
vn -0.9239 0.3827 0.0000
vn -0.3827 0.9239 0.0000
vn 0.3827 0.9239 0.0000
vn 0.9239 0.3827 0.0000
vn 0.9239 -0.3827 0.0000
vn 0.3827 -0.9239 0.0000
vn -0.0830 0.9965 0.0000
vn -0.2040 0.9790 0.0000
vn 0.2040 -0.9790 0.0000
vn 0.0830 -0.9965 0.0000
vn 0.0000 0.7071 -0.7071
vn 0.0000 -0.7071 -0.7071
vn 0.7071 0.0000 -0.7071
vn 0.0000 0.1644 -0.9864
vn 0.1961 0.0000 -0.9806
vn 0.0000 -0.1644 -0.9864
vn -0.1961 0.0000 -0.9806
vn -0.7071 0.0000 -0.7071
vn -0.0830 -0.9965 0.0000
vn -0.2040 -0.9790 0.0000
vn 0.2040 0.9790 0.0000
vn 0.0830 0.9965 0.0000
usemtl None
s off
f 4//1 3//1 2//1
f 6//1 27//1 28//1
f 6//1 28//1 5//1
f 24//2 21//2 22//2
f 28//3 26//3 25//3
f 32//4 30//4 31//4
f 58//5 51//5 52//5
f 66//2 59//2 60//2
f 74//2 67//2 68//2
f 86//2 84//2 82//2
f 102//2 100//2 98//2
f 101//5 103//5 105//5
f 113//4 112//4 30//4
f 115//3 25//3 26//3
f 24//2 23//2 118//2
f 116//6 115//6 114//6
f 116//6 117//6 115//6
f 132//6 131//6 129//6
f 59//7 57//7 56//7
f 66//8 58//8 57//8
f 65//9 51//9 58//9
f 64//10 52//10 51//10
f 63//11 53//11 52//11
f 62//12 54//12 53//12
f 61//13 55//13 54//13
f 60//14 56//14 55//14
f 67//7 43//7 49//7
f 74//8 44//8 43//8
f 73//9 45//9 44//9
f 72//10 46//10 45//10
f 71//11 47//11 46//11
f 70//12 48//12 47//12
f 69//13 50//13 48//13
f 68//14 49//14 50//14
f 90//7 76//7 75//7
f 76//8 78//8 77//8
f 78//9 80//9 79//9
f 80//10 82//10 81//10
f 82//11 84//11 83//11
f 84//12 86//12 85//12
f 86//13 88//13 87//13
f 88//14 90//14 89//14
f 106//7 92//7 91//7
f 92//8 94//8 93//8
f 94//9 96//9 95//9
f 96//10 98//10 97//10
f 98//11 100//11 99//11
f 100//12 102//12 101//12
f 102//13 104//13 103//13
f 104//14 106//14 105//14
f 14//15 13//15 12//15
f 15//16 14//16 11//16
f 17//17 16//17 9//17
f 18//18 17//18 8//18
f 12//2 7//2 8//2
f 18//5 13//5 14//5
f 19//4 20//4 21//4
f 34//3 33//3 23//3
f 21//1 20//1 34//1
f 37//19 35//19 33//19
f 39//20 20//20 19//20
f 37//21 34//21 20//21
f 35//22 37//22 38//22
f 36//5 38//5 42//5
f 38//23 37//23 39//23
f 42//24 39//24 40//24
f 107//24 41//24 40//24
f 108//25 107//25 110//25
f 36//5 41//5 107//5
f 35//22 36//22 108//22
f 111//26 110//26 109//26
f 110//20 40//20 19//20
f 111//19 119//19 33//19
f 120//6 118//6 119//6
f 119//3 118//3 23//3
f 19//4 24//4 120//4
f 18//5 122//5 124//5
f 12//5 127//5 125//5
f 18//27 7//27 121//27
f 122//28 121//28 123//28
f 126//29 125//29 127//29
f 128//30 127//30 12//30
f 4//1 2//1 1//1
f 24//2 22//2 23//2
f 28//3 27//3 26//3
f 32//4 29//4 30//4
f 58//5 52//5 53//5
f 58//5 53//5 54//5
f 58//5 54//5 55//5
f 58//5 55//5 56//5
f 58//5 56//5 57//5
f 66//2 60//2 61//2
f 66//2 61//2 62//2
f 66//2 62//2 63//2
f 66//2 63//2 64//2
f 66//2 64//2 65//2
f 74//2 68//2 69//2
f 74//2 69//2 70//2
f 74//2 70//2 71//2
f 74//2 71//2 72//2
f 74//2 72//2 73//2
f 86//2 82//2 80//2
f 86//2 80//2 78//2
f 86//2 78//2 76//2
f 86//2 76//2 90//2
f 86//2 90//2 88//2
f 102//2 98//2 96//2
f 102//2 96//2 94//2
f 102//2 94//2 92//2
f 102//2 92//2 106//2
f 102//2 106//2 104//2
f 101//5 105//5 91//5
f 101//5 91//5 93//5
f 101//5 93//5 95//5
f 101//5 95//5 97//5
f 101//5 97//5 99//5
f 113//4 30//4 29//4
f 115//3 26//3 114//3
f 24//2 118//2 120//2
f 132//6 129//6 130//6
f 59//7 56//7 60//7
f 66//8 57//8 59//8
f 65//9 58//9 66//9
f 64//10 51//10 65//10
f 63//11 52//11 64//11
f 62//12 53//12 63//12
f 61//13 54//13 62//13
f 60//14 55//14 61//14
f 67//7 49//7 68//7
f 74//8 43//8 67//8
f 73//9 44//9 74//9
f 72//10 45//10 73//10
f 71//11 46//11 72//11
f 70//12 47//12 71//12
f 69//13 48//13 70//13
f 68//14 50//14 69//14
f 90//7 75//7 89//7
f 76//8 77//8 75//8
f 78//9 79//9 77//9
f 80//10 81//10 79//10
f 82//11 83//11 81//11
f 84//12 85//12 83//12
f 86//13 87//13 85//13
f 88//14 89//14 87//14
f 106//7 91//7 105//7
f 92//8 93//8 91//8
f 94//9 95//9 93//9
f 96//10 97//10 95//10
f 98//11 99//11 97//11
f 100//12 101//12 99//12
f 102//13 103//13 101//13
f 104//14 105//14 103//14
f 14//15 12//15 11//15
f 15//16 11//16 10//16
f 17//17 9//17 8//17
f 18//18 8//18 7//18
f 12//2 8//2 9//2
f 12//2 9//2 10//2
f 12//5 10//5 11//5
f 18//5 14//5 15//5
f 18//5 15//5 16//5
f 18//5 16//5 17//5
f 19//4 21//4 24//4
f 34//3 23//3 22//3
f 21//1 34//1 22//1
f 37//19 33//19 34//19
f 39//20 19//20 40//20
f 37//21 20//21 39//21
f 35//22 38//22 36//22
f 36//5 42//5 41//5
f 38//23 39//23 42//23
f 42//24 40//24 41//24
f 107//24 40//24 110//24
f 108//25 110//25 111//25
f 36//5 107//5 108//5
f 35//22 108//22 111//22
f 111//26 109//26 119//26
f 110//20 19//20 109//20
f 111//19 33//19 35//19
f 120//6 119//6 109//6
f 119//3 23//3 33//3
f 19//4 120//4 109//4
f 18//5 124//5 126//5
f 18//5 126//5 128//5
f 18//5 128//5 13//5
f 12//2 125//2 123//2
f 12//2 123//2 121//2
f 12//2 121//2 7//2
f 18//27 121//27 122//27
f 122//28 123//28 124//28
f 126//29 127//29 128//29
f 128//30 12//30 13//30
