# Blender v2.79 (sub 0) OBJ File: ''
# www.blender.org
mtllib m83.mtl
o m83
v 0.023448 0.232507 0.496518
v 0.000339 0.213794 0.548024
v 0.046557 0.251221 0.548024
v -0.196537 0.184479 0.445344
v -0.191657 0.153669 0.499370
v -0.201416 0.215288 0.499370
v -0.280582 -0.026702 0.394086
v -0.250035 -0.038429 0.450759
v -0.311129 -0.014977 0.450759
v -0.150007 -0.217385 0.342743
v -0.123333 -0.195785 0.402191
v -0.176680 -0.238985 0.402191
v 0.086548 -0.214544 0.291308
v 0.080916 -0.178983 0.353667
v 0.092180 -0.250103 0.353667
v 0.218503 -0.009750 0.239778
v 0.183245 0.003785 0.305192
v 0.253761 -0.023284 0.305192
v 0.115986 0.220652 0.188149
v 0.085198 0.195720 0.256766
v 0.146773 0.245583 0.256766
v -0.142978 0.261414 0.136416
v -0.136477 0.220370 0.208393
v -0.149478 0.302459 0.208393
v -0.324467 0.056874 0.084572
v -0.283771 0.041252 0.160074
v -0.365162 0.072497 0.160074
v -0.245287 -0.217937 0.032614
v -0.209751 -0.189162 0.111813
v -0.280822 -0.246714 0.111813
v 0.042822 -0.300478 -0.019466
v 0.035318 -0.253103 0.063612
v 0.050326 -0.347852 0.063612
v 0.275720 -0.089112 -0.071671
v 0.228749 -0.071083 0.015475
v 0.322692 -0.107145 0.015475
v 0.214432 0.235525 -0.124010
v 0.173415 0.202312 -0.032597
v 0.255447 0.268740 -0.032597
v -0.066715 0.281976 -0.176488
v -0.046875 0.230291 -0.080598
v -0.086555 0.333660 -0.080598
v -0.216083 0.124115 -0.229113
v -0.158443 0.117038 -0.128527
v -0.273723 0.131194 -0.128527
v -0.121743 -0.064167 -0.281888
v -0.102918 -0.006231 -0.176378
v -0.140567 -0.122102 -0.176378
v 0.066352 -0.032753 -0.334830
v 0.021167 0.012430 -0.224150
v 0.111536 -0.077938 -0.224150
v 0.271903 -0.083766 -0.205013
v 0.140156 0.081288 -0.174789
v -0.057228 0.018243 -0.225566
v -0.047471 -0.185775 -0.287176
v 0.155943 -0.248820 -0.274472
v 0.202565 -0.059889 -0.295062
v 0.130763 0.030064 -0.278588
v 0.023188 -0.004295 -0.306264
v 0.028505 -0.115483 -0.339845
v 0.139366 -0.149843 -0.332916
v 0.133227 -0.036013 -0.385115
v 0.121369 -0.021159 -0.382393
v 0.103605 -0.026832 -0.386963
v 0.104482 -0.045193 -0.392514
v 0.122790 -0.050867 -0.391368
v 0.110796 0.007896 -0.318785
v -0.000028 0.007896 -0.318785
v -0.000028 -0.102928 -0.318785
v 0.110796 -0.102928 -0.318785
v 0.064717 -0.038184 -0.401275
v 0.046051 -0.038184 -0.401275
v 0.046051 -0.056848 -0.401275
v 0.064717 -0.056848 -0.401275
v 0.247008 -0.038548 -0.318785
v 0.148263 0.011766 -0.318785
v 0.097949 -0.086980 -0.318785
v 0.196695 -0.137294 -0.318785
v 0.185031 -0.058686 -0.401275
v 0.168400 -0.050211 -0.401275
v 0.159926 -0.066842 -0.401275
v 0.176557 -0.075316 -0.401275
v 0.038091 0.035526 -0.319734
v 0.214916 -0.005298 -0.319734
v 0.027835 -0.008896 -0.401976
v 0.204660 -0.049720 -0.401976
v 0.116171 0.064449 -0.190180
v 0.155110 0.049497 -0.188641
v 0.123138 0.089565 -0.122429
v 0.162076 0.074611 -0.120890
v 0.091008 0.061302 -0.190361
v 0.108662 0.055146 -0.193499
v 0.087157 0.061206 -0.140698
v 0.104812 0.055048 -0.143836
v 0.158407 0.038740 -0.186670
v 0.176061 0.032584 -0.189807
v 0.154556 0.038644 -0.137007
v 0.172210 0.032487 -0.140145
vn 0.3360 -0.9235 -0.1848
vn -0.2234 0.2759 0.9349
vn -0.1418 0.9491 -0.2812
vn 0.9477 -0.2328 -0.2183
vn -0.3152 -0.0499 0.9477
vn -0.8534 0.4159 -0.3142
vn 0.7149 0.6529 -0.2503
vn -0.1035 -0.2697 0.9574
vn -0.8155 -0.4661 -0.3431
vn -0.1446 0.9491 -0.2800
vn 0.1657 -0.2046 0.9647
vn -0.0688 -0.9273 -0.3678
vn -0.8628 0.4017 -0.3070
vn 0.2382 0.0377 0.9705
vn 0.7270 -0.5662 -0.3885
vn -0.8039 -0.4942 -0.3310
vn 0.0796 0.2073 0.9750
vn 0.8654 0.2942 -0.4056
vn -0.0272 -0.9356 -0.3521
vn -0.1292 0.1595 0.9787
vn 0.2223 0.8801 -0.4195
vn 0.7640 -0.5284 -0.3703
vn -0.1882 -0.0298 0.9817
vn -0.6181 0.6576 -0.4308
vn 0.8518 0.3544 -0.3858
vn -0.0636 -0.1656 0.9841
vn -0.8817 -0.1709 -0.4399
vn 0.1573 0.9034 -0.3988
vn 0.1042 -0.1287 0.9862
vn -0.3201 -0.8352 -0.4471
vn -0.6771 0.6112 -0.4097
vn 0.1532 0.0243 0.9879
vn 0.5414 -0.7084 -0.4529
vn -0.8729 -0.2503 -0.4187
vn 0.0522 0.1359 0.9894
vn 0.8844 0.0932 -0.4574
vn -0.0407 -0.9331 -0.3573
vn -0.1119 0.1382 0.9841
vn 0.2237 0.8795 -0.4199
vn 0.7264 -0.5309 -0.4364
vn -0.1776 -0.0682 0.9817
vn -0.5509 0.6817 -0.4814
vn 0.7655 0.5014 -0.4034
vn -0.0243 -0.1979 0.9799
vn -0.8387 -0.2913 -0.4601
vn -0.2910 0.8596 -0.4201
vn 0.1966 -0.0639 0.9784
vn 0.0115 -0.8774 -0.4797
vn -0.1496 -0.2924 0.9445
vn 0.1498 0.2927 -0.9444
vn 0.6924 0.6202 -0.3687
vn -0.1752 0.8891 -0.4229
vn -0.6698 0.1851 -0.7191
vn -0.1078 -0.5188 -0.8481
vn 0.7340 -0.2500 -0.6315
vn 0.6923 0.6203 -0.3687
vn -0.6699 0.1854 -0.7190
vn -0.1077 -0.5189 -0.8480
vn 0.7340 -0.2499 -0.6315
vn 0.0000 0.0000 1.0000
vn 0.0000 0.0000 -1.0000
vn 0.0000 0.8730 -0.4877
vn -0.8730 0.0000 -0.4877
vn 0.0000 -0.8730 -0.4877
vn 0.8730 0.0000 -0.4877
vn 0.3964 0.7779 -0.4877
vn -0.7779 0.3963 -0.4877
vn -0.3963 -0.7779 -0.4877
vn 0.7779 -0.3964 -0.4877
vn 0.1967 0.8522 -0.4848
vn 0.3471 0.8672 -0.3571
vn 0.3336 0.9423 0.0277
vn 0.2935 -0.8188 -0.4934
vn -0.2345 -0.0371 0.9714
vn -0.0281 0.8672 -0.4971
vn 0.8407 -0.2139 -0.4974
vn -0.0845 -0.2202 0.9718
vn -0.7401 0.4568 -0.4935
vn 0.6462 0.5770 -0.4996
vn 0.1471 -0.1817 0.9723
vn -0.7907 -0.3686 -0.4887
vn -0.1190 0.8578 -0.4999
vn 0.2282 0.0361 0.9729
vn -0.1231 -0.8668 -0.4832
vn -0.7804 0.3773 -0.4987
vn 0.0816 0.2126 0.9737
vn 0.6644 -0.5753 -0.4771
vn -0.7466 -0.4433 -0.4961
vn -0.1409 0.1739 0.9746
vn 0.8456 0.2517 -0.4708
vn -0.0385 -0.8695 -0.4924
vn -0.2167 -0.0343 0.9756
vn 0.2395 0.8526 -0.4645
vn 0.7106 -0.5069 -0.4879
vn -0.0769 -0.2003 0.9767
vn -0.5981 0.6573 -0.4584
vn 0.8129 0.3255 -0.4830
vn 0.1316 -0.1625 0.9779
vn -0.8766 -0.1632 -0.4526
vn 0.1610 0.8635 -0.4779
vn 0.2009 0.0318 0.9791
vn -0.3202 -0.8351 -0.4473
vn -0.6479 0.5972 -0.4728
vn 0.0707 0.1841 0.9804
vn 0.5487 -0.7093 -0.4425
vn -0.8516 -0.2362 -0.4679
vn -0.1201 0.1483 0.9816
vn 0.8928 0.1037 -0.4383
vn -0.0594 -0.8838 -0.4641
vn -0.2225 -0.0854 0.9712
vn 0.2261 0.8763 -0.4255
vn 0.7189 -0.5304 -0.4493
vn -0.0433 -0.3529 0.9347
vn -0.6222 0.6707 -0.4037
vn 0.7644 0.4978 -0.4097
vn 0.4430 -0.1439 0.8849
vn -0.8519 -0.3798 -0.3605
vn -0.2700 0.8478 -0.4564
vn 0.3025 0.3025 0.9039
vn 0.0827 -0.9104 -0.4054
vn 0.1496 0.2925 -0.9445
vn -0.1078 -0.5189 -0.8480
vn -0.6698 0.1852 -0.7191
vn 0.7340 -0.2500 -0.6314
vn 0.3963 0.7779 -0.4877
vn -0.7779 0.3964 -0.4877
vn 0.7779 -0.3963 -0.4877
usemtl None
s off
f 1//1 2//1 5//1
f 2//2 3//2 6//2
f 3//3 1//3 4//3
f 4//4 5//4 8//4
f 5//5 6//5 9//5
f 6//6 4//6 7//6
f 7//7 8//7 11//7
f 8//8 9//8 12//8
f 9//9 7//9 10//9
f 10//10 11//10 14//10
f 11//11 12//11 15//11
f 12//12 10//12 13//12
f 13//13 14//13 17//13
f 14//14 15//14 18//14
f 15//15 13//15 16//15
f 16//16 17//16 20//16
f 17//17 18//17 21//17
f 18//18 16//18 19//18
f 19//19 20//19 23//19
f 20//20 21//20 24//20
f 21//21 19//21 22//21
f 22//22 23//22 26//22
f 23//23 24//23 27//23
f 24//24 22//24 25//24
f 25//25 26//25 29//25
f 26//26 27//26 30//26
f 27//27 25//27 28//27
f 28//28 29//28 32//28
f 29//29 30//29 33//29
f 30//30 28//30 31//30
f 31//31 32//31 35//31
f 32//32 33//32 36//32
f 33//33 31//33 34//33
f 34//34 35//34 38//34
f 35//35 36//35 39//35
f 36//36 34//36 37//36
f 37//37 38//37 41//37
f 38//38 39//38 42//38
f 39//39 37//39 40//39
f 40//40 41//40 44//40
f 41//41 42//41 45//41
f 42//42 40//42 43//42
f 43//43 44//43 47//43
f 44//44 45//44 48//44
f 45//45 43//45 46//45
f 46//46 47//46 50//46
f 47//47 48//47 51//47
f 48//48 46//48 49//48
f 52//49 53//49 54//49
f 66//50 65//50 64//50
f 57//51 58//51 53//51
f 58//52 59//52 54//52
f 59//53 60//53 55//53
f 60//54 61//54 56//54
f 61//55 57//55 52//55
f 62//56 63//56 58//56
f 63//52 64//52 59//52
f 64//57 65//57 60//57
f 65//58 66//58 61//58
f 66//59 62//59 57//59
f 67//60 68//60 69//60
f 74//61 73//61 72//61
f 71//62 72//62 68//62
f 72//63 73//63 69//63
f 73//64 74//64 70//64
f 74//65 71//65 67//65
f 75//60 76//60 77//60
f 82//61 81//61 80//61
f 79//66 80//66 76//66
f 80//67 81//67 77//67
f 81//68 82//68 78//68
f 82//69 79//69 75//69
f 83//70 84//70 86//70
f 87//71 90//71 88//71
f 91//72 94//72 92//72
f 95//72 98//72 96//72
f 1//73 5//73 4//73
f 2//74 6//74 5//74
f 3//75 4//75 6//75
f 4//76 8//76 7//76
f 5//77 9//77 8//77
f 6//78 7//78 9//78
f 7//79 11//79 10//79
f 8//80 12//80 11//80
f 9//81 10//81 12//81
f 10//82 14//82 13//82
f 11//83 15//83 14//83
f 12//84 13//84 15//84
f 13//85 17//85 16//85
f 14//86 18//86 17//86
f 15//87 16//87 18//87
f 16//88 20//88 19//88
f 17//89 21//89 20//89
f 18//90 19//90 21//90
f 19//91 23//91 22//91
f 20//92 24//92 23//92
f 21//93 22//93 24//93
f 22//94 26//94 25//94
f 23//95 27//95 26//95
f 24//96 25//96 27//96
f 25//97 29//97 28//97
f 26//98 30//98 29//98
f 27//99 28//99 30//99
f 28//100 32//100 31//100
f 29//101 33//101 32//101
f 30//102 31//102 33//102
f 31//103 35//103 34//103
f 32//104 36//104 35//104
f 33//105 34//105 36//105
f 34//106 38//106 37//106
f 35//107 39//107 38//107
f 36//108 37//108 39//108
f 37//109 41//109 40//109
f 38//110 42//110 41//110
f 39//111 40//111 42//111
f 40//112 44//112 43//112
f 41//113 45//113 44//113
f 42//114 43//114 45//114
f 43//115 47//115 46//115
f 44//116 48//116 47//116
f 45//117 46//117 48//117
f 46//118 50//118 49//118
f 47//119 51//119 50//119
f 48//120 49//120 51//120
f 52//49 54//49 55//49
f 52//49 55//49 56//49
f 66//121 64//121 63//121
f 66//121 63//121 62//121
f 57//51 53//51 52//51
f 58//52 54//52 53//52
f 59//53 55//53 54//53
f 60//122 56//122 55//122
f 61//59 52//59 56//59
f 62//51 58//51 57//51
f 63//52 59//52 58//52
f 64//123 60//123 59//123
f 65//122 61//122 60//122
f 66//124 57//124 61//124
f 67//60 69//60 70//60
f 74//61 72//61 71//61
f 71//62 68//62 67//62
f 72//63 69//63 68//63
f 73//64 70//64 69//64
f 74//65 67//65 70//65
f 75//60 77//60 78//60
f 82//61 80//61 79//61
f 79//125 76//125 75//125
f 80//126 77//126 76//126
f 81//68 78//68 77//68
f 82//127 75//127 78//127
f 83//70 86//70 85//70
f 87//71 89//71 90//71
f 91//72 93//72 94//72
f 95//72 97//72 98//72
