# Blender v2.79 (sub 0) OBJ File: ''
# www.blender.org
mtllib m830.mtl
o m830
v 0.170191 0.386157 0.027726
v 0.165275 0.401289 0.027726
v 0.170191 0.386157 0.092086
v 0.165275 0.401289 0.092086
v 0.144447 0.386157 0.092086
v 0.144447 0.386157 0.027726
v 0.152403 0.410641 0.027726
v 0.152403 0.410641 0.092086
v 0.136492 0.410641 0.027726
v 0.136492 0.410641 0.092086
v 0.123620 0.401289 0.027726
v 0.123620 0.401289 0.092086
v 0.118704 0.386157 0.027726
v 0.118704 0.386157 0.092086
v 0.123620 0.371026 0.027726
v 0.123620 0.371026 0.092086
v 0.136492 0.361673 0.027726
v 0.136492 0.361673 0.092086
v 0.152403 0.361673 0.027726
v 0.152403 0.361673 0.092086
v 0.165275 0.371026 0.027726
v 0.165275 0.371026 0.092086
v 0.170191 -0.386157 0.027726
v 0.165275 -0.371025 0.027726
v 0.170191 -0.386157 0.092086
v 0.165275 -0.371025 0.092086
v 0.144447 -0.386157 0.092086
v 0.144447 -0.386157 0.027726
v 0.152403 -0.361673 0.027726
v 0.152403 -0.361673 0.092086
v 0.136492 -0.361673 0.027726
v 0.136492 -0.361673 0.092086
v 0.123620 -0.371025 0.027726
v 0.123620 -0.371025 0.092086
v 0.118704 -0.386157 0.027726
v 0.118704 -0.386157 0.092086
v 0.123620 -0.401288 0.027726
v 0.123620 -0.401288 0.092086
v 0.136492 -0.410640 0.027726
v 0.136492 -0.410640 0.092086
v 0.152403 -0.410640 0.027726
v 0.152403 -0.410640 0.092086
v 0.165275 -0.401288 0.027726
v 0.165275 -0.401288 0.092086
v -0.087247 -0.386157 0.027726
v -0.092163 -0.371025 0.027726
v -0.087247 -0.386157 0.092086
v -0.092163 -0.371025 0.092086
v -0.112990 -0.386157 0.092086
v -0.112990 -0.386157 0.027726
v -0.105035 -0.361673 0.027726
v -0.105035 -0.361673 0.092086
v -0.120946 -0.361673 0.027726
v -0.120946 -0.361673 0.092086
v -0.133818 -0.371025 0.027726
v -0.133818 -0.371025 0.092086
v -0.138735 -0.386157 0.027726
v -0.138735 -0.386157 0.092086
v -0.133818 -0.401288 0.027726
v -0.133818 -0.401288 0.092086
v -0.120946 -0.410640 0.027726
v -0.120946 -0.410640 0.092086
v -0.105035 -0.410640 0.027726
v -0.105035 -0.410640 0.092086
v -0.092163 -0.401288 0.027726
v -0.092163 -0.401288 0.092086
v -0.087247 0.386157 0.027726
v -0.092163 0.401289 0.027726
v -0.087247 0.386157 0.092086
v -0.092163 0.401289 0.092086
v -0.112990 0.386157 0.092086
v -0.112990 0.386157 0.027726
v -0.105035 0.410641 0.027726
v -0.105035 0.410641 0.092086
v -0.120946 0.410641 0.027726
v -0.120946 0.410641 0.092086
v -0.133818 0.401289 0.027726
v -0.133818 0.401289 0.092086
v -0.138735 0.386157 0.027726
v -0.138735 0.386157 0.092086
v -0.133818 0.371026 0.027726
v -0.133818 0.371026 0.092086
v -0.120946 0.361673 0.027726
v -0.120946 0.361673 0.092086
v -0.105035 0.361673 0.027726
v -0.105035 0.361673 0.092086
v -0.092163 0.371026 0.027726
v -0.092163 0.371026 0.092086
v -0.141154 -0.450516 0.069372
v 0.179036 -0.450516 0.037246
v 0.172611 -0.450516 -0.026791
v -0.147579 -0.450516 0.005335
v -0.141154 0.450516 0.069372
v 0.179036 0.450516 0.037246
v 0.172611 0.450516 -0.026791
v -0.147579 0.450516 0.005335
v -0.142439 0.431208 0.030821
v 0.177751 0.431208 -0.001305
v 0.173896 0.431208 -0.039728
v -0.146294 0.431208 -0.007602
v -0.142439 0.469824 0.030821
v 0.177751 0.469824 -0.001305
v 0.173896 0.469824 -0.039728
v -0.146294 0.469824 -0.007602
v 0.207803 0.450516 -0.037516
v 0.206967 0.465648 -0.042361
v -0.172735 0.450516 0.028118
v -0.173571 0.465648 0.023273
v -0.177111 0.450516 0.002749
v 0.203427 0.450516 -0.062885
v 0.204780 0.475001 -0.055046
v -0.175759 0.475001 0.010588
v 0.202075 0.475001 -0.070725
v -0.178463 0.475001 -0.005091
v 0.199888 0.465648 -0.083409
v -0.180651 0.465648 -0.017775
v 0.199052 0.450516 -0.088255
v -0.181487 0.450516 -0.022621
v 0.199888 0.435384 -0.083409
v -0.180651 0.435384 -0.017775
v 0.202075 0.426032 -0.070725
v -0.178463 0.426032 -0.005091
v 0.204780 0.426032 -0.055046
v -0.175759 0.426032 0.010588
v 0.206967 0.435384 -0.042361
v -0.173571 0.435384 0.023273
v 0.220870 0.450516 -0.052517
v 0.220452 0.458082 -0.054940
v -0.185038 0.450516 0.017492
v -0.185455 0.458082 0.015070
v -0.187225 0.450516 0.004808
v 0.218682 0.450516 -0.065202
v 0.219358 0.462758 -0.061282
v -0.186549 0.462758 0.008728
v 0.218006 0.462758 -0.069122
v -0.187902 0.462758 0.000888
v 0.216912 0.458082 -0.075464
v -0.188995 0.458082 -0.005454
v 0.216494 0.450516 -0.077886
v -0.189413 0.450516 -0.007877
v 0.216912 0.442950 -0.075464
v -0.188995 0.442950 -0.005454
v 0.218006 0.438275 -0.069122
v -0.187902 0.438275 0.000888
v 0.219358 0.438275 -0.061282
v -0.186549 0.438275 0.008728
v 0.220452 0.442950 -0.054940
v -0.185455 0.442950 0.015070
v 0.220870 -0.450516 -0.052517
v 0.220452 -0.442950 -0.054940
v -0.185038 -0.450516 0.017492
v -0.185455 -0.442950 0.015070
v -0.187225 -0.450516 0.004808
v 0.218682 -0.450516 -0.065202
v 0.219358 -0.438274 -0.061282
v -0.186549 -0.438274 0.008728
v 0.218006 -0.438274 -0.069122
v -0.187902 -0.438274 0.000888
v 0.216912 -0.442950 -0.075464
v -0.188995 -0.442950 -0.005454
v 0.216494 -0.450516 -0.077886
v -0.189413 -0.450516 -0.007877
v 0.216912 -0.458082 -0.075464
v -0.188995 -0.458082 -0.005454
v 0.218006 -0.462758 -0.069122
v -0.187902 -0.462758 0.000888
v 0.219358 -0.462758 -0.061282
v -0.186549 -0.462758 0.008728
v 0.220452 -0.458082 -0.054940
v -0.185455 -0.458082 0.015070
v -0.142439 -0.469824 0.030821
v 0.177751 -0.469824 -0.001305
v 0.173896 -0.469824 -0.039728
v -0.146294 -0.469824 -0.007602
v -0.142439 -0.431208 0.030821
v 0.177751 -0.431208 -0.001305
v 0.173896 -0.431208 -0.039728
v -0.146294 -0.431208 -0.007602
v 0.207803 -0.450516 -0.037516
v 0.206967 -0.435384 -0.042361
v -0.172735 -0.450516 0.028118
v -0.173571 -0.435384 0.023273
v -0.177111 -0.450516 0.002749
v 0.203427 -0.450516 -0.062885
v 0.204780 -0.426032 -0.055046
v -0.175759 -0.426032 0.010588
v 0.202075 -0.426032 -0.070725
v -0.178463 -0.426032 -0.005091
v 0.199888 -0.435384 -0.083409
v -0.180651 -0.435384 -0.017775
v 0.199052 -0.450516 -0.088255
v -0.181487 -0.450516 -0.022621
v 0.199888 -0.465648 -0.083409
v -0.180651 -0.465648 -0.017775
v 0.202075 -0.475000 -0.070725
v -0.178463 -0.475000 -0.005091
v 0.204780 -0.475000 -0.055046
v -0.175759 -0.475000 0.010588
v 0.206967 -0.465648 -0.042361
v -0.173571 -0.465648 0.023273
v -0.118924 -0.418336 0.053368
v -0.083356 -0.418336 0.038331
v -0.158545 -0.418336 -0.139506
v -0.194112 -0.418336 -0.124469
v -0.118924 0.418336 0.053368
v -0.083356 0.418336 0.038331
v -0.158545 0.418336 -0.139506
v -0.194112 0.418336 -0.124469
v -0.141154 -0.418336 0.056501
v 0.179036 -0.418336 0.024374
v 0.172611 -0.418336 -0.039663
v -0.147579 -0.418336 -0.007537
v -0.141154 0.418336 0.056501
v 0.179036 0.418336 0.024374
v 0.172611 0.418336 -0.039663
v -0.147579 0.418336 -0.007537
v 0.195035 0.418336 -0.009572
v 0.190808 0.418336 0.009862
v 0.195035 -0.418336 -0.009572
v 0.190808 -0.418336 0.009862
v 0.163016 -0.418336 -0.006359
v 0.163016 0.418336 -0.006359
v 0.175966 0.418336 0.023100
v 0.175966 -0.418336 0.023100
v 0.156177 0.418336 0.025085
v 0.156177 -0.418336 0.025085
v 0.139000 0.418336 0.015060
v 0.139000 -0.418336 0.015060
v 0.130997 0.418336 -0.003147
v 0.130997 -0.418336 -0.003147
v 0.135224 0.418336 -0.022581
v 0.135224 -0.418336 -0.022581
v 0.150066 0.418336 -0.035818
v 0.150066 -0.418336 -0.035818
v 0.169855 0.418336 -0.037804
v 0.169855 -0.418336 -0.037804
v 0.187031 0.418336 -0.027779
v 0.187031 -0.418336 -0.027779
vn 0.9511 0.3090 0.0000
vn 0.0000 0.0000 1.0000
vn 0.0000 0.0000 -1.0000
vn 0.5878 0.8090 0.0000
vn 0.0000 1.0000 0.0000
vn -0.5878 0.8090 0.0000
vn -0.9511 0.3090 0.0000
vn -0.9511 -0.3090 0.0000
vn -0.5878 -0.8090 0.0000
vn 0.0000 -1.0000 0.0000
vn 0.5878 -0.8090 0.0000
vn 0.9511 -0.3090 0.0000
vn 0.0998 0.0000 0.9950
vn -0.9950 0.0000 0.0998
vn -0.0998 0.0000 -0.9950
vn 0.9950 0.0000 -0.0998
vn 0.1616 0.3090 0.9372
vn -0.9854 0.0000 0.1700
vn 0.9854 0.0000 -0.1700
vn 0.0999 0.8090 0.5792
vn 0.9855 -0.0000 -0.1699
vn -0.9855 0.0000 0.1700
vn -0.0999 0.8090 -0.5793
vn -0.0999 0.8090 -0.5792
vn -0.1616 0.3091 -0.9372
vn -0.1616 -0.3091 -0.9372
vn -0.0999 -0.8090 -0.5793
vn -0.0999 -0.8090 -0.5792
vn 0.0999 -0.8090 0.5792
vn 0.1616 -0.3090 0.9372
vn 0.1616 0.3091 0.9372
vn 0.1617 0.3090 0.9372
vn 0.0999 0.8090 0.5793
vn -0.1617 0.3090 -0.9372
vn -0.1616 -0.3090 -0.9372
vn 0.1616 -0.3091 0.9372
vn -0.1617 -0.3090 -0.9372
vn 0.3894 0.0000 0.9211
vn -0.9211 0.0000 0.3894
vn -0.3894 0.0000 -0.9211
vn 0.9211 0.0000 -0.3894
vn 0.9772 0.0000 0.2125
vn 0.6656 0.0000 0.7463
vn -0.5041 0.0000 0.8637
vn -0.9155 0.0000 0.4024
vn -0.9772 0.0000 -0.2125
vn -0.6656 0.0000 -0.7463
vn -0.0999 0.0000 -0.9950
vn 0.5041 0.0000 -0.8637
vn 0.9154 0.0000 -0.4024
usemtl None
s off
f 1//1 2//1 3//1
f 2//1 4//1 3//1
f 5//2 3//2 4//2
f 6//3 2//3 1//3
f 2//4 7//4 4//4
f 7//4 8//4 4//4
f 5//2 4//2 8//2
f 6//3 7//3 2//3
f 7//5 9//5 8//5
f 9//5 10//5 8//5
f 5//2 8//2 10//2
f 6//3 9//3 7//3
f 9//6 11//6 10//6
f 11//6 12//6 10//6
f 5//2 10//2 12//2
f 6//3 11//3 9//3
f 11//7 13//7 12//7
f 13//7 14//7 12//7
f 5//2 12//2 14//2
f 6//3 13//3 11//3
f 13//8 15//8 14//8
f 15//8 16//8 14//8
f 5//2 14//2 16//2
f 6//3 15//3 13//3
f 15//9 17//9 16//9
f 17//9 18//9 16//9
f 5//2 16//2 18//2
f 6//3 17//3 15//3
f 17//10 19//10 18//10
f 19//10 20//10 18//10
f 5//2 18//2 20//2
f 6//3 19//3 17//3
f 19//11 21//11 20//11
f 21//11 22//11 20//11
f 5//2 20//2 22//2
f 6//3 21//3 19//3
f 21//12 1//12 22//12
f 1//12 3//12 22//12
f 5//2 22//2 3//2
f 6//3 1//3 21//3
f 23//1 24//1 25//1
f 24//1 26//1 25//1
f 27//2 25//2 26//2
f 28//3 24//3 23//3
f 24//4 29//4 26//4
f 29//4 30//4 26//4
f 27//2 26//2 30//2
f 28//3 29//3 24//3
f 29//5 31//5 30//5
f 31//5 32//5 30//5
f 27//2 30//2 32//2
f 28//3 31//3 29//3
f 31//6 33//6 32//6
f 33//6 34//6 32//6
f 27//2 32//2 34//2
f 28//3 33//3 31//3
f 33//7 35//7 34//7
f 35//7 36//7 34//7
f 27//2 34//2 36//2
f 28//3 35//3 33//3
f 35//8 37//8 36//8
f 37//8 38//8 36//8
f 27//2 36//2 38//2
f 28//3 37//3 35//3
f 37//9 39//9 38//9
f 39//9 40//9 38//9
f 27//2 38//2 40//2
f 28//3 39//3 37//3
f 39//10 41//10 40//10
f 41//10 42//10 40//10
f 27//2 40//2 42//2
f 28//3 41//3 39//3
f 41//11 43//11 42//11
f 43//11 44//11 42//11
f 27//2 42//2 44//2
f 28//3 43//3 41//3
f 43//12 23//12 44//12
f 23//12 25//12 44//12
f 27//2 44//2 25//2
f 28//3 23//3 43//3
f 45//1 46//1 47//1
f 46//1 48//1 47//1
f 49//2 47//2 48//2
f 50//3 46//3 45//3
f 46//4 51//4 48//4
f 51//4 52//4 48//4
f 49//2 48//2 52//2
f 50//3 51//3 46//3
f 51//5 53//5 52//5
f 53//5 54//5 52//5
f 49//2 52//2 54//2
f 50//3 53//3 51//3
f 53//6 55//6 54//6
f 55//6 56//6 54//6
f 49//2 54//2 56//2
f 50//3 55//3 53//3
f 55//7 57//7 56//7
f 57//7 58//7 56//7
f 49//2 56//2 58//2
f 50//3 57//3 55//3
f 57//8 59//8 58//8
f 59//8 60//8 58//8
f 49//2 58//2 60//2
f 50//3 59//3 57//3
f 59//9 61//9 60//9
f 61//9 62//9 60//9
f 49//2 60//2 62//2
f 50//3 61//3 59//3
f 61//10 63//10 62//10
f 63//10 64//10 62//10
f 49//2 62//2 64//2
f 50//3 63//3 61//3
f 63//11 65//11 64//11
f 65//11 66//11 64//11
f 49//2 64//2 66//2
f 50//3 65//3 63//3
f 65//12 45//12 66//12
f 45//12 47//12 66//12
f 49//2 66//2 47//2
f 50//3 45//3 65//3
f 67//1 68//1 69//1
f 68//1 70//1 69//1
f 71//2 69//2 70//2
f 72//3 68//3 67//3
f 68//4 73//4 70//4
f 73//4 74//4 70//4
f 71//2 70//2 74//2
f 72//3 73//3 68//3
f 73//5 75//5 74//5
f 75//5 76//5 74//5
f 71//2 74//2 76//2
f 72//3 75//3 73//3
f 75//6 77//6 76//6
f 77//6 78//6 76//6
f 71//2 76//2 78//2
f 72//3 77//3 75//3
f 77//7 79//7 78//7
f 79//7 80//7 78//7
f 71//2 78//2 80//2
f 72//3 79//3 77//3
f 79//8 81//8 80//8
f 81//8 82//8 80//8
f 71//2 80//2 82//2
f 72//3 81//3 79//3
f 81//9 83//9 82//9
f 83//9 84//9 82//9
f 71//2 82//2 84//2
f 72//3 83//3 81//3
f 83//10 85//10 84//10
f 85//10 86//10 84//10
f 71//2 84//2 86//2
f 72//3 85//3 83//3
f 85//11 87//11 86//11
f 87//11 88//11 86//11
f 71//2 86//2 88//2
f 72//3 87//3 85//3
f 87//12 67//12 88//12
f 67//12 69//12 88//12
f 71//2 88//2 69//2
f 72//3 67//3 87//3
f 89//10 92//10 90//10
f 90//10 92//10 91//10
f 89//13 94//13 93//13
f 89//13 90//13 94//13
f 89//14 93//14 92//14
f 92//14 93//14 96//14
f 92//15 96//15 95//15
f 92//15 95//15 91//15
f 90//16 95//16 94//16
f 90//16 91//16 95//16
f 94//5 96//5 93//5
f 94//5 95//5 96//5
f 97//10 100//10 98//10
f 98//10 100//10 99//10
f 97//13 102//13 101//13
f 97//13 98//13 102//13
f 97//14 101//14 100//14
f 100//14 101//14 104//14
f 100//15 104//15 103//15
f 100//15 103//15 99//15
f 98//16 103//16 102//16
f 98//16 99//16 103//16
f 102//5 104//5 101//5
f 102//5 103//5 104//5
f 105//17 106//17 107//17
f 106//17 108//17 107//17
f 109//18 107//18 108//18
f 110//19 106//19 105//19
f 106//20 111//20 108//20
f 111//20 112//20 108//20
f 109//18 108//18 112//18
f 110//21 111//21 106//21
f 111//5 113//5 112//5
f 113//5 114//5 112//5
f 109//22 112//22 114//22
f 110//19 113//19 111//19
f 113//23 115//23 114//23
f 115//24 116//24 114//24
f 109//18 114//18 116//18
f 110//21 115//21 113//21
f 115//25 117//25 116//25
f 117//25 118//25 116//25
f 109//22 116//22 118//22
f 110//21 117//21 115//21
f 117//26 119//26 118//26
f 119//26 120//26 118//26
f 109//22 118//22 120//22
f 110//21 119//21 117//21
f 119//27 121//27 120//27
f 121//28 122//28 120//28
f 109//18 120//18 122//18
f 110//21 121//21 119//21
f 121//10 123//10 122//10
f 123//10 124//10 122//10
f 109//22 122//22 124//22
f 110//19 123//19 121//19
f 123//29 125//29 124//29
f 125//29 126//29 124//29
f 109//18 124//18 126//18
f 110//21 125//21 123//21
f 125//30 105//30 126//30
f 105//30 107//30 126//30
f 109//18 126//18 107//18
f 110//19 105//19 125//19
f 127//31 128//31 129//31
f 128//32 130//32 129//32
f 131//18 129//18 130//18
f 132//19 128//19 127//19
f 128//20 133//20 130//20
f 133//33 134//33 130//33
f 131//18 130//18 134//18
f 132//19 133//19 128//19
f 133//5 135//5 134//5
f 135//5 136//5 134//5
f 131//18 134//18 136//18
f 132//21 135//21 133//21
f 135//24 137//24 136//24
f 137//23 138//23 136//23
f 131//18 136//18 138//18
f 132//19 137//19 135//19
f 137//34 139//34 138//34
f 139//25 140//25 138//25
f 131//22 138//22 140//22
f 132//19 139//19 137//19
f 139//35 141//35 140//35
f 141//26 142//26 140//26
f 131//22 140//22 142//22
f 132//19 141//19 139//19
f 141//28 143//28 142//28
f 143//28 144//28 142//28
f 131//18 142//18 144//18
f 132//19 143//19 141//19
f 143//10 145//10 144//10
f 145//10 146//10 144//10
f 131//18 144//18 146//18
f 132//21 145//21 143//21
f 145//29 147//29 146//29
f 147//29 148//29 146//29
f 131//18 146//18 148//18
f 132//19 147//19 145//19
f 147//36 127//36 148//36
f 127//30 129//30 148//30
f 131//18 148//18 129//18
f 132//19 127//19 147//19
f 149//31 150//31 151//31
f 150//17 152//17 151//17
f 153//18 151//18 152//18
f 154//19 150//19 149//19
f 150//20 155//20 152//20
f 155//33 156//33 152//33
f 153//18 152//18 156//18
f 154//19 155//19 150//19
f 155//5 157//5 156//5
f 157//5 158//5 156//5
f 153//22 156//22 158//22
f 154//21 157//21 155//21
f 157//24 159//24 158//24
f 159//24 160//24 158//24
f 153//18 158//18 160//18
f 154//19 159//19 157//19
f 159//34 161//34 160//34
f 161//25 162//25 160//25
f 153//22 160//22 162//22
f 154//19 161//19 159//19
f 161//37 163//37 162//37
f 163//26 164//26 162//26
f 153//22 162//22 164//22
f 154//19 163//19 161//19
f 163//28 165//28 164//28
f 165//27 166//27 164//27
f 153//18 164//18 166//18
f 154//19 165//19 163//19
f 165//10 167//10 166//10
f 167//10 168//10 166//10
f 153//18 166//18 168//18
f 154//21 167//21 165//21
f 167//29 169//29 168//29
f 169//29 170//29 168//29
f 153//18 168//18 170//18
f 154//19 169//19 167//19
f 169//36 149//36 170//36
f 149//30 151//30 170//30
f 153//18 170//18 151//18
f 154//19 149//19 169//19
f 171//10 174//10 172//10
f 172//10 174//10 173//10
f 171//13 176//13 175//13
f 171//13 172//13 176//13
f 171//14 175//14 174//14
f 174//14 175//14 178//14
f 174//15 178//15 177//15
f 174//15 177//15 173//15
f 172//16 177//16 176//16
f 172//16 173//16 177//16
f 176//5 178//5 175//5
f 176//5 177//5 178//5
f 179//17 180//17 181//17
f 180//17 182//17 181//17
f 183//18 181//18 182//18
f 184//19 180//19 179//19
f 180//20 185//20 182//20
f 185//20 186//20 182//20
f 183//18 182//18 186//18
f 184//21 185//21 180//21
f 185//5 187//5 186//5
f 187//5 188//5 186//5
f 183//22 186//22 188//22
f 184//19 187//19 185//19
f 187//23 189//23 188//23
f 189//24 190//24 188//24
f 183//18 188//18 190//18
f 184//21 189//21 187//21
f 189//25 191//25 190//25
f 191//25 192//25 190//25
f 183//22 190//22 192//22
f 184//21 191//21 189//21
f 191//26 193//26 192//26
f 193//26 194//26 192//26
f 183//22 192//22 194//22
f 184//21 193//21 191//21
f 193//27 195//27 194//27
f 195//27 196//27 194//27
f 183//18 194//18 196//18
f 184//21 195//21 193//21
f 195//10 197//10 196//10
f 197//10 198//10 196//10
f 183//22 196//22 198//22
f 184//19 197//19 195//19
f 197//29 199//29 198//29
f 199//29 200//29 198//29
f 183//18 198//18 200//18
f 184//21 199//21 197//21
f 199//30 179//30 200//30
f 179//30 181//30 200//30
f 183//18 200//18 181//18
f 184//19 179//19 199//19
f 201//10 204//10 202//10
f 202//10 204//10 203//10
f 201//38 206//38 205//38
f 201//38 202//38 206//38
f 201//39 205//39 204//39
f 204//39 205//39 208//39
f 204//40 208//40 207//40
f 204//40 207//40 203//40
f 202//41 207//41 206//41
f 202//41 203//41 207//41
f 206//5 208//5 205//5
f 206//5 207//5 208//5
f 209//10 212//10 210//10
f 210//10 212//10 211//10
f 209//13 214//13 213//13
f 209//13 210//13 214//13
f 209//14 213//14 212//14
f 212//14 213//14 216//14
f 212//15 216//15 215//15
f 212//15 215//15 211//15
f 210//16 215//16 214//16
f 210//16 211//16 215//16
f 214//5 216//5 213//5
f 214//5 215//5 216//5
f 217//42 218//42 219//42
f 218//42 220//42 219//42
f 221//10 219//10 220//10
f 222//5 218//5 217//5
f 218//43 223//43 220//43
f 223//43 224//43 220//43
f 221//10 220//10 224//10
f 222//5 223//5 218//5
f 223//13 225//13 224//13
f 225//13 226//13 224//13
f 221//10 224//10 226//10
f 222//5 225//5 223//5
f 225//44 227//44 226//44
f 227//44 228//44 226//44
f 221//10 226//10 228//10
f 222//5 227//5 225//5
f 227//45 229//45 228//45
f 229//45 230//45 228//45
f 221//10 228//10 230//10
f 222//5 229//5 227//5
f 229//46 231//46 230//46
f 231//46 232//46 230//46
f 221//10 230//10 232//10
f 222//5 231//5 229//5
f 231//47 233//47 232//47
f 233//47 234//47 232//47
f 221//10 232//10 234//10
f 222//5 233//5 231//5
f 233//48 235//48 234//48
f 235//48 236//48 234//48
f 221//10 234//10 236//10
f 222//5 235//5 233//5
f 235//49 237//49 236//49
f 237//49 238//49 236//49
f 221//10 236//10 238//10
f 222//5 237//5 235//5
f 237//50 217//50 238//50
f 217//50 219//50 238//50
f 221//10 238//10 219//10
f 222//5 217//5 237//5
