# Blender v2.79 (sub 0) OBJ File: ''
# www.blender.org
mtllib m835.mtl
o m835
v -0.370634 0.062382 -0.020363
v -0.256079 -0.009964 -0.018523
v -0.282370 -0.054743 -0.142209
v -0.396925 0.017604 -0.144051
v -0.379540 0.048456 -0.013429
v -0.264985 -0.023888 -0.011587
v -0.291276 -0.068668 -0.135275
v -0.405831 0.003678 -0.137117
v -0.360734 0.059894 -0.032663
v -0.262296 -0.002274 -0.031080
v -0.284576 -0.040223 -0.135902
v -0.383015 0.021945 -0.137485
v -0.377772 0.033254 -0.019395
v -0.279333 -0.028914 -0.017814
v -0.301613 -0.066864 -0.122636
v -0.400052 -0.004696 -0.124219
v 0.373138 0.062382 -0.020363
v 0.258581 -0.009964 -0.018523
v 0.284874 -0.054743 -0.142209
v 0.399427 0.017604 -0.144051
v 0.382043 0.048456 -0.013429
v 0.267488 -0.023888 -0.011587
v 0.293779 -0.068668 -0.135275
v 0.408333 0.003678 -0.137117
v 0.363238 0.059894 -0.032663
v 0.264799 -0.002274 -0.031080
v 0.287078 -0.040223 -0.135902
v 0.385518 0.021945 -0.137485
v 0.380274 0.033254 -0.019395
v 0.281836 -0.028914 -0.017814
v 0.304117 -0.066864 -0.122636
v 0.402554 -0.004696 -0.124219
v 0.413863 0.190933 0.194738
v 0.437611 0.190933 0.194738
v 0.437611 0.190933 0.098242
v 0.413863 0.190933 0.098242
v 0.413863 0.214404 0.194738
v 0.413863 0.214404 0.098242
v 0.437611 0.214404 0.194738
v 0.437611 0.214404 0.098242
v -0.437323 0.190933 0.194738
v -0.413575 0.190933 0.194738
v -0.413575 0.190933 0.098242
v -0.437323 0.190933 0.098242
v -0.437323 0.214404 0.194738
v -0.437323 0.214404 0.098242
v -0.413575 0.214404 0.194738
v -0.413575 0.214404 0.098242
v 0.413863 -0.165725 0.194738
v 0.437613 -0.165725 0.194738
v 0.437611 -0.141401 0.098242
v 0.413863 -0.141401 0.098242
v 0.413863 -0.142253 0.194738
v 0.413863 -0.117930 0.098242
v 0.437613 -0.142253 0.194738
v 0.437611 -0.117930 0.098242
v -0.437323 -0.165723 0.194738
v -0.413575 -0.165723 0.194738
v -0.413575 -0.141401 0.098242
v -0.437323 -0.141401 0.098242
v -0.437323 -0.142253 0.194738
v -0.437323 -0.117930 0.098242
v -0.413575 -0.142253 0.194738
v -0.413575 -0.117930 0.098242
v -0.396961 -0.142478 0.099726
v 0.397247 -0.142478 0.099726
v 0.397247 -0.142478 0.040343
v -0.396961 -0.142478 0.040343
v 0.397249 0.214404 0.099726
v -0.396961 0.214404 0.099726
v -0.396961 0.214404 0.040343
v 0.397249 0.214404 0.040343
v 0.396173 -0.040016 -0.011271
v 0.385534 -0.030463 -0.019039
v 0.142595 -0.030463 -0.019039
v 0.131957 -0.040016 -0.011271
v 0.142595 0.206954 -0.019039
v 0.131957 0.214404 -0.011271
v 0.385534 0.206954 -0.019039
v 0.396173 0.214404 -0.011271
v 0.396173 0.214404 0.032575
v 0.385534 0.206954 0.041490
v 0.142595 0.206954 0.041490
v 0.131957 0.214404 0.032575
v 0.396173 -0.040016 0.032575
v 0.385534 -0.030463 0.041490
v 0.142595 -0.030463 0.041490
v 0.131957 -0.040016 0.032575
v 0.132253 -0.040016 -0.011271
v 0.121614 -0.030463 -0.019039
v -0.121327 -0.030463 -0.019039
v -0.131966 -0.040016 -0.011271
v -0.121327 0.206954 -0.019039
v -0.131966 0.214404 -0.011271
v 0.121614 0.206954 -0.019039
v 0.132253 0.214404 -0.011271
v 0.132253 0.214404 0.032575
v 0.121614 0.206954 0.041490
v -0.121327 0.206954 0.041490
v -0.131966 0.214404 0.032575
v 0.132253 -0.040016 0.032575
v 0.121614 -0.030463 0.041490
v -0.121327 -0.030463 0.041490
v -0.131966 -0.040016 0.032575
v -0.131669 -0.040016 -0.011271
v -0.142307 -0.030463 -0.019039
v -0.385248 -0.030463 -0.019039
v -0.395886 -0.040016 -0.011271
v -0.131669 0.214404 -0.011271
v -0.142307 0.206954 -0.019039
v -0.385248 0.206954 -0.019039
v -0.395886 0.214404 -0.011271
v -0.131669 0.214404 0.032575
v -0.142307 0.206954 0.041490
v -0.385248 0.206954 0.041490
v -0.395886 0.214404 0.032575
v -0.385248 -0.030463 0.041490
v -0.395886 -0.040016 0.032575
v -0.131669 -0.040016 0.032575
v -0.142307 -0.030463 0.041490
v -0.367951 -0.037788 -0.045738
v -0.367949 -0.037788 0.051479
v -0.416918 -0.037790 0.051481
v 0.368234 -0.037788 -0.045742
v 0.417203 -0.037787 -0.052910
v 0.417203 -0.037787 0.051475
v 0.368234 -0.037788 0.051475
v 0.113009 -0.037791 -0.103722
v 0.113886 -0.037610 0.051556
v 0.000143 -0.037788 0.051476
v -0.112725 -0.037787 0.051476
v -0.112725 -0.037788 -0.103808
v -0.241899 -0.037786 0.051476
v 0.242184 -0.037780 -0.055952
v 0.242184 -0.037761 0.051488
v -0.416919 -0.037788 -0.052915
v -0.416921 -0.063264 -0.107191
v 0.000143 -0.037788 -0.113817
v -0.241899 -0.037788 -0.062678
v -0.241899 -0.063320 -0.116954
v -0.367951 -0.063219 -0.100014
v 0.368234 -0.064656 -0.100018
v 0.417203 -0.064655 -0.107186
v 0.419536 -0.104717 -0.151760
v 0.000143 -0.065001 -0.168094
v 0.113009 -0.063599 -0.154695
v 0.113886 -0.105101 -0.201993
v -0.112725 -0.063538 -0.154749
v 0.242184 -0.064658 -0.110234
v -0.419369 -0.103326 -0.151782
v -0.367951 -0.103281 -0.147263
v -0.416905 -0.151157 -0.157433
v -0.367938 -0.151111 -0.152807
v 0.368234 -0.104718 -0.147268
v 0.368234 -0.152549 -0.152811
v 0.000143 -0.105063 -0.215343
v 0.113886 -0.152938 -0.207581
v 0.000143 -0.152894 -0.220887
v -0.112725 -0.104987 -0.201999
v -0.112725 -0.152812 -0.207537
v -0.241899 -0.103383 -0.164204
v -0.241897 -0.151214 -0.169748
v 0.242184 -0.104728 -0.157490
v 0.242184 -0.152560 -0.163042
v -0.367942 -0.169192 -0.138717
v 0.417203 -0.152547 -0.157427
v 0.368237 -0.170325 -0.138754
v 0.417208 -0.170323 -0.142518
v 0.113887 -0.176123 -0.200510
v -0.112725 -0.175992 -0.200295
v -0.241897 -0.171042 -0.155465
v -0.416910 -0.169975 -0.142410
v -0.416915 -0.142958 0.098882
v -0.367946 -0.142957 0.098882
v 0.368237 -0.142957 0.098877
v 0.417208 -0.142955 0.098878
v 0.000143 -0.177469 -0.213686
v 0.113887 -0.142724 0.098836
v 0.000143 -0.142957 0.098878
v -0.112725 -0.142955 0.098878
v -0.241897 -0.142954 0.098877
v 0.242187 -0.142921 0.098871
v 0.242187 -0.170333 -0.148989
v 0.437935 0.214404 0.100339
v 0.395726 0.214404 0.100339
v 0.395726 0.214404 0.030280
v 0.437935 0.214404 0.030280
v -0.437653 0.214404 0.100323
v -0.395444 0.214404 0.100323
v -0.437653 0.214404 0.030263
v -0.395444 0.214404 0.030263
v 0.437935 0.138433 -0.007723
v 0.437935 0.192321 0.026624
v 0.395726 0.192321 0.026624
v 0.395726 0.138433 -0.007723
v -0.437653 0.138433 -0.007739
v -0.437653 0.192321 0.026607
v -0.395444 0.138433 -0.007739
v -0.395444 0.192321 0.026607
v 0.437936 -0.142866 0.099049
v 0.395724 -0.142866 0.099049
v -0.395444 -0.142866 0.099033
v -0.437654 -0.142866 0.099033
v 0.437936 -0.166907 -0.116613
v 0.444999 -0.166907 -0.116613
v 0.395724 -0.164290 -0.088992
v 0.402928 -0.169768 -0.137061
v 0.466271 -0.168237 -0.124915
v 0.407642 -0.170671 -0.144991
v 0.457510 -0.170671 -0.144991
v 0.466271 -0.168237 -0.146851
v -0.437654 -0.166907 -0.116629
v -0.444716 -0.166907 -0.116629
v -0.395444 -0.164290 -0.089009
v -0.402647 -0.169768 -0.137079
v -0.465989 -0.168236 -0.124930
v -0.407361 -0.170671 -0.145006
v -0.457228 -0.170671 -0.145006
v -0.465989 -0.168236 -0.146868
v 0.437935 0.110574 -0.070961
v 0.395726 0.122402 -0.041429
v -0.437653 0.110574 -0.070978
v -0.395444 0.122402 -0.041444
v 0.444675 0.110574 -0.070961
v 0.400499 0.105886 -0.076152
v 0.466798 0.105885 -0.078270
v -0.444393 0.110574 -0.070978
v -0.400217 0.105886 -0.076168
v -0.466516 0.105885 -0.078287
v 0.419268 0.105849 -0.120140
v 0.402928 0.105872 -0.092477
v 0.437935 0.105845 -0.125904
v 0.465070 0.105849 -0.120011
v 0.475138 0.105872 -0.093369
v 0.475138 0.105865 -0.100912
v -0.418986 0.105849 -0.120157
v -0.402647 0.105872 -0.092492
v -0.437653 0.105845 -0.125921
v -0.464788 0.105849 -0.120027
v -0.474856 0.105872 -0.093385
v -0.474856 0.105865 -0.100928
v 0.465072 -0.148861 -0.160587
v 0.475141 -0.153611 -0.142611
v 0.472954 -0.160831 -0.147791
v 0.471394 -0.162558 -0.151019
v 0.475135 -0.153629 -0.135212
v 0.472954 -0.160831 -0.132601
v -0.474859 -0.153611 -0.142627
v -0.472672 -0.160831 -0.147808
v -0.471113 -0.162558 -0.151036
v -0.464789 -0.148861 -0.160602
v -0.474853 -0.153629 -0.135228
v -0.472672 -0.160831 -0.132617
v 0.419268 -0.148719 -0.160689
v -0.418986 -0.148719 -0.160706
v 0.437935 -0.142271 -0.165300
v -0.437653 -0.142271 -0.165316
vn -0.4968 0.7769 -0.3868
vn 0.4968 -0.7769 0.3868
vn 0.4968 -0.7769 0.3869
vn -0.5144 0.8209 0.2480
vn -0.9186 0.2664 -0.2917
vn -0.9188 0.2661 -0.2916
vn -0.2778 0.4179 -0.8650
vn -0.2779 0.4180 -0.8649
vn 0.1475 0.9396 -0.3088
vn 0.9356 -0.2179 0.2777
vn 0.5062 -0.8091 -0.2985
vn -0.1988 -0.9343 0.2960
vn 0.2536 -0.3789 0.8900
vn 0.2535 -0.3788 0.8901
vn -0.1960 0.3338 0.9221
vn -0.1960 0.3339 0.9220
vn 0.1960 -0.3338 -0.9220
vn 0.1960 -0.3338 -0.9221
vn -0.8454 -0.5340 0.0136
vn -0.8454 -0.5339 0.0136
vn 0.8454 0.5339 -0.0136
vn 0.8455 0.5339 -0.0136
vn 0.4968 0.7769 -0.3868
vn 0.4968 0.7769 -0.3869
vn -0.4968 -0.7769 0.3868
vn -0.4968 -0.7769 0.3869
vn 0.5144 0.8209 0.2480
vn 0.9187 0.2664 -0.2917
vn 0.9187 0.2663 -0.2917
vn 0.2778 0.4179 -0.8650
vn 0.2779 0.4179 -0.8649
vn -0.1475 0.9396 -0.3088
vn -0.9356 -0.2178 0.2777
vn -0.9356 -0.2179 0.2777
vn -0.5062 -0.8091 -0.2985
vn 0.1988 -0.9343 0.2960
vn -0.2536 -0.3789 0.8900
vn -0.2535 -0.3788 0.8901
vn 0.1960 0.3338 0.9221
vn 0.1961 0.3339 0.9220
vn -0.1960 -0.3338 -0.9220
vn -0.1960 -0.3338 -0.9221
vn 0.8454 -0.5340 0.0136
vn 0.8454 -0.5339 0.0136
vn -0.8454 0.5339 -0.0136
vn 0.0000 -1.0000 0.0000
vn 0.0000 1.0000 0.0000
vn -1.0000 0.0000 0.0000
vn 1.0000 0.0000 0.0000
vn 0.0000 -0.9697 -0.2444
vn 0.0000 0.9697 0.2444
vn 0.0000 -0.1623 0.9867
vn 0.2800 -0.1555 0.9473
vn 0.3504 -0.1578 0.9232
vn -0.3504 -0.1578 0.9232
vn -0.2800 -0.1555 0.9473
vn 0.8822 0.0741 -0.4651
vn 0.8784 0.0759 -0.4720
vn 0.8782 0.0730 -0.4726
vn 0.8802 0.0794 -0.4679
vn 1.0000 -0.0001 0.0008
vn 0.8727 -0.0777 0.4821
vn 0.8638 -0.0813 0.4972
vn 0.7975 -0.1027 0.5945
vn 0.9570 -0.2899 0.0000
vn 0.9571 -0.2898 0.0000
vn 0.7425 -0.6698 0.0000
vn 0.7422 -0.6702 -0.0002
vn 0.7424 -0.6699 0.0000
vn -0.8853 0.0625 -0.4609
vn -0.8783 0.0759 -0.4720
vn -0.8783 0.0752 -0.4721
vn -0.8821 0.0747 -0.4651
vn -1.0000 -0.0001 0.0008
vn -0.7478 0.0141 0.6637
vn -0.8155 -0.0921 0.5713
vn -0.8722 -0.0837 0.4819
vn -0.9571 -0.2899 0.0000
vn -0.7423 -0.6700 0.0000
vn -0.9882 0.0244 -0.1509
vn -0.9888 0.0245 -0.1471
vn -0.9887 0.0245 -0.1476
vn -0.8582 0.0808 -0.5070
vn -0.8528 0.0834 -0.5155
vn -0.8525 0.0824 -0.5162
vn 0.9883 0.0244 -0.1509
vn 0.9888 0.0245 -0.1472
vn 0.9887 0.0245 -0.1476
vn 0.8525 0.0822 -0.5163
vn 0.8581 0.0820 -0.5069
vn 0.2051 0.1535 -0.9666
vn 0.2097 0.1538 -0.9656
vn -0.2858 0.1507 -0.9464
vn -0.2917 0.1500 -0.9447
vn 0.0000 -0.5817 -0.8134
vn 0.0000 -0.5727 -0.8198
vn -0.0061 -0.5881 -0.8088
vn -0.0074 -0.5902 -0.8072
vn -0.2052 0.1535 -0.9666
vn -0.2097 0.1538 -0.9656
vn 0.2858 0.1507 -0.9464
vn 0.2917 0.1500 -0.9447
vn 0.0011 -0.5911 -0.8066
vn 0.0044 -0.5740 -0.8189
vn 0.0000 0.0000 1.0000
vn 0.0000 0.0000 -1.0000
vn 0.0000 -0.6309 -0.7759
vn -0.5897 0.0000 -0.8076
vn 0.0000 0.7217 -0.6922
vn 0.5897 0.0000 -0.8076
vn 0.0000 0.7673 0.6412
vn 0.6423 0.0000 0.7665
vn -0.6423 0.0000 0.7664
vn -0.6423 0.0000 0.7665
vn 0.6423 0.0000 0.7664
vn 0.0000 0.5375 -0.8433
vn 0.0000 0.1633 -0.9866
vn 0.0000 -0.0036 1.0000
vn 0.0000 -0.9913 0.1315
vn -0.0129 -0.9920 0.1259
vn -0.0002 -0.9936 0.1132
vn 0.0002 -0.9936 0.1132
vn 0.0166 -0.9933 0.1140
vn 0.0000 -0.9938 0.1108
vn 0.2677 -0.9635 0.0000
vn 0.0128 -0.9920 0.1259
vn -0.0001 -0.9936 0.1132
vn -0.0167 -0.9933 0.1140
vn 0.0000 -0.6074 -0.7944
vn -0.2678 -0.9635 0.0000
vn 0.0002 0.9031 -0.4295
vn -0.0529 0.9004 -0.4319
vn 0.0000 0.9151 -0.4032
vn 0.0000 0.7421 -0.6702
vn -0.0185 0.8152 -0.5789
vn 0.0000 0.7421 -0.6703
vn 0.0185 0.8152 -0.5789
vn -0.0001 0.9031 -0.4295
vn 0.0529 0.9004 -0.4319
vn 0.0000 0.9151 -0.4031
vn -0.0001 1.0000 -0.0009
vn 0.0000 1.0000 -0.0008
vn -0.0000 1.0000 -0.0009
vn 0.0002 1.0000 -0.0009
vn 0.0001 1.0000 -0.0009
vn -0.0002 1.0000 -0.0009
vn -0.0016 1.0000 -0.0012
vn 0.0003 1.0000 -0.0012
vn 0.0012 1.0000 -0.0002
vn 0.0002 1.0000 -0.0002
vn 0.0001 1.0000 0.0000
vn 0.0612 0.9038 -0.4235
vn 0.0622 0.9035 -0.4241
vn -0.0648 0.8943 -0.4427
vn 0.0421 0.8931 -0.4478
vn 0.0404 0.8914 -0.4513
vn -0.0417 0.8917 -0.4507
vn -0.0397 0.8932 -0.4478
vn -0.1221 0.8981 -0.4225
vn -0.1422 0.8834 -0.4465
vn -0.0569 0.9041 -0.4236
vn -0.0564 0.9034 -0.4250
vn 0.1607 0.8806 -0.4458
vn 0.1619 0.8843 -0.4379
vn 0.0360 0.8956 -0.4434
vn 0.0359 0.8956 -0.4434
vn 0.0561 0.7615 -0.6457
vn 0.0972 0.7377 -0.6681
vn -0.0586 0.7409 -0.6690
vn -0.0943 0.7593 -0.6438
vn 0.0687 0.7505 -0.6573
vn 0.0759 0.7605 -0.6448
vn -0.0664 0.7610 -0.6453
vn -0.0772 0.7495 -0.6575
vn -0.1806 0.7394 -0.6486
vn -0.1847 0.7496 -0.6356
vn -0.0860 0.7599 -0.6443
vn 0.2202 0.7352 -0.6410
vn 0.2231 0.7435 -0.6304
vn 0.0523 0.7617 -0.6458
vn 0.0933 0.1147 -0.9890
vn 0.0868 0.1213 -0.9888
vn -0.0932 0.1216 -0.9882
vn -0.0867 0.1147 -0.9896
vn 0.1158 0.1152 -0.9866
vn 0.1155 0.1144 -0.9867
vn -0.1166 0.1144 -0.9866
vn -0.1166 0.1142 -0.9866
vn -0.2778 0.1105 -0.9543
vn -0.2778 0.1106 -0.9542
vn -0.1322 0.1141 -0.9846
vn 0.3257 0.1097 -0.9391
vn 0.3255 0.1090 -0.9392
vn 0.0803 0.1149 -0.9901
vn 0.0804 0.1147 -0.9901
vn 0.0691 -0.6132 -0.7869
vn 0.0742 -0.6222 -0.7793
vn -0.0588 -0.6415 -0.7649
vn -0.0737 -0.6186 -0.7822
vn 0.1111 -0.2899 -0.9506
vn 0.1137 -0.2794 -0.9534
vn -0.1130 -0.2794 -0.9535
vn -0.1164 -0.2962 -0.9480
vn -0.3242 -0.2821 -0.9030
vn -0.2376 -0.5678 -0.7882
vn -0.1059 -0.6112 -0.7844
vn -0.1156 -0.5806 -0.8060
vn 0.3692 -0.2711 -0.8889
vn 0.2644 -0.5981 -0.7565
vn 0.0636 -0.6190 -0.7828
vn 0.0000 -0.9940 0.1098
vn 0.0075 -0.9938 0.1113
vn 0.0000 -0.9936 0.1127
vn 0.0088 -0.9934 0.1144
vn -0.0011 -0.9938 0.1109
vn 0.0021 -0.9940 0.1098
vn -0.0016 -0.9938 0.1109
vn 0.0007 -0.9939 0.1099
vn -0.0089 -0.9939 0.1099
vn -0.0003 -0.9934 0.1144
usemtl None
s off
f 26//1 25//1 27//1
f 27//1 25//1 28//1
f 32//2 29//2 31//2
f 31//3 29//3 30//3
f 17//4 25//4 18//4
f 26//4 18//4 25//4
f 18//5 26//5 19//5
f 27//6 19//6 26//6
f 19//7 27//7 20//7
f 28//8 20//8 27//8
f 20//9 28//9 17//9
f 25//9 17//9 28//9
f 21//10 29//10 24//10
f 32//10 24//10 29//10
f 24//11 32//11 23//11
f 31//11 23//11 32//11
f 23//12 31//12 22//12
f 30//12 22//12 31//12
f 22//13 30//13 21//13
f 29//14 21//14 30//14
f 21//15 17//15 22//15
f 22//16 17//16 18//16
f 23//17 19//17 24//17
f 24//18 19//18 20//18
f 22//19 18//19 23//19
f 23//20 18//20 19//20
f 24//21 20//21 21//21
f 21//22 20//22 17//22
f 10//23 11//23 9//23
f 11//24 12//24 9//24
f 16//25 15//25 13//25
f 15//26 14//26 13//26
f 1//27 2//27 9//27
f 10//27 9//27 2//27
f 2//28 3//28 10//28
f 11//29 10//29 3//29
f 3//30 4//30 11//30
f 12//31 11//31 4//31
f 4//32 1//32 12//32
f 9//32 12//32 1//32
f 5//33 8//33 13//33
f 16//34 13//34 8//34
f 8//35 7//35 16//35
f 15//35 16//35 7//35
f 7//36 6//36 15//36
f 14//36 15//36 6//36
f 6//37 5//37 14//37
f 13//38 14//38 5//38
f 5//39 6//39 1//39
f 6//40 2//40 1//40
f 7//41 8//41 3//41
f 8//42 4//42 3//42
f 6//43 7//43 2//43
f 7//44 3//44 2//44
f 8//45 5//45 4//45
f 5//45 1//45 4//45
f 34//46 33//46 35//46
f 36//46 35//46 33//46
f 37//47 39//47 38//47
f 40//47 38//47 39//47
f 42//46 41//46 43//46
f 44//46 43//46 41//46
f 45//47 47//47 46//47
f 48//47 46//47 47//47
f 33//48 37//48 36//48
f 38//48 36//48 37//48
f 39//49 34//49 40//49
f 35//49 40//49 34//49
f 41//48 45//48 44//48
f 46//48 44//48 45//48
f 47//49 42//49 48//49
f 43//49 48//49 42//49
f 50//50 49//50 51//50
f 52//50 51//50 49//50
f 53//51 55//51 54//51
f 56//51 54//51 55//51
f 58//50 57//50 59//50
f 60//50 59//50 57//50
f 61//51 63//51 62//51
f 64//51 62//51 63//51
f 49//48 53//48 52//48
f 54//48 52//48 53//48
f 55//49 50//49 56//49
f 51//49 56//49 50//49
f 57//48 61//48 60//48
f 62//48 60//48 61//48
f 63//49 58//49 64//49
f 59//49 64//49 58//49
f 220//52 204//52 224//52
f 205//52 224//52 204//52
f 224//53 205//53 226//53
f 205//54 208//54 226//54
f 222//52 227//52 212//52
f 213//52 212//52 227//52
f 213//55 229//55 216//55
f 213//56 227//56 229//56
f 235//57 242//57 233//57
f 235//58 243//58 242//58
f 243//59 244//59 242//59
f 244//60 245//60 242//60
f 246//61 243//61 234//61
f 235//49 234//49 243//49
f 226//62 246//62 234//62
f 226//63 247//63 246//63
f 226//64 208//64 247//64
f 243//65 246//65 244//65
f 247//66 244//66 246//66
f 211//67 245//67 208//67
f 245//68 244//68 208//68
f 244//69 247//69 208//69
f 249//70 248//70 250//70
f 248//71 251//71 250//71
f 248//72 239//72 251//72
f 248//73 241//73 239//73
f 252//74 240//74 248//74
f 241//48 248//48 240//48
f 216//75 252//75 253//75
f 216//76 240//76 252//76
f 216//77 229//77 240//77
f 248//78 249//78 252//78
f 253//78 252//78 249//78
f 216//79 250//79 219//79
f 216//79 253//79 250//79
f 253//79 249//79 250//79
f 207//80 206//80 231//80
f 206//81 225//81 231//81
f 206//82 221//82 225//82
f 230//83 254//83 231//83
f 254//84 207//84 231//84
f 254//85 209//85 207//85
f 237//86 214//86 215//86
f 237//87 228//87 214//87
f 228//88 223//88 214//88
f 217//89 255//89 215//89
f 255//89 236//89 215//89
f 236//90 237//90 215//90
f 256//91 232//91 242//91
f 233//92 242//92 232//92
f 254//93 230//93 256//93
f 232//94 256//94 230//94
f 256//95 242//95 254//95
f 242//96 245//96 254//96
f 245//97 211//97 254//97
f 211//98 210//98 254//98
f 210//95 209//95 254//95
f 257//99 251//99 238//99
f 239//100 238//100 251//100
f 255//101 257//101 236//101
f 238//102 236//102 257//102
f 219//103 250//103 217//103
f 250//104 251//104 217//104
f 251//95 255//95 217//95
f 251//95 257//95 255//95
f 66//105 69//105 65//105
f 70//105 65//105 69//105
f 68//106 71//106 67//106
f 72//106 67//106 71//106
f 74//107 73//107 75//107
f 76//107 75//107 73//107
f 75//108 76//108 77//108
f 78//108 77//108 76//108
f 74//106 75//106 79//106
f 77//106 79//106 75//106
f 77//109 78//109 79//109
f 80//109 79//109 78//109
f 79//110 80//110 74//110
f 73//110 74//110 80//110
f 82//111 81//111 83//111
f 84//111 83//111 81//111
f 86//112 85//112 82//112
f 81//112 82//112 85//112
f 83//113 84//113 87//113
f 88//113 87//113 84//113
f 90//107 89//107 91//107
f 92//107 91//107 89//107
f 91//108 92//108 93//108
f 94//108 93//108 92//108
f 90//106 91//106 95//106
f 93//106 95//106 91//106
f 93//109 94//109 95//109
f 96//109 95//109 94//109
f 95//110 96//110 90//110
f 89//110 90//110 96//110
f 98//111 97//111 99//111
f 100//111 99//111 97//111
f 102//112 101//112 98//112
f 97//112 98//112 101//112
f 99//114 100//114 103//114
f 104//114 103//114 100//114
f 106//107 105//107 107//107
f 108//107 107//107 105//107
f 110//110 109//110 106//110
f 105//110 106//110 109//110
f 111//106 110//106 107//106
f 106//106 107//106 110//106
f 111//109 112//109 110//109
f 109//109 110//109 112//109
f 107//108 108//108 111//108
f 112//108 111//108 108//108
f 114//111 113//111 115//111
f 116//111 115//111 113//111
f 115//113 116//113 117//113
f 118//113 117//113 116//113
f 120//115 119//115 114//115
f 113//115 114//115 119//115
f 66//46 65//46 67//46
f 68//46 67//46 65//46
f 70//47 69//47 71//47
f 72//47 71//47 69//47
f 78//47 84//47 80//47
f 81//47 80//47 84//47
f 94//47 100//47 96//47
f 97//47 96//47 100//47
f 112//47 116//47 109//47
f 113//47 109//47 116//47
f 80//49 81//49 73//49
f 85//49 73//49 81//49
f 108//48 118//48 112//48
f 116//48 112//48 118//48
f 186//47 185//47 187//47
f 184//47 187//47 185//47
f 191//47 190//47 189//47
f 188//47 189//47 190//47
f 195//116 194//116 192//116
f 193//116 192//116 194//116
f 194//117 186//117 193//117
f 187//117 193//117 186//117
f 198//116 196//116 199//116
f 197//116 199//116 196//116
f 199//117 197//117 191//117
f 190//117 191//117 197//117
f 200//118 184//118 201//118
f 185//118 201//118 184//118
f 203//118 202//118 188//118
f 189//118 188//118 202//118
f 209//119 205//119 204//119
f 209//119 210//119 205//119
f 210//120 208//120 205//120
f 206//121 207//121 201//121
f 207//122 209//122 201//122
f 209//123 204//123 201//123
f 204//124 200//124 201//124
f 210//125 211//125 208//125
f 212//119 213//119 217//119
f 213//119 218//119 217//119
f 213//126 216//126 218//126
f 202//122 215//122 214//122
f 202//127 217//127 215//127
f 202//128 212//128 217//128
f 202//124 203//124 212//124
f 218//129 219//129 217//129
f 219//130 218//130 216//130
f 220//49 192//49 204//49
f 192//49 193//49 204//49
f 193//49 200//49 204//49
f 187//49 200//49 193//49
f 187//49 184//49 200//49
f 206//48 195//48 221//48
f 206//48 194//48 195//48
f 206//48 201//48 194//48
f 194//48 201//48 186//48
f 201//48 185//48 186//48
f 212//48 196//48 222//48
f 212//48 197//48 196//48
f 212//48 203//48 197//48
f 197//48 203//48 190//48
f 203//48 188//48 190//48
f 223//49 198//49 214//49
f 198//49 199//49 214//49
f 199//49 202//49 214//49
f 191//49 202//49 199//49
f 191//49 189//49 202//49
f 195//131 225//131 221//131
f 195//132 220//132 225//132
f 195//133 192//133 220//133
f 220//134 224//134 225//134
f 224//135 226//135 225//135
f 228//136 227//136 222//136
f 228//137 229//137 227//137
f 223//138 228//138 198//138
f 228//139 222//139 198//139
f 222//140 196//140 198//140
f 225//141 230//141 231//141
f 225//141 232//141 230//141
f 225//142 233//142 232//142
f 225//143 226//143 233//143
f 226//143 234//143 233//143
f 234//144 235//144 233//144
f 237//145 236//145 228//145
f 236//145 238//145 228//145
f 238//142 239//142 228//142
f 239//143 229//143 228//143
f 239//143 240//143 229//143
f 239//146 241//146 240//146
f 121//47 136//47 122//47
f 123//47 122//47 136//47
f 125//47 124//47 126//47
f 127//47 126//47 124//47
f 129//147 128//147 130//147
f 138//47 130//47 128//47
f 130//47 138//47 131//47
f 132//47 131//47 138//47
f 132//47 139//47 131//47
f 133//47 131//47 139//47
f 122//47 133//47 121//47
f 139//47 121//47 133//47
f 128//148 129//148 134//148
f 135//149 134//149 129//149
f 135//150 127//150 134//150
f 124//151 134//151 127//151
f 141//152 137//152 121//152
f 136//153 121//153 137//153
f 143//154 142//154 125//154
f 124//154 125//154 142//154
f 145//155 138//155 146//155
f 128//156 146//156 138//156
f 148//157 132//157 145//157
f 138//158 145//158 132//158
f 140//159 139//159 148//159
f 132//160 148//160 139//160
f 121//161 139//161 141//161
f 140//162 141//162 139//162
f 146//163 128//163 149//163
f 134//164 149//164 128//164
f 134//165 124//165 149//165
f 142//166 149//166 124//166
f 151//167 150//167 141//167
f 137//168 141//168 150//168
f 144//169 154//169 143//169
f 142//170 143//170 154//170
f 146//171 147//171 145//171
f 156//172 145//172 147//172
f 145//173 156//173 148//173
f 159//174 148//174 156//174
f 159//175 161//175 148//175
f 140//176 148//176 161//176
f 141//177 140//177 151//177
f 161//177 151//177 140//177
f 147//178 146//178 163//178
f 149//179 163//179 146//179
f 149//180 142//180 163//180
f 154//180 163//180 142//180
f 153//181 152//181 151//181
f 150//182 151//182 152//182
f 166//183 155//183 144//183
f 154//184 144//184 155//184
f 147//185 157//185 156//185
f 158//186 156//186 157//186
f 156//187 158//187 159//187
f 160//188 159//188 158//188
f 160//189 162//189 159//189
f 161//190 159//190 162//190
f 151//191 161//191 153//191
f 162//191 153//191 161//191
f 157//192 147//192 164//192
f 163//193 164//193 147//193
f 163//194 154//194 164//194
f 155//195 164//195 154//195
f 165//196 172//196 153//196
f 152//197 153//197 172//197
f 168//198 167//198 166//198
f 155//199 166//199 167//199
f 157//200 169//200 158//200
f 177//201 158//201 169//201
f 158//202 177//202 160//202
f 170//203 160//203 177//203
f 170//204 171//204 160//204
f 162//205 160//205 171//205
f 153//206 162//206 165//206
f 171//207 165//207 162//207
f 169//208 157//208 183//208
f 164//209 183//209 157//209
f 164//210 155//210 183//210
f 167//210 183//210 155//210
f 174//211 173//211 165//211
f 172//212 165//212 173//212
f 176//213 175//213 168//213
f 167//214 168//214 175//214
f 169//215 178//215 177//215
f 179//216 177//216 178//216
f 177//211 179//211 170//211
f 180//211 170//211 179//211
f 180//211 181//211 170//211
f 171//211 170//211 181//211
f 165//211 171//211 174//211
f 181//211 174//211 171//211
f 178//217 169//217 182//217
f 183//218 182//218 169//218
f 183//219 167//219 182//219
f 175//220 182//220 167//220
