# Blender v2.79 (sub 0) OBJ File: ''
# www.blender.org
mtllib m836.mtl
o m836
v 0.475000 0.284781 0.236751
v -0.475000 0.284781 0.236751
v -0.406600 0.284781 0.094251
v 0.406600 0.284781 0.094251
v 0.406600 0.284781 -0.071999
v 0.475000 0.284781 -0.071999
v -0.406600 0.284781 -0.071999
v -0.475000 0.284781 -0.071999
v 0.475000 -0.190219 0.236751
v 0.475000 -0.092316 -0.071999
v 0.475000 -0.132638 -0.238249
v 0.475000 -0.190219 -0.238249
v -0.475000 -0.190219 0.236751
v -0.475000 -0.092316 -0.071999
v -0.475000 -0.132638 -0.238249
v -0.475000 -0.190219 -0.238249
v -0.161500 0.284781 0.094251
v -0.161500 0.284781 -0.000749
v -0.406600 0.284781 -0.000749
v -0.406600 -0.075058 -0.000749
v -0.161500 -0.075058 -0.000749
v 0.406600 -0.092316 -0.071999
v -0.406600 -0.092316 -0.071999
v 0.406600 -0.075058 -0.000749
v 0.161500 0.284781 0.094251
v 0.161500 0.284781 -0.000749
v 0.161500 -0.075058 -0.000749
v 0.406600 0.284781 -0.000749
vn 0.0000 1.0000 -0.0000
vn 1.0000 0.0000 0.0000
vn -1.0000 0.0000 0.0000
vn 0.0000 0.0000 -1.0000
vn 0.0000 0.9718 -0.2357
vn 0.0000 0.9719 -0.2354
vn 0.0000 -1.0000 0.0000
usemtl None
s off
f 3//1 2//1 1//1
f 4//1 3//1 1//1
f 1//1 6//1 5//1
f 4//1 1//1 5//1
f 2//1 3//1 7//1
f 2//1 7//1 8//1
f 6//2 1//2 9//2
f 6//2 9//2 10//2
f 11//2 10//2 9//2
f 12//2 11//2 9//2
f 13//3 14//3 15//3
f 13//3 15//3 16//3
f 13//3 2//3 8//3
f 14//3 13//3 8//3
f 3//1 17//1 18//1
f 3//1 18//1 19//1
f 20//4 19//4 18//4
f 21//4 20//4 18//4
f 15//4 11//4 12//4
f 15//4 12//4 16//4
f 22//5 11//5 15//5
f 23//5 22//5 15//5
f 22//6 23//6 20//6
f 22//6 20//6 24//6
f 22//5 10//5 11//5
f 14//5 23//5 15//5
f 17//1 25//1 26//1
f 17//1 26//1 18//1
f 21//4 18//4 26//4
f 27//4 21//4 26//4
f 25//1 4//1 28//1
f 25//1 28//1 26//1
f 27//4 26//4 28//4
f 24//4 27//4 28//4
f 19//2 20//2 23//2
f 19//2 23//2 7//2
f 8//4 7//4 23//4
f 14//4 8//4 23//4
f 22//3 24//3 28//3
f 5//3 22//3 28//3
f 22//4 5//4 6//4
f 22//4 6//4 10//4
f 12//7 9//7 13//7
f 16//7 12//7 13//7
