# Blender v2.79 (sub 0) OBJ File: ''
# www.blender.org
mtllib m841.mtl
o m841
v -0.432777 -0.112593 0.475000
v -0.432777 -0.112593 -0.475000
v -0.432777 -0.144259 -0.475000
v -0.432777 -0.144259 0.475000
v -0.116111 -0.112593 0.475000
v -0.116111 -0.112593 -0.475000
v -0.116111 0.172408 -0.475000
v 0.200556 0.172408 -0.475000
v 0.200556 0.140741 -0.475000
v -0.084444 0.140741 -0.475000
v -0.084444 -0.112593 -0.475000
v 0.200556 -0.112593 -0.475000
v 0.200556 -0.144259 -0.475000
v -0.116111 0.172408 0.475000
v 0.200556 0.172408 0.475000
v 0.200556 0.172408 0.443333
v -0.084444 0.172408 0.443333
v -0.084444 0.172408 -0.443333
v 0.200556 0.172408 -0.443333
v 0.200556 -0.144259 0.475000
v 0.200556 -0.112593 0.475000
v -0.084444 -0.112593 0.475000
v -0.084444 0.140741 0.475000
v 0.200556 0.140741 0.475000
v 0.200556 -0.144259 -0.443333
v -0.084444 -0.144259 -0.443333
v -0.084444 -0.144259 0.443333
v 0.200556 -0.144259 0.443333
v 0.200556 0.140741 -0.443333
v -0.084444 0.140741 -0.443333
v 0.200556 0.140741 0.443333
v -0.084444 0.140741 0.443333
v 0.200556 -0.112593 -0.443333
v -0.084444 -0.112593 -0.443333
v 0.200556 -0.112593 0.443333
v -0.084444 -0.112593 0.443333
vn -1.0000 0.0000 0.0000
vn 0.0000 1.0000 0.0000
vn 0.0000 0.0000 -1.0000
vn 0.0000 0.0000 1.0000
vn 0.0000 -1.0000 0.0000
vn 1.0000 0.0000 0.0000
usemtl None
s off
f 1//1 2//1 3//1
f 5//2 6//2 2//2
f 8//3 9//3 10//3
f 14//2 15//2 16//2
f 20//4 21//4 22//4
f 25//2 26//2 27//2
f 9//5 29//5 30//5
f 29//4 19//4 18//4
f 16//3 31//3 32//3
f 31//5 24//5 23//5
f 25//4 33//4 34//4
f 33//2 12//2 11//2
f 21//2 35//2 36//2
f 35//3 28//3 27//3
f 24//6 31//6 16//6
f 20//6 28//6 35//6
f 25//6 13//6 12//6
f 29//6 9//6 8//6
f 14//1 7//1 6//1
f 22//1 36//1 27//1
f 1//1 3//1 4//1
f 5//2 2//2 1//2
f 8//4 10//4 11//4
f 8//4 11//4 12//4
f 8//6 12//6 13//6
f 8//3 13//3 3//3
f 8//3 3//3 2//3
f 8//4 2//4 6//4
f 8//3 6//3 7//3
f 14//2 16//2 17//2
f 14//2 17//2 18//2
f 14//5 18//5 19//5
f 14//2 19//2 8//2
f 14//2 8//2 7//2
f 20//3 22//3 23//3
f 20//3 23//3 24//3
f 20//1 24//1 15//1
f 20//4 15//4 14//4
f 20//4 14//4 5//4
f 20//4 5//4 1//4
f 20//4 1//4 4//4
f 25//2 27//2 28//2
f 25//2 28//2 20//2
f 25//5 20//5 4//5
f 25//5 4//5 3//5
f 25//5 3//5 13//5
f 9//5 30//5 10//5
f 29//4 18//4 30//4
f 16//3 32//3 17//3
f 31//5 23//5 32//5
f 25//4 34//4 26//4
f 33//2 11//2 34//2
f 21//2 36//2 22//2
f 35//3 27//3 36//3
f 24//6 16//6 15//6
f 20//6 35//6 21//6
f 25//6 12//6 33//6
f 29//6 8//6 19//6
f 14//1 6//1 5//1
f 22//6 27//6 26//6
f 22//6 26//6 34//6
f 22//5 34//5 11//5
f 22//6 11//6 10//6
f 22//6 10//6 30//6
f 22//6 30//6 18//6
f 22//6 18//6 17//6
f 22//1 17//1 32//1
f 22//6 32//6 23//6
