# Blender v2.79 (sub 0) OBJ File: ''
# www.blender.org
mtllib m86.mtl
o m86
v 0.060078 0.263326 -0.223181
v 0.043186 0.262743 -0.186485
v -0.047678 0.263909 -0.246479
v 0.060078 0.171296 -0.091544
v -0.039523 0.262743 -0.186485
v 0.001831 0.194595 -0.021648
v 0.060078 0.014031 -0.079894
v 0.036779 -0.230604 -0.079894
v 0.036779 -0.230604 0.024949
v 0.036779 -0.044216 0.013300
v 0.060078 -0.067514 0.036599
v 0.060078 -0.195656 0.094845
v 0.060078 -0.218955 0.153091
v 0.060078 -0.125761 0.269584
v 0.051341 0.096741 0.039511
v 0.083376 0.153823 0.292883
v 0.060078 0.130524 0.083196
v 0.060078 0.099653 0.042423
v 0.026877 0.159647 -0.011164
v 0.036779 0.130524 0.083196
v 0.025130 0.153823 0.292883
v 0.042604 0.107225 0.292883
v 0.001831 -0.218955 -0.009999
v 0.036779 -0.195656 0.094845
v 0.042604 -0.172358 0.292883
v 0.042604 -0.114111 0.112319
v 0.036779 -0.125761 0.269584
v -0.038941 -0.230604 0.024949
v -0.038941 -0.172358 0.292883
v -0.033116 -0.125761 0.269584
v -0.038941 -0.149059 0.281233
v -0.038941 -0.172358 0.164741
v -0.033116 -0.044216 0.013300
v -0.079714 -0.114111 0.292883
v -0.056415 -0.125761 0.269584
v -0.056415 -0.149059 0.281233
v -0.056415 -0.172358 0.164741
v -0.056415 -0.114111 0.106494
v -0.056415 -0.067514 0.036599
v -0.056415 -0.172358 0.292883
v -0.033116 -0.230604 -0.079894
v -0.033116 0.130524 0.083196
v -0.021467 0.153823 0.292883
v -0.056415 0.171296 -0.091544
v -0.056415 0.142173 0.269584
v -0.056415 -0.149059 -0.044947
v 0.001831 0.014031 -0.114842
v 0.013480 -0.201481 -0.085719
v -0.009818 -0.201481 -0.085719
v -0.009818 -0.329623 -0.079894
v 0.013480 -0.422818 -0.103193
v 0.001831 -0.498538 -0.155615
v -0.056415 0.263326 -0.223181
v 0.001831 0.258666 -0.275020
v 0.043186 0.263909 -0.259876
v 0.001831 0.262161 -0.170759
v 0.001831 0.451463 -0.158527
v 0.021052 0.267986 -0.268031
v 0.051341 0.263909 -0.246479
v 0.060078 0.296526 -0.275020
v 0.067650 0.282547 -0.301231
v 0.042604 0.286043 -0.308803
v -0.056415 0.296526 -0.275020
v -0.038941 0.286043 -0.309386
v -0.063987 0.282547 -0.301231
v -0.017390 0.267986 -0.268031
v 0.035032 0.153241 -0.129986
v -0.031369 0.153241 -0.129986
v 0.001831 0.141008 -0.153285
v -0.039523 0.263909 -0.259876
v 0.060078 -0.149059 -0.044947
v 0.001831 -0.172358 -0.114842
v 0.060078 -0.114111 0.106494
v 0.060078 -0.172358 0.292883
v 0.083376 -0.114111 0.292883
v 0.060078 -0.149059 0.281233
v 0.060078 -0.172358 0.164741
v 0.001831 0.107225 0.071546
v 0.060078 0.083928 0.071546
v 0.060078 0.107225 0.292883
v 0.060078 0.142173 0.269584
v 0.060078 0.118876 0.281233
v 0.060078 0.067618 -0.017571
v 0.036779 0.118876 0.281233
v 0.036779 0.142173 0.269584
v 0.048428 0.083928 0.071546
v 0.036779 -0.218955 0.153091
v 0.042604 -0.172358 0.164741
v 0.042604 -0.149059 0.281233
v 0.025130 -0.114111 0.292883
v -0.021467 -0.195656 0.094845
v -0.033116 -0.218955 0.153091
v -0.021467 -0.114111 0.292883
v -0.038941 -0.114111 0.112319
v -0.056415 -0.218955 0.153091
v -0.056415 -0.195656 0.094845
v 0.001831 -0.230604 -0.091544
v 0.001831 -0.044216 0.036599
v -0.023214 0.159647 -0.011164
v -0.047678 0.096741 0.039511
v -0.044766 0.083928 0.071546
v -0.033116 0.142173 0.269584
v -0.033116 0.118876 0.281233
v -0.038941 0.107225 0.292883
v -0.056415 0.083928 0.071546
v -0.056415 0.107225 0.292883
v -0.056415 0.099653 0.042423
v -0.056415 0.067618 -0.017571
v -0.056415 0.118876 0.281233
v -0.079714 0.153823 0.292883
v -0.056415 0.130524 0.083196
v -0.056415 0.014031 -0.079894
v 0.013480 -0.329623 -0.079894
v -0.009818 -0.422818 -0.103193
v 0.001831 -0.300499 -0.033297
v 0.042604 0.286624 -0.309386
v 0.067650 0.283130 -0.301813
v 0.060078 0.297109 -0.275020
v -0.063987 0.283130 -0.301231
v -0.038941 0.286624 -0.309386
v -0.056415 0.297109 -0.275020
v 0.067650 0.281965 -0.301231
v 0.042604 0.285460 -0.309386
v 0.021052 0.267403 -0.268031
v 0.051341 0.263326 -0.246479
v -0.017390 0.267403 -0.268031
v -0.038941 0.285460 -0.309386
v -0.063987 0.281965 -0.301231
v -0.047678 0.263326 -0.246479
v -0.027874 0.334387 -0.235413
v -0.029622 0.340212 -0.228423
v -0.031369 0.335552 -0.231918
v -0.025544 0.341959 -0.230753
v -0.024962 0.338464 -0.234830
v 0.031537 0.334387 -0.235413
v 0.035032 0.335552 -0.231918
v 0.033284 0.340795 -0.228423
v 0.029207 0.341959 -0.230753
v 0.028624 0.338464 -0.234830
v 0.019887 0.328562 -0.250557
v 0.023965 0.316913 -0.255216
v 0.031537 0.310506 -0.250557
v 0.037944 0.314000 -0.238907
v 0.040274 0.325067 -0.227840
v 0.036196 0.337299 -0.223181
v 0.028042 0.344288 -0.227840
v 0.028624 0.343706 -0.227840
v 0.021635 0.340212 -0.238907
v -0.016225 0.328562 -0.250557
v -0.020302 0.316913 -0.255216
v -0.027874 0.310506 -0.250557
v -0.034281 0.314000 -0.238907
v -0.036611 0.325067 -0.227840
v -0.032534 0.337299 -0.223181
v -0.024379 0.344288 -0.227840
v -0.024962 0.343706 -0.227840
v -0.017972 0.340212 -0.238907
v -0.024962 0.344288 -0.227840
v -0.024962 0.344871 -0.227840
v -0.032534 0.337882 -0.223181
v -0.036611 0.325651 -0.227840
v -0.034281 0.314583 -0.238907
v -0.027874 0.311089 -0.250557
v -0.020302 0.317495 -0.255216
v -0.016225 0.329144 -0.250557
v -0.017972 0.340795 -0.238907
v 0.031537 0.311089 -0.250557
v 0.037944 0.314583 -0.238907
v 0.040274 0.325651 -0.227840
v 0.036196 0.337882 -0.223181
v 0.028624 0.344871 -0.227840
v 0.028624 0.344288 -0.227840
v 0.021635 0.340795 -0.238907
v 0.019887 0.329144 -0.250557
v 0.023965 0.317495 -0.255216
v 0.001831 -0.481064 -0.056596
vn 0.2428 0.8865 -0.3939
vn -0.0247 0.9441 0.3288
vn -0.1196 0.9312 0.3443
vn 0.2525 -0.8822 0.3975
vn -0.0317 -0.9433 -0.3305
vn 0.9988 -0.0288 0.0384
vn 0.9992 0.0178 0.0357
vn 0.9082 -0.2724 -0.3178
vn 0.0000 0.8944 -0.4472
vn 0.0000 -0.4472 -0.8944
vn 0.0000 0.9806 -0.1961
vn -0.2294 0.6882 0.6882
vn -0.2672 0.8018 0.5345
vn 0.0000 -0.9487 0.3162
vn 0.0000 -0.9285 -0.3714
vn 0.0000 -0.8944 0.4472
vn 0.2873 -0.9577 0.0160
vn 0.6460 0.0275 0.7628
vn -1.0000 0.0000 0.0000
vn -0.7454 -0.2981 -0.5963
vn -0.5415 -0.2166 0.8123
vn -0.5448 -0.1886 0.8171
vn 0.9655 -0.1995 -0.1676
vn 0.9363 -0.3511 0.0123
vn -0.6960 0.6116 0.3761
vn 0.0000 -0.9945 0.1047
vn -0.9396 0.3411 -0.0302
vn 0.0000 0.9983 0.0587
vn 0.0000 0.9555 0.2949
vn -0.2040 0.9534 0.2224
vn -0.8934 -0.4467 0.0470
vn -0.9654 -0.1405 0.2195
vn -0.4999 -0.2080 0.8407
vn -0.8865 -0.0580 0.4590
vn -0.5905 0.5888 0.5520
vn -0.8165 0.4083 -0.4082
vn -0.2957 -0.3548 -0.8870
vn -0.9660 -0.2530 -0.0537
vn -0.7563 0.0630 -0.6512
vn -0.8606 -0.2533 -0.4417
vn -0.5060 -0.1807 -0.8434
vn -0.7682 0.0000 -0.6402
vn 1.0000 0.0000 0.0000
vn -0.9992 0.0178 0.0357
vn -0.8944 -0.3578 -0.2683
vn 0.0000 0.6690 0.7433
vn 0.1864 0.8078 0.5592
vn 0.5976 0.7171 -0.3586
vn -0.0471 -0.9889 0.1413
vn 0.7454 -0.2981 -0.5963
vn -0.6989 0.0446 0.7138
vn 0.5415 -0.2166 0.8123
vn 0.5448 -0.1886 0.8171
vn -0.9267 -0.3754 -0.0186
vn -0.9129 -0.1826 -0.3651
vn -0.9709 -0.2392 -0.0141
vn 0.6960 0.6116 0.3761
vn 0.4116 -0.8019 -0.4330
vn 0.8703 0.2861 0.4009
vn 0.2040 0.9534 0.2224
vn 0.9654 -0.1406 0.2195
vn 0.4999 -0.2080 0.8407
vn 0.5043 0.6521 0.5660
vn 0.8165 0.4083 -0.4083
vn 0.2957 -0.3548 -0.8870
vn 0.9615 -0.2747 0.0000
vn 0.7563 0.0630 -0.6512
vn 0.5135 -0.0634 -0.8558
vn 0.5060 -0.1807 -0.8434
vn 0.7682 0.0000 -0.6402
vn 0.6142 -0.2287 -0.7553
vn -0.6143 -0.2287 -0.7553
vn 0.7185 0.5604 0.4119
vn -0.8992 0.1354 0.4161
vn -0.3555 -0.0603 0.9327
vn 0.3555 -0.0603 0.9327
vn 0.8992 0.1354 0.4161
vn 0.8387 0.3902 -0.3799
vn 0.2406 0.5020 -0.8308
vn -0.2406 0.5020 -0.8308
vn -0.8387 0.3902 -0.3799
vn 0.7496 -0.5592 -0.3540
vn 0.3267 -0.6796 -0.6568
vn -0.3267 -0.6796 -0.6568
vn 0.2443 0.8832 -0.4004
vn -0.1196 -0.9312 -0.3443
vn -0.2525 0.8822 -0.3975
vn 0.8589 -0.2839 -0.4263
vn 0.8975 0.1475 0.4155
vn -0.5974 -0.5930 -0.5399
vn -0.8589 -0.2839 -0.4263
vn -0.8976 0.1475 0.4155
vn -0.1427 0.9015 0.4085
vn 0.6398 0.5359 -0.5509
vn -0.4265 0.6396 -0.6395
vn -0.6802 0.4648 -0.5668
vn 0.6801 0.4648 -0.5669
vn 0.7137 0.4581 -0.5299
vn 0.5873 -0.5877 0.5565
vn 0.0000 -0.0454 -0.9990
vn 0.0000 0.2425 -0.9701
vn 0.0000 0.5692 -0.8222
vn 0.9845 -0.1725 0.0304
vn -0.9845 -0.1725 0.0304
vn 0.9772 -0.0271 0.2104
vn -0.9564 -0.0708 0.2834
vn 0.9716 0.0107 0.2362
vn -0.9716 0.0107 0.2362
vn 0.1196 0.9312 0.3443
vn 0.0247 0.9441 0.3288
vn 0.1219 -0.9298 -0.3473
vn 0.9888 0.1380 -0.0575
vn -0.8944 0.4472 0.0000
vn 0.9911 0.1304 -0.0261
vn -0.0001 -0.4472 -0.8944
vn -0.1864 0.8078 0.5592
vn 0.4851 -0.8246 0.2910
vn 0.0471 -0.9889 0.1413
vn -0.9728 -0.2304 -0.0256
vn 0.5345 0.8018 -0.2672
vn 0.9267 -0.3754 -0.0186
vn 0.9714 -0.2359 -0.0278
vn -0.9503 0.3107 0.0183
vn 0.9129 -0.1826 -0.3651
vn -0.4116 -0.8019 -0.4330
vn -0.8703 0.2861 0.4009
vn 0.1938 0.9412 -0.2768
vn -0.5043 0.6521 0.5660
vn -0.5135 -0.0634 -0.8558
vn -0.9919 0.1269 -0.0115
vn -0.9992 0.0273 0.0303
vn -0.9981 0.0038 0.0614
vn -0.9911 0.1304 -0.0261
vn -0.8305 -0.2491 -0.4983
vn 0.2294 0.6882 0.6882
vn 0.2672 0.8018 0.5345
vn -0.3162 -0.9487 0.0000
vn 0.9401 0.0482 -0.3375
vn 0.9713 -0.2317 0.0535
vn -0.9655 -0.1995 -0.1676
vn -0.9300 -0.3487 0.1163
vn -0.9027 -0.4298 0.0215
vn 0.9396 0.3411 -0.0302
vn 0.8165 -0.4082 -0.4083
vn 0.8865 -0.0580 0.4590
vn 0.5905 0.5888 0.5520
vn 0.8606 -0.2533 -0.4417
vn 0.1427 0.9015 0.4085
vn 0.5974 -0.5930 -0.5399
vn 0.0247 -0.9441 -0.3288
vn -0.7497 -0.5592 -0.3540
vn -0.7185 0.5604 0.4119
vn 0.5263 0.5572 -0.6423
vn 0.4617 0.5934 -0.6593
vn -0.5795 0.5490 -0.6023
vn -0.6399 0.5359 -0.5508
vn -0.7121 0.4490 -0.5398
vn -0.7199 0.4479 -0.5303
vn -0.6933 0.4314 -0.5773
vn -0.6963 0.4462 -0.5621
vn -0.7129 0.3791 -0.5899
vn 0.8455 0.0000 0.5340
vn 0.6729 0.4682 -0.5727
vn -0.9858 0.0000 0.1678
vn 0.7246 0.4217 -0.5450
vn 0.7046 0.4454 -0.5524
vn 0.7298 0.4004 -0.5541
vn 0.7299 0.4004 -0.5541
vn 0.7046 0.4453 -0.5524
vn 0.7013 0.4492 -0.5536
vn -0.5488 -0.5488 0.6305
vn 0.6728 0.4682 -0.5728
vn 0.6802 0.4648 -0.5668
vn -0.6986 0.4379 -0.5658
vn -0.6963 0.4462 -0.5622
vn -0.7199 0.4479 -0.5302
vn -0.7121 0.4490 -0.5397
vn -0.6803 0.4648 -0.5668
vn 0.9564 -0.0708 0.2834
vn -0.9772 -0.0271 0.2104
usemtl None
s off
f 118//1 117//1 116//1
f 129//2 127//2 128//2
f 125//3 123//3 124//3
f 121//4 119//4 120//4
f 59//5 62//5 61//5
f 28//6 33//6 94//6
f 31//7 29//7 92//7
f 30//8 93//8 29//8
f 30//9 35//9 34//9
f 31//10 36//10 35//10
f 32//11 37//11 36//11
f 94//12 38//12 37//12
f 33//13 39//13 38//13
f 40//14 95//14 92//14
f 91//15 92//15 95//15
f 91//16 96//16 28//16
f 23//17 28//17 41//17
f 23//18 33//18 28//18
f 37//19 38//19 39//19
f 95//19 40//19 36//19
f 40//20 34//20 35//20
f 98//21 33//21 23//21
f 78//22 33//22 98//22
f 42//23 101//23 100//23
f 43//24 104//24 101//24
f 44//25 99//25 6//25
f 101//26 104//26 106//26
f 100//15 101//15 105//15
f 108//27 100//27 99//27
f 102//10 103//10 109//10
f 43//9 102//9 45//9
f 103//28 42//28 111//28
f 99//29 111//29 42//29
f 99//30 44//30 111//30
f 105//31 106//31 110//31
f 105//19 111//19 44//19
f 33//32 100//32 108//32
f 78//33 100//33 33//33
f 46//34 33//34 108//34
f 78//35 6//35 99//35
f 39//36 33//36 46//36
f 97//37 41//37 72//37
f 28//38 46//38 41//38
f 41//39 46//39 72//39
f 44//40 68//40 47//40
f 46//41 112//41 47//41
f 72//42 46//42 47//42
f 9//43 24//43 87//43
f 87//44 25//44 89//44
f 90//45 27//45 89//45
f 27//9 90//9 75//9
f 89//10 27//10 14//10
f 88//11 89//11 76//11
f 26//46 88//46 77//46
f 10//47 26//47 73//47
f 74//14 25//14 87//14
f 24//15 12//15 13//15
f 24//48 9//48 23//48
f 23//49 97//49 8//49
f 73//43 77//43 13//43
f 77//43 76//43 74//43
f 76//50 14//50 75//50
f 23//51 9//51 10//51
f 98//52 23//52 10//52
f 78//53 98//53 10//53
f 20//54 19//54 15//54
f 21//55 85//55 84//55
f 84//56 20//56 86//56
f 4//57 6//57 19//57
f 86//26 79//26 80//26
f 15//58 18//58 79//58
f 83//59 4//59 19//59
f 85//10 81//10 82//10
f 21//9 16//9 81//9
f 84//28 82//28 17//28
f 19//29 20//29 17//29
f 19//60 17//60 4//60
f 79//43 17//43 82//43
f 82//50 81//50 16//50
f 79//19 18//19 83//19
f 10//61 83//61 15//61
f 78//62 10//62 15//62
f 71//43 7//43 4//43
f 78//63 15//63 19//63
f 11//64 71//64 10//64
f 97//65 72//65 8//65
f 9//66 8//66 71//66
f 8//67 72//67 71//67
f 4//68 7//68 47//68
f 71//69 47//69 7//69
f 72//70 47//70 71//70
f 47//71 69//71 67//71
f 47//72 68//72 69//72
f 6//73 4//73 2//73
f 57//74 53//74 5//74
f 57//75 5//75 56//75
f 57//76 56//76 2//76
f 57//77 2//77 1//77
f 57//78 1//78 55//78
f 57//79 55//79 54//79
f 57//80 54//80 70//80
f 57//81 70//81 53//81
f 69//82 55//82 1//82
f 69//83 54//83 55//83
f 69//84 70//84 54//84
f 60//85 61//85 62//85
f 3//86 64//86 66//86
f 63//87 64//87 65//87
f 67//88 2//88 4//88
f 67//89 1//89 2//89
f 69//90 68//90 53//90
f 68//91 44//91 5//91
f 68//92 5//92 53//92
f 6//93 56//93 5//93
f 135//94 139//94 138//94
f 130//95 132//95 131//95
f 166//96 165//96 164//96
f 175//97 174//97 173//97
f 141//98 143//98 142//98
f 157//99 155//99 156//99
f 48//100 113//100 50//100
f 113//101 51//101 114//101
f 51//102 52//102 114//102
f 52//103 51//103 176//103
f 114//104 52//104 176//104
f 115//105 176//105 51//105
f 115//106 50//106 114//106
f 115//107 113//107 48//107
f 49//108 50//108 115//108
f 129//109 126//109 127//109
f 125//110 122//110 123//110
f 59//111 58//111 62//111
f 28//43 94//43 32//43
f 28//112 32//112 92//112
f 28//113 92//113 91//113
f 31//114 92//114 32//114
f 30//115 29//115 31//115
f 30//9 34//9 93//9
f 31//10 35//10 30//10
f 32//11 36//11 31//11
f 94//46 37//46 32//46
f 33//116 38//116 94//116
f 40//14 92//14 29//14
f 91//15 95//15 96//15
f 91//117 28//117 23//117
f 23//118 41//118 97//118
f 37//19 39//19 46//19
f 37//119 46//119 28//119
f 37//120 28//120 96//120
f 37//19 96//19 95//19
f 95//19 36//19 37//19
f 40//43 35//43 36//43
f 42//121 100//121 99//121
f 43//122 101//122 42//122
f 43//123 42//123 103//123
f 43//124 103//124 102//124
f 101//26 106//26 105//26
f 100//125 105//125 107//125
f 108//126 99//126 44//126
f 102//10 109//10 45//10
f 43//9 45//9 110//9
f 103//28 111//28 109//28
f 105//127 110//127 45//127
f 105//43 45//43 109//43
f 105//19 109//19 111//19
f 105//19 44//19 108//19
f 105//43 108//43 107//43
f 46//19 108//19 44//19
f 46//19 44//19 112//19
f 78//128 99//128 100//128
f 44//129 47//129 112//129
f 9//130 87//130 88//130
f 9//131 88//131 26//131
f 9//132 26//132 10//132
f 87//133 89//133 88//133
f 90//134 89//134 25//134
f 27//9 75//9 14//9
f 89//10 14//10 76//10
f 88//11 76//11 77//11
f 26//135 77//135 73//135
f 10//136 73//136 11//136
f 74//14 87//14 13//14
f 24//15 13//15 87//15
f 24//16 9//16 12//16
f 23//137 8//137 9//137
f 73//43 13//43 12//43
f 73//138 12//138 9//138
f 73//139 9//139 71//139
f 73//43 71//43 11//43
f 77//43 74//43 13//43
f 76//50 75//50 74//50
f 20//140 15//140 86//140
f 21//141 84//141 22//141
f 84//142 86//142 22//142
f 86//26 80//26 22//26
f 15//15 79//15 86//15
f 83//143 19//143 15//143
f 85//10 82//10 84//10
f 21//9 81//9 85//9
f 84//28 17//28 20//28
f 79//43 82//43 80//43
f 82//144 16//144 80//144
f 79//43 83//43 4//43
f 79//43 4//43 17//43
f 71//43 4//43 83//43
f 71//145 83//145 10//145
f 78//146 19//146 6//146
f 4//147 47//147 67//147
f 6//148 2//148 56//148
f 69//149 1//149 67//149
f 3//150 65//150 64//150
f 69//151 53//151 70//151
f 6//152 5//152 44//152
f 135//153 138//153 137//153
f 135//154 137//154 136//154
f 130//155 131//155 133//155
f 130//156 133//156 134//156
f 166//157 164//157 163//157
f 166//158 163//158 162//158
f 166//159 162//159 161//159
f 166//160 161//160 160//160
f 166//161 160//161 159//161
f 166//162 159//162 158//162
f 175//163 173//163 172//163
f 175//164 172//164 171//164
f 175//165 171//165 170//165
f 175//166 170//166 169//166
f 175//167 169//167 168//167
f 175//98 168//98 167//98
f 141//168 144//168 143//168
f 141//169 145//169 144//169
f 141//170 146//170 145//170
f 141//171 147//171 146//171
f 141//172 148//172 147//172
f 141//173 140//173 148//173
f 157//174 154//174 155//174
f 157//175 153//175 154//175
f 157//159 152//159 153//159
f 157//176 151//176 152//176
f 157//177 150//177 151//177
f 157//178 149//178 150//178
f 48//100 50//100 49//100
f 113//101 114//101 50//101
f 115//179 51//179 113//179
f 115//180 114//180 176//180
