# Blender v2.79 (sub 0) OBJ File: ''
# www.blender.org
mtllib m870.mtl
o m870
v -0.226583 -0.403353 0.358756
v -0.201258 -0.403353 0.358756
v -0.197386 -0.399480 0.011656
v -0.230456 -0.399480 0.011656
v -0.201258 -0.428678 0.358756
v -0.226583 -0.428678 0.358756
v -0.230456 -0.432551 0.011656
v -0.197386 -0.432551 0.011656
v 0.230456 -0.432551 0.011656
v 0.230456 -0.399480 0.011656
v 0.226583 -0.403353 0.358756
v 0.226583 -0.428678 0.358756
v 0.197385 -0.399480 0.011656
v 0.197385 -0.432551 0.011656
v 0.201258 -0.428678 0.358756
v 0.201258 -0.403353 0.358756
v 0.226583 0.403351 0.358756
v 0.201258 0.403351 0.358756
v 0.197385 0.399480 0.011656
v 0.230456 0.399480 0.011656
v 0.201258 0.428676 0.358756
v 0.226583 0.428676 0.358756
v 0.230456 0.432547 0.011656
v 0.197385 0.432547 0.011656
v -0.230456 0.432547 0.011656
v -0.230456 0.399480 0.011656
v -0.226583 0.403351 0.358756
v -0.226583 0.428676 0.358756
v -0.197386 0.399480 0.011656
v -0.197386 0.432547 0.011656
v -0.201258 0.428676 0.358756
v -0.201258 0.403351 0.358756
v -0.272904 0.475001 -0.056903
v 0.272903 0.475001 -0.056903
v 0.272903 -0.474999 -0.056903
v -0.272904 -0.474999 -0.056903
v -0.258748 0.460845 -0.026588
v -0.272904 0.475001 -0.026588
v -0.272904 -0.474999 -0.026588
v -0.258748 -0.460843 -0.026588
v 0.272903 -0.474999 -0.026588
v 0.258748 -0.460843 -0.026588
v 0.272903 0.475001 -0.026588
v 0.258748 0.460845 -0.026588
v -0.258748 0.460845 0.011656
v -0.258748 -0.460843 0.011656
v 0.258748 -0.460843 0.011656
v 0.258748 0.460845 0.011656
vn 0.0000 0.9999 0.0112
vn 0.0000 -0.9999 0.0112
vn 0.0000 0.0000 1.0000
vn 0.9999 0.0000 0.0112
vn -0.9999 0.0000 0.0112
vn 0.0000 0.0000 -1.0000
vn -1.0000 0.0000 0.0000
vn 0.0000 -1.0000 0.0000
vn 1.0000 0.0000 0.0000
vn 0.0000 1.0000 0.0000
usemtl None
s off
f 1//1 2//1 3//1
f 5//2 6//2 7//2
f 6//3 5//3 2//3
f 2//4 5//4 8//4
f 6//5 1//5 4//5
f 9//4 10//4 11//4
f 13//5 14//5 15//5
f 11//3 16//3 15//3
f 14//2 9//2 12//2
f 10//1 13//1 16//1
f 17//2 18//2 19//2
f 21//1 22//1 23//1
f 22//3 21//3 18//3
f 18//5 21//5 24//5
f 22//4 17//4 20//4
f 25//5 26//5 27//5
f 29//4 30//4 31//4
f 27//3 32//3 31//3
f 30//1 25//1 28//1
f 26//2 29//2 32//2
f 33//6 34//6 35//6
f 37//3 38//3 39//3
f 40//3 39//3 41//3
f 38//7 33//7 36//7
f 39//8 36//8 35//8
f 41//9 35//9 34//9
f 42//3 41//3 43//3
f 43//10 34//10 33//10
f 44//3 43//3 38//3
f 13//3 10//3 20//3
f 4//3 3//3 29//3
f 3//3 8//3 14//3
f 45//7 37//7 40//7
f 46//8 40//8 42//8
f 47//9 42//9 44//9
f 45//10 48//10 44//10
f 46//3 8//3 7//3
f 45//3 25//3 30//3
f 19//3 24//3 30//3
f 46//3 7//3 4//3
f 10//3 9//3 47//3
f 3//3 13//3 19//3
f 47//3 9//3 14//3
f 48//3 23//3 20//3
f 46//3 47//3 14//3
f 4//3 26//3 45//3
f 26//3 25//3 45//3
f 30//3 24//3 48//3
f 24//3 23//3 48//3
f 20//3 10//3 47//3
f 1//1 3//1 4//1
f 5//2 7//2 8//2
f 6//3 2//3 1//3
f 2//4 8//4 3//4
f 6//5 4//5 7//5
f 9//4 11//4 12//4
f 13//5 15//5 16//5
f 11//3 15//3 12//3
f 14//2 12//2 15//2
f 10//1 16//1 11//1
f 17//2 19//2 20//2
f 21//1 23//1 24//1
f 22//3 18//3 17//3
f 18//5 24//5 19//5
f 22//4 20//4 23//4
f 25//5 27//5 28//5
f 29//4 31//4 32//4
f 27//3 31//3 28//3
f 30//1 28//1 31//1
f 26//2 32//2 27//2
f 33//6 35//6 36//6
f 37//3 39//3 40//3
f 40//3 41//3 42//3
f 38//7 36//7 39//7
f 39//8 35//8 41//8
f 41//9 34//9 43//9
f 42//3 43//3 44//3
f 43//10 33//10 38//10
f 44//3 38//3 37//3
f 13//3 20//3 19//3
f 4//3 29//3 26//3
f 3//3 14//3 13//3
f 45//7 40//7 46//7
f 46//8 42//8 47//8
f 47//9 44//9 48//9
f 45//10 44//10 37//10
f 19//3 30//3 29//3
f 3//3 19//3 29//3
f 46//3 14//3 8//3
f 4//3 45//3 46//3
f 30//3 48//3 45//3
f 20//3 47//3 48//3
