# Blender v2.79 (sub 0) OBJ File: ''
# www.blender.org
mtllib m874.mtl
o m874
v 0.430893 -0.159464 0.103741
v 0.430893 -0.159464 0.124098
v -0.430893 -0.159464 0.124098
v -0.430893 -0.159464 0.103741
v -0.430893 0.159464 0.103741
v -0.430893 0.159464 0.124098
v 0.430893 0.159464 0.124098
v 0.430893 0.159464 0.103741
v -0.447857 0.183214 -0.108313
v -0.447857 -0.183214 -0.108313
v 0.447857 -0.183214 -0.108313
v 0.447857 0.183214 -0.108313
v -0.447857 0.135714 -0.065902
v -0.447857 -0.135714 -0.065902
v -0.407143 -0.135714 -0.065902
v -0.407143 0.135714 -0.065902
v -0.447857 0.135714 -0.018402
v -0.447857 -0.135714 -0.018402
v -0.407143 -0.135714 -0.018402
v -0.407143 0.135714 -0.018402
v 0.407143 -0.183214 -0.065902
v -0.407143 -0.183214 -0.065902
v 0.407143 -0.135714 -0.065902
v 0.407143 -0.135714 -0.018402
v 0.407143 -0.183214 -0.018402
v -0.407143 -0.183214 -0.018402
v 0.447857 0.135714 -0.065902
v 0.407143 0.135714 -0.065902
v 0.407143 0.183214 -0.065902
v 0.447857 -0.135714 -0.065902
v -0.407143 0.183214 -0.065902
v -0.407143 0.183214 -0.018402
v 0.447857 -0.135714 -0.018402
v 0.407143 0.183214 -0.018402
v 0.407143 0.135714 -0.018402
v 0.447857 0.135714 -0.018402
v 0.447857 0.135714 0.222491
v 0.475000 0.135714 -0.065902
v 0.407143 0.135714 0.222491
v 0.475000 0.203571 -0.065902
v 0.447857 0.183214 0.222491
v 0.407143 0.183214 0.222491
v 0.407143 0.203571 -0.065902
v 0.407143 -0.183214 0.222491
v 0.407143 -0.203572 -0.065902
v 0.407143 -0.135714 0.222491
v 0.475000 -0.203572 -0.065902
v 0.447857 -0.183214 0.222491
v 0.447857 -0.135714 0.222491
v 0.475000 -0.135714 -0.065902
v -0.447857 -0.135714 0.222491
v -0.475000 -0.135714 -0.065902
v -0.407143 -0.135714 0.222491
v -0.475000 -0.203572 -0.065902
v -0.447857 -0.183214 0.222491
v -0.407143 -0.183214 0.222491
v -0.407143 -0.203572 -0.065902
v -0.407143 0.183214 0.222491
v -0.407143 0.203571 -0.065902
v -0.407143 0.135714 0.222491
v -0.475000 0.203571 -0.065902
v -0.447857 0.183214 0.222491
v -0.447857 0.135714 0.222491
v -0.475000 0.135714 -0.065902
v -0.475000 0.203571 -0.099830
v 0.475000 0.203571 -0.099830
v 0.475000 -0.203572 -0.099830
v -0.475000 -0.203572 -0.099830
vn 0.0000 -1.0000 0.0000
vn 1.0000 0.0000 0.0000
vn 0.0000 1.0000 0.0000
vn -1.0000 0.0000 0.0000
vn -0.9956 0.0000 0.0937
vn 0.0000 0.9975 0.0704
vn 0.0000 -0.9975 0.0704
vn 0.9956 0.0000 0.0937
vn 0.0000 0.0000 1.0000
vn 0.0000 -0.3846 -0.9231
vn 0.2983 0.0000 -0.9545
vn 0.0000 0.3847 -0.9231
vn -0.2983 0.0000 -0.9545
vn 0.0000 0.0000 -1.0000
usemtl None
s off
f 67//1 47//1 54//1
f 66//2 40//2 47//2
f 65//3 61//3 40//3
f 68//4 54//4 61//4
f 63//5 62//5 61//5
f 60//1 63//1 64//1
f 58//2 60//2 16//2
f 61//6 62//6 58//6
f 56//7 55//7 54//7
f 15//2 53//2 56//2
f 52//3 51//3 53//3
f 54//5 55//5 51//5
f 49//8 48//8 47//8
f 46//3 49//3 50//3
f 44//4 46//4 23//4
f 47//7 48//7 44//7
f 42//6 41//6 40//6
f 28//4 39//4 42//4
f 38//1 37//1 39//1
f 40//8 41//8 37//8
f 32//3 34//3 29//3
f 28//1 35//1 20//1
f 35//9 34//9 32//9
f 26//9 25//9 24//9
f 19//3 24//3 23//3
f 21//1 25//1 26//1
f 27//2 36//2 33//2
f 23//4 24//4 35//4
f 24//9 33//9 36//9
f 17//9 18//9 19//9
f 20//2 19//2 15//2
f 18//4 17//4 13//4
f 47//9 40//9 61//9
f 10//10 11//10 67//10
f 12//11 66//11 67//11
f 9//12 65//12 66//12
f 65//13 9//13 10//13
f 9//14 12//14 11//14
f 6//3 7//3 8//3
f 7//2 2//2 1//2
f 1//1 2//1 3//1
f 3//4 6//4 5//4
f 5//14 8//14 1//14
f 3//9 2//9 7//9
f 67//1 54//1 68//1
f 66//2 47//2 67//2
f 65//3 40//3 66//3
f 68//4 61//4 65//4
f 63//5 61//5 64//5
f 60//1 64//1 16//1
f 58//2 16//2 59//2
f 61//6 58//6 59//6
f 56//7 54//7 57//7
f 15//2 56//2 57//2
f 52//3 53//3 15//3
f 54//5 51//5 52//5
f 49//8 47//8 50//8
f 46//3 50//3 23//3
f 44//4 23//4 45//4
f 47//7 44//7 45//7
f 42//6 40//6 43//6
f 28//4 42//4 43//4
f 38//1 39//1 28//1
f 40//8 37//8 38//8
f 32//3 29//3 31//3
f 28//1 20//1 16//1
f 35//9 32//9 20//9
f 26//9 24//9 19//9
f 19//3 23//3 15//3
f 21//1 26//1 22//1
f 27//2 33//2 30//2
f 23//4 35//4 28//4
f 24//9 36//9 35//9
f 17//9 19//9 20//9
f 20//2 15//2 16//2
f 18//4 13//4 14//4
f 47//9 61//9 54//9
f 10//10 67//10 68//10
f 12//11 67//11 11//11
f 9//12 66//12 12//12
f 65//13 10//13 68//13
f 9//14 11//14 10//14
f 6//3 8//3 5//3
f 7//2 1//2 8//2
f 1//1 3//1 4//1
f 3//4 5//4 4//4
f 5//14 1//14 4//14
f 3//9 7//9 6//9
