# Blender v2.79 (sub 0) OBJ File: ''
# www.blender.org
mtllib m879.mtl
o m879
v 0.373568 0.235026 -0.082146
v 0.373568 0.136068 -0.082146
v 0.472526 0.136068 -0.082146
v 0.472526 -0.136068 -0.082146
v 0.373568 -0.136068 -0.082146
v 0.373568 -0.235026 -0.082146
v -0.373568 -0.235026 -0.082146
v -0.373568 -0.136068 -0.082146
v -0.472526 -0.136070 -0.082146
v -0.472526 0.136066 -0.082146
v -0.373568 0.136068 -0.082146
v -0.373568 0.235026 -0.082146
v 0.376042 0.237500 -0.084620
v 0.376042 0.138542 -0.084620
v 0.475000 0.138542 -0.084620
v 0.475000 -0.138542 -0.084620
v 0.376042 -0.138542 -0.084620
v 0.376042 -0.237500 -0.084620
v -0.376042 -0.237500 -0.084620
v -0.376042 -0.138542 -0.084620
v -0.475000 -0.138544 -0.084620
v -0.475000 0.138540 -0.084620
v -0.376042 0.138542 -0.084620
v -0.376042 0.237500 -0.084620
v 0.376042 0.237500 -0.099464
v 0.376042 0.138542 -0.099464
v 0.475000 0.138542 -0.099464
v 0.475000 -0.138542 -0.099464
v 0.376042 -0.138542 -0.099464
v 0.376042 -0.237500 -0.099464
v -0.376042 -0.237502 -0.099464
v -0.376042 -0.138542 -0.099464
v -0.475000 -0.138544 -0.099464
v -0.475000 0.138540 -0.099464
v -0.376042 0.138542 -0.099464
v -0.376042 0.237500 -0.099464
v 0.373568 0.235026 -0.101938
v 0.373568 0.136068 -0.101938
v 0.472526 0.136068 -0.101938
v 0.472526 -0.136068 -0.101938
v 0.373568 -0.136068 -0.101938
v 0.373568 -0.235026 -0.101938
v -0.373568 -0.235028 -0.101938
v -0.373568 -0.136068 -0.101938
v -0.472526 -0.136070 -0.101938
v -0.472526 0.136066 -0.101938
v -0.373568 0.136068 -0.101938
v -0.373568 0.235026 -0.101938
v 0.378516 -0.141016 0.254312
v 0.472526 -0.141016 0.254312
v 0.472526 -0.155859 0.254312
v 0.393359 -0.155859 0.254312
v 0.393359 -0.235026 0.254312
v 0.378516 -0.235026 0.254312
v -0.378516 -0.141016 0.254312
v -0.378516 -0.235026 0.254312
v -0.393359 -0.235026 0.254312
v -0.393359 -0.155859 0.254312
v -0.472526 -0.155859 0.254312
v -0.472526 -0.141016 0.254312
v -0.378516 0.141016 0.254312
v -0.472526 0.141016 0.254312
v -0.472526 0.155859 0.254312
v -0.393359 0.155859 0.254312
v -0.393359 0.235026 0.254312
v -0.378516 0.235026 0.254312
v 0.378516 0.141016 0.254312
v 0.378516 0.235026 0.254312
v 0.393359 0.235026 0.254312
v 0.393359 0.155859 0.254312
v 0.472526 0.155859 0.254312
v 0.472526 0.141016 0.254312
v 0.376042 -0.138542 0.251838
v 0.475000 -0.138542 0.251838
v 0.475000 -0.158333 0.251838
v 0.395833 -0.158333 0.251838
v 0.395833 -0.237500 0.251838
v 0.376042 -0.237500 0.251838
v -0.376042 -0.138542 0.251838
v -0.376042 -0.237500 0.251838
v -0.395833 -0.237500 0.251838
v -0.395833 -0.158333 0.251838
v -0.475000 -0.158333 0.251838
v -0.475000 -0.138542 0.251838
v -0.376042 0.138542 0.251838
v -0.475000 0.138542 0.251838
v -0.475000 0.158333 0.251838
v -0.395833 0.158333 0.251838
v -0.395833 0.237500 0.251838
v -0.376042 0.237500 0.251838
v 0.376042 0.138542 0.251838
v 0.376042 0.237500 0.251838
v 0.395833 0.237500 0.251838
v 0.395833 0.158333 0.251838
v 0.475000 0.158333 0.251838
v 0.475000 0.138542 0.251838
v 0.475000 -0.158333 -0.099464
v 0.395833 -0.158333 -0.099464
v 0.395833 -0.237500 -0.099464
v -0.395833 -0.237502 -0.099464
v -0.395833 -0.158335 -0.099464
v -0.475000 -0.158335 -0.099464
v -0.475000 0.158331 -0.099464
v -0.395833 0.158333 -0.099464
v -0.395833 0.237500 -0.099464
v 0.395833 0.237500 -0.099464
v 0.395833 0.158333 -0.099464
v 0.475000 0.158333 -0.099464
v 0.378516 -0.141016 -0.101938
v 0.472526 -0.141016 -0.101938
v 0.472526 -0.155859 -0.101938
v 0.393359 -0.155859 -0.101938
v 0.393359 -0.235026 -0.101938
v 0.378516 -0.235026 -0.101938
v -0.378516 -0.141016 -0.101938
v -0.378516 -0.235028 -0.101938
v -0.393359 -0.235028 -0.101938
v -0.393359 -0.155859 -0.101938
v -0.472526 -0.155861 -0.101938
v -0.472526 -0.141018 -0.101938
v -0.378516 0.141016 -0.101938
v -0.472526 0.141014 -0.101938
v -0.472526 0.155857 -0.101938
v -0.393359 0.155859 -0.101938
v -0.393359 0.235026 -0.101938
v -0.378516 0.235026 -0.101938
v 0.378516 0.141016 -0.101938
v 0.378516 0.235026 -0.101938
v 0.393359 0.235026 -0.101938
v 0.393359 0.155859 -0.101938
v 0.472526 0.155859 -0.101938
v 0.472526 0.141016 -0.101938
v 0.452734 -0.175651 0.254312
v 0.413151 -0.175651 0.254312
v 0.413151 -0.215234 0.254312
v 0.398307 -0.215234 0.254312
v 0.398307 -0.160807 0.254312
v 0.452734 -0.160807 0.254312
v -0.452734 -0.175651 0.254312
v -0.452734 -0.160807 0.254312
v -0.398307 -0.160807 0.254312
v -0.398307 -0.215234 0.254312
v -0.413151 -0.215234 0.254312
v -0.413151 -0.175651 0.254312
v -0.452734 0.175651 0.254312
v -0.413151 0.175651 0.254312
v -0.413151 0.215234 0.254312
v -0.398307 0.215234 0.254312
v -0.398307 0.160807 0.254312
v -0.452734 0.160807 0.254312
v 0.413151 0.215234 0.254312
v 0.413151 0.175651 0.254312
v 0.452734 0.175651 0.254312
v 0.452734 0.160807 0.254312
v 0.398307 0.160807 0.254312
v 0.398307 0.215234 0.254312
v 0.455208 -0.178125 0.251838
v 0.415625 -0.178125 0.251838
v 0.415625 -0.217708 0.251838
v 0.395833 -0.217708 0.251838
v 0.455208 -0.158333 0.251838
v -0.455208 -0.178125 0.251838
v -0.455208 -0.158333 0.251838
v -0.395833 -0.217708 0.251838
v -0.415625 -0.217708 0.251838
v -0.415625 -0.178125 0.251838
v -0.455208 0.178125 0.251838
v -0.415625 0.178125 0.251838
v -0.415625 0.217708 0.251838
v -0.395833 0.217708 0.251838
v -0.455208 0.158333 0.251838
v 0.415625 0.217708 0.251838
v 0.415625 0.178125 0.251838
v 0.455208 0.178125 0.251838
v 0.455208 0.158333 0.251838
v 0.395833 0.217708 0.251838
v 0.455208 -0.178125 -0.099464
v 0.415625 -0.178125 -0.099464
v 0.415625 -0.217708 -0.099464
v 0.395833 -0.217708 -0.099464
v 0.455208 -0.158333 -0.099464
v -0.455208 -0.178127 -0.099464
v -0.455208 -0.158335 -0.099464
v -0.395833 -0.217710 -0.099464
v -0.415625 -0.217710 -0.099464
v -0.415625 -0.178127 -0.099464
v -0.455208 0.178125 -0.099464
v -0.415625 0.178125 -0.099464
v -0.415625 0.217708 -0.099464
v -0.395833 0.217708 -0.099464
v -0.455208 0.158331 -0.099464
v 0.415625 0.217708 -0.099464
v 0.415625 0.178125 -0.099464
v 0.455208 0.178125 -0.099464
v 0.455208 0.158333 -0.099464
v 0.395833 0.217708 -0.099464
v 0.452734 -0.175651 -0.101938
v 0.413151 -0.175651 -0.101938
v 0.413151 -0.215234 -0.101938
v 0.398307 -0.215234 -0.101938
v 0.398307 -0.160807 -0.101938
v 0.452734 -0.160807 -0.101938
v -0.452734 -0.175653 -0.101938
v -0.452734 -0.160809 -0.101938
v -0.398307 -0.160809 -0.101938
v -0.398307 -0.215236 -0.101938
v -0.413151 -0.215236 -0.101938
v -0.413151 -0.175653 -0.101938
v -0.452734 0.175651 -0.101938
v -0.413151 0.175651 -0.101938
v -0.413151 0.215234 -0.101938
v -0.398307 0.215234 -0.101938
v -0.398307 0.160805 -0.101938
v -0.452734 0.160807 -0.101938
v 0.413151 0.215234 -0.101938
v 0.413151 0.175651 -0.101938
v 0.452734 0.175651 -0.101938
v 0.452734 0.160807 -0.101938
v 0.398307 0.160807 -0.101938
v 0.398307 0.215234 -0.101938
v 0.432943 -0.195442 0.254312
v 0.418099 -0.195442 0.254312
v 0.418099 -0.180599 0.254312
v 0.432943 -0.180599 0.254312
v -0.432943 -0.195442 0.254312
v -0.432943 -0.180599 0.254312
v -0.418099 -0.180599 0.254312
v -0.418099 -0.195442 0.254312
v -0.432943 0.195443 0.254312
v -0.418099 0.195443 0.254312
v -0.418099 0.180599 0.254312
v -0.432943 0.180599 0.254312
v 0.432943 0.195443 0.254312
v 0.432943 0.180599 0.254312
v 0.418099 0.180599 0.254312
v 0.418099 0.195443 0.254312
v 0.435417 -0.197916 0.251838
v 0.415625 -0.197916 0.251838
v 0.435417 -0.178125 0.251838
v -0.435417 -0.197916 0.251838
v -0.435417 -0.178125 0.251838
v -0.415625 -0.197916 0.251838
v -0.435417 0.197917 0.251838
v -0.415625 0.197917 0.251838
v -0.435417 0.178125 0.251838
v 0.435417 0.197917 0.251838
v 0.435417 0.178125 0.251838
v 0.415625 0.197917 0.251838
v 0.435417 -0.197916 -0.099464
v 0.415625 -0.197916 -0.099464
v 0.435417 -0.178125 -0.099464
v -0.435417 -0.197918 -0.099464
v -0.435417 -0.178127 -0.099464
v -0.415625 -0.197918 -0.099464
v -0.435417 0.197917 -0.099464
v -0.415625 0.197917 -0.099464
v -0.435417 0.178125 -0.099464
v 0.435417 0.197917 -0.099464
v 0.435417 0.178125 -0.099464
v 0.415625 0.197917 -0.099464
v 0.432943 -0.195442 -0.101938
v 0.418099 -0.195442 -0.101938
v 0.418099 -0.180599 -0.101938
v 0.432943 -0.180599 -0.101938
v -0.432943 -0.195444 -0.101938
v -0.432943 -0.180601 -0.101938
v -0.418099 -0.180601 -0.101938
v -0.418099 -0.195444 -0.101938
v -0.432943 0.195443 -0.101938
v -0.418099 0.195443 -0.101938
v -0.418099 0.180599 -0.101938
v -0.432943 0.180599 -0.101938
v 0.432943 0.195443 -0.101938
v 0.432943 0.180599 -0.101938
v 0.418099 0.180599 -0.101938
v 0.418099 0.195443 -0.101938
vn 0.0000 0.0000 1.0000
vn 0.7071 0.0000 0.7071
vn 0.0000 0.7071 0.7071
vn 0.0000 -0.7071 0.7071
vn -0.7071 0.0000 0.7071
vn 1.0000 0.0000 0.0000
vn 0.0000 1.0000 0.0000
vn 0.0000 -1.0000 0.0000
vn 0.0000 -1.0000 0.0001
vn -1.0000 0.0000 0.0000
vn 0.7071 0.0000 -0.7071
vn 0.0000 0.7071 -0.7071
vn 0.0000 -0.7071 -0.7071
vn -0.7071 0.0000 -0.7071
vn 0.0000 -0.7068 -0.7074
vn -0.0000 -0.7074 -0.7068
vn 0.0000 0.0000 -1.0000
usemtl None
s off
f 1//1 12//1 11//1
f 2//1 1//1 11//1
f 11//1 10//1 9//1
f 11//1 9//1 8//1
f 2//1 11//1 8//1
f 8//1 7//1 6//1
f 8//1 6//1 5//1
f 2//1 8//1 5//1
f 2//1 5//1 4//1
f 2//1 4//1 3//1
f 1//2 2//2 14//2
f 1//2 14//2 13//2
f 2//3 3//3 15//3
f 2//3 15//3 14//3
f 3//2 4//2 16//2
f 3//2 16//2 15//2
f 4//4 5//4 17//4
f 4//4 17//4 16//4
f 5//2 6//2 18//2
f 5//2 18//2 17//2
f 6//4 7//4 19//4
f 6//4 19//4 18//4
f 7//5 8//5 20//5
f 7//5 20//5 19//5
f 8//4 9//4 21//4
f 8//4 21//4 20//4
f 9//5 10//5 22//5
f 9//5 22//5 21//5
f 10//3 11//3 23//3
f 10//3 23//3 22//3
f 11//5 12//5 24//5
f 11//5 24//5 23//5
f 12//3 1//3 13//3
f 12//3 13//3 24//3
f 13//6 14//6 26//6
f 13//6 26//6 25//6
f 14//7 15//7 27//7
f 14//7 27//7 26//7
f 15//6 16//6 28//6
f 15//6 28//6 27//6
f 16//8 17//8 29//8
f 16//8 29//8 28//8
f 17//6 18//6 30//6
f 17//6 30//6 29//6
f 18//9 19//9 31//9
f 18//8 31//8 30//8
f 19//10 20//10 32//10
f 19//10 32//10 31//10
f 20//8 21//8 33//8
f 20//8 33//8 32//8
f 21//10 22//10 34//10
f 21//10 34//10 33//10
f 22//7 23//7 35//7
f 22//7 35//7 34//7
f 23//10 24//10 36//10
f 23//10 36//10 35//10
f 24//7 13//7 25//7
f 24//7 25//7 36//7
f 25//11 26//11 38//11
f 25//11 38//11 37//11
f 26//12 27//12 39//12
f 26//12 39//12 38//12
f 27//11 28//11 40//11
f 27//11 40//11 39//11
f 28//13 29//13 41//13
f 28//13 41//13 40//13
f 29//11 30//11 42//11
f 29//11 42//11 41//11
f 30//13 31//13 43//13
f 30//13 43//13 42//13
f 31//14 32//14 44//14
f 31//14 44//14 43//14
f 32//13 33//13 45//13
f 32//13 45//13 44//13
f 33//14 34//14 46//14
f 33//14 46//14 45//14
f 34//12 35//12 47//12
f 34//12 47//12 46//12
f 35//14 36//14 48//14
f 35//14 48//14 47//14
f 36//12 25//12 37//12
f 36//12 37//12 48//12
f 49//1 54//1 53//1
f 49//1 53//1 52//1
f 50//1 49//1 52//1
f 50//1 52//1 51//1
f 55//1 60//1 59//1
f 55//1 59//1 58//1
f 56//1 55//1 58//1
f 56//1 58//1 57//1
f 61//1 66//1 65//1
f 61//1 65//1 64//1
f 62//1 61//1 64//1
f 62//1 64//1 63//1
f 67//1 72//1 71//1
f 67//1 71//1 70//1
f 68//1 67//1 70//1
f 68//1 70//1 69//1
f 49//3 50//3 74//3
f 49//3 74//3 73//3
f 50//2 51//2 75//2
f 50//2 75//2 74//2
f 51//4 52//4 76//4
f 51//4 76//4 75//4
f 52//2 53//2 77//2
f 52//2 77//2 76//2
f 53//4 54//4 78//4
f 53//4 78//4 77//4
f 54//5 49//5 73//5
f 54//5 73//5 78//5
f 55//2 56//2 80//2
f 55//2 80//2 79//2
f 56//4 57//4 81//4
f 56//4 81//4 80//4
f 57//5 58//5 82//5
f 57//5 82//5 81//5
f 58//4 59//4 83//4
f 58//4 83//4 82//4
f 59//5 60//5 84//5
f 59//5 84//5 83//5
f 60//3 55//3 79//3
f 60//3 79//3 84//3
f 61//4 62//4 86//4
f 61//4 86//4 85//4
f 62//5 63//5 87//5
f 62//5 87//5 86//5
f 63//3 64//3 88//3
f 63//3 88//3 87//3
f 64//5 65//5 89//5
f 64//5 89//5 88//5
f 65//3 66//3 90//3
f 65//3 90//3 89//3
f 66//2 61//2 85//2
f 66//2 85//2 90//2
f 67//5 68//5 92//5
f 67//5 92//5 91//5
f 68//3 69//3 93//3
f 68//3 93//3 92//3
f 69//2 70//2 94//2
f 69//2 94//2 93//2
f 70//3 71//3 95//3
f 70//3 95//3 94//3
f 71//2 72//2 96//2
f 71//2 96//2 95//2
f 72//4 67//4 91//4
f 72//4 91//4 96//4
f 73//7 74//7 28//7
f 73//7 28//7 29//7
f 74//6 75//6 97//6
f 74//6 97//6 28//6
f 75//8 76//8 98//8
f 75//8 98//8 97//8
f 76//6 77//6 99//6
f 76//6 99//6 98//6
f 77//8 78//8 30//8
f 77//8 30//8 99//8
f 78//10 73//10 29//10
f 78//10 29//10 30//10
f 79//6 80//6 31//6
f 79//6 31//6 32//6
f 80//8 81//8 100//8
f 80//8 100//8 31//8
f 81//10 82//10 101//10
f 81//10 101//10 100//10
f 82//8 83//8 102//8
f 82//8 102//8 101//8
f 83//10 84//10 33//10
f 83//10 33//10 102//10
f 84//7 79//7 32//7
f 84//7 32//7 33//7
f 85//8 86//8 34//8
f 85//8 34//8 35//8
f 86//10 87//10 103//10
f 86//10 103//10 34//10
f 87//7 88//7 104//7
f 87//7 104//7 103//7
f 88//10 89//10 105//10
f 88//10 105//10 104//10
f 89//7 90//7 36//7
f 89//7 36//7 105//7
f 90//6 85//6 35//6
f 90//6 35//6 36//6
f 91//10 92//10 25//10
f 91//10 25//10 26//10
f 92//7 93//7 106//7
f 92//7 106//7 25//7
f 93//6 94//6 107//6
f 93//6 107//6 106//6
f 94//7 95//7 108//7
f 94//7 108//7 107//7
f 95//6 96//6 27//6
f 95//6 27//6 108//6
f 96//8 91//8 26//8
f 96//8 26//8 27//8
f 29//12 28//12 110//12
f 29//12 110//12 109//12
f 28//11 97//11 111//11
f 28//11 111//11 110//11
f 97//13 98//13 112//13
f 97//13 112//13 111//13
f 98//11 99//11 113//11
f 98//11 113//11 112//11
f 99//13 30//13 114//13
f 99//13 114//13 113//13
f 30//14 29//14 109//14
f 30//14 109//14 114//14
f 32//11 31//11 116//11
f 32//11 116//11 115//11
f 31//13 100//13 117//13
f 31//13 117//13 116//13
f 100//14 101//14 118//14
f 100//14 118//14 117//14
f 101//13 102//13 119//13
f 101//15 119//15 118//15
f 102//14 33//14 120//14
f 102//14 120//14 119//14
f 33//12 32//12 115//12
f 33//12 115//12 120//12
f 35//13 34//13 122//13
f 35//13 122//13 121//13
f 34//14 103//14 123//14
f 34//14 123//14 122//14
f 103//12 104//12 124//12
f 103//12 124//12 123//12
f 104//14 105//14 125//14
f 104//14 125//14 124//14
f 105//12 36//12 126//12
f 105//12 126//12 125//12
f 36//11 35//11 121//11
f 36//11 121//11 126//11
f 26//14 25//14 128//14
f 26//14 128//14 127//14
f 25//12 106//12 129//12
f 25//12 129//12 128//12
f 106//11 107//11 130//11
f 106//11 130//11 129//11
f 107//12 108//12 131//12
f 107//12 131//12 130//12
f 108//11 27//11 132//11
f 108//11 132//11 131//11
f 27//13 26//13 127//13
f 27//13 127//13 132//13
f 133//1 138//1 137//1
f 134//1 133//1 137//1
f 134//1 137//1 136//1
f 135//1 134//1 136//1
f 144//1 143//1 142//1
f 144//1 142//1 141//1
f 144//1 141//1 140//1
f 139//1 144//1 140//1
f 145//1 150//1 149//1
f 146//1 145//1 149//1
f 146//1 149//1 148//1
f 147//1 146//1 148//1
f 151//1 156//1 155//1
f 152//1 151//1 155//1
f 152//1 155//1 154//1
f 153//1 152//1 154//1
f 133//4 134//4 158//4
f 133//4 158//4 157//4
f 134//2 135//2 159//2
f 134//2 159//2 158//2
f 135//4 136//4 160//4
f 135//4 160//4 159//4
f 136//5 137//5 76//5
f 136//5 76//5 160//5
f 137//3 138//3 161//3
f 137//3 161//3 76//3
f 138//2 133//2 157//2
f 138//2 157//2 161//2
f 139//5 140//5 163//5
f 139//5 163//5 162//5
f 140//3 141//3 82//3
f 140//3 82//3 163//3
f 141//2 142//2 164//2
f 141//2 164//2 82//2
f 142//4 143//4 165//4
f 142//4 165//4 164//4
f 143//5 144//5 166//5
f 143//5 166//5 165//5
f 144//4 139//4 162//4
f 144//4 162//4 166//4
f 145//3 146//3 168//3
f 145//3 168//3 167//3
f 146//5 147//5 169//5
f 146//5 169//5 168//5
f 147//3 148//3 170//3
f 147//3 170//3 169//3
f 148//2 149//2 88//2
f 148//2 88//2 170//2
f 149//4 150//4 171//4
f 149//4 171//4 88//4
f 150//5 145//5 167//5
f 150//5 167//5 171//5
f 151//2 152//2 173//2
f 151//2 173//2 172//2
f 152//3 153//3 174//3
f 152//3 174//3 173//3
f 153//2 154//2 175//2
f 153//2 175//2 174//2
f 154//4 155//4 94//4
f 154//4 94//4 175//4
f 155//5 156//5 176//5
f 155//5 176//5 94//5
f 156//3 151//3 172//3
f 156//3 172//3 176//3
f 157//8 158//8 178//8
f 157//8 178//8 177//8
f 158//6 159//6 179//6
f 158//6 179//6 178//6
f 159//8 160//8 180//8
f 159//8 180//8 179//8
f 160//10 76//10 98//10
f 160//10 98//10 180//10
f 76//7 161//7 181//7
f 76//7 181//7 98//7
f 161//6 157//6 177//6
f 161//6 177//6 181//6
f 162//10 163//10 183//10
f 162//10 183//10 182//10
f 163//7 82//7 101//7
f 163//7 101//7 183//7
f 82//6 164//6 184//6
f 82//6 184//6 101//6
f 164//8 165//8 185//8
f 164//8 185//8 184//8
f 165//10 166//10 186//10
f 165//10 186//10 185//10
f 166//8 162//8 182//8
f 166//8 182//8 186//8
f 167//7 168//7 188//7
f 167//7 188//7 187//7
f 168//10 169//10 189//10
f 168//10 189//10 188//10
f 169//7 170//7 190//7
f 169//7 190//7 189//7
f 170//6 88//6 104//6
f 170//6 104//6 190//6
f 88//8 171//8 191//8
f 88//8 191//8 104//8
f 171//10 167//10 187//10
f 171//10 187//10 191//10
f 172//6 173//6 193//6
f 172//6 193//6 192//6
f 173//7 174//7 194//7
f 173//7 194//7 193//7
f 174//6 175//6 195//6
f 174//6 195//6 194//6
f 175//8 94//8 107//8
f 175//8 107//8 195//8
f 94//10 176//10 196//10
f 94//10 196//10 107//10
f 176//7 172//7 192//7
f 176//7 192//7 196//7
f 177//13 178//13 198//13
f 177//13 198//13 197//13
f 178//11 179//11 199//11
f 178//11 199//11 198//11
f 179//13 180//13 200//13
f 179//13 200//13 199//13
f 180//14 98//14 201//14
f 180//14 201//14 200//14
f 98//12 181//12 202//12
f 98//12 202//12 201//12
f 181//11 177//11 197//11
f 181//11 197//11 202//11
f 182//14 183//14 204//14
f 182//14 204//14 203//14
f 183//12 101//12 205//12
f 183//12 205//12 204//12
f 101//11 184//11 206//11
f 101//11 206//11 205//11
f 184//13 185//13 207//13
f 184//13 207//13 206//13
f 185//14 186//14 208//14
f 185//14 208//14 207//14
f 186//13 182//13 203//13
f 186//13 203//13 208//13
f 187//12 188//12 210//12
f 187//12 210//12 209//12
f 188//14 189//14 211//14
f 188//14 211//14 210//14
f 189//12 190//12 212//12
f 189//12 212//12 211//12
f 190//11 104//11 213//11
f 190//11 213//11 212//11
f 104//15 191//15 214//15
f 104//16 214//16 213//16
f 191//14 187//14 209//14
f 191//14 209//14 214//14
f 192//11 193//11 216//11
f 192//11 216//11 215//11
f 193//12 194//12 217//12
f 193//12 217//12 216//12
f 194//11 195//11 218//11
f 194//11 218//11 217//11
f 195//13 107//13 219//13
f 195//13 219//13 218//13
f 107//14 196//14 220//14
f 107//14 220//14 219//14
f 196//12 192//12 215//12
f 196//12 215//12 220//12
f 221//1 224//1 223//1
f 221//1 223//1 222//1
f 225//1 228//1 227//1
f 225//1 227//1 226//1
f 229//1 232//1 231//1
f 229//1 231//1 230//1
f 233//1 236//1 235//1
f 233//1 235//1 234//1
f 221//4 222//4 238//4
f 221//4 238//4 237//4
f 222//5 223//5 158//5
f 222//5 158//5 238//5
f 223//3 224//3 239//3
f 223//3 239//3 158//3
f 224//2 221//2 237//2
f 224//2 237//2 239//2
f 225//5 226//5 241//5
f 225//5 241//5 240//5
f 226//3 227//3 166//3
f 226//3 166//3 241//3
f 227//2 228//2 242//2
f 227//2 242//2 166//2
f 228//4 225//4 240//4
f 228//4 240//4 242//4
f 229//3 230//3 244//3
f 229//3 244//3 243//3
f 230//2 231//2 168//2
f 230//2 168//2 244//2
f 231//4 232//4 245//4
f 231//4 245//4 168//4
f 232//5 229//5 243//5
f 232//5 243//5 245//5
f 233//2 234//2 247//2
f 233//2 247//2 246//2
f 234//4 235//4 173//4
f 234//4 173//4 247//4
f 235//5 236//5 248//5
f 235//5 248//5 173//5
f 236//3 233//3 246//3
f 236//3 246//3 248//3
f 237//8 238//8 250//8
f 237//8 250//8 249//8
f 238//10 158//10 178//10
f 238//10 178//10 250//10
f 158//7 239//7 251//7
f 158//7 251//7 178//7
f 239//6 237//6 249//6
f 239//6 249//6 251//6
f 240//10 241//10 253//10
f 240//10 253//10 252//10
f 241//7 166//7 186//7
f 241//7 186//7 253//7
f 166//6 242//6 254//6
f 166//6 254//6 186//6
f 242//8 240//8 252//8
f 242//8 252//8 254//8
f 243//7 244//7 256//7
f 243//7 256//7 255//7
f 244//6 168//6 188//6
f 244//6 188//6 256//6
f 168//8 245//8 257//8
f 168//8 257//8 188//8
f 245//10 243//10 255//10
f 245//10 255//10 257//10
f 246//6 247//6 259//6
f 246//6 259//6 258//6
f 247//8 173//8 193//8
f 247//8 193//8 259//8
f 173//10 248//10 260//10
f 173//10 260//10 193//10
f 248//7 246//7 258//7
f 248//7 258//7 260//7
f 249//13 250//13 262//13
f 249//13 262//13 261//13
f 250//14 178//14 263//14
f 250//14 263//14 262//14
f 178//12 251//12 264//12
f 178//12 264//12 263//12
f 251//11 249//11 261//11
f 251//11 261//11 264//11
f 252//14 253//14 266//14
f 252//14 266//14 265//14
f 253//12 186//12 267//12
f 253//12 267//12 266//12
f 186//11 254//11 268//11
f 186//11 268//11 267//11
f 254//13 252//13 265//13
f 254//13 265//13 268//13
f 255//12 256//12 270//12
f 255//12 270//12 269//12
f 256//11 188//11 271//11
f 256//11 271//11 270//11
f 188//13 257//13 272//13
f 188//13 272//13 271//13
f 257//14 255//14 269//14
f 257//14 269//14 272//14
f 258//11 259//11 274//11
f 258//11 274//11 273//11
f 259//13 193//13 275//13
f 259//13 275//13 274//13
f 193//14 260//14 276//14
f 193//14 276//14 275//14
f 260//12 258//12 273//12
f 260//12 273//12 276//12
f 113//17 114//17 109//17
f 112//17 113//17 109//17
f 112//17 109//17 110//17
f 111//17 112//17 110//17
f 119//17 120//17 115//17
f 118//17 119//17 115//17
f 118//17 115//17 116//17
f 117//17 118//17 116//17
f 125//17 126//17 121//17
f 124//17 125//17 121//17
f 124//17 121//17 122//17
f 123//17 124//17 122//17
f 131//17 132//17 127//17
f 130//17 131//17 127//17
f 130//17 127//17 128//17
f 129//17 130//17 128//17
f 201//17 202//17 197//17
f 201//17 197//17 198//17
f 200//17 201//17 198//17
f 200//17 198//17 199//17
f 206//17 207//17 208//17
f 205//17 206//17 208//17
f 204//17 205//17 208//17
f 204//17 208//17 203//17
f 213//17 214//17 209//17
f 213//17 209//17 210//17
f 212//17 213//17 210//17
f 212//17 210//17 211//17
f 219//17 220//17 215//17
f 219//17 215//17 216//17
f 218//17 219//17 216//17
f 218//17 216//17 217//17
f 263//17 264//17 261//17
f 262//17 263//17 261//17
f 267//17 268//17 265//17
f 266//17 267//17 265//17
f 271//17 272//17 269//17
f 270//17 271//17 269//17
f 275//17 276//17 273//17
f 274//17 275//17 273//17
f 47//17 48//17 37//17
f 47//17 37//17 38//17
f 45//17 46//17 47//17
f 44//17 45//17 47//17
f 44//17 47//17 38//17
f 42//17 43//17 44//17
f 41//17 42//17 44//17
f 41//17 44//17 38//17
f 40//17 41//17 38//17
f 39//17 40//17 38//17
