# Blender v2.79 (sub 0) OBJ File: ''
# www.blender.org
mtllib m891.mtl
o m891
v 0.403010 0.207895 0.012404
v 0.402228 -0.207883 0.012404
v -0.401108 -0.207491 0.012404
v -0.400326 0.208287 0.012404
v 0.403010 0.207895 -0.033784
v 0.402228 -0.207883 -0.033784
v -0.401108 -0.207491 -0.033784
v -0.400326 0.208287 -0.033784
v 0.475951 0.274832 -0.033978
v 0.475023 -0.274966 -0.033978
v -0.474049 -0.274428 -0.033978
v -0.473121 0.275370 -0.033978
v 0.475951 0.274832 -0.057169
v 0.475023 -0.274966 -0.057169
v -0.474049 -0.274428 -0.057169
v -0.473121 0.275370 -0.057169
v 0.403010 0.207895 -0.071084
v 0.402228 -0.207883 -0.071084
v -0.401108 -0.207491 -0.071084
v -0.400326 0.208287 -0.071084
v 0.000951 0.000202 -0.071084
v 0.000951 0.000202 0.012404
v -0.371301 -0.187035 0.257911
v -0.376477 -0.187035 0.257911
v -0.376477 -0.219551 0.257911
v -0.371301 -0.219501 0.257911
v -0.371351 -0.235076 0.257911
v -0.386974 -0.235174 0.257911
v -0.387072 -0.229706 0.257911
v -0.419490 -0.229706 0.257911
v -0.419490 -0.235126 0.257911
v -0.435163 -0.235076 0.257911
v -0.435163 -0.219453 0.257911
v -0.429939 -0.219599 0.257911
v -0.429939 -0.187083 0.257911
v -0.435163 -0.186987 0.257911
v -0.435113 -0.171216 0.257911
v -0.419490 -0.171314 0.257911
v -0.419392 -0.176782 0.257911
v -0.386926 -0.176782 0.257911
v -0.386926 -0.171362 0.257911
v -0.371301 -0.171264 0.257911
v -0.371301 -0.187035 -0.033956
v -0.376477 -0.187035 -0.033956
v -0.376477 -0.219551 -0.033956
v -0.371301 -0.219501 -0.033956
v -0.371351 -0.235076 -0.033956
v -0.386974 -0.235174 -0.033956
v -0.387072 -0.229706 -0.033956
v -0.419490 -0.229706 -0.033956
v -0.419490 -0.235126 -0.033956
v -0.435163 -0.235076 -0.033956
v -0.435163 -0.219453 -0.033956
v -0.429939 -0.219599 -0.033956
v -0.429939 -0.187083 -0.033956
v -0.435163 -0.186987 -0.033956
v -0.435113 -0.171216 -0.033956
v -0.419490 -0.171314 -0.033956
v -0.419392 -0.176782 -0.033956
v -0.386926 -0.176782 -0.033956
v -0.386926 -0.171362 -0.033956
v -0.371301 -0.171264 -0.033956
v -0.403232 -0.203195 -0.033956
v -0.403232 -0.203195 0.257911
v 0.429106 -0.187035 0.257911
v 0.423930 -0.187035 0.257911
v 0.423882 -0.219551 0.257911
v 0.429106 -0.219501 0.257911
v 0.429056 -0.235076 0.257911
v 0.413433 -0.235174 0.257911
v 0.413335 -0.229706 0.257911
v 0.380917 -0.229706 0.257911
v 0.380869 -0.235126 0.257911
v 0.365244 -0.235076 0.257911
v 0.365244 -0.219453 0.257911
v 0.370470 -0.219599 0.257911
v 0.370470 -0.187083 0.257911
v 0.365244 -0.186987 0.257911
v 0.365294 -0.171216 0.257911
v 0.380917 -0.171314 0.257911
v 0.381015 -0.176782 0.257911
v 0.413433 -0.176782 0.257911
v 0.413481 -0.171362 0.257911
v 0.429106 -0.171264 0.257911
v 0.429106 -0.187035 -0.033956
v 0.423930 -0.187035 -0.033956
v 0.423882 -0.219551 -0.033956
v 0.429106 -0.219501 -0.033956
v 0.429056 -0.235076 -0.033956
v 0.413433 -0.235174 -0.033956
v 0.413335 -0.229706 -0.033956
v 0.380917 -0.229706 -0.033956
v 0.380869 -0.235126 -0.033956
v 0.365244 -0.235076 -0.033956
v 0.365244 -0.219453 -0.033956
v 0.370470 -0.219599 -0.033956
v 0.370470 -0.187083 -0.033956
v 0.365244 -0.186987 -0.033956
v 0.365294 -0.171216 -0.033956
v 0.380917 -0.171314 -0.033956
v 0.381015 -0.176782 -0.033956
v 0.413433 -0.176782 -0.033956
v 0.413481 -0.171362 -0.033956
v 0.429106 -0.171264 -0.033956
v 0.397175 -0.203195 -0.033956
v 0.397175 -0.203195 0.257911
v 0.429106 0.218100 0.257911
v 0.423930 0.218100 0.257911
v 0.423880 0.185583 0.257911
v 0.429106 0.185633 0.257911
v 0.429056 0.170059 0.257911
v 0.413433 0.169961 0.257911
v 0.413335 0.175428 0.257911
v 0.380917 0.175428 0.257911
v 0.380869 0.170009 0.257911
v 0.365244 0.170059 0.257911
v 0.365244 0.185681 0.257911
v 0.370470 0.185535 0.257911
v 0.370470 0.218052 0.257911
v 0.365244 0.218148 0.257911
v 0.365294 0.233919 0.257911
v 0.380917 0.233821 0.257911
v 0.381015 0.228353 0.257911
v 0.413433 0.228353 0.257911
v 0.413481 0.233773 0.257911
v 0.429106 0.233871 0.257911
v 0.429106 0.218100 -0.033956
v 0.423930 0.218100 -0.033956
v 0.423880 0.185583 -0.033956
v 0.429106 0.185633 -0.033956
v 0.429056 0.170059 -0.033956
v 0.413433 0.169961 -0.033956
v 0.413335 0.175428 -0.033956
v 0.380917 0.175428 -0.033956
v 0.380869 0.170009 -0.033956
v 0.365244 0.170059 -0.033956
v 0.365244 0.185681 -0.033956
v 0.370470 0.185535 -0.033956
v 0.370470 0.218052 -0.033956
v 0.365244 0.218148 -0.033956
v 0.365294 0.233919 -0.033956
v 0.380917 0.233821 -0.033956
v 0.381015 0.228353 -0.033956
v 0.413433 0.228353 -0.033956
v 0.413481 0.233773 -0.033956
v 0.429106 0.233871 -0.033956
v 0.397175 0.201940 -0.033956
v 0.397175 0.201940 0.257911
v -0.371301 0.218100 0.257911
v -0.376477 0.218100 0.257911
v -0.376477 0.185583 0.257911
v -0.371301 0.185633 0.257911
v -0.371351 0.170059 0.257911
v -0.386974 0.169961 0.257911
v -0.387072 0.175428 0.257911
v -0.419490 0.175428 0.257911
v -0.419490 0.170009 0.257911
v -0.435163 0.170059 0.257911
v -0.435163 0.185681 0.257911
v -0.429937 0.185535 0.257911
v -0.429937 0.218052 0.257911
v -0.435163 0.218148 0.257911
v -0.435113 0.233919 0.257911
v -0.419490 0.233821 0.257911
v -0.419392 0.228353 0.257911
v -0.386926 0.228353 0.257911
v -0.386926 0.233773 0.257911
v -0.371301 0.233871 0.257911
v -0.371301 0.218100 -0.033956
v -0.376477 0.218100 -0.033956
v -0.376477 0.185583 -0.033956
v -0.371301 0.185633 -0.033956
v -0.371351 0.170059 -0.033956
v -0.386974 0.169961 -0.033956
v -0.387072 0.175428 -0.033956
v -0.419490 0.175428 -0.033956
v -0.419490 0.170009 -0.033956
v -0.435163 0.170059 -0.033956
v -0.435163 0.185681 -0.033956
v -0.429937 0.185535 -0.033956
v -0.429937 0.218052 -0.033956
v -0.435163 0.218148 -0.033956
v -0.435113 0.233919 -0.033956
v -0.419490 0.233821 -0.033956
v -0.419392 0.228353 -0.033956
v -0.386926 0.228353 -0.033956
v -0.386926 0.233773 -0.033956
v -0.371301 0.233871 -0.033956
v -0.403232 0.201940 -0.033956
v -0.403232 0.201940 0.257911
vn 1.0000 -0.0019 0.0000
vn -0.0005 -1.0000 0.0000
vn -1.0000 0.0019 0.0000
vn 0.0005 1.0000 0.0000
vn 0.0027 -0.0000 1.0000
vn -0.0000 -0.0029 1.0000
vn -0.0027 0.0000 1.0000
vn 0.0000 0.0029 1.0000
vn 1.0000 -0.0017 0.0000
vn -0.0006 -1.0000 0.0000
vn -1.0000 0.0017 0.0000
vn 0.0006 1.0000 0.0000
vn 0.1875 -0.0003 -0.9823
vn 0.1877 -0.0004 -0.9822
vn -0.0001 -0.2034 -0.9791
vn -0.0001 -0.2032 -0.9791
vn -0.1875 0.0003 -0.9823
vn -0.1877 0.0004 -0.9822
vn 0.0001 0.2034 -0.9791
vn 0.0001 0.2032 -0.9791
vn 0.0000 0.0000 1.0000
vn 0.0000 0.0000 -1.0000
vn 0.0000 -1.0000 0.0000
vn 1.0000 0.0000 0.0000
vn -0.0097 1.0000 0.0000
vn 1.0000 -0.0032 0.0000
vn 0.0063 -1.0000 0.0000
vn -0.9998 -0.0179 0.0000
vn -0.0032 -1.0000 0.0000
vn -1.0000 0.0000 0.0000
vn 0.0279 0.9996 0.0000
vn -0.0184 -0.9998 0.0000
vn -1.0000 0.0032 0.0000
vn 0.0063 1.0000 0.0000
vn 0.9998 0.0179 0.0000
vn 0.0000 1.0000 0.0000
vn -0.0063 1.0000 0.0000
vn 1.0000 -0.0015 0.0000
vn -0.0096 1.0000 0.0000
vn 1.0000 -0.0089 0.0000
vn -1.0000 0.0089 0.0000
usemtl None
s off
f 2//1 6//1 1//1
f 6//1 5//1 1//1
f 3//2 7//2 2//2
f 7//2 6//2 2//2
f 4//3 8//3 3//3
f 8//3 7//3 3//3
f 1//4 5//4 4//4
f 5//4 8//4 4//4
f 6//5 10//5 5//5
f 10//5 9//5 5//5
f 7//6 11//6 6//6
f 11//6 10//6 6//6
f 8//7 12//7 7//7
f 12//7 11//7 7//7
f 5//8 9//8 8//8
f 9//8 12//8 8//8
f 10//9 14//9 9//9
f 14//9 13//9 9//9
f 11//10 15//10 10//10
f 15//10 14//10 10//10
f 12//11 16//11 11//11
f 16//11 15//11 11//11
f 9//12 13//12 12//12
f 13//12 16//12 12//12
f 14//13 18//13 13//13
f 18//14 17//14 13//14
f 15//15 19//15 14//15
f 19//16 18//16 14//16
f 16//17 20//17 15//17
f 20//18 19//18 15//18
f 13//19 17//19 16//19
f 17//20 20//20 16//20
f 1//21 22//21 2//21
f 2//21 22//21 3//21
f 3//21 22//21 4//21
f 4//21 22//21 1//21
f 18//22 21//22 17//22
f 19//22 21//22 18//22
f 20//22 21//22 19//22
f 17//22 21//22 20//22
f 24//23 44//23 23//23
f 44//23 43//23 23//23
f 25//24 45//24 24//24
f 45//24 44//24 24//24
f 26//25 46//25 25//25
f 46//25 45//25 25//25
f 27//26 47//26 26//26
f 47//26 46//26 26//26
f 28//27 48//27 27//27
f 48//27 47//27 27//27
f 29//28 49//28 28//28
f 49//28 48//28 28//28
f 30//23 50//23 29//23
f 50//23 49//23 29//23
f 31//24 51//24 30//24
f 51//24 50//24 30//24
f 32//29 52//29 31//29
f 52//29 51//29 31//29
f 33//30 53//30 32//30
f 53//30 52//30 32//30
f 34//31 54//31 33//31
f 54//31 53//31 33//31
f 35//30 55//30 34//30
f 55//30 54//30 34//30
f 36//32 56//32 35//32
f 56//32 55//32 35//32
f 37//33 57//33 36//33
f 57//33 56//33 36//33
f 38//34 58//34 37//34
f 58//34 57//34 37//34
f 39//35 59//35 38//35
f 59//35 58//35 38//35
f 40//36 60//36 39//36
f 60//36 59//36 39//36
f 41//30 61//30 40//30
f 61//30 60//30 40//30
f 42//37 62//37 41//37
f 62//37 61//37 41//37
f 23//24 43//24 42//24
f 43//24 62//24 42//24
f 23//22 64//22 24//22
f 24//21 64//21 25//21
f 25//22 64//22 26//22
f 26//21 64//21 27//21
f 27//21 64//21 28//21
f 28//22 64//22 29//22
f 29//21 64//21 30//21
f 30//22 64//22 31//22
f 31//21 64//21 32//21
f 32//21 64//21 33//21
f 33//22 64//22 34//22
f 34//21 64//21 35//21
f 35//22 64//22 36//22
f 36//21 64//21 37//21
f 37//21 64//21 38//21
f 38//22 64//22 39//22
f 39//21 64//21 40//21
f 40//22 64//22 41//22
f 41//21 64//21 42//21
f 42//21 64//21 23//21
f 44//21 63//21 43//21
f 45//22 63//22 44//22
f 46//21 63//21 45//21
f 47//22 63//22 46//22
f 48//22 63//22 47//22
f 49//21 63//21 48//21
f 50//22 63//22 49//22
f 51//21 63//21 50//21
f 52//22 63//22 51//22
f 53//22 63//22 52//22
f 54//21 63//21 53//21
f 55//22 63//22 54//22
f 56//21 63//21 55//21
f 57//22 63//22 56//22
f 58//22 63//22 57//22
f 59//21 63//21 58//21
f 60//22 63//22 59//22
f 61//21 63//21 60//21
f 62//22 63//22 61//22
f 43//22 63//22 62//22
f 66//23 86//23 65//23
f 86//23 85//23 65//23
f 67//38 87//38 66//38
f 87//38 86//38 66//38
f 68//39 88//39 67//39
f 88//39 87//39 67//39
f 69//26 89//26 68//26
f 89//26 88//26 68//26
f 70//27 90//27 69//27
f 90//27 89//27 69//27
f 71//28 91//28 70//28
f 91//28 90//28 70//28
f 72//23 92//23 71//23
f 92//23 91//23 71//23
f 73//40 93//40 72//40
f 93//40 92//40 72//40
f 74//29 94//29 73//29
f 94//29 93//29 73//29
f 75//30 95//30 74//30
f 95//30 94//30 74//30
f 76//31 96//31 75//31
f 96//31 95//31 75//31
f 77//30 97//30 76//30
f 97//30 96//30 76//30
f 78//32 98//32 77//32
f 98//32 97//32 77//32
f 79//33 99//33 78//33
f 99//33 98//33 78//33
f 80//34 100//34 79//34
f 100//34 99//34 79//34
f 81//35 101//35 80//35
f 101//35 100//35 80//35
f 82//36 102//36 81//36
f 102//36 101//36 81//36
f 83//41 103//41 82//41
f 103//41 102//41 82//41
f 84//37 104//37 83//37
f 104//37 103//37 83//37
f 65//24 85//24 84//24
f 85//24 104//24 84//24
f 65//22 106//22 66//22
f 66//21 106//21 67//21
f 67//22 106//22 68//22
f 68//21 106//21 69//21
f 69//21 106//21 70//21
f 70//22 106//22 71//22
f 71//21 106//21 72//21
f 72//22 106//22 73//22
f 73//21 106//21 74//21
f 74//21 106//21 75//21
f 75//22 106//22 76//22
f 76//21 106//21 77//21
f 77//22 106//22 78//22
f 78//21 106//21 79//21
f 79//21 106//21 80//21
f 80//22 106//22 81//22
f 81//21 106//21 82//21
f 82//22 106//22 83//22
f 83//21 106//21 84//21
f 84//21 106//21 65//21
f 86//21 105//21 85//21
f 87//22 105//22 86//22
f 88//21 105//21 87//21
f 89//22 105//22 88//22
f 90//22 105//22 89//22
f 91//21 105//21 90//21
f 92//22 105//22 91//22
f 93//21 105//21 92//21
f 94//22 105//22 93//22
f 95//22 105//22 94//22
f 96//21 105//21 95//21
f 97//22 105//22 96//22
f 98//21 105//21 97//21
f 99//22 105//22 98//22
f 100//22 105//22 99//22
f 101//21 105//21 100//21
f 102//22 105//22 101//22
f 103//21 105//21 102//21
f 104//22 105//22 103//22
f 85//22 105//22 104//22
f 108//23 128//23 107//23
f 128//23 127//23 107//23
f 109//38 129//38 108//38
f 129//38 128//38 108//38
f 110//39 130//39 109//39
f 130//39 129//39 109//39
f 111//26 131//26 110//26
f 131//26 130//26 110//26
f 112//27 132//27 111//27
f 132//27 131//27 111//27
f 113//28 133//28 112//28
f 133//28 132//28 112//28
f 114//23 134//23 113//23
f 134//23 133//23 113//23
f 115//40 135//40 114//40
f 135//40 134//40 114//40
f 116//29 136//29 115//29
f 136//29 135//29 115//29
f 117//30 137//30 116//30
f 137//30 136//30 116//30
f 118//31 138//31 117//31
f 138//31 137//31 117//31
f 119//30 139//30 118//30
f 139//30 138//30 118//30
f 120//32 140//32 119//32
f 140//32 139//32 119//32
f 121//33 141//33 120//33
f 141//33 140//33 120//33
f 122//34 142//34 121//34
f 142//34 141//34 121//34
f 123//35 143//35 122//35
f 143//35 142//35 122//35
f 124//36 144//36 123//36
f 144//36 143//36 123//36
f 125//41 145//41 124//41
f 145//41 144//41 124//41
f 126//37 146//37 125//37
f 146//37 145//37 125//37
f 107//24 127//24 126//24
f 127//24 146//24 126//24
f 107//22 148//22 108//22
f 108//21 148//21 109//21
f 109//22 148//22 110//22
f 110//21 148//21 111//21
f 111//21 148//21 112//21
f 112//22 148//22 113//22
f 113//21 148//21 114//21
f 114//22 148//22 115//22
f 115//21 148//21 116//21
f 116//21 148//21 117//21
f 117//22 148//22 118//22
f 118//21 148//21 119//21
f 119//22 148//22 120//22
f 120//21 148//21 121//21
f 121//21 148//21 122//21
f 122//22 148//22 123//22
f 123//21 148//21 124//21
f 124//22 148//22 125//22
f 125//21 148//21 126//21
f 126//21 148//21 107//21
f 128//21 147//21 127//21
f 129//22 147//22 128//22
f 130//21 147//21 129//21
f 131//22 147//22 130//22
f 132//22 147//22 131//22
f 133//21 147//21 132//21
f 134//22 147//22 133//22
f 135//21 147//21 134//21
f 136//22 147//22 135//22
f 137//22 147//22 136//22
f 138//21 147//21 137//21
f 139//22 147//22 138//22
f 140//21 147//21 139//21
f 141//22 147//22 140//22
f 142//22 147//22 141//22
f 143//21 147//21 142//21
f 144//22 147//22 143//22
f 145//21 147//21 144//21
f 146//22 147//22 145//22
f 127//22 147//22 146//22
f 150//23 170//23 149//23
f 170//23 169//23 149//23
f 151//24 171//24 150//24
f 171//24 170//24 150//24
f 152//25 172//25 151//25
f 172//25 171//25 151//25
f 153//26 173//26 152//26
f 173//26 172//26 152//26
f 154//27 174//27 153//27
f 174//27 173//27 153//27
f 155//28 175//28 154//28
f 175//28 174//28 154//28
f 156//23 176//23 155//23
f 176//23 175//23 155//23
f 157//24 177//24 156//24
f 177//24 176//24 156//24
f 158//29 178//29 157//29
f 178//29 177//29 157//29
f 159//30 179//30 158//30
f 179//30 178//30 158//30
f 160//31 180//31 159//31
f 180//31 179//31 159//31
f 161//30 181//30 160//30
f 181//30 180//30 160//30
f 162//32 182//32 161//32
f 182//32 181//32 161//32
f 163//33 183//33 162//33
f 183//33 182//33 162//33
f 164//34 184//34 163//34
f 184//34 183//34 163//34
f 165//35 185//35 164//35
f 185//35 184//35 164//35
f 166//36 186//36 165//36
f 186//36 185//36 165//36
f 167//30 187//30 166//30
f 187//30 186//30 166//30
f 168//37 188//37 167//37
f 188//37 187//37 167//37
f 149//24 169//24 168//24
f 169//24 188//24 168//24
f 149//22 190//22 150//22
f 150//21 190//21 151//21
f 151//22 190//22 152//22
f 152//21 190//21 153//21
f 153//21 190//21 154//21
f 154//22 190//22 155//22
f 155//21 190//21 156//21
f 156//22 190//22 157//22
f 157//21 190//21 158//21
f 158//21 190//21 159//21
f 159//22 190//22 160//22
f 160//21 190//21 161//21
f 161//22 190//22 162//22
f 162//21 190//21 163//21
f 163//21 190//21 164//21
f 164//22 190//22 165//22
f 165//21 190//21 166//21
f 166//22 190//22 167//22
f 167//21 190//21 168//21
f 168//21 190//21 149//21
f 170//21 189//21 169//21
f 171//22 189//22 170//22
f 172//21 189//21 171//21
f 173//22 189//22 172//22
f 174//22 189//22 173//22
f 175//21 189//21 174//21
f 176//22 189//22 175//22
f 177//21 189//21 176//21
f 178//22 189//22 177//22
f 179//22 189//22 178//22
f 180//21 189//21 179//21
f 181//22 189//22 180//22
f 182//21 189//21 181//21
f 183//22 189//22 182//22
f 184//22 189//22 183//22
f 185//21 189//21 184//21
f 186//22 189//22 185//22
f 187//21 189//21 186//21
f 188//22 189//22 187//22
f 169//22 189//22 188//22
