# Blender v2.79 (sub 0) OBJ File: ''
# www.blender.org
mtllib m892.mtl
o m892
v 0.181957 -0.164568 0.019739
v 0.181957 -0.177754 -0.006636
v -0.177629 -0.177754 -0.006636
v -0.177629 -0.164568 0.019739
v 0.181957 0.162051 0.019739
v 0.181957 0.175239 -0.006636
v -0.177629 0.175239 -0.006636
v -0.177629 0.162051 0.019739
v 0.195144 -0.174216 -0.006636
v 0.188551 -0.162799 0.019739
v 0.193377 -0.157975 0.019739
v 0.204794 -0.164514 -0.006636
v 0.195144 -0.151326 0.019739
v 0.208332 -0.151326 -0.006636
v 0.195144 0.148811 0.019739
v 0.208332 0.148811 -0.006636
v 0.193377 0.155405 0.019739
v 0.204794 0.161999 -0.006636
v 0.188551 0.160284 0.019739
v 0.195144 0.171701 -0.006636
v -0.190816 -0.174216 -0.006636
v -0.184222 -0.162799 0.019739
v -0.189046 -0.157975 0.019739
v -0.200464 -0.164514 -0.006636
v -0.190816 -0.151326 0.019739
v -0.204003 -0.151326 -0.006636
v -0.190816 0.148811 0.019739
v -0.204003 0.148811 -0.006636
v -0.189046 0.155405 0.019739
v -0.200464 0.161999 -0.006636
v -0.184222 0.160284 0.019739
v -0.190816 0.171701 -0.006636
v 0.473841 -0.263201 -0.033010
v 0.473841 0.264599 -0.033010
v -0.476159 0.264599 -0.033010
v -0.476159 -0.263201 -0.033010
v -0.476159 0.264599 -0.006636
v -0.476159 -0.263201 -0.006636
v 0.473841 -0.263201 -0.006636
v 0.473841 0.264599 -0.006636
v 0.188606 0.148811 0.239012
v 0.181959 0.148811 0.238904
v 0.181959 0.155405 0.238904
v 0.181959 0.155405 0.230864
v 0.188606 0.148811 0.230864
v 0.182012 0.148811 0.230864
v 0.181959 0.155405 0.046140
v 0.188553 0.148811 0.046140
v 0.181959 0.148811 0.046140
v 0.188553 0.148811 0.037937
v 0.181959 0.148811 0.037937
v 0.181959 0.155405 0.037937
v 0.188606 -0.151326 0.239012
v 0.181959 -0.151326 0.238904
v 0.181959 -0.157973 0.238904
v 0.181959 -0.157973 0.230864
v 0.188606 -0.151326 0.230864
v 0.182012 -0.151326 0.230864
v 0.181959 -0.157973 0.046140
v 0.188553 -0.151326 0.046140
v 0.181959 -0.151326 0.046140
v 0.188553 -0.151326 0.037937
v 0.181959 -0.151326 0.037937
v 0.181959 -0.157973 0.037937
v -0.184275 0.148811 0.239012
v -0.177629 0.148811 0.238904
v -0.177629 0.155405 0.238904
v -0.177629 0.155405 0.230864
v -0.184275 0.148811 0.230864
v -0.177681 0.148811 0.230864
v -0.177629 0.155405 0.046140
v -0.184222 0.148811 0.046140
v -0.177629 0.148811 0.046140
v -0.184222 0.148811 0.037937
v -0.177629 0.148811 0.037937
v -0.177629 0.155405 0.037937
v -0.184275 -0.151326 0.239012
v -0.177629 -0.151326 0.238904
v -0.177629 -0.157973 0.238904
v -0.177629 -0.157973 0.230864
v -0.184275 -0.151326 0.230864
v -0.177681 -0.151326 0.230864
v -0.177629 -0.157973 0.046140
v -0.184222 -0.151326 0.046140
v -0.177629 -0.151326 0.046140
v -0.184222 -0.151326 0.037937
v -0.177629 -0.151326 0.037937
v -0.177629 -0.157973 0.037937
v 0.002165 0.155405 0.142307
v 0.002165 0.148811 0.142307
v -0.005124 0.155405 0.138449
v -0.005124 0.148811 0.138449
v 0.002165 0.155405 0.134534
v 0.002165 0.148811 0.134534
v 0.181959 0.155405 0.231134
v 0.009455 0.155405 0.138449
v 0.009455 0.148811 0.138449
v 0.181959 0.148811 0.231134
v -0.177629 0.148811 0.230864
v -0.177629 0.155405 0.231134
v -0.177629 0.148811 0.231134
v 0.002165 -0.157973 0.142307
v 0.002165 -0.151326 0.142307
v -0.005124 -0.157973 0.138449
v -0.005124 -0.151326 0.138449
v 0.002165 -0.157973 0.134534
v 0.002165 -0.151326 0.134534
v 0.181959 -0.157973 0.231134
v 0.009455 -0.157973 0.138449
v 0.009455 -0.151326 0.138449
v 0.181959 -0.151326 0.231134
v -0.177629 -0.151326 0.230864
v -0.177629 -0.157973 0.231134
v -0.177629 -0.151326 0.231134
v 0.188606 -0.001284 0.134534
v 0.182012 -0.001284 0.134534
v 0.188606 -0.007342 0.138449
v 0.182012 -0.007342 0.138449
v 0.188606 -0.001284 0.142362
v 0.182012 -0.151326 0.239012
v 0.182012 -0.001284 0.142362
v 0.188553 0.148811 0.045817
v 0.188606 0.004774 0.138449
v 0.182012 0.004774 0.138449
v 0.181959 0.148811 0.045817
v 0.182012 0.148811 0.239012
v 0.188606 0.148811 0.231186
v 0.182012 0.148811 0.231186
v -0.184275 -0.001284 0.134534
v -0.177681 -0.001284 0.134534
v -0.184275 -0.007342 0.138449
v -0.177681 -0.007342 0.138449
v -0.184275 -0.001284 0.142362
v -0.177681 -0.151326 0.239012
v -0.177681 -0.001284 0.142362
v -0.184222 0.148811 0.045817
v -0.184275 0.004774 0.138449
v -0.177681 0.004774 0.138449
v -0.177629 0.148811 0.045817
v -0.177681 0.148811 0.239012
v -0.184275 0.148811 0.231186
v -0.177681 0.148811 0.231186
v 0.175366 0.142218 0.250644
v 0.175366 0.142218 0.019765
v 0.181959 0.142218 0.019765
v 0.182012 0.142218 0.250644
v 0.175366 -0.144733 0.250644
v 0.182012 -0.144733 0.250644
v 0.175366 -0.144733 0.019765
v 0.181959 -0.144733 0.019765
v 0.175366 -0.151326 0.257238
v 0.175366 -0.151326 0.019765
v 0.181959 -0.151326 0.019765
v 0.182012 -0.151326 0.257238
v 0.175366 0.148811 0.257238
v 0.182012 0.148811 0.257238
v 0.175366 0.148811 0.019765
v 0.181959 0.148811 0.019765
v -0.171035 0.142218 0.250644
v -0.171035 0.142218 0.019765
v -0.177629 0.142218 0.019765
v -0.177681 0.142218 0.250644
v -0.171035 -0.144733 0.250644
v -0.177681 -0.144733 0.250644
v -0.171035 -0.144733 0.019765
v -0.177629 -0.144733 0.019765
v -0.171035 -0.151326 0.257238
v -0.171035 -0.151326 0.019765
v -0.177629 -0.151326 0.019765
v -0.177681 -0.151326 0.257238
v -0.171035 0.148811 0.257238
v -0.177681 0.148811 0.257238
v -0.171035 0.148811 0.019765
v -0.177629 0.148811 0.019765
vn 0.0000 0.8944 0.4472
vn 0.2334 -0.8698 0.4348
vn 0.2333 -0.8698 0.4348
vn 0.8702 -0.2313 0.4351
vn 0.2333 0.8697 0.4349
vn -0.2334 -0.8698 0.4348
vn -0.6371 -0.6371 0.4338
vn -0.8699 -0.2334 0.4345
vn -0.8944 0.0000 0.4472
vn -0.6405 0.6333 0.4343
vn -0.6384 0.6349 0.4351
vn -0.2331 0.8698 0.4348
vn 0.0000 0.0000 -1.0000
vn -1.0000 0.0000 0.0000
vn 0.0000 -1.0000 0.0000
vn 1.0000 0.0000 0.0000
vn 0.0000 1.0000 0.0000
vn 0.0000 -0.8944 0.4472
vn 0.6370 -0.6373 0.4337
vn 0.6386 -0.6351 0.4346
vn 0.8699 -0.2334 0.4344
vn 0.8944 0.0000 0.4472
vn 0.8698 0.2331 0.4348
vn 0.8697 0.2333 0.4349
vn 0.6404 0.6335 0.4343
vn 0.6384 0.6350 0.4351
vn 0.2331 0.8698 0.4348
vn -0.2334 -0.8697 0.4348
vn -0.6386 -0.6351 0.4346
vn -0.8701 -0.2316 0.4350
vn -0.8697 0.2335 0.4349
vn -0.8697 0.2334 0.4348
vn -0.2333 0.8697 0.4349
vn -0.0162 0.0000 0.9999
vn 0.7043 0.7099 0.0000
vn 0.0000 0.0000 1.0000
vn 0.7071 0.7071 0.0000
vn 0.7071 -0.7071 0.0000
vn 0.7099 -0.7043 0.0000
vn 0.0162 0.0000 0.9999
vn -0.7043 0.7099 0.0000
vn -0.7072 0.7071 0.0000
vn -0.7072 -0.7071 0.0000
vn -0.7100 -0.7042 0.0000
vn -0.4733 0.0000 0.8809
vn -0.4718 0.0000 0.8817
vn 0.4733 0.0000 -0.8809
vn -0.4728 0.0000 -0.8812
vn 0.4725 0.0000 0.8813
vn 0.4725 0.0000 0.8814
vn 0.0000 -0.5412 -0.8409
vn 0.0000 -0.5401 -0.8416
vn 0.0000 -0.5402 -0.8416
vn 0.0000 0.5415 0.8407
vn 0.0000 0.5409 0.8411
vn 0.0000 -0.5406 0.8413
vn 0.0000 0.5414 -0.8408
vn 1.0000 0.0004 0.0000
vn 1.0000 0.0002 -0.0003
vn 1.0000 -0.0002 0.0000
vn -1.0000 -0.0004 0.0000
vn -1.0000 -0.0002 0.0003
vn -1.0000 0.0002 0.0000
vn -1.0000 0.0004 0.0000
vn -1.0000 0.0002 -0.0003
vn -1.0000 -0.0002 0.0000
vn 1.0000 -0.0004 0.0000
vn 1.0000 -0.0002 0.0003
vn 1.0000 0.0002 0.0000
vn 1.0000 0.0000 -0.0002
vn 1.0000 -0.0002 -0.0002
vn 1.0000 0.0002 -0.0002
vn -1.0000 0.0000 -0.0002
vn -1.0000 -0.0002 -0.0002
vn -1.0000 0.0002 -0.0002
usemtl None
s off
f 6//1 7//1 5//1
f 2//2 9//2 1//2
f 10//3 1//3 9//3
f 13//4 11//4 14//4
f 6//5 5//5 20//5
f 3//6 4//6 21//6
f 23//7 24//7 22//7
f 24//8 23//8 26//8
f 25//9 27//9 26//9
f 31//10 32//10 29//10
f 30//11 29//11 32//11
f 31//12 8//12 32//12
f 21//13 24//13 6//13
f 21//13 6//13 3//13
f 2//13 3//13 6//13
f 2//13 6//13 9//13
f 12//13 6//13 14//13
f 16//13 14//13 6//13
f 36//13 35//13 33//13
f 35//14 36//14 37//14
f 38//14 37//14 36//14
f 39//15 38//15 33//15
f 40//16 39//16 34//16
f 34//17 35//17 40//17
f 37//17 40//17 35//17
f 2//18 1//18 3//18
f 4//18 3//18 1//18
f 8//1 5//1 7//1
f 11//19 10//19 12//19
f 9//20 12//20 10//20
f 12//21 14//21 11//21
f 16//22 15//22 14//22
f 13//22 14//22 15//22
f 17//23 15//23 18//23
f 16//24 18//24 15//24
f 19//25 17//25 20//25
f 18//26 20//26 17//26
f 19//27 20//27 5//27
f 22//28 21//28 4//28
f 21//29 22//29 24//29
f 25//30 26//30 23//30
f 28//9 26//9 27//9
f 29//31 30//31 27//31
f 28//32 27//32 30//32
f 7//33 32//33 8//33
f 7//13 6//13 32//13
f 30//13 32//13 6//13
f 30//13 6//13 28//13
f 26//13 28//13 6//13
f 26//13 6//13 24//13
f 12//13 9//13 6//13
f 16//13 6//13 18//13
f 20//13 18//13 6//13
f 34//13 33//13 35//13
f 36//15 33//15 38//15
f 33//16 34//16 39//16
f 42//34 41//34 43//34
f 44//35 43//35 45//35
f 41//35 45//35 43//35
f 46//13 44//13 45//13
f 48//36 47//36 49//36
f 51//13 52//13 50//13
f 48//37 50//37 47//37
f 52//37 47//37 50//37
f 54//34 55//34 53//34
f 56//38 57//38 55//38
f 53//38 55//38 57//38
f 58//13 57//13 56//13
f 60//36 61//36 59//36
f 63//13 62//13 64//13
f 60//39 59//39 62//39
f 64//39 62//39 59//39
f 66//40 67//40 65//40
f 68//41 69//41 67//41
f 65//41 67//41 69//41
f 70//13 69//13 68//13
f 72//36 73//36 71//36
f 75//13 74//13 76//13
f 72//42 71//42 74//42
f 76//42 74//42 71//42
f 78//40 77//40 79//40
f 80//43 79//43 81//43
f 77//43 81//43 79//43
f 82//13 80//13 81//13
f 84//36 83//36 85//36
f 87//13 88//13 86//13
f 84//44 86//44 83//44
f 88//44 83//44 86//44
f 43//45 89//45 42//45
f 90//45 42//45 89//45
f 91//46 71//46 92//46
f 73//46 92//46 71//46
f 76//47 93//47 75//47
f 94//47 75//47 93//47
f 96//47 95//47 97//47
f 98//47 97//47 95//47
f 52//48 51//48 68//48
f 99//48 68//48 51//48
f 67//49 66//49 47//49
f 49//49 47//49 66//49
f 93//17 76//17 91//17
f 71//17 91//17 76//17
f 95//17 96//17 43//17
f 89//17 43//17 96//17
f 100//17 67//17 52//17
f 47//17 52//17 67//17
f 94//15 92//15 75//15
f 73//15 75//15 92//15
f 98//15 42//15 97//15
f 90//15 97//15 42//15
f 101//15 51//15 66//15
f 49//15 66//15 51//15
f 55//45 54//45 102//45
f 103//45 102//45 54//45
f 104//46 105//46 83//46
f 85//46 83//46 105//46
f 88//47 87//47 106//47
f 107//47 106//47 87//47
f 109//47 110//47 108//47
f 111//47 108//47 110//47
f 64//48 80//48 63//48
f 112//48 63//48 80//48
f 79//50 59//50 78//50
f 61//49 78//49 59//49
f 106//15 104//15 88//15
f 83//15 88//15 104//15
f 108//15 55//15 109//15
f 102//15 109//15 55//15
f 113//15 64//15 79//15
f 59//15 79//15 64//15
f 107//17 87//17 105//17
f 85//17 105//17 87//17
f 111//17 110//17 54//17
f 103//17 54//17 110//17
f 114//17 78//17 63//17
f 61//17 63//17 78//17
f 50//51 115//51 51//51
f 116//51 51//51 115//51
f 117//52 57//52 118//52
f 58//53 118//53 57//53
f 53//54 119//54 120//54
f 121//54 120//54 119//54
f 123//55 122//55 124//55
f 125//55 124//55 122//55
f 41//56 126//56 60//56
f 61//56 60//56 126//56
f 62//57 63//57 127//57
f 128//57 127//57 63//57
f 53//16 57//16 119//16
f 117//16 119//16 57//16
f 48//58 123//58 50//58
f 115//59 50//59 123//59
f 62//60 45//60 60//60
f 41//60 60//60 45//60
f 120//14 121//14 58//14
f 118//14 58//14 121//14
f 49//61 51//61 124//61
f 116//62 124//62 51//62
f 63//63 61//63 46//63
f 126//63 46//63 61//63
f 74//51 75//51 129//51
f 130//51 129//51 75//51
f 131//53 132//53 81//53
f 82//52 81//52 132//52
f 77//54 134//54 133//54
f 135//54 133//54 134//54
f 137//55 138//55 136//55
f 139//55 136//55 138//55
f 65//56 84//56 140//56
f 85//56 140//56 84//56
f 86//57 141//57 87//57
f 142//57 87//57 141//57
f 77//14 133//14 81//14
f 131//14 81//14 133//14
f 72//64 74//64 137//64
f 129//65 137//65 74//65
f 86//66 84//66 69//66
f 65//66 69//66 84//66
f 134//16 82//16 135//16
f 132//16 135//16 82//16
f 73//67 138//67 75//67
f 130//68 75//68 138//68
f 87//69 70//69 85//69
f 140//69 85//69 70//69
f 144//15 145//15 143//15
f 146//15 143//15 145//15
f 143//13 146//13 147//13
f 148//13 147//13 146//13
f 147//17 148//17 149//17
f 150//17 149//17 148//17
f 152//15 153//15 151//15
f 154//15 151//15 153//15
f 151//36 154//36 155//36
f 156//36 155//36 154//36
f 155//17 156//17 157//17
f 158//17 157//17 156//17
f 152//14 151//14 149//14
f 147//14 149//14 151//14
f 151//14 155//14 147//14
f 143//14 147//14 155//14
f 155//14 157//14 143//14
f 144//14 143//14 157//14
f 153//70 150//70 154//70
f 148//71 154//71 150//71
f 154//16 148//16 156//16
f 146//16 156//16 148//16
f 156//72 146//72 158//72
f 145//70 158//70 146//70
f 160//15 159//15 161//15
f 162//15 161//15 159//15
f 159//13 163//13 162//13
f 164//13 162//13 163//13
f 163//17 165//17 164//17
f 166//17 164//17 165//17
f 168//15 167//15 169//15
f 170//15 169//15 167//15
f 167//36 171//36 170//36
f 172//36 170//36 171//36
f 171//17 173//17 172//17
f 174//17 172//17 173//17
f 168//16 165//16 167//16
f 163//16 167//16 165//16
f 167//16 163//16 171//16
f 159//16 171//16 163//16
f 171//16 159//16 173//16
f 160//16 173//16 159//16
f 169//73 170//73 166//73
f 164//74 166//74 170//74
f 170//14 172//14 164//14
f 162//14 164//14 172//14
f 172//75 174//75 162//75
f 161//73 162//73 174//73
