# Blender v2.79 (sub 0) OBJ File: ''
# www.blender.org
mtllib m893.mtl
o m893
v 0.452275 0.241407 0.554896
v -0.451550 0.241462 0.554876
v -0.451550 0.244819 0.561848
v 0.452275 0.244764 0.561869
v -0.451549 0.252365 0.563571
v 0.452275 0.252310 0.563591
v -0.451548 0.258416 0.558746
v 0.452276 0.258361 0.558766
v -0.451548 0.258417 0.551007
v 0.452276 0.258361 0.551027
v -0.451548 0.252366 0.546181
v 0.452276 0.252311 0.546201
v -0.451549 0.244821 0.547902
v 0.452275 0.244766 0.547922
v 0.443785 -0.249049 0.554896
v 0.443920 0.250660 0.554876
v 0.447278 0.250660 0.561848
v 0.447143 -0.249049 0.561869
v 0.454823 0.250658 0.563571
v 0.454688 -0.249050 0.563591
v 0.460874 0.250658 0.558746
v 0.460739 -0.249051 0.558766
v 0.460875 0.250658 0.551007
v 0.460740 -0.249051 0.551027
v 0.454824 0.250658 0.546181
v 0.454689 -0.249051 0.546201
v 0.447279 0.250659 0.547902
v 0.447144 -0.249049 0.547922
v -0.442921 0.250646 0.554896
v -0.443005 -0.249063 0.554876
v -0.446363 -0.249063 0.561848
v -0.446278 0.250646 0.561869
v -0.453908 -0.249062 0.563571
v -0.453823 0.250647 0.563591
v -0.459959 -0.249061 0.558746
v -0.459875 0.250647 0.558766
v -0.459960 -0.249061 0.551007
v -0.459875 0.250647 0.551027
v -0.453910 -0.249062 0.546181
v -0.453825 0.250647 0.546201
v -0.446364 -0.249063 0.547902
v -0.446280 0.250646 0.547922
v -0.451578 -0.241410 0.554896
v 0.452246 -0.241576 0.554876
v 0.452246 -0.244933 0.561848
v -0.451578 -0.244768 0.561869
v 0.452245 -0.252478 0.563571
v -0.451579 -0.252313 0.563591
v 0.452244 -0.258529 0.558746
v -0.451580 -0.258364 0.558766
v 0.452244 -0.258530 0.551007
v -0.451580 -0.258365 0.551027
v 0.452245 -0.252480 0.546181
v -0.451579 -0.252315 0.546201
v 0.452246 -0.244934 0.547902
v -0.451578 -0.244769 0.547922
v -0.475115 -0.273205 -0.135043
v -0.475080 0.273024 -0.135024
v 0.474885 0.272967 -0.135024
v 0.474850 -0.273262 -0.135043
v -0.465612 -0.263706 -0.135043
v -0.465581 0.263524 -0.135024
v 0.465383 0.263468 -0.135024
v 0.465351 -0.263762 -0.135043
v -0.475115 -0.273205 -0.119369
v -0.475080 0.273024 -0.119350
v 0.474885 0.272967 -0.119350
v 0.474850 -0.273262 -0.119369
v -0.451585 -0.267790 0.741316
v -0.466264 -0.260720 0.741317
v -0.469890 -0.244835 0.741317
v -0.459732 -0.232096 0.741317
v -0.443438 -0.232096 0.741317
v -0.433279 -0.244833 0.741317
v -0.436903 -0.260719 0.741317
v -0.451585 -0.267790 0.737224
v -0.466264 -0.260720 0.737225
v -0.469890 -0.244835 0.737225
v -0.459732 -0.232096 0.737225
v -0.443438 -0.232096 0.737225
v -0.433279 -0.244833 0.737225
v -0.436903 -0.260719 0.737225
v -0.451585 -0.258866 0.736506
v -0.458925 -0.255331 0.736506
v -0.460737 -0.247389 0.736506
v -0.455658 -0.241019 0.736507
v -0.447511 -0.241019 0.736507
v -0.442432 -0.247388 0.736506
v -0.444244 -0.255331 0.736506
v -0.451585 -0.258866 -0.120015
v -0.458925 -0.255331 -0.120015
v -0.460737 -0.247389 -0.120015
v -0.455658 -0.241019 -0.120015
v -0.447511 -0.241019 -0.120015
v -0.442432 -0.247388 -0.120015
v -0.444244 -0.255331 -0.120015
v 0.452251 -0.267845 0.741316
v 0.452251 -0.267845 0.737224
v 0.437571 -0.260775 0.737225
v 0.437571 -0.260775 0.741317
v 0.433946 -0.244890 0.737225
v 0.433946 -0.244890 0.741317
v 0.444104 -0.232152 0.737225
v 0.444104 -0.232152 0.741317
v 0.460398 -0.232151 0.737225
v 0.460398 -0.232151 0.741317
v 0.470557 -0.244888 0.737225
v 0.470557 -0.244888 0.741317
v 0.466933 -0.260774 0.737225
v 0.466933 -0.260774 0.741317
v 0.452251 -0.258921 0.736506
v 0.444911 -0.255386 0.736506
v 0.443099 -0.247444 0.736506
v 0.448178 -0.241075 0.736507
v 0.456324 -0.241074 0.736507
v 0.461404 -0.247443 0.736506
v 0.459592 -0.255386 0.736506
v 0.452251 -0.258921 -0.120015
v 0.444911 -0.255386 -0.120015
v 0.443099 -0.247444 -0.120015
v 0.448178 -0.241075 -0.120015
v 0.456324 -0.241074 -0.120015
v 0.461404 -0.247443 -0.120015
v 0.459592 -0.255386 -0.120015
v -0.451555 0.232092 0.741316
v -0.451555 0.232092 0.737224
v -0.466235 0.239162 0.737225
v -0.466235 0.239162 0.741317
v -0.469860 0.255047 0.737225
v -0.469860 0.255047 0.741317
v -0.459702 0.267785 0.737225
v -0.459702 0.267785 0.741317
v -0.443408 0.267786 0.737225
v -0.443408 0.267786 0.741317
v -0.433249 0.255048 0.737225
v -0.433249 0.255048 0.741317
v -0.436873 0.239163 0.737225
v -0.436873 0.239163 0.741317
v -0.451555 0.241015 0.736506
v -0.458895 0.244551 0.736506
v -0.460707 0.252493 0.736506
v -0.455628 0.258862 0.736507
v -0.447481 0.258862 0.736507
v -0.442402 0.252494 0.736506
v -0.444214 0.244551 0.736506
v -0.451555 0.241015 -0.120015
v -0.458895 0.244551 -0.120015
v -0.460707 0.252493 -0.120015
v -0.455628 0.258862 -0.120015
v -0.447481 0.258862 -0.120015
v -0.442402 0.252494 -0.120015
v -0.444214 0.244551 -0.120015
v 0.452281 0.232037 0.741316
v 0.452281 0.232037 0.737224
v 0.437601 0.239107 0.737225
v 0.437601 0.239107 0.741317
v 0.433976 0.254991 0.737225
v 0.433976 0.254991 0.741317
v 0.444134 0.267730 0.737225
v 0.444134 0.267730 0.741317
v 0.460428 0.267731 0.737225
v 0.460428 0.267731 0.741317
v 0.470587 0.254993 0.737225
v 0.470587 0.254993 0.741317
v 0.466963 0.239108 0.737225
v 0.466963 0.239108 0.741317
v 0.452281 0.240960 0.736506
v 0.444941 0.244496 0.736506
v 0.443129 0.252438 0.736506
v 0.448208 0.258807 0.736507
v 0.456354 0.258807 0.736507
v 0.461434 0.252438 0.736506
v 0.459622 0.244496 0.736506
v 0.452281 0.240960 -0.120015
v 0.444941 0.244496 -0.120015
v 0.443129 0.252438 -0.120015
v 0.448208 0.258807 -0.120015
v 0.456354 0.258807 -0.120015
v 0.461434 0.252438 -0.120015
v 0.459622 0.244496 -0.120015
v -0.465581 0.263524 -0.149274
v 0.465383 0.263468 -0.149274
v 0.465351 -0.263762 -0.149293
v -0.465612 -0.263706 -0.149293
vn -0.0001 -0.9010 0.4338
vn -0.0000 -0.2226 0.9749
vn -0.0000 -0.2225 0.9749
vn 0.0000 0.6234 0.7819
vn 0.0001 1.0000 0.0001
vn 0.0001 1.0000 0.0000
vn 0.0001 0.6235 -0.7818
vn 0.0001 0.6236 -0.7817
vn 0.0000 -0.2224 -0.9750
vn -0.0000 -0.9009 -0.4339
vn -0.9009 0.0003 0.4339
vn -0.9010 0.0003 0.4339
vn -0.2226 0.0001 0.9749
vn -0.2225 0.0001 0.9749
vn 0.6235 -0.0001 0.7819
vn 0.6234 -0.0001 0.7819
vn 1.0000 -0.0003 0.0001
vn 0.6235 -0.0002 -0.7818
vn -0.2224 0.0000 -0.9750
vn -0.9009 0.0002 -0.4339
vn 0.9009 -0.0002 0.4340
vn 0.9010 -0.0002 0.4338
vn 0.2226 -0.0001 0.9749
vn 0.2225 -0.0001 0.9749
vn -0.6235 0.0001 0.7819
vn -0.6234 0.0001 0.7819
vn -1.0000 0.0002 0.0001
vn -0.6236 0.0001 -0.7818
vn -0.6236 0.0001 -0.7817
vn 0.2224 0.0000 -0.9750
vn 0.9009 -0.0001 -0.4339
vn 0.0002 0.9010 0.4339
vn 0.0002 0.9010 0.4338
vn 0.0001 0.2226 0.9749
vn 0.0001 0.2225 0.9749
vn -0.0001 -0.6235 0.7819
vn -0.0001 -0.6234 0.7819
vn -0.0002 -1.0000 0.0001
vn -0.0001 -0.6236 -0.7818
vn -0.0001 -0.6236 -0.7817
vn 0.0000 0.2224 -0.9750
vn 0.0002 0.9010 -0.4339
vn 0.0002 0.9009 -0.4339
vn -0.0000 0.0000 -1.0000
vn -1.0000 0.0001 0.0000
vn 1.0000 -0.0001 0.0000
vn -0.0001 -1.0000 0.0000
vn 0.0000 -0.0000 1.0000
vn -0.4339 -0.9010 0.0000
vn -0.4339 -0.9009 0.0000
vn -0.9749 -0.2225 0.0000
vn -0.7819 0.6235 0.0000
vn -0.0000 1.0000 0.0000
vn 0.7818 0.6235 0.0000
vn 0.9750 -0.2224 0.0000
vn 0.4339 -0.9010 0.0000
vn -0.0386 -0.0802 -0.9960
vn -0.0835 -0.0190 -0.9963
vn -0.0640 0.0511 -0.9966
vn 0.0000 0.0803 -0.9968
vn 0.0640 0.0511 -0.9966
vn 0.0835 -0.0190 -0.9963
vn 0.0386 -0.0802 -0.9960
vn -0.7819 0.6234 0.0000
vn 0.9749 -0.2224 0.0000
vn -0.7818 0.6235 0.0000
vn -0.0001 1.0000 0.0000
vn -0.9749 -0.2224 0.0000
vn 0.7818 0.6236 0.0000
vn 0.4339 -0.9009 0.0000
vn -0.4340 -0.9009 0.0000
vn 0.4340 -0.9009 0.0000
usemtl None
s off
f 3//1 2//1 1//1
f 4//1 3//1 1//1
f 5//2 3//2 4//2
f 6//3 5//3 4//3
f 7//4 5//4 6//4
f 8//4 7//4 6//4
f 9//5 7//5 8//5
f 10//6 9//6 8//6
f 11//7 9//7 10//7
f 12//8 11//8 10//8
f 13//9 11//9 12//9
f 14//9 13//9 12//9
f 2//10 13//10 14//10
f 1//10 2//10 14//10
f 17//11 16//11 15//11
f 18//12 17//12 15//12
f 19//13 17//13 18//13
f 20//14 19//14 18//14
f 21//15 19//15 20//15
f 22//16 21//16 20//16
f 23//17 21//17 22//17
f 24//17 23//17 22//17
f 25//18 23//18 24//18
f 26//18 25//18 24//18
f 27//19 25//19 26//19
f 28//19 27//19 26//19
f 16//20 27//20 28//20
f 15//20 16//20 28//20
f 31//21 30//21 29//21
f 32//22 31//22 29//22
f 33//23 31//23 32//23
f 34//24 33//24 32//24
f 35//25 33//25 34//25
f 36//26 35//26 34//26
f 37//27 35//27 36//27
f 38//27 37//27 36//27
f 39//28 37//28 38//28
f 40//29 39//29 38//29
f 41//30 39//30 40//30
f 42//30 41//30 40//30
f 30//31 41//31 42//31
f 29//31 30//31 42//31
f 45//32 44//32 43//32
f 46//33 45//33 43//33
f 47//34 45//34 46//34
f 48//35 47//35 46//35
f 49//36 47//36 48//36
f 50//37 49//37 48//37
f 51//38 49//38 50//38
f 52//38 51//38 50//38
f 53//39 51//39 52//39
f 54//40 53//40 52//40
f 55//41 53//41 54//41
f 56//41 55//41 54//41
f 44//42 55//42 56//42
f 43//43 44//43 56//43
f 62//44 61//44 57//44
f 58//44 62//44 57//44
f 63//44 62//44 58//44
f 59//44 63//44 58//44
f 64//44 63//44 59//44
f 60//44 64//44 59//44
f 61//44 64//44 60//44
f 57//44 61//44 60//44
f 65//45 66//45 58//45
f 57//45 65//45 58//45
f 66//6 67//6 59//6
f 58//6 66//6 59//6
f 67//46 68//46 60//46
f 59//46 67//46 60//46
f 68//47 65//47 57//47
f 60//47 68//47 57//47
f 68//48 67//48 66//48
f 65//48 68//48 66//48
f 77//49 76//49 69//49
f 70//50 77//50 69//50
f 78//51 77//51 70//51
f 71//51 78//51 70//51
f 79//52 78//52 71//52
f 72//52 79//52 71//52
f 80//53 79//53 72//53
f 73//53 80//53 72//53
f 81//54 80//54 73//54
f 74//54 81//54 73//54
f 82//55 81//55 74//55
f 75//55 82//55 74//55
f 76//56 82//56 75//56
f 69//56 76//56 75//56
f 72//48 71//48 70//48
f 73//48 72//48 70//48
f 74//48 73//48 70//48
f 75//48 74//48 70//48
f 69//48 75//48 70//48
f 84//57 83//57 76//57
f 77//57 84//57 76//57
f 85//58 84//58 77//58
f 78//58 85//58 77//58
f 86//59 85//59 78//59
f 79//59 86//59 78//59
f 87//60 86//60 79//60
f 80//60 87//60 79//60
f 88//61 87//61 80//61
f 81//61 88//61 80//61
f 89//62 88//62 81//62
f 82//62 89//62 81//62
f 83//63 89//63 82//63
f 76//63 83//63 82//63
f 91//49 90//49 83//49
f 84//49 91//49 83//49
f 92//51 91//51 84//51
f 85//51 92//51 84//51
f 93//64 92//64 85//64
f 86//52 93//52 85//52
f 94//53 93//53 86//53
f 87//53 94//53 86//53
f 95//54 94//54 87//54
f 88//54 95//54 87//54
f 96//65 95//65 88//65
f 89//65 96//65 88//65
f 90//56 96//56 89//56
f 83//56 90//56 89//56
f 90//44 91//44 92//44
f 96//44 90//44 92//44
f 95//44 96//44 92//44
f 94//44 95//44 92//44
f 93//44 94//44 92//44
f 99//49 98//49 97//49
f 100//49 99//49 97//49
f 101//51 99//51 100//51
f 102//51 101//51 100//51
f 103//66 101//66 102//66
f 104//66 103//66 102//66
f 105//67 103//67 104//67
f 106//67 105//67 104//67
f 107//54 105//54 106//54
f 108//54 107//54 106//54
f 109//55 107//55 108//55
f 110//55 109//55 108//55
f 98//56 109//56 110//56
f 97//56 98//56 110//56
f 104//48 102//48 100//48
f 106//48 104//48 100//48
f 108//48 106//48 100//48
f 110//48 108//48 100//48
f 97//48 110//48 100//48
f 112//57 111//57 98//57
f 99//57 112//57 98//57
f 113//58 112//58 99//58
f 101//58 113//58 99//58
f 114//59 113//59 101//59
f 103//59 114//59 101//59
f 115//60 114//60 103//60
f 105//60 115//60 103//60
f 116//61 115//61 105//61
f 107//61 116//61 105//61
f 117//62 116//62 107//62
f 109//62 117//62 107//62
f 111//63 117//63 109//63
f 98//63 111//63 109//63
f 119//50 118//50 111//50
f 112//50 119//50 111//50
f 120//68 119//68 112//68
f 113//68 120//68 112//68
f 121//66 120//66 113//66
f 114//66 121//66 113//66
f 122//67 121//67 114//67
f 115//67 122//67 114//67
f 123//69 122//69 115//69
f 116//69 123//69 115//69
f 124//65 123//65 116//65
f 117//55 124//55 116//55
f 118//70 124//70 117//70
f 111//70 118//70 117//70
f 118//44 119//44 120//44
f 124//44 118//44 120//44
f 123//44 124//44 120//44
f 122//44 123//44 120//44
f 121//44 122//44 120//44
f 127//49 126//49 125//49
f 128//50 127//50 125//50
f 129//51 127//51 128//51
f 130//51 129//51 128//51
f 131//66 129//66 130//66
f 132//52 131//52 130//52
f 133//67 131//67 132//67
f 134//67 133//67 132//67
f 135//54 133//54 134//54
f 136//54 135//54 134//54
f 137//65 135//65 136//65
f 138//65 137//65 136//65
f 126//56 137//56 138//56
f 125//56 126//56 138//56
f 132//48 130//48 128//48
f 134//48 132//48 128//48
f 136//48 134//48 128//48
f 138//48 136//48 128//48
f 125//48 138//48 128//48
f 140//57 139//57 126//57
f 127//57 140//57 126//57
f 141//58 140//58 127//58
f 129//58 141//58 127//58
f 142//59 141//59 129//59
f 131//59 142//59 129//59
f 143//60 142//60 131//60
f 133//60 143//60 131//60
f 144//61 143//61 133//61
f 135//61 144//61 133//61
f 145//62 144//62 135//62
f 137//62 145//62 135//62
f 139//63 145//63 137//63
f 126//63 139//63 137//63
f 147//71 146//71 139//71
f 140//71 147//71 139//71
f 148//51 147//51 140//51
f 141//51 148//51 140//51
f 149//66 148//66 141//66
f 142//66 149//66 141//66
f 150//53 149//53 142//53
f 143//53 150//53 142//53
f 151//69 150//69 143//69
f 144//69 151//69 143//69
f 152//65 151//65 144//65
f 145//65 152//65 144//65
f 146//72 152//72 145//72
f 139//72 146//72 145//72
f 146//44 147//44 148//44
f 152//44 146//44 148//44
f 151//44 152//44 148//44
f 150//44 151//44 148//44
f 149//44 150//44 148//44
f 155//49 154//49 153//49
f 156//49 155//49 153//49
f 157//51 155//51 156//51
f 158//51 157//51 156//51
f 159//52 157//52 158//52
f 160//64 159//64 158//64
f 161//67 159//67 160//67
f 162//67 161//67 160//67
f 163//54 161//54 162//54
f 164//54 163//54 162//54
f 165//65 163//65 164//65
f 166//65 165//65 164//65
f 154//56 165//56 166//56
f 153//56 154//56 166//56
f 160//48 158//48 156//48
f 162//48 160//48 156//48
f 164//48 162//48 156//48
f 166//48 164//48 156//48
f 153//48 166//48 156//48
f 168//57 167//57 154//57
f 155//57 168//57 154//57
f 169//58 168//58 155//58
f 157//58 169//58 155//58
f 170//59 169//59 157//59
f 159//59 170//59 157//59
f 171//60 170//60 159//60
f 161//60 171//60 159//60
f 172//61 171//61 161//61
f 163//61 172//61 161//61
f 173//62 172//62 163//62
f 165//62 173//62 163//62
f 167//63 173//63 165//63
f 154//63 167//63 165//63
f 175//71 174//71 167//71
f 168//71 175//71 167//71
f 176//68 175//68 168//68
f 169//68 176//68 168//68
f 177//66 176//66 169//66
f 170//66 177//66 169//66
f 178//53 177//53 170//53
f 171//53 178//53 170//53
f 179//69 178//69 171//69
f 172//69 179//69 171//69
f 180//65 179//65 172//65
f 173//65 180//65 172//65
f 174//72 180//72 173//72
f 167//72 174//72 173//72
f 174//44 175//44 176//44
f 180//44 174//44 176//44
f 179//44 180//44 176//44
f 178//44 179//44 176//44
f 177//44 178//44 176//44
f 182//6 181//6 62//6
f 63//6 182//6 62//6
f 184//47 183//47 64//47
f 61//47 184//47 64//47
f 181//45 184//45 61//45
f 62//45 181//45 61//45
f 183//46 182//46 63//46
f 64//46 183//46 63//46
f 181//44 182//44 183//44
f 184//44 181//44 183//44
