# Blender v2.79 (sub 0) OBJ File: ''
# www.blender.org
mtllib m894.mtl
o m894
v 0.473960 0.475033 -0.046813
v -0.476037 0.475030 -0.046813
v 0.473963 -0.474964 -0.046813
v -0.476035 -0.474967 -0.046813
v 0.467366 -0.468367 -0.053410
v 0.467363 0.468436 -0.053410
v -0.469440 0.468433 -0.053410
v -0.469438 -0.468369 -0.053410
v 0.328488 0.287012 -0.014261
v 0.328488 0.287012 0.064905
v 0.288905 0.287012 0.064905
v 0.288905 0.287012 -0.014261
v 0.328489 -0.286945 -0.014261
v 0.328489 -0.286945 0.064905
v 0.288906 -0.286945 0.064905
v 0.288906 -0.286945 -0.014261
v -0.284344 0.287011 -0.014261
v -0.284344 0.287011 0.064905
v -0.323927 0.287011 0.064905
v -0.323927 0.287011 -0.014261
v -0.323925 -0.286946 -0.014261
v -0.323925 -0.286946 0.064905
v -0.284342 -0.286946 0.064905
v -0.284342 -0.286946 -0.014261
v -0.284618 0.326607 -0.014261
v -0.284618 0.326607 0.064905
v -0.284619 0.287024 0.064905
v -0.284619 0.287024 -0.014261
v 0.289338 0.287010 -0.014261
v 0.289338 0.287010 0.064905
v 0.289339 0.326593 0.064905
v 0.289339 0.326593 -0.014261
v -0.284631 -0.286651 -0.014261
v -0.284631 -0.286651 0.064905
v -0.284632 -0.326234 0.064905
v -0.284632 -0.326234 -0.014261
v 0.289325 -0.326247 -0.014261
v 0.289325 -0.326247 0.064905
v 0.289326 -0.286664 0.064905
v 0.289326 -0.286664 -0.014261
v 0.342447 -0.287751 -0.014108
v 0.342447 -0.287751 0.348738
v 0.289670 -0.287751 0.348738
v 0.289670 -0.287751 -0.014108
v 0.342448 -0.340528 -0.014108
v 0.342448 -0.340528 0.348738
v 0.289670 -0.340528 0.348738
v 0.289670 -0.340528 -0.014108
v -0.337718 -0.287330 -0.014108
v -0.337718 -0.287330 0.348738
v -0.284940 -0.287330 0.348738
v -0.284940 -0.287330 -0.014108
v -0.284940 -0.340107 -0.014108
v -0.284940 -0.340107 0.348738
v -0.337718 -0.340107 0.348738
v -0.337718 -0.340107 -0.014108
v 0.342445 0.339330 -0.014108
v 0.342445 0.339330 0.348738
v 0.289668 0.339330 0.348738
v 0.289668 0.339330 -0.014108
v 0.289668 0.286552 -0.014108
v 0.289668 0.286552 0.348738
v 0.342445 0.286552 0.348738
v 0.342445 0.286552 -0.014108
v -0.284942 0.339751 -0.014108
v -0.284942 0.339751 0.348738
v -0.337720 0.339751 0.348738
v -0.337720 0.339751 -0.014108
v -0.337720 0.286973 -0.014108
v -0.337720 0.286973 0.348738
v -0.284942 0.286973 0.348738
v -0.284942 0.286973 -0.014108
v 0.473960 0.475033 -0.013827
v -0.476037 0.475030 -0.013827
v 0.473963 -0.474964 -0.013827
v -0.476035 -0.474967 -0.013827
v 0.361809 -0.362812 -0.053410
v 0.361808 0.362880 -0.053410
v -0.363884 0.362878 -0.053410
v -0.363882 -0.362814 -0.053410
vn 0.7071 0.0000 -0.7071
vn -0.0000 0.7071 -0.7071
vn -0.7071 -0.0000 -0.7071
vn 0.0000 -0.7071 -0.7071
vn -1.0000 -0.0000 0.0000
vn 0.0000 0.0000 -1.0000
vn 1.0000 0.0000 0.0000
vn 0.0000 0.0000 1.0000
vn -0.0000 -1.0000 0.0000
vn 0.0000 1.0000 0.0000
usemtl None
s off
f 5//1 6//1 1//1
f 3//1 5//1 1//1
f 6//2 7//2 2//2
f 1//2 6//2 2//2
f 7//3 8//3 4//3
f 2//3 7//3 4//3
f 8//4 5//4 3//4
f 4//4 8//4 3//4
f 15//5 11//5 12//5
f 16//5 15//5 12//5
f 12//6 9//6 13//6
f 16//6 12//6 13//6
f 10//7 14//7 13//7
f 9//7 10//7 13//7
f 15//8 14//8 10//8
f 11//8 15//8 10//8
f 22//5 19//5 20//5
f 21//5 22//5 20//5
f 20//6 17//6 24//6
f 21//6 20//6 24//6
f 18//7 23//7 24//7
f 17//7 18//7 24//7
f 22//8 23//8 18//8
f 19//8 22//8 18//8
f 30//9 27//9 28//9
f 29//9 30//9 28//9
f 28//6 25//6 32//6
f 29//6 28//6 32//6
f 26//10 31//10 32//10
f 25//10 26//10 32//10
f 30//8 31//8 26//8
f 27//8 30//8 26//8
f 38//9 35//9 36//9
f 37//9 38//9 36//9
f 36//6 33//6 40//6
f 37//6 36//6 40//6
f 34//10 39//10 40//10
f 33//10 34//10 40//10
f 38//8 39//8 34//8
f 35//8 38//8 34//8
f 43//10 42//10 41//10
f 44//10 43//10 41//10
f 46//9 47//9 48//9
f 45//9 46//9 48//9
f 47//5 43//5 44//5
f 48//5 47//5 44//5
f 44//6 41//6 45//6
f 48//6 44//6 45//6
f 42//7 46//7 45//7
f 41//7 42//7 45//7
f 50//10 51//10 52//10
f 49//10 50//10 52//10
f 54//9 55//9 56//9
f 53//9 54//9 56//9
f 51//7 54//7 53//7
f 52//7 51//7 53//7
f 49//6 52//6 53//6
f 56//6 49//6 53//6
f 55//5 50//5 49//5
f 56//5 55//5 49//5
f 59//10 58//10 57//10
f 60//10 59//10 57//10
f 63//9 62//9 61//9
f 64//9 63//9 61//9
f 62//5 59//5 60//5
f 61//5 62//5 60//5
f 60//6 57//6 64//6
f 61//6 60//6 64//6
f 58//7 63//7 64//7
f 57//7 58//7 64//7
f 67//10 66//10 65//10
f 68//10 67//10 65//10
f 71//9 70//9 69//9
f 72//9 71//9 69//9
f 66//7 71//7 72//7
f 65//7 66//7 72//7
f 68//6 65//6 72//6
f 69//6 68//6 72//6
f 70//5 67//5 68//5
f 69//5 70//5 68//5
f 74//10 73//10 1//10
f 2//10 74//10 1//10
f 75//9 76//9 4//9
f 3//9 75//9 4//9
f 76//5 74//5 2//5
f 4//5 76//5 2//5
f 73//7 75//7 3//7
f 1//7 73//7 3//7
f 76//8 75//8 73//8
f 74//8 76//8 73//8
f 77//6 78//6 6//6
f 5//6 77//6 6//6
f 78//6 79//6 7//6
f 6//6 78//6 7//6
f 79//6 80//6 8//6
f 7//6 79//6 8//6
f 80//6 77//6 5//6
f 8//6 80//6 5//6
f 79//6 78//6 77//6
f 80//6 79//6 77//6
