# Blender v2.79 (sub 0) OBJ File: ''
# www.blender.org
mtllib m898.mtl
o m898
v 0.435415 0.194375 0.025747
v 0.435415 0.195774 0.028653
v 0.435415 0.198918 0.029371
v 0.435415 0.201440 0.027360
v 0.435415 0.201440 0.024136
v 0.435415 0.198918 0.022126
v 0.435415 0.195775 0.022842
v -0.435414 0.194419 0.025740
v -0.435414 0.195818 0.028645
v -0.435414 0.198961 0.029361
v -0.435414 0.201483 0.027353
v -0.435414 0.201483 0.024126
v -0.435414 0.198963 0.022116
v -0.435414 0.195818 0.022834
v -0.435413 -0.194372 0.231581
v 0.435416 -0.194370 0.231572
v 0.435416 -0.195769 0.234477
v -0.435413 -0.195771 0.234486
v 0.435416 -0.198913 0.235195
v -0.435413 -0.198916 0.235204
v 0.435416 -0.201435 0.233185
v -0.435413 -0.201437 0.233193
v 0.435416 -0.201435 0.229960
v -0.435413 -0.201437 0.229969
v 0.435416 -0.198913 0.227949
v -0.435413 -0.198916 0.227958
v 0.435416 -0.195769 0.228666
v -0.435413 -0.195772 0.228675
v -0.435413 -0.194372 0.025747
v 0.435416 -0.194370 0.025740
v 0.435416 -0.195769 0.028645
v -0.435413 -0.195771 0.028653
v 0.435416 -0.198913 0.029361
v -0.435413 -0.198916 0.029371
v 0.435416 -0.201435 0.027353
v -0.435413 -0.201437 0.027360
v 0.435416 -0.201435 0.024126
v -0.435413 -0.201437 0.024136
v 0.435416 -0.198913 0.022116
v -0.435413 -0.198916 0.022126
v 0.435416 -0.195769 0.022834
v -0.435413 -0.195772 0.022842
v -0.431889 0.197533 0.025747
v -0.431932 -0.198227 0.025740
v -0.433331 -0.198227 0.028645
v -0.433286 0.197533 0.028653
v -0.436474 -0.198227 0.029361
v -0.436431 0.197533 0.029371
v -0.438995 -0.198227 0.027353
v -0.438953 0.197534 0.027360
v -0.438995 -0.198227 0.024126
v -0.438953 0.197534 0.024136
v -0.436474 -0.198227 0.022116
v -0.436431 0.197534 0.022126
v -0.433331 -0.198227 0.022834
v -0.433288 0.197533 0.022842
v -0.431889 0.197533 0.231581
v -0.431932 -0.198227 0.231572
v -0.433331 -0.198227 0.234477
v -0.433286 0.197533 0.234486
v -0.436474 -0.198227 0.235195
v -0.436431 0.197533 0.235204
v -0.438995 -0.198227 0.233185
v -0.438953 0.197534 0.233193
v -0.438995 -0.198227 0.229960
v -0.438953 0.197534 0.229969
v -0.436474 -0.198227 0.227949
v -0.436431 0.197534 0.227958
v -0.433331 -0.198227 0.228666
v -0.433288 0.197533 0.228675
v 0.431819 -0.198197 0.231581
v 0.431842 0.197564 0.231572
v 0.433241 0.197564 0.234477
v 0.433219 -0.198197 0.234486
v 0.436384 0.197564 0.235195
v 0.436364 -0.198197 0.235204
v 0.438906 0.197564 0.233185
v 0.438885 -0.198197 0.233193
v 0.438906 0.197563 0.229960
v 0.438885 -0.198197 0.229969
v 0.436386 0.197564 0.227949
v 0.436364 -0.198197 0.227958
v 0.433241 0.197564 0.228666
v 0.433219 -0.198197 0.228675
v 0.431819 -0.198197 0.025747
v 0.431842 0.197564 0.025740
v 0.433241 0.197564 0.028645
v 0.433219 -0.198197 0.028653
v 0.436384 0.197564 0.029361
v 0.436364 -0.198197 0.029371
v 0.438906 0.197564 0.027353
v 0.438885 -0.198197 0.027360
v 0.438906 0.197563 0.024126
v 0.438885 -0.198197 0.024136
v 0.436386 0.197564 0.022116
v 0.436364 -0.198197 0.022126
v 0.433241 0.197564 0.022834
v 0.433219 -0.198197 0.022842
v 0.435415 0.194375 0.231581
v -0.435414 0.194419 0.231572
v -0.435414 0.195818 0.234477
v 0.435415 0.195774 0.234486
v -0.435414 0.198961 0.235195
v 0.435415 0.198918 0.235204
v -0.435414 0.201483 0.233185
v 0.435415 0.201440 0.233193
v -0.435414 0.201483 0.229960
v 0.435415 0.201440 0.229969
v -0.435414 0.198963 0.227949
v 0.435415 0.198918 0.227958
v -0.435414 0.195818 0.228666
v 0.435415 0.195775 0.228675
v 0.435417 0.205366 0.309258
v 0.441534 0.202421 0.309259
v 0.443044 0.195803 0.309259
v 0.438811 0.190495 0.309259
v 0.432022 0.190494 0.309259
v 0.427789 0.195801 0.309259
v 0.429299 0.202421 0.309259
v 0.435417 0.205366 0.307553
v 0.441534 0.202421 0.307554
v 0.443044 0.195803 0.307554
v 0.438811 0.190495 0.307554
v 0.432022 0.190494 0.307554
v 0.427789 0.195801 0.307554
v 0.429299 0.202421 0.307554
v 0.435417 0.201649 0.307254
v 0.438474 0.200177 0.307254
v 0.439230 0.196867 0.307254
v 0.437115 0.194213 0.307254
v 0.433720 0.194212 0.307254
v 0.431603 0.196866 0.307254
v 0.432357 0.200175 0.307254
v 0.435417 0.201649 -0.032147
v 0.438474 0.200177 -0.032147
v 0.439230 0.196867 -0.032147
v 0.437115 0.194213 -0.032147
v 0.433720 0.194212 -0.032147
v 0.431603 0.196866 -0.032147
v 0.432357 0.200175 -0.032147
v -0.435416 0.205364 0.309258
v -0.435416 0.205364 0.307553
v -0.429298 0.202419 0.307554
v -0.429298 0.202419 0.309259
v -0.427788 0.195800 0.307554
v -0.427788 0.195800 0.309259
v -0.432022 0.190492 0.307554
v -0.432022 0.190492 0.309259
v -0.438810 0.190492 0.307554
v -0.438810 0.190492 0.309259
v -0.443044 0.195799 0.307554
v -0.443044 0.195799 0.309259
v -0.441534 0.202419 0.307554
v -0.441534 0.202419 0.309259
v -0.435416 0.201647 0.307254
v -0.432358 0.200175 0.307254
v -0.431602 0.196864 0.307254
v -0.433718 0.194210 0.307254
v -0.437112 0.194210 0.307254
v -0.439230 0.196864 0.307254
v -0.438476 0.200173 0.307254
v -0.435416 0.201647 -0.032147
v -0.432358 0.200175 -0.032147
v -0.431602 0.196864 -0.032147
v -0.433718 0.194210 -0.032147
v -0.437112 0.194210 -0.032147
v -0.439230 0.196864 -0.032147
v -0.438476 0.200173 -0.032147
v 0.435418 -0.190465 0.309258
v 0.435418 -0.190465 0.307553
v 0.441535 -0.193411 0.307554
v 0.441535 -0.193411 0.309259
v 0.443045 -0.200030 0.307554
v 0.443045 -0.200030 0.309259
v 0.438812 -0.205338 0.307554
v 0.438812 -0.205338 0.309259
v 0.432023 -0.205338 0.307554
v 0.432023 -0.205338 0.309259
v 0.427790 -0.200032 0.307554
v 0.427790 -0.200032 0.309259
v 0.429300 -0.193412 0.307554
v 0.429300 -0.193412 0.309259
v 0.435418 -0.194184 0.307254
v 0.438475 -0.195656 0.307254
v 0.439231 -0.198967 0.307254
v 0.437116 -0.201621 0.307254
v 0.433721 -0.201621 0.307254
v 0.431604 -0.198967 0.307254
v 0.432358 -0.195657 0.307254
v 0.435418 -0.194184 -0.032147
v 0.438475 -0.195656 -0.032147
v 0.439231 -0.198967 -0.032147
v 0.437116 -0.201621 -0.032147
v 0.433721 -0.201621 -0.032147
v 0.431604 -0.198967 -0.032147
v 0.432358 -0.195657 -0.032147
v -0.435415 -0.190468 0.309258
v -0.435415 -0.190468 0.307553
v -0.429297 -0.193413 0.307554
v -0.429297 -0.193413 0.309259
v -0.427787 -0.200032 0.307554
v -0.427787 -0.200032 0.309259
v -0.432021 -0.205340 0.307554
v -0.432021 -0.205340 0.309259
v -0.438809 -0.205340 0.307554
v -0.438809 -0.205340 0.309259
v -0.443043 -0.200034 0.307554
v -0.443043 -0.200034 0.309259
v -0.441533 -0.193414 0.307554
v -0.441533 -0.193414 0.309259
v -0.435415 -0.194186 0.307254
v -0.432357 -0.195659 0.307254
v -0.431601 -0.198969 0.307254
v -0.433717 -0.201623 0.307254
v -0.437111 -0.201623 0.307254
v -0.439229 -0.198969 0.307254
v -0.438475 -0.195659 0.307254
v -0.435415 -0.194186 -0.032147
v -0.432357 -0.195659 -0.032147
v -0.431601 -0.198969 -0.032147
v -0.433717 -0.201623 -0.032147
v -0.437111 -0.201623 -0.032147
v -0.439229 -0.198969 -0.032147
v -0.438475 -0.195659 -0.032147
v 0.435415 0.118822 0.234970
v -0.435414 0.118811 0.234927
v -0.435414 0.121716 0.233609
v 0.435415 0.121727 0.233652
v -0.435414 0.122434 0.230649
v 0.435415 0.122445 0.230692
v -0.435414 0.120424 0.228274
v 0.435415 0.120434 0.228317
v -0.435414 0.117199 0.228274
v 0.435415 0.117210 0.228317
v -0.435414 0.115188 0.230648
v 0.435415 0.115199 0.230691
v -0.435414 0.115905 0.233608
v 0.435415 0.115916 0.233652
v 0.435415 0.039655 0.234970
v -0.435414 0.039644 0.234927
v -0.435414 0.042550 0.233609
v 0.435415 0.042560 0.233652
v -0.435414 0.043267 0.230649
v 0.435415 0.043278 0.230692
v -0.435414 0.041257 0.228274
v 0.435415 0.041268 0.228317
v -0.435414 0.038032 0.228274
v 0.435415 0.038043 0.228317
v -0.435414 0.036021 0.230648
v 0.435415 0.036032 0.230691
v -0.435414 0.036738 0.233608
v 0.435415 0.036749 0.233652
v 0.435415 -0.039512 0.234970
v -0.435413 -0.039522 0.234927
v -0.435413 -0.036617 0.233609
v 0.435415 -0.036606 0.233652
v -0.435413 -0.035899 0.230649
v 0.435415 -0.035888 0.230692
v -0.435413 -0.037909 0.228274
v 0.435415 -0.037899 0.228317
v -0.435413 -0.041134 0.228274
v 0.435415 -0.041123 0.228317
v -0.435413 -0.043145 0.230648
v 0.435415 -0.043134 0.230691
v -0.435413 -0.042428 0.233608
v 0.435415 -0.042417 0.233652
v 0.435415 -0.118678 0.234970
v -0.435413 -0.118689 0.234927
v -0.435413 -0.115783 0.233609
v 0.435415 -0.115773 0.233652
v -0.435413 -0.115066 0.230649
v 0.435415 -0.115055 0.230692
v -0.435413 -0.117076 0.228274
v 0.435415 -0.117065 0.228317
v -0.435413 -0.120301 0.228274
v 0.435415 -0.120290 0.228317
v -0.435413 -0.122312 0.230648
v 0.435415 -0.122301 0.230691
v -0.435413 -0.121595 0.233608
v 0.435415 -0.121584 0.233652
v 0.475000 0.237514 -0.046668
v 0.475000 0.237514 -0.031824
v -0.474999 0.237511 -0.031824
v -0.474999 0.237511 -0.046668
v 0.475001 -0.237485 -0.046668
v 0.475001 -0.237485 -0.031824
v -0.474998 -0.237488 -0.031824
v -0.474998 -0.237488 -0.046668
vn -0.0000 -0.9010 0.4339
vn -0.0000 -0.9010 0.4338
vn -0.0000 -0.2221 0.9750
vn -0.0000 -0.2226 0.9749
vn 0.0000 0.6229 0.7823
vn 0.0000 0.6234 0.7819
vn 0.0000 1.0000 0.0000
vn 0.0000 0.6236 -0.7818
vn 0.0000 0.6233 -0.7820
vn -0.0000 -0.2226 -0.9749
vn -0.0000 -0.2221 -0.9750
vn -0.0000 -0.9010 -0.4338
vn -0.0000 -0.9008 -0.4341
vn 0.0000 0.9010 0.4339
vn 0.0000 0.9009 0.4339
vn 0.0000 0.2225 0.9749
vn 0.0000 -0.6234 0.7819
vn 0.0000 -0.6235 0.7818
vn 0.0000 -1.0000 0.0000
vn -0.0000 -0.6235 -0.7818
vn -0.0000 0.2223 -0.9750
vn -0.0000 0.9009 -0.4340
vn -0.0000 0.9009 -0.4339
vn 0.0000 0.9009 0.4340
vn 0.0000 0.9010 0.4338
vn 0.0000 0.2220 0.9750
vn 0.0000 0.2226 0.9749
vn 0.0000 -0.6230 0.7822
vn -0.0000 -0.6233 -0.7819
vn -0.0000 0.2226 -0.9749
vn -0.0000 0.2220 -0.9750
vn -0.0000 0.9009 -0.4341
vn 0.9009 -0.0001 0.4340
vn 0.9012 -0.0001 0.4333
vn 0.2221 -0.0000 0.9750
vn 0.2226 -0.0000 0.9749
vn -0.6230 0.0000 0.7823
vn -0.6235 0.0001 0.7818
vn -1.0000 0.0001 0.0000
vn -0.6233 0.0001 -0.7820
vn 0.2227 0.0000 -0.9749
vn 0.2221 -0.0000 -0.9750
vn 0.9010 -0.0001 -0.4338
vn 0.9009 -0.0001 -0.4340
vn 0.9010 -0.0001 0.4339
vn 0.9012 -0.0001 0.4335
vn 0.2227 -0.0000 0.9749
vn 0.2225 -0.0000 0.9749
vn -0.6234 0.0001 0.7819
vn -0.6235 0.0001 -0.7818
vn 0.2224 -0.0000 -0.9750
vn -0.9010 0.0001 0.4338
vn -0.9009 0.0001 0.4341
vn -0.2226 0.0000 0.9749
vn -0.2225 0.0000 0.9749
vn 0.6233 -0.0000 0.7820
vn 0.6236 -0.0000 0.7818
vn 1.0000 -0.0001 0.0000
vn 0.6237 -0.0001 -0.7816
vn 0.6236 -0.0001 -0.7818
vn -0.2223 -0.0000 -0.9750
vn -0.9010 0.0000 -0.4338
vn -0.9009 0.0000 -0.4340
vn -0.9010 0.0001 0.4339
vn -0.9009 0.0001 0.4340
vn -0.2221 0.0000 0.9750
vn 0.6229 -0.0000 0.7823
vn 0.6236 -0.0000 0.7817
vn 0.6234 -0.0001 -0.7819
vn -0.2226 -0.0000 -0.9749
vn -0.2220 -0.0000 -0.9751
vn -0.9008 0.0000 -0.4341
vn -0.0001 -0.9010 0.4338
vn 0.0000 0.6233 0.7820
vn 0.0000 0.6237 -0.7816
vn 0.0000 0.6234 -0.7819
vn -0.0000 -0.2223 -0.9750
vn -0.0000 -0.2224 -0.9750
vn -0.0000 -0.9009 -0.4340
vn 0.4338 0.9010 0.0000
vn 0.9749 0.2224 0.0000
vn 0.9749 0.2225 0.0000
vn 0.7818 -0.6235 0.0000
vn 0.0001 -1.0000 0.0000
vn -0.7818 -0.6236 0.0000
vn -0.9750 0.2224 0.0000
vn -0.4337 0.9010 0.0000
vn 0.0386 0.0802 -0.9960
vn 0.0835 0.0190 -0.9963
vn 0.0640 -0.0510 -0.9966
vn 0.0640 -0.0511 -0.9966
vn 0.0000 -0.0803 -0.9968
vn -0.0639 -0.0511 -0.9966
vn -0.0640 -0.0511 -0.9966
vn -0.0835 0.0190 -0.9963
vn -0.0386 0.0802 -0.9960
vn 0.9749 0.2227 0.0000
vn 0.9749 0.2226 0.0000
vn 0.7821 -0.6232 0.0000
vn 0.7820 -0.6232 0.0000
vn 0.0003 -1.0000 0.0000
vn -0.9750 0.2222 0.0000
vn -0.4340 0.9009 0.0000
vn 0.4337 0.9010 0.0000
vn 0.9750 0.2224 0.0000
vn -0.7817 -0.6236 0.0000
vn -0.4338 0.9010 0.0000
vn 0.0836 0.0190 -0.9963
vn 0.7819 -0.6234 0.0000
vn 0.7820 -0.6233 0.0000
vn -0.7816 -0.6237 0.0000
vn 0.4339 0.9010 0.0000
vn -0.4339 0.9010 0.0000
vn -0.4339 0.9009 0.0000
vn -0.0836 0.0190 -0.9963
vn 0.4340 0.9009 0.0000
vn -0.9750 0.2221 0.0000
vn -0.7817 -0.6237 0.0000
vn 0.7819 -0.6233 0.0000
vn -0.0001 0.4131 0.9107
vn -0.0000 0.9718 0.2357
vn 0.0000 0.7633 -0.6460
vn 0.0000 0.7632 -0.6462
vn 0.0000 0.0000 -1.0000
vn 0.0000 -0.7630 -0.6464
vn 0.0000 -0.9719 0.2354
vn 0.0000 -0.9719 0.2353
vn -0.0000 -0.4132 0.9106
vn -0.0000 -0.4130 0.9107
vn -0.0001 0.4130 0.9107
vn -0.0000 0.4131 0.9107
vn -0.0000 0.9719 0.2354
vn -0.0000 -0.4131 0.9107
vn 0.0000 0.0000 1.0000
vn -1.0000 -0.0000 0.0000
vn 1.0000 0.0000 0.0000
usemtl None
s off
f 9//1 8//1 1//1
f 2//2 9//2 1//2
f 10//3 9//3 2//3
f 3//4 10//4 2//4
f 11//5 10//5 3//5
f 4//6 11//6 3//6
f 12//7 11//7 4//7
f 5//7 12//7 4//7
f 13//8 12//8 5//8
f 6//9 13//9 5//9
f 14//10 13//10 6//10
f 7//11 14//11 6//11
f 8//12 14//12 7//12
f 1//13 8//13 7//13
f 17//14 16//14 15//14
f 18//15 17//15 15//15
f 19//16 17//16 18//16
f 20//16 19//16 18//16
f 21//17 19//17 20//17
f 22//18 21//18 20//18
f 23//19 21//19 22//19
f 24//19 23//19 22//19
f 25//20 23//20 24//20
f 26//20 25//20 24//20
f 27//21 25//21 26//21
f 28//21 27//21 26//21
f 16//22 27//22 28//22
f 15//23 16//23 28//23
f 31//24 30//24 29//24
f 32//25 31//25 29//25
f 33//26 31//26 32//26
f 34//27 33//27 32//27
f 35//28 33//28 34//28
f 36//18 35//18 34//18
f 37//19 35//19 36//19
f 38//19 37//19 36//19
f 39//29 37//29 38//29
f 40//29 39//29 38//29
f 41//30 39//30 40//30
f 42//31 41//31 40//31
f 30//22 41//22 42//22
f 29//32 30//32 42//32
f 45//33 44//33 43//33
f 46//34 45//34 43//34
f 47//35 45//35 46//35
f 48//36 47//36 46//36
f 49//37 47//37 48//37
f 50//38 49//38 48//38
f 51//39 49//39 50//39
f 52//39 51//39 50//39
f 53//40 51//40 52//40
f 54//40 53//40 52//40
f 55//41 53//41 54//41
f 56//42 55//42 54//42
f 44//43 55//43 56//43
f 43//44 44//44 56//44
f 59//45 58//45 57//45
f 60//46 59//46 57//46
f 61//47 59//47 60//47
f 62//48 61//48 60//48
f 63//49 61//49 62//49
f 64//38 63//38 62//38
f 65//39 63//39 64//39
f 66//39 65//39 64//39
f 67//50 65//50 66//50
f 68//50 67//50 66//50
f 69//51 67//51 68//51
f 70//51 69//51 68//51
f 58//43 69//43 70//43
f 57//43 58//43 70//43
f 73//52 72//52 71//52
f 74//53 73//53 71//53
f 75//54 73//54 74//54
f 76//55 75//55 74//55
f 77//56 75//56 76//56
f 78//57 77//57 76//57
f 79//58 77//58 78//58
f 80//58 79//58 78//58
f 81//59 79//59 80//59
f 82//60 81//60 80//60
f 83//61 81//61 82//61
f 84//61 83//61 82//61
f 72//62 83//62 84//62
f 71//63 72//63 84//63
f 87//64 86//64 85//64
f 88//65 87//65 85//65
f 89//66 87//66 88//66
f 90//54 89//54 88//54
f 91//67 89//67 90//67
f 92//68 91//68 90//68
f 93//58 91//58 92//58
f 94//58 93//58 92//58
f 95//60 93//60 94//60
f 96//69 95//69 94//69
f 97//70 95//70 96//70
f 98//71 97//71 96//71
f 86//62 97//62 98//62
f 85//72 86//72 98//72
f 101//73 100//73 99//73
f 102//1 101//1 99//1
f 103//4 101//4 102//4
f 104//4 103//4 102//4
f 105//74 103//74 104//74
f 106//6 105//6 104//6
f 107//7 105//7 106//7
f 108//7 107//7 106//7
f 109//75 107//75 108//75
f 110//76 109//76 108//76
f 111//77 109//77 110//77
f 112//78 111//78 110//78
f 100//12 111//12 112//12
f 99//79 100//79 112//79
f 121//80 120//80 113//80
f 114//80 121//80 113//80
f 122//81 121//81 114//81
f 115//82 122//82 114//82
f 123//83 122//83 115//83
f 116//83 123//83 115//83
f 124//84 123//84 116//84
f 117//84 124//84 116//84
f 125//85 124//85 117//85
f 118//85 125//85 117//85
f 126//86 125//86 118//86
f 119//86 126//86 118//86
f 120//87 126//87 119//87
f 113//87 120//87 119//87
f 128//88 127//88 120//88
f 121//88 128//88 120//88
f 129//89 128//89 121//89
f 122//89 129//89 121//89
f 130//90 129//90 122//90
f 123//91 130//91 122//91
f 131//92 130//92 123//92
f 124//92 131//92 123//92
f 132//93 131//93 124//93
f 125//94 132//94 124//94
f 133//95 132//95 125//95
f 126//95 133//95 125//95
f 127//96 133//96 126//96
f 120//96 127//96 126//96
f 135//80 134//80 127//80
f 128//80 135//80 127//80
f 136//97 135//97 128//97
f 129//98 136//98 128//98
f 137//99 136//99 129//99
f 130//100 137//100 129//100
f 138//101 137//101 130//101
f 131//101 138//101 130//101
f 139//85 138//85 131//85
f 132//85 139//85 131//85
f 140//102 139//102 132//102
f 133//102 140//102 132//102
f 134//103 140//103 133//103
f 127//103 134//103 133//103
f 143//104 142//104 141//104
f 144//80 143//80 141//80
f 145//105 143//105 144//105
f 146//81 145//81 144//81
f 147//83 145//83 146//83
f 148//83 147//83 146//83
f 149//19 147//19 148//19
f 150//19 149//19 148//19
f 151//106 149//106 150//106
f 152//85 151//85 150//85
f 153//86 151//86 152//86
f 154//86 153//86 152//86
f 142//87 153//87 154//87
f 141//107 142//107 154//107
f 156//88 155//88 142//88
f 143//88 156//88 142//88
f 157//108 156//108 143//108
f 145//89 157//89 143//89
f 158//90 157//90 145//90
f 147//91 158//91 145//91
f 159//92 158//92 147//92
f 149//92 159//92 147//92
f 160//93 159//93 149//93
f 151//94 160//94 149//94
f 161//95 160//95 151//95
f 153//95 161//95 151//95
f 155//96 161//96 153//96
f 142//96 155//96 153//96
f 163//104 162//104 155//104
f 156//80 163//80 155//80
f 164//98 163//98 156//98
f 157//98 164//98 156//98
f 165//109 164//109 157//109
f 158//110 165//110 157//110
f 166//19 165//19 158//19
f 159//19 166//19 158//19
f 167//111 166//111 159//111
f 160//111 167//111 159//111
f 168//102 167//102 160//102
f 161//102 168//102 160//102
f 162//103 168//103 161//103
f 155//103 162//103 161//103
f 171//112 170//112 169//112
f 172//112 171//112 169//112
f 173//81 171//81 172//81
f 174//81 173//81 172//81
f 175//83 173//83 174//83
f 176//83 175//83 174//83
f 177//19 175//19 176//19
f 178//19 177//19 176//19
f 179//106 177//106 178//106
f 180//106 179//106 178//106
f 181//86 179//86 180//86
f 182//86 181//86 180//86
f 170//113 181//113 182//113
f 169//114 170//114 182//114
f 184//88 183//88 170//88
f 171//88 184//88 170//88
f 185//89 184//89 171//89
f 173//89 185//89 171//89
f 186//90 185//90 173//90
f 175//91 186//91 173//91
f 187//92 186//92 175//92
f 177//92 187//92 175//92
f 188//94 187//94 177//94
f 179//94 188//94 177//94
f 189//95 188//95 179//95
f 181//115 189//115 179//115
f 183//96 189//96 181//96
f 170//96 183//96 181//96
f 191//116 190//116 183//116
f 184//116 191//116 183//116
f 192//98 191//98 184//98
f 185//98 192//98 184//98
f 193//99 192//99 185//99
f 186//100 193//100 185//100
f 194//19 193//19 186//19
f 187//19 194//19 186//19
f 195//85 194//85 187//85
f 188//85 195//85 187//85
f 196//117 195//117 188//117
f 189//117 196//117 188//117
f 190//107 196//107 189//107
f 183//107 190//107 189//107
f 199//80 198//80 197//80
f 200//80 199//80 197//80
f 201//81 199//81 200//81
f 202//82 201//82 200//82
f 203//83 201//83 202//83
f 204//83 203//83 202//83
f 205//19 203//19 204//19
f 206//19 205//19 204//19
f 207//118 205//118 206//118
f 208//118 207//118 206//118
f 209//86 207//86 208//86
f 210//86 209//86 208//86
f 198//114 209//114 210//114
f 197//103 198//103 210//103
f 212//88 211//88 198//88
f 199//88 212//88 198//88
f 213//89 212//89 199//89
f 201//89 213//89 199//89
f 214//91 213//91 201//91
f 203//91 214//91 201//91
f 215//92 214//92 203//92
f 205//92 215//92 203//92
f 216//94 215//94 205//94
f 207//94 216//94 205//94
f 217//95 216//95 207//95
f 209//95 217//95 207//95
f 211//96 217//96 209//96
f 198//96 211//96 209//96
f 219//112 218//112 211//112
f 212//112 219//112 211//112
f 220//97 219//97 212//97
f 213//97 220//97 212//97
f 221//110 220//110 213//110
f 214//119 221//119 213//119
f 222//19 221//19 214//19
f 215//19 222//19 214//19
f 223//118 222//118 215//118
f 216//118 223//118 215//118
f 224//117 223//117 216//117
f 217//117 224//117 216//117
f 218//107 224//107 217//107
f 211//107 218//107 217//107
f 227//120 226//120 225//120
f 228//120 227//120 225//120
f 229//121 227//121 228//121
f 230//121 229//121 228//121
f 231//122 229//122 230//122
f 232//123 231//123 230//123
f 233//124 231//124 232//124
f 234//124 233//124 232//124
f 235//125 233//125 234//125
f 236//125 235//125 234//125
f 237//126 235//126 236//126
f 238//127 237//127 236//127
f 226//128 237//128 238//128
f 225//129 226//129 238//129
f 241//130 240//130 239//130
f 242//131 241//131 239//131
f 243//132 241//132 242//132
f 244//121 243//121 242//121
f 245//122 243//122 244//122
f 246//122 245//122 244//122
f 247//124 245//124 246//124
f 248//124 247//124 246//124
f 249//125 247//125 248//125
f 250//125 249//125 248//125
f 251//126 249//126 250//126
f 252//126 251//126 250//126
f 240//128 251//128 252//128
f 239//129 240//129 252//129
f 255//131 254//131 253//131
f 256//130 255//130 253//130
f 257//121 255//121 256//121
f 258//121 257//121 256//121
f 259//122 257//122 258//122
f 260//123 259//123 258//123
f 261//124 259//124 260//124
f 262//124 261//124 260//124
f 263//125 261//125 262//125
f 264//125 263//125 262//125
f 265//126 263//126 264//126
f 266//127 265//127 264//127
f 254//128 265//128 266//128
f 253//133 254//133 266//133
f 269//130 268//130 267//130
f 270//131 269//131 267//131
f 271//132 269//132 270//132
f 272//121 271//121 270//121
f 273//122 271//122 272//122
f 274//122 273//122 272//122
f 275//124 273//124 274//124
f 276//124 275//124 274//124
f 277//125 275//125 276//125
f 278//125 277//125 276//125
f 279//126 277//126 278//126
f 280//127 279//127 278//127
f 268//128 279//128 280//128
f 267//129 268//129 280//129
f 284//124 281//124 285//124
f 288//124 284//124 285//124
f 287//134 286//134 282//134
f 283//134 287//134 282//134
f 287//135 283//135 284//135
f 288//135 287//135 284//135
f 282//136 286//136 285//136
f 281//136 282//136 285//136
f 283//7 282//7 281//7
f 284//7 283//7 281//7
f 286//19 287//19 288//19
f 285//19 286//19 288//19
