# Blender v2.79 (sub 0) OBJ File: ''
# www.blender.org
mtllib m899.mtl
o m899
v 0.395831 0.388786 0.001631
v 0.395831 0.391584 0.007442
v 0.395831 0.397872 0.008879
v 0.395832 0.402914 0.004857
v 0.395832 0.402914 -0.001591
v 0.395832 0.397872 -0.005612
v 0.395831 0.391585 -0.004180
v -0.395824 0.388875 0.001615
v -0.395824 0.391673 0.007426
v -0.395823 0.397960 0.008859
v -0.395823 0.403003 0.004841
v -0.395823 0.403003 -0.001611
v -0.395823 0.397964 -0.005632
v -0.395824 0.391675 -0.004195
v -0.395821 -0.388706 0.650797
v 0.395834 -0.388703 0.650780
v 0.395834 -0.391502 0.656590
v -0.395821 -0.391504 0.656607
v 0.395834 -0.397791 0.658026
v -0.395821 -0.397793 0.658043
v 0.395833 -0.402834 0.654005
v -0.395821 -0.402836 0.654022
v 0.395833 -0.402834 0.647556
v -0.395821 -0.402836 0.647573
v 0.395833 -0.397791 0.643534
v -0.395821 -0.397793 0.643550
v 0.395834 -0.391503 0.644968
v -0.395821 -0.391505 0.644985
v -0.395821 -0.388706 0.001631
v 0.395834 -0.388703 0.001615
v 0.395834 -0.391502 0.007426
v -0.395821 -0.391504 0.007442
v 0.395834 -0.397791 0.008859
v -0.395821 -0.397793 0.008879
v 0.395833 -0.402834 0.004841
v -0.395821 -0.402836 0.004857
v 0.395833 -0.402834 -0.001611
v -0.395821 -0.402836 -0.001591
v 0.395833 -0.397791 -0.005632
v -0.395821 -0.397793 -0.005612
v 0.395834 -0.391503 -0.004195
v -0.395821 -0.391505 -0.004180
v -0.388773 0.395104 0.001631
v -0.388858 -0.396416 0.001615
v -0.391657 -0.396416 0.007426
v -0.391571 0.395104 0.007442
v -0.397944 -0.396416 0.008859
v -0.397859 0.395105 0.008879
v -0.402987 -0.396416 0.004841
v -0.402902 0.395105 0.004857
v -0.402987 -0.396416 -0.001611
v -0.402902 0.395105 -0.001591
v -0.397944 -0.396416 -0.005632
v -0.397859 0.395105 -0.005612
v -0.391657 -0.396416 -0.004195
v -0.391572 0.395104 -0.004180
v -0.388773 0.395104 0.650797
v -0.388858 -0.396416 0.650780
v -0.391657 -0.396416 0.656590
v -0.391571 0.395104 0.656607
v -0.397944 -0.396416 0.658026
v -0.397859 0.395105 0.658043
v -0.402987 -0.396416 0.654005
v -0.402902 0.395105 0.654022
v -0.402987 -0.396416 0.647556
v -0.402902 0.395105 0.647573
v -0.397944 -0.396416 0.643534
v -0.397859 0.395105 0.643550
v -0.391657 -0.396416 0.644968
v -0.391572 0.395104 0.644985
v 0.388643 -0.396358 0.650797
v 0.388687 0.395163 0.650780
v 0.391485 0.395163 0.656590
v 0.391441 -0.396358 0.656607
v 0.397772 0.395162 0.658026
v 0.397730 -0.396358 0.658043
v 0.402815 0.395162 0.654005
v 0.402773 -0.396358 0.654022
v 0.402815 0.395162 0.647556
v 0.402773 -0.396358 0.647573
v 0.397776 0.395162 0.643534
v 0.397730 -0.396358 0.643550
v 0.391486 0.395163 0.644968
v 0.391442 -0.396358 0.644985
v 0.388643 -0.396358 0.001631
v 0.388687 0.395163 0.001615
v 0.391485 0.395163 0.007426
v 0.391441 -0.396358 0.007442
v 0.397772 0.395162 0.008859
v 0.397730 -0.396358 0.008879
v 0.402815 0.395162 0.004841
v 0.402773 -0.396358 0.004857
v 0.402815 0.395162 -0.001611
v 0.402773 -0.396358 -0.001591
v 0.397776 0.395162 -0.005632
v 0.397730 -0.396358 -0.005612
v 0.391486 0.395163 -0.004195
v 0.391442 -0.396358 -0.004180
v 0.395831 0.388786 0.650797
v -0.395824 0.388875 0.650780
v -0.395824 0.391673 0.656590
v 0.395831 0.391584 0.656607
v -0.395823 0.397960 0.658026
v 0.395831 0.397872 0.658043
v -0.395823 0.403003 0.654005
v 0.395832 0.402914 0.654022
v -0.395823 0.403003 0.647556
v 0.395832 0.402914 0.647573
v -0.395823 0.397964 0.643534
v 0.395832 0.397872 0.643550
v -0.395824 0.391675 0.644968
v 0.395831 0.391585 0.644985
v 0.395836 0.410768 0.806152
v 0.408071 0.404878 0.806152
v 0.411092 0.391641 0.806153
v 0.402625 0.381025 0.806153
v 0.389048 0.381023 0.806153
v 0.380581 0.391638 0.806153
v 0.383601 0.404878 0.806152
v 0.395836 0.410768 0.802742
v 0.408071 0.404878 0.802742
v 0.411092 0.391641 0.802742
v 0.402625 0.381025 0.802743
v 0.389048 0.381023 0.802743
v 0.380581 0.391638 0.802742
v 0.383601 0.404878 0.802742
v 0.395836 0.403334 0.802143
v 0.401952 0.400389 0.802143
v 0.403464 0.393769 0.802144
v 0.399232 0.388461 0.802144
v 0.392442 0.388460 0.802144
v 0.388209 0.393767 0.802144
v 0.389719 0.400385 0.802143
v 0.395836 0.403334 -0.114158
v 0.401952 0.400389 -0.114158
v 0.403464 0.393769 -0.114158
v 0.399232 0.388461 -0.114158
v 0.392442 0.388460 -0.114158
v 0.388209 0.393767 -0.114158
v 0.389719 0.400385 -0.114158
v -0.395828 0.410766 0.806152
v -0.395828 0.410766 0.802742
v -0.383595 0.404876 0.802742
v -0.383595 0.404876 0.806152
v -0.380573 0.391639 0.802742
v -0.380573 0.391639 0.806153
v -0.389038 0.381022 0.802743
v -0.389038 0.381022 0.806153
v -0.402617 0.381021 0.802743
v -0.402617 0.381021 0.806153
v -0.411084 0.391636 0.802742
v -0.411084 0.391636 0.806153
v -0.408064 0.404876 0.802742
v -0.408064 0.404876 0.806152
v -0.395828 0.403332 0.802143
v -0.389712 0.400387 0.802143
v -0.388201 0.393767 0.802144
v -0.392433 0.388459 0.802144
v -0.399221 0.388458 0.802144
v -0.403456 0.393765 0.802144
v -0.401948 0.400383 0.802143
v -0.395828 0.403332 -0.114158
v -0.389712 0.400387 -0.114158
v -0.388201 0.393767 -0.114158
v -0.392433 0.388459 -0.114158
v -0.399221 0.388458 -0.114158
v -0.403456 0.393765 -0.114158
v -0.401948 0.400383 -0.114158
v 0.395838 -0.380895 0.806152
v 0.395838 -0.380895 0.802742
v 0.408073 -0.386786 0.802742
v 0.408073 -0.386786 0.806152
v 0.411094 -0.400023 0.802742
v 0.411094 -0.400023 0.806153
v 0.402627 -0.410639 0.802743
v 0.402627 -0.410639 0.806153
v 0.389050 -0.410640 0.802743
v 0.389050 -0.410640 0.806153
v 0.380583 -0.400027 0.802742
v 0.380583 -0.400027 0.806153
v 0.383603 -0.386788 0.802742
v 0.383603 -0.386788 0.806152
v 0.395838 -0.388332 0.802143
v 0.401954 -0.391277 0.802143
v 0.403466 -0.397898 0.802144
v 0.399235 -0.403206 0.802144
v 0.392444 -0.403206 0.802144
v 0.388211 -0.397898 0.802144
v 0.389721 -0.391278 0.802143
v 0.395838 -0.388332 -0.114158
v 0.401954 -0.391277 -0.114158
v 0.403466 -0.397898 -0.114158
v 0.399235 -0.403206 -0.114158
v 0.392444 -0.403206 -0.114158
v 0.388211 -0.397898 -0.114158
v 0.389721 -0.391278 -0.114158
v -0.395826 -0.380897 0.806152
v -0.395826 -0.380897 0.802742
v -0.383593 -0.386788 0.802742
v -0.383593 -0.386788 0.806152
v -0.380571 -0.400025 0.802742
v -0.380571 -0.400025 0.806153
v -0.389036 -0.410642 0.802743
v -0.389036 -0.410642 0.806153
v -0.402615 -0.410642 0.802743
v -0.402615 -0.410642 0.806153
v -0.411082 -0.400029 0.802742
v -0.411082 -0.400029 0.806153
v -0.408062 -0.386791 0.802742
v -0.408062 -0.386791 0.806152
v -0.395826 -0.388334 0.802143
v -0.389709 -0.391279 0.802143
v -0.388199 -0.397900 0.802144
v -0.392431 -0.403208 0.802144
v -0.399218 -0.403208 0.802144
v -0.403454 -0.397900 0.802144
v -0.401946 -0.391280 0.802143
v -0.395826 -0.388334 -0.114158
v -0.389709 -0.391279 -0.114158
v -0.388199 -0.397900 -0.114158
v -0.392431 -0.403208 -0.114158
v -0.399218 -0.403208 -0.114158
v -0.403454 -0.397900 -0.114158
v -0.401946 -0.391280 -0.114158
v 0.395831 0.237679 0.657575
v -0.395824 0.237660 0.657489
v -0.395824 0.243471 0.654853
v 0.395831 0.243489 0.654940
v -0.395823 0.244906 0.648932
v 0.395831 0.244925 0.649019
v -0.395822 0.240885 0.644183
v 0.395832 0.240904 0.644270
v -0.395822 0.234436 0.644183
v 0.395832 0.234455 0.644269
v -0.395823 0.230414 0.648931
v 0.395832 0.230433 0.649017
v -0.395823 0.231848 0.654852
v 0.395832 0.231867 0.654939
v 0.395832 0.079346 0.657575
v -0.395823 0.079327 0.657489
v -0.395823 0.085138 0.654853
v 0.395832 0.085156 0.654940
v -0.395822 0.086573 0.648932
v 0.395832 0.086592 0.649019
v -0.395822 0.082553 0.644183
v 0.395833 0.082571 0.644270
v -0.395822 0.076103 0.644183
v 0.395833 0.076122 0.644269
v -0.395822 0.072081 0.648931
v 0.395833 0.072100 0.649017
v -0.395823 0.073515 0.654852
v 0.395832 0.073534 0.654939
v 0.395832 -0.078987 0.657575
v -0.395823 -0.079006 0.657489
v -0.395823 -0.073195 0.654853
v 0.395832 -0.073176 0.654940
v -0.395822 -0.071760 0.648932
v 0.395832 -0.071741 0.649019
v -0.395822 -0.075780 0.644183
v 0.395833 -0.075761 0.644270
v -0.395822 -0.082230 0.644183
v 0.395833 -0.082211 0.644269
v -0.395822 -0.086252 0.648931
v 0.395833 -0.086233 0.649017
v -0.395822 -0.084818 0.654852
v 0.395832 -0.084799 0.654939
v 0.395832 -0.237320 0.657575
v -0.395822 -0.237339 0.657489
v -0.395822 -0.231528 0.654853
v 0.395832 -0.231509 0.654940
v -0.395822 -0.230093 0.648932
v 0.395833 -0.230074 0.649019
v -0.395821 -0.234113 0.644183
v 0.395834 -0.234094 0.644270
v -0.395821 -0.240563 0.644183
v 0.395834 -0.240544 0.644269
v -0.395821 -0.244585 0.648931
v 0.395834 -0.244566 0.649017
v -0.395822 -0.243151 0.654852
v 0.395833 -0.243132 0.654939
v 0.475002 0.475063 -0.143200
v 0.475002 0.475063 -0.113512
v -0.474995 0.475060 -0.113512
v -0.474995 0.475060 -0.143200
v 0.475005 -0.474934 -0.143200
v 0.475005 -0.474934 -0.113512
v -0.474993 -0.474937 -0.113512
v -0.474993 -0.474937 -0.143200
vn -0.0001 -0.9010 0.4338
vn -0.0000 -0.2222 0.9750
vn -0.0000 -0.2228 0.9749
vn 0.0000 0.6231 0.7821
vn 0.0001 0.6236 0.7817
vn 0.0001 1.0000 0.0000
vn 0.0001 0.6237 -0.7816
vn 0.0001 0.6235 -0.7818
vn -0.0000 -0.2228 -0.9749
vn -0.0000 -0.2221 -0.9750
vn -0.0001 -0.9008 -0.4341
vn -0.0001 -0.9009 -0.4340
vn 0.0000 0.9009 0.4340
vn 0.0000 0.9010 0.4339
vn 0.0000 0.2226 0.9749
vn 0.0000 -0.6234 0.7819
vn 0.0000 -1.0000 0.0000
vn -0.0000 -0.6235 -0.7818
vn -0.0000 -0.6236 -0.7817
vn -0.0000 0.2224 -0.9750
vn -0.0000 0.2225 -0.9749
vn -0.0000 0.9009 -0.4340
vn -0.0000 0.9010 -0.4339
vn 0.0000 0.9010 0.4338
vn 0.0000 0.2222 0.9750
vn 0.0000 0.2227 0.9749
vn 0.0000 -0.6232 0.7821
vn 0.0000 -0.6235 0.7818
vn -0.0000 -0.6234 -0.7819
vn -0.0000 0.2228 -0.9749
vn -0.0000 0.2220 -0.9750
vn -0.0000 0.9008 -0.4341
vn 0.9009 -0.0001 0.4340
vn 0.9010 -0.0001 0.4338
vn 0.2222 -0.0000 0.9750
vn 0.2228 -0.0000 0.9749
vn -0.6232 0.0000 0.7821
vn -0.6235 0.0001 0.7818
vn -1.0000 0.0001 0.0000
vn -0.6234 0.0001 -0.7819
vn 0.2228 0.0000 -0.9749
vn 0.2221 -0.0000 -0.9750
vn 0.9009 -0.0001 -0.4340
vn 0.9010 -0.0001 0.4339
vn 0.2227 -0.0000 0.9749
vn 0.2226 -0.0000 0.9749
vn -0.6234 0.0001 0.7819
vn -0.6236 0.0001 -0.7818
vn -0.6236 0.0001 -0.7817
vn 0.2224 -0.0000 -0.9750
vn 0.2225 -0.0000 -0.9749
vn 0.9010 -0.0001 -0.4339
vn -0.9010 0.0001 0.4339
vn -0.2227 0.0000 0.9749
vn -0.2226 0.0000 0.9749
vn 0.6234 -0.0000 0.7819
vn 1.0000 -0.0001 0.0000
vn 0.6238 -0.0000 -0.7816
vn 0.6236 -0.0001 -0.7817
vn -0.2223 -0.0000 -0.9750
vn -0.2225 -0.0000 -0.9749
vn -0.9010 0.0000 -0.4339
vn -0.9010 0.0001 0.4338
vn -0.2222 0.0000 0.9750
vn 0.6231 -0.0000 0.7821
vn 0.6235 -0.0000 0.7818
vn 0.6237 -0.0001 -0.7816
vn 0.6234 -0.0001 -0.7819
vn -0.2227 -0.0000 -0.9749
vn -0.2221 -0.0000 -0.9750
vn -0.9009 0.0000 -0.4340
vn -0.0001 -0.9010 0.4339
vn -0.0000 -0.2227 0.9749
vn -0.0000 -0.2226 0.9749
vn 0.0001 0.6234 0.7819
vn 0.0001 0.6235 0.7818
vn 0.0001 0.6238 -0.7816
vn 0.0001 0.6237 -0.7817
vn -0.0000 -0.2223 -0.9750
vn -0.0000 -0.2225 -0.9749
vn -0.0001 -0.9010 -0.4339
vn 0.4338 0.9010 0.0000
vn 0.9749 0.2225 0.0000
vn 0.7818 -0.6235 0.0000
vn 0.0001 -1.0000 0.0000
vn -0.7818 -0.6236 0.0000
vn -0.9750 0.2224 0.0000
vn -0.4338 0.9010 0.0000
vn -0.4337 0.9010 0.0000
vn 0.0386 0.0802 -0.9960
vn 0.0835 0.0190 -0.9963
vn 0.0640 -0.0510 -0.9966
vn 0.0640 -0.0511 -0.9966
vn 0.0000 -0.0803 -0.9968
vn -0.0640 -0.0511 -0.9966
vn -0.0835 0.0190 -0.9963
vn -0.0386 0.0801 -0.9960
vn -0.0386 0.0802 -0.9960
vn 0.9749 0.2227 0.0000
vn 0.7819 -0.6234 0.0000
vn -0.9749 0.2225 0.0000
vn -0.9749 0.2224 0.0000
vn -0.4343 0.9008 0.0000
vn 0.9749 0.2226 0.0000
vn -0.0639 -0.0511 -0.9966
vn -0.7816 -0.6237 0.0000
vn -0.9750 0.2222 0.0000
vn -0.4341 0.9009 0.0000
vn -0.7817 -0.6237 0.0000
vn -0.4339 0.9009 0.0000
vn 0.7820 -0.6233 0.0000
vn -0.7818 -0.6235 0.0000
vn -0.4339 0.9010 0.0000
vn 0.4339 0.9010 0.0000
vn -0.7817 -0.6236 0.0000
vn -0.4340 0.9009 0.0000
vn 0.9750 0.2224 0.0000
vn -0.9750 0.2221 0.0000
vn -0.0001 0.4131 0.9107
vn -0.0001 0.4130 0.9107
vn -0.0000 0.9719 0.2355
vn -0.0000 0.9718 0.2357
vn 0.0001 0.7632 -0.6462
vn 0.0001 0.0000 -1.0000
vn 0.0001 0.0001 -1.0000
vn 0.0001 -0.7630 -0.6464
vn -0.0000 -0.9719 0.2354
vn -0.0001 -0.4132 0.9107
vn -0.0001 -0.4131 0.9107
vn 0.0001 0.7633 -0.6461
vn -0.0000 -0.9719 0.2353
vn -0.0001 -0.4130 0.9107
vn 0.0000 0.0000 1.0000
vn 0.0000 0.0000 -1.0000
vn -0.0000 1.0000 0.0000
vn -1.0000 -0.0000 0.0000
vn 1.0000 0.0000 0.0000
usemtl None
s off
f 9//1 8//1 1//1
f 2//1 9//1 1//1
f 10//2 9//2 2//2
f 3//3 10//3 2//3
f 11//4 10//4 3//4
f 4//5 11//5 3//5
f 12//6 11//6 4//6
f 5//6 12//6 4//6
f 13//7 12//7 5//7
f 6//8 13//8 5//8
f 14//9 13//9 6//9
f 7//10 14//10 6//10
f 8//11 14//11 7//11
f 1//12 8//12 7//12
f 17//13 16//13 15//13
f 18//14 17//14 15//14
f 19//15 17//15 18//15
f 20//15 19//15 18//15
f 21//16 19//16 20//16
f 22//16 21//16 20//16
f 23//17 21//17 22//17
f 24//17 23//17 22//17
f 25//18 23//18 24//18
f 26//19 25//19 24//19
f 27//20 25//20 26//20
f 28//21 27//21 26//21
f 16//22 27//22 28//22
f 15//23 16//23 28//23
f 31//13 30//13 29//13
f 32//24 31//24 29//24
f 33//25 31//25 32//25
f 34//26 33//26 32//26
f 35//27 33//27 34//27
f 36//28 35//28 34//28
f 37//17 35//17 36//17
f 38//17 37//17 36//17
f 39//29 37//29 38//29
f 40//29 39//29 38//29
f 41//30 39//30 40//30
f 42//31 41//31 40//31
f 30//32 41//32 42//32
f 29//22 30//22 42//22
f 45//33 44//33 43//33
f 46//34 45//34 43//34
f 47//35 45//35 46//35
f 48//36 47//36 46//36
f 49//37 47//37 48//37
f 50//38 49//38 48//38
f 51//39 49//39 50//39
f 52//39 51//39 50//39
f 53//40 51//40 52//40
f 54//40 53//40 52//40
f 55//41 53//41 54//41
f 56//42 55//42 54//42
f 44//43 55//43 56//43
f 43//43 44//43 56//43
f 59//33 58//33 57//33
f 60//44 59//44 57//44
f 61//45 59//45 60//45
f 62//46 61//46 60//46
f 63//47 61//47 62//47
f 64//47 63//47 62//47
f 65//39 63//39 64//39
f 66//39 65//39 64//39
f 67//48 65//48 66//48
f 68//49 67//49 66//49
f 69//50 67//50 68//50
f 70//51 69//51 68//51
f 58//52 69//52 70//52
f 57//52 58//52 70//52
f 73//53 72//53 71//53
f 74//53 73//53 71//53
f 75//54 73//54 74//54
f 76//55 75//55 74//55
f 77//56 75//56 76//56
f 78//56 77//56 76//56
f 79//57 77//57 78//57
f 80//57 79//57 78//57
f 81//58 79//58 80//58
f 82//59 81//59 80//59
f 83//60 81//60 82//60
f 84//61 83//61 82//61
f 72//62 83//62 84//62
f 71//62 72//62 84//62
f 87//63 86//63 85//63
f 88//63 87//63 85//63
f 89//64 87//64 88//64
f 90//54 89//54 88//54
f 91//65 89//65 90//65
f 92//66 91//66 90//66
f 93//57 91//57 92//57
f 94//57 93//57 92//57
f 95//67 93//67 94//67
f 96//68 95//68 94//68
f 97//69 95//69 96//69
f 98//70 97//70 96//70
f 86//71 97//71 98//71
f 85//71 86//71 98//71
f 101//72 100//72 99//72
f 102//72 101//72 99//72
f 103//73 101//73 102//73
f 104//74 103//74 102//74
f 105//75 103//75 104//75
f 106//76 105//76 104//76
f 107//6 105//6 106//6
f 108//6 107//6 106//6
f 109//77 107//77 108//77
f 110//78 109//78 108//78
f 111//79 109//79 110//79
f 112//80 111//80 110//80
f 100//12 111//12 112//12
f 99//81 100//81 112//81
f 121//82 120//82 113//82
f 114//82 121//82 113//82
f 122//83 121//83 114//83
f 115//83 122//83 114//83
f 123//84 122//84 115//84
f 116//84 123//84 115//84
f 124//85 123//85 116//85
f 117//85 124//85 116//85
f 125//86 124//86 117//86
f 118//86 125//86 117//86
f 126//87 125//87 118//87
f 119//87 126//87 118//87
f 120//88 126//88 119//88
f 113//89 120//89 119//89
f 128//90 127//90 120//90
f 121//90 128//90 120//90
f 129//91 128//91 121//91
f 122//91 129//91 121//91
f 130//92 129//92 122//92
f 123//93 130//93 122//93
f 131//94 130//94 123//94
f 124//94 131//94 123//94
f 132//95 131//95 124//95
f 125//95 132//95 124//95
f 133//96 132//96 125//96
f 126//96 133//96 125//96
f 127//97 133//97 126//97
f 120//98 127//98 126//98
f 135//82 134//82 127//82
f 128//82 135//82 127//82
f 136//99 135//99 128//99
f 129//99 136//99 128//99
f 137//100 136//100 129//100
f 130//100 137//100 129//100
f 138//85 137//85 130//85
f 131//85 138//85 130//85
f 139//86 138//86 131//86
f 132//86 139//86 131//86
f 140//101 139//101 132//101
f 133//102 140//102 132//102
f 134//103 140//103 133//103
f 127//103 134//103 133//103
f 143//82 142//82 141//82
f 144//82 143//82 141//82
f 145//104 143//104 144//104
f 146//104 145//104 144//104
f 147//100 145//100 146//100
f 148//100 147//100 146//100
f 149//85 147//85 148//85
f 150//85 149//85 148//85
f 151//86 149//86 150//86
f 152//86 151//86 150//86
f 153//87 151//87 152//87
f 154//87 153//87 152//87
f 142//88 153//88 154//88
f 141//89 142//89 154//89
f 156//90 155//90 142//90
f 143//90 156//90 142//90
f 157//91 156//91 143//91
f 145//91 157//91 143//91
f 158//92 157//92 145//92
f 147//92 158//92 145//92
f 159//94 158//94 147//94
f 149//94 159//94 147//94
f 160//105 159//105 149//105
f 151//95 160//95 149//95
f 161//96 160//96 151//96
f 153//96 161//96 151//96
f 155//97 161//97 153//97
f 142//98 155//98 153//98
f 163//82 162//82 155//82
f 156//82 163//82 155//82
f 164//83 163//83 156//83
f 157//83 164//83 156//83
f 165//100 164//100 157//100
f 158//100 165//100 157//100
f 166//85 165//85 158//85
f 159//85 166//85 158//85
f 167//106 166//106 159//106
f 160//106 167//106 159//106
f 168//107 167//107 160//107
f 161//107 168//107 160//107
f 162//108 168//108 161//108
f 155//108 162//108 161//108
f 171//82 170//82 169//82
f 172//82 171//82 169//82
f 173//83 171//83 172//83
f 174//83 173//83 172//83
f 175//84 173//84 174//84
f 176//84 175//84 174//84
f 177//17 175//17 176//17
f 178//17 177//17 176//17
f 179//109 177//109 178//109
f 180//109 179//109 178//109
f 181//87 179//87 180//87
f 182//87 181//87 180//87
f 170//110 181//110 182//110
f 169//110 170//110 182//110
f 184//90 183//90 170//90
f 171//90 184//90 170//90
f 185//91 184//91 171//91
f 173//91 185//91 171//91
f 186//93 185//93 173//93
f 175//93 186//93 173//93
f 187//94 186//94 175//94
f 177//94 187//94 175//94
f 188//95 187//95 177//95
f 179//95 188//95 177//95
f 189//96 188//96 179//96
f 181//96 189//96 179//96
f 183//98 189//98 181//98
f 170//98 183//98 181//98
f 191//82 190//82 183//82
f 184//82 191//82 183//82
f 192//104 191//104 184//104
f 185//104 192//104 184//104
f 193//111 192//111 185//111
f 186//111 193//111 185//111
f 194//17 193//17 186//17
f 187//17 194//17 186//17
f 195//112 194//112 187//112
f 188//112 195//112 187//112
f 196//87 195//87 188//87
f 189//87 196//87 188//87
f 190//113 196//113 189//113
f 183//113 190//113 189//113
f 199//114 198//114 197//114
f 200//114 199//114 197//114
f 201//104 199//104 200//104
f 202//104 201//104 200//104
f 203//100 201//100 202//100
f 204//100 203//100 202//100
f 205//17 203//17 204//17
f 206//17 205//17 204//17
f 207//109 205//109 206//109
f 208//115 207//115 206//115
f 209//102 207//102 208//102
f 210//87 209//87 208//87
f 198//116 209//116 210//116
f 197//116 198//116 210//116
f 212//90 211//90 198//90
f 199//90 212//90 198//90
f 213//91 212//91 199//91
f 201//91 213//91 199//91
f 214//93 213//93 201//93
f 203//93 214//93 201//93
f 215//94 214//94 203//94
f 205//94 215//94 203//94
f 216//105 215//105 205//105
f 207//95 216//95 205//95
f 217//96 216//96 207//96
f 209//96 217//96 207//96
f 211//98 217//98 209//98
f 198//98 211//98 209//98
f 219//82 218//82 211//82
f 212//82 219//82 211//82
f 220//117 219//117 212//117
f 213//117 220//117 212//117
f 221//100 220//100 213//100
f 214//100 221//100 213//100
f 222//17 221//17 214//17
f 215//17 222//17 214//17
f 223//106 222//106 215//106
f 216//106 223//106 215//106
f 224//118 223//118 216//118
f 217//118 224//118 216//118
f 218//89 224//89 217//89
f 211//89 218//89 217//89
f 227//119 226//119 225//119
f 228//120 227//120 225//120
f 229//121 227//121 228//121
f 230//122 229//122 228//122
f 231//123 229//123 230//123
f 232//123 231//123 230//123
f 233//124 231//124 232//124
f 234//125 233//125 232//125
f 235//126 233//126 234//126
f 236//126 235//126 234//126
f 237//127 235//127 236//127
f 238//127 237//127 236//127
f 226//128 237//128 238//128
f 225//129 226//129 238//129
f 241//119 240//119 239//119
f 242//120 241//120 239//120
f 243//121 241//121 242//121
f 244//122 243//122 242//122
f 245//130 243//130 244//130
f 246//123 245//123 244//123
f 247//124 245//124 246//124
f 248//125 247//125 246//125
f 249//126 247//126 248//126
f 250//126 249//126 248//126
f 251//127 249//127 250//127
f 252//127 251//127 250//127
f 240//128 251//128 252//128
f 239//129 240//129 252//129
f 255//119 254//119 253//119
f 256//120 255//120 253//120
f 257//121 255//121 256//121
f 258//121 257//121 256//121
f 259//130 257//130 258//130
f 260//130 259//130 258//130
f 261//124 259//124 260//124
f 262//125 261//125 260//125
f 263//126 261//126 262//126
f 264//126 263//126 262//126
f 265//127 263//127 264//127
f 266//131 265//131 264//131
f 254//128 265//128 266//128
f 253//132 254//132 266//132
f 269//119 268//119 267//119
f 270//120 269//120 267//120
f 271//121 269//121 270//121
f 272//121 271//121 270//121
f 273//130 271//130 272//130
f 274//130 273//130 272//130
f 275//124 273//124 274//124
f 276//125 275//125 274//125
f 277//126 275//126 276//126
f 278//126 277//126 276//126
f 279//127 277//127 278//127
f 280//131 279//131 278//131
f 268//128 279//128 280//128
f 267//132 268//132 280//132
f 287//133 286//133 282//133
f 283//133 287//133 282//133
f 285//134 288//134 284//134
f 281//134 285//134 284//134
f 283//135 282//135 281//135
f 284//135 283//135 281//135
f 286//17 287//17 288//17
f 285//17 286//17 288//17
f 287//136 283//136 284//136
f 288//136 287//136 284//136
f 282//137 286//137 285//137
f 281//137 282//137 285//137
