# Blender v2.79 (sub 0) OBJ File: ''
# www.blender.org
mtllib m900.mtl
o m900
v 0.435414 0.135011 -0.024573
v 0.435414 0.136411 -0.021667
v 0.435414 0.139555 -0.020949
v 0.435414 0.142076 -0.022960
v 0.435414 0.142076 -0.026184
v 0.435414 0.139555 -0.028195
v 0.435414 0.136411 -0.027478
v -0.435414 0.135055 -0.024581
v -0.435414 0.136454 -0.021675
v -0.435414 0.139598 -0.020957
v -0.435414 0.142119 -0.022968
v -0.435414 0.142120 -0.026192
v -0.435414 0.139599 -0.028205
v -0.435414 0.136455 -0.027486
v -0.435414 -0.134986 0.418761
v 0.435415 -0.134984 0.418752
v 0.435415 -0.136383 0.421657
v -0.435414 -0.136386 0.421666
v 0.435415 -0.139527 0.422375
v -0.435414 -0.139529 0.422384
v 0.435415 -0.142048 0.420365
v -0.435414 -0.142051 0.420373
v 0.435415 -0.142049 0.417140
v -0.435414 -0.142051 0.417149
v 0.435415 -0.139528 0.415129
v -0.435414 -0.139530 0.415138
v 0.435415 -0.136384 0.415846
v -0.435414 -0.136386 0.415855
v -0.435414 -0.134986 -0.024573
v 0.435415 -0.134984 -0.024581
v 0.435415 -0.136383 -0.021675
v -0.435414 -0.136386 -0.021667
v 0.435415 -0.139527 -0.020957
v -0.435414 -0.139529 -0.020949
v 0.435415 -0.142048 -0.022968
v -0.435414 -0.142051 -0.022960
v 0.435415 -0.142049 -0.026192
v -0.435414 -0.142051 -0.026184
v 0.435415 -0.139528 -0.028205
v -0.435414 -0.139530 -0.028195
v 0.435415 -0.136384 -0.027486
v -0.435414 -0.136386 -0.027478
v -0.431889 0.138169 -0.024573
v -0.431932 -0.138842 -0.024581
v -0.433331 -0.138842 -0.021675
v -0.433287 0.138169 -0.021667
v -0.436474 -0.138841 -0.020957
v -0.436432 0.138170 -0.020949
v -0.438996 -0.138841 -0.022968
v -0.438953 0.138170 -0.022960
v -0.438996 -0.138841 -0.026192
v -0.438953 0.138170 -0.026184
v -0.436474 -0.138841 -0.028205
v -0.436432 0.138170 -0.028195
v -0.433331 -0.138842 -0.027486
v -0.433289 0.138169 -0.027478
v -0.431889 0.138169 0.418761
v -0.431932 -0.138842 0.418752
v -0.433331 -0.138842 0.421657
v -0.433287 0.138169 0.421666
v -0.436474 -0.138841 0.422375
v -0.436432 0.138170 0.422384
v -0.438996 -0.138841 0.420365
v -0.438953 0.138170 0.420373
v -0.438996 -0.138841 0.417140
v -0.438953 0.138170 0.417149
v -0.436474 -0.138841 0.415129
v -0.436432 0.138170 0.415138
v -0.433331 -0.138842 0.415846
v -0.433289 0.138169 0.415855
v 0.431818 -0.138811 0.418761
v 0.431841 0.138200 0.418752
v 0.433241 0.138200 0.421657
v 0.433218 -0.138811 0.421666
v 0.436384 0.138200 0.422375
v 0.436363 -0.138811 0.422384
v 0.438905 0.138200 0.420365
v 0.438884 -0.138811 0.420373
v 0.438905 0.138200 0.417140
v 0.438884 -0.138811 0.417149
v 0.436386 0.138200 0.415129
v 0.436363 -0.138811 0.415138
v 0.433241 0.138200 0.415846
v 0.433218 -0.138811 0.415855
v 0.431818 -0.138811 -0.024573
v 0.431841 0.138200 -0.024581
v 0.433241 0.138200 -0.021675
v 0.433218 -0.138811 -0.021667
v 0.436384 0.138200 -0.020957
v 0.436363 -0.138811 -0.020949
v 0.438905 0.138200 -0.022968
v 0.438884 -0.138811 -0.022960
v 0.438905 0.138200 -0.026192
v 0.438884 -0.138811 -0.026184
v 0.436386 0.138200 -0.028205
v 0.436363 -0.138811 -0.028195
v 0.433241 0.138200 -0.027486
v 0.433218 -0.138811 -0.027478
v 0.435414 0.135011 0.418761
v -0.435414 0.135055 0.418752
v -0.435414 0.136454 0.421657
v 0.435414 0.136411 0.421666
v -0.435414 0.139598 0.422375
v 0.435414 0.139555 0.422384
v -0.435414 0.142119 0.420365
v 0.435414 0.142076 0.420373
v -0.435414 0.142120 0.417140
v 0.435414 0.142076 0.417149
v -0.435414 0.139599 0.415129
v 0.435414 0.139555 0.415138
v -0.435414 0.136455 0.415846
v 0.435414 0.136411 0.415855
v 0.435416 0.146003 0.496438
v 0.441533 0.143058 0.496438
v 0.443044 0.136439 0.496439
v 0.438810 0.131131 0.496439
v 0.432022 0.131130 0.496439
v 0.427788 0.136438 0.496439
v 0.429298 0.143057 0.496438
v 0.435416 0.146003 0.494733
v 0.441533 0.143058 0.494733
v 0.443044 0.136439 0.494733
v 0.438810 0.131131 0.494734
v 0.432022 0.131130 0.494734
v 0.427788 0.136438 0.494733
v 0.429298 0.143057 0.494733
v 0.435416 0.142285 0.494434
v 0.438474 0.140812 0.494434
v 0.439230 0.137503 0.494434
v 0.437114 0.134849 0.494434
v 0.433720 0.134848 0.494434
v 0.431602 0.137502 0.494434
v 0.432356 0.140812 0.494434
v 0.435416 0.142285 -0.082467
v 0.438474 0.140812 -0.082467
v 0.439230 0.137503 -0.082467
v 0.437114 0.134849 -0.082467
v 0.433720 0.134848 -0.082467
v 0.431602 0.137502 -0.082467
v 0.432356 0.140812 -0.082467
v -0.435416 0.146001 0.496438
v -0.435416 0.146001 0.494733
v -0.429299 0.143055 0.494733
v -0.429299 0.143055 0.496438
v -0.427788 0.136437 0.494733
v -0.427788 0.136437 0.496439
v -0.432022 0.131129 0.494734
v -0.432022 0.131129 0.496439
v -0.438810 0.131128 0.494734
v -0.438810 0.131128 0.496439
v -0.443044 0.136435 0.494733
v -0.443044 0.136435 0.496439
v -0.441534 0.143054 0.494733
v -0.441534 0.143054 0.496438
v -0.435416 0.142283 0.494434
v -0.432358 0.140810 0.494434
v -0.431602 0.137501 0.494434
v -0.433718 0.134847 0.494434
v -0.437112 0.134846 0.494434
v -0.439230 0.137500 0.494434
v -0.438476 0.140809 0.494434
v -0.435416 0.142283 -0.082467
v -0.432358 0.140810 -0.082467
v -0.431602 0.137501 -0.082467
v -0.433718 0.134847 -0.082467
v -0.437112 0.134846 -0.082467
v -0.439230 0.137500 -0.082467
v -0.438476 0.140809 -0.082467
v 0.435417 -0.131080 0.496438
v 0.435417 -0.131080 0.494733
v 0.441534 -0.134025 0.494733
v 0.441534 -0.134025 0.496438
v 0.443044 -0.140644 0.494733
v 0.443044 -0.140644 0.496439
v 0.438811 -0.145952 0.494734
v 0.438811 -0.145952 0.496439
v 0.432022 -0.145953 0.494734
v 0.432022 -0.145953 0.496439
v 0.427789 -0.140646 0.494733
v 0.427789 -0.140646 0.496439
v 0.429299 -0.134026 0.494733
v 0.429299 -0.134026 0.496438
v 0.435417 -0.134798 0.494434
v 0.438474 -0.136271 0.494434
v 0.439230 -0.139580 0.494434
v 0.437115 -0.142234 0.494434
v 0.433720 -0.142235 0.494434
v 0.431603 -0.139581 0.494434
v 0.432357 -0.136271 0.494434
v 0.435417 -0.134798 -0.082467
v 0.438474 -0.136271 -0.082467
v 0.439230 -0.139580 -0.082467
v 0.437115 -0.142234 -0.082467
v 0.433720 -0.142235 -0.082467
v 0.431603 -0.139581 -0.082467
v 0.432357 -0.136271 -0.082467
v -0.435416 -0.131082 0.496438
v -0.435416 -0.131082 0.494733
v -0.429298 -0.134028 0.494733
v -0.429298 -0.134028 0.496438
v -0.427788 -0.140646 0.494733
v -0.427788 -0.140646 0.496439
v -0.432021 -0.145955 0.494734
v -0.432021 -0.145955 0.496439
v -0.438810 -0.145955 0.494734
v -0.438810 -0.145955 0.496439
v -0.443043 -0.140648 0.494733
v -0.443043 -0.140648 0.496439
v -0.441533 -0.134029 0.494733
v -0.441533 -0.134029 0.496438
v -0.435416 -0.134800 0.494434
v -0.432358 -0.136273 0.494434
v -0.431602 -0.139582 0.494434
v -0.433717 -0.142237 0.494434
v -0.437112 -0.142237 0.494434
v -0.439229 -0.139583 0.494434
v -0.438475 -0.136274 0.494434
v -0.435416 -0.134800 -0.082467
v -0.432358 -0.136273 -0.082467
v -0.431602 -0.139582 -0.082467
v -0.433717 -0.142237 -0.082467
v -0.437112 -0.142237 -0.082467
v -0.439229 -0.139583 -0.082467
v -0.438475 -0.136274 -0.082467
v 0.435414 0.083109 0.422149
v -0.435414 0.083098 0.422106
v -0.435414 0.086004 0.420789
v 0.435414 0.086015 0.420832
v -0.435414 0.086722 0.417828
v 0.435414 0.086732 0.417872
v -0.435414 0.084711 0.415454
v 0.435414 0.084722 0.415497
v -0.435414 0.081486 0.415454
v 0.435414 0.081497 0.415497
v -0.435414 0.079475 0.417828
v 0.435414 0.079486 0.417871
v -0.435414 0.080192 0.420788
v 0.435414 0.080203 0.420832
v 0.435414 0.027693 0.422149
v -0.435414 0.027682 0.422106
v -0.435414 0.030587 0.420789
v 0.435414 0.030598 0.420832
v -0.435414 0.031305 0.417828
v 0.435414 0.031316 0.417872
v -0.435414 0.029295 0.415454
v 0.435414 0.029305 0.415497
v -0.435414 0.026070 0.415454
v 0.435414 0.026081 0.415497
v -0.435414 0.024059 0.417828
v 0.435414 0.024070 0.417871
v -0.435414 0.024776 0.420788
v 0.435414 0.024787 0.420832
v 0.435414 -0.027724 0.422149
v -0.435414 -0.027735 0.422106
v -0.435414 -0.024829 0.420789
v 0.435414 -0.024819 0.420832
v -0.435414 -0.024112 0.417828
v 0.435414 -0.024101 0.417872
v -0.435414 -0.026122 0.415454
v 0.435414 -0.026111 0.415497
v -0.435414 -0.029347 0.415454
v 0.435414 -0.029336 0.415497
v -0.435414 -0.031358 0.417828
v 0.435414 -0.031347 0.417871
v -0.435414 -0.030641 0.420788
v 0.435414 -0.030630 0.420832
v 0.435414 -0.083141 0.422149
v -0.435414 -0.083151 0.422106
v -0.435414 -0.080246 0.420789
v 0.435414 -0.080235 0.420832
v -0.435414 -0.079528 0.417828
v 0.435414 -0.079517 0.417872
v -0.435414 -0.081539 0.415454
v 0.435414 -0.081528 0.415497
v -0.435414 -0.084763 0.415454
v 0.435414 -0.084753 0.415497
v -0.435414 -0.086774 0.417828
v 0.435414 -0.086764 0.417871
v -0.435414 -0.086057 0.420788
v 0.435414 -0.086047 0.420832
v 0.474999 0.178150 -0.096987
v -0.475000 0.178148 -0.096987
v 0.475000 -0.178100 -0.096987
v -0.474999 -0.178102 -0.096987
v 0.474999 0.178150 -0.082143
v -0.475000 0.178148 -0.082143
v 0.475000 -0.178100 -0.082143
v -0.474999 -0.178102 -0.082143
vn -0.0000 -0.9010 0.4338
vn -0.0000 -0.9009 0.4340
vn -0.0000 -0.2226 0.9749
vn 0.0000 0.6236 0.7817
vn 0.0000 1.0000 0.0003
vn 0.0001 1.0000 0.0000
vn 0.0000 0.6240 -0.7814
vn 0.0000 0.6236 -0.7817
vn -0.0000 -0.2229 -0.9748
vn -0.0000 -0.2223 -0.9750
vn -0.0000 -0.9008 -0.4341
vn 0.0000 0.9010 0.4339
vn 0.0000 0.9009 0.4340
vn 0.0000 0.2226 0.9749
vn 0.0000 -0.6234 0.7819
vn 0.0000 -0.6235 0.7818
vn 0.0000 -1.0000 0.0001
vn -0.0000 -0.6236 -0.7818
vn -0.0000 -0.6236 -0.7817
vn -0.0000 0.2223 -0.9750
vn -0.0000 0.9010 -0.4339
vn -0.0000 0.9009 -0.4339
vn 0.0000 0.9010 0.4338
vn 0.0000 0.2227 0.9749
vn -0.0000 -0.6240 -0.7815
vn -0.0000 0.2229 -0.9748
vn -0.0000 0.9009 -0.4340
vn -0.0000 0.9009 -0.4341
vn 0.9010 -0.0002 0.4339
vn 0.9012 -0.0002 0.4333
vn 0.2227 -0.0001 0.9749
vn 0.2226 -0.0001 0.9749
vn -0.6235 0.0001 0.7818
vn -1.0000 0.0002 0.0000
vn -0.6239 0.0001 -0.7815
vn -0.6235 0.0001 -0.7818
vn 0.2230 0.0000 -0.9748
vn 0.2224 -0.0000 -0.9750
vn 0.9009 -0.0001 -0.4340
vn 0.9012 -0.0002 0.4335
vn 0.2225 -0.0001 0.9749
vn -0.6234 0.0001 0.7819
vn 0.2224 -0.0000 -0.9749
vn 0.9010 -0.0001 -0.4339
vn 0.9010 -0.0001 -0.4338
vn -0.9009 0.0001 0.4341
vn -0.9008 0.0001 0.4341
vn -0.2226 0.0000 0.9749
vn -0.2225 0.0000 0.9749
vn 0.6235 -0.0000 0.7818
vn 0.6236 -0.0000 0.7818
vn 1.0000 -0.0001 0.0000
vn 0.6239 -0.0001 -0.7815
vn 0.6236 -0.0001 -0.7818
vn -0.2223 -0.0000 -0.9750
vn -0.9009 0.0001 -0.4340
vn -0.9009 0.0001 0.4340
vn -0.2227 0.0000 0.9749
vn 0.6236 -0.0000 0.7817
vn 0.6243 -0.0001 -0.7812
vn -0.2229 -0.0000 -0.9748
vn -0.9008 0.0001 -0.4341
vn -0.0000 -0.9008 0.4341
vn 0.0000 0.6235 0.7818
vn 0.0000 0.6236 0.7818
vn -0.0000 -0.9009 -0.4340
vn 0.4338 0.9010 0.0000
vn 0.9749 0.2226 0.0000
vn 0.7817 -0.6236 0.0000
vn 0.7818 -0.6236 0.0000
vn 0.0001 -1.0000 0.0000
vn -0.7817 -0.6236 0.0000
vn -0.7818 -0.6236 0.0000
vn -0.9750 0.2224 0.0000
vn -0.4338 0.9010 0.0000
vn -0.4339 0.9010 0.0000
vn 0.0387 0.0802 -0.9960
vn 0.0386 0.0802 -0.9960
vn 0.0835 0.0191 -0.9963
vn 0.0835 0.0190 -0.9963
vn 0.0640 -0.0511 -0.9966
vn 0.0000 -0.0803 -0.9968
vn -0.0639 -0.0511 -0.9966
vn -0.0640 -0.0511 -0.9966
vn -0.0835 0.0190 -0.9963
vn -0.0386 0.0802 -0.9960
vn 0.4340 0.9009 0.0000
vn 0.9749 0.2227 0.0000
vn 0.9749 0.2228 0.0000
vn 0.7819 -0.6234 0.0000
vn 0.0003 -1.0000 0.0000
vn -0.7816 -0.6238 0.0000
vn -0.7816 -0.6237 0.0000
vn -0.9750 0.2221 0.0000
vn -0.4337 0.9010 0.0000
vn 0.4339 0.9010 0.0000
vn 0.9749 0.2225 0.0000
vn 0.7818 -0.6235 0.0000
vn -0.9749 0.2224 0.0000
vn -0.4340 0.9009 0.0000
vn -0.7817 -0.6237 0.0000
vn -0.9750 0.2222 0.0000
vn 0.9749 0.2224 0.0000
vn 0.7819 -0.6235 0.0000
vn -0.7818 -0.6235 0.0000
vn -0.4339 0.9009 0.0000
vn 0.0640 -0.0510 -0.9966
vn -0.0836 0.0190 -0.9963
vn 0.7820 -0.6232 0.0000
vn 0.4339 0.9009 0.0000
vn 0.7820 -0.6233 0.0000
vn -0.0001 0.4129 0.9108
vn -0.0001 0.4130 0.9107
vn -0.0000 0.9718 0.2357
vn -0.0000 0.9719 0.2354
vn 0.0000 0.7630 -0.6464
vn 0.0000 0.7633 -0.6460
vn 0.0000 0.0000 -1.0000
vn 0.0000 -0.7630 -0.6464
vn 0.0000 -0.9719 0.2354
vn 0.0000 -0.9719 0.2353
vn -0.0000 -0.4132 0.9106
vn -0.0000 -0.4130 0.9107
vn -0.0001 0.4131 0.9107
vn 0.0000 0.7632 -0.6462
vn -0.0000 0.4131 0.9107
vn -0.0000 0.9719 0.2353
vn 0.0000 0.0000 1.0000
vn -0.0000 1.0000 0.0000
vn 0.0000 -1.0000 0.0000
vn -1.0000 -0.0000 0.0000
vn 1.0000 0.0000 0.0000
usemtl None
s off
f 9//1 8//1 1//1
f 2//2 9//2 1//2
f 10//3 9//3 2//3
f 3//3 10//3 2//3
f 11//4 10//4 3//4
f 4//4 11//4 3//4
f 12//5 11//5 4//5
f 5//6 12//6 4//6
f 13//7 12//7 5//7
f 6//8 13//8 5//8
f 14//9 13//9 6//9
f 7//10 14//10 6//10
f 8//11 14//11 7//11
f 1//11 8//11 7//11
f 17//12 16//12 15//12
f 18//13 17//13 15//13
f 19//14 17//14 18//14
f 20//14 19//14 18//14
f 21//15 19//15 20//15
f 22//16 21//16 20//16
f 23//17 21//17 22//17
f 24//17 23//17 22//17
f 25//18 23//18 24//18
f 26//19 25//19 24//19
f 27//20 25//20 26//20
f 28//20 27//20 26//20
f 16//21 27//21 28//21
f 15//22 16//22 28//22
f 31//23 30//23 29//23
f 32//23 31//23 29//23
f 33//24 31//24 32//24
f 34//24 33//24 32//24
f 35//16 33//16 34//16
f 36//16 35//16 34//16
f 37//17 35//17 36//17
f 38//17 37//17 36//17
f 39//25 37//25 38//25
f 40//19 39//19 38//19
f 41//26 39//26 40//26
f 42//20 41//20 40//20
f 30//27 41//27 42//27
f 29//28 30//28 42//28
f 45//29 44//29 43//29
f 46//30 45//30 43//30
f 47//31 45//31 46//31
f 48//32 47//32 46//32
f 49//33 47//33 48//33
f 50//33 49//33 48//33
f 51//34 49//34 50//34
f 52//34 51//34 50//34
f 53//35 51//35 52//35
f 54//36 53//36 52//36
f 55//37 53//37 54//37
f 56//38 55//38 54//38
f 44//39 55//39 56//39
f 43//39 44//39 56//39
f 59//29 58//29 57//29
f 60//40 59//40 57//40
f 61//31 59//31 60//31
f 62//41 61//41 60//41
f 63//42 61//42 62//42
f 64//33 63//33 62//33
f 65//34 63//34 64//34
f 66//34 65//34 64//34
f 67//36 65//36 66//36
f 68//36 67//36 66//36
f 69//38 67//38 68//38
f 70//43 69//43 68//43
f 58//44 69//44 70//44
f 57//45 58//45 70//45
f 73//46 72//46 71//46
f 74//47 73//47 71//47
f 75//48 73//48 74//48
f 76//49 75//49 74//49
f 77//50 75//50 76//50
f 78//51 77//51 76//51
f 79//52 77//52 78//52
f 80//52 79//52 78//52
f 81//53 79//53 80//53
f 82//54 81//54 80//54
f 83//55 81//55 82//55
f 84//55 83//55 82//55
f 72//56 83//56 84//56
f 71//56 72//56 84//56
f 87//57 86//57 85//57
f 88//57 87//57 85//57
f 89//58 87//58 88//58
f 90//48 89//48 88//48
f 91//59 89//59 90//59
f 92//51 91//51 90//51
f 93//52 91//52 92//52
f 94//52 93//52 92//52
f 95//60 93//60 94//60
f 96//54 95//54 94//54
f 97//61 95//61 96//61
f 98//55 97//55 96//55
f 86//62 97//62 98//62
f 85//62 86//62 98//62
f 101//1 100//1 99//1
f 102//63 101//63 99//63
f 103//3 101//3 102//3
f 104//3 103//3 102//3
f 105//64 103//64 104//64
f 106//65 105//65 104//65
f 107//5 105//5 106//5
f 108//6 107//6 106//6
f 109//8 107//8 108//8
f 110//8 109//8 108//8
f 111//10 109//10 110//10
f 112//10 111//10 110//10
f 100//66 111//66 112//66
f 99//66 100//66 112//66
f 121//67 120//67 113//67
f 114//67 121//67 113//67
f 122//68 121//68 114//68
f 115//68 122//68 114//68
f 123//69 122//69 115//69
f 116//70 123//70 115//70
f 124//71 123//71 116//71
f 117//71 124//71 116//71
f 125//72 124//72 117//72
f 118//73 125//73 117//73
f 126//74 125//74 118//74
f 119//74 126//74 118//74
f 120//75 126//75 119//75
f 113//76 120//76 119//76
f 128//77 127//77 120//77
f 121//78 128//78 120//78
f 129//79 128//79 121//79
f 122//80 129//80 121//80
f 130//81 129//81 122//81
f 123//81 130//81 122//81
f 131//82 130//82 123//82
f 124//82 131//82 123//82
f 132//83 131//83 124//83
f 125//84 132//84 124//84
f 133//85 132//85 125//85
f 126//85 133//85 125//85
f 127//86 133//86 126//86
f 120//86 127//86 126//86
f 135//87 134//87 127//87
f 128//87 135//87 127//87
f 136//88 135//88 128//88
f 129//89 136//89 128//89
f 137//90 136//90 129//90
f 130//90 137//90 129//90
f 138//91 137//91 130//91
f 131//91 138//91 130//91
f 139//92 138//92 131//92
f 132//93 139//93 131//93
f 140//94 139//94 132//94
f 133//94 140//94 132//94
f 134//95 140//95 133//95
f 127//95 134//95 133//95
f 143//96 142//96 141//96
f 144//96 143//96 141//96
f 145//97 143//97 144//97
f 146//97 145//97 144//97
f 147//70 145//70 146//70
f 148//98 147//98 146//98
f 149//71 147//71 148//71
f 150//71 149//71 148//71
f 151//72 149//72 150//72
f 152//72 151//72 150//72
f 153//99 151//99 152//99
f 154//99 153//99 152//99
f 142//100 153//100 154//100
f 141//100 142//100 154//100
f 156//78 155//78 142//78
f 143//78 156//78 142//78
f 157//80 156//80 143//80
f 145//80 157//80 143//80
f 158//81 157//81 145//81
f 147//81 158//81 145//81
f 159//82 158//82 147//82
f 149//82 159//82 147//82
f 160//83 159//83 149//83
f 151//84 160//84 149//84
f 161//85 160//85 151//85
f 153//85 161//85 151//85
f 155//86 161//86 153//86
f 142//86 155//86 153//86
f 163//87 162//87 155//87
f 156//87 163//87 155//87
f 164//89 163//89 156//89
f 157//89 164//89 156//89
f 165//90 164//90 157//90
f 158//90 165//90 157//90
f 166//91 165//91 158//91
f 159//91 166//91 158//91
f 167//101 166//101 159//101
f 160//101 167//101 159//101
f 168//102 167//102 160//102
f 161//94 168//94 160//94
f 162//100 168//100 161//100
f 155//100 162//100 161//100
f 171//96 170//96 169//96
f 172//96 171//96 169//96
f 173//103 171//103 172//103
f 174//103 173//103 172//103
f 175//98 173//98 174//98
f 176//104 175//104 174//104
f 177//71 175//71 176//71
f 178//71 177//71 176//71
f 179//73 177//73 178//73
f 180//105 179//105 178//105
f 181//74 179//74 180//74
f 182//99 181//99 180//99
f 170//106 181//106 182//106
f 169//106 170//106 182//106
f 184//78 183//78 170//78
f 171//78 184//78 170//78
f 185//80 184//80 171//80
f 173//80 185//80 171//80
f 186//107 185//107 173//107
f 175//81 186//81 173//81
f 187//82 186//82 175//82
f 177//82 187//82 175//82
f 188//84 187//84 177//84
f 179//84 188//84 177//84
f 189//85 188//85 179//85
f 181//108 189//108 179//108
f 183//86 189//86 181//86
f 170//86 183//86 181//86
f 191//87 190//87 183//87
f 184//87 191//87 183//87
f 192//88 191//88 184//88
f 185//88 192//88 184//88
f 193//109 192//109 185//109
f 186//109 193//109 185//109
f 194//71 193//71 186//71
f 187//71 194//71 186//71
f 195//72 194//72 187//72
f 188//72 195//72 187//72
f 196//94 195//94 188//94
f 189//94 196//94 188//94
f 190//75 196//75 189//75
f 183//75 190//75 189//75
f 199//67 198//67 197//67
f 200//67 199//67 197//67
f 201//97 199//97 200//97
f 202//103 201//103 200//103
f 203//70 201//70 202//70
f 204//98 203//98 202//98
f 205//71 203//71 204//71
f 206//71 205//71 204//71
f 207//72 205//72 206//72
f 208//73 207//73 206//73
f 209//99 207//99 208//99
f 210//99 209//99 208//99
f 198//106 209//106 210//106
f 197//100 198//100 210//100
f 212//78 211//78 198//78
f 199//78 212//78 198//78
f 213//80 212//80 199//80
f 201//80 213//80 199//80
f 214//81 213//81 201//81
f 203//81 214//81 201//81
f 215//82 214//82 203//82
f 205//82 215//82 203//82
f 216//83 215//83 205//83
f 207//84 216//84 205//84
f 217//85 216//85 207//85
f 209//108 217//108 207//108
f 211//86 217//86 209//86
f 198//86 211//86 209//86
f 219//110 218//110 211//110
f 212//96 219//96 211//96
f 220//88 219//88 212//88
f 213//88 220//88 212//88
f 221//111 220//111 213//111
f 214//111 221//111 213//111
f 222//71 221//71 214//71
f 215//71 222//71 214//71
f 223//92 222//92 215//92
f 216//93 223//93 215//93
f 224//94 223//94 216//94
f 217//94 224//94 216//94
f 218//75 224//75 217//75
f 211//75 218//75 217//75
f 227//112 226//112 225//112
f 228//113 227//113 225//113
f 229//114 227//114 228//114
f 230//115 229//115 228//115
f 231//116 229//116 230//116
f 232//117 231//117 230//117
f 233//118 231//118 232//118
f 234//118 233//118 232//118
f 235//119 233//119 234//119
f 236//119 235//119 234//119
f 237//120 235//120 236//120
f 238//121 237//121 236//121
f 226//122 237//122 238//122
f 225//123 226//123 238//123
f 241//124 240//124 239//124
f 242//124 241//124 239//124
f 243//114 241//114 242//114
f 244//114 243//114 242//114
f 245//125 243//125 244//125
f 246//125 245//125 244//125
f 247//118 245//118 246//118
f 248//118 247//118 246//118
f 249//119 247//119 248//119
f 250//119 249//119 248//119
f 251//120 249//120 250//120
f 252//121 251//121 250//121
f 240//122 251//122 252//122
f 239//123 240//123 252//123
f 255//112 254//112 253//112
f 256//126 255//126 253//126
f 257//127 255//127 256//127
f 258//114 257//114 256//114
f 259//125 257//125 258//125
f 260//117 259//117 258//117
f 261//118 259//118 260//118
f 262//118 261//118 260//118
f 263//119 261//119 262//119
f 264//119 263//119 262//119
f 265//120 263//120 264//120
f 266//121 265//121 264//121
f 254//122 265//122 266//122
f 253//123 254//123 266//123
f 269//126 268//126 267//126
f 270//113 269//113 267//113
f 271//114 269//114 270//114
f 272//114 271//114 270//114
f 273//116 271//116 272//116
f 274//125 273//125 272//125
f 275//118 273//118 274//118
f 276//118 275//118 274//118
f 277//119 275//119 276//119
f 278//119 277//119 276//119
f 279//120 277//120 278//120
f 280//121 279//121 278//121
f 268//122 279//122 280//122
f 267//123 268//123 280//123
f 282//118 281//118 283//118
f 284//118 282//118 283//118
f 288//128 287//128 285//128
f 286//128 288//128 285//128
f 286//129 285//129 281//129
f 282//129 286//129 281//129
f 287//130 288//130 284//130
f 283//130 287//130 284//130
f 288//131 286//131 282//131
f 284//131 288//131 282//131
f 285//132 287//132 283//132
f 281//132 285//132 283//132
