# Blender v2.79 (sub 0) OBJ File: ''
# www.blender.org
mtllib m901.mtl
o m901
v 0.357375 0.254163 -0.068814
v 0.356003 -0.253533 -0.068814
v -0.351494 -0.252888 -0.068814
v -0.350201 0.254890 -0.068814
v 0.357375 0.254163 -0.145183
v 0.356003 -0.253533 -0.145183
v -0.351494 -0.252888 -0.145183
v -0.350201 0.254890 -0.145183
v 0.477901 0.364921 -0.145504
v 0.476370 -0.364453 -0.145504
v -0.472099 -0.363563 -0.145504
v -0.470568 0.365810 -0.145504
v 0.477901 0.364921 -0.183850
v 0.476370 -0.364453 -0.183850
v -0.472099 -0.363563 -0.183850
v -0.470568 0.365810 -0.183850
v 0.357375 0.254163 -0.206858
v 0.356003 -0.253533 -0.206858
v -0.351494 -0.252888 -0.206858
v -0.350201 0.254890 -0.206858
v 0.313298 0.090608 -0.206858
v 0.313298 0.090608 -0.068814
v -0.302166 -0.219022 0.512788
v -0.310724 -0.219022 0.512788
v -0.310724 -0.272787 0.512788
v -0.302166 -0.272705 0.512788
v -0.302249 -0.298456 0.512788
v -0.328080 -0.298619 0.512788
v -0.328242 -0.289578 0.512788
v -0.381845 -0.289578 0.512788
v -0.381845 -0.298539 0.512788
v -0.407759 -0.298456 0.512788
v -0.407759 -0.272625 0.512788
v -0.399122 -0.272867 0.512788
v -0.399122 -0.219101 0.512788
v -0.407759 -0.218939 0.512788
v -0.407676 -0.192867 0.512788
v -0.381845 -0.193029 0.512788
v -0.381683 -0.202069 0.512788
v -0.328001 -0.202069 0.512788
v -0.328001 -0.193108 0.512788
v -0.302166 -0.192946 0.512788
v -0.302166 -0.219022 -0.145464
v -0.310724 -0.219022 -0.145464
v -0.310724 -0.272787 -0.145464
v -0.302166 -0.272705 -0.145464
v -0.302249 -0.298456 -0.145464
v -0.328080 -0.298619 -0.145464
v -0.328242 -0.289578 -0.145464
v -0.381845 -0.289578 -0.145464
v -0.381845 -0.298539 -0.145464
v -0.407759 -0.298456 -0.145464
v -0.407759 -0.272625 -0.145464
v -0.399122 -0.272867 -0.145464
v -0.399122 -0.219101 -0.145464
v -0.407759 -0.218939 -0.145464
v -0.407676 -0.192867 -0.145464
v -0.381845 -0.193029 -0.145464
v -0.381683 -0.202069 -0.145464
v -0.328001 -0.202069 -0.145464
v -0.328001 -0.193108 -0.145464
v -0.302166 -0.192946 -0.145464
v -0.354963 -0.245743 -0.145464
v -0.354963 -0.245743 0.512788
v 0.400487 -0.219022 0.512788
v 0.391850 -0.219022 0.512788
v 0.391850 -0.272787 0.512788
v 0.400404 -0.272705 0.512788
v 0.400404 -0.298456 0.512788
v 0.374494 -0.298619 0.512788
v 0.374411 -0.289578 0.512788
v 0.320728 -0.289578 0.512788
v 0.320728 -0.298539 0.512788
v 0.294814 -0.298456 0.512788
v 0.294814 -0.272625 0.512788
v 0.303451 -0.272867 0.512788
v 0.303451 -0.219101 0.512788
v 0.294894 -0.218939 0.512788
v 0.294894 -0.192867 0.512788
v 0.320808 -0.193029 0.512788
v 0.320890 -0.202069 0.512788
v 0.374573 -0.202069 0.512788
v 0.374573 -0.193108 0.512788
v 0.400487 -0.192946 0.512788
v 0.400487 -0.219022 -0.145464
v 0.391850 -0.219022 -0.145464
v 0.391850 -0.272787 -0.145464
v 0.400404 -0.272705 -0.145464
v 0.400404 -0.298456 -0.145464
v 0.374494 -0.298619 -0.145464
v 0.374411 -0.289578 -0.145464
v 0.320728 -0.289578 -0.145464
v 0.320728 -0.298539 -0.145464
v 0.294814 -0.298456 -0.145464
v 0.294814 -0.272625 -0.145464
v 0.303451 -0.272867 -0.145464
v 0.303451 -0.219101 -0.145464
v 0.294894 -0.218939 -0.145464
v 0.294894 -0.192867 -0.145464
v 0.320808 -0.193029 -0.145464
v 0.320890 -0.202069 -0.145464
v 0.374573 -0.202069 -0.145464
v 0.374573 -0.193108 -0.145464
v 0.400487 -0.192946 -0.145464
v 0.347690 -0.245743 -0.145464
v 0.347690 -0.245743 0.512788
v 0.400447 0.271119 0.512788
v 0.391807 0.271036 0.512788
v 0.391807 0.217192 0.512788
v 0.400365 0.217271 0.512788
v 0.400365 0.191519 0.512788
v 0.374454 0.191440 0.512788
v 0.374371 0.200401 0.512788
v 0.320768 0.200401 0.512788
v 0.320768 0.191440 0.512788
v 0.294854 0.191602 0.512788
v 0.294854 0.217354 0.512788
v 0.303494 0.217109 0.512788
v 0.303494 0.270957 0.512788
v 0.294937 0.271198 0.512788
v 0.294937 0.297191 0.512788
v 0.320847 0.297029 0.512788
v 0.320930 0.288069 0.512788
v 0.374533 0.288069 0.512788
v 0.374533 0.297029 0.512788
v 0.400447 0.297191 0.512788
v 0.400447 0.271119 -0.145464
v 0.391807 0.271036 -0.145464
v 0.391807 0.217192 -0.145464
v 0.400365 0.217271 -0.145464
v 0.400365 0.191519 -0.145464
v 0.374454 0.191440 -0.145464
v 0.374371 0.200401 -0.145464
v 0.320768 0.200401 -0.145464
v 0.320768 0.191440 -0.145464
v 0.294854 0.191602 -0.145464
v 0.294854 0.217354 -0.145464
v 0.303494 0.217109 -0.145464
v 0.303494 0.270957 -0.145464
v 0.294937 0.271198 -0.145464
v 0.294937 0.297191 -0.145464
v 0.320847 0.297029 -0.145464
v 0.320930 0.288069 -0.145464
v 0.374533 0.288069 -0.145464
v 0.374533 0.297029 -0.145464
v 0.400447 0.297112 -0.145464
v 0.347651 0.244236 -0.145464
v 0.347651 0.244236 0.512788
v -0.302166 0.271119 0.512788
v -0.310724 0.271036 0.512788
v -0.310724 0.217192 0.512788
v -0.302166 0.217271 0.512788
v -0.302249 0.191519 0.512788
v -0.328080 0.191440 0.512788
v -0.328242 0.200401 0.512788
v -0.381845 0.200401 0.512788
v -0.381845 0.191440 0.512788
v -0.407759 0.191602 0.512788
v -0.407759 0.217354 0.512788
v -0.399119 0.217109 0.512788
v -0.399119 0.270957 0.512788
v -0.407759 0.271198 0.512788
v -0.407676 0.297191 0.512788
v -0.381845 0.297029 0.512788
v -0.381683 0.288069 0.512788
v -0.328001 0.288069 0.512788
v -0.328001 0.297029 0.512788
v -0.302166 0.297112 0.512788
v -0.302166 0.271119 -0.145464
v -0.310724 0.271036 -0.145464
v -0.310724 0.217192 -0.145464
v -0.302166 0.217271 -0.145464
v -0.302249 0.191519 -0.145464
v -0.328080 0.191440 -0.145464
v -0.328242 0.200401 -0.145464
v -0.381845 0.200401 -0.145464
v -0.381845 0.191440 -0.145464
v -0.407759 0.191602 -0.145464
v -0.407759 0.217354 -0.145464
v -0.399119 0.217109 -0.145464
v -0.399119 0.270957 -0.145464
v -0.407759 0.271198 -0.145464
v -0.407676 0.297191 -0.145464
v -0.381845 0.297029 -0.145464
v -0.381683 0.288069 -0.145464
v -0.328001 0.288069 -0.145464
v -0.328001 0.297029 -0.145464
v -0.302166 0.297112 -0.145464
v -0.354963 0.244236 -0.145464
v -0.354963 0.244236 0.512788
vn 1.0000 -0.0027 0.0000
vn -0.0009 -1.0000 0.0000
vn -1.0000 0.0025 0.0000
vn 0.0010 1.0000 0.0000
vn 0.0027 -0.0000 1.0000
vn -0.0000 -0.0029 1.0000
vn -0.0027 0.0000 1.0000
vn 0.0000 0.0029 1.0000
vn 1.0000 -0.0021 0.0000
vn -1.0000 0.0021 0.0000
vn 0.0009 1.0000 0.0000
vn 0.1874 -0.0004 -0.9823
vn 0.1880 -0.0005 -0.9822
vn -0.0002 -0.2033 -0.9791
vn -0.1874 0.0004 -0.9823
vn -0.1878 0.0005 -0.9822
vn 0.0002 0.2032 -0.9791
vn 0.0002 0.2033 -0.9791
vn 0.0000 0.0000 1.0000
vn -0.0000 0.0000 -1.0000
vn 0.0000 -1.0000 0.0000
vn 1.0000 0.0000 0.0000
vn -0.0096 1.0000 0.0000
vn 1.0000 -0.0032 0.0000
vn 0.0063 -1.0000 0.0000
vn -0.9998 -0.0179 0.0000
vn -0.0032 -1.0000 0.0000
vn -1.0000 0.0000 0.0000
vn 0.0280 0.9996 0.0000
vn -0.0188 -0.9998 0.0000
vn -1.0000 0.0032 0.0000
vn 0.0063 1.0000 0.0000
vn 0.9998 0.0179 0.0000
vn 0.0000 1.0000 0.0000
vn -0.0063 1.0000 0.0000
vn -1.0000 -0.0092 0.0000
vn -0.0189 -0.9998 0.0000
vn 1.0000 0.0091 0.0000
vn 0.0096 -1.0000 0.0000
vn -0.0092 1.0000 0.0000
vn 0.0031 -1.0000 0.0000
vn -1.0000 -0.0093 0.0000
vn -0.0063 -1.0000 0.0000
vn 0.0283 0.9996 0.0000
vn -0.0282 -0.9996 0.0000
vn 1.0000 0.0093 0.0000
vn -0.0063 1.0000 -0.0001
vn -0.0032 1.0000 0.0000
vn 0.0097 -1.0000 0.0000
vn -0.9998 -0.0181 0.0000
vn -0.0279 -0.9996 0.0000
vn 0.9998 0.0181 0.0000
usemtl None
s off
f 2//1 6//1 1//1
f 6//1 5//1 1//1
f 3//2 7//2 2//2
f 7//2 6//2 2//2
f 4//3 8//3 3//3
f 8//3 7//3 3//3
f 1//4 5//4 4//4
f 5//4 8//4 4//4
f 6//5 10//5 5//5
f 10//5 9//5 5//5
f 7//6 11//6 6//6
f 11//6 10//6 6//6
f 8//7 12//7 7//7
f 12//7 11//7 7//7
f 5//8 9//8 8//8
f 9//8 12//8 8//8
f 10//9 14//9 9//9
f 14//9 13//9 9//9
f 11//2 15//2 10//2
f 15//2 14//2 10//2
f 12//10 16//10 11//10
f 16//10 15//10 11//10
f 9//11 13//11 12//11
f 13//11 16//11 12//11
f 14//12 18//12 13//12
f 18//13 17//13 13//13
f 15//14 19//14 14//14
f 19//14 18//14 14//14
f 16//15 20//15 15//15
f 20//16 19//16 15//16
f 13//17 17//17 16//17
f 17//18 20//18 16//18
f 1//19 22//19 2//19
f 2//19 22//19 3//19
f 3//19 22//19 4//19
f 4//19 22//19 1//19
f 18//20 21//20 17//20
f 19//20 21//20 18//20
f 20//20 21//20 19//20
f 17//20 21//20 20//20
f 24//21 44//21 23//21
f 44//21 43//21 23//21
f 25//22 45//22 24//22
f 45//22 44//22 24//22
f 26//23 46//23 25//23
f 46//23 45//23 25//23
f 27//24 47//24 26//24
f 47//24 46//24 26//24
f 28//25 48//25 27//25
f 48//25 47//25 27//25
f 29//26 49//26 28//26
f 49//26 48//26 28//26
f 30//21 50//21 29//21
f 50//21 49//21 29//21
f 31//22 51//22 30//22
f 51//22 50//22 30//22
f 32//27 52//27 31//27
f 52//27 51//27 31//27
f 33//28 53//28 32//28
f 53//28 52//28 32//28
f 34//29 54//29 33//29
f 54//29 53//29 33//29
f 35//28 55//28 34//28
f 55//28 54//28 34//28
f 36//30 56//30 35//30
f 56//30 55//30 35//30
f 37//31 57//31 36//31
f 57//31 56//31 36//31
f 38//32 58//32 37//32
f 58//32 57//32 37//32
f 39//33 59//33 38//33
f 59//33 58//33 38//33
f 40//34 60//34 39//34
f 60//34 59//34 39//34
f 41//28 61//28 40//28
f 61//28 60//28 40//28
f 42//35 62//35 41//35
f 62//35 61//35 41//35
f 23//22 43//22 42//22
f 43//22 62//22 42//22
f 23//20 64//20 24//20
f 24//19 64//19 25//19
f 25//20 64//20 26//20
f 26//19 64//19 27//19
f 27//19 64//19 28//19
f 28//20 64//20 29//20
f 29//19 64//19 30//19
f 30//20 64//20 31//20
f 31//19 64//19 32//19
f 32//19 64//19 33//19
f 33//20 64//20 34//20
f 34//19 64//19 35//19
f 35//20 64//20 36//20
f 36//19 64//19 37//19
f 37//19 64//19 38//19
f 38//20 64//20 39//20
f 39//19 64//19 40//19
f 40//20 64//20 41//20
f 41//19 64//19 42//19
f 42//19 64//19 23//19
f 44//19 63//19 43//19
f 45//20 63//20 44//20
f 46//19 63//19 45//19
f 47//20 63//20 46//20
f 48//20 63//20 47//20
f 49//19 63//19 48//19
f 50//20 63//20 49//20
f 51//19 63//19 50//19
f 52//20 63//20 51//20
f 53//20 63//20 52//20
f 54//19 63//19 53//19
f 55//20 63//20 54//20
f 56//19 63//19 55//19
f 57//20 63//20 56//20
f 58//20 63//20 57//20
f 59//19 63//19 58//19
f 60//20 63//20 59//20
f 61//19 63//19 60//19
f 62//20 63//20 61//20
f 43//20 63//20 62//20
f 66//21 86//21 65//21
f 86//21 85//21 65//21
f 67//22 87//22 66//22
f 87//22 86//22 66//22
f 68//23 88//23 67//23
f 88//23 87//23 67//23
f 69//22 89//22 68//22
f 89//22 88//22 68//22
f 70//25 90//25 69//25
f 90//25 89//25 69//25
f 71//36 91//36 70//36
f 91//36 90//36 70//36
f 72//21 92//21 71//21
f 92//21 91//21 71//21
f 73//22 93//22 72//22
f 93//22 92//22 72//22
f 74//27 94//27 73//27
f 94//27 93//27 73//27
f 75//28 95//28 74//28
f 95//28 94//28 74//28
f 76//29 96//29 75//29
f 96//29 95//29 75//29
f 77//28 97//28 76//28
f 97//28 96//28 76//28
f 78//37 98//37 77//37
f 98//37 97//37 77//37
f 79//28 99//28 78//28
f 99//28 98//28 78//28
f 80//32 100//32 79//32
f 100//32 99//32 79//32
f 81//38 101//38 80//38
f 101//38 100//38 80//38
f 82//34 102//34 81//34
f 102//34 101//34 81//34
f 83//28 103//28 82//28
f 103//28 102//28 82//28
f 84//35 104//35 83//35
f 104//35 103//35 83//35
f 65//22 85//22 84//22
f 85//22 104//22 84//22
f 65//20 106//20 66//20
f 66//19 106//19 67//19
f 67//20 106//20 68//20
f 68//19 106//19 69//19
f 69//19 106//19 70//19
f 70//20 106//20 71//20
f 71//19 106//19 72//19
f 72//20 106//20 73//20
f 73//19 106//19 74//19
f 74//19 106//19 75//19
f 75//20 106//20 76//20
f 76//19 106//19 77//19
f 77//20 106//20 78//20
f 78//19 106//19 79//19
f 79//19 106//19 80//19
f 80//20 106//20 81//20
f 81//19 106//19 82//19
f 82//20 106//20 83//20
f 83//19 106//19 84//19
f 84//19 106//19 65//19
f 86//19 105//19 85//19
f 87//20 105//20 86//20
f 88//19 105//19 87//19
f 89//20 105//20 88//20
f 90//20 105//20 89//20
f 91//19 105//19 90//19
f 92//20 105//20 91//20
f 93//19 105//19 92//19
f 94//20 105//20 93//20
f 95//20 105//20 94//20
f 96//19 105//19 95//19
f 97//20 105//20 96//20
f 98//19 105//19 97//19
f 99//20 105//20 98//20
f 100//20 105//20 99//20
f 101//19 105//19 100//19
f 102//20 105//20 101//20
f 103//19 105//19 102//19
f 104//20 105//20 103//20
f 85//20 105//20 104//20
f 108//39 128//39 107//39
f 128//39 127//39 107//39
f 109//22 129//22 108//22
f 129//22 128//22 108//22
f 110//40 130//40 109//40
f 130//40 129//40 109//40
f 111//22 131//22 110//22
f 131//22 130//22 110//22
f 112//41 132//41 111//41
f 132//41 131//41 111//41
f 113//42 133//42 112//42
f 133//42 132//42 112//42
f 114//21 134//21 113//21
f 134//21 133//21 113//21
f 115//22 135//22 114//22
f 135//22 134//22 114//22
f 116//43 136//43 115//43
f 136//43 135//43 115//43
f 117//28 137//28 116//28
f 137//28 136//28 116//28
f 118//44 138//44 117//44
f 138//44 137//44 117//44
f 119//28 139//28 118//28
f 139//28 138//28 118//28
f 120//45 140//45 119//45
f 140//45 139//45 119//45
f 121//28 141//28 120//28
f 141//28 140//28 120//28
f 122//32 142//32 121//32
f 142//32 141//32 121//32
f 123//46 143//46 122//46
f 143//46 142//46 122//46
f 124//34 144//34 123//34
f 144//34 143//34 123//34
f 125//28 145//28 124//28
f 145//28 144//28 124//28
f 126//47 146//47 125//47
f 146//48 145//48 125//48
f 107//22 127//22 126//22
f 127//22 146//22 126//22
f 107//20 148//20 108//20
f 108//19 148//19 109//19
f 109//20 148//20 110//20
f 110//19 148//19 111//19
f 111//19 148//19 112//19
f 112//20 148//20 113//20
f 113//19 148//19 114//19
f 114//20 148//20 115//20
f 115//19 148//19 116//19
f 116//19 148//19 117//19
f 117//20 148//20 118//20
f 118//19 148//19 119//19
f 119//20 148//20 120//20
f 120//19 148//19 121//19
f 121//19 148//19 122//19
f 122//20 148//20 123//20
f 123//19 148//19 124//19
f 124//20 148//20 125//20
f 125//19 148//19 126//19
f 126//19 148//19 107//19
f 128//19 147//19 127//19
f 129//20 147//20 128//20
f 130//19 147//19 129//19
f 131//20 147//20 130//20
f 132//20 147//20 131//20
f 133//19 147//19 132//19
f 134//20 147//20 133//20
f 135//19 147//19 134//19
f 136//20 147//20 135//20
f 137//20 147//20 136//20
f 138//19 147//19 137//19
f 139//20 147//20 138//20
f 140//19 147//19 139//19
f 141//20 147//20 140//20
f 142//20 147//20 141//20
f 143//19 147//19 142//19
f 144//20 147//20 143//20
f 145//19 147//19 144//19
f 146//20 147//20 145//20
f 127//20 147//20 146//20
f 150//49 170//49 149//49
f 170//49 169//49 149//49
f 151//22 171//22 150//22
f 171//22 170//22 150//22
f 152//40 172//40 151//40
f 172//40 171//40 151//40
f 153//24 173//24 152//24
f 173//24 172//24 152//24
f 154//41 174//41 153//41
f 174//41 173//41 153//41
f 155//50 175//50 154//50
f 175//50 174//50 154//50
f 156//21 176//21 155//21
f 176//21 175//21 155//21
f 157//22 177//22 156//22
f 177//22 176//22 156//22
f 158//43 178//43 157//43
f 178//43 177//43 157//43
f 159//28 179//28 158//28
f 179//28 178//28 158//28
f 160//44 180//44 159//44
f 180//44 179//44 159//44
f 161//28 181//28 160//28
f 181//28 180//28 160//28
f 162//51 182//51 161//51
f 182//51 181//51 161//51
f 163//31 183//31 162//31
f 183//31 182//31 162//31
f 164//32 184//32 163//32
f 184//32 183//32 163//32
f 165//52 185//52 164//52
f 185//52 184//52 164//52
f 166//34 186//34 165//34
f 186//34 185//34 165//34
f 167//28 187//28 166//28
f 187//28 186//28 166//28
f 168//48 188//48 167//48
f 188//48 187//48 167//48
f 149//22 169//22 168//22
f 169//22 188//22 168//22
f 149//20 190//20 150//20
f 150//19 190//19 151//19
f 151//20 190//20 152//20
f 152//19 190//19 153//19
f 153//19 190//19 154//19
f 154//20 190//20 155//20
f 155//19 190//19 156//19
f 156//20 190//20 157//20
f 157//19 190//19 158//19
f 158//19 190//19 159//19
f 159//20 190//20 160//20
f 160//19 190//19 161//19
f 161//20 190//20 162//20
f 162//19 190//19 163//19
f 163//19 190//19 164//19
f 164//20 190//20 165//20
f 165//19 190//19 166//19
f 166//20 190//20 167//20
f 167//19 190//19 168//19
f 168//19 190//19 149//19
f 170//19 189//19 169//19
f 171//20 189//20 170//20
f 172//19 189//19 171//19
f 173//20 189//20 172//20
f 174//20 189//20 173//20
f 175//19 189//19 174//19
f 176//20 189//20 175//20
f 177//19 189//19 176//19
f 178//20 189//20 177//20
f 179//20 189//20 178//20
f 180//19 189//19 179//19
f 181//20 189//20 180//20
f 182//19 189//19 181//19
f 183//20 189//20 182//20
f 184//20 189//20 183//20
f 185//19 189//19 184//19
f 186//20 189//20 185//20
f 187//19 189//19 186//19
f 188//20 189//20 187//20
f 169//20 189//20 188//20
