# Blender v2.79 (sub 0) OBJ File: ''
# www.blender.org
mtllib m902.mtl
o m902
v -0.401202 0.140257 0.233258
v 0.403704 0.140257 0.233258
v 0.403704 -0.139670 0.233258
v -0.401202 -0.139670 0.233258
v -0.401202 0.140257 0.246334
v 0.403704 0.140257 0.246334
v 0.403704 -0.139670 0.246334
v -0.401202 -0.139670 0.246334
v 0.403896 0.139239 -0.134639
v 0.403122 -0.139088 -0.134639
v -0.401394 -0.138700 -0.134639
v -0.400620 0.139675 -0.134639
v 0.403896 0.139239 -0.180454
v 0.403122 -0.139088 -0.180454
v -0.401394 -0.138700 -0.180454
v -0.400620 0.139675 -0.180454
v 0.476251 0.205685 -0.180647
v 0.475331 -0.205631 -0.180647
v -0.473749 -0.205098 -0.180647
v -0.472829 0.206218 -0.180647
v 0.476251 0.205685 -0.203652
v 0.475331 -0.205631 -0.203652
v -0.473749 -0.205098 -0.203652
v -0.472829 0.206218 -0.203652
v 0.403896 0.139239 -0.217454
v 0.403122 -0.139088 -0.217454
v -0.401394 -0.138700 -0.217454
v -0.400620 0.139675 -0.217454
v 0.377503 0.041120 -0.217454
v 0.377503 0.041120 -0.134639
v -0.371803 -0.118408 0.353727
v -0.376937 -0.118408 0.353727
v -0.376937 -0.150663 0.353727
v -0.371803 -0.150614 0.353727
v -0.371851 -0.166112 0.353727
v -0.387349 -0.166160 0.353727
v -0.387447 -0.160736 0.353727
v -0.419604 -0.160736 0.353727
v -0.419604 -0.166112 0.353727
v -0.435150 -0.166063 0.353727
v -0.435150 -0.150566 0.353727
v -0.429967 -0.150711 0.353727
v -0.429967 -0.118456 0.353727
v -0.435150 -0.118359 0.353727
v -0.435101 -0.102717 0.353727
v -0.419604 -0.102814 0.353727
v -0.419507 -0.108238 0.353727
v -0.387300 -0.108238 0.353727
v -0.387300 -0.102862 0.353727
v -0.371803 -0.102765 0.353727
v -0.371803 -0.118408 -0.180647
v -0.376937 -0.118408 -0.180647
v -0.376937 -0.150663 -0.180647
v -0.371803 -0.150614 -0.180647
v -0.371851 -0.166112 -0.180647
v -0.387349 -0.166160 -0.180647
v -0.387447 -0.160736 -0.180647
v -0.419604 -0.160736 -0.180647
v -0.419604 -0.166112 -0.180647
v -0.435150 -0.166063 -0.180647
v -0.435150 -0.150566 -0.180647
v -0.429967 -0.150711 -0.180647
v -0.429967 -0.118456 -0.180647
v -0.435150 -0.118359 -0.180647
v -0.435101 -0.102717 -0.180647
v -0.419604 -0.102814 -0.180647
v -0.419507 -0.108238 -0.180647
v -0.387300 -0.108238 -0.180647
v -0.387300 -0.102862 -0.180647
v -0.371803 -0.102765 -0.180647
v -0.403477 -0.134486 -0.180647
v -0.403477 -0.134486 0.353727
v 0.429809 -0.118408 0.353727
v 0.424626 -0.118408 0.353727
v 0.424626 -0.150663 0.353727
v 0.429759 -0.150614 0.353727
v 0.429759 -0.166112 0.353727
v 0.414213 -0.166160 0.353727
v 0.414116 -0.160736 0.353727
v 0.381958 -0.160736 0.353727
v 0.381958 -0.166112 0.353727
v 0.366414 -0.166063 0.353727
v 0.366414 -0.150566 0.353727
v 0.371596 -0.150711 0.353727
v 0.371596 -0.118456 0.353727
v 0.366462 -0.118359 0.353727
v 0.366462 -0.102717 0.353727
v 0.381958 -0.102814 0.353727
v 0.382056 -0.108238 0.353727
v 0.414263 -0.108238 0.353727
v 0.414263 -0.102862 0.353727
v 0.429759 -0.102765 0.353727
v 0.429809 -0.118408 -0.180647
v 0.424626 -0.118408 -0.180647
v 0.424626 -0.150663 -0.180647
v 0.429759 -0.150614 -0.180647
v 0.429759 -0.166112 -0.180647
v 0.414213 -0.166160 -0.180647
v 0.414116 -0.160736 -0.180647
v 0.381958 -0.160736 -0.180647
v 0.381958 -0.166112 -0.180647
v 0.366414 -0.166063 -0.180647
v 0.366414 -0.150566 -0.180647
v 0.371596 -0.150711 -0.180647
v 0.371596 -0.118456 -0.180647
v 0.366462 -0.118359 -0.180647
v 0.366462 -0.102717 -0.180647
v 0.381958 -0.102814 -0.180647
v 0.382056 -0.108238 -0.180647
v 0.414263 -0.108238 -0.180647
v 0.414263 -0.102862 -0.180647
v 0.429759 -0.102765 -0.180647
v 0.398086 -0.134486 -0.180647
v 0.398086 -0.134486 0.353727
v 0.429785 0.149435 0.353727
v 0.424602 0.149386 0.353727
v 0.424602 0.117083 0.353727
v 0.429735 0.117131 0.353727
v 0.429735 0.101682 0.353727
v 0.414191 0.101634 0.353727
v 0.414094 0.107010 0.353727
v 0.381984 0.107010 0.353727
v 0.381984 0.101634 0.353727
v 0.366438 0.101732 0.353727
v 0.366438 0.117180 0.353727
v 0.371621 0.117034 0.353727
v 0.371621 0.149338 0.353727
v 0.366488 0.149483 0.353727
v 0.366488 0.165077 0.353727
v 0.381984 0.164979 0.353727
v 0.382081 0.159604 0.353727
v 0.414239 0.159604 0.353727
v 0.414239 0.164979 0.353727
v 0.429735 0.165077 0.353727
v 0.429785 0.149435 -0.180647
v 0.424602 0.149386 -0.180647
v 0.424602 0.117083 -0.180647
v 0.429735 0.117131 -0.180647
v 0.429735 0.101682 -0.180647
v 0.414191 0.101634 -0.180647
v 0.414094 0.107010 -0.180647
v 0.381984 0.107010 -0.180647
v 0.381984 0.101634 -0.180647
v 0.366438 0.101732 -0.180647
v 0.366438 0.117180 -0.180647
v 0.371621 0.117034 -0.180647
v 0.371621 0.149338 -0.180647
v 0.366488 0.149483 -0.180647
v 0.366488 0.165077 -0.180647
v 0.381984 0.164979 -0.180647
v 0.382081 0.159604 -0.180647
v 0.414239 0.159604 -0.180647
v 0.414239 0.164979 -0.180647
v 0.429735 0.165029 -0.180647
v 0.398112 0.133308 -0.180647
v 0.398112 0.133308 0.353727
v -0.371801 0.149435 0.353727
v -0.376935 0.149386 0.353727
v -0.376935 0.117083 0.353727
v -0.371801 0.117131 0.353727
v -0.371851 0.101682 0.353727
v -0.387347 0.101634 0.353727
v -0.387445 0.107010 0.353727
v -0.419602 0.107010 0.353727
v -0.419602 0.101634 0.353727
v -0.435148 0.101732 0.353727
v -0.435148 0.117180 0.353727
v -0.429965 0.117034 0.353727
v -0.429965 0.149338 0.353727
v -0.435148 0.149483 0.353727
v -0.435099 0.165077 0.353727
v -0.419602 0.164979 0.353727
v -0.419505 0.159604 0.353727
v -0.387300 0.159604 0.353727
v -0.387300 0.164979 0.353727
v -0.371801 0.165029 0.353727
v -0.371801 0.149435 -0.180647
v -0.376935 0.149386 -0.180647
v -0.376935 0.117083 -0.180647
v -0.371801 0.117131 -0.180647
v -0.371851 0.101682 -0.180647
v -0.387347 0.101634 -0.180647
v -0.387445 0.107010 -0.180647
v -0.419602 0.107010 -0.180647
v -0.419602 0.101634 -0.180647
v -0.435148 0.101732 -0.180647
v -0.435148 0.117180 -0.180647
v -0.429965 0.117034 -0.180647
v -0.429965 0.149338 -0.180647
v -0.435148 0.149483 -0.180647
v -0.435099 0.165077 -0.180647
v -0.419602 0.164979 -0.180647
v -0.419505 0.159604 -0.180647
v -0.387300 0.159604 -0.180647
v -0.387300 0.164979 -0.180647
v -0.371801 0.165029 -0.180647
v -0.403475 0.133308 -0.180647
v -0.403475 0.133308 0.353727
vn 0.0000 0.0000 -1.0000
vn 0.0000 1.0000 0.0000
vn 1.0000 0.0000 0.0000
vn 0.0000 -1.0000 0.0000
vn -1.0000 0.0000 0.0000
vn 0.0000 0.0000 1.0000
vn 1.0000 -0.0028 0.0000
vn -0.0005 -1.0000 0.0000
vn -1.0000 0.0028 0.0000
vn 0.0005 1.0000 0.0000
vn 0.0027 -0.0000 1.0000
vn -0.0000 -0.0029 1.0000
vn -0.0027 0.0000 1.0000
vn 0.0000 0.0029 1.0000
vn 1.0000 -0.0022 0.0000
vn -0.0006 -1.0000 0.0000
vn -1.0000 0.0022 0.0000
vn 0.0006 1.0000 0.0000
vn 0.1874 -0.0004 -0.9823
vn 0.1878 -0.0005 -0.9822
vn -0.0001 -0.2034 -0.9791
vn -0.0001 -0.2032 -0.9791
vn -0.1874 0.0004 -0.9823
vn -0.1878 0.0005 -0.9822
vn 0.0001 0.2033 -0.9791
vn 0.0001 0.2032 -0.9791
vn -0.0097 1.0000 0.0000
vn 1.0000 -0.0031 0.0000
vn 0.0031 -1.0000 0.0000
vn -0.9998 -0.0181 0.0000
vn -0.0032 -1.0000 0.0000
vn 0.0279 0.9996 0.0000
vn -0.0187 -0.9998 0.0000
vn -1.0000 0.0032 0.0000
vn 0.0063 1.0000 0.0000
vn 0.9998 0.0179 0.0000
vn -0.0063 1.0000 0.0000
vn -0.9998 -0.0179 0.0000
vn -0.0189 -0.9998 0.0000
vn 0.9998 0.0181 0.0000
vn 1.0000 0.0032 0.0000
vn 0.0095 -1.0000 0.0000
vn -0.0093 1.0000 0.0000
vn -0.9998 -0.0180 0.0000
vn -0.0063 -1.0000 0.0000
vn 0.0282 0.9996 0.0000
vn -0.0282 -0.9996 0.0000
vn 0.9998 0.0180 0.0000
vn -0.0063 1.0000 -0.0001
vn -0.0032 1.0000 0.0000
vn 1.0000 -0.0032 0.0000
vn -0.9998 -0.0182 0.0000
vn -0.0280 -0.9996 0.0000
usemtl None
s off
f 2//1 3//1 1//1
f 3//1 4//1 1//1
f 5//2 6//2 1//2
f 6//2 2//2 1//2
f 6//3 7//3 2//3
f 7//3 3//3 2//3
f 7//4 8//4 3//4
f 8//4 4//4 3//4
f 8//5 5//5 4//5
f 5//5 1//5 4//5
f 8//6 7//6 5//6
f 7//6 6//6 5//6
f 10//7 14//7 9//7
f 14//7 13//7 9//7
f 11//8 15//8 10//8
f 15//8 14//8 10//8
f 12//9 16//9 11//9
f 16//9 15//9 11//9
f 9//10 13//10 12//10
f 13//10 16//10 12//10
f 14//11 18//11 13//11
f 18//11 17//11 13//11
f 15//12 19//12 14//12
f 19//12 18//12 14//12
f 16//13 20//13 15//13
f 20//13 19//13 15//13
f 13//14 17//14 16//14
f 17//14 20//14 16//14
f 18//15 22//15 17//15
f 22//15 21//15 17//15
f 19//16 23//16 18//16
f 23//16 22//16 18//16
f 20//17 24//17 19//17
f 24//17 23//17 19//17
f 17//18 21//18 20//18
f 21//18 24//18 20//18
f 22//19 26//19 21//19
f 26//20 25//20 21//20
f 23//21 27//21 22//21
f 27//22 26//22 22//22
f 24//23 28//23 23//23
f 28//24 27//24 23//24
f 21//25 25//25 24//25
f 25//26 28//26 24//26
f 9//6 30//6 10//6
f 10//6 30//6 11//6
f 11//6 30//6 12//6
f 12//6 30//6 9//6
f 26//1 29//1 25//1
f 27//1 29//1 26//1
f 28//1 29//1 27//1
f 25//1 29//1 28//1
f 32//4 52//4 31//4
f 52//4 51//4 31//4
f 33//3 53//3 32//3
f 53//3 52//3 32//3
f 34//27 54//27 33//27
f 54//27 53//27 33//27
f 35//28 55//28 34//28
f 55//28 54//28 34//28
f 36//29 56//29 35//29
f 56//29 55//29 35//29
f 37//30 57//30 36//30
f 57//30 56//30 36//30
f 38//4 58//4 37//4
f 58//4 57//4 37//4
f 39//3 59//3 38//3
f 59//3 58//3 38//3
f 40//31 60//31 39//31
f 60//31 59//31 39//31
f 41//5 61//5 40//5
f 61//5 60//5 40//5
f 42//32 62//32 41//32
f 62//32 61//32 41//32
f 43//5 63//5 42//5
f 63//5 62//5 42//5
f 44//33 64//33 43//33
f 64//33 63//33 43//33
f 45//34 65//34 44//34
f 65//34 64//34 44//34
f 46//35 66//35 45//35
f 66//35 65//35 45//35
f 47//36 67//36 46//36
f 67//36 66//36 46//36
f 48//2 68//2 47//2
f 68//2 67//2 47//2
f 49//5 69//5 48//5
f 69//5 68//5 48//5
f 50//37 70//37 49//37
f 70//37 69//37 49//37
f 31//3 51//3 50//3
f 51//3 70//3 50//3
f 31//1 72//1 32//1
f 32//6 72//6 33//6
f 33//1 72//1 34//1
f 34//6 72//6 35//6
f 35//6 72//6 36//6
f 36//1 72//1 37//1
f 37//6 72//6 38//6
f 38//1 72//1 39//1
f 39//6 72//6 40//6
f 40//6 72//6 41//6
f 41//1 72//1 42//1
f 42//6 72//6 43//6
f 43//1 72//1 44//1
f 44//6 72//6 45//6
f 45//6 72//6 46//6
f 46//1 72//1 47//1
f 47//6 72//6 48//6
f 48//1 72//1 49//1
f 49//6 72//6 50//6
f 50//6 72//6 31//6
f 52//6 71//6 51//6
f 53//1 71//1 52//1
f 54//6 71//6 53//6
f 55//1 71//1 54//1
f 56//1 71//1 55//1
f 57//6 71//6 56//6
f 58//1 71//1 57//1
f 59//6 71//6 58//6
f 60//1 71//1 59//1
f 61//1 71//1 60//1
f 62//6 71//6 61//6
f 63//1 71//1 62//1
f 64//6 71//6 63//6
f 65//1 71//1 64//1
f 66//1 71//1 65//1
f 67//6 71//6 66//6
f 68//1 71//1 67//1
f 69//6 71//6 68//6
f 70//1 71//1 69//1
f 51//1 71//1 70//1
f 74//4 94//4 73//4
f 94//4 93//4 73//4
f 75//3 95//3 74//3
f 95//3 94//3 74//3
f 76//27 96//27 75//27
f 96//27 95//27 75//27
f 77//3 97//3 76//3
f 97//3 96//3 76//3
f 78//29 98//29 77//29
f 98//29 97//29 77//29
f 79//38 99//38 78//38
f 99//38 98//38 78//38
f 80//4 100//4 79//4
f 100//4 99//4 79//4
f 81//3 101//3 80//3
f 101//3 100//3 80//3
f 82//31 102//31 81//31
f 102//31 101//31 81//31
f 83//5 103//5 82//5
f 103//5 102//5 82//5
f 84//32 104//32 83//32
f 104//32 103//32 83//32
f 85//5 105//5 84//5
f 105//5 104//5 84//5
f 86//39 106//39 85//39
f 106//39 105//39 85//39
f 87//5 107//5 86//5
f 107//5 106//5 86//5
f 88//35 108//35 87//35
f 108//35 107//35 87//35
f 89//40 109//40 88//40
f 109//40 108//40 88//40
f 90//2 110//2 89//2
f 110//2 109//2 89//2
f 91//5 111//5 90//5
f 111//5 110//5 90//5
f 92//37 112//37 91//37
f 112//37 111//37 91//37
f 73//41 93//41 92//41
f 93//41 112//41 92//41
f 73//1 114//1 74//1
f 74//6 114//6 75//6
f 75//1 114//1 76//1
f 76//6 114//6 77//6
f 77//6 114//6 78//6
f 78//1 114//1 79//1
f 79//6 114//6 80//6
f 80//1 114//1 81//1
f 81//6 114//6 82//6
f 82//6 114//6 83//6
f 83//1 114//1 84//1
f 84//6 114//6 85//6
f 85//1 114//1 86//1
f 86//6 114//6 87//6
f 87//6 114//6 88//6
f 88//1 114//1 89//1
f 89//6 114//6 90//6
f 90//1 114//1 91//1
f 91//6 114//6 92//6
f 92//6 114//6 73//6
f 94//6 113//6 93//6
f 95//1 113//1 94//1
f 96//6 113//6 95//6
f 97//1 113//1 96//1
f 98//1 113//1 97//1
f 99//6 113//6 98//6
f 100//1 113//1 99//1
f 101//6 113//6 100//6
f 102//1 113//1 101//1
f 103//1 113//1 102//1
f 104//6 113//6 103//6
f 105//1 113//1 104//1
f 106//6 113//6 105//6
f 107//1 113//1 106//1
f 108//1 113//1 107//1
f 109//6 113//6 108//6
f 110//1 113//1 109//1
f 111//6 113//6 110//6
f 112//1 113//1 111//1
f 93//1 113//1 112//1
f 116//42 136//42 115//42
f 136//42 135//42 115//42
f 117//3 137//3 116//3
f 137//3 136//3 116//3
f 118//43 138//43 117//43
f 138//43 137//43 117//43
f 119//3 139//3 118//3
f 139//3 138//3 118//3
f 120//29 140//29 119//29
f 140//29 139//29 119//29
f 121//44 141//44 120//44
f 141//44 140//44 120//44
f 122//4 142//4 121//4
f 142//4 141//4 121//4
f 123//3 143//3 122//3
f 143//3 142//3 122//3
f 124//45 144//45 123//45
f 144//45 143//45 123//45
f 125//5 145//5 124//5
f 145//5 144//5 124//5
f 126//46 146//46 125//46
f 146//46 145//46 125//46
f 127//5 147//5 126//5
f 147//5 146//5 126//5
f 128//47 148//47 127//47
f 148//47 147//47 127//47
f 129//5 149//5 128//5
f 149//5 148//5 128//5
f 130//35 150//35 129//35
f 150//35 149//35 129//35
f 131//48 151//48 130//48
f 151//48 150//48 130//48
f 132//2 152//2 131//2
f 152//2 151//2 131//2
f 133//5 153//5 132//5
f 153//5 152//5 132//5
f 134//49 154//49 133//49
f 154//50 153//50 133//50
f 115//41 135//41 134//41
f 135//41 154//41 134//41
f 115//1 156//1 116//1
f 116//6 156//6 117//6
f 117//1 156//1 118//1
f 118//6 156//6 119//6
f 119//6 156//6 120//6
f 120//1 156//1 121//1
f 121//6 156//6 122//6
f 122//1 156//1 123//1
f 123//6 156//6 124//6
f 124//6 156//6 125//6
f 125//1 156//1 126//1
f 126//6 156//6 127//6
f 127//1 156//1 128//1
f 128//6 156//6 129//6
f 129//6 156//6 130//6
f 130//1 156//1 131//1
f 131//6 156//6 132//6
f 132//1 156//1 133//1
f 133//6 156//6 134//6
f 134//6 156//6 115//6
f 136//6 155//6 135//6
f 137//1 155//1 136//1
f 138//6 155//6 137//6
f 139//1 155//1 138//1
f 140//1 155//1 139//1
f 141//6 155//6 140//6
f 142//1 155//1 141//1
f 143//6 155//6 142//6
f 144//1 155//1 143//1
f 145//1 155//1 144//1
f 146//6 155//6 145//6
f 147//1 155//1 146//1
f 148//6 155//6 147//6
f 149//1 155//1 148//1
f 150//1 155//1 149//1
f 151//6 155//6 150//6
f 152//1 155//1 151//1
f 153//6 155//6 152//6
f 154//1 155//1 153//1
f 135//1 155//1 154//1
f 158//42 178//42 157//42
f 178//42 177//42 157//42
f 159//3 179//3 158//3
f 179//3 178//3 158//3
f 160//43 180//43 159//43
f 180//43 179//43 159//43
f 161//51 181//51 160//51
f 181//51 180//51 160//51
f 162//29 182//29 161//29
f 182//29 181//29 161//29
f 163//52 183//52 162//52
f 183//52 182//52 162//52
f 164//4 184//4 163//4
f 184//4 183//4 163//4
f 165//3 185//3 164//3
f 185//3 184//3 164//3
f 166//45 186//45 165//45
f 186//45 185//45 165//45
f 167//5 187//5 166//5
f 187//5 186//5 166//5
f 168//46 188//46 167//46
f 188//46 187//46 167//46
f 169//5 189//5 168//5
f 189//5 188//5 168//5
f 170//53 190//53 169//53
f 190//53 189//53 169//53
f 171//34 191//34 170//34
f 191//34 190//34 170//34
f 172//35 192//35 171//35
f 192//35 191//35 171//35
f 173//40 193//40 172//40
f 193//40 192//40 172//40
f 174//2 194//2 173//2
f 194//2 193//2 173//2
f 175//5 195//5 174//5
f 195//5 194//5 174//5
f 176//50 196//50 175//50
f 196//50 195//50 175//50
f 157//3 177//3 176//3
f 177//3 196//3 176//3
f 157//1 198//1 158//1
f 158//6 198//6 159//6
f 159//1 198//1 160//1
f 160//6 198//6 161//6
f 161//6 198//6 162//6
f 162//1 198//1 163//1
f 163//6 198//6 164//6
f 164//1 198//1 165//1
f 165//6 198//6 166//6
f 166//6 198//6 167//6
f 167//1 198//1 168//1
f 168//6 198//6 169//6
f 169//1 198//1 170//1
f 170//6 198//6 171//6
f 171//6 198//6 172//6
f 172//1 198//1 173//1
f 173//6 198//6 174//6
f 174//1 198//1 175//1
f 175//6 198//6 176//6
f 176//6 198//6 157//6
f 178//6 197//6 177//6
f 179//1 197//1 178//1
f 180//6 197//6 179//6
f 181//1 197//1 180//1
f 182//1 197//1 181//1
f 183//6 197//6 182//6
f 184//1 197//1 183//1
f 185//6 197//6 184//6
f 186//1 197//1 185//1
f 187//1 197//1 186//1
f 188//6 197//6 187//6
f 189//1 197//1 188//1
f 190//6 197//6 189//6
f 191//1 197//1 190//1
f 192//1 197//1 191//1
f 193//6 197//6 192//6
f 194//1 197//1 193//1
f 195//6 197//6 194//6
f 196//1 197//1 195//1
f 177//1 197//1 196//1
