# Blender v2.79 (sub 0) OBJ File: ''
# www.blender.org
mtllib m903.mtl
o m903
v -0.540688 -0.105528 -0.030914
v -0.540688 -0.105528 -0.017720
v 0.409304 -0.105575 -0.017720
v 0.409304 -0.105575 -0.030914
v -0.540680 0.105581 -0.030914
v -0.540680 0.105581 -0.017720
v 0.409312 0.105535 -0.017720
v 0.409312 0.105535 -0.030914
v -0.014534 0.105555 0.194356
v -0.014534 0.105566 -0.016754
v -0.014551 -0.105544 -0.016764
v -0.014551 -0.105555 0.194345
v -0.014543 0.070370 0.194354
v -0.014543 0.070379 0.018429
v -0.014551 -0.070361 0.018422
v -0.014551 -0.070370 0.194346
v -0.049727 0.070373 0.194354
v -0.049727 0.070382 0.018429
v -0.049736 -0.070358 0.018422
v -0.049736 -0.070367 0.194346
v -0.049736 -0.105552 0.194345
v -0.049736 -0.105541 -0.016764
v -0.049719 0.105569 -0.016754
v -0.049719 0.105558 0.194356
v 0.407676 0.070347 0.018429
v 0.372491 0.070350 0.018429
v 0.372491 0.070341 0.194354
v 0.407676 0.070338 0.194354
v 0.407668 -0.070393 0.018422
v 0.372483 -0.070390 0.018422
v 0.407668 -0.070402 0.194346
v 0.372483 -0.070399 0.194346
v 0.407668 -0.105586 0.194345
v 0.372483 -0.105584 0.194345
v 0.407668 -0.105576 -0.016764
v 0.372483 -0.105573 -0.016764
v 0.407685 0.105534 -0.016754
v 0.372500 0.105536 -0.016754
v 0.407685 0.105523 0.194356
v 0.372500 0.105526 0.194356
vn -0.0000 -1.0000 0.0000
vn 0.0000 1.0000 0.0000
vn 1.0000 -0.0000 0.0000
vn 0.0000 0.0000 -1.0000
vn -1.0000 0.0000 0.0000
vn -0.0000 0.0000 1.0000
vn -0.0001 -1.0000 -0.0001
vn 0.0001 1.0000 0.0001
vn -0.0001 -1.0000 -0.0000
vn 1.0000 -0.0001 0.0001
vn 1.0000 -0.0001 0.0002
vn 1.0000 -0.0003 -0.0000
vn -1.0000 0.0001 -0.0001
vn -1.0000 0.0002 0.0000
vn 0.0001 1.0000 0.0000
vn -1.0000 0.0001 -0.0002
vn -1.0000 0.0003 0.0000
usemtl None
s off
f 3//1 2//1 1//1
f 4//1 3//1 1//1
f 6//2 7//2 8//2
f 5//2 6//2 8//2
f 7//3 3//3 4//3
f 8//3 7//3 4//3
f 4//4 1//4 5//4
f 8//4 4//4 5//4
f 2//5 6//5 5//5
f 1//5 2//5 5//5
f 7//6 6//6 2//6
f 3//6 7//6 2//6
f 17//7 18//7 14//7
f 13//7 17//7 14//7
f 18//6 19//6 15//6
f 14//6 18//6 15//6
f 19//8 20//8 16//8
f 15//8 19//8 16//8
f 21//9 22//9 11//9
f 12//7 21//7 11//7
f 22//4 23//4 10//4
f 11//4 22//4 10//4
f 23//8 24//8 9//8
f 10//8 23//8 9//8
f 16//3 12//3 11//3
f 15//3 16//3 11//3
f 15//10 11//10 10//10
f 14//11 15//11 10//11
f 14//12 10//12 9//12
f 13//12 14//12 9//12
f 21//5 20//5 19//5
f 22//5 21//5 19//5
f 22//13 19//13 18//13
f 23//13 22//13 18//13
f 23//14 18//14 17//14
f 24//14 23//14 17//14
f 27//7 26//7 25//7
f 28//7 27//7 25//7
f 26//6 30//6 29//6
f 25//6 26//6 29//6
f 30//8 32//8 31//8
f 29//8 30//8 31//8
f 34//7 36//7 35//7
f 33//7 34//7 35//7
f 36//4 38//4 37//4
f 35//4 36//4 37//4
f 38//15 40//15 39//15
f 37//8 38//8 39//8
f 31//3 33//3 35//3
f 29//3 31//3 35//3
f 29//10 35//10 37//10
f 25//11 29//11 37//11
f 25//12 37//12 39//12
f 28//12 25//12 39//12
f 34//5 32//5 30//5
f 36//5 34//5 30//5
f 36//13 30//13 26//13
f 38//16 36//16 26//16
f 38//17 26//17 27//17
f 40//17 38//17 27//17
