# Blender v2.79 (sub 0) OBJ File: ''
# www.blender.org
mtllib m904.mtl
o m904
v 0.011903 0.177720 -0.378104
v 0.011903 0.177720 0.448192
v -0.011907 0.177720 0.448192
v -0.011907 0.177720 -0.378104
v 0.011903 0.165815 -0.378104
v 0.011903 0.165815 0.448192
v -0.011907 0.165815 0.448192
v -0.011907 0.165815 -0.378104
v -0.067462 0.177720 -0.378104
v -0.067462 0.177720 0.448192
v -0.091271 0.177720 0.448192
v -0.091271 0.177720 -0.378104
v -0.091271 0.165815 -0.378104
v -0.091271 0.165815 0.448192
v -0.067462 0.165815 0.448192
v -0.067462 0.165815 -0.378104
v 0.091267 0.177720 -0.378104
v 0.091267 0.177720 0.448192
v 0.067458 0.177720 0.448192
v 0.067458 0.177720 -0.378104
v 0.067458 0.165816 -0.378104
v 0.067458 0.165816 0.448192
v 0.091267 0.165816 0.448192
v 0.091267 0.165816 -0.378104
v 0.011904 -0.177713 -0.378104
v 0.011904 -0.177713 0.448192
v -0.011906 -0.177713 0.448192
v -0.011906 -0.177713 -0.378104
v -0.011906 -0.165808 -0.378104
v -0.011906 -0.165808 0.448192
v 0.011904 -0.165808 0.448192
v 0.011904 -0.165808 -0.378104
v -0.067461 -0.177713 -0.378104
v -0.067461 -0.177713 0.448192
v -0.091270 -0.177713 0.448192
v -0.091270 -0.177713 -0.378104
v -0.091270 -0.165809 -0.378104
v -0.091270 -0.165809 0.448192
v -0.067461 -0.165809 0.448192
v -0.067461 -0.165809 -0.378104
v 0.091268 -0.177713 -0.378104
v 0.091268 -0.177713 0.448192
v 0.067459 -0.177713 0.448192
v 0.067459 -0.177713 -0.378104
v 0.067459 -0.165808 -0.378104
v 0.067459 -0.165808 0.448192
v 0.091268 -0.165808 0.448192
v 0.091268 -0.165808 -0.378104
v 0.159705 0.136026 -0.377829
v 0.159705 0.136026 -0.330211
v 0.135895 0.136026 -0.330211
v 0.135895 0.136026 -0.377829
v 0.159705 -0.136194 -0.377829
v 0.159705 -0.136194 -0.330211
v 0.135896 -0.136194 -0.330211
v 0.135896 -0.136194 -0.377829
v -0.135899 0.136025 -0.377829
v -0.135899 0.136025 -0.330211
v -0.159709 0.136025 -0.330211
v -0.159709 0.136025 -0.377829
v -0.159708 -0.136195 -0.377829
v -0.159708 -0.136195 -0.330211
v -0.135898 -0.136195 -0.330211
v -0.135898 -0.136195 -0.377829
v -0.136064 0.159842 -0.377829
v -0.136064 0.159842 -0.330211
v -0.136064 0.136033 -0.330211
v -0.136064 0.136033 -0.377829
v 0.136156 0.136025 -0.377829
v 0.136156 0.136025 -0.330211
v 0.136156 0.159834 -0.330211
v 0.136156 0.159834 -0.377829
v -0.136072 -0.136018 -0.377829
v -0.136072 -0.136018 -0.330211
v -0.136073 -0.159827 -0.330211
v -0.136073 -0.159827 -0.377829
v 0.136147 -0.159835 -0.377829
v 0.136147 -0.159835 -0.330211
v 0.136148 -0.136026 -0.330211
v 0.136148 -0.136026 -0.377829
v 0.168052 -0.136337 -0.378567
v 0.168052 -0.136337 0.548125
v 0.136306 -0.136337 0.548125
v 0.136306 -0.136337 -0.378567
v 0.168052 -0.168083 -0.378567
v 0.168052 -0.168083 0.548125
v 0.136306 -0.168083 0.548125
v 0.136306 -0.168083 -0.378567
v -0.168054 -0.136084 -0.378567
v -0.168054 -0.136084 0.548125
v -0.136308 -0.136084 0.548125
v -0.136308 -0.136084 -0.378567
v -0.136308 -0.167830 -0.378567
v -0.136308 -0.167830 0.548125
v -0.168054 -0.167830 0.548125
v -0.168054 -0.167830 -0.378567
v 0.168051 0.167837 -0.378567
v 0.168051 0.167837 0.548125
v 0.136305 0.167837 0.548125
v 0.136305 0.167837 -0.378567
v 0.136305 0.136091 -0.378567
v 0.136305 0.136091 0.548125
v 0.168051 0.136091 0.548125
v 0.168051 0.136091 -0.378567
v -0.136309 0.168090 -0.378567
v -0.136309 0.168090 0.548125
v -0.168055 0.168090 0.548125
v -0.168055 0.168090 -0.378567
v -0.168055 0.136344 -0.378567
v -0.168055 0.136344 0.548125
v -0.136309 0.136344 0.548125
v -0.136309 0.136344 -0.378567
v 0.164271 0.166318 0.419608
v 0.164271 0.166318 0.348180
v 0.164272 -0.166310 0.348213
v 0.164272 -0.166310 0.419641
v -0.164275 -0.166311 0.348213
v -0.164275 -0.166311 0.419641
v -0.164276 0.166317 0.348180
v -0.164276 0.166317 0.419608
v 0.190473 0.190479 -0.378066
v 0.190474 -0.190471 -0.378056
v -0.190476 -0.190472 -0.378056
v -0.190477 0.190478 -0.378066
v 0.190473 0.190479 -0.401875
v 0.190474 -0.190471 -0.401865
v -0.190476 -0.190472 -0.401865
v -0.190477 0.190478 -0.401875
vn 0.0000 1.0000 0.0000
vn 0.0000 -1.0000 0.0000
vn -1.0000 0.0000 0.0000
vn 0.0000 0.0000 -1.0000
vn 1.0000 0.0000 0.0000
vn 0.0000 0.0000 1.0000
vn -0.0000 -0.0001 -1.0000
vn 0.0000 0.0001 1.0000
usemtl None
s off
f 3//1 2//1 1//1
f 4//1 3//1 1//1
f 6//2 7//2 8//2
f 5//2 6//2 8//2
f 7//3 3//3 4//3
f 8//3 7//3 4//3
f 4//4 1//4 5//4
f 8//4 4//4 5//4
f 2//5 6//5 5//5
f 1//5 2//5 5//5
f 7//6 6//6 2//6
f 3//6 7//6 2//6
f 11//1 10//1 9//1
f 12//1 11//1 9//1
f 15//2 14//2 13//2
f 16//2 15//2 13//2
f 14//3 11//3 12//3
f 13//3 14//3 12//3
f 12//4 9//4 16//4
f 13//4 12//4 16//4
f 10//5 15//5 16//5
f 9//5 10//5 16//5
f 14//6 15//6 10//6
f 11//6 14//6 10//6
f 19//1 18//1 17//1
f 20//1 19//1 17//1
f 23//2 22//2 21//2
f 24//2 23//2 21//2
f 22//3 19//3 20//3
f 21//3 22//3 20//3
f 20//4 17//4 24//4
f 21//4 20//4 24//4
f 18//5 23//5 24//5
f 17//5 18//5 24//5
f 22//6 23//6 18//6
f 19//6 22//6 18//6
f 26//2 27//2 28//2
f 25//2 26//2 28//2
f 30//1 31//1 32//1
f 29//1 30//1 32//1
f 27//3 30//3 29//3
f 28//3 27//3 29//3
f 25//4 28//4 29//4
f 32//4 25//4 29//4
f 31//5 26//5 25//5
f 32//5 31//5 25//5
f 31//6 30//6 27//6
f 26//6 31//6 27//6
f 34//2 35//2 36//2
f 33//2 34//2 36//2
f 38//1 39//1 40//1
f 37//1 38//1 40//1
f 35//3 38//3 37//3
f 36//3 35//3 37//3
f 33//4 36//4 37//4
f 40//4 33//4 37//4
f 39//5 34//5 33//5
f 40//5 39//5 33//5
f 39//6 38//6 35//6
f 34//6 39//6 35//6
f 42//2 43//2 44//2
f 41//2 42//2 44//2
f 46//1 47//1 48//1
f 45//1 46//1 48//1
f 43//3 46//3 45//3
f 44//3 43//3 45//3
f 41//4 44//4 45//4
f 48//4 41//4 45//4
f 47//5 42//5 41//5
f 48//5 47//5 41//5
f 47//6 46//6 43//6
f 42//6 47//6 43//6
f 55//3 51//3 52//3
f 56//3 55//3 52//3
f 50//5 54//5 53//5
f 49//5 50//5 53//5
f 55//6 54//6 50//6
f 51//6 55//6 50//6
f 62//3 59//3 60//3
f 61//3 62//3 60//3
f 58//5 63//5 64//5
f 57//5 58//5 64//5
f 62//6 63//6 58//6
f 59//6 62//6 58//6
f 70//2 67//2 68//2
f 69//2 70//2 68//2
f 66//1 71//1 72//1
f 65//1 66//1 72//1
f 70//6 71//6 66//6
f 67//6 70//6 66//6
f 78//2 75//2 76//2
f 77//2 78//2 76//2
f 74//1 79//1 80//1
f 73//1 74//1 80//1
f 78//6 79//6 74//6
f 75//6 78//6 74//6
f 83//1 82//1 81//1
f 84//1 83//1 81//1
f 86//2 87//2 88//2
f 85//2 86//2 88//2
f 87//3 83//3 84//3
f 88//3 87//3 84//3
f 82//5 86//5 85//5
f 81//5 82//5 85//5
f 90//1 91//1 92//1
f 89//1 90//1 92//1
f 94//2 95//2 96//2
f 93//2 94//2 96//2
f 91//5 94//5 93//5
f 92//5 91//5 93//5
f 95//3 90//3 89//3
f 96//3 95//3 89//3
f 99//1 98//1 97//1
f 100//1 99//1 97//1
f 103//2 102//2 101//2
f 104//2 103//2 101//2
f 102//3 99//3 100//3
f 101//3 102//3 100//3
f 98//5 103//5 104//5
f 97//5 98//5 104//5
f 107//1 106//1 105//1
f 108//1 107//1 105//1
f 111//2 110//2 109//2
f 112//2 111//2 109//2
f 106//5 111//5 112//5
f 105//5 106//5 112//5
f 110//3 107//3 108//3
f 109//3 110//3 108//3
f 115//5 114//5 113//5
f 116//5 115//5 113//5
f 117//2 115//2 116//2
f 118//2 117//2 116//2
f 119//3 117//3 118//3
f 120//3 119//3 118//3
f 114//1 119//1 120//1
f 113//1 114//1 120//1
f 114//7 115//7 117//7
f 119//7 114//7 117//7
f 120//8 118//8 116//8
f 113//8 120//8 116//8
f 123//6 122//6 121//6
f 124//6 123//6 121//6
f 126//4 127//4 128//4
f 125//4 126//4 128//4
f 126//5 125//5 121//5
f 122//5 126//5 121//5
f 127//2 126//2 122//2
f 123//2 127//2 122//2
f 128//3 127//3 123//3
f 124//3 128//3 123//3
f 125//1 128//1 124//1
f 121//1 125//1 124//1
