# Blender v2.79 (sub 0) OBJ File: ''
# www.blender.org
mtllib m905.mtl
o m905
v -0.477002 0.476841 -0.073725
v 0.472998 0.476841 -0.073725
v 0.472998 -0.473159 -0.073725
v -0.477002 -0.473159 -0.073725
v -0.477002 0.476841 -0.046175
v 0.472998 0.476841 -0.046175
v 0.472998 -0.473159 -0.046175
v -0.477002 -0.473159 -0.046175
v -0.475102 0.474941 -0.046175
v 0.471098 0.474941 -0.046175
v 0.471098 -0.471259 -0.046175
v -0.475102 -0.471259 -0.046175
v -0.475102 0.474941 -0.017675
v 0.471098 0.474941 -0.017675
v 0.471098 -0.471259 -0.017675
v -0.475102 -0.471259 -0.017675
v -0.446602 0.446441 -0.046175
v 0.442598 0.446441 -0.046175
v 0.442598 -0.442759 -0.046175
v -0.446602 -0.442759 -0.046175
v -0.446602 0.446441 -0.017675
v 0.442598 0.446441 -0.017675
v 0.442598 -0.442759 -0.017675
v -0.446602 -0.442759 -0.017675
v -0.446602 0.474941 -0.017675
v 0.442598 0.474941 -0.017675
v 0.471098 0.446441 -0.017675
v 0.471098 -0.442759 -0.017675
v 0.442598 -0.471259 -0.017675
v -0.446602 -0.471259 -0.017675
v -0.475102 -0.442759 -0.017675
v -0.475102 0.446441 -0.017675
v -0.475102 0.474941 0.742325
v -0.446602 0.474941 0.742325
v -0.446602 0.446441 0.742325
v -0.475102 0.446441 0.742325
v 0.442598 0.474941 0.742325
v 0.471098 0.474941 0.742325
v 0.471098 0.446441 0.742325
v 0.442598 0.446441 0.742325
v 0.471098 -0.442759 0.742325
v 0.471098 -0.471259 0.742325
v 0.442598 -0.471259 0.742325
v 0.442598 -0.442759 0.742325
v -0.446602 -0.471259 0.742325
v -0.475102 -0.471259 0.742325
v -0.475102 -0.442759 0.742325
v -0.446602 -0.442759 0.742325
vn 0.0000 0.0000 -1.0000
vn 0.0000 0.0000 1.0000
vn 0.0000 1.0000 0.0000
vn 1.0000 0.0000 0.0000
vn 0.0000 -1.0000 0.0000
vn -1.0000 0.0000 0.0000
usemtl None
s off
f 1//1 2//1 3//1
f 5//2 8//2 7//2
f 1//3 5//3 6//3
f 2//4 6//4 7//4
f 3//5 7//5 8//5
f 4//6 8//6 5//6
f 9//3 13//3 14//3
f 10//4 14//4 15//4
f 11//5 15//5 16//5
f 12//6 16//6 13//6
f 17//5 18//5 22//5
f 18//6 19//6 23//6
f 19//3 20//3 24//3
f 20//4 17//4 21//4
f 13//2 22//2 14//2
f 14//2 23//2 15//2
f 15//2 24//2 16//2
f 16//2 21//2 13//2
f 13//3 33//3 34//3
f 25//4 34//4 35//4
f 21//6 35//6 34//6
f 32//6 36//6 33//6
f 26//3 37//3 38//3
f 14//4 38//4 39//4
f 27//5 39//5 40//5
f 22//6 40//6 37//6
f 23//3 44//3 41//3
f 28//4 41//4 42//4
f 15//5 42//5 43//5
f 29//6 43//6 44//6
f 31//3 47//3 48//3
f 24//4 48//4 45//4
f 30//5 45//5 46//5
f 16//6 46//6 47//6
f 1//1 3//1 4//1
f 5//2 7//2 6//2
f 1//3 6//3 2//3
f 2//4 7//4 3//4
f 3//5 8//5 4//5
f 4//6 5//6 1//6
f 9//3 14//3 10//3
f 10//4 15//4 11//4
f 11//5 16//5 12//5
f 12//6 13//6 9//6
f 17//5 22//5 21//5
f 18//6 23//6 22//6
f 19//3 24//3 23//3
f 20//4 21//4 24//4
f 13//2 21//2 22//2
f 14//2 22//2 23//2
f 15//2 23//2 24//2
f 16//2 24//2 21//2
f 13//3 34//3 25//3
f 25//4 35//4 21//4
f 32//6 33//6 13//6
f 26//3 38//3 14//3
f 14//4 39//4 27//4
f 27//5 40//5 22//5
f 22//6 37//6 26//6
f 23//3 41//3 28//3
f 28//4 42//4 15//4
f 15//5 43//5 29//5
f 29//6 44//6 23//6
f 31//3 48//3 24//3
f 24//4 45//4 30//4
f 30//5 46//5 16//5
f 16//6 47//6 31//6
