# Blender v2.79 (sub 0) OBJ File: ''
# www.blender.org
mtllib m906.mtl
o m906
v -0.063543 -0.336674 -0.210397
v -0.053702 -0.330067 -0.210092
v -0.059045 -0.352550 -0.011550
v -0.049204 -0.345943 -0.011245
v -0.064294 -0.334164 -0.009964
v -0.068792 -0.318288 -0.208811
v -0.049624 -0.318961 -0.209298
v -0.045126 -0.334837 -0.010451
v -0.052868 -0.307598 -0.208317
v -0.048370 -0.323474 -0.009470
v -0.062194 -0.300319 -0.207525
v -0.057696 -0.316195 -0.008678
v -0.074040 -0.299903 -0.207224
v -0.069542 -0.315779 -0.008377
v -0.083882 -0.306510 -0.207529
v -0.079384 -0.322386 -0.008682
v -0.087959 -0.317615 -0.208323
v -0.083461 -0.333491 -0.009476
v -0.084716 -0.328978 -0.209304
v -0.080217 -0.344854 -0.010457
v -0.075390 -0.336258 -0.210096
v -0.070891 -0.352134 -0.011249
v 0.135849 -0.139590 -0.203665
v 0.145690 -0.132983 -0.203360
v 0.140347 -0.155466 -0.004818
v 0.150188 -0.148859 -0.004513
v 0.135098 -0.137080 -0.003231
v 0.130600 -0.121204 -0.202078
v 0.149768 -0.121877 -0.202565
v 0.154266 -0.137753 -0.003718
v 0.146524 -0.110514 -0.201585
v 0.151022 -0.126390 -0.002738
v 0.137198 -0.103235 -0.200793
v 0.141696 -0.119111 -0.001946
v 0.125352 -0.102819 -0.200491
v 0.129850 -0.118695 -0.001644
v 0.115510 -0.109425 -0.200796
v 0.120008 -0.125301 -0.001949
v 0.111432 -0.120531 -0.201591
v 0.115931 -0.136407 -0.002744
v 0.114676 -0.131894 -0.202571
v 0.119174 -0.147770 -0.003724
v 0.124002 -0.139174 -0.203364
v 0.128501 -0.155050 -0.004516
v 0.209847 0.093241 -0.196953
v 0.219689 0.099848 -0.196648
v 0.214345 0.077365 0.001894
v 0.224187 0.083972 0.002199
v 0.209097 0.095750 0.003481
v 0.204599 0.111626 -0.195366
v 0.223766 0.110954 -0.195853
v 0.228264 0.095078 0.002994
v 0.220522 0.122316 -0.194873
v 0.225021 0.106440 0.003974
v 0.211196 0.129596 -0.194081
v 0.215695 0.113720 0.004767
v 0.199350 0.130012 -0.193780
v 0.203848 0.114136 0.005068
v 0.189509 0.123405 -0.194084
v 0.194007 0.107529 0.004763
v 0.185431 0.112299 -0.194879
v 0.189929 0.096423 0.003968
v 0.188675 0.100937 -0.195859
v 0.193173 0.085061 0.002988
v 0.198001 0.093657 -0.196652
v 0.202499 0.077781 0.002196
v 0.058741 0.375860 -0.190222
v 0.068582 0.382467 -0.189917
v 0.063239 0.359984 0.008626
v 0.073080 0.366591 0.008930
v 0.057990 0.378370 0.010212
v 0.053492 0.394246 -0.188635
v 0.072660 0.393573 -0.189122
v 0.077158 0.377697 0.009725
v 0.069416 0.404936 -0.188142
v 0.073914 0.389060 0.010705
v 0.060090 0.412215 -0.187350
v 0.064588 0.396339 0.011498
v 0.048244 0.412631 -0.187048
v 0.052742 0.396755 0.011799
v 0.038402 0.406025 -0.187353
v 0.042900 0.390149 0.011494
v 0.034324 0.394919 -0.188148
v 0.038823 0.379043 0.010699
v 0.037568 0.383556 -0.189128
v 0.042066 0.367680 0.009719
v 0.046894 0.376276 -0.189920
v 0.051393 0.360400 0.008927
v -0.020678 0.418061 -0.183323
v -0.010837 0.424668 -0.183018
v -0.016180 0.402185 0.015524
v -0.006338 0.408792 0.015829
v -0.021428 0.420570 0.017111
v -0.025927 0.436446 -0.181737
v -0.006759 0.435774 -0.182224
v -0.002261 0.419898 0.016623
v -0.010003 0.447136 -0.181243
v -0.005504 0.431260 0.017604
v -0.019329 0.454416 -0.180451
v -0.014831 0.438540 0.018396
v -0.031175 0.454832 -0.180150
v -0.026677 0.438956 0.018697
v -0.041017 0.448225 -0.180455
v -0.036518 0.432349 0.018392
v -0.045094 0.437119 -0.181249
v -0.040596 0.421243 0.017598
v -0.041851 0.425757 -0.182230
v -0.037352 0.409881 0.016617
v -0.032524 0.418477 -0.183022
v -0.028026 0.402601 0.015825
v -0.234607 -0.487761 0.011185
v -0.360673 0.372732 0.078841
v 0.219361 0.461146 0.035135
v 0.345427 -0.399347 -0.032521
v -0.236019 -0.486668 -0.005347
v -0.362085 0.373825 0.062310
v 0.217949 0.462239 0.018604
v 0.344015 -0.398254 -0.049053
v -0.068700 -0.319603 -0.246670
v -0.053178 -0.308326 -0.208299
v -0.049514 -0.319603 -0.208299
v -0.068700 -0.319603 -0.208299
v -0.062771 -0.301357 -0.208299
v -0.074628 -0.301357 -0.208299
v -0.084221 -0.308326 -0.208299
v -0.087885 -0.319603 -0.208299
v -0.084221 -0.330880 -0.208299
v -0.074628 -0.337850 -0.208299
v -0.062771 -0.337850 -0.208299
v -0.053178 -0.330880 -0.208299
v 0.135052 -0.125445 -0.233624
v 0.150573 -0.114168 -0.195252
v 0.154237 -0.125445 -0.195252
v 0.135052 -0.125445 -0.195252
v 0.140980 -0.107198 -0.195252
v 0.129123 -0.107198 -0.195252
v 0.119530 -0.114168 -0.195252
v 0.115866 -0.125445 -0.195252
v 0.119530 -0.136722 -0.195252
v 0.129123 -0.143691 -0.195252
v 0.140980 -0.143691 -0.195252
v 0.150573 -0.136722 -0.195252
v 0.206422 0.107469 -0.231705
v 0.221944 0.118746 -0.193334
v 0.225608 0.107469 -0.193334
v 0.206422 0.107469 -0.193334
v 0.212351 0.125716 -0.193334
v 0.200493 0.125716 -0.193334
v 0.190901 0.118746 -0.193334
v 0.187237 0.107469 -0.193334
v 0.190901 0.096192 -0.193334
v 0.200493 0.089222 -0.193334
v 0.212351 0.089222 -0.193334
v 0.221944 0.096192 -0.193334
v 0.053321 0.392184 -0.225566
v 0.068842 0.403461 -0.187194
v 0.072506 0.392184 -0.187194
v 0.053321 0.392184 -0.187194
v 0.059250 0.410430 -0.187194
v 0.047392 0.410430 -0.187194
v 0.037799 0.403461 -0.187194
v 0.034135 0.392184 -0.187194
v 0.037799 0.380907 -0.187194
v 0.047392 0.373937 -0.187194
v 0.059250 0.373937 -0.187194
v 0.068842 0.380907 -0.187194
v -0.028525 0.433701 -0.217508
v -0.013004 0.444978 -0.179136
v -0.009339 0.433701 -0.179136
v -0.028525 0.433701 -0.179136
v -0.022596 0.451948 -0.179136
v -0.034454 0.451948 -0.179136
v -0.044047 0.444978 -0.179136
v -0.047711 0.433701 -0.179136
v -0.044047 0.422424 -0.179136
v -0.034454 0.415455 -0.179136
v -0.022596 0.415455 -0.179136
v -0.013004 0.422424 -0.179136
vn 0.5574 -0.8265 -0.0786
vn 0.0225 -0.0795 0.9966
vn -0.0225 0.0795 -0.9966
vn 0.9387 -0.3412 -0.0485
vn 0.9616 0.2745 0.0002
vn 0.0225 -0.0796 0.9966
vn -0.0225 0.0796 -0.9966
vn 0.6171 0.7854 0.0487
vn 0.0370 0.9962 0.0787
vn -0.5573 0.8266 0.0786
vn -0.9387 0.3412 0.0485
vn 0.0226 -0.0795 0.9966
vn -0.0226 0.0795 -0.9966
vn -0.9616 -0.2744 -0.0002
vn -0.9616 -0.2745 -0.0002
vn 0.0226 -0.0796 0.9966
vn -0.0226 0.0796 -0.9966
vn -0.6172 -0.7853 -0.0487
vn -0.0370 -0.9962 -0.0787
vn -0.9388 0.3411 0.0485
vn -0.6171 -0.7854 -0.0487
vn 0.5573 -0.8266 -0.0786
vn 0.9388 -0.3411 -0.0485
vn 0.9616 0.2744 0.0002
vn 0.6172 0.7853 0.0487
vn -0.5574 0.8265 0.0786
vn 0.9388 -0.3412 -0.0485
vn 0.0849 -0.0657 0.9942
vn -0.9859 -0.1503 0.0743
vn 0.1445 -0.9865 -0.0776
vn 0.9859 0.1503 -0.0743
vn -0.1445 0.9865 0.0776
vn -0.0849 0.0657 -0.9942
vn 0.8589 0.2791 -0.4295
vn 0.0000 0.0000 1.0000
vn 0.5308 0.7306 -0.4294
vn 0.0000 0.9031 -0.4294
vn -0.5308 0.7306 -0.4294
vn -0.8589 0.2791 -0.4294
vn -0.8589 -0.2791 -0.4294
vn -0.5308 -0.7306 -0.4294
vn 0.0000 -0.9031 -0.4295
vn 0.5308 -0.7306 -0.4295
vn 0.8589 -0.2791 -0.4295
vn 0.8589 0.2791 -0.4294
vn 0.0000 -0.9031 -0.4294
vn 0.5308 -0.7306 -0.4294
vn 0.8589 -0.2791 -0.4294
vn 0.5308 0.7306 -0.4295
vn 0.0000 0.9031 -0.4295
vn -0.5309 0.7306 -0.4294
vn -0.5309 -0.7306 -0.4295
vn 0.5309 -0.7306 -0.4294
vn 0.5309 0.7306 -0.4294
usemtl None
s off
f 1//1 2//1 3//1
f 2//1 4//1 3//1
f 5//2 3//2 4//2
f 6//3 2//3 1//3
f 2//4 7//4 4//4
f 7//4 8//4 4//4
f 5//2 4//2 8//2
f 6//3 7//3 2//3
f 7//5 9//5 8//5
f 9//5 10//5 8//5
f 5//6 8//6 10//6
f 6//7 9//7 7//7
f 9//8 11//8 10//8
f 11//8 12//8 10//8
f 5//6 10//6 12//6
f 6//7 11//7 9//7
f 11//9 13//9 12//9
f 13//9 14//9 12//9
f 5//6 12//6 14//6
f 6//7 13//7 11//7
f 13//10 15//10 14//10
f 15//10 16//10 14//10
f 5//6 14//6 16//6
f 6//7 15//7 13//7
f 15//11 17//11 16//11
f 17//11 18//11 16//11
f 5//12 16//12 18//12
f 6//13 17//13 15//13
f 17//14 19//14 18//14
f 19//15 20//15 18//15
f 5//16 18//16 20//16
f 6//17 19//17 17//17
f 19//18 21//18 20//18
f 21//18 22//18 20//18
f 5//2 20//2 22//2
f 6//3 21//3 19//3
f 21//19 1//19 22//19
f 1//19 3//19 22//19
f 5//2 22//2 3//2
f 6//3 1//3 21//3
f 23//1 24//1 25//1
f 24//1 26//1 25//1
f 27//6 25//6 26//6
f 28//7 24//7 23//7
f 24//4 29//4 26//4
f 29//4 30//4 26//4
f 27//6 26//6 30//6
f 28//7 29//7 24//7
f 29//5 31//5 30//5
f 31//5 32//5 30//5
f 27//2 30//2 32//2
f 28//3 31//3 29//3
f 31//8 33//8 32//8
f 33//8 34//8 32//8
f 27//2 32//2 34//2
f 28//3 33//3 31//3
f 33//9 35//9 34//9
f 35//9 36//9 34//9
f 27//16 34//16 36//16
f 28//17 35//17 33//17
f 35//10 37//10 36//10
f 37//10 38//10 36//10
f 27//6 36//6 38//6
f 28//7 37//7 35//7
f 37//11 39//11 38//11
f 39//20 40//20 38//20
f 27//6 38//6 40//6
f 28//7 39//7 37//7
f 39//15 41//15 40//15
f 41//14 42//14 40//14
f 27//2 40//2 42//2
f 28//3 41//3 39//3
f 41//18 43//18 42//18
f 43//21 44//21 42//21
f 27//2 42//2 44//2
f 28//17 43//17 41//17
f 43//19 23//19 44//19
f 23//19 25//19 44//19
f 27//16 44//16 25//16
f 28//7 23//7 43//7
f 45//22 46//22 47//22
f 46//22 48//22 47//22
f 49//6 47//6 48//6
f 50//7 46//7 45//7
f 46//23 51//23 48//23
f 51//23 52//23 48//23
f 49//6 48//6 52//6
f 50//7 51//7 46//7
f 51//5 53//5 52//5
f 53//24 54//24 52//24
f 49//2 52//2 54//2
f 50//3 53//3 51//3
f 53//25 55//25 54//25
f 55//25 56//25 54//25
f 49//6 54//6 56//6
f 50//3 55//3 53//3
f 55//9 57//9 56//9
f 57//9 58//9 56//9
f 49//6 56//6 58//6
f 50//3 57//3 55//3
f 57//26 59//26 58//26
f 59//26 60//26 58//26
f 49//6 58//6 60//6
f 50//13 59//13 57//13
f 59//11 61//11 60//11
f 61//11 62//11 60//11
f 49//6 60//6 62//6
f 50//7 61//7 59//7
f 61//15 63//15 62//15
f 63//15 64//15 62//15
f 49//2 62//2 64//2
f 50//3 63//3 61//3
f 63//18 65//18 64//18
f 65//18 66//18 64//18
f 49//2 64//2 66//2
f 50//17 65//17 63//17
f 65//19 45//19 66//19
f 45//19 47//19 66//19
f 49//16 66//16 47//16
f 50//7 45//7 65//7
f 67//1 68//1 69//1
f 68//1 70//1 69//1
f 71//6 69//6 70//6
f 72//7 68//7 67//7
f 68//4 73//4 70//4
f 73//4 74//4 70//4
f 71//6 70//6 74//6
f 72//7 73//7 68//7
f 73//5 75//5 74//5
f 75//5 76//5 74//5
f 71//6 74//6 76//6
f 72//3 75//3 73//3
f 75//8 77//8 76//8
f 77//8 78//8 76//8
f 71//6 76//6 78//6
f 72//3 77//3 75//3
f 77//9 79//9 78//9
f 79//9 80//9 78//9
f 71//6 78//6 80//6
f 72//17 79//17 77//17
f 79//10 81//10 80//10
f 81//10 82//10 80//10
f 71//6 80//6 82//6
f 72//7 81//7 79//7
f 81//11 83//11 82//11
f 83//20 84//20 82//20
f 71//6 82//6 84//6
f 72//7 83//7 81//7
f 83//15 85//15 84//15
f 85//14 86//14 84//14
f 71//6 84//6 86//6
f 72//3 85//3 83//3
f 85//18 87//18 86//18
f 87//21 88//21 86//21
f 71//6 86//6 88//6
f 72//3 87//3 85//3
f 87//19 67//19 88//19
f 67//19 69//19 88//19
f 71//6 88//6 69//6
f 72//17 67//17 87//17
f 89//1 90//1 91//1
f 90//22 92//22 91//22
f 93//6 91//6 92//6
f 94//3 90//3 89//3
f 90//4 95//4 92//4
f 95//27 96//27 92//27
f 93//6 92//6 96//6
f 94//3 95//3 90//3
f 95//5 97//5 96//5
f 97//5 98//5 96//5
f 93//6 96//6 98//6
f 94//7 97//7 95//7
f 97//25 99//25 98//25
f 99//8 100//8 98//8
f 93//6 98//6 100//6
f 94//7 99//7 97//7
f 99//9 101//9 100//9
f 101//9 102//9 100//9
f 93//6 100//6 102//6
f 94//7 101//7 99//7
f 101//10 103//10 102//10
f 103//26 104//26 102//26
f 93//6 102//6 104//6
f 94//7 103//7 101//7
f 103//20 105//20 104//20
f 105//11 106//11 104//11
f 93//6 104//6 106//6
f 94//13 105//13 103//13
f 105//15 107//15 106//15
f 107//15 108//15 106//15
f 93//6 106//6 108//6
f 94//17 107//17 105//17
f 107//21 109//21 108//21
f 109//18 110//18 108//18
f 93//6 108//6 110//6
f 94//3 109//3 107//3
f 109//19 89//19 110//19
f 89//19 91//19 110//19
f 93//6 110//6 91//6
f 94//3 89//3 109//3
f 111//28 114//28 112//28
f 112//28 114//28 113//28
f 111//29 116//29 115//29
f 111//29 112//29 116//29
f 111//30 115//30 114//30
f 114//30 115//30 118//30
f 114//31 118//31 117//31
f 114//31 117//31 113//31
f 112//32 117//32 116//32
f 112//32 113//32 117//32
f 116//33 118//33 115//33
f 116//33 117//33 118//33
f 119//34 120//34 121//34
f 122//35 121//35 120//35
f 119//36 123//36 120//36
f 122//35 120//35 123//35
f 119//37 124//37 123//37
f 122//35 123//35 124//35
f 119//38 125//38 124//38
f 122//35 124//35 125//35
f 119//39 126//39 125//39
f 122//35 125//35 126//35
f 119//40 127//40 126//40
f 122//35 126//35 127//35
f 119//41 128//41 127//41
f 122//35 127//35 128//35
f 119//42 129//42 128//42
f 122//35 128//35 129//35
f 119//43 130//43 129//43
f 122//35 129//35 130//35
f 119//44 121//44 130//44
f 122//35 130//35 121//35
f 131//45 132//45 133//45
f 134//35 133//35 132//35
f 131//36 135//36 132//36
f 134//35 132//35 135//35
f 131//37 136//37 135//37
f 134//35 135//35 136//35
f 131//38 137//38 136//38
f 134//35 136//35 137//35
f 131//39 138//39 137//39
f 134//35 137//35 138//35
f 131//40 139//40 138//40
f 134//35 138//35 139//35
f 131//41 140//41 139//41
f 134//35 139//35 140//35
f 131//46 141//46 140//46
f 134//35 140//35 141//35
f 131//47 142//47 141//47
f 134//35 141//35 142//35
f 131//48 133//48 142//48
f 134//35 142//35 133//35
f 143//34 144//34 145//34
f 146//35 145//35 144//35
f 143//49 147//49 144//49
f 146//35 144//35 147//35
f 143//50 148//50 147//50
f 146//35 147//35 148//35
f 143//51 149//51 148//51
f 146//35 148//35 149//35
f 143//39 150//39 149//39
f 146//35 149//35 150//35
f 143//40 151//40 150//40
f 146//35 150//35 151//35
f 143//52 152//52 151//52
f 146//35 151//35 152//35
f 143//42 153//42 152//42
f 146//35 152//35 153//35
f 143//43 154//43 153//43
f 146//35 153//35 154//35
f 143//44 145//44 154//44
f 146//35 154//35 145//35
f 155//45 156//45 157//45
f 158//35 157//35 156//35
f 155//36 159//36 156//36
f 158//35 156//35 159//35
f 155//37 160//37 159//37
f 158//35 159//35 160//35
f 155//38 161//38 160//38
f 158//35 160//35 161//35
f 155//39 162//39 161//39
f 158//35 161//35 162//35
f 155//40 163//40 162//40
f 158//35 162//35 163//35
f 155//41 164//41 163//41
f 158//35 163//35 164//35
f 155//46 165//46 164//46
f 158//35 164//35 165//35
f 155//53 166//53 165//53
f 158//35 165//35 166//35
f 155//48 157//48 166//48
f 158//35 166//35 157//35
f 167//45 168//45 169//45
f 170//35 169//35 168//35
f 167//54 171//54 168//54
f 170//35 168//35 171//35
f 167//37 172//37 171//37
f 170//35 171//35 172//35
f 167//38 173//38 172//38
f 170//35 172//35 173//35
f 167//39 174//39 173//39
f 170//35 173//35 174//35
f 167//40 175//40 174//40
f 170//35 174//35 175//35
f 167//41 176//41 175//41
f 170//35 175//35 176//35
f 167//46 177//46 176//46
f 170//35 176//35 177//35
f 167//47 178//47 177//47
f 170//35 177//35 178//35
f 167//48 169//48 178//48
f 170//35 178//35 169//35
