# Blender v2.79 (sub 0) OBJ File: ''
# www.blender.org
mtllib m912.mtl
o m912
v -0.475000 -0.237500 -0.003200
v 0.475000 -0.237500 -0.003200
v 0.475000 -0.237500 -0.050700
v -0.475000 -0.237500 -0.050700
v -0.475000 0.237500 -0.003200
v 0.475000 0.237500 -0.003200
v 0.475000 0.237500 -0.050700
v -0.475000 0.237500 -0.050700
v -0.475000 0.218500 0.424300
v -0.456000 0.218500 0.424300
v -0.456000 0.218500 -0.003200
v -0.475000 0.218500 -0.003200
v -0.475000 0.237500 0.424300
v -0.456000 0.237500 0.424300
v -0.456000 0.237500 -0.003200
v -0.475000 -0.237500 0.424300
v -0.456000 -0.237500 0.424300
v -0.456000 -0.237500 -0.003200
v -0.475000 -0.218500 0.424300
v -0.456000 -0.218500 0.424300
v -0.456000 -0.218500 -0.003200
v -0.475000 -0.218500 -0.003200
v 0.456000 0.218500 0.424300
v 0.475000 0.218500 0.424300
v 0.475000 0.218500 -0.003200
v 0.456000 0.218500 -0.003200
v 0.456000 0.237500 0.424300
v 0.475000 0.237500 0.424300
v 0.456000 0.237500 -0.003200
v 0.456000 -0.237500 0.424300
v 0.475000 -0.237500 0.424300
v 0.456000 -0.237500 -0.003200
v 0.456000 -0.218500 0.424300
v 0.475000 -0.218500 0.424300
v 0.475000 -0.218500 -0.003200
v 0.456000 -0.218500 -0.003200
vn 0.0000 -1.0000 0.0000
vn 0.0000 0.0000 1.0000
vn -1.0000 0.0000 0.0000
vn 0.0000 0.0000 -1.0000
vn 1.0000 0.0000 0.0000
vn 0.0000 1.0000 0.0000
usemtl None
s off
f 1//1 4//1 2//1
f 2//1 4//1 3//1
f 1//2 6//2 5//2
f 1//2 2//2 6//2
f 1//3 5//3 4//3
f 4//3 5//3 8//3
f 4//4 8//4 7//4
f 4//4 7//4 3//4
f 2//5 7//5 6//5
f 2//5 3//5 7//5
f 6//6 8//6 5//6
f 6//6 7//6 8//6
f 9//1 12//1 10//1
f 10//1 12//1 11//1
f 9//2 14//2 13//2
f 9//2 10//2 14//2
f 9//3 13//3 12//3
f 12//3 13//3 5//3
f 12//4 5//4 15//4
f 12//4 15//4 11//4
f 10//5 15//5 14//5
f 10//5 11//5 15//5
f 14//6 5//6 13//6
f 14//6 15//6 5//6
f 16//1 1//1 17//1
f 17//1 1//1 18//1
f 16//2 20//2 19//2
f 16//2 17//2 20//2
f 16//3 19//3 1//3
f 1//3 19//3 22//3
f 1//4 22//4 21//4
f 1//4 21//4 18//4
f 17//5 21//5 20//5
f 17//5 18//5 21//5
f 20//6 22//6 19//6
f 20//6 21//6 22//6
f 23//1 26//1 24//1
f 24//1 26//1 25//1
f 23//2 28//2 27//2
f 23//2 24//2 28//2
f 23//3 27//3 26//3
f 26//3 27//3 29//3
f 26//4 29//4 6//4
f 26//4 6//4 25//4
f 24//5 6//5 28//5
f 24//5 25//5 6//5
f 28//6 29//6 27//6
f 28//6 6//6 29//6
f 30//1 32//1 31//1
f 31//1 32//1 2//1
f 30//2 34//2 33//2
f 30//2 31//2 34//2
f 30//3 33//3 32//3
f 32//3 33//3 36//3
f 32//4 36//4 35//4
f 32//4 35//4 2//4
f 31//5 35//5 34//5
f 31//5 2//5 35//5
f 34//6 36//6 33//6
f 34//6 35//6 36//6
