# Blender v2.79 (sub 0) OBJ File: ''
# www.blender.org
mtllib m913.mtl
o m913
v -0.329621 0.432543 -0.138738
v -0.329621 -0.439730 -0.138738
v -0.318106 0.426786 -0.112829
v -0.318106 0.426786 -0.164647
v -0.318106 -0.433972 -0.112829
v -0.318106 -0.433972 -0.164647
v -0.292197 0.416710 -0.102753
v -0.292197 0.416710 -0.176162
v -0.292197 -0.423896 -0.102753
v -0.292197 -0.423896 -0.176162
v -0.289318 0.471407 -0.138738
v -0.289318 -0.478593 -0.138738
v -0.285000 0.461331 -0.112829
v -0.285000 0.461331 -0.164647
v -0.285000 -0.468518 -0.112829
v -0.285000 -0.468518 -0.164647
v -0.274924 0.435422 -0.102753
v -0.274924 0.435422 -0.176162
v -0.274924 -0.442609 -0.102753
v -0.274924 -0.442609 -0.176162
v 0.274924 0.435422 -0.102753
v 0.274924 0.435422 -0.176162
v 0.274924 -0.442609 -0.102753
v 0.274924 -0.442609 -0.176162
v 0.285000 0.461331 -0.112829
v 0.285000 0.461331 -0.164647
v 0.285000 -0.468518 -0.112829
v 0.285000 -0.468518 -0.164647
v 0.289318 0.471407 -0.138738
v 0.289318 -0.478593 -0.138738
v 0.292197 0.416710 -0.102753
v 0.292197 0.416710 -0.176162
v 0.292197 -0.423896 -0.102753
v 0.292197 -0.423896 -0.176162
v 0.318106 0.426786 -0.112829
v 0.318106 0.426786 -0.164647
v 0.318106 -0.433972 -0.112829
v 0.318106 -0.433972 -0.164647
v 0.329621 0.432543 -0.138738
v 0.329621 -0.439730 -0.138738
v -0.274924 0.402316 0.701753
v -0.274924 0.402316 -0.102753
v -0.274924 0.370649 0.701753
v -0.274924 0.326028 -0.102753
v -0.274924 -0.314502 -0.102753
v -0.274924 -0.360563 0.701724
v -0.274924 -0.390790 0.701724
v -0.274924 -0.390790 -0.102753
v -0.267727 0.418149 0.701753
v -0.267727 0.418149 -0.102753
v -0.267727 -0.406624 0.701724
v -0.267727 -0.406624 -0.102753
v -0.257651 0.422468 0.701753
v -0.257651 0.422468 -0.102753
v -0.257651 -0.410942 0.701724
v -0.257651 -0.410942 -0.102753
v -0.250454 0.422468 0.701753
v -0.250454 0.422468 -0.102753
v -0.250454 -0.410942 0.701724
v -0.250454 -0.410942 -0.102753
v -0.238939 0.418149 0.701753
v -0.238939 0.418149 -0.102753
v -0.238939 -0.406624 0.701724
v -0.238939 -0.406624 -0.102753
v -0.233182 0.402316 0.701753
v -0.233182 0.402316 -0.102753
v -0.233182 0.370649 0.701753
v -0.233182 0.326028 -0.102753
v -0.233182 -0.314502 -0.102753
v -0.233182 -0.360563 0.701724
v -0.233182 -0.390790 0.701724
v -0.233182 -0.390790 -0.102753
v 0.233182 0.402316 0.701753
v 0.233182 0.402316 -0.102753
v 0.233182 0.370649 0.701753
v 0.233182 0.326028 -0.102753
v 0.233182 -0.314502 -0.102753
v 0.233182 -0.360563 0.701724
v 0.233182 -0.390790 0.701724
v 0.233182 -0.390790 -0.102753
v 0.238940 0.418149 0.701753
v 0.238940 0.418149 -0.102753
v 0.238940 -0.406624 0.701724
v 0.238940 -0.406624 -0.102753
v 0.250455 0.422468 0.701753
v 0.250455 0.422468 -0.102753
v 0.250455 -0.410942 0.701724
v 0.250455 -0.410942 -0.102753
v 0.257652 0.422468 0.701753
v 0.257652 0.422468 -0.102753
v 0.257652 -0.410942 0.701724
v 0.257652 -0.410942 -0.102753
v 0.267727 0.418149 -0.102753
v 0.267727 0.418149 0.701753
v 0.267727 -0.406624 0.701724
v 0.267727 -0.406624 -0.102753
v 0.274924 0.402316 0.701753
v 0.274924 0.402316 -0.102753
v 0.274924 0.370649 0.701753
v 0.274924 0.326028 -0.102753
v 0.274924 -0.314502 -0.102753
v 0.274924 -0.360563 0.701724
v 0.274924 -0.390790 0.701724
v 0.274924 -0.390790 -0.102753
vn 0.0000 0.0000 -1.0000
vn 0.0000 0.0000 1.0000
vn 0.3001 -0.2876 -0.9096
vn 0.6455 -0.6694 -0.3679
vn 0.6728 -0.6447 0.3629
vn 0.2749 -0.2538 0.9274
vn 0.0000 -0.4061 -0.9138
vn 0.0000 -0.9320 -0.3624
vn 0.0000 -0.9320 0.3625
vn 0.0000 -0.3625 0.9320
vn -0.2954 -0.2831 -0.9125
vn -0.6286 -0.6519 -0.4242
vn -0.6522 -0.6251 0.4288
vn -0.2667 -0.2461 0.9318
vn -0.4061 0.0000 -0.9138
vn -0.9138 0.0000 -0.4061
vn -0.9138 0.0000 0.4061
vn -0.3625 0.0000 0.9320
vn -0.3001 0.2876 -0.9096
vn -0.6455 0.6694 -0.3679
vn -0.6728 0.6447 0.3629
vn -0.2749 0.2538 0.9274
vn 0.0000 0.4061 -0.9138
vn 0.0000 0.9320 -0.3625
vn 0.0000 0.9320 0.3625
vn 0.0000 0.3625 0.9320
vn 0.2954 0.2831 -0.9125
vn 0.6286 0.6519 -0.4242
vn 0.6522 0.6251 0.4288
vn 0.2667 0.2462 0.9318
vn 0.4061 0.0000 -0.9138
vn 0.9138 0.0000 -0.4061
vn 0.9138 0.0000 0.4061
vn 0.3625 0.0000 0.9320
vn -0.9104 -0.4138 0.0000
vn -0.3939 -0.9191 0.0000
vn 0.3511 -0.9363 0.0000
vn 0.9398 -0.3417 0.0000
vn -1.0000 0.0000 0.0000
vn 0.0000 0.9984 0.0572
vn 1.0000 0.0000 0.0000
vn 0.0000 -1.0000 0.0000
vn 0.9104 -0.4138 0.0000
vn 0.3939 -0.9191 0.0000
vn -0.3511 -0.9363 0.0000
vn -0.9398 -0.3418 0.0000
vn 0.9104 0.4138 0.0000
vn 0.3940 0.9191 0.0000
vn -0.3512 0.9363 0.0000
vn -0.9398 0.3418 0.0000
vn 0.0000 -0.9985 0.0554
vn 0.0000 1.0000 0.0000
vn -0.9104 0.4138 0.0000
vn -0.3940 0.9191 0.0000
vn 0.3512 0.9363 0.0000
vn 0.9398 0.3417 0.0000
vn 0.2988 -0.2758 -0.9136
vn 0.6522 -0.6251 -0.4288
vn 0.6286 -0.6519 0.4242
vn 0.2637 -0.2527 0.9309
vn 0.0000 -0.9320 0.3624
vn -0.3076 -0.2840 -0.9081
vn -0.6728 -0.6447 -0.3629
vn -0.6455 -0.6694 0.3679
vn -0.2680 -0.2569 0.9285
vn -0.2988 0.2758 -0.9136
vn -0.6522 0.6251 -0.4288
vn -0.6286 0.6519 0.4242
vn -0.2637 0.2527 0.9309
vn 0.3076 0.2840 -0.9081
vn 0.6728 0.6447 -0.3629
vn 0.6455 0.6694 0.3679
vn 0.2680 0.2569 0.9285
usemtl None
s off
f 18//1 22//1 32//1
f 10//1 8//1 32//1
f 24//1 20//1 32//1
f 7//2 31//2 21//2
f 19//2 31//2 7//2
f 33//2 31//2 19//2
f 38//3 28//3 24//3
f 40//4 30//4 28//4
f 37//5 27//5 30//5
f 33//6 23//6 27//6
f 28//7 16//7 20//7
f 30//8 12//8 16//8
f 27//9 15//9 12//9
f 23//10 19//10 15//10
f 16//11 6//11 10//11
f 12//12 2//12 6//12
f 15//13 5//13 2//13
f 19//14 9//14 5//14
f 6//15 4//15 8//15
f 2//16 1//16 4//16
f 5//17 3//17 1//17
f 9//18 7//18 3//18
f 4//19 14//19 18//19
f 1//20 11//20 14//20
f 3//21 13//21 11//21
f 7//22 17//22 13//22
f 14//23 26//23 22//23
f 11//24 29//24 26//24
f 13//25 25//25 29//25
f 17//26 21//26 25//26
f 26//27 36//27 32//27
f 29//28 39//28 36//28
f 25//29 35//29 39//29
f 21//30 31//30 35//30
f 36//31 38//31 34//31
f 39//32 40//32 38//32
f 35//33 37//33 40//33
f 31//34 33//34 37//34
f 48//35 52//35 51//35
f 52//36 56//36 55//36
f 60//37 64//37 63//37
f 64//38 72//38 71//38
f 47//39 46//39 45//39
f 46//40 70//40 69//40
f 70//41 71//41 72//41
f 59//42 55//42 56//42
f 64//1 45//1 69//1
f 56//1 45//1 64//1
f 48//1 45//1 56//1
f 71//2 70//2 46//2
f 59//2 63//2 46//2
f 51//2 55//2 46//2
f 103//43 95//43 96//43
f 95//44 91//44 92//44
f 87//45 83//45 84//45
f 83//46 79//46 80//46
f 104//41 101//41 102//41
f 101//40 77//40 78//40
f 77//39 80//39 79//39
f 88//42 92//42 91//42
f 96//1 77//1 101//1
f 88//1 77//1 96//1
f 80//1 77//1 88//1
f 103//2 102//2 78//2
f 91//2 95//2 78//2
f 83//2 87//2 78//2
f 98//47 93//47 94//47
f 93//48 90//48 89//48
f 86//49 82//49 81//49
f 82//50 74//50 73//50
f 97//41 99//41 100//41
f 99//51 75//51 76//51
f 75//39 73//39 74//39
f 85//52 89//52 90//52
f 82//1 100//1 76//1
f 90//1 100//1 82//1
f 98//1 100//1 90//1
f 73//2 75//2 99//2
f 85//2 81//2 99//2
f 94//2 89//2 99//2
f 41//53 49//53 50//53
f 49//54 53//54 54//54
f 57//55 61//55 62//55
f 61//56 65//56 66//56
f 42//39 44//39 43//39
f 44//51 68//51 67//51
f 68//41 66//41 65//41
f 58//52 54//52 53//52
f 50//1 68//1 44//1
f 58//1 68//1 50//1
f 66//1 68//1 58//1
f 41//2 43//2 67//2
f 53//2 49//2 67//2
f 61//2 57//2 67//2
f 18//1 32//1 8//1
f 10//1 32//1 20//1
f 24//1 32//1 34//1
f 7//2 21//2 17//2
f 19//2 7//2 9//2
f 33//2 19//2 23//2
f 38//57 24//57 34//57
f 40//58 28//58 38//58
f 37//59 30//59 40//59
f 33//60 27//60 37//60
f 28//7 20//7 24//7
f 30//8 16//8 28//8
f 27//61 12//61 30//61
f 23//10 15//10 27//10
f 16//62 10//62 20//62
f 12//63 6//63 16//63
f 15//64 2//64 12//64
f 19//65 5//65 15//65
f 6//15 8//15 10//15
f 2//16 4//16 6//16
f 5//17 1//17 2//17
f 9//18 3//18 5//18
f 4//66 18//66 8//66
f 1//67 14//67 4//67
f 3//68 11//68 1//68
f 7//69 13//69 3//69
f 14//23 22//23 18//23
f 11//24 26//24 14//24
f 13//25 29//25 11//25
f 17//26 25//26 13//26
f 26//70 32//70 22//70
f 29//71 36//71 26//71
f 25//72 39//72 29//72
f 21//73 35//73 25//73
f 36//31 34//31 32//31
f 39//32 38//32 36//32
f 35//33 40//33 39//33
f 31//34 37//34 35//34
f 48//35 51//35 47//35
f 52//36 55//36 51//36
f 60//37 63//37 59//37
f 64//38 71//38 63//38
f 47//39 45//39 48//39
f 46//40 69//40 45//40
f 70//41 72//41 69//41
f 59//42 56//42 60//42
f 64//1 69//1 72//1
f 56//1 64//1 60//1
f 48//1 56//1 52//1
f 71//2 46//2 63//2
f 59//2 46//2 55//2
f 51//2 46//2 47//2
f 103//43 96//43 104//43
f 95//44 92//44 96//44
f 87//45 84//45 88//45
f 83//46 80//46 84//46
f 104//41 102//41 103//41
f 101//40 78//40 102//40
f 77//39 79//39 78//39
f 88//42 91//42 87//42
f 96//1 101//1 104//1
f 88//1 96//1 92//1
f 80//1 88//1 84//1
f 103//2 78//2 95//2
f 91//2 78//2 87//2
f 83//2 78//2 79//2
f 98//47 94//47 97//47
f 93//48 89//48 94//48
f 86//49 81//49 85//49
f 82//50 73//50 81//50
f 97//41 100//41 98//41
f 99//51 76//51 100//51
f 75//39 74//39 76//39
f 85//52 90//52 86//52
f 82//1 76//1 74//1
f 90//1 82//1 86//1
f 98//1 90//1 93//1
f 73//2 99//2 81//2
f 85//2 99//2 89//2
f 94//2 99//2 97//2
f 41//53 50//53 42//53
f 49//54 54//54 50//54
f 57//55 62//55 58//55
f 61//56 66//56 62//56
f 42//39 43//39 41//39
f 44//51 67//51 43//51
f 68//41 65//41 67//41
f 58//52 53//52 57//52
f 50//1 44//1 42//1
f 58//1 50//1 54//1
f 66//1 58//1 62//1
f 41//2 67//2 49//2
f 53//2 67//2 57//2
f 61//2 67//2 65//2
