# Blender v2.79 (sub 0) OBJ File: ''
# www.blender.org
mtllib m924.mtl
o m924
v -0.163015 -0.179819 0.023353
v -0.176213 -0.179819 -0.003043
v -0.176213 0.179803 -0.003043
v -0.163015 0.179803 0.023353
v 0.163525 -0.179819 0.023353
v 0.176723 -0.179819 -0.003043
v 0.176723 0.179803 -0.003043
v 0.163525 0.179803 0.023353
v -0.172699 -0.193016 -0.003043
v -0.161228 -0.186388 0.023353
v -0.156446 -0.191230 0.023353
v -0.163015 -0.202641 -0.003043
v -0.149817 -0.193016 0.023353
v -0.149817 -0.206156 -0.003043
v 0.150327 -0.193016 0.023353
v 0.150327 -0.206156 -0.003043
v 0.156955 -0.191230 0.023353
v 0.163525 -0.202641 -0.003043
v 0.161738 -0.186388 0.023353
v 0.173208 -0.193016 -0.003043
v -0.172699 0.192943 -0.003043
v -0.161228 0.186373 0.023353
v -0.156446 0.191215 0.023353
v -0.163015 0.202626 -0.003043
v -0.149817 0.192943 0.023353
v -0.149817 0.206141 -0.003043
v 0.150327 0.192943 0.023353
v 0.150327 0.206141 -0.003043
v 0.156955 0.191215 0.023353
v 0.163525 0.202626 -0.003043
v 0.161738 0.186373 0.023353
v 0.173208 0.192943 -0.003043
v 0.411167 0.237491 -0.029439
v 0.457734 0.122517 -0.029439
v 0.474851 -0.000008 -0.029439
v 0.335208 0.335350 -0.029439
v 0.237350 0.411308 -0.029439
v 0.122375 0.457875 -0.029439
v -0.000149 0.474993 -0.029439
v -0.122732 0.457875 -0.029439
v -0.237648 0.411308 -0.029439
v -0.335506 0.335350 -0.029439
v -0.411524 0.236511 -0.029439
v -0.458032 0.122517 -0.029439
v -0.475149 -0.000008 -0.029439
v -0.458032 -0.122532 -0.029439
v -0.411524 -0.237507 -0.029439
v -0.335506 -0.335365 -0.029439
v -0.236727 -0.411383 -0.029439
v -0.122732 -0.457891 -0.029439
v -0.000149 -0.475008 -0.029439
v 0.122375 -0.457891 -0.029439
v 0.237350 -0.411383 -0.029439
v 0.335208 -0.335365 -0.029439
v 0.411167 -0.237507 -0.029439
v 0.457734 -0.122532 -0.029439
v -0.000149 0.474993 -0.003043
v -0.122732 0.457875 -0.003043
v -0.237648 0.411308 -0.003043
v -0.335506 0.335350 -0.003043
v -0.411524 0.236511 -0.003043
v -0.458032 0.122517 -0.003043
v -0.475149 -0.000008 -0.003043
v -0.458032 -0.122532 -0.003043
v -0.411524 -0.237507 -0.003043
v -0.335506 -0.335365 -0.003043
v -0.236727 -0.411383 -0.003043
v -0.122732 -0.457891 -0.003043
v -0.000149 -0.475008 -0.003043
v 0.122375 -0.457891 -0.003043
v 0.237350 -0.411383 -0.003043
v 0.335208 -0.335365 -0.003043
v 0.411167 -0.237507 -0.003043
v 0.457734 -0.122532 -0.003043
v 0.474851 -0.000008 -0.003043
v 0.457734 0.122517 -0.003043
v 0.411167 0.237491 -0.003043
v 0.335208 0.335350 -0.003043
v 0.237350 0.411308 -0.003043
v 0.122375 0.457875 -0.003043
v 0.150327 -0.186404 0.262292
v 0.150327 -0.179776 0.262235
v 0.156955 -0.179776 0.262235
v 0.156955 -0.179776 0.253591
v 0.150327 -0.186404 0.253591
v 0.150327 -0.179776 0.253591
v 0.156955 -0.179776 0.055452
v 0.150327 -0.186348 0.055452
v 0.150327 -0.179776 0.055452
v 0.150327 -0.186348 0.046692
v 0.150327 -0.179776 0.046692
v 0.156955 -0.179776 0.046692
v -0.149817 -0.186404 0.262292
v -0.149817 -0.179776 0.262235
v -0.156446 -0.179776 0.262235
v -0.156446 -0.179776 0.253591
v -0.149817 -0.186404 0.253591
v -0.149817 -0.179776 0.253591
v -0.156446 -0.179776 0.055452
v -0.149817 -0.186348 0.055452
v -0.149817 -0.179776 0.055452
v -0.149817 -0.186348 0.046692
v -0.149817 -0.179776 0.046692
v -0.156446 -0.179776 0.046692
v 0.150327 0.186356 0.262292
v 0.150327 0.179787 0.262235
v 0.156955 0.179787 0.262235
v 0.156955 0.179787 0.253591
v 0.150327 0.186356 0.253591
v 0.150327 0.179787 0.253591
v 0.156955 0.179787 0.055452
v 0.150327 0.186356 0.055452
v 0.150327 0.179787 0.055452
v 0.150327 0.186356 0.046692
v 0.150327 0.179787 0.046692
v 0.156955 0.179787 0.046692
v -0.149817 0.186356 0.262292
v -0.149817 0.179787 0.262235
v -0.156446 0.179787 0.262235
v -0.156446 0.179787 0.253591
v -0.149817 0.186356 0.253591
v -0.149817 0.179787 0.253591
v -0.156446 0.179787 0.055452
v -0.149817 0.186356 0.055452
v -0.149817 0.179787 0.055452
v -0.149817 0.186356 0.046692
v -0.149817 0.179787 0.046692
v -0.156446 0.179787 0.046692
v 0.156955 -0.000024 0.158612
v 0.156955 -0.179776 0.262176
v 0.150327 -0.179776 0.262176
v 0.150327 -0.000024 0.158612
v 0.156955 0.007237 0.154465
v 0.150327 0.007237 0.154465
v 0.156955 -0.000024 0.150256
v 0.150327 -0.000024 0.150256
v 0.156955 -0.179776 0.253820
v 0.156955 -0.007229 0.154465
v 0.150327 -0.007229 0.154465
v 0.150327 -0.179776 0.253820
v 0.156955 0.179787 0.253879
v 0.150327 0.179787 0.253879
v -0.156446 -0.000024 0.158612
v -0.156446 -0.179776 0.262176
v -0.149817 -0.179776 0.262176
v -0.149817 -0.000024 0.158612
v -0.156446 0.007237 0.154465
v -0.149817 0.007237 0.154465
v -0.156446 -0.000024 0.150256
v -0.149817 -0.000024 0.150256
v -0.156446 -0.179776 0.253820
v -0.156446 -0.007229 0.154465
v -0.149817 -0.007229 0.154465
v -0.149817 -0.179776 0.253820
v -0.156446 0.179787 0.253879
v -0.149817 0.179787 0.253879
v 0.000255 -0.186404 0.150256
v 0.000255 -0.179776 0.150256
v -0.005855 -0.186404 0.154465
v -0.005855 -0.179776 0.154465
v 0.000255 -0.186404 0.158671
v -0.149817 -0.179776 0.262292
v 0.000255 -0.179776 0.158671
v 0.150327 -0.186348 0.055108
v 0.006305 -0.186404 0.154465
v 0.006305 -0.179776 0.154465
v 0.150327 -0.179776 0.055108
v 0.150327 -0.179776 0.262292
v 0.150327 -0.186404 0.253879
v 0.150327 -0.179776 0.253879
v 0.000255 0.186356 0.150256
v 0.000255 0.179787 0.150256
v -0.005855 0.186356 0.154465
v -0.005855 0.179787 0.154465
v 0.000255 0.186356 0.158671
v -0.149817 0.179787 0.262292
v 0.000255 0.179787 0.158671
v 0.150327 0.186356 0.055108
v 0.006305 0.186356 0.154465
v 0.006305 0.179787 0.154465
v 0.150327 0.179787 0.055108
v 0.150327 0.179787 0.262292
v 0.150327 0.186356 0.253879
v 0.143757 -0.173207 0.274798
v 0.143757 -0.173149 0.027156
v 0.143757 -0.179776 0.027156
v 0.143757 -0.179776 0.274798
v -0.143248 -0.173207 0.274798
v -0.143248 -0.179776 0.274798
v -0.143248 -0.173149 0.027156
v -0.143248 -0.179776 0.027156
v -0.149817 -0.173207 0.281887
v -0.149817 -0.173149 0.027156
v -0.149817 -0.179776 0.027156
v -0.149817 -0.179776 0.281887
v 0.150327 -0.173207 0.281887
v 0.150327 -0.179776 0.281887
v 0.150327 -0.173149 0.027156
v 0.150327 -0.179776 0.027156
v 0.143757 0.173158 0.274798
v 0.143757 0.173158 0.027156
v 0.143757 0.179787 0.027156
v 0.143757 0.179787 0.274798
v -0.143248 0.173158 0.274798
v -0.143248 0.179787 0.274798
v -0.143248 0.173158 0.027156
v -0.143248 0.179787 0.027156
v -0.149817 0.173158 0.281887
v -0.149817 0.173158 0.027156
v -0.149817 0.179787 0.027156
v -0.149817 0.179787 0.281887
v 0.150327 0.173158 0.281887
v 0.150327 0.179787 0.281887
v 0.150327 0.173158 0.027156
v 0.150327 0.179787 0.027156
vn -0.8944 0.0000 0.4472
vn 0.8944 0.0000 0.4472
vn -0.8701 -0.2317 0.4350
vn -0.2346 -0.8702 0.4332
vn -0.2319 -0.8705 0.4340
vn 0.0000 -0.8952 0.4456
vn 0.2319 -0.8708 0.4335
vn 0.6400 -0.6322 0.4368
vn 0.6350 -0.6389 0.4343
vn 0.8701 -0.2317 0.4350
vn -0.8699 0.2326 0.4349
vn -0.2271 0.8711 0.4355
vn -0.2319 0.8705 0.4340
vn 0.0000 0.8944 0.4472
vn 0.2273 0.8720 0.4335
vn 0.2317 0.8701 0.4350
vn 0.8699 0.2327 0.4349
vn 0.0000 0.0000 -1.0000
vn -0.3756 0.9268 0.0000
vn -0.6132 0.7899 0.0000
vn -0.7927 0.6097 0.0000
vn -0.9259 0.3778 0.0000
vn -0.9904 -0.1384 0.0000
vn -0.9270 -0.3750 0.0000
vn -0.6099 -0.7925 0.0000
vn -0.3778 -0.9259 0.0000
vn -0.1383 -0.9904 0.0000
vn 0.1384 -0.9904 0.0000
vn 0.3750 -0.9270 0.0000
vn 0.6135 -0.7897 0.0000
vn 0.7899 -0.6132 0.0000
vn 0.9269 -0.3754 0.0000
vn 0.9904 -0.1384 0.0000
vn 0.7899 0.6132 0.0000
vn 0.6132 0.7899 0.0000
vn 0.3754 0.9269 0.0000
vn 0.1384 0.9904 0.0000
vn -0.8681 -0.2362 0.4366
vn -0.6412 -0.6333 0.4333
vn -0.6344 -0.6383 0.4360
vn 0.2345 -0.8697 0.4343
vn 0.8681 -0.2362 0.4365
vn -0.8683 0.2362 0.4361
vn -0.6412 0.6333 0.4333
vn -0.6366 0.6367 0.4351
vn 0.6404 0.6325 0.4357
vn 0.6371 0.6371 0.4340
vn 0.8683 0.2362 0.4361
vn -0.1383 0.9904 0.0000
vn -0.9904 0.1384 0.0000
vn -0.7897 -0.6135 0.0000
vn 0.9904 0.1384 0.0000
vn 0.9269 0.3754 0.0000
vn 0.0000 0.0086 1.0000
vn 0.7072 -0.7071 0.0000
vn 0.0000 0.0000 1.0000
vn 0.7041 -0.7101 0.0000
vn -0.7071 -0.7071 0.0000
vn -0.7040 -0.7102 0.0000
vn 0.0000 -0.0086 1.0000
vn 0.7040 0.7102 0.0000
vn -0.7039 0.7103 0.0000
vn 0.0000 0.4992 0.8665
vn 0.0000 0.4977 0.8673
vn 0.0000 -0.4991 -0.8665
vn 0.0000 -0.4990 -0.8666
vn 0.0000 0.4987 -0.8667
vn 0.0000 -0.4985 0.8669
vn 1.0000 0.0000 0.0000
vn -1.0000 0.0000 0.0000
vn 0.0000 0.4987 -0.8668
vn -0.5680 0.0000 -0.8230
vn -0.5671 0.0000 -0.8236
vn 0.5682 0.0000 0.8229
vn 0.5679 0.0000 0.8231
vn -0.5674 0.0000 0.8234
vn 0.5681 0.0000 -0.8230
vn 0.0000 -1.0000 0.0000
vn 0.0004 -1.0000 0.0000
vn 0.0002 -1.0000 -0.0003
vn -0.0002 -1.0000 0.0000
vn 0.0000 1.0000 0.0000
vn 0.0000 1.0000 0.0002
vn 0.0002 1.0000 0.0002
vn -0.0002 1.0000 0.0002
usemtl None
s off
f 2//1 1//1 3//1
f 6//2 7//2 5//2
f 2//3 9//3 1//3
f 13//4 11//4 14//4
f 12//5 14//5 11//5
f 16//6 15//6 14//6
f 16//7 18//7 15//7
f 19//8 17//8 20//8
f 18//9 20//9 17//9
f 6//10 5//10 20//10
f 3//11 4//11 21//11
f 25//12 26//12 23//12
f 24//13 23//13 26//13
f 28//14 26//14 27//14
f 25//14 27//14 26//14
f 29//15 30//15 27//15
f 28//16 27//16 30//16
f 7//17 32//17 8//17
f 30//18 6//18 28//18
f 26//18 28//18 6//18
f 26//18 6//18 24//18
f 2//18 3//18 6//18
f 12//18 6//18 14//18
f 16//18 6//18 18//18
f 20//18 18//18 6//18
f 36//18 35//18 37//18
f 40//18 39//18 35//18
f 42//18 35//18 43//18
f 44//18 43//18 35//18
f 44//18 35//18 45//18
f 50//18 35//18 51//18
f 52//18 51//18 35//18
f 52//18 35//18 53//18
f 40//19 41//19 58//19
f 60//20 59//20 42//20
f 61//21 60//21 43//21
f 43//22 44//22 61//22
f 64//23 63//23 46//23
f 65//24 64//24 47//24
f 48//25 49//25 66//25
f 49//26 50//26 67//26
f 68//26 67//26 50//26
f 50//27 51//27 68//27
f 51//28 52//28 69//28
f 70//28 69//28 52//28
f 71//29 70//29 53//29
f 53//30 54//30 71//30
f 54//31 55//31 72//31
f 55//32 56//32 73//32
f 74//32 73//32 56//32
f 56//33 35//33 74//33
f 78//34 77//34 36//34
f 36//35 37//35 78//35
f 37//36 38//36 79//36
f 38//37 39//37 80//37
f 57//37 80//37 39//37
f 4//1 3//1 1//1
f 8//2 5//2 7//2
f 10//38 1//38 9//38
f 11//39 10//39 12//39
f 9//40 12//40 10//40
f 13//6 14//6 15//6
f 17//41 15//41 18//41
f 19//42 20//42 5//42
f 22//43 21//43 4//43
f 23//44 24//44 22//44
f 21//45 22//45 24//45
f 31//46 32//46 29//46
f 30//47 29//47 32//47
f 31//48 8//48 32//48
f 7//18 6//18 32//18
f 30//18 32//18 6//18
f 21//18 24//18 6//18
f 21//18 6//18 3//18
f 2//18 6//18 9//18
f 12//18 9//18 6//18
f 16//18 14//18 6//18
f 34//18 35//18 33//18
f 36//18 33//18 35//18
f 38//18 37//18 35//18
f 38//18 35//18 39//18
f 40//18 35//18 41//18
f 42//18 41//18 35//18
f 46//18 45//18 35//18
f 46//18 35//18 47//18
f 48//18 47//18 35//18
f 48//18 35//18 49//18
f 50//18 49//18 35//18
f 54//18 53//18 35//18
f 54//18 35//18 55//18
f 56//18 55//18 35//18
f 39//49 40//49 57//49
f 58//49 57//49 40//49
f 59//19 58//19 41//19
f 41//20 42//20 59//20
f 42//21 43//21 60//21
f 62//22 61//22 44//22
f 44//50 45//50 62//50
f 63//50 62//50 45//50
f 45//23 46//23 63//23
f 46//24 47//24 64//24
f 47//51 48//51 65//51
f 66//51 65//51 48//51
f 67//25 66//25 49//25
f 69//27 68//27 51//27
f 52//29 53//29 70//29
f 72//30 71//30 54//30
f 73//31 72//31 55//31
f 75//33 74//33 35//33
f 35//52 34//52 75//52
f 76//52 75//52 34//52
f 34//53 33//53 76//53
f 77//53 76//53 33//53
f 33//34 36//34 77//34
f 79//35 78//35 37//35
f 80//36 79//36 38//36
f 82//54 81//54 83//54
f 84//55 83//55 85//55
f 81//55 85//55 83//55
f 86//18 84//18 85//18
f 88//56 87//56 89//56
f 91//18 92//18 90//18
f 88//57 90//57 87//57
f 92//57 87//57 90//57
f 94//54 95//54 93//54
f 96//58 97//58 95//58
f 93//58 95//58 97//58
f 98//18 97//18 96//18
f 100//56 101//56 99//56
f 103//18 102//18 104//18
f 100//59 99//59 102//59
f 104//59 102//59 99//59
f 106//60 107//60 105//60
f 108//61 109//61 107//61
f 105//61 107//61 109//61
f 110//18 109//18 108//18
f 112//56 113//56 111//56
f 115//18 114//18 116//18
f 112//61 111//61 114//61
f 116//61 114//61 111//61
f 118//60 117//60 119//60
f 120//62 119//62 121//62
f 117//62 121//62 119//62
f 122//18 120//18 121//18
f 124//56 123//56 125//56
f 127//18 128//18 126//18
f 124//62 126//62 123//62
f 128//62 123//62 126//62
f 130//63 129//63 131//63
f 132//63 131//63 129//63
f 133//64 111//64 134//64
f 113//64 134//64 111//64
f 116//65 135//65 115//65
f 136//65 115//65 135//65
f 138//66 137//66 139//66
f 140//66 139//66 137//66
f 92//67 91//67 108//67
f 110//67 108//67 91//67
f 107//68 106//68 87//68
f 89//68 87//68 106//68
f 135//69 116//69 133//69
f 111//69 133//69 116//69
f 137//69 138//69 130//69
f 129//69 130//69 138//69
f 141//69 107//69 92//69
f 87//69 92//69 107//69
f 136//70 134//70 115//70
f 113//70 115//70 134//70
f 140//70 131//70 139//70
f 132//70 139//70 131//70
f 142//70 91//70 106//70
f 89//70 106//70 91//70
f 144//63 145//63 143//63
f 146//63 143//63 145//63
f 147//64 148//64 123//64
f 125//64 123//64 148//64
f 128//65 127//65 149//65
f 150//65 149//65 127//65
f 152//66 153//66 151//66
f 154//66 151//66 153//66
f 104//67 120//67 103//67
f 122//71 103//71 120//71
f 119//68 99//68 118//68
f 101//68 118//68 99//68
f 149//70 147//70 128//70
f 123//70 128//70 147//70
f 151//70 144//70 152//70
f 143//70 152//70 144//70
f 155//70 104//70 119//70
f 99//70 119//70 104//70
f 150//69 127//69 148//69
f 125//69 148//69 127//69
f 154//69 153//69 145//69
f 146//69 145//69 153//69
f 156//69 118//69 103//69
f 101//69 103//69 118//69
f 90//72 157//72 91//72
f 158//72 91//72 157//72
f 159//73 97//73 160//73
f 98//73 160//73 97//73
f 93//74 161//74 162//74
f 163//74 162//74 161//74
f 165//75 164//75 166//75
f 167//75 166//75 164//75
f 81//76 168//76 100//76
f 101//76 100//76 168//76
f 102//77 103//77 169//77
f 170//77 169//77 103//77
f 93//78 97//78 161//78
f 159//78 161//78 97//78
f 88//79 165//79 90//79
f 157//80 90//80 165//80
f 102//81 85//81 100//81
f 81//81 100//81 85//81
f 162//82 163//82 98//82
f 160//82 98//82 163//82
f 89//82 91//82 166//82
f 158//82 166//82 91//82
f 103//82 101//82 86//82
f 168//82 86//82 101//82
f 114//72 115//72 171//72
f 172//72 171//72 115//72
f 173//73 174//73 121//73
f 122//73 121//73 174//73
f 117//74 176//74 175//74
f 177//74 175//74 176//74
f 179//75 180//75 178//75
f 181//75 178//75 180//75
f 105//76 124//76 182//76
f 125//76 182//76 124//76
f 126//77 183//77 127//77
f 142//77 127//77 183//77
f 117//82 175//82 121//82
f 173//82 121//82 175//82
f 112//82 114//82 179//82
f 171//82 179//82 114//82
f 126//82 124//82 109//82
f 105//82 109//82 124//82
f 176//78 122//78 177//78
f 174//78 177//78 122//78
f 113//78 180//78 115//78
f 172//78 115//78 180//78
f 127//78 110//78 125//78
f 182//78 125//78 110//78
f 185//70 186//70 184//70
f 187//70 184//70 186//70
f 184//18 187//18 188//18
f 189//18 188//18 187//18
f 188//69 189//69 190//69
f 191//69 190//69 189//69
f 193//70 194//70 192//70
f 195//70 192//70 194//70
f 192//56 195//56 196//56
f 197//56 196//56 195//56
f 196//69 197//69 198//69
f 199//69 198//69 197//69
f 193//83 192//83 190//83
f 188//84 190//84 192//84
f 192//82 196//82 188//82
f 184//82 188//82 196//82
f 196//85 198//85 184//85
f 185//83 184//83 198//83
f 194//78 191//78 195//78
f 189//78 195//78 191//78
f 195//78 189//78 197//78
f 187//78 197//78 189//78
f 197//78 187//78 199//78
f 186//78 199//78 187//78
f 201//70 200//70 202//70
f 203//70 202//70 200//70
f 200//18 204//18 203//18
f 205//18 203//18 204//18
f 204//69 206//69 205//69
f 207//69 205//69 206//69
f 209//70 208//70 210//70
f 211//70 210//70 208//70
f 208//56 212//56 211//56
f 213//56 211//56 212//56
f 212//69 214//69 213//69
f 215//69 213//69 214//69
f 209//78 206//78 208//78
f 204//78 208//78 206//78
f 208//78 204//78 212//78
f 200//78 212//78 204//78
f 212//78 200//78 214//78
f 201//78 214//78 200//78
f 210//82 211//82 207//82
f 205//82 207//82 211//82
f 211//82 213//82 205//82
f 203//82 205//82 213//82
f 213//82 215//82 203//82
f 202//82 203//82 215//82
