# Blender v2.79 (sub 0) OBJ File: ''
# www.blender.org
mtllib m926.mtl
o m926
v -0.163056 -0.179777 -0.064018
v -0.176299 -0.179777 -0.090425
v -0.176299 0.179759 -0.090425
v -0.163056 0.179759 -0.064018
v 0.163499 -0.179777 -0.064018
v 0.176659 -0.179777 -0.090425
v 0.176659 0.179759 -0.090425
v 0.163499 0.179759 -0.064018
v -0.172716 -0.193023 -0.090425
v -0.161306 -0.186445 -0.064018
v -0.156474 -0.191276 -0.064018
v -0.163056 -0.202686 -0.090425
v -0.149892 -0.193023 -0.064018
v -0.149892 -0.206187 -0.090425
v 0.150335 -0.193023 -0.064018
v 0.150253 -0.206187 -0.090425
v 0.156917 -0.191276 -0.064018
v 0.163499 -0.202686 -0.090425
v 0.161748 -0.186445 -0.064018
v 0.173162 -0.193023 -0.090425
v -0.172716 0.193005 -0.090425
v -0.161306 0.186427 -0.064018
v -0.156474 0.191173 -0.064018
v -0.163056 0.202668 -0.090425
v -0.149892 0.193005 -0.064018
v -0.149892 0.206169 -0.090425
v 0.150335 0.193005 -0.064018
v 0.150253 0.206169 -0.090425
v 0.156917 0.191173 -0.064018
v 0.163499 0.202668 -0.090425
v 0.161748 0.186427 -0.064018
v 0.173162 0.193005 -0.090425
v 0.411162 0.237489 -0.116832
v 0.457727 0.122531 -0.116832
v 0.474805 -0.000009 -0.116832
v 0.335187 0.335373 -0.116832
v 0.237303 0.411348 -0.116832
v 0.122345 0.457913 -0.116832
v -0.000195 0.474991 -0.116832
v -0.122735 0.457913 -0.116832
v -0.237693 0.411348 -0.116832
v -0.335577 0.335373 -0.116832
v -0.411552 0.236575 -0.116832
v -0.458118 0.122531 -0.116832
v -0.475195 -0.000009 -0.116832
v -0.458118 -0.122549 -0.116832
v -0.411552 -0.237507 -0.116832
v -0.335577 -0.335391 -0.116832
v -0.236779 -0.411366 -0.116832
v -0.122735 -0.457932 -0.116832
v -0.000195 -0.475009 -0.116832
v 0.122345 -0.457932 -0.116832
v 0.237303 -0.411366 -0.116832
v 0.335187 -0.335391 -0.116832
v 0.411162 -0.237507 -0.116832
v 0.457727 -0.122549 -0.116832
v -0.000195 0.474991 -0.090425
v -0.122735 0.457913 -0.090425
v -0.237693 0.411348 -0.090425
v -0.335577 0.335373 -0.090425
v -0.411552 0.236575 -0.090425
v -0.458118 0.122531 -0.090425
v -0.475195 -0.000009 -0.090425
v -0.458118 -0.122549 -0.090425
v -0.411552 -0.237507 -0.090425
v -0.335577 -0.335391 -0.090425
v -0.236779 -0.411366 -0.090425
v -0.122735 -0.457932 -0.090425
v -0.000195 -0.475009 -0.090425
v 0.122345 -0.457932 -0.090425
v 0.237303 -0.411366 -0.090425
v 0.335187 -0.335391 -0.090425
v 0.411162 -0.237507 -0.090425
v 0.457727 -0.122549 -0.090425
v 0.474805 -0.000009 -0.090425
v 0.457727 0.122531 -0.090425
v 0.411162 0.237489 -0.090425
v 0.335187 0.335373 -0.090425
v 0.237303 0.411348 -0.090425
v 0.122345 0.457913 -0.090425
v 0.160288 -0.198855 0.594876
v 0.160288 -0.191774 0.594626
v 0.167372 -0.191774 0.594626
v 0.167372 -0.191774 0.570468
v 0.160288 -0.198855 0.570468
v 0.160288 -0.191860 0.570468
v 0.167372 -0.191774 0.015327
v 0.160288 -0.198855 0.015327
v 0.160288 -0.191774 0.015327
v 0.160288 -0.198855 -0.009247
v 0.160288 -0.191774 -0.009247
v 0.167372 -0.191774 -0.009247
v -0.159849 -0.198855 0.594876
v -0.159849 -0.191774 0.594626
v -0.166847 -0.191774 0.594626
v -0.166847 -0.191774 0.570468
v -0.159849 -0.198855 0.570468
v -0.159849 -0.191860 0.570468
v -0.166847 -0.191774 0.015327
v -0.159849 -0.198855 0.015327
v -0.159849 -0.191774 0.015327
v -0.159849 -0.198855 -0.009247
v -0.159849 -0.191774 -0.009247
v -0.166847 -0.191774 -0.009247
v 0.160288 0.198837 0.594876
v 0.160288 0.191756 0.594626
v 0.167372 0.191756 0.594626
v 0.167372 0.191756 0.570468
v 0.160288 0.198837 0.570468
v 0.160288 0.191842 0.570468
v 0.167372 0.191756 0.015327
v 0.160288 0.198837 0.015327
v 0.160288 0.191756 0.015327
v 0.160288 0.198837 -0.009247
v 0.160288 0.191756 -0.009247
v 0.167372 0.191756 -0.009247
v -0.159849 0.198837 0.594876
v -0.159849 0.191756 0.594626
v -0.166847 0.191756 0.594626
v -0.166847 0.191756 0.570468
v -0.159849 0.198837 0.570468
v -0.159849 0.191842 0.570468
v -0.166847 0.191756 0.015327
v -0.159849 0.198837 0.015327
v -0.159849 0.191756 0.015327
v -0.159849 0.198837 -0.009247
v -0.159849 0.191756 -0.009247
v -0.166847 0.191756 -0.009247
v 0.167372 -0.000009 0.304311
v 0.167372 -0.191774 0.594541
v 0.160288 -0.191774 0.594541
v 0.160288 -0.000009 0.304311
v 0.167372 0.007737 0.292731
v 0.160288 0.007737 0.292731
v 0.167372 -0.000009 0.280986
v 0.160288 -0.000009 0.280986
v 0.167372 -0.191774 0.571134
v 0.167372 -0.007755 0.292731
v 0.160288 -0.007755 0.292731
v 0.160288 -0.191774 0.571134
v 0.160288 0.191756 0.570468
v 0.167372 0.191756 0.571215
v 0.160288 0.191756 0.571215
v -0.166847 -0.000009 0.304311
v -0.166847 -0.191774 0.594541
v -0.159849 -0.191774 0.594541
v -0.159849 -0.000009 0.304311
v -0.166847 0.007737 0.292731
v -0.159849 0.007737 0.292731
v -0.166847 -0.000009 0.280986
v -0.159849 -0.000009 0.280986
v -0.166847 -0.191774 0.571134
v -0.166847 -0.007755 0.292731
v -0.159849 -0.007755 0.292731
v -0.159849 -0.191774 0.571134
v -0.159849 0.191756 0.570468
v -0.166847 0.191756 0.571215
v -0.159849 0.191756 0.571215
v 0.000262 -0.198855 0.281068
v 0.000262 -0.191860 0.281068
v -0.006234 -0.198855 0.292816
v -0.006234 -0.191860 0.292816
v 0.000262 -0.198855 0.304479
v -0.159849 -0.191860 0.594876
v 0.000262 -0.191860 0.304479
v 0.160288 -0.198855 0.014328
v 0.006677 -0.198855 0.292816
v 0.006677 -0.191860 0.292816
v 0.160288 -0.191774 0.014328
v 0.160288 -0.191860 0.594876
v 0.160288 -0.198855 0.571301
v 0.160288 -0.191860 0.571301
v 0.000262 0.198837 0.281068
v 0.000262 0.191842 0.281068
v -0.006234 0.198837 0.292816
v -0.006234 0.191842 0.292816
v 0.000262 0.198837 0.304479
v -0.159849 0.191842 0.594876
v 0.000262 0.191842 0.304479
v 0.160288 0.198837 0.014328
v 0.006677 0.198837 0.292816
v 0.006677 0.191842 0.292816
v 0.160288 0.191756 0.014328
v 0.160288 0.191842 0.594876
v 0.160288 0.198837 0.571301
v 0.160288 0.191842 0.571301
v 0.153293 -0.184776 0.629946
v 0.153293 -0.184776 -0.063978
v 0.153293 -0.191774 -0.063978
v 0.153293 -0.191860 0.629946
v -0.152769 -0.184776 0.629946
v -0.152769 -0.191860 0.629946
v -0.152769 -0.184776 -0.063978
v -0.152769 -0.191774 -0.063978
v -0.159849 -0.184776 0.649773
v -0.159849 -0.184776 -0.063978
v -0.159849 -0.191774 -0.063978
v -0.159849 -0.191860 0.649773
v 0.160288 -0.184776 0.649773
v 0.160288 -0.191860 0.649773
v 0.160288 -0.184776 -0.063978
v 0.160288 -0.191774 -0.063978
v 0.153293 0.184758 0.629946
v 0.153293 0.184758 -0.063978
v 0.153293 0.191756 -0.063978
v 0.153293 0.191842 0.629946
v -0.152769 0.184758 0.629946
v -0.152769 0.191842 0.629946
v -0.152769 0.184758 -0.063978
v -0.152769 0.191756 -0.063978
v -0.159849 0.184758 0.649773
v -0.159849 0.184758 -0.063978
v -0.159849 0.191756 -0.063978
v -0.159849 0.191842 0.649773
v 0.160288 0.184758 0.649773
v 0.160288 0.191842 0.649773
v 0.160288 0.184758 -0.063978
v 0.160288 0.191756 -0.063978
vn -0.8939 0.0000 0.4483
vn 0.8950 0.0000 0.4460
vn -0.8689 -0.2350 0.4357
vn -0.2311 -0.8707 0.4341
vn -0.2316 -0.8707 0.4339
vn 0.0000 -0.8950 0.4461
vn 0.2303 -0.8712 0.4336
vn 0.6370 -0.6370 0.4340
vn 0.8710 -0.2300 0.4341
vn -0.8689 0.2350 0.4357
vn -0.2417 0.8684 0.4329
vn -0.2313 0.8696 0.4362
vn 0.0000 0.8950 0.4461
vn 0.2412 0.8664 0.4373
vn 0.2303 0.8712 0.4336
vn 0.8710 0.2300 0.4341
vn 0.0000 0.0000 -1.0000
vn -0.3754 0.9269 0.0000
vn -0.6132 0.7900 0.0000
vn -0.7927 0.6096 0.0000
vn -0.9258 0.3780 0.0000
vn -0.9904 -0.1380 0.0000
vn -0.9268 -0.3754 0.0000
vn -0.6096 -0.7927 0.0000
vn -0.3780 -0.9258 0.0000
vn -0.1380 -0.9904 0.0000
vn 0.1380 -0.9904 0.0000
vn 0.3754 -0.9268 0.0000
vn 0.6132 -0.7900 0.0000
vn 0.9904 -0.1380 0.0000
vn 0.7900 0.6132 0.0000
vn 0.6132 0.7900 0.0000
vn 0.3754 0.9269 0.0000
vn 0.1380 0.9904 0.0000
vn -0.8716 -0.2287 0.4336
vn -0.6370 -0.6371 0.4340
vn -0.6372 -0.6370 0.4340
vn 0.2311 -0.8708 0.4339
vn 0.8715 -0.2289 0.4337
vn -0.8716 0.2287 0.4336
vn -0.6304 0.6419 0.4365
vn -0.6372 0.6370 0.4340
vn 0.6316 0.6430 0.4332
vn 0.6365 0.6365 0.4357
vn 0.8715 0.2289 0.4337
vn -0.1380 0.9904 0.0000
vn -0.9904 0.1380 0.0000
vn -0.7900 -0.6131 0.0000
vn -0.7900 -0.6132 0.0000
vn 0.7900 -0.6132 0.0000
vn 0.9269 -0.3754 0.0000
vn 0.9904 0.1380 0.0000
vn 0.9269 0.3754 0.0000
vn 0.0000 0.0351 0.9994
vn 0.7070 -0.7073 0.0000
vn 0.0000 0.0000 1.0000
vn -0.7113 -0.7029 0.0000
vn 0.0000 -0.0351 0.9994
vn 0.7070 0.7073 0.0000
vn -0.7113 0.7029 0.0000
vn 0.0000 0.8343 0.5513
vn 0.0000 0.8333 0.5528
vn 0.0000 -0.8343 -0.5513
vn 0.0000 -0.8342 -0.5514
vn 0.0000 0.8340 -0.5518
vn 0.0000 -0.8338 0.5520
vn 1.0000 0.0000 0.0000
vn -1.0000 0.0000 0.0000
vn -0.8758 0.0000 -0.4827
vn -0.8750 0.0000 -0.4841
vn 0.8757 0.0000 0.4828
vn 0.8756 0.0000 0.4830
vn -0.8753 0.0000 0.4835
vn 0.8757 0.0000 -0.4829
vn 0.0000 -1.0000 0.0000
vn 0.0000 1.0000 0.0000
vn -0.0006 1.0000 0.0000
vn -0.0003 1.0000 0.0001
vn 0.0003 1.0000 0.0000
vn -0.0006 -1.0000 0.0000
vn -0.0003 -1.0000 0.0001
vn 0.0003 -1.0000 0.0000
vn 0.0000 -1.0000 -0.0001
vn -0.0003 -1.0000 -0.0001
vn 0.0003 -1.0000 -0.0001
vn 0.0000 1.0000 -0.0001
vn -0.0003 1.0000 -0.0001
vn 0.0003 1.0000 -0.0001
usemtl None
s off
f 2//1 1//1 3//1
f 6//2 7//2 5//2
f 2//3 9//3 1//3
f 13//4 11//4 14//4
f 12//5 14//5 11//5
f 16//6 15//6 14//6
f 16//7 18//7 15//7
f 19//8 17//8 20//8
f 18//8 20//8 17//8
f 6//9 5//9 20//9
f 3//10 4//10 21//10
f 25//11 26//11 23//11
f 24//12 23//12 26//12
f 28//13 26//13 27//13
f 25//13 27//13 26//13
f 29//14 30//14 27//14
f 28//15 27//15 30//15
f 7//16 32//16 8//16
f 30//17 6//17 28//17
f 26//17 28//17 6//17
f 26//17 6//17 24//17
f 2//17 3//17 6//17
f 12//17 6//17 14//17
f 16//17 6//17 18//17
f 20//17 18//17 6//17
f 36//17 35//17 37//17
f 40//17 39//17 35//17
f 42//17 35//17 43//17
f 44//17 43//17 35//17
f 44//17 35//17 45//17
f 50//17 35//17 51//17
f 52//17 51//17 35//17
f 52//17 35//17 53//17
f 40//18 41//18 58//18
f 60//19 59//19 42//19
f 61//20 60//20 43//20
f 43//21 44//21 61//21
f 64//22 63//22 46//22
f 65//23 64//23 47//23
f 48//24 49//24 66//24
f 49//25 50//25 67//25
f 50//26 51//26 68//26
f 69//26 68//26 51//26
f 51//27 52//27 69//27
f 71//28 70//28 53//28
f 72//29 71//29 54//29
f 56//30 35//30 74//30
f 78//31 77//31 36//31
f 36//32 37//32 78//32
f 37//33 38//33 79//33
f 38//34 39//34 80//34
f 57//34 80//34 39//34
f 4//1 3//1 1//1
f 8//2 5//2 7//2
f 10//35 1//35 9//35
f 11//36 10//36 12//36
f 9//37 12//37 10//37
f 13//6 14//6 15//6
f 17//38 15//38 18//38
f 19//39 20//39 5//39
f 22//40 21//40 4//40
f 23//41 24//41 22//41
f 21//42 22//42 24//42
f 31//43 32//43 29//43
f 30//44 29//44 32//44
f 31//45 8//45 32//45
f 7//17 6//17 32//17
f 30//17 32//17 6//17
f 21//17 24//17 6//17
f 21//17 6//17 3//17
f 2//17 6//17 9//17
f 12//17 9//17 6//17
f 16//17 14//17 6//17
f 34//17 35//17 33//17
f 36//17 33//17 35//17
f 38//17 37//17 35//17
f 38//17 35//17 39//17
f 40//17 35//17 41//17
f 42//17 41//17 35//17
f 46//17 45//17 35//17
f 46//17 35//17 47//17
f 48//17 47//17 35//17
f 48//17 35//17 49//17
f 50//17 49//17 35//17
f 54//17 53//17 35//17
f 54//17 35//17 55//17
f 56//17 55//17 35//17
f 39//46 40//46 57//46
f 58//46 57//46 40//46
f 59//18 58//18 41//18
f 41//19 42//19 59//19
f 42//20 43//20 60//20
f 62//21 61//21 44//21
f 44//47 45//47 62//47
f 63//47 62//47 45//47
f 45//22 46//22 63//22
f 46//23 47//23 64//23
f 47//48 48//48 65//48
f 66//49 65//49 48//49
f 67//24 66//24 49//24
f 68//25 67//25 50//25
f 70//27 69//27 52//27
f 52//28 53//28 70//28
f 53//29 54//29 71//29
f 54//50 55//50 72//50
f 73//50 72//50 55//50
f 55//51 56//51 73//51
f 74//51 73//51 56//51
f 75//30 74//30 35//30
f 35//52 34//52 75//52
f 76//52 75//52 34//52
f 34//53 33//53 76//53
f 77//53 76//53 33//53
f 33//31 36//31 77//31
f 79//32 78//32 37//32
f 80//33 79//33 38//33
f 82//54 81//54 83//54
f 84//55 83//55 85//55
f 81//55 85//55 83//55
f 86//17 84//17 85//17
f 88//56 87//56 89//56
f 91//17 92//17 90//17
f 88//55 90//55 87//55
f 92//55 87//55 90//55
f 94//54 95//54 93//54
f 96//57 97//57 95//57
f 93//57 95//57 97//57
f 98//17 97//17 96//17
f 100//56 101//56 99//56
f 103//17 102//17 104//17
f 100//57 99//57 102//57
f 104//57 102//57 99//57
f 106//58 107//58 105//58
f 108//59 109//59 107//59
f 105//59 107//59 109//59
f 110//17 109//17 108//17
f 112//56 113//56 111//56
f 115//17 114//17 116//17
f 112//59 111//59 114//59
f 116//59 114//59 111//59
f 118//58 117//58 119//58
f 120//60 119//60 121//60
f 117//60 121//60 119//60
f 122//17 120//17 121//17
f 124//56 123//56 125//56
f 127//17 128//17 126//17
f 124//60 126//60 123//60
f 128//60 123//60 126//60
f 130//61 129//61 131//61
f 132//61 131//61 129//61
f 133//62 111//62 134//62
f 113//62 134//62 111//62
f 116//63 135//63 115//63
f 136//63 115//63 135//63
f 138//64 137//64 139//64
f 140//64 139//64 137//64
f 92//65 91//65 108//65
f 141//65 108//65 91//65
f 107//66 106//66 87//66
f 89//66 87//66 106//66
f 135//67 116//67 133//67
f 111//67 133//67 116//67
f 137//67 138//67 130//67
f 129//67 130//67 138//67
f 142//67 107//67 92//67
f 87//67 92//67 107//67
f 136//68 134//68 115//68
f 113//68 115//68 134//68
f 140//68 131//68 139//68
f 132//68 139//68 131//68
f 143//68 91//68 106//68
f 89//68 106//68 91//68
f 145//61 146//61 144//61
f 147//61 144//61 146//61
f 148//62 149//62 123//62
f 125//62 123//62 149//62
f 128//63 127//63 150//63
f 151//63 150//63 127//63
f 153//64 154//64 152//64
f 155//64 152//64 154//64
f 104//65 120//65 103//65
f 156//65 103//65 120//65
f 119//66 99//66 118//66
f 101//66 118//66 99//66
f 150//68 148//68 128//68
f 123//68 128//68 148//68
f 152//68 145//68 153//68
f 144//68 153//68 145//68
f 157//68 104//68 119//68
f 99//68 119//68 104//68
f 151//67 127//67 149//67
f 125//67 149//67 127//67
f 155//67 154//67 146//67
f 147//67 146//67 154//67
f 158//67 118//67 103//67
f 101//67 103//67 118//67
f 90//69 159//69 91//69
f 160//69 91//69 159//69
f 161//70 97//70 162//70
f 98//70 162//70 97//70
f 93//71 163//71 164//71
f 165//71 164//71 163//71
f 167//72 166//72 168//72
f 169//72 168//72 166//72
f 81//73 170//73 100//73
f 101//73 100//73 170//73
f 102//74 103//74 171//74
f 172//74 171//74 103//74
f 93//75 97//75 163//75
f 161//75 163//75 97//75
f 88//75 167//75 90//75
f 159//75 90//75 167//75
f 102//75 85//75 100//75
f 81//75 100//75 85//75
f 164//76 165//76 98//76
f 162//76 98//76 165//76
f 89//77 91//77 168//77
f 160//78 168//78 91//78
f 103//79 101//79 86//79
f 170//79 86//79 101//79
f 114//69 115//69 173//69
f 174//69 173//69 115//69
f 175//70 176//70 121//70
f 122//70 121//70 176//70
f 117//71 178//71 177//71
f 179//71 177//71 178//71
f 181//72 182//72 180//72
f 183//72 180//72 182//72
f 105//73 124//73 184//73
f 125//73 184//73 124//73
f 126//74 185//74 127//74
f 186//74 127//74 185//74
f 117//76 177//76 121//76
f 175//76 121//76 177//76
f 112//76 114//76 181//76
f 173//76 181//76 114//76
f 126//76 124//76 109//76
f 105//76 109//76 124//76
f 178//75 122//75 179//75
f 176//75 179//75 122//75
f 113//80 182//80 115//80
f 174//81 115//81 182//81
f 127//82 110//82 125//82
f 184//82 125//82 110//82
f 188//68 189//68 187//68
f 190//68 187//68 189//68
f 187//17 190//17 191//17
f 192//17 191//17 190//17
f 191//67 192//67 193//67
f 194//67 193//67 192//67
f 196//68 197//68 195//68
f 198//68 195//68 197//68
f 195//56 198//56 199//56
f 200//56 199//56 198//56
f 199//67 200//67 201//67
f 202//67 201//67 200//67
f 196//76 195//76 193//76
f 191//76 193//76 195//76
f 195//76 199//76 191//76
f 187//76 191//76 199//76
f 199//76 201//76 187//76
f 188//76 187//76 201//76
f 197//83 194//83 198//83
f 192//84 198//84 194//84
f 198//75 192//75 200//75
f 190//75 200//75 192//75
f 200//85 190//85 202//85
f 189//83 202//83 190//83
f 204//68 203//68 205//68
f 206//68 205//68 203//68
f 203//17 207//17 206//17
f 208//17 206//17 207//17
f 207//67 209//67 208//67
f 210//67 208//67 209//67
f 212//68 211//68 213//68
f 214//68 213//68 211//68
f 211//56 215//56 214//56
f 216//56 214//56 215//56
f 215//67 217//67 216//67
f 218//67 216//67 217//67
f 212//75 209//75 211//75
f 207//75 211//75 209//75
f 211//75 207//75 215//75
f 203//75 215//75 207//75
f 215//75 203//75 217//75
f 204//75 217//75 203//75
f 213//86 214//86 210//86
f 208//87 210//87 214//87
f 214//76 216//76 208//76
f 206//76 208//76 216//76
f 216//88 218//88 206//88
f 205//86 206//86 218//86
