# Blender v2.79 (sub 0) OBJ File: ''
# www.blender.org
mtllib m927.mtl
o m927
v 0.267055 0.233638 -0.008646
v 0.267055 0.233638 0.055799
v 0.234833 0.233638 0.055799
v 0.234833 0.233638 -0.008646
v 0.267056 -0.233586 -0.008646
v 0.267056 -0.233586 0.055799
v 0.234834 -0.233586 0.055799
v 0.234834 -0.233586 -0.008646
v -0.231813 0.233636 -0.008646
v -0.231813 0.233636 0.055799
v -0.264035 0.233636 0.055799
v -0.264035 0.233636 -0.008646
v -0.264034 -0.233588 -0.008646
v -0.264034 -0.233588 0.055799
v -0.231812 -0.233587 0.055799
v -0.231812 -0.233587 -0.008646
v -0.232037 0.265869 -0.008646
v -0.232037 0.265869 0.055799
v -0.232039 0.233647 0.055799
v -0.232039 0.233647 -0.008646
v 0.235185 0.233635 -0.008646
v 0.235185 0.233635 0.055799
v 0.235187 0.265858 0.055799
v 0.235187 0.265858 -0.008646
v -0.232048 -0.233347 -0.008646
v -0.232048 -0.233347 0.055799
v -0.232048 -0.265569 0.055799
v -0.232048 -0.265569 -0.008646
v 0.235176 -0.265581 -0.008646
v 0.235176 -0.265581 0.055799
v 0.235176 -0.233358 0.055799
v 0.235176 -0.233358 -0.008646
v 0.278420 -0.234243 -0.008521
v 0.278420 -0.234243 0.286850
v 0.235457 -0.234244 0.286850
v 0.235457 -0.234244 -0.008521
v 0.278420 -0.277206 -0.008521
v 0.278420 -0.277206 0.286850
v 0.235457 -0.277207 0.286850
v 0.235457 -0.277207 -0.008521
v -0.275263 -0.233899 -0.008521
v -0.275263 -0.233899 0.286850
v -0.232299 -0.233899 0.286850
v -0.232299 -0.233899 -0.008521
v -0.232299 -0.276862 -0.008521
v -0.232299 -0.276862 0.286850
v -0.275262 -0.276862 0.286850
v -0.275262 -0.276862 -0.008521
v 0.278419 0.276227 -0.008521
v 0.278419 0.276227 0.286850
v 0.235456 0.276227 0.286850
v 0.235456 0.276227 -0.008521
v 0.235456 0.233264 -0.008521
v 0.235456 0.233264 0.286850
v 0.278419 0.233264 0.286850
v 0.278419 0.233264 -0.008521
v -0.232301 0.276569 -0.008521
v -0.232301 0.276569 0.286850
v -0.275264 0.276569 0.286850
v -0.275264 0.276569 -0.008521
v -0.275264 0.233606 -0.008521
v -0.275264 0.233606 0.286850
v -0.232301 0.233606 0.286850
v -0.232301 0.233606 -0.008521
v -0.471277 -0.066123 -0.041104
v -0.434812 -0.193291 -0.041104
v -0.364709 -0.305482 -0.041104
v -0.017212 -0.474975 -0.041104
v 0.049054 -0.472663 -0.009101
v 0.114355 -0.461151 -0.009101
v 0.177420 -0.440662 -0.041104
v 0.177419 -0.440664 -0.009101
v 0.237019 -0.411597 -0.041104
v 0.237017 -0.411597 -0.009101
v 0.291990 -0.374520 -0.009101
v 0.341269 -0.330154 -0.041104
v 0.341269 -0.330154 -0.009101
v 0.383892 -0.279361 -0.041104
v 0.383892 -0.279361 -0.009101
v 0.419034 -0.223128 -0.041104
v 0.419034 -0.223131 -0.009101
v 0.446006 -0.162555 -0.041104
v 0.446006 -0.162556 -0.009101
v 0.464287 -0.098816 -0.041104
v 0.464287 -0.098818 -0.009101
v 0.473517 -0.033154 -0.041104
v 0.473517 -0.033156 -0.009101
v 0.473521 0.033152 -0.009101
v 0.464297 0.098817 -0.041104
v 0.464297 0.098815 -0.009101
v 0.446022 0.162557 -0.041104
v 0.446022 0.162556 -0.009101
v 0.419056 0.223134 -0.041104
v 0.419056 0.223134 -0.009101
v 0.383921 0.279368 -0.041104
v 0.383923 0.279368 -0.009101
v 0.341304 0.330165 -0.009101
v 0.292029 0.374537 -0.041104
v 0.292031 0.374537 -0.009101
v 0.237060 0.411621 -0.041104
v 0.237062 0.411621 -0.009101
v 0.177465 0.440694 -0.041104
v 0.177467 0.440692 -0.009101
v 0.114406 0.461187 -0.009101
v 0.049104 0.472707 -0.041104
v 0.049106 0.472707 -0.009101
v -0.147448 0.452063 -0.041104
v -0.208930 0.427230 -0.041104
v -0.364679 0.305569 -0.041104
v -0.457478 0.131077 -0.041104
v -0.471271 0.066220 -0.041104
v -0.475903 0.000024 -0.041104
v -0.457490 -0.130982 -0.041104
v -0.403683 -0.251839 -0.041104
v -0.318649 -0.353182 -0.041104
v -0.266397 -0.394005 -0.041104
v -0.208974 -0.427160 -0.041104
v -0.147495 -0.452001 -0.041104
v -0.083157 -0.468043 -0.041104
v 0.049056 -0.472663 -0.041104
v 0.114357 -0.461151 -0.041104
v 0.291990 -0.374520 -0.041104
v 0.473521 0.033154 -0.041104
v 0.341304 0.330167 -0.041104
v 0.114404 0.461187 -0.041104
v -0.017163 0.475025 -0.041104
v -0.083108 0.468099 -0.041104
v -0.266358 0.394080 -0.041104
v -0.318612 0.353263 -0.041104
v -0.403656 0.251927 -0.041104
v -0.434794 0.193384 -0.041104
v -0.475903 0.000024 -0.009101
v -0.471277 -0.066123 -0.009101
v -0.457490 -0.130982 -0.009101
v -0.434812 -0.193291 -0.009101
v -0.403683 -0.251839 -0.009101
v -0.364709 -0.305482 -0.009101
v -0.318649 -0.353182 -0.009101
v -0.266397 -0.394005 -0.009101
v -0.208974 -0.427160 -0.009101
v -0.147495 -0.452001 -0.009101
v -0.083157 -0.468043 -0.009101
v -0.017212 -0.474975 -0.009101
v -0.017163 0.475025 -0.009101
v -0.083108 0.468099 -0.009101
v -0.147448 0.452063 -0.009101
v -0.208930 0.427230 -0.009101
v -0.266358 0.394080 -0.009101
v -0.318612 0.353263 -0.009101
v -0.364679 0.305569 -0.009101
v -0.403656 0.251927 -0.009101
v -0.434794 0.193384 -0.009101
v -0.457478 0.131077 -0.009101
v -0.471271 0.066220 -0.009101
v -0.474560 0.000024 -0.042814
v -0.469948 -0.065936 -0.042814
v -0.456199 -0.130612 -0.042814
v -0.433586 -0.192745 -0.042814
v -0.402545 -0.251128 -0.042814
v -0.363680 -0.304619 -0.042814
v -0.317751 -0.352183 -0.042814
v -0.265647 -0.392893 -0.042814
v -0.208385 -0.425952 -0.042814
v -0.147080 -0.450723 -0.042814
v -0.082923 -0.466722 -0.042814
v -0.017165 -0.473635 -0.042814
v 0.048915 -0.471327 -0.042814
v 0.114032 -0.459847 -0.042814
v 0.176917 -0.439418 -0.042814
v 0.236347 -0.410435 -0.042814
v 0.291165 -0.373461 -0.042814
v 0.340304 -0.329220 -0.042814
v 0.382808 -0.278570 -0.042814
v 0.417848 -0.222499 -0.042814
v 0.444745 -0.162096 -0.042814
v 0.462972 -0.098537 -0.042814
v 0.472179 -0.033060 -0.042814
v -0.000613 0.000024 -0.042814
v 0.472181 0.033060 -0.042814
v 0.462982 0.098538 -0.042814
v 0.444761 0.162098 -0.042814
v 0.417871 0.222504 -0.042814
v 0.382836 0.278579 -0.042814
v 0.340337 0.329233 -0.042814
v 0.291202 0.373480 -0.042814
v 0.236390 0.410459 -0.042814
v 0.176962 0.439448 -0.042814
v 0.114079 0.459885 -0.042814
v 0.048964 0.471371 -0.042814
v -0.017117 0.473685 -0.042814
v -0.082875 0.466778 -0.042814
v -0.147033 0.450787 -0.042814
v -0.208342 0.426023 -0.042814
v -0.265606 0.392967 -0.042814
v -0.317714 0.352264 -0.042814
v -0.363650 0.304705 -0.042814
v -0.402518 0.251216 -0.042814
v -0.433567 0.192838 -0.042814
v -0.456187 0.130707 -0.042814
v -0.469942 0.066032 -0.042814
v -0.000966 -0.010303 -0.009101
vn 0.0000 1.0000 0.0000
vn 0.0000 -1.0000 0.0000
vn -1.0000 -0.0000 0.0000
vn 0.0000 0.0000 -1.0000
vn 1.0000 0.0000 0.0000
vn 0.0000 0.0000 1.0000
vn -1.0000 0.0001 0.0000
vn 1.0000 -0.0001 0.0000
vn -0.9976 -0.0698 0.0000
vn -0.9781 -0.2079 0.0000
vn -0.9397 -0.3420 0.0000
vn -0.8830 -0.4695 0.0000
vn -0.8090 -0.5878 0.0000
vn -0.7194 -0.6946 0.0000
vn -0.6157 -0.7880 0.0000
vn -0.5000 -0.8660 0.0000
vn -0.3746 -0.9272 0.0000
vn -0.2419 -0.9703 0.0000
vn -0.1045 -0.9945 0.0000
vn 0.0349 -0.9994 0.0000
vn 0.1736 -0.9848 0.0000
vn 0.3090 -0.9511 -0.0001
vn 0.3090 -0.9511 0.0000
vn 0.4384 -0.8988 0.0000
vn 0.4383 -0.8988 -0.0000
vn 0.5592 -0.8291 0.0000
vn 0.5592 -0.8290 0.0000
vn 0.6691 -0.7432 0.0000
vn 0.7660 -0.6428 0.0000
vn 0.8480 -0.5300 -0.0001
vn 0.8480 -0.5300 0.0000
vn 0.9135 -0.4068 -0.0000
vn 0.9612 -0.2757 -0.0000
vn 0.9903 -0.1392 -0.0000
vn 0.9903 0.1391 0.0000
vn 0.9613 0.2756 0.0000
vn 0.9136 0.4067 0.0000
vn 0.8481 0.5299 -0.0001
vn 0.8481 0.5299 0.0000
vn 0.7661 0.6427 0.0000
vn 0.6692 0.7431 -0.0000
vn 0.5593 0.8290 -0.0000
vn 0.4384 0.8988 0.0000
vn 0.4385 0.8988 -0.0000
vn 0.3091 0.9510 -0.0000
vn 0.1737 0.9848 -0.0000
vn 0.0350 0.9994 0.0000
vn -0.1045 0.9945 0.0000
vn -0.2418 0.9703 0.0000
vn -0.3745 0.9272 0.0000
vn -0.4999 0.8661 0.0000
vn -0.6156 0.7881 0.0000
vn -0.7193 0.6947 0.0000
vn -0.8090 0.5878 0.0000
vn -0.8829 0.4696 0.0000
vn -0.9397 0.3421 0.0000
vn -0.9781 0.2080 0.0000
vn -0.9976 0.0698 0.0000
vn -0.7853 -0.0549 -0.6167
vn -0.7853 -0.0549 -0.6166
vn -0.7700 -0.1637 -0.6167
vn -0.7398 -0.2693 -0.6166
vn -0.7397 -0.2692 -0.6167
vn -0.6952 -0.3696 -0.6165
vn -0.6951 -0.3696 -0.6166
vn -0.6368 -0.4627 -0.6167
vn -0.6370 -0.4628 -0.6165
vn -0.5662 -0.5468 -0.6168
vn -0.5663 -0.5468 -0.6167
vn -0.4849 -0.6206 -0.6163
vn -0.4846 -0.6202 -0.6168
vn -0.3936 -0.6817 -0.6168
vn -0.3938 -0.6820 -0.6162
vn -0.2948 -0.7297 -0.6169
vn -0.2949 -0.7298 -0.6168
vn -0.1905 -0.7641 -0.6164
vn -0.1904 -0.7636 -0.6170
vn -0.0823 -0.7833 -0.6162
vn -0.0823 -0.7832 -0.6163
vn 0.0274 -0.7866 -0.6169
vn 0.0275 -0.7871 -0.6162
vn 0.1366 -0.7750 -0.6170
vn 0.1366 -0.7751 -0.6169
vn 0.2433 -0.7489 -0.6163
vn 0.2432 -0.7485 -0.6170
vn 0.3451 -0.7077 -0.6165
vn 0.3452 -0.7078 -0.6163
vn 0.4402 -0.6527 -0.6166
vn 0.5267 -0.5850 -0.6168
vn 0.5268 -0.5851 -0.6165
vn 0.6031 -0.5061 -0.6165
vn 0.6030 -0.5060 -0.6167
vn 0.6677 -0.4172 -0.6166
vn 0.6678 -0.4173 -0.6164
vn 0.7193 -0.3203 -0.6164
vn 0.7192 -0.3202 -0.6166
vn 0.7564 -0.2169 -0.6171
vn 0.7569 -0.2171 -0.6164
vn 0.7799 -0.1096 -0.6163
vn 0.7792 -0.1096 -0.6171
vn 0.7871 -0.0000 -0.6168
vn 0.7876 -0.0000 -0.6162
vn 0.7792 0.1095 -0.6171
vn 0.7794 0.1095 -0.6168
vn 0.7569 0.2170 -0.6164
vn 0.7564 0.2168 -0.6171
vn 0.7193 0.3202 -0.6165
vn 0.7194 0.3202 -0.6164
vn 0.6679 0.4173 -0.6163
vn 0.6678 0.4172 -0.6165
vn 0.6028 0.5057 -0.6171
vn 0.6033 0.5062 -0.6163
vn 0.5269 0.5851 -0.6165
vn 0.5266 0.5847 -0.6171
vn 0.4405 0.6529 -0.6162
vn 0.4404 0.6527 -0.6164
vn 0.3451 0.7073 -0.6169
vn 0.3453 0.7078 -0.6163
vn 0.2434 0.7489 -0.6164
vn 0.2433 0.7485 -0.6169
vn 0.1367 0.7752 -0.6168
vn 0.1368 0.7755 -0.6164
vn 0.0275 0.7871 -0.6161
vn 0.0275 0.7866 -0.6168
vn -0.0823 0.7832 -0.6163
vn -0.0823 0.7834 -0.6161
vn -0.1904 0.7641 -0.6164
vn -0.1905 0.7642 -0.6163
vn -0.2948 0.7299 -0.6166
vn -0.2949 0.7301 -0.6164
vn -0.3935 0.6817 -0.6168
vn -0.3936 0.6818 -0.6166
vn -0.4845 0.6203 -0.6168
vn -0.5661 0.5468 -0.6169
vn -0.5662 0.5468 -0.6168
vn -0.6370 0.4628 -0.6165
vn -0.6367 0.4627 -0.6169
vn -0.6951 0.3697 -0.6166
vn -0.6951 0.3697 -0.6165
vn -0.7397 0.2693 -0.6167
vn -0.7398 0.2693 -0.6166
vn -0.7699 0.1637 -0.6168
vn -0.7700 0.1637 -0.6167
vn -0.7853 0.0549 -0.6166
vn -0.7853 0.0549 -0.6167
usemtl None
s off
f 3//1 2//1 1//1
f 4//1 3//1 1//1
f 6//2 7//2 8//2
f 5//2 6//2 8//2
f 7//3 3//3 4//3
f 8//3 7//3 4//3
f 4//4 1//4 5//4
f 8//4 4//4 5//4
f 2//5 6//5 5//5
f 1//5 2//5 5//5
f 7//6 6//6 2//6
f 3//6 7//6 2//6
f 11//1 10//1 9//1
f 12//1 11//1 9//1
f 15//2 14//2 13//2
f 16//2 15//2 13//2
f 14//3 11//3 12//3
f 13//3 14//3 12//3
f 12//4 9//4 16//4
f 13//4 12//4 16//4
f 10//5 15//5 16//5
f 9//5 10//5 16//5
f 14//6 15//6 10//6
f 11//6 14//6 10//6
f 19//7 18//7 17//7
f 20//7 19//7 17//7
f 23//8 22//8 21//8
f 24//8 23//8 21//8
f 22//2 19//2 20//2
f 21//2 22//2 20//2
f 20//4 17//4 24//4
f 21//4 20//4 24//4
f 18//1 23//1 24//1
f 17//1 18//1 24//1
f 22//6 23//6 18//6
f 19//6 22//6 18//6
f 27//3 26//3 25//3
f 28//3 27//3 25//3
f 31//5 30//5 29//5
f 32//5 31//5 29//5
f 30//2 27//2 28//2
f 29//2 30//2 28//2
f 28//4 25//4 32//4
f 29//4 28//4 32//4
f 26//1 31//1 32//1
f 25//1 26//1 32//1
f 30//6 31//6 26//6
f 27//6 30//6 26//6
f 35//1 34//1 33//1
f 36//1 35//1 33//1
f 38//2 39//2 40//2
f 37//2 38//2 40//2
f 39//3 35//3 36//3
f 40//3 39//3 36//3
f 36//4 33//4 37//4
f 40//4 36//4 37//4
f 34//5 38//5 37//5
f 33//5 34//5 37//5
f 39//6 38//6 34//6
f 35//6 39//6 34//6
f 42//1 43//1 44//1
f 41//1 42//1 44//1
f 46//2 47//2 48//2
f 45//2 46//2 48//2
f 43//5 46//5 45//5
f 44//5 43//5 45//5
f 41//4 44//4 45//4
f 48//4 41//4 45//4
f 47//3 42//3 41//3
f 48//3 47//3 41//3
f 47//6 46//6 43//6
f 42//6 47//6 43//6
f 51//1 50//1 49//1
f 52//1 51//1 49//1
f 55//2 54//2 53//2
f 56//2 55//2 53//2
f 54//3 51//3 52//3
f 53//3 54//3 52//3
f 52//4 49//4 56//4
f 53//4 52//4 56//4
f 50//5 55//5 56//5
f 49//5 50//5 56//5
f 54//6 55//6 50//6
f 51//6 54//6 50//6
f 59//1 58//1 57//1
f 60//1 59//1 57//1
f 63//2 62//2 61//2
f 64//2 63//2 61//2
f 58//5 63//5 64//5
f 57//5 58//5 64//5
f 60//4 57//4 64//4
f 61//4 60//4 64//4
f 62//3 59//3 60//3
f 61//3 62//3 60//3
f 62//6 63//6 58//6
f 59//6 62//6 58//6
f 65//9 133//9 132//9
f 112//9 65//9 132//9
f 113//10 134//10 133//10
f 65//10 113//10 133//10
f 66//11 135//11 134//11
f 113//11 66//11 134//11
f 114//12 136//12 135//12
f 66//12 114//12 135//12
f 67//13 137//13 136//13
f 114//13 67//13 136//13
f 115//14 138//14 137//14
f 67//14 115//14 137//14
f 116//15 139//15 138//15
f 115//15 116//15 138//15
f 117//16 140//16 139//16
f 116//16 117//16 139//16
f 118//17 141//17 140//17
f 117//17 118//17 140//17
f 119//18 142//18 141//18
f 118//18 119//18 141//18
f 68//19 143//19 142//19
f 119//19 68//19 142//19
f 120//20 69//20 143//20
f 68//20 120//20 143//20
f 121//21 70//21 69//21
f 120//21 121//21 69//21
f 71//22 72//22 70//22
f 121//23 71//23 70//23
f 73//24 74//24 72//24
f 71//25 73//25 72//25
f 122//26 75//26 74//26
f 73//27 122//27 74//27
f 76//28 77//28 75//28
f 122//28 76//28 75//28
f 78//29 79//29 77//29
f 76//29 78//29 77//29
f 80//30 81//30 79//30
f 78//31 80//31 79//31
f 82//32 83//32 81//32
f 80//32 82//32 81//32
f 84//33 85//33 83//33
f 82//33 84//33 83//33
f 86//34 87//34 85//34
f 84//34 86//34 85//34
f 123//8 88//8 87//8
f 86//8 123//8 87//8
f 89//35 90//35 88//35
f 123//35 89//35 88//35
f 91//36 92//36 90//36
f 89//36 91//36 90//36
f 93//37 94//37 92//37
f 91//37 93//37 92//37
f 95//38 96//38 94//38
f 93//39 95//39 94//39
f 124//40 97//40 96//40
f 95//40 124//40 96//40
f 98//41 99//41 97//41
f 124//41 98//41 97//41
f 100//42 101//42 99//42
f 98//42 100//42 99//42
f 102//43 103//43 101//43
f 100//44 102//44 101//44
f 125//45 104//45 103//45
f 102//45 125//45 103//45
f 105//46 106//46 104//46
f 125//46 105//46 104//46
f 126//47 144//47 106//47
f 105//47 126//47 106//47
f 127//48 145//48 144//48
f 126//48 127//48 144//48
f 107//49 146//49 145//49
f 127//49 107//49 145//49
f 108//50 147//50 146//50
f 107//50 108//50 146//50
f 128//51 148//51 147//51
f 108//51 128//51 147//51
f 129//52 149//52 148//52
f 128//52 129//52 148//52
f 109//53 150//53 149//53
f 129//53 109//53 149//53
f 130//54 151//54 150//54
f 109//54 130//54 150//54
f 131//55 152//55 151//55
f 130//55 131//55 151//55
f 110//56 153//56 152//56
f 131//56 110//56 152//56
f 111//57 154//57 153//57
f 110//57 111//57 153//57
f 112//58 132//58 154//58
f 111//58 112//58 154//58
f 178//4 156//4 155//4
f 156//59 65//59 112//59
f 155//60 156//60 112//60
f 178//4 157//4 156//4
f 157//61 113//61 65//61
f 156//61 157//61 65//61
f 178//4 158//4 157//4
f 158//62 66//62 113//62
f 157//63 158//63 113//63
f 178//4 159//4 158//4
f 159//64 114//64 66//64
f 158//65 159//65 66//65
f 178//4 160//4 159//4
f 160//66 67//66 114//66
f 159//67 160//67 114//67
f 178//4 161//4 160//4
f 161//68 115//68 67//68
f 160//69 161//69 67//69
f 178//4 162//4 161//4
f 162//70 116//70 115//70
f 161//71 162//71 115//71
f 178//4 163//4 162//4
f 163//72 117//72 116//72
f 162//73 163//73 116//73
f 178//4 164//4 163//4
f 164//74 118//74 117//74
f 163//75 164//75 117//75
f 178//4 165//4 164//4
f 165//76 119//76 118//76
f 164//77 165//77 118//77
f 178//4 166//4 165//4
f 166//78 68//78 119//78
f 165//79 166//79 119//79
f 178//4 167//4 166//4
f 167//80 120//80 68//80
f 166//81 167//81 68//81
f 178//4 168//4 167//4
f 168//82 121//82 120//82
f 167//83 168//83 120//83
f 178//4 169//4 168//4
f 169//84 71//84 121//84
f 168//85 169//85 121//85
f 178//4 170//4 169//4
f 170//86 73//86 71//86
f 169//87 170//87 71//87
f 178//4 171//4 170//4
f 171//88 122//88 73//88
f 170//88 171//88 73//88
f 178//4 172//4 171//4
f 172//89 76//89 122//89
f 171//90 172//90 122//90
f 178//4 173//4 172//4
f 173//91 78//91 76//91
f 172//92 173//92 76//92
f 178//4 174//4 173//4
f 174//93 80//93 78//93
f 173//94 174//94 78//94
f 178//4 175//4 174//4
f 175//95 82//95 80//95
f 174//96 175//96 80//96
f 178//4 176//4 175//4
f 176//97 84//97 82//97
f 175//98 176//98 82//98
f 178//4 177//4 176//4
f 177//99 86//99 84//99
f 176//100 177//100 84//100
f 178//4 179//4 177//4
f 179//101 123//101 86//101
f 177//102 179//102 86//102
f 178//4 180//4 179//4
f 180//103 89//103 123//103
f 179//104 180//104 123//104
f 178//4 181//4 180//4
f 181//105 91//105 89//105
f 180//106 181//106 89//106
f 178//4 182//4 181//4
f 182//107 93//107 91//107
f 181//108 182//108 91//108
f 178//4 183//4 182//4
f 183//109 95//109 93//109
f 182//110 183//110 93//110
f 178//4 184//4 183//4
f 184//111 124//111 95//111
f 183//112 184//112 95//112
f 178//4 185//4 184//4
f 185//113 98//113 124//113
f 184//114 185//114 124//114
f 178//4 186//4 185//4
f 186//115 100//115 98//115
f 185//116 186//116 98//116
f 178//4 187//4 186//4
f 187//117 102//117 100//117
f 186//118 187//118 100//118
f 178//4 188//4 187//4
f 188//119 125//119 102//119
f 187//120 188//120 102//120
f 178//4 189//4 188//4
f 189//121 105//121 125//121
f 188//122 189//122 125//122
f 178//4 190//4 189//4
f 190//123 126//123 105//123
f 189//124 190//124 105//124
f 178//4 191//4 190//4
f 191//125 127//125 126//125
f 190//126 191//126 126//126
f 178//4 192//4 191//4
f 192//127 107//127 127//127
f 191//128 192//128 127//128
f 178//4 193//4 192//4
f 193//129 108//129 107//129
f 192//130 193//130 107//130
f 178//4 194//4 193//4
f 194//131 128//131 108//131
f 193//132 194//132 108//132
f 178//4 195//4 194//4
f 195//133 129//133 128//133
f 194//133 195//133 128//133
f 178//4 196//4 195//4
f 196//134 109//134 129//134
f 195//135 196//135 129//135
f 178//4 197//4 196//4
f 197//136 130//136 109//136
f 196//137 197//137 109//137
f 178//4 198//4 197//4
f 198//138 131//138 130//138
f 197//139 198//139 130//139
f 178//4 199//4 198//4
f 199//140 110//140 131//140
f 198//141 199//141 131//141
f 178//4 200//4 199//4
f 200//142 111//142 110//142
f 199//143 200//143 110//143
f 178//4 155//4 200//4
f 155//144 112//144 111//144
f 200//145 155//145 111//145
f 201//6 143//6 69//6
f 201//6 69//6 70//6
f 201//6 70//6 72//6
f 201//6 72//6 74//6
f 201//6 74//6 75//6
f 201//6 75//6 77//6
f 201//6 77//6 79//6
f 201//6 79//6 81//6
f 201//6 81//6 83//6
f 201//6 83//6 85//6
f 201//6 85//6 87//6
f 201//6 87//6 88//6
f 201//6 88//6 90//6
f 201//6 90//6 92//6
f 201//6 92//6 94//6
f 201//6 94//6 96//6
f 201//6 96//6 97//6
f 201//6 97//6 99//6
f 201//6 99//6 101//6
f 201//6 101//6 103//6
f 201//6 103//6 104//6
f 201//6 104//6 106//6
f 201//6 106//6 144//6
f 201//6 144//6 145//6
f 201//6 145//6 146//6
f 201//6 146//6 147//6
f 201//6 147//6 148//6
f 201//6 148//6 149//6
f 201//6 149//6 150//6
f 201//6 150//6 151//6
f 201//6 151//6 152//6
f 201//6 152//6 153//6
f 201//6 153//6 154//6
f 201//6 154//6 132//6
f 201//6 132//6 133//6
f 201//6 133//6 134//6
f 201//6 134//6 135//6
f 201//6 135//6 136//6
f 201//6 136//6 137//6
f 201//6 137//6 138//6
f 201//6 138//6 139//6
f 201//6 139//6 140//6
f 201//6 140//6 141//6
f 201//6 141//6 142//6
f 201//6 142//6 143//6
