# Blender v2.79 (sub 0) OBJ File: ''
# www.blender.org
mtllib m953.mtl
o m953
v -0.474956 -0.182947 -0.172033
v 0.475025 -0.182945 -0.172033
v -0.474956 -0.182947 -0.244143
v -0.474956 -0.181398 -0.245645
v -0.474956 -0.169775 -0.245645
v -0.474956 -0.168225 -0.244143
v -0.474956 -0.168225 -0.185113
v 0.475027 -0.168222 -0.185113
v 0.475027 -0.168222 -0.244143
v 0.475027 -0.169772 -0.245645
v 0.475025 -0.181395 -0.245645
v 0.475025 -0.182945 -0.244143
v -0.132044 0.145619 0.205863
v -0.132044 0.145619 -0.096402
v 0.132887 0.145620 -0.096402
v -0.162433 0.145619 -0.096402
v -0.162433 0.145619 0.205863
v 0.163308 0.145620 -0.096402
v 0.132887 0.145627 0.205863
v -0.422400 0.145626 -0.096402
v 0.421787 0.145628 -0.096402
v 0.421787 0.145628 0.205863
v -0.422400 0.145626 0.205863
v 0.163308 0.145627 0.205863
v -0.132044 0.134004 0.205863
v -0.132044 0.134004 -0.096402
v 0.132887 0.134004 -0.096402
v 0.132887 0.134004 0.205863
v -0.422399 0.134003 0.205863
v -0.422399 0.134003 -0.096402
v -0.162433 0.134004 -0.096402
v -0.162433 0.134004 0.205863
v 0.163308 0.134004 -0.096402
v 0.421787 0.134005 -0.096402
v 0.421787 0.134005 0.205863
v 0.163308 0.134004 0.205863
v 0.131918 0.154585 -0.095433
v 0.131918 0.154585 0.204895
v -0.131075 0.154584 0.204895
v -0.131075 0.154584 -0.095433
v -0.163402 0.154584 -0.095433
v -0.163402 0.154584 0.204895
v -0.421431 0.154583 0.204895
v -0.421431 0.154583 -0.095433
v 0.420818 0.154585 0.204895
v 0.164277 0.154585 0.204895
v 0.164277 0.154585 -0.095433
v 0.420818 0.154585 -0.095433
v 0.132887 0.153368 0.205863
v -0.132044 0.153367 0.205863
v -0.132044 0.153367 -0.096402
v 0.132887 0.153368 -0.096402
v -0.162433 0.153367 0.205863
v -0.422400 0.153367 0.205863
v -0.422400 0.153367 -0.096402
v -0.162433 0.153367 -0.096402
v 0.421787 0.153369 0.205863
v 0.163308 0.153368 0.205863
v 0.163308 0.153368 -0.096402
v 0.421787 0.153369 -0.096402
v 0.132887 0.145620 -0.149827
v 0.132887 0.145620 -0.103289
v 0.132887 0.153368 -0.103289
v -0.132044 0.145619 -0.103289
v -0.132044 0.153367 -0.103289
v -0.132044 0.145619 -0.149827
v -0.132044 0.153367 -0.149827
v 0.132887 0.153368 -0.149827
v -0.162433 0.153367 -0.149827
v -0.162433 0.145619 -0.149827
v -0.162433 0.145619 -0.103289
v -0.162433 0.153367 -0.103289
v -0.422400 0.145618 -0.103289
v -0.422400 0.153367 -0.103289
v -0.422400 0.145618 -0.149827
v -0.422400 0.153367 -0.149827
v 0.421787 0.145620 -0.103289
v 0.421787 0.153369 -0.103289
v 0.163308 0.145620 -0.103289
v 0.163308 0.153368 -0.103289
v 0.163308 0.145620 -0.149827
v 0.163308 0.153368 -0.149827
v 0.421787 0.145620 -0.149827
v 0.421787 0.153369 -0.149827
v 0.131918 0.154585 -0.148858
v 0.131918 0.154585 -0.104257
v -0.131075 0.154584 -0.104257
v -0.131075 0.154584 -0.148858
v -0.163402 0.154584 -0.148858
v -0.163402 0.154584 -0.104257
v -0.421431 0.154583 -0.104257
v -0.421431 0.154583 -0.148858
v 0.420818 0.154585 -0.148858
v 0.420818 0.154585 -0.104257
v 0.164277 0.154585 -0.104257
v 0.164277 0.154585 -0.148858
v -0.474938 0.166739 -0.183656
v 0.475043 0.166742 -0.183656
v -0.474938 0.168283 -0.172033
v 0.475043 0.168285 -0.172033
v 0.475043 0.168285 -0.182106
v -0.474938 0.168283 -0.182106
v 0.098181 -0.072747 -0.173026
v 0.053162 -0.092804 -0.173026
v -0.053051 -0.092811 -0.173026
v -0.098076 -0.072759 -0.173026
v 0.128261 -0.042731 -0.173026
v -0.128164 -0.042747 -0.173026
v 0.138821 -0.007326 -0.173026
v -0.138734 -0.007344 -0.173026
v 0.128256 0.028078 -0.173026
v -0.128179 0.028061 -0.173026
v 0.098172 0.058091 -0.173026
v -0.098103 0.058079 -0.173026
v 0.053150 0.078146 -0.173026
v -0.053087 0.078139 -0.173026
v 0.000043 0.085188 -0.173026
v 0.000057 -0.099849 -0.173026
v 0.098181 -0.072747 -0.184649
v 0.053162 -0.092804 -0.184649
v -0.053051 -0.092811 -0.184649
v -0.098076 -0.072759 -0.184649
v 0.128261 -0.042731 -0.184649
v -0.128164 -0.042747 -0.184649
v 0.138821 -0.007326 -0.184649
v -0.138734 -0.007344 -0.184649
v 0.128256 0.028078 -0.184649
v -0.128179 0.028061 -0.184649
v 0.098172 0.058091 -0.184649
v -0.098103 0.058079 -0.184649
v 0.053150 0.078146 -0.184649
v -0.053087 0.078139 -0.184649
v 0.000043 0.085188 -0.184649
v 0.000057 -0.099849 -0.184649
v 0.449457 0.134005 -0.160334
v 0.449457 0.134005 0.221369
v -0.449371 0.134003 0.221369
v -0.449371 0.134003 -0.160334
v 0.449458 -0.172010 0.221369
v -0.449370 -0.172012 0.221369
v -0.449370 -0.172012 -0.160334
v 0.449458 -0.172010 -0.160334
v 0.475027 -0.166673 -0.183656
v 0.461030 -0.181778 -0.172571
v 0.459849 -0.181778 0.280725
v 0.461080 0.145628 -0.171957
v 0.461080 0.145628 0.279484
v -0.460994 0.145626 -0.171957
v -0.460942 -0.181780 -0.172571
v -0.459761 -0.181780 0.280725
v -0.460994 0.145626 0.279484
v -0.474939 -0.168225 -0.185113
v -0.474939 -0.168225 -0.244143
v -0.474939 -0.169775 -0.245645
v -0.474937 -0.181398 -0.245645
v -0.474937 -0.182947 -0.244143
v -0.474937 -0.182947 -0.172033
v -0.474939 -0.166675 -0.183656
v -0.474957 0.168283 -0.182106
v -0.474957 0.166739 -0.183656
v -0.474957 0.168283 -0.172033
v 0.139519 -0.123560 -0.171337
v 0.139518 0.108899 -0.171331
v -0.139432 0.108898 -0.171331
v -0.139431 -0.123561 -0.171337
v 0.104593 -0.094505 -0.093851
v 0.104593 0.079839 -0.093846
v -0.104506 0.079839 -0.093846
v -0.104506 -0.094505 -0.093851
v 0.095015 -0.086519 -0.086803
v 0.095015 0.071853 -0.086800
v -0.094929 0.071853 -0.086800
v -0.094928 -0.086520 -0.086803
v 0.000043 -0.007334 -0.071304
v -0.474956 -0.166675 -0.183656
v -0.474956 -0.166675 -0.171993
v -0.098076 -0.072759 -0.172986
v -0.128164 -0.042747 -0.172986
v -0.053051 -0.092811 -0.172986
v 0.000057 -0.099849 -0.172986
v 0.475027 -0.166673 -0.171993
v 0.098181 -0.072747 -0.172986
v 0.053162 -0.092804 -0.172986
v 0.128261 -0.042731 -0.172986
v 0.138821 -0.007326 -0.172986
v 0.475043 0.166742 -0.171993
v 0.098172 0.058091 -0.172986
v 0.128256 0.028078 -0.172986
v 0.053150 0.078146 -0.172986
v 0.000043 0.085188 -0.172986
v -0.138734 -0.007344 -0.172986
v -0.128179 0.028061 -0.172986
v -0.474938 0.166739 -0.171993
v -0.098103 0.058079 -0.172986
v -0.053087 0.078139 -0.172986
vn 0.0000 -0.6960 -0.7181
vn -0.0000 0.6960 -0.7181
vn 0.0000 0.0000 -1.0000
vn -0.0000 1.0000 0.0000
vn 0.0000 -1.0000 0.0000
vn -1.0000 0.0000 0.0000
vn 1.0000 0.0000 0.0000
vn 0.0000 0.0000 1.0000
vn 0.7823 0.6229 0.0000
vn -0.0000 0.6226 0.7826
vn -0.7823 0.6229 0.0000
vn -0.0000 0.6229 -0.7823
vn -0.0000 0.6229 0.7823
vn -0.7822 0.6230 0.0000
vn -0.7822 0.6231 0.0000
vn 0.0000 0.6232 -0.7821
vn 0.7820 0.6232 0.0000
vn 0.7821 0.6232 0.0000
vn -0.0000 0.6225 0.7826
vn -0.0000 0.6228 0.7824
vn 0.0000 0.6232 -0.7820
vn -0.0000 0.7085 -0.7057
vn -0.0000 0.7087 -0.7055
vn 0.1315 -0.9913 0.0000
vn 0.4070 -0.9134 0.0000
vn 0.7064 -0.7078 0.0000
vn 0.9583 -0.2857 0.0000
vn 0.9582 0.2861 0.0000
vn 0.7062 0.7080 0.0000
vn 0.4068 0.9135 0.0000
vn 0.1314 0.9913 0.0000
vn -0.1315 0.9913 0.0000
vn -0.4070 0.9134 0.0000
vn -0.7064 0.7079 0.0000
vn -0.9583 0.2858 0.0000
vn -0.9582 -0.2860 0.0000
vn -0.7063 -0.7079 0.0000
vn -0.4069 -0.9135 0.0000
vn -0.1314 -0.9913 0.0000
vn 1.0000 -0.0002 0.0000
vn 1.0000 -0.0001 0.0000
vn 1.0000 -0.0001 0.0001
vn 1.0000 -0.0037 0.0026
vn -1.0000 -0.0038 0.0026
vn -1.0000 -0.0002 0.0000
vn 0.0000 1.0000 -0.0001
vn -0.0000 1.0000 -0.0002
vn -1.0000 -0.0001 -0.0000
vn -1.0000 -0.0000 0.0001
vn -1.0000 0.0001 0.0000
vn -1.0000 -0.0001 0.0001
vn 0.9117 -0.0000 0.4109
vn 0.0000 0.9363 0.3511
vn -0.0000 0.9363 0.3512
vn -0.9117 -0.0000 0.4109
vn 0.0000 -0.9363 0.3511
vn 0.5926 -0.0000 0.8055
vn 0.5927 -0.0000 0.8054
vn 0.0000 0.6616 0.7499
vn -0.5927 -0.0000 0.8054
vn -0.5926 -0.0000 0.8055
vn 0.0000 -0.6617 0.7498
vn 0.0000 -0.6617 0.7497
vn 0.1610 -0.0000 0.9869
vn 0.0000 0.1920 0.9814
vn -0.1611 -0.0000 0.9869
vn 0.0000 -0.1921 0.9814
vn -0.0021 -0.0021 -1.0000
vn -0.0017 -0.0038 -1.0000
vn -0.0010 -0.0077 -1.0000
vn 0.0017 -0.0038 -1.0000
vn 0.0021 -0.0021 -1.0000
vn 0.0026 -0.0008 -1.0000
vn 0.0020 0.0020 -1.0000
vn 0.0016 0.0036 -1.0000
vn 0.0009 0.0069 -1.0000
vn -0.0026 0.0008 -1.0000
vn -0.0020 0.0020 -1.0000
vn -0.0016 0.0036 -1.0000
vn -0.0009 0.0069 -1.0000
vn -0.0000 0.0122 -0.9999
vn -0.0000 0.6850 -0.7286
vn -0.0026 -0.0008 -1.0000
vn -0.0030 0.0000 -1.0000
vn 0.0026 0.0008 -1.0000
vn 0.0030 -0.0000 -1.0000
vn 0.0010 -0.0076 -1.0000
vn 0.0000 -0.0149 -0.9999
vn 0.0021 0.0021 1.0000
vn 0.0017 0.0038 1.0000
vn 0.0010 0.0077 1.0000
vn -0.0017 0.0038 1.0000
vn -0.0021 0.0021 1.0000
vn -0.0026 0.0008 1.0000
vn -0.0020 -0.0020 1.0000
vn -0.0016 -0.0036 1.0000
vn -0.0009 -0.0069 1.0000
vn 0.0026 -0.0008 1.0000
vn 0.0020 -0.0020 1.0000
vn 0.0016 -0.0036 1.0000
vn 0.0009 -0.0069 1.0000
vn 0.0000 -0.0122 0.9999
vn 0.0026 0.0008 1.0000
vn 0.0030 -0.0000 1.0000
vn -0.0026 -0.0008 1.0000
vn -0.0030 0.0000 1.0000
vn -0.0010 0.0076 1.0000
vn -0.0000 0.0149 0.9999
vn 0.0000 -0.0025 1.0000
usemtl None
s off
f 3//1 4//1 11//1
f 12//1 3//1 11//1
f 5//2 6//2 9//2
f 10//2 5//2 9//2
f 4//3 5//3 10//3
f 11//3 4//3 10//3
f 6//4 7//4 8//4
f 9//4 6//4 8//4
f 1//5 3//5 12//5
f 2//5 1//5 12//5
f 25//6 14//6 26//6
f 13//6 14//6 25//6
f 26//3 15//3 27//3
f 14//3 15//3 26//3
f 27//7 19//7 28//7
f 15//7 19//7 27//7
f 28//8 13//8 25//8
f 19//8 13//8 28//8
f 29//6 20//6 30//6
f 23//6 20//6 29//6
f 30//3 16//3 31//3
f 20//3 16//3 30//3
f 31//7 17//7 32//7
f 16//7 17//7 31//7
f 32//8 23//8 29//8
f 17//8 23//8 32//8
f 36//6 18//6 33//6
f 24//6 18//6 36//6
f 33//3 21//3 34//3
f 18//3 21//3 33//3
f 34//7 22//7 35//7
f 21//7 22//7 34//7
f 35//8 24//8 36//8
f 22//8 24//8 35//8
f 19//7 15//7 52//7
f 49//7 19//7 52//7
f 13//8 19//8 49//8
f 50//8 13//8 49//8
f 14//6 13//6 50//6
f 51//6 14//6 50//6
f 15//3 14//3 51//3
f 52//3 15//3 51//3
f 17//7 16//7 56//7
f 53//7 17//7 56//7
f 23//8 17//8 53//8
f 54//8 23//8 53//8
f 20//6 23//6 54//6
f 55//6 20//6 54//6
f 16//3 20//3 55//3
f 56//3 16//3 55//3
f 22//7 21//7 60//7
f 57//7 22//7 60//7
f 24//8 22//8 57//8
f 58//8 24//8 57//8
f 18//6 24//6 58//6
f 59//6 18//6 58//6
f 21//3 18//3 59//3
f 60//3 21//3 59//3
f 49//9 52//9 37//9
f 38//9 49//9 37//9
f 50//10 49//10 38//10
f 39//10 50//10 38//10
f 51//11 50//11 39//11
f 40//11 51//11 39//11
f 52//12 51//12 40//12
f 37//12 52//12 40//12
f 53//9 56//9 41//9
f 42//9 53//9 41//9
f 54//10 53//10 42//10
f 43//13 54//13 42//13
f 55//14 54//14 43//14
f 44//15 55//15 43//15
f 56//16 55//16 44//16
f 41//12 56//12 44//12
f 57//17 60//17 48//17
f 45//18 57//18 48//18
f 58//13 57//13 45//13
f 46//10 58//10 45//10
f 59//11 58//11 46//11
f 47//11 59//11 46//11
f 60//12 59//12 47//12
f 48//16 60//16 47//16
f 19//4 14//4 13//4
f 15//4 14//4 19//4
f 17//4 20//4 23//4
f 16//4 20//4 17//4
f 22//4 18//4 24//4
f 21//4 18//4 22//4
f 40//4 39//4 38//4
f 37//4 40//4 38//4
f 44//4 43//4 42//4
f 41//4 44//4 42//4
f 47//4 46//4 45//4
f 48//4 47//4 45//4
f 51//4 50//4 49//4
f 52//4 51//4 49//4
f 55//4 54//4 53//4
f 56//4 55//4 53//4
f 59//4 58//4 57//4
f 60//4 59//4 57//4
f 62//7 61//7 68//7
f 63//7 62//7 68//7
f 64//8 62//8 63//8
f 65//8 64//8 63//8
f 66//6 64//6 65//6
f 67//6 66//6 65//6
f 61//3 66//3 67//3
f 68//3 61//3 67//3
f 71//7 70//7 69//7
f 72//7 71//7 69//7
f 73//8 71//8 72//8
f 74//8 73//8 72//8
f 75//6 73//6 74//6
f 76//6 75//6 74//6
f 70//3 75//3 76//3
f 69//3 70//3 76//3
f 77//7 83//7 84//7
f 78//7 77//7 84//7
f 79//8 77//8 78//8
f 80//8 79//8 78//8
f 81//6 79//6 80//6
f 82//6 81//6 80//6
f 83//3 81//3 82//3
f 84//3 83//3 82//3
f 63//9 68//9 85//9
f 86//9 63//9 85//9
f 65//19 63//19 86//19
f 87//19 65//19 86//19
f 67//11 65//11 87//11
f 88//11 67//11 87//11
f 68//12 67//12 88//12
f 85//12 68//12 88//12
f 72//9 69//9 89//9
f 90//9 72//9 89//9
f 74//19 72//19 90//19
f 91//20 74//20 90//20
f 76//14 74//14 91//14
f 92//15 76//15 91//15
f 69//21 76//21 92//21
f 89//12 69//12 92//12
f 78//17 84//17 93//17
f 94//18 78//18 93//18
f 80//20 78//20 94//20
f 95//19 80//19 94//19
f 82//11 80//11 95//11
f 96//11 82//11 95//11
f 84//12 82//12 96//12
f 93//21 84//21 96//21
f 62//5 64//5 66//5
f 61//5 62//5 66//5
f 71//5 73//5 75//5
f 70//5 71//5 75//5
f 77//5 79//5 81//5
f 83//5 77//5 81//5
f 88//4 87//4 86//4
f 85//4 88//4 86//4
f 92//4 91//4 90//4
f 89//4 92//4 90//4
f 96//4 95//4 94//4
f 93//4 96//4 94//4
f 67//4 65//4 63//4
f 68//4 67//4 63//4
f 76//4 74//4 72//4
f 69//4 76//4 72//4
f 82//4 80//4 78//4
f 84//4 82//4 78//4
f 97//22 102//22 101//22
f 98//23 97//23 101//23
f 102//4 99//4 100//4
f 101//4 102//4 100//4
f 117//24 116//24 132//24
f 133//24 117//24 132//24
f 116//25 114//25 130//25
f 132//25 116//25 130//25
f 114//26 112//26 128//26
f 130//26 114//26 128//26
f 112//27 110//27 126//27
f 128//27 112//27 126//27
f 110//28 108//28 124//28
f 126//28 110//28 124//28
f 108//29 106//29 122//29
f 124//29 108//29 122//29
f 106//30 105//30 121//30
f 122//30 106//30 121//30
f 105//31 118//31 134//31
f 121//31 105//31 134//31
f 118//32 104//32 120//32
f 134//32 118//32 120//32
f 104//33 103//33 119//33
f 120//33 104//33 119//33
f 103//34 107//34 123//34
f 119//34 103//34 123//34
f 107//35 109//35 125//35
f 123//35 107//35 125//35
f 109//36 111//36 127//36
f 125//36 109//36 127//36
f 111//37 113//37 129//37
f 127//37 111//37 129//37
f 113//38 115//38 131//38
f 129//38 113//38 131//38
f 115//39 117//39 133//39
f 131//39 115//39 133//39
f 142//7 136//7 139//7
f 135//7 136//7 142//7
f 139//8 137//8 140//8
f 136//8 137//8 139//8
f 140//6 138//6 141//6
f 137//6 138//6 140//6
f 141//5 139//5 140//5
f 142//5 139//5 141//5
f 136//4 29//4 137//4
f 35//4 29//4 136//4
f 28//8 29//8 36//8
f 25//8 29//8 28//8
f 32//8 29//8 25//8
f 138//4 29//4 30//4
f 137//4 29//4 138//4
f 31//4 25//4 26//4
f 32//4 25//4 31//4
f 27//4 36//4 33//4
f 28//4 36//4 27//4
f 35//4 135//4 34//4
f 136//4 135//4 35//4
f 135//4 33//4 34//4
f 138//4 33//4 135//4
f 138//4 27//4 33//4
f 138//4 26//4 27//4
f 138//4 31//4 26//4
f 138//4 30//4 31//4
f 10//7 9//7 8//7
f 11//40 10//40 8//40
f 12//7 11//7 8//7
f 2//41 12//41 8//41
f 2//42 8//42 143//42
f 143//7 98//7 101//7
f 100//7 143//7 101//7
f 100//42 2//42 143//42
f 147//43 145//43 144//43
f 146//40 147//40 144//40
f 149//44 150//44 151//44
f 148//45 149//45 151//45
f 144//5 145//5 150//5
f 149//5 144//5 150//5
f 21//4 22//4 147//4
f 146//4 21//4 147//4
f 17//4 23//4 151//4
f 13//46 17//46 151//46
f 19//47 13//47 151//47
f 24//4 19//4 151//4
f 22//4 24//4 151//4
f 147//4 22//4 151//4
f 24//4 18//4 15//4
f 19//4 24//4 15//4
f 13//4 14//4 16//4
f 17//4 13//4 16//4
f 23//4 20//4 148//4
f 151//4 23//4 148//4
f 14//8 15//8 21//8
f 16//8 14//8 21//8
f 20//8 16//8 21//8
f 148//4 20//4 21//4
f 146//4 148//4 21//4
f 155//6 156//6 157//6
f 154//48 155//48 157//48
f 153//6 154//6 157//6
f 152//48 153//48 157//48
f 158//49 152//49 157//49
f 160//48 158//48 161//48
f 159//50 160//50 161//50
f 158//51 157//51 161//51
f 166//52 163//52 167//52
f 162//52 163//52 166//52
f 167//53 164//53 168//53
f 163//54 164//54 167//54
f 168//55 165//55 169//55
f 164//55 165//55 168//55
f 169//56 162//56 166//56
f 165//56 162//56 169//56
f 170//57 167//57 171//57
f 166//58 167//58 170//58
f 171//59 168//59 172//59
f 167//59 168//59 171//59
f 172//60 169//60 173//60
f 168//61 169//61 172//61
f 173//62 166//62 170//62
f 169//63 166//63 173//63
f 171//64 174//64 170//64
f 172//65 174//65 171//65
f 173//66 174//66 172//66
f 170//67 174//67 173//67
f 124//68 122//68 175//68
f 122//69 121//69 175//69
f 121//70 134//70 175//70
f 120//71 119//71 143//71
f 119//72 123//72 143//72
f 123//73 125//73 143//73
f 127//74 129//74 98//74
f 129//75 131//75 98//75
f 131//76 133//76 98//76
f 97//77 128//77 126//77
f 97//78 130//78 128//78
f 97//79 132//79 130//79
f 97//80 133//80 132//80
f 97//81 98//81 133//81
f 7//82 175//82 143//82
f 8//82 7//82 143//82
f 175//83 126//83 124//83
f 175//84 97//84 126//84
f 127//85 98//85 125//85
f 98//86 143//86 125//86
f 143//87 134//87 120//87
f 143//88 175//88 134//88
f 176//89 177//89 178//89
f 176//90 179//90 177//90
f 176//91 180//91 179//91
f 181//92 182//92 183//92
f 181//93 184//93 182//93
f 181//94 185//94 184//94
f 186//95 187//95 188//95
f 186//96 189//96 187//96
f 186//97 190//97 189//97
f 191//98 192//98 193//98
f 192//99 194//99 193//99
f 194//100 195//100 193//100
f 195//101 190//101 193//101
f 190//102 186//102 193//102
f 176//103 178//103 191//103
f 176//104 191//104 193//104
f 188//105 185//105 186//105
f 186//106 185//106 181//106
f 181//107 183//107 180//107
f 181//108 180//108 176//108
f 1//109 2//109 181//109
f 176//109 1//109 181//109
