# Blender v2.79 (sub 0) OBJ File: ''
# www.blender.org
mtllib m954.mtl
o m954
v -0.474814 -0.263234 -0.256348
v 0.475168 -0.263231 -0.256348
v -0.474814 -0.263234 -0.361614
v -0.474814 -0.260972 -0.363807
v -0.474814 -0.244004 -0.363807
v -0.474814 -0.241742 -0.361614
v -0.474814 -0.241742 -0.275439
v 0.475168 -0.241740 -0.275439
v 0.475168 -0.241740 -0.361614
v 0.475168 -0.244002 -0.363807
v 0.475168 -0.260969 -0.363807
v 0.475168 -0.263231 -0.361614
v -0.474797 0.249492 -0.256348
v 0.475185 0.249494 -0.256348
v -0.474814 -0.239480 -0.256287
v 0.475168 -0.239477 -0.256287
v -0.021378 0.216407 0.295182
v -0.021378 0.216407 -0.146065
v 0.400229 0.216408 0.295182
v 0.400229 0.216408 -0.146065
v -0.400879 0.216417 0.295182
v -0.400879 0.216417 -0.146065
v 0.022900 0.216419 -0.146065
v 0.022900 0.216419 0.295182
v -0.400879 0.199450 0.295182
v -0.400879 0.199450 -0.146065
v -0.021378 0.199451 -0.146065
v -0.021378 0.199451 0.295182
v 0.022900 0.199451 -0.146065
v 0.400229 0.199452 -0.146065
v 0.400229 0.199452 0.295182
v 0.022900 0.199451 0.295182
v -0.022792 0.229495 -0.144652
v -0.022792 0.229495 0.293768
v -0.399465 0.229493 0.293768
v -0.399465 0.229493 -0.144652
v 0.398815 0.229496 0.293768
v 0.024314 0.229495 0.293768
v 0.024314 0.229495 -0.144652
v 0.398815 0.229496 -0.144652
v -0.021378 0.227719 -0.146065
v -0.021378 0.227719 0.295182
v -0.400879 0.227718 0.295182
v -0.400879 0.227718 -0.146065
v 0.400228 0.227720 -0.146065
v 0.400228 0.227720 0.295182
v 0.022900 0.227719 0.295182
v 0.022900 0.227719 -0.146065
v -0.021378 0.216407 -0.224056
v -0.021378 0.216407 -0.156119
v -0.021378 0.227719 -0.156119
v -0.400879 0.216406 -0.156119
v -0.400879 0.227718 -0.156119
v -0.400879 0.216406 -0.224056
v -0.400879 0.227718 -0.224056
v -0.021378 0.227719 -0.224056
v 0.400228 0.227720 -0.224056
v 0.400229 0.216408 -0.224056
v 0.400229 0.216408 -0.156119
v 0.400228 0.227720 -0.156119
v 0.022900 0.216408 -0.156119
v 0.022900 0.227719 -0.156119
v 0.022900 0.216408 -0.224056
v 0.022900 0.227719 -0.224056
v -0.022792 0.229495 -0.222642
v -0.022792 0.229495 -0.157533
v -0.399465 0.229493 -0.157533
v -0.399465 0.229493 -0.222642
v 0.398815 0.229496 -0.222642
v 0.398815 0.229496 -0.157533
v 0.024314 0.229495 -0.157533
v 0.024314 0.229495 -0.222642
v -0.474797 0.247239 -0.273315
v 0.475185 0.247241 -0.273315
v 0.475185 0.249494 -0.271053
v -0.474797 0.249492 -0.271053
v 0.076153 0.260524 -0.023485
v 0.070497 0.260524 -0.023485
v 0.070497 0.260524 -0.097302
v 0.076153 0.260524 -0.097302
v 0.076151 0.226834 -0.023485
v 0.070495 0.226834 -0.023485
v 0.076151 0.226834 -0.029671
v 0.070495 0.226834 -0.029671
v 0.076151 0.254321 -0.029671
v 0.070495 0.254321 -0.029671
v 0.076151 0.254321 -0.091259
v 0.070495 0.254321 -0.091259
v 0.076151 0.226834 -0.091259
v 0.070495 0.226834 -0.091259
v 0.076151 0.226834 -0.097302
v 0.070495 0.226834 -0.097302
v 0.076153 0.260778 -0.097302
v 0.070497 0.260778 -0.097302
v -0.075783 0.260524 -0.097302
v -0.070127 0.260524 -0.097302
v -0.070127 0.260524 -0.023485
v -0.075783 0.260524 -0.023485
v -0.070125 0.226834 -0.023485
v -0.075781 0.226834 -0.023485
v -0.070125 0.226834 -0.029671
v -0.075781 0.226834 -0.029671
v -0.070125 0.254321 -0.029671
v -0.075781 0.254321 -0.029671
v -0.070125 0.254321 -0.091259
v -0.075781 0.254321 -0.091259
v -0.070125 0.226834 -0.091259
v -0.075781 0.226834 -0.091259
v -0.070125 0.226834 -0.097302
v -0.075781 0.226834 -0.097302
v -0.070127 0.260777 -0.097302
v -0.075783 0.260777 -0.097302
v 0.022984 0.199451 0.295182
v -0.021508 0.199451 -0.146065
v -0.021508 0.199451 0.295182
v 0.440622 0.199453 -0.239394
v 0.440622 0.199453 0.317818
v -0.440252 0.199450 0.317818
v -0.440252 0.199450 -0.239394
v 0.440623 -0.247269 -0.239394
v 0.440623 -0.247269 0.317818
v -0.440251 -0.247271 0.317818
v -0.440251 -0.247271 -0.239394
v 0.475168 -0.239477 -0.273315
v 0.457516 -0.261528 -0.257257
v 0.455792 -0.261528 0.404465
v 0.457589 0.216420 -0.256361
v 0.457589 0.216420 0.402654
v -0.457219 0.216417 -0.256361
v -0.457143 -0.261530 -0.257257
v -0.455419 -0.261530 0.404465
v -0.457219 0.216417 0.402654
v -0.021508 0.216419 0.295182
v 0.022984 0.216419 0.295182
v -0.021508 0.216419 -0.146065
v -0.474796 -0.241742 -0.275439
v -0.474796 -0.241742 -0.361614
v -0.474796 -0.244004 -0.363807
v -0.474796 -0.260972 -0.363807
v -0.474796 -0.263234 -0.361614
v -0.474796 -0.263234 -0.256348
v -0.474796 -0.239480 -0.273315
v -0.474815 0.249492 -0.271053
v -0.474815 0.247239 -0.273315
v -0.474815 0.249492 -0.256348
v -0.474814 -0.239480 -0.273315
vn 0.0000 -0.6960 -0.7180
vn -0.0000 0.6960 -0.7180
vn 0.0000 0.0000 -1.0000
vn -0.0000 1.0000 0.0000
vn 0.0000 -1.0000 0.0000
vn 0.0000 -0.0026 1.0000
vn 0.0000 0.0001 1.0000
vn -1.0000 -0.0000 0.0000
vn 1.0000 0.0000 0.0000
vn 0.0000 0.0000 1.0000
vn 1.0000 0.0001 0.0000
vn 0.7823 0.6229 0.0000
vn -0.0000 0.6229 0.7823
vn -0.0000 0.6231 0.7822
vn -0.7822 0.6230 0.0000
vn -0.0000 0.6228 -0.7824
vn -0.0000 0.6226 -0.7825
vn 0.7826 0.6226 0.0000
vn 0.7825 0.6226 0.0000
vn -0.7823 0.6229 0.0000
vn -0.0000 0.6231 -0.7822
vn -0.0000 0.6229 -0.7823
vn -0.0000 0.7085 -0.7057
vn -1.0000 0.0001 0.0000
vn -1.0000 0.0000 0.0003
vn -1.0000 0.0003 0.0000
vn -1.0000 0.0000 -0.0003
vn 1.0000 -0.0001 -0.0003
vn 1.0000 -0.0003 0.0000
vn 1.0000 -0.0001 0.0003
vn 1.0000 0.0001 0.0003
vn 1.0000 0.0003 0.0000
vn 1.0000 0.0001 -0.0003
vn -1.0000 -0.0001 0.0000
vn -1.0000 -0.0003 0.0000
vn 1.0000 -0.0037 0.0026
vn 1.0000 -0.0002 0.0000
vn -1.0000 -0.0038 0.0026
vn -1.0000 -0.0002 0.0000
vn -0.0002 1.0000 0.0000
vn -0.0003 1.0000 -0.0012
vn 0.0000 1.0000 0.0001
vn -0.0000 1.0000 -0.0001
vn -0.0003 1.0000 -0.0011
vn -0.0000 1.0000 -0.0011
vn 0.0003 1.0000 -0.0001
vn 0.0000 1.0000 0.0004
vn -0.0000 1.0000 0.0003
vn -0.0000 0.6845 -0.7290
usemtl None
s off
f 3//1 4//1 11//1
f 12//1 3//1 11//1
f 5//2 6//2 9//2
f 10//2 5//2 9//2
f 4//3 5//3 10//3
f 11//3 4//3 10//3
f 6//4 7//4 8//4
f 9//4 6//4 8//4
f 1//5 3//5 12//5
f 2//5 1//5 12//5
f 1//6 2//6 16//6
f 15//6 1//6 16//6
f 13//7 15//7 16//7
f 14//7 13//7 16//7
f 25//8 22//8 26//8
f 21//8 22//8 25//8
f 26//3 18//3 27//3
f 22//3 18//3 26//3
f 27//9 17//9 28//9
f 18//9 17//9 27//9
f 28//10 21//10 25//10
f 17//10 21//10 28//10
f 32//8 23//8 29//8
f 24//8 23//8 32//8
f 29//3 20//3 30//3
f 23//3 20//3 29//3
f 30//9 19//9 31//9
f 20//9 19//9 30//9
f 31//10 24//10 32//10
f 19//10 24//10 31//10
f 17//9 18//9 41//9
f 42//9 17//9 41//9
f 21//10 17//10 42//10
f 43//10 21//10 42//10
f 22//8 21//8 43//8
f 44//8 22//8 43//8
f 18//3 22//3 44//3
f 41//3 18//3 44//3
f 19//11 20//11 45//11
f 46//11 19//11 45//11
f 24//10 19//10 46//10
f 47//10 24//10 46//10
f 23//8 24//8 47//8
f 48//8 23//8 47//8
f 20//3 23//3 48//3
f 45//3 20//3 48//3
f 42//12 41//12 33//12
f 34//12 42//12 33//12
f 43//13 42//13 34//13
f 35//14 43//14 34//14
f 44//15 43//15 35//15
f 36//15 44//15 35//15
f 41//16 44//16 36//16
f 33//17 41//17 36//17
f 46//18 45//18 40//18
f 37//19 46//19 40//19
f 47//13 46//13 37//13
f 38//13 47//13 37//13
f 48//20 47//20 38//20
f 39//20 48//20 38//20
f 45//17 48//17 39//17
f 40//17 45//17 39//17
f 17//4 22//4 21//4
f 18//4 22//4 17//4
f 19//4 23//4 24//4
f 20//4 23//4 19//4
f 36//4 35//4 34//4
f 33//4 36//4 34//4
f 39//4 38//4 37//4
f 40//4 39//4 37//4
f 44//4 43//4 42//4
f 41//4 44//4 42//4
f 48//4 47//4 46//4
f 45//4 48//4 46//4
f 50//9 49//9 56//9
f 51//9 50//9 56//9
f 52//10 50//10 51//10
f 53//10 52//10 51//10
f 54//8 52//8 53//8
f 55//8 54//8 53//8
f 49//3 54//3 55//3
f 56//3 49//3 55//3
f 59//11 58//11 57//11
f 60//11 59//11 57//11
f 61//10 59//10 60//10
f 62//10 61//10 60//10
f 63//8 61//8 62//8
f 64//8 63//8 62//8
f 58//3 63//3 64//3
f 57//3 58//3 64//3
f 51//12 56//12 65//12
f 66//12 51//12 65//12
f 53//13 51//13 66//13
f 67//14 53//14 66//14
f 55//15 53//15 67//15
f 68//15 55//15 67//15
f 56//21 55//21 68//21
f 65//22 56//22 68//22
f 60//19 57//19 69//19
f 70//19 60//19 69//19
f 62//13 60//13 70//13
f 71//13 62//13 70//13
f 64//20 62//20 71//20
f 72//20 64//20 71//20
f 57//22 64//22 72//22
f 69//22 57//22 72//22
f 50//4 54//4 52//4
f 49//4 54//4 50//4
f 59//4 63//4 61//4
f 58//4 63//4 59//4
f 68//4 67//4 66//4
f 65//4 68//4 66//4
f 72//4 71//4 70//4
f 69//4 72//4 70//4
f 55//4 53//4 51//4
f 56//4 55//4 51//4
f 64//4 62//4 60//4
f 57//4 64//4 60//4
f 73//23 76//23 75//23
f 74//23 73//23 75//23
f 76//4 13//4 14//4
f 75//4 76//4 14//4
f 79//4 78//4 77//4
f 80//4 79//4 77//4
f 78//10 82//10 81//10
f 77//10 78//10 81//10
f 82//5 84//5 83//5
f 81//5 82//5 83//5
f 84//3 86//3 85//3
f 83//3 84//3 85//3
f 86//5 88//5 87//5
f 85//5 86//5 87//5
f 88//10 90//10 89//10
f 87//10 88//10 89//10
f 90//5 92//5 91//5
f 89//5 90//5 91//5
f 92//3 94//3 93//3
f 91//3 92//3 93//3
f 84//24 82//24 78//24
f 86//25 84//25 78//25
f 86//26 78//26 79//26
f 88//26 86//26 79//26
f 90//27 88//27 79//27
f 92//24 90//24 79//24
f 81//9 83//9 85//9
f 77//28 81//28 85//28
f 80//29 77//29 85//29
f 80//29 85//29 87//29
f 87//9 89//9 91//9
f 80//30 87//30 91//30
f 97//4 96//4 95//4
f 98//4 97//4 95//4
f 99//10 97//10 98//10
f 100//10 99//10 98//10
f 101//5 99//5 100//5
f 102//5 101//5 100//5
f 103//3 101//3 102//3
f 104//3 103//3 102//3
f 105//5 103//5 104//5
f 106//5 105//5 104//5
f 107//10 105//10 106//10
f 108//10 107//10 106//10
f 109//5 107//5 108//5
f 110//5 109//5 108//5
f 111//3 109//3 110//3
f 112//3 111//3 110//3
f 99//9 101//9 103//9
f 97//31 99//31 103//31
f 96//32 97//32 103//32
f 96//32 103//32 105//32
f 105//9 107//9 109//9
f 96//33 105//33 109//33
f 102//34 100//34 98//34
f 104//27 102//27 98//27
f 104//35 98//35 95//35
f 106//35 104//35 95//35
f 108//25 106//25 95//25
f 110//34 108//34 95//34
f 120//9 117//9 121//9
f 116//9 117//9 120//9
f 121//10 118//10 122//10
f 117//10 118//10 121//10
f 122//8 119//8 123//8
f 118//8 119//8 122//8
f 123//5 121//5 122//5
f 120//5 121//5 123//5
f 117//4 25//4 118//4
f 31//4 25//4 117//4
f 115//10 25//10 32//10
f 113//3 25//3 115//3
f 119//4 25//4 26//4
f 118//4 25//4 119//4
f 114//4 32//4 29//4
f 115//4 32//4 114//4
f 31//4 116//4 30//4
f 117//4 116//4 31//4
f 27//4 119//4 26//4
f 29//4 119//4 27//4
f 30//4 119//4 29//4
f 116//4 119//4 30//4
f 10//9 9//9 8//9
f 11//9 10//9 8//9
f 12//9 11//9 8//9
f 2//9 12//9 8//9
f 2//9 8//9 124//9
f 124//9 74//9 75//9
f 14//9 124//9 75//9
f 14//9 2//9 124//9
f 128//36 126//36 125//36
f 127//37 128//37 125//37
f 130//38 131//38 132//38
f 129//39 130//39 132//39
f 125//5 126//5 131//5
f 130//5 125//5 131//5
f 20//40 19//40 128//40
f 127//40 20//40 128//40
f 17//4 21//4 132//4
f 134//41 17//41 132//41
f 133//5 134//5 132//5
f 24//4 133//4 132//4
f 19//42 24//42 132//42
f 128//43 19//43 132//43
f 24//4 23//4 135//4
f 133//4 24//4 135//4
f 21//4 22//4 129//4
f 132//4 21//4 129//4
f 61//4 50//4 18//4
f 23//44 61//44 18//44
f 63//4 49//4 50//4
f 61//4 63//4 50//4
f 50//45 52//45 22//45
f 18//4 50//4 22//4
f 54//46 129//46 22//46
f 52//9 54//9 22//9
f 63//47 58//47 127//47
f 49//42 63//42 127//42
f 54//47 49//47 127//47
f 129//48 54//48 127//48
f 59//40 20//40 127//40
f 58//40 59//40 127//40
f 61//45 23//45 20//45
f 59//4 61//4 20//4
f 139//8 140//8 141//8
f 138//8 139//8 141//8
f 137//8 138//8 141//8
f 136//8 137//8 141//8
f 142//8 136//8 141//8
f 144//8 142//8 145//8
f 143//8 144//8 145//8
f 142//8 141//8 145//8
f 7//49 146//49 124//49
f 8//49 7//49 124//49
f 142//3 73//3 74//3
f 124//3 142//3 74//3
