# Blender v2.79 (sub 0) OBJ File: ''
# www.blender.org
mtllib m955.mtl
o m955
v 0.475004 0.186979 0.437134
v 0.475004 0.186979 0.542688
v -0.474984 0.186976 0.542688
v -0.474984 0.186976 0.437134
v 0.475005 -0.323799 0.437134
v 0.475005 -0.323799 0.542688
v -0.474983 -0.323801 0.542688
v -0.474983 -0.323801 0.437134
v 0.474987 -0.323319 -0.380874
v 0.474987 -0.323340 0.437167
v 0.474985 0.293008 -0.380855
v 0.474985 0.292987 0.437184
v 0.458494 -0.306827 -0.364378
v 0.458494 -0.306847 0.420676
v 0.458492 0.293008 -0.364365
v 0.458492 0.292989 0.420691
v -0.458500 -0.306830 -0.364378
v -0.458500 -0.306849 0.420676
v -0.458502 0.293005 -0.364365
v -0.458502 0.292987 0.420691
v -0.474993 -0.323322 -0.380874
v -0.474993 -0.323343 0.437167
v -0.474995 0.293005 -0.380855
v -0.474995 0.292984 0.437184
v -0.471907 0.309503 -0.235320
v -0.471907 0.309503 0.437288
v -0.002054 0.309505 0.437288
v -0.002054 0.309505 -0.235320
v -0.002054 0.293012 -0.235320
v -0.002054 0.293012 0.437288
v -0.471907 0.293010 0.437288
v -0.471907 0.293010 -0.235320
v 0.471916 0.309506 -0.235320
v 0.471916 0.309506 0.437288
v 0.002063 0.309505 0.437288
v 0.002063 0.309505 -0.235320
v 0.002063 0.293012 -0.235320
v 0.002063 0.293012 0.437288
v 0.471916 0.293013 0.437288
v 0.471916 0.293013 -0.235320
v 0.457595 0.292997 -0.246126
v -0.457576 0.292995 -0.246126
v -0.457574 -0.307548 -0.246144
v 0.457596 -0.307546 -0.246144
v 0.457596 -0.307546 -0.229649
v -0.457574 -0.307548 -0.229649
v -0.457576 0.292995 -0.229633
v 0.457595 0.292997 -0.229633
v 0.008228 0.292996 -0.246313
v 0.008212 0.292996 -0.364428
v 0.008230 -0.307547 -0.364428
v 0.008246 -0.307547 -0.246313
v -0.008247 -0.307547 -0.246313
v -0.008263 -0.307547 -0.364428
v -0.008280 0.292996 -0.364428
v -0.008265 0.292996 -0.246313
v -0.471907 0.309503 -0.371157
v -0.471907 0.309503 -0.239215
v -0.002054 0.309505 -0.239215
v -0.002054 0.309505 -0.371157
v -0.471907 0.293010 -0.371157
v -0.471907 0.293010 -0.239215
v -0.002054 0.293012 -0.239215
v -0.002054 0.293012 -0.371157
v 0.471916 0.309506 -0.371157
v 0.471916 0.309506 -0.239215
v 0.002063 0.309505 -0.239215
v 0.002063 0.309505 -0.371157
v 0.471916 0.293013 -0.371157
v 0.471916 0.293013 -0.239215
v 0.002063 0.293012 -0.239215
v 0.002063 0.293012 -0.371157
v -0.197118 0.309491 -0.318573
v -0.197120 0.349074 -0.318573
v -0.276284 0.349068 -0.318573
v -0.276284 0.309485 -0.318573
v -0.203055 0.309491 -0.318573
v -0.203057 0.343136 -0.318573
v -0.270347 0.343131 -0.318573
v -0.270347 0.309485 -0.318573
v -0.197117 0.309491 -0.311976
v -0.197119 0.349074 -0.311976
v -0.276284 0.349068 -0.311976
v -0.276284 0.309485 -0.311976
v -0.270347 0.309485 -0.311976
v -0.270347 0.343131 -0.311976
v -0.203056 0.343136 -0.311976
v -0.203054 0.309491 -0.311976
v 0.197126 0.309492 -0.318573
v 0.197128 0.349075 -0.318573
v 0.276292 0.349070 -0.318573
v 0.276292 0.309487 -0.318573
v 0.203063 0.309492 -0.318573
v 0.203065 0.343137 -0.318573
v 0.270355 0.343132 -0.318573
v 0.270355 0.309487 -0.318573
v 0.197125 0.309492 -0.311976
v 0.197127 0.349075 -0.311976
v 0.276292 0.349070 -0.311976
v 0.276292 0.309487 -0.311976
v 0.270355 0.309487 -0.311976
v 0.270355 0.343132 -0.311976
v 0.203064 0.343137 -0.311976
v 0.203063 0.309492 -0.311976
v -0.048126 0.349074 -0.129615
v -0.041529 0.349074 -0.129615
v -0.041528 0.309491 -0.129618
v -0.048125 0.309491 -0.129618
v -0.048127 0.349069 -0.050449
v -0.041530 0.349069 -0.050449
v -0.048126 0.309486 -0.050452
v -0.041529 0.309486 -0.050452
v -0.048126 0.309486 -0.056390
v -0.041529 0.309486 -0.056390
v -0.048127 0.343131 -0.056387
v -0.041530 0.343131 -0.056387
v -0.048126 0.343137 -0.123678
v -0.041529 0.343137 -0.123678
v -0.048125 0.309491 -0.123680
v -0.041528 0.309491 -0.123680
v 0.048134 0.349074 -0.129615
v 0.041537 0.349074 -0.129615
v 0.041537 0.309491 -0.129618
v 0.048134 0.309491 -0.129618
v 0.048135 0.349069 -0.050449
v 0.041538 0.349069 -0.050449
v 0.048134 0.309486 -0.050452
v 0.041537 0.309486 -0.050452
v 0.048134 0.309486 -0.056390
v 0.041537 0.309486 -0.056390
v 0.048135 0.343132 -0.056387
v 0.041538 0.343132 -0.056387
v 0.048134 0.343137 -0.123678
v 0.041537 0.343137 -0.123678
v 0.048134 0.309491 -0.123680
v 0.041537 0.309491 -0.123680
vn -0.0000 1.0000 0.0000
vn -1.0000 -0.0000 0.0000
vn 1.0000 0.0000 0.0000
vn 0.0000 -1.0000 -0.0000
vn 0.0000 0.0000 -1.0000
vn 0.0000 -0.0000 1.0000
vn -0.0002 1.0000 0.0000
vn 0.0001 1.0000 0.0000
vn -0.0000 1.0000 0.0001
vn -0.0000 1.0000 0.0002
vn 1.0000 0.0000 -0.0001
vn -1.0000 -0.0000 0.0001
vn 1.0000 0.0001 -0.0001
vn -0.0001 1.0000 -0.0000
vn 0.0001 -1.0000 0.0000
vn -1.0000 -0.0001 0.0001
vn -1.0000 -0.0001 0.0002
vn -1.0000 0.0000 -0.0002
vn -0.0001 -1.0000 0.0000
vn 1.0000 -0.0001 0.0001
vn 0.0000 0.0001 -1.0000
vn 0.0000 -0.0001 1.0000
vn 0.0000 -1.0000 -0.0001
usemtl None
s off
f 3//1 2//1 1//1
f 4//1 3//1 1//1
f 7//2 3//2 4//2
f 8//2 7//2 4//2
f 2//3 6//3 5//3
f 1//3 2//3 5//3
f 22//2 24//2 23//2
f 21//2 22//2 23//2
f 10//4 22//4 21//4
f 9//4 10//4 21//4
f 12//3 10//3 9//3
f 11//3 12//3 9//3
f 21//5 23//5 11//5
f 9//5 21//5 11//5
f 24//6 22//6 10//6
f 12//6 24//6 10//6
f 20//3 18//3 17//3
f 19//3 20//3 17//3
f 18//1 14//1 13//1
f 17//1 18//1 13//1
f 14//2 16//2 15//2
f 13//2 14//2 15//2
f 19//6 17//6 13//6
f 15//6 19//6 13//6
f 18//5 20//5 16//5
f 14//5 18//5 16//5
f 24//7 20//7 19//7
f 23//1 24//1 19//1
f 11//1 15//1 16//1
f 12//8 11//8 16//8
f 23//1 19//1 15//1
f 11//1 23//1 15//1
f 12//9 16//9 20//9
f 24//10 12//10 20//10
f 26//1 27//1 28//1
f 25//1 26//1 28//1
f 30//4 31//4 32//4
f 29//4 30//4 32//4
f 27//3 30//3 29//3
f 28//3 27//3 29//3
f 25//5 28//5 29//5
f 32//5 25//5 29//5
f 31//2 26//2 25//2
f 32//2 31//2 25//2
f 31//6 30//6 27//6
f 26//6 31//6 27//6
f 35//1 34//1 33//1
f 36//1 35//1 33//1
f 39//4 38//4 37//4
f 40//4 39//4 37//4
f 38//2 35//2 36//2
f 37//2 38//2 36//2
f 36//5 33//5 40//5
f 37//5 36//5 40//5
f 34//3 39//3 40//3
f 33//3 34//3 40//3
f 38//6 39//6 34//6
f 35//6 38//6 34//6
f 43//5 42//5 41//5
f 44//5 43//5 41//5
f 47//6 46//6 45//6
f 48//6 47//6 45//6
f 42//1 47//1 48//1
f 41//1 42//1 48//1
f 51//11 50//11 49//11
f 52//11 51//11 49//11
f 55//12 54//12 53//12
f 56//12 55//12 53//12
f 50//1 55//1 56//1
f 49//1 50//1 56//1
f 58//1 59//1 60//1
f 57//1 58//1 60//1
f 63//4 62//4 61//4
f 64//4 63//4 61//4
f 59//3 63//3 64//3
f 60//3 59//3 64//3
f 57//5 60//5 64//5
f 61//5 57//5 64//5
f 62//2 58//2 57//2
f 61//2 62//2 57//2
f 62//6 63//6 59//6
f 58//6 62//6 59//6
f 67//1 66//1 65//1
f 68//1 67//1 65//1
f 70//4 71//4 72//4
f 69//4 70//4 72//4
f 71//2 67//2 68//2
f 72//2 71//2 68//2
f 68//5 65//5 69//5
f 72//5 68//5 69//5
f 66//3 70//3 69//3
f 65//3 66//3 69//3
f 71//6 70//6 66//6
f 67//6 71//6 66//6
f 82//11 81//11 73//11
f 74//13 82//13 73//13
f 83//14 82//14 74//14
f 75//14 83//14 74//14
f 84//2 83//2 75//2
f 76//2 84//2 75//2
f 85//4 84//4 76//4
f 80//4 85//4 76//4
f 86//3 85//3 80//3
f 79//3 86//3 80//3
f 87//15 86//15 79//15
f 78//15 87//15 79//15
f 88//16 87//16 78//16
f 77//17 88//17 78//17
f 81//4 88//4 77//4
f 73//4 81//4 77//4
f 73//5 77//5 78//5
f 80//5 76//5 75//5
f 79//5 80//5 75//5
f 79//5 75//5 74//5
f 78//5 79//5 74//5
f 73//5 78//5 74//5
f 81//6 82//6 87//6
f 81//6 87//6 88//6
f 82//6 83//6 86//6
f 82//6 86//6 87//6
f 84//6 85//6 86//6
f 83//6 84//6 86//6
f 97//18 98//18 90//18
f 89//18 97//18 90//18
f 98//8 99//8 91//8
f 90//8 98//8 91//8
f 99//3 100//3 92//3
f 91//3 99//3 92//3
f 100//4 101//4 96//4
f 92//4 100//4 96//4
f 101//2 102//2 95//2
f 96//2 101//2 95//2
f 102//19 103//19 94//19
f 95//19 102//19 94//19
f 103//3 104//3 93//3
f 94//20 103//20 93//20
f 104//4 97//4 89//4
f 93//4 104//4 89//4
f 94//5 93//5 89//5
f 92//5 96//5 95//5
f 91//5 92//5 95//5
f 91//5 95//5 94//5
f 90//5 91//5 94//5
f 90//5 94//5 89//5
f 103//6 98//6 97//6
f 104//6 103//6 97//6
f 102//6 99//6 98//6
f 103//6 102//6 98//6
f 101//6 100//6 99//6
f 102//6 101//6 99//6
f 106//21 107//21 108//21
f 105//21 106//21 108//21
f 110//9 106//9 105//9
f 109//9 110//9 105//9
f 112//22 110//22 109//22
f 111//22 112//22 109//22
f 114//4 112//4 111//4
f 113//4 114//4 111//4
f 116//21 114//21 113//21
f 115//21 116//21 113//21
f 118//23 116//23 115//23
f 117//23 118//23 115//23
f 120//22 118//22 117//22
f 119//22 120//22 117//22
f 107//4 120//4 119//4
f 108//4 107//4 119//4
f 108//2 119//2 117//2
f 113//2 111//2 109//2
f 115//2 113//2 109//2
f 115//2 109//2 105//2
f 117//2 115//2 105//2
f 108//2 117//2 105//2
f 107//3 106//3 118//3
f 107//3 118//3 120//3
f 106//3 110//3 116//3
f 106//3 116//3 118//3
f 112//3 114//3 116//3
f 110//3 112//3 116//3
f 123//21 122//21 121//21
f 124//21 123//21 121//21
f 122//9 126//9 125//9
f 121//9 122//9 125//9
f 126//22 128//22 127//22
f 125//22 126//22 127//22
f 128//4 130//4 129//4
f 127//4 128//4 129//4
f 130//21 132//21 131//21
f 129//21 130//21 131//21
f 132//23 134//23 133//23
f 131//23 132//23 133//23
f 134//22 136//22 135//22
f 133//22 134//22 135//22
f 136//4 123//4 124//4
f 135//4 136//4 124//4
f 133//3 135//3 124//3
f 127//3 129//3 131//3
f 125//3 127//3 131//3
f 125//3 131//3 133//3
f 121//3 125//3 133//3
f 121//3 133//3 124//3
f 134//2 122//2 123//2
f 136//2 134//2 123//2
f 132//2 126//2 122//2
f 134//2 132//2 122//2
f 130//2 128//2 126//2
f 132//2 130//2 126//2
