# Blender v2.79 (sub 0) OBJ File: ''
# www.blender.org
mtllib m983.mtl
o m983
v -0.003120 0.018943 0.536905
v 0.042991 0.018943 0.536905
v -0.003120 0.030262 0.219907
v 0.042991 0.030262 0.219907
v -0.003120 0.022030 0.102360
v 0.042991 0.022030 0.102360
v -0.003120 -0.000264 -0.062964
v 0.042991 -0.000264 -0.062964
v -0.003120 -0.027703 -0.044763
v 0.042991 -0.027703 -0.044763
v -0.003120 -0.013297 0.122836
v 0.042991 -0.013297 0.122836
v -0.003120 -0.010211 0.213840
v 0.042991 -0.010211 0.213840
v -0.003120 -0.049654 0.536905
v 0.042991 -0.049654 0.536905
v 0.023796 -0.002294 0.273659
v 0.123544 -0.080620 0.170520
v 0.169772 -0.211257 0.006428
v -0.105535 -0.069366 0.199516
v -0.013469 -0.186712 0.066943
v 0.169742 -0.361009 -0.071023
v -0.203482 -0.192919 0.053674
v -0.228856 -0.297947 -0.064134
v -0.040016 -0.555921 -0.141265
v 0.006832 -0.001409 0.280217
v -0.137842 -0.047958 0.220011
v -0.315133 -0.025345 0.100907
v -0.002643 0.137927 0.195259
v -0.183222 0.117662 0.098582
v -0.457916 0.044713 -0.024515
v -0.094844 0.277530 0.060577
v -0.221554 0.369686 -0.067787
v -0.517194 0.316996 -0.126728
v 0.036544 -0.007704 0.263945
v 0.019040 0.132984 0.182565
v 0.074694 0.287268 0.074510
v 0.170686 -0.041414 0.176815
v 0.184789 0.122782 0.053501
v 0.168788 0.394079 -0.001034
v 0.320364 -0.002783 0.027706
v 0.431236 0.080225 -0.069634
v 0.427247 0.362614 -0.192537
v -0.128890 -0.104327 -0.217368
v -0.151087 0.038365 -0.184409
v -0.043360 0.102823 -0.263021
v -0.049023 -0.195993 -0.132760
v 0.019936 -0.018210 -0.120709
v 0.088894 0.138037 -0.206376
v 0.083231 -0.187853 -0.198960
v 0.190958 -0.096321 -0.154727
v 0.168761 0.019297 -0.244613
v -0.030865 0.014613 -0.248189
v 0.019936 0.051310 -0.226932
v 0.070737 0.014613 -0.248189
v -0.062127 -0.028830 -0.209270
v 0.019936 -0.024064 -0.187645
v 0.101999 -0.028830 -0.209270
v -0.030865 -0.084608 -0.226322
v 0.019936 -0.108970 -0.191609
v 0.070737 -0.084608 -0.226322
v -0.246360 0.046522 -0.252539
v -0.055256 0.173031 -0.155527
v 0.128013 0.164662 -0.270770
v -0.216018 -0.159297 -0.092695
v 0.019936 -0.016037 -0.033200
v 0.243085 0.060400 -0.174938
v -0.049439 -0.282811 -0.185163
v 0.147034 -0.264508 -0.064304
v 0.287410 -0.075602 -0.212615
vn 0.0000 0.9994 0.0357
vn 0.0000 0.9976 -0.0699
vn 0.0000 0.9910 -0.1336
vn 0.0000 -0.9963 0.0856
vn 0.0000 -0.9994 0.0339
vn 0.0000 -0.9926 -0.1212
vn 0.0000 0.0000 1.0000
vn 1.0000 0.0000 0.0000
vn -1.0000 0.0000 0.0000
vn 0.0869 -0.7511 0.6544
vn 0.8801 -0.2183 0.4217
vn -0.0118 -0.7528 0.6582
vn 0.1728 -0.4932 0.8526
vn -0.4619 0.4386 0.7709
vn -0.4478 0.2271 0.8648
vn 0.5614 0.4656 0.6842
vn 0.0109 0.5710 0.8209
vn 0.4533 0.5101 0.7310
vn 0.5993 0.1916 0.7773
vn 0.4124 0.2654 -0.8715
vn 0.3503 -0.9003 -0.2582
vn -0.1402 0.1210 -0.9827
vn -0.6079 -0.1583 -0.7781
vn 0.5762 -0.3778 -0.7248
vn -0.6369 -0.7155 -0.2870
vn 0.2521 0.0451 -0.9666
vn -0.2129 0.3928 -0.8946
vn 0.5728 -0.2724 -0.7731
vn -0.3373 -0.8113 -0.4776
vn 0.1308 0.1887 -0.9733
vn -0.5482 0.0526 -0.8347
vn 0.0060 -0.7467 0.6651
vn -0.0593 -0.6571 0.7515
vn -0.0716 -0.7368 0.6723
vn -0.2785 -0.4565 0.8450
vn -0.2545 0.5055 0.8244
vn 0.6104 0.1905 0.7688
vn 0.7171 -0.1633 0.6775
vn 0.4660 0.3586 0.8088
vn 0.6079 -0.1834 -0.7725
vn 0.1402 -0.5229 -0.8408
vn -0.3503 0.7084 -0.6127
vn -0.4124 -0.6072 -0.6792
vn 0.2129 -0.7325 -0.6466
vn -0.2521 -0.4473 -0.8581
vn 0.6369 0.5286 -0.5612
vn -0.5762 0.0381 -0.8164
vn 0.4816 -0.4921 -0.7251
vn -0.2744 -0.5969 -0.7539
vn 0.2708 0.7837 -0.5590
vn -0.5760 -0.1952 -0.7938
usemtl None
s off
f 1//1 2//1 4//1
f 3//2 4//2 6//2
f 5//3 6//3 8//3
f 9//4 10//4 12//4
f 11//5 12//5 14//5
f 13//6 14//6 16//6
f 15//7 16//7 2//7
f 2//8 16//8 14//8
f 4//8 14//8 12//8
f 6//8 12//8 10//8
f 15//9 1//9 3//9
f 13//9 3//9 5//9
f 11//9 5//9 7//9
f 17//10 21//10 18//10
f 18//11 22//11 19//11
f 20//12 24//12 21//12
f 21//13 25//13 22//13
f 26//14 30//14 27//14
f 27//14 31//14 28//14
f 29//14 33//14 30//14
f 30//15 34//15 31//15
f 35//16 39//16 36//16
f 36//17 40//17 37//17
f 38//18 42//18 39//18
f 39//19 43//19 40//19
f 44//20 45//20 48//20
f 45//21 46//21 49//21
f 47//22 48//22 51//22
f 48//23 49//23 52//23
f 53//24 54//24 57//24
f 54//25 55//25 58//25
f 56//26 57//26 60//26
f 57//27 58//27 61//27
f 62//28 63//28 66//28
f 63//29 64//29 67//29
f 65//30 66//30 69//30
f 66//31 67//31 70//31
f 1//1 4//1 3//1
f 3//2 6//2 5//2
f 5//3 8//3 7//3
f 9//4 12//4 11//4
f 11//5 14//5 13//5
f 13//6 16//6 15//6
f 15//7 2//7 1//7
f 2//8 14//8 4//8
f 4//8 12//8 6//8
f 6//8 10//8 8//8
f 15//9 3//9 13//9
f 13//9 5//9 11//9
f 11//9 7//9 9//9
f 17//32 20//32 21//32
f 18//33 21//33 22//33
f 20//34 23//34 24//34
f 21//35 24//35 25//35
f 26//14 29//14 30//14
f 27//14 30//14 31//14
f 29//14 32//14 33//14
f 30//36 33//36 34//36
f 35//16 38//16 39//16
f 36//37 39//37 40//37
f 38//38 41//38 42//38
f 39//39 42//39 43//39
f 44//40 48//40 47//40
f 45//41 49//41 48//41
f 47//42 51//42 50//42
f 48//43 52//43 51//43
f 53//44 57//44 56//44
f 54//45 58//45 57//45
f 56//46 60//46 59//46
f 57//47 61//47 60//47
f 62//48 66//48 65//48
f 63//49 67//49 66//49
f 65//50 69//50 68//50
f 66//51 70//51 69//51
