# Blender v2.79 (sub 0) OBJ File: ''
# www.blender.org
mtllib m993.mtl
o m993
v 0.042384 0.000482 0.371678
v 0.142854 0.000482 0.371678
v 0.139430 -0.025522 0.371678
v 0.129393 -0.049753 0.371678
v 0.113427 -0.070562 0.371678
v 0.092619 -0.086528 0.371678
v 0.068388 -0.096565 0.371678
v 0.042384 -0.099988 0.371678
v 0.016381 -0.096565 0.371678
v -0.007851 -0.086528 0.371678
v -0.028658 -0.070562 0.371678
v -0.044625 -0.049753 0.371678
v -0.054662 -0.025522 0.371678
v -0.058085 0.000482 0.371678
v -0.054662 0.026485 0.371678
v -0.044625 0.050716 0.371678
v -0.028658 0.071524 0.371678
v -0.007851 0.087491 0.371678
v 0.016381 0.097528 0.371678
v 0.042384 0.100951 0.371678
v 0.068388 0.097528 0.371678
v 0.092619 0.087491 0.371678
v 0.113427 0.071524 0.371678
v 0.129393 0.050716 0.371678
v 0.139430 0.026485 0.371678
v 0.142854 0.000482 0.327560
v 0.139430 -0.025522 0.327560
v 0.129393 -0.049753 0.327560
v 0.113427 -0.070562 0.327560
v 0.092619 -0.086528 0.327560
v 0.068388 -0.096565 0.327560
v 0.042384 -0.099988 0.327560
v 0.016381 -0.096565 0.327560
v -0.007851 -0.086528 0.327560
v -0.028658 -0.070562 0.327560
v -0.044625 -0.049753 0.327560
v -0.054662 -0.025522 0.327560
v -0.058085 0.000482 0.327560
v -0.054662 0.026485 0.327560
v -0.044625 0.050716 0.327560
v -0.028658 0.071524 0.327560
v -0.007851 0.087491 0.327560
v 0.016381 0.097528 0.327560
v 0.042384 0.100951 0.327560
v 0.068388 0.097528 0.327560
v 0.092619 0.087491 0.327560
v 0.113427 0.071524 0.327560
v 0.129393 0.050716 0.327560
v 0.139430 0.026485 0.327560
v 0.121987 0.000482 0.049324
v 0.119275 -0.020121 0.049324
v 0.111322 -0.039320 0.049324
v 0.098672 -0.055806 0.049324
v 0.082185 -0.068457 0.049324
v 0.062987 -0.076409 0.049324
v 0.042384 -0.079122 0.049324
v 0.021781 -0.076409 0.049324
v 0.002583 -0.068457 0.049324
v -0.013904 -0.055806 0.049324
v -0.026554 -0.039320 0.049324
v -0.034506 -0.020121 0.049324
v -0.037219 0.000482 0.049324
v -0.034506 0.021084 0.049324
v -0.026554 0.040283 0.049324
v -0.013904 0.056769 0.049324
v 0.002583 0.069420 0.049324
v 0.021781 0.077372 0.049324
v 0.042384 0.080084 0.049324
v 0.062987 0.077372 0.049324
v 0.082185 0.069420 0.049324
v 0.098672 0.056769 0.049324
v 0.111322 0.040283 0.049324
v 0.119275 0.021084 0.049324
v 0.042384 0.000482 0.049324
v -0.007190 -0.051556 0.044973
v -0.007190 -0.051506 0.049849
v -0.007190 -0.046630 0.049799
v -0.007190 -0.046680 0.044923
v 0.091958 -0.051556 0.044973
v 0.091958 -0.051506 0.049849
v 0.091958 -0.046630 0.049799
v 0.091958 -0.046680 0.044923
v -0.010233 0.050056 0.049007
v -0.005569 0.050056 0.050429
v -0.004147 0.050056 0.045765
v -0.008811 0.050056 0.044343
v -0.010233 -0.049093 0.049007
v -0.005569 -0.049093 0.050429
v -0.004147 -0.049093 0.045765
v -0.008811 -0.049093 0.044343
v 0.091958 0.052519 0.049799
v 0.091958 0.047643 0.049849
v 0.091958 0.047593 0.044973
v 0.091958 0.052469 0.044923
v -0.007190 0.052519 0.049799
v -0.007190 0.047643 0.049849
v -0.007190 0.047593 0.044973
v -0.007190 0.052469 0.044923
v 0.095001 -0.049093 0.045765
v 0.093580 -0.049093 0.050429
v 0.088916 -0.049093 0.049007
v 0.090337 -0.049093 0.044343
v 0.095001 0.050056 0.045765
v 0.093580 0.050056 0.050429
v 0.088916 0.050056 0.049007
v 0.090337 0.050056 0.044343
v 0.017597 -0.026769 -0.199470
v 0.017597 -0.026719 -0.194594
v 0.017597 -0.021843 -0.194643
v 0.017597 -0.021893 -0.199521
v 0.067171 -0.026769 -0.199470
v 0.067171 -0.026719 -0.194594
v 0.067171 -0.021843 -0.194643
v 0.067171 -0.021893 -0.199521
v 0.070263 -0.022787 -0.197218
v 0.068658 -0.027382 -0.197522
v 0.064080 -0.025824 -0.196898
v 0.065684 -0.021230 -0.196594
v 0.095050 -0.047574 0.047226
v 0.093446 -0.052169 0.046923
v 0.088867 -0.050612 0.047545
v 0.090471 -0.046017 0.047849
v -0.009958 -0.051092 0.046903
v -0.005163 -0.051881 0.047309
v -0.004422 -0.047094 0.047869
v -0.009217 -0.046305 0.047463
v 0.014829 -0.026305 -0.197539
v 0.019624 -0.027094 -0.197135
v 0.020365 -0.022307 -0.196573
v 0.015570 -0.021517 -0.196980
v 0.014554 0.025269 -0.195436
v 0.019218 0.025269 -0.194015
v 0.020640 0.025269 -0.198680
v 0.015976 0.025269 -0.200101
v 0.014554 -0.024306 -0.195436
v 0.019218 -0.024306 -0.194015
v 0.020640 -0.024306 -0.198680
v 0.015976 -0.024306 -0.200101
v -0.010162 0.048312 0.047261
v -0.005477 0.047102 0.047859
v -0.004218 0.051799 0.047511
v -0.008904 0.053010 0.046913
v 0.014625 0.023525 -0.197180
v 0.019310 0.022314 -0.196584
v 0.020569 0.027012 -0.196932
v 0.015884 0.028223 -0.197532
v 0.067171 0.027732 -0.194643
v 0.067171 0.022856 -0.194594
v 0.067171 0.022806 -0.199470
v 0.067171 0.027682 -0.199521
v 0.017597 0.027732 -0.194643
v 0.017597 0.022856 -0.194594
v 0.017597 0.022806 -0.199470
v 0.017597 0.027682 -0.199521
v 0.088784 0.048789 0.047836
v 0.093258 0.046868 0.047577
v 0.095133 0.051323 0.046935
v 0.090659 0.053244 0.047194
v 0.063996 0.024002 -0.196608
v 0.068471 0.022081 -0.196867
v 0.070346 0.026536 -0.197508
v 0.065872 0.028457 -0.197249
v 0.070214 -0.024306 -0.198680
v 0.068793 -0.024306 -0.194015
v 0.064128 -0.024306 -0.195436
v 0.065550 -0.024306 -0.200101
v 0.070214 0.025269 -0.198680
v 0.068793 0.025269 -0.194015
v 0.064128 0.025269 -0.195436
v 0.065550 0.025269 -0.200101
v 0.045476 0.002000 -0.441661
v 0.043871 -0.002594 -0.441964
v 0.039293 -0.001037 -0.441340
v 0.040897 0.003558 -0.441037
v 0.065684 -0.021230 -0.196594
v 0.039617 -0.001517 -0.441985
v 0.044411 -0.002307 -0.441578
v 0.045152 0.002480 -0.441016
v 0.040357 0.003270 -0.441423
v 0.014625 0.023525 -0.197180
v 0.039412 -0.001262 -0.441626
v 0.044098 -0.002473 -0.441026
v 0.045356 0.002225 -0.441375
v 0.040671 0.003436 -0.441975
v 0.039209 -0.000785 -0.441051
v 0.043684 -0.002706 -0.441309
v 0.045559 0.001749 -0.441950
v 0.041085 0.003669 -0.441692
v 0.036136 0.049383 0.080333
v 0.035870 -0.047633 0.079891
v -0.120342 0.000176 -0.570722
v -0.120351 -0.003006 -0.570736
v 0.034224 0.049345 0.077469
v 0.033957 -0.047670 0.077027
v -0.122254 0.000139 -0.573584
v -0.122263 -0.003043 -0.573598
v -0.081780 0.050350 -0.105403
v 0.032193 0.052572 0.074123
v -0.124456 0.000319 -0.577202
v -0.120718 0.000392 -0.571314
v -0.081749 0.048692 -0.105205
v 0.032224 0.050915 0.074320
v -0.124425 -0.001339 -0.577003
v -0.120687 -0.001266 -0.571115
v -0.086332 -0.050016 -0.112596
v -0.086065 0.047000 -0.112154
v -0.125167 -0.003100 -0.578322
v -0.125158 0.000082 -0.578307
v -0.084348 -0.049977 -0.109323
v -0.084081 0.047039 -0.108881
v -0.123183 -0.003061 -0.575047
v -0.123174 0.000121 -0.575032
v 0.032031 -0.050633 0.073844
v -0.081942 -0.052855 -0.105682
v -0.120606 -0.002893 -0.571138
v -0.124345 -0.002966 -0.577026
v 0.032071 -0.048974 0.074056
v -0.081902 -0.051197 -0.105470
v -0.120566 -0.001235 -0.570924
v -0.124304 -0.001307 -0.576812
vn 0.0000 0.0000 1.0000
vn 0.9914 -0.1305 0.0000
vn 0.9239 -0.3827 0.0000
vn 0.7934 -0.6087 0.0000
vn 0.6088 -0.7934 0.0000
vn 0.3827 -0.9239 0.0000
vn 0.1305 -0.9914 0.0000
vn -0.1305 -0.9914 0.0000
vn -0.3827 -0.9239 0.0000
vn -0.6088 -0.7933 0.0000
vn -0.7933 -0.6088 0.0000
vn -0.9239 -0.3827 0.0000
vn -0.9914 -0.1305 0.0000
vn -0.9914 0.1305 0.0000
vn -0.9239 0.3827 0.0000
vn -0.7933 0.6088 0.0000
vn -0.6088 0.7933 0.0000
vn -0.3827 0.9239 0.0000
vn -0.1305 0.9914 0.0000
vn 0.1305 0.9914 0.0000
vn 0.3827 0.9239 0.0000
vn 0.6088 0.7933 0.0000
vn 0.7934 0.6087 0.0000
vn 0.9239 0.3827 0.0000
vn 0.9914 0.1305 0.0000
vn 0.9887 -0.1301 -0.0742
vn 0.9887 -0.1302 -0.0741
vn 0.9213 -0.3817 -0.0741
vn 0.9213 -0.3816 -0.0741
vn 0.7912 -0.6071 -0.0741
vn 0.7912 -0.6071 -0.0742
vn 0.6071 -0.7912 -0.0742
vn 0.3816 -0.9213 -0.0742
vn 0.1302 -0.9887 -0.0742
vn -0.1302 -0.9887 -0.0742
vn -0.3816 -0.9213 -0.0741
vn -0.3816 -0.9213 -0.0742
vn -0.6071 -0.7912 -0.0742
vn -0.6071 -0.7912 -0.0741
vn -0.7912 -0.6071 -0.0741
vn -0.9213 -0.3816 -0.0741
vn -0.9213 -0.3816 -0.0742
vn -0.9887 -0.1302 -0.0742
vn -0.9887 -0.1302 -0.0741
vn -0.9887 0.1302 -0.0741
vn -0.9887 0.1302 -0.0742
vn -0.9213 0.3816 -0.0742
vn -0.9213 0.3816 -0.0741
vn -0.7912 0.6071 -0.0741
vn -0.6071 0.7912 -0.0741
vn -0.6071 0.7911 -0.0742
vn -0.3816 0.9213 -0.0742
vn -0.1301 0.9887 -0.0742
vn -0.1302 0.9887 -0.0742
vn 0.1301 0.9887 -0.0742
vn 0.3816 0.9213 -0.0742
vn 0.6071 0.7912 -0.0742
vn 0.7912 0.6071 -0.0742
vn 0.7912 0.6071 -0.0741
vn 0.9213 0.3817 -0.0741
vn 0.9213 0.3816 -0.0741
vn 0.9887 0.1302 -0.0741
vn 0.9887 0.1302 -0.0742
vn 0.0000 0.0000 -1.0000
vn 0.0000 -0.9999 0.0103
vn 0.0000 0.0103 0.9999
vn 0.0000 0.9999 -0.0103
vn 0.0000 0.9999 -0.0102
vn -0.0000 -0.0103 -0.9999
vn 0.0000 -0.0102 -0.9999
vn -0.2916 0.0000 0.9565
vn 0.9565 0.0000 0.2916
vn 0.2916 0.0000 -0.9565
vn -0.9565 0.0000 -0.2916
vn 0.9566 0.0000 0.2914
vn -0.9566 0.0000 -0.2914
vn 0.0000 -0.9999 0.0102
vn 0.0000 0.0100 0.9999
vn 0.0000 -0.0105 -0.9999
vn 0.9390 -0.3194 -0.1276
vn 0.9389 -0.3195 -0.1276
vn -0.3289 -0.9423 -0.0622
vn -0.3290 -0.9423 -0.0622
vn -0.9390 0.3194 0.1276
vn 0.3290 0.9423 0.0622
vn 0.3289 0.9423 0.0622
vn -0.1519 -0.9817 -0.1150
vn -0.1519 -0.9817 -0.1149
vn 0.9833 -0.1620 0.0833
vn 0.1520 0.9817 0.1150
vn 0.1519 0.9817 0.1150
vn -0.9833 0.1619 -0.0833
vn -0.9833 0.1620 -0.0833
vn -0.2914 0.0000 0.9566
vn 0.2914 0.0000 -0.9566
vn -0.2581 -0.9635 0.0715
vn -0.2580 -0.9635 0.0715
vn 0.9609 -0.2484 0.1226
vn 0.9608 -0.2485 0.1226
vn 0.2582 0.9634 -0.0715
vn 0.2581 0.9635 -0.0715
vn -0.9609 0.2483 -0.1226
vn -0.9609 0.2482 -0.1226
vn -0.3846 -0.9137 0.1316
vn -0.3847 -0.9136 0.1316
vn 0.9176 -0.3939 -0.0531
vn 0.3847 0.9136 -0.1316
vn -0.9176 0.3940 0.0531
vn -0.9176 0.3939 0.0531
vn 0.9389 -0.3196 -0.1276
vn 0.3291 0.9423 0.0622
vn -0.1520 -0.9817 -0.1150
vn -0.9833 0.1618 -0.0833
vn 0.9609 -0.2482 0.1226
vn -0.9609 0.2484 -0.1226
vn -0.3846 -0.9136 0.1316
vn 0.3845 0.9137 -0.1316
vn 0.3847 0.9136 -0.1317
vn -0.9175 0.3941 0.0531
vn 0.9723 -0.0016 -0.2336
vn -0.9723 0.0016 0.2336
vn -0.8316 -0.0003 0.5554
vn -0.8317 -0.0002 0.5552
vn 0.1859 -0.9762 -0.1116
vn 0.1864 -0.9761 -0.1117
vn 0.8315 0.0002 -0.5555
vn 0.1435 0.9837 -0.1088
vn 0.1441 0.9836 -0.1090
vn 0.1683 0.9785 -0.1190
vn 0.1684 0.9785 -0.1190
vn -0.1683 -0.9785 0.1190
vn -0.8435 0.0478 0.5349
vn -0.8435 0.0480 0.5349
vn 0.9732 -0.0091 -0.2298
vn 0.8435 -0.0482 -0.5349
vn -0.9958 -0.0080 0.0909
vn -0.9958 -0.0081 0.0909
vn -0.9965 0.0023 0.0833
vn -0.9965 0.0024 0.0833
vn 0.9965 -0.0024 -0.0833
vn -0.8552 -0.0000 0.5183
vn 0.1665 0.9796 -0.1126
vn 0.1664 0.9796 -0.1126
vn 0.8553 0.0001 -0.5182
vn 0.2089 -0.9711 -0.1152
vn 0.2094 -0.9710 -0.1153
vn 0.2105 -0.9700 -0.1216
vn -0.2105 0.9700 0.1216
vn -0.2101 0.9701 0.1215
vn -0.8430 -0.0480 0.5358
vn -0.8430 -0.0482 0.5358
vn -0.9958 0.0127 0.0909
vn -0.9958 0.0126 0.0909
vn 0.8430 0.0485 -0.5358
vn 0.8430 0.0484 -0.5358
vn 0.9732 0.0059 -0.2299
vn 0.9732 0.0058 -0.2299
usemtl None
s off
f 1//1 3//1 2//1
f 1//1 4//1 3//1
f 1//1 5//1 4//1
f 1//1 6//1 5//1
f 1//1 7//1 6//1
f 1//1 8//1 7//1
f 1//1 9//1 8//1
f 1//1 10//1 9//1
f 1//1 11//1 10//1
f 1//1 12//1 11//1
f 1//1 13//1 12//1
f 1//1 14//1 13//1
f 1//1 15//1 14//1
f 1//1 16//1 15//1
f 1//1 17//1 16//1
f 1//1 18//1 17//1
f 1//1 19//1 18//1
f 1//1 20//1 19//1
f 1//1 21//1 20//1
f 1//1 22//1 21//1
f 1//1 23//1 22//1
f 1//1 24//1 23//1
f 1//1 25//1 24//1
f 1//1 2//1 25//1
f 2//2 27//2 26//2
f 2//2 3//2 27//2
f 3//3 28//3 27//3
f 3//3 4//3 28//3
f 4//4 29//4 28//4
f 4//4 5//4 29//4
f 5//5 30//5 29//5
f 5//5 6//5 30//5
f 6//6 31//6 30//6
f 6//6 7//6 31//6
f 7//7 32//7 31//7
f 7//7 8//7 32//7
f 8//8 33//8 32//8
f 8//8 9//8 33//8
f 9//9 34//9 33//9
f 9//9 10//9 34//9
f 10//10 35//10 34//10
f 10//10 11//10 35//10
f 11//11 36//11 35//11
f 11//11 12//11 36//11
f 12//12 37//12 36//12
f 12//12 13//12 37//12
f 13//13 38//13 37//13
f 13//13 14//13 38//13
f 14//14 39//14 38//14
f 14//14 15//14 39//14
f 15//15 40//15 39//15
f 15//15 16//15 40//15
f 16//16 41//16 40//16
f 16//16 17//16 41//16
f 17//17 42//17 41//17
f 17//17 18//17 42//17
f 18//18 43//18 42//18
f 18//18 19//18 43//18
f 19//19 44//19 43//19
f 19//19 20//19 44//19
f 20//20 45//20 44//20
f 20//20 21//20 45//20
f 21//21 46//21 45//21
f 21//21 22//21 46//21
f 22//22 47//22 46//22
f 22//22 23//22 47//22
f 23//23 48//23 47//23
f 23//23 24//23 48//23
f 24//24 49//24 48//24
f 24//24 25//24 49//24
f 25//25 26//25 49//25
f 25//25 2//25 26//25
f 26//26 51//26 50//26
f 26//27 27//27 51//27
f 27//28 52//28 51//28
f 27//29 28//29 52//29
f 28//30 53//30 52//30
f 28//31 29//31 53//31
f 29//32 54//32 53//32
f 29//32 30//32 54//32
f 30//33 55//33 54//33
f 30//33 31//33 55//33
f 31//34 56//34 55//34
f 31//34 32//34 56//34
f 32//35 57//35 56//35
f 32//35 33//35 57//35
f 33//36 58//36 57//36
f 33//37 34//37 58//37
f 34//38 59//38 58//38
f 34//39 35//39 59//39
f 35//40 60//40 59//40
f 35//40 36//40 60//40
f 36//41 61//41 60//41
f 36//42 37//42 61//42
f 37//43 62//43 61//43
f 37//44 38//44 62//44
f 38//45 63//45 62//45
f 38//46 39//46 63//46
f 39//47 64//47 63//47
f 39//48 40//48 64//48
f 40//49 65//49 64//49
f 40//49 41//49 65//49
f 41//50 66//50 65//50
f 41//51 42//51 66//51
f 42//52 67//52 66//52
f 42//52 43//52 67//52
f 43//53 68//53 67//53
f 43//54 44//54 68//54
f 44//55 69//55 68//55
f 44//55 45//55 69//55
f 45//56 70//56 69//56
f 45//56 46//56 70//56
f 46//57 71//57 70//57
f 46//57 47//57 71//57
f 47//58 72//58 71//58
f 47//59 48//59 72//59
f 48//60 73//60 72//60
f 48//61 49//61 73//61
f 49//62 50//62 73//62
f 49//63 26//63 50//63
f 74//64 50//64 51//64
f 74//64 51//64 52//64
f 74//64 52//64 53//64
f 74//64 53//64 54//64
f 74//64 54//64 55//64
f 74//64 55//64 56//64
f 74//64 56//64 57//64
f 74//64 57//64 58//64
f 74//64 58//64 59//64
f 74//64 59//64 60//64
f 74//64 60//64 61//64
f 74//64 61//64 62//64
f 74//64 62//64 63//64
f 74//64 63//64 64//64
f 74//64 64//64 65//64
f 74//64 65//64 66//64
f 74//64 66//64 67//64
f 74//64 67//64 68//64
f 74//64 68//64 69//64
f 74//64 69//64 70//64
f 74//64 70//64 71//64
f 74//64 71//64 72//64
f 74//64 72//64 73//64
f 74//64 73//64 50//64
f 80//65 75//65 79//65
f 75//65 80//65 76//65
f 81//66 76//66 80//66
f 76//66 81//66 77//66
f 82//67 77//67 81//67
f 77//68 82//68 78//68
f 79//69 78//69 82//69
f 78//70 79//70 75//70
f 88//71 83//71 87//71
f 83//71 88//71 84//71
f 89//72 84//72 88//72
f 84//72 89//72 85//72
f 90//73 85//73 89//73
f 85//73 90//73 86//73
f 87//74 86//74 90//74
f 86//74 87//74 83//74
f 96//66 91//66 95//66
f 91//66 96//66 92//66
f 97//65 92//65 96//65
f 92//65 97//65 93//65
f 98//70 93//70 97//70
f 93//70 98//70 94//70
f 95//67 94//67 98//67
f 94//67 95//67 91//67
f 104//75 99//75 103//75
f 99//75 104//75 100//75
f 105//71 100//71 104//71
f 100//71 105//71 101//71
f 106//76 101//76 105//76
f 101//76 106//76 102//76
f 103//73 102//73 106//73
f 102//73 103//73 99//73
f 112//77 107//77 111//77
f 107//77 112//77 108//77
f 113//78 108//78 112//78
f 108//78 113//78 109//78
f 114//68 109//68 113//68
f 109//68 114//68 110//68
f 111//79 110//79 114//79
f 110//79 111//79 107//79
f 120//80 115//80 119//80
f 115//81 120//81 116//81
f 121//82 116//82 120//82
f 116//83 121//83 117//83
f 122//84 117//84 121//84
f 117//84 122//84 118//84
f 119//85 118//85 122//85
f 118//86 119//86 115//86
f 128//87 123//87 127//87
f 123//88 128//88 124//88
f 129//89 124//89 128//89
f 124//89 129//89 125//89
f 130//90 125//90 129//90
f 125//91 130//91 126//91
f 127//92 126//92 130//92
f 126//93 127//93 123//93
f 136//94 131//94 135//94
f 131//94 136//94 132//94
f 137//72 132//72 136//72
f 132//72 137//72 133//72
f 138//95 133//95 137//95
f 133//95 138//95 134//95
f 135//74 134//74 138//74
f 134//74 135//74 131//74
f 144//96 139//96 143//96
f 139//97 144//97 140//97
f 145//98 140//98 144//98
f 140//99 145//99 141//99
f 146//100 141//100 145//100
f 141//101 146//101 142//101
f 143//102 142//102 146//102
f 142//103 143//103 139//103
f 152//78 147//78 151//78
f 147//78 152//78 148//78
f 153//65 148//65 152//65
f 148//65 153//65 149//65
f 154//79 149//79 153//79
f 149//79 154//79 150//79
f 151//67 150//67 154//67
f 150//67 151//67 147//67
f 160//104 155//104 159//104
f 155//105 160//105 156//105
f 161//106 156//106 160//106
f 156//106 161//106 157//106
f 162//107 157//107 161//107
f 157//107 162//107 158//107
f 159//108 158//108 162//108
f 158//109 159//109 155//109
f 168//75 163//75 167//75
f 163//75 168//75 164//75
f 169//94 164//94 168//94
f 164//94 169//94 165//94
f 170//74 165//74 169//74
f 165//74 170//74 166//74
f 167//95 166//95 170//95
f 166//95 167//95 163//95
f 116//81 171//81 115//81
f 171//110 116//110 172//110
f 117//83 172//83 116//83
f 172//83 117//83 173//83
f 175//84 173//84 117//84
f 173//84 175//84 174//84
f 115//86 174//86 175//86
f 174//111 115//111 171//111
f 177//112 127//112 176//112
f 127//87 177//87 128//87
f 178//89 128//89 177//89
f 128//89 178//89 129//89
f 179//90 129//90 178//90
f 129//90 179//90 130//90
f 176//113 130//113 179//113
f 130//92 176//92 127//92
f 182//96 180//96 181//96
f 180//96 182//96 144//96
f 183//114 144//114 182//114
f 144//98 183//98 145//98
f 184//100 145//100 183//100
f 145//100 184//100 146//100
f 181//115 146//115 184//115
f 146//102 181//102 180//102
f 186//116 159//116 185//116
f 159//104 186//104 160//104
f 187//106 160//106 186//106
f 160//106 187//106 161//106
f 188//117 161//117 187//117
f 161//118 188//118 162//118
f 185//119 162//119 188//119
f 162//108 185//108 159//108
f 191//120 189//120 192//120
f 190//120 192//120 189//120
f 194//121 193//121 196//121
f 195//121 196//121 193//121
f 190//122 189//122 194//122
f 193//123 194//123 189//123
f 192//124 190//124 196//124
f 194//125 196//125 190//125
f 191//126 192//126 195//126
f 196//126 195//126 192//126
f 189//127 191//127 193//127
f 195//128 193//128 191//128
f 199//129 197//129 200//129
f 198//130 200//130 197//130
f 202//131 201//131 204//131
f 203//131 204//131 201//131
f 198//132 197//132 202//132
f 201//133 202//133 197//133
f 200//134 198//134 204//134
f 202//134 204//134 198//134
f 199//135 200//135 203//135
f 204//135 203//135 200//135
f 197//136 199//136 201//136
f 203//137 201//137 199//137
f 207//138 205//138 208//138
f 206//139 208//139 205//139
f 210//140 209//140 212//140
f 211//140 212//140 209//140
f 206//141 205//141 210//141
f 209//141 210//141 205//141
f 208//142 206//142 212//142
f 210//143 212//143 206//143
f 207//144 208//144 211//144
f 212//144 211//144 208//144
f 205//145 207//145 209//145
f 211//146 209//146 207//146
f 215//147 213//147 216//147
f 214//147 216//147 213//147
f 218//148 217//148 220//148
f 219//149 220//149 217//149
f 214//150 213//150 218//150
f 217//151 218//151 213//151
f 216//152 214//152 220//152
f 218//153 220//153 214//153
f 215//154 216//154 219//154
f 220//155 219//155 216//155
f 213//156 215//156 217//156
f 219//157 217//157 215//157
